<svg width="83" height="30" viewBox="0 0 83 30" fill="none" xmlns="http://www.w3.org/2000/svg">
<path d="M16.864 24.038V0.0339994H12.716V24.038H16.864ZM10.336 9.928V7.038H6.63V5.882C6.63 4.828 6.698 3.536 9.044 3.536C9.554 3.536 10.234 3.604 10.336 3.638V0.169999C9.554 0.0679984 8.806 0 8.024 0C3.434 0 2.55 1.734 2.55 4.692V7.038H0V9.928H2.55V24.038H6.63V9.928H10.336Z" fill="black"/>
<path d="M30.8202 7.038L27.6242 19.72L23.8162 7.038H19.4302L25.5842 24.378C25.4482 24.82 25.0742 26.18 22.8302 26.18C22.4902 26.18 22.1162 26.18 21.7082 26.112V29.648C22.3542 29.784 22.8302 29.886 24.1222 29.886C25.4482 29.886 26.5362 29.716 27.5902 28.866C29.0182 27.71 29.8682 24.684 30.4802 22.542L35.0022 7.038H30.8202Z" fill="black"/>
<path d="M53.3457 16.354C53.3457 11.73 51.4757 6.528 44.9817 6.528C40.5617 6.528 36.4477 9.35 36.4477 15.436C36.4477 21.08 40.1197 24.548 45.1857 24.548C49.6397 24.548 52.1217 22.066 53.4817 20.23L50.0137 18.224C49.6737 18.802 48.4497 20.57 45.5597 20.57C41.6157 20.57 40.8337 17.204 40.7657 16.354H53.3457ZM40.9017 13.362C41.0377 12.682 41.6837 9.792 45.0497 9.792C48.2457 9.792 48.7897 12.512 48.8577 13.362H40.9017Z" fill="black"/>
<path d="M56.5595 7.038V24.038H60.5035V16.762C60.5035 15.776 60.5035 14.926 60.8095 13.974C61.7955 10.846 65.0595 10.846 65.9095 10.846V6.664H65.5695C64.7535 6.664 61.7955 6.766 60.5035 9.452V7.038H56.5595Z" fill="black"/>
<path d="M82.5191 9.69C79.9691 6.732 76.5351 6.528 75.2091 6.528C71.1291 6.528 67.8991 8.704 67.8991 12.07C67.8991 16.082 72.4891 16.932 73.8151 17.17L75.9231 17.544C77.4871 17.816 78.4391 18.19 78.4391 19.176C78.4391 19.924 77.5551 21.182 75.1071 21.182C72.5571 21.182 71.0271 20.094 70.2111 19.006L67.1511 21.488C68.1031 22.474 70.6191 24.548 75.3111 24.548C80.0031 24.548 82.9611 21.862 82.9611 18.734C82.9611 15.98 80.9891 14.45 78.4051 13.974L75.6511 13.464C73.2031 13.022 72.1831 12.682 72.1831 11.56C72.1831 10.03 74.2231 9.792 75.0051 9.792C76.9771 9.792 78.7111 10.574 79.6291 12.376L82.5191 9.69Z" fill="black"/>
</svg>
