<svg width="133" height="25" viewBox="0 0 133 25" fill="none" xmlns="http://www.w3.org/2000/svg">
<path d="M0 20.0843H3.82745L3.82745 0L0 0L0 20.0843Z" fill="black"/>
<path d="M15.4376 20.0843H19.1243V19.9438C18.7866 19.691 18.6177 19.0449 18.6177 17.9494L18.6177 10.618C18.6177 7.24719 16.8728 5.30899 12.5388 5.30899C8.31737 5.30899 6.43178 7.52809 6.31921 10.0562H9.72452C9.83709 8.67978 10.7095 8.03371 12.5107 8.03371C14.1148 8.03371 14.931 8.70787 14.931 9.74719C14.931 10.8427 13.8334 11.0393 11.4412 11.3764C8.23294 11.8258 5.64378 12.8371 5.64378 16.0112C5.64378 18.8764 7.72636 20.4213 10.6814 20.4213C13.158 20.4213 14.1993 19.5787 14.931 18.4831H14.9873C15.0717 19.1292 15.2124 19.8034 15.4376 20.0843ZM11.6101 17.7528C10.2592 17.7528 9.35866 17.2753 9.35866 15.927C9.35866 14.5787 10.3437 14.1292 12.3418 13.6798C13.2987 13.4551 14.34 13.2303 15.0154 12.8371V15C15.0154 16.4045 13.8053 17.7528 11.6101 17.7528Z" fill="black"/>
<path d="M24.794 5.67416H21.051L21.051 20.0843H24.8784V11.9101C24.8784 9.94382 26.1167 8.59551 27.8053 8.59551C29.4095 8.59551 30.31 9.69101 30.31 11.236V20.0843L34.1375 20.0843V10.6742C34.1375 7.52809 32.1393 5.2809 29.1562 5.2809C27.1862 5.2809 25.8634 6.09551 24.8784 7.64045L24.794 7.64045V5.67416Z" fill="black"/>
<path d="M42.857 25C44.9959 25 46.8533 24.4944 48.0635 23.3708C49.1329 22.3876 49.7802 21.0112 49.7802 18.9888V5.67416L46.0934 5.67416V7.19101H46.0372C45.1647 5.98315 43.842 5.2809 42.0408 5.2809C38.3823 5.2809 35.7931 8.03371 35.7931 12.3315C35.7931 16.6854 38.9451 19.2135 42.1534 19.2135C43.9827 19.2135 45.0803 18.4831 45.9246 17.5281H46.009V19.1011C46.009 21.0674 44.9677 22.1067 42.8007 22.1067C41.0277 22.1067 40.2116 21.4045 39.902 20.5056H36.1027C36.4967 23.3146 38.917 25 42.857 25ZM42.8007 16.1517C40.8307 16.1517 39.5361 14.7191 39.5361 12.2753C39.5361 9.85955 40.8307 8.3427 42.7726 8.3427C45.0803 8.3427 46.206 10.1404 46.206 12.2472C46.206 14.382 45.221 16.1517 42.8007 16.1517Z" fill="black"/>
<path d="M65.0498 20.0843V5.67416L61.2223 5.67416V13.9888C61.2223 15.8989 60.1247 17.2472 58.3236 17.2472C56.6913 17.2472 55.9314 16.3202 55.9314 14.6348V5.67416L52.1321 5.67416V15.2809C52.1321 18.427 53.9333 20.4775 57.1416 20.4775C59.1679 20.4775 60.2936 19.7191 61.2786 18.3989H61.363V20.0843H65.0498Z" fill="black"/>
<path d="M76.6157 20.0843L80.3024 20.0843V19.9438C79.9647 19.691 79.7958 19.0449 79.7958 17.9494V10.618C79.7958 7.24719 78.051 5.30899 73.7169 5.30899C69.4955 5.30899 67.6099 7.52809 67.4973 10.0562H70.9026C71.0152 8.67978 71.8876 8.03371 73.6888 8.03371C75.2929 8.03371 76.1091 8.70787 76.1091 9.74719C76.1091 10.8427 75.0115 11.0393 72.6194 11.3764C69.411 11.8258 66.8219 12.8371 66.8219 16.0112C66.8219 18.8764 68.9045 20.4213 71.8595 20.4213C74.3361 20.4213 75.3774 19.5787 76.1091 18.4831H76.1654C76.2498 19.1292 76.3905 19.8034 76.6157 20.0843ZM72.7882 17.7528C71.4373 17.7528 70.5368 17.2753 70.5368 15.927C70.5368 14.5787 71.5218 14.1292 73.5199 13.6798C74.4768 13.4551 75.5181 13.2303 76.1935 12.8371V15C76.1935 16.4045 74.9834 17.7528 72.7882 17.7528Z" fill="black"/>
<path d="M88.5894 25C90.7283 25 92.5857 24.4944 93.7959 23.3708C94.8653 22.3876 95.5126 21.0112 95.5126 18.9888V5.67416H91.8259V7.19101H91.7696C90.8971 5.98315 89.5744 5.2809 87.7733 5.2809C84.1147 5.2809 81.5255 8.03371 81.5255 12.3315C81.5255 16.6854 84.6775 19.2135 87.8858 19.2135C89.7151 19.2135 90.8127 18.4831 91.657 17.5281H91.7414V19.1011C91.7414 21.0674 90.7002 22.1067 88.5331 22.1067C86.7601 22.1067 85.944 21.4045 85.6344 20.5056H81.8351C82.2291 23.3146 84.6494 25 88.5894 25ZM88.5331 16.1517C86.5631 16.1517 85.2685 14.7191 85.2685 12.2753C85.2685 9.85955 86.5631 8.3427 88.505 8.3427C90.8127 8.3427 91.9384 10.1404 91.9384 12.2472C91.9384 14.382 90.9534 16.1517 88.5331 16.1517Z" fill="black"/>
<path d="M97.9771 20.0843L101.805 20.0843V5.67416H97.9771V20.0843ZM97.9771 3.42697L101.805 3.42697V0L97.9771 0V3.42697Z" fill="black"/>
<path d="M108.014 5.67416L104.271 5.67416V20.0843H108.098V11.9101C108.098 9.94382 109.337 8.59551 111.025 8.59551C112.629 8.59551 113.53 9.69101 113.53 11.236V20.0843H117.357V10.6742C117.357 7.52809 115.359 5.2809 112.376 5.2809C110.406 5.2809 109.083 6.09551 108.098 7.64045H108.014V5.67416Z" fill="black"/>
<path d="M126.077 25C128.216 25 130.073 24.4944 131.283 23.3708C132.353 22.3876 133 21.0112 133 18.9888V5.67416L129.313 5.67416V7.19101H129.257C128.385 5.98315 127.062 5.2809 125.261 5.2809C121.602 5.2809 119.013 8.03371 119.013 12.3315C119.013 16.6854 122.165 19.2135 125.373 19.2135C127.203 19.2135 128.3 18.4831 129.144 17.5281H129.229V19.1011C129.229 21.0674 128.188 22.1067 126.021 22.1067C124.248 22.1067 123.431 21.4045 123.122 20.5056L119.322 20.5056C119.716 23.3146 122.137 25 126.077 25ZM126.021 16.1517C124.051 16.1517 122.756 14.7191 122.756 12.2753C122.756 9.85955 124.051 8.3427 125.992 8.3427C128.3 8.3427 129.426 10.1404 129.426 12.2472C129.426 14.382 128.441 16.1517 126.021 16.1517Z" fill="black"/>
</svg>
