<svg id="Layer_1" data-name="Layer 1" xmlns="http://www.w3.org/2000/svg" viewBox="0 0 801.69 768.89"><defs><style>.cls-1{fill:#5781f7;}</style></defs><title>face1</title><path class="cls-1" d="M69.11,610.84v-1.4h1.71l.35-1H73.8v-2.79l1.36-.16.88-2.3.65-.14.14-1.22c2.66-.48,5.26.15,8,.5l.19,1.24h1.25v-1.31h3.85v-4.73l1.45-.24.1-1.72h1.16l.34-1c2.66.06,5.1-1.61,7.9-.93l.17-.83,8.07-1.18v-.89h-3c-1.27-1.78-.57-3.72-.78-5.51.58-.4,1.14-.77,2-1.31h4.68l.16-1.31h7.44l.27.79c2.1.35,4.32-.28,6.5.37v-4.95l1.93-.21v-2.21l1.94-.17.1-1.26,1.31-.21.15-1.25h1.25l.2-1.94h2.75v-2.43h2.3l.22-.89,2.72-.16v-2.56c1.13-.31,1.19-1.59,2.5-2.11h1.76l.23-1.41,1.18-.14.34-.9H149v-1.86h2.07l1.6-1.89h1.94l.34-1h3.94c1-2.46,1.34-2.7,4.28-2.91,1.49-.1,3,0,4.58,0v2.8h1.31l.24-1.31,1.65-.09.28-.79,3.65-.75V551h3.31l.16-1.39h1.21l.26-1.45h1.62l.35-1h2.7V545.2h3.78v-1.81l1.95-.19.09-1.32h2.8v-2.35h1.25l.35-1a1.45,1.45,0,0,0,1.88-1.32l3.65-.75.17-.78h3.22l.09-1.84,4.17-.74.21-1.26h5.07v-1.87l6.72-.74.13-.58c1.72-.92,3.61-.63,5.59-.68l.17-1.74,1.93-.65c.55-.2,1.1-.43,1.77-.68v-1.18h3.82l.13-1.4h2.11l1-1.48h1.91l.3-.84,3.09-.74.33-.9h3.1l.13-1.31h6.49l.26.78.76.14c.06-.65.11-1.24.17-1.92l1.69-.09.29-.81c2.72-.55,5.44-1.09,8.36-.07l.21-1.38h3.59l.26-1.46h2.57l.35-1h3.66V508.8h2.22l.38-.93h4.51l.17.81,1.31.21v5.49l-.63.29c-.37,1.57-.61,2.59-.84,3.59l-.78.2v1.61l-1,.34V522c.1,0,.23.17.36.18.88,0,1.76,0,2.64,0,1.78,0,3.59-.22,5.38.61l.28-1.48.65-.14c.38-1.12,1.08-2.32.64-3.5-.77-2.09-.2-4.2-.5-6.36L288,511v-6.85c0-2.26-.18-4.52.75-6.81h4.36c.25,1.95.5,4,.75,6.07l1.31.15v2.24l1.38.15v3.62l1.45.25c0,.38.07.75.11,1.2l.79.21c.23,1,.5,2,.78,3.2l.73.15.06,1.21.85.23v1.62l1,.33v1.66l1.31.22.76,2.73.9.19v2.69l1.38.11v1.77l1.38.16v1.16l1,.33v1.74l1.38.09.81,3.73h1.6l.16,1.88.8.18L314,538h1.72v1.72l1,.34v1.74h1.88l.11,1,1.27,1.48H321v3.28l1.84.11.21.8,1.28.2v3.54l3.78,4H331l.22.87.79.13,2,1.64a6.54,6.54,0,0,1,0,1.08c-.32,1.83.69,3,2,4a12.5,12.5,0,0,1,1.37,1.44,2.54,2.54,0,0,1,.21.46h3.57l.1,1.89h2.33v1.86h1.82l.19,1.94h2.76v2.43h3.3v1.33l1.94.22v1.21l1.44.24c0,.39.07.76.12,1.24h1.15l.34,1h1.12l.34,1,1.15.09.3.84,1.21.14v2.25l2.89.14v2.77H367v2.83h4.18l.25,1.45h1.68l.26,1.47h2.25V594H378v1.37l2.44.14.08,1.33h1.78l.16,1.39h1.21l.27,1.46H386l.35,1h2.15v1.33l1.44.23.16.78,2.71.8.18.64h1.62l.33,1h1.18c.09.51.16.95.25,1.47h2.67v1.28L402,609l.13.63,4.21,1.34.13.58a14.05,14.05,0,0,0,7,1.11l.12,1.44h2.21c.12.61.2,1.05.28,1.47h.57l.72-1.89h4.22v-1.81l1.94-.22v-1.21l1.41-.24.18-.83h1.69l.24-.91h2.19c.06-.67.11-1.26.18-2l1.8-.08v-1.83l1.79-.08.36-.93h1.69l.06-1.39h2.31c0-.7.07-1.24.09-1.58l1.36-1.26h3.35c0-.61,0-1.14.07-1.69,1-1.11,2.39-.68,3.73-.82v-2.24l1.94-.2v-1.79h2.39l.11-1.95h2.22l.23-.9h4.63v-2.9h3.38v-2.83l1.37-.15.17-.84,3.26-.77v-2.07h3.76l.15-2.9h3.51c.25-.48.45-.88.81-1.56v-2.33h3.21v-2.13a2.81,2.81,0,0,0,1.61-2.1h2.1a3,3,0,0,0,.19-.7c0-.64-.07-1.28.79-1.75h2.48V564h3.37v-2.3c.29-.07.5-.15.71-.18,1-.14,2.09-.26,3.18-.39v-2.88h3.48c1.23-1.32.7-2.88.9-4.31l1.3-.15V552h3.37v-2.87l1.92-.15c0-.42.08-.8.13-1.35H505v-2.72c1.5-.24,1.5-1.61,2.28-2.58h1.5v-1.85l1.26-.08c.3-.61.63-1.26,1-1.9h1.1c.06-.59.11-1.19.17-1.86l1.74-.09v-1.19l.9-.28.79-2.71,1.17-.19.2-.77h2.09c.25-.6.7-1.16.66-1.68a12.32,12.32,0,0,1,.67-3.61l1.21-.14v-1.68l1.46-.28v-2.11l.91-.27c0-.47.11-1,.18-1.73H526v-3.37h1.91c.24-2,.48-4,.73-6.16l.72-.25c.23-1.45.46-3,.72-4.59l1.25-.2v-6.47c.55-1.52,1.66-.85,2.36-1.19l.06-.53c-.11-.11-.21-.3-.32-.31-.47,0-.94,0-1.51,0V492l1.76-.7v-5.44l-1.32-.2V481.1l.74-.15.3-.87,1.25-.07c0-.42,0-.85.06-1.31l-1.26-.15a1.55,1.55,0,0,1-.18-.4c-.09-3.78.8-7.51.5-11.3-.06-.74.6-1.38.48-2.2a13.31,13.31,0,0,1,0-2.09l1-1v-3.51h4.6a14.6,14.6,0,0,1,.44,2.39c0,1,1.66.66,1.13,1.89h2.88V465l.77.2,1.23,2.4v4.13l.82.22v5.92l1,.33V489l-.76.25c-.06.61-.12,1.36-.19,2.17l-.87.21c-.06,1.28,0,2.68,0,4.11l-.76.16c-.41.81-.18,2-1.42,2.5-.44.19-.54,1.32-.66,2a10.74,10.74,0,0,0,0,1.88l-1,1v2l-.76.16c-.26,1-.52,2.13-.78,3.2l-.78.2v2.67l-1.94.18v3.72h-2v2.31l-.83.18c-.07.36-.16.8-.24,1.23l-.9.33v2.61l-1.38.15V524l-.91.23v1.61l-1,.35-.1,1.74H528v4.23l-.83.17c-.07.37-.15.8-.26,1.35l-1.27.07V536l-1.39.16v1.16l-1,.33v1.66l-1.47.25v2.26h-4.34v2.82h-1.24c-.12.34-.21.62-.34,1l-1.27.08v2.81H512.3v3.16l-1,.33v1.72l-1.91.14c-.05.43-.08.81-.13,1.28H508c-.07.83-.12,1.58-.18,2.33l-2.65.77c-.25.83-.52,1.75-.82,2.76h-3.59v2.6l-1.41.73H497v3.29h-1.16l-1.53,3h-3.09v1.86h-2.43v2.35h-1.29l-.27,1.46h-3.68v2.24c-2.8,1.65-2.8,1.65-4.79,1.77V583h-3.38v2.82h-2.81c-.05,1-.1,1.9-.15,2.9h-2.73c-.05.67-.1,1.27-.15,1.94h-2.24v3.26l-1.84.21-.31.78-5.11.73v2.64H456.9c-.28,1-.53,1.93-.81,2.93h-2.71V603l-1.37.24-.86.87h-3.32a4.39,4.39,0,0,0-.8,2.79,8.08,8.08,0,0,1-.53,2h-3.18v2.2l-1,.33v1.75H437V616h-1.33l-.23,1.45H431.8v2.9l-1.15.08-1.23,1.38v2.7l-1,.34c0,1.88-.3,3.82,1.44,5.4v2.07l1.38.12v4.72h2.34V640l2.42.14v4.69h2.43v2.82h2.32c.06.83.11,1.58.17,2.42h1.31v2.87l1.4.13v2.14l3,.84c.21,1.26.43,2.61.67,4.06h1.64c.06,1,.1,1.9.16,2.9h2.28v2.33l.91.2v1.13l1,.34v1.13l1,.34.09,1.16.76.22.76,2.66.87.31v2.09l.9.22v1.82h1.86v2.82h2.9v2.83H467c.11.35.2.62.32,1h1.13l.34,1,.84.05,1.82,1.63v4.39a14.29,14.29,0,0,1-6,.63c0,.62-.08,1.2-.13,1.88h1.87V696H470v2.83l1.38.17v2.11l1,.33v.92l2,1.7V706l1,.39v2.15h2.27v2.72l1,.3v1.65l1.49.29c0,.35,0,.73.06,1.16l.9.31v2.58l.9.22.16,2.25h1.31v2.88c.7,0,1.24,0,1.77.12.18,0,.32.25.49.4a8.55,8.55,0,0,0,1.1-5.16H488c.27-1.32.52-2.56.69-3.42l1.4-1.42.94-.11v-2.74h4.33l.11-1.46,1.08,0,1.07-1.27-3.06-.73v-4.47l1.84-1.24h4.24v-4.15l-.74-.16-.27,1.42h-5.52c-.48-2.36.12-4.69.51-7l.65-.17c0-.14.16-.28.14-.41-.34-2.84.85-5.58.42-8.51h5.27c0,.42.09.8.14,1.26h1.25v4.53a7.63,7.63,0,0,0-1.29,1.31,7.4,7.4,0,0,0-.54,1.86h2.39V695H505v-.78h-1.11c-.13-.21-.27-.34-.27-.47,0-4,0-8,0-12a3.7,3.7,0,0,1,1.18-2.92c1.08-.17,2.27.21,3.21-1,.68-.9,1.46-1.68,1.49-2.82l.74-.07v-2.34l2.94-2.77c0-.29,0-.83.08-1.46h1.26c.08-.66.14-1.26.22-1.94h2.52l.73-1.42v-2c.45-1.36,1.52-.81,2.36-1.07v-5.05l1.44-.23c0-.56.06-1.1.09-1.7l.72-.16.79-1.6-1.47-1v-4.39h5l1.41,1.35c.85-.09.56-1.11,1.43-1.12.31,0,.61-1,1.1-1.8v-2.86c.77,0,1.47,0,2.16,0l8.35-.58v4.36l1.47.1v2.33h4.26v6.65c-1.28.2-2.69,0-4.16.11v2.7l-1.45.25-.09,1.61c-.14.07-.27.19-.41.19h-3.35a2.07,2.07,0,0,1-2.08-1.37h-2.71v3.74h-4.7l-.19.9c-1.46.21-3,0-4.56.12-.25,1.4-.48,2.74-.74,4.18h-1.24c0,.67-.08,1.25-.12,1.93h4l.72.73v4.57h-5.68v-4.1l-2.39,2v1.5l-1,.37v3.06l-1.64.27c1.66,2,1.07,4.21,1.21,6.31l-1.38.71H511c-.06.06-.13.11-.18.17a.42.42,0,0,0-.08.2v7.81l-1.4,1.37h-2.92c.17,1.44.31,2.78.5,4.12s-.38,2.58-.47,3.88,0,2.86,0,4.39h-1.19c-.49,1.41-1.09,2.63-.31,4.14.35.68.06,1.7.06,2.53l.94.23v2.74h1c0-1.37-.08-2.71,0-4s.4-2.56.63-4l1.25-.19v-3.16h1.85c.05-.83.09-1.58.14-2.44l1.34-.08v-2.3l1.94-.1v-5.62l1.38-.15v-2.88l2-1.7v-2.34l1-.4v-3l.78-.17c.24-1.15.48-2.33.76-3.67l.8-.76v-4h4.62l1.38,1.72h1.39l-.65-1.25v-4.29l1.82-.18.16-.77c.65-.39,1.78.34,2.33-1.15v-2.7c1.62-1.24,3.43-.17,5.06-.68l.36,1,1.2.14v4.56l-.48.54h1.5v-3.54l.9-.35c.06-.22.11-.43.19-.72h6.55v3.24h2.35v4.66l-.7.24c-.06.14-.11.28-.17.41s-.11.27-.17.42l-1.19.14v1.15l1.77.63c.06,2.68,1,5.09.43,7.62l-1.3.22v.69l1.34.23V693l-2.3.79V696H546c-.29.85-.55,1.62-.79,2.31l-1.79.82-.2.82h-3.09c-.26,2.06-.5,4-.76,6.12h-4.64c0,.68-.05,1.3,0,1.9.32,3.22-1,6.34-.4,9.51l-1,.25v4l-.88.3c-.24,1.35-.48,2.69-.73,4.05a3.08,3.08,0,0,1-.36.17l-.5.18v3.19H529l0,.33,1.73.2c.57,2.31-.15,4.58-.43,7l-1.75.18V740l-1.44.23v3.64h3.24c-.21,1.09.51,1.71,1,2.44a3.83,3.83,0,0,1,.49,2.39h1.37v-2.05l1-1v-2.08h1.86v-2.91h2.42v-3.78l1.38-.15v-2l1.58-1.3h1.83v-7.62h4.25c0-.84.07-1.6.08-2.37s0-1.57,0-2.47L549,721l.22-1.33,1.24-.14c.06-.42.12-.86.19-1.31l1.18-.13c.23-1,.46-2.06.73-3.26h2.29v-3.2c1-.19,1.24-1.51,2.36-1.34.44-.85.87-1.71,1.47-2.88l1.88-1c0-.33.08-.71.14-1.17h3.45l.77-.77V701h2.83l1.44-1.47c0-.12.09-.56.17-1h1.17c.07-.42.14-.85.23-1.37H572c0-.67.11-1.27.17-1.94h2.2l.23-1.47h3.16V690l1.94-.2v-2.26l1.89-.09c.06-.46.1-.84.16-1.37,1.22-.14,2.61.26,3.79-.81v-2.94l.9-.2v-2.22l1.38-.16V678l2.93-.83v-3.53h1.37c.06-.83.11-1.58.16-2.39l.82-.17c0-.53.09-1.12.14-1.77l1.35-.13v-1.77l1.38-.15v-1.17c.35-.11.62-.21,1-.34,0-.34,0-.72.09-1.26h1.78c.06-.55.11-.92.15-1.34a1.49,1.49,0,0,0,1.36-2l1.92-.11V655l.9-.23v-3.1l1.46-.26.1-1.23h1.54c1.42-2,.49-4.18.9-6.18l.84-.31V635.4l-.84-.24V634l-1-.33v-5.92l1.28-.66h4.28c.06.56.12,1.14.18,1.73l.9.37v2.09l.9.19v2.16c.39.1.61.15.91.24v3.24c1.12,2,2.27.1,3.4.54v-1.87h-1.19c-.82-2.89.62-5.63.25-8.44l2.16-1.09-1.17-.93c0-1.22.07-2.65,0-4.07s-.36-2.71-.55-4.09l-.79-.79v-6.46l1.28-.15v-5l-1.85-.71c.17-3.06-.28-6,.35-9.25-.78-1.57-.12-3.54-.39-5.61,2.32.12,4.48-.26,6.68.63v-3.31l1.48-.28c0-.52,0-1,.08-1.76l1.13,0c.49-1.26,2-1.68,2.4-3.2a12.54,12.54,0,0,0,.72-4.4l2.15-.92a3.68,3.68,0,0,0-.69-.56c-.47-.2-1-.33-1.48-.49v-4.74l-1.78-.09v-3.7c-.84,0-1.6-.08-2.36-.09H622c-.06-.29-.11-.51-.17-.84l-1.28-.22-.17-.76h-2.46l-.88-1.38-6,.44c-.28-1.18-.52-2.2-.8-3.42h-5c-.06-.54-.1-.92-.14-1.39l-1.33.56v1.6l6.08.46v3.86l1.95.21v1.7l1.46.25V571h1.33c.26,2.12.51,4.16.77,6.24l.71.16v4.48c-1.94.91-4.11.71-6.32.71-.34-1-1.27-1.23-2-1.55-.28-1.13-.55-2.2-.8-3.22l-.72-.07v-4l-1-.32c-.4-1.63-.81-3.3-1.24-5.07l-.9-.34c.18-2.08.35-4.22.54-6.4l-.79-.07c-.07.47-.14.91-.2,1.36l-1.22.14c-.24,1.35-.48,2.69-.74,4.13l-.66.19c-.24,1.13-.51,2.37-.79,3.7h-1.66v4.14l-1,.34v2l-1,.34-.16.77-1.8.15V581h-3.28l-.2,2.49H588l-.26,1c-1.62-.18-3.31.28-5-.37v3l-1,.33v1.69h-6.26V586.5l-1.43-.22V581l1.38-1.33.82-.06c.06-.19.12-.4.25-.81l1.16-.17a1.32,1.32,0,0,0,.17-.41c.09-1.4.21-1.33,1.28-3a10.78,10.78,0,0,0,1.09-3.36,9.84,9.84,0,0,0,0-2.18l1.34-.1v-3.13l-3.2-.63v-2.3l-1.46-.24v-7.94h-1.35a19.46,19.46,0,0,1-.11-3.56,26.72,26.72,0,0,1,0-3.35c.11-1.13.41-2.24.66-3.5.7-.25,1-1,1.28-1.94l-.87-.3c-1.09-4.49-.41-9.07-.67-13.7h-2.69c-.28-1-.54-1.9-.81-2.89l-.74-.16V524.2l-1.31-.15c-.21-.8-.48-1.58-.61-2.38-.1-.64-1.36-.28-1-1.24-.88-1.7-.3-3.51-.52-5.35h6.7v2.29h4.75c.25.92.49,1.78.78,2.85h3l.19.92,1.27.19c.2,1.72.47,3.4.56,5.08s0,3.48,0,5.31h-1.87v2.88l-2.44.11V535l1.37.25v1.62l1,.34v5.92l2.37.87v-4.47h4.71c.75.5.67,1.91,2,2,.14.73.7,1.29.63,2.15a9.58,9.58,0,0,0,.38,4V541h4.55l1.22.62.14.68,1.28.14a36.81,36.81,0,0,0,1.17,8.06h1c-.16-3-1-5.86-.66-9l1.81-.18v-6.37c.92-.51,2.3-.09,2.56-1.71h5.59l0-.3-2.31-.84v-1.63l-1.33-.13-.31-.82-1.26-.2v-4.69c1.5,0,3-.07,4.49,0s2.89.34,4.45.53c.06.37.13.81.22,1.32l1.71.09v1.24l1.46.24v1.73l1.92.17v4.69h-1.7l-.26,1h-3.66l0,.33,1.25.22.3.86h2.1c.07.28.13.5.22.9l2.25.16v3.16h4.27l-1.28-.52v-4.55h1.7c.1-.5.18-.94.28-1.45h4.54l.23.78,2.21.18v1.19l7.21.78.13,1.22h3.54c.12.34.21.62.34,1h1.25c0,.83.09,1.59.13,2.43h2.22c.08.51.15.94.22,1.37l.77.2v7l-1.79.19-.07,1.34c-2,0-4.12.3-6.13-.65l-.13-1.16-.78-.14v1.72l1.14.75c.26,1.84.48,3.44.72,5.21l7-.6c.21,1.68,0,3.25.13,4.88H654v3.81l1,.1V562l1.48-.16a9.35,9.35,0,0,1,.79-5c2.76-.36,3.46-.31,5.36.49,0,.36.08.74.13,1.17l.83.14V556.3l1.4-.15v-1.68l2.38-.83c.07-.21.17-.49.27-.77h1.19l.8-3.31h2.06l1.52-.72v-1.69h4.64c.16.76.32,1.48.5,2.32h2.52v1.74l.9.37c.4,2.61-.52,5.33.65,7.9l1.19.14.34.9h2c.13.36.23.64.29.79l5.56.74c.05.43.09.8.13,1.18l6.14.7v1.84h2.82v3.29h3.38V573l1.37,1.37.22-1.3h1.62c.12-.35.22-.62.34-1l1.27-.11v-2.29h5.68l.15.74.84.29v5l-1.24.2c-.36.82.1,1,.83.84v1.76l.95.35c.05,1.72-.22,3.48.8,5.16.25-2.11.49-4.09.74-6.19l1.26-.2c0-.4.09-.78.15-1.24h5.92l1.2,1.39c-.2,3.41.48,7.19-.65,10.9l-1.8.19.69,2.11,5,.68v-3.3c1.11-.2,2.07-.46,3-.55s2.06,0,3.18,0v-4.69h3.36l2.47-2.49V577.4l.83-.17.25-1.31,7.75-.68c.52.91.5,2,1.66,2.17V582l-1.36.21v3.16h-1.73a3.54,3.54,0,0,0-.19.7c0,1.23.19,2.49-.65,3.63l-1.76.15v.27l1.86.2v4.6h2.78l.73-4.12h2.24v-3.36a14.38,14.38,0,0,1,6.68.68v5.8l-.81.28v7.41l-1.44.23v1.72H760l.8,1.37c.39-.67.64-1.09.94-1.62v-3.77l.89-.3V597l2-.19v-2.21h5.29v2l.89.89c.25,2,.48,4,.72,6l.85.22c-.19,2.41.34,4.9-.66,7.5h3v2.31l3.31.77c0,.44.07,1,.12,1.67l1.28.14c0,1.21.45,2.08,2,1.89,0,.61.07,1.14.1,1.85h2.34v2.82h2.24l.28,1.46h1.39l1.36,1.55v1.86h3.77v3.78h2.39c0,.54.09.92.14,1.47h1.85c0,2,.08,3.82,0,5.63s-.35,3.52-.5,5l-1.35,1.35h-1.75a1.48,1.48,0,0,0,.23,1.75c.24.38,0,1,0,1.53l.92.21v2.61l.89.23c0,.49.12,1.08.19,1.76h1.24v4.82l-1.6.08c-.07.13-.19.26-.19.39,0,6.15,0,12.3,0,18.45a5.9,5.9,0,0,0,.68,2.62l1.19.14V684h-5.48l-.91-1.81h-.64c-.24-1.71-.49-3.44-.74-5.2l-1.09-.12c-.25-1.35-.49-2.69-.75-4.16l-1.31-.21v-2.63l-.9-.21a22.37,22.37,0,0,1-.08-3.4c0-1.18,0-2.37,0-3.64H783.4v-4.3l-1.47-.14V654.5l-1.41-.16c0-3.31-1.41-6.45-1-9.74l-1.29-.69c-.26-1.23-.5-2.4-.78-3.71l-.67-.24c-.45-1.82-.9-3.64-1.37-5.58l-.72-.29v-4.42l-.5-.17-.49-.23V624.8l-1.38-.16v-1.8h-3.77v3.64l.83.29q0,.75.09,1.62l.87.31v5.49l-.84.17c0,.68-.08,1.43-.12,2.23l-.8.16c-.06.39-.13.83-.2,1.25l-.77.21v2.66l-1.94.21v4l-1,.35v2.13l-1.47.22V651H761c-.56,1.54-1.44,2.93-1.09,4.78l-2.31.15c-.19,1.69-.37,3.36-.56,5.11h-4.76l-.19-1.74h-1.68c-.09-.51-.17-.95-.26-1.47H748v-6.22l4.16-.74s.05,0,.05-.07c0-.32,0-.63,0-1.12h-1.84c0-.39-.07-.61-.08-.84a88.59,88.59,0,0,0-.57-9.37,54.19,54.19,0,0,1-.4-5.47l1-.34v-1.07l-1.78-.81a1.19,1.19,0,0,1-.12-.39c0-1.2-.06-2.4,0-3.59.08-1.54-.2-3.06.38-4.62a3.19,3.19,0,0,0-.28-2.95c-.27-.37-.13-1-.15-1.32L747,617.56l-1.42-.08c.12-1.38-.68-2.6-.57-4a12.87,12.87,0,0,1,.67-4h-2v-2.83h-6.17v-3.33l-.87-.13c-.52,1.9.11,3.69.41,5.56,1,.63,1.79,2.1,3.42,1.6,1.38,1.76.51,3.8.91,5.76l1.15.07c.22,1.41.53,2.83.63,4.26s0,3,0,4.62l.89.3v4.53l-.84.29c0,.51-.06,1-.09,1.62l-.87.32v2.05l.82.33c.19,2.82.38,5.62.57,8.42,0,.3,0,.6,0,.92l-1.43.17v2.72l-1.37.15v5.08l1.31.22v4.57a5.89,5.89,0,0,1-.63.11,3.85,3.85,0,0,1-.48,0c-.06.05-.17.09-.17.14,0,1.82,0,3.63,0,5.57l-1.89.72s-.11.09-.11.23c0,1.27,0,2.55,0,3.83a6.76,6.76,0,0,1-.42,1.53c.84,1.15.36,2.52.43,3.82s0,2.71,0,3.92c.65.56,1.21,1,1.92,1.65.19,1.47.41,3.14.64,4.85l.7.15c.18,1.15.46,2.33.55,3.53s0,2.55,0,4l2.36.14c0,.41,0,.79.07,1.21l.87.31v4.53l-.81.19c-.05.82-.1,1.74-.15,2.73h-2.05a4.82,4.82,0,0,0-.78,3.15c0,1.66,0,3.32,0,5l-1.36.15v1.64l1.77.67c.21,1.55-.31,3.11.77,4.28l.63.16c.24,3,.47,5.84.71,8.86l-2,.22v2.7l1.91.16c-.31,1.64.36,3.28-.45,4.85.36,1.44.72,2.87,1.14,4.58l.52.14c.42,3.09,1.66,6.1,1,9.34l.87.24a58,58,0,0,1,1.11,5.87c.19,2.12,0,4.28,0,6.47l1.73.09a1.28,1.28,0,0,1,.18.43,32.72,32.72,0,0,0,.07,4.54,15,15,0,0,1,.42,2.68c0,.88,0,1.75,0,2.74h-5.79c.23-1.77-.2-3.5.45-5.29.38-1,.07-2.35.07-3.62h-1.63c-.13-.22-.28-.34-.28-.47,0-1.2,0-2.4,0-3.59a4.84,4.84,0,0,0-.43-2.22,5.06,5.06,0,0,1-.42-3.64l-1-.34c-.37-2.92-.74-5.87-1.12-8.82l-.89-.34a7,7,0,0,0-.78-4.21.91.91,0,0,1-.16-.4c0-2.56,0-5.11,0-7.67,0-.47.42-.93.64-1.4l1.67-.09V724h-1.69c-.28-1.14-.54-2.23-.82-3.36l-.59-.13c-.07-.13-.19-.26-.19-.4,0-1,.37-2.32-.1-3.05s.11-2-.86-2.54v-4.39l1.38-.22v-1.72h-1.12c-1.79-2.91,0-5.78-.29-8.7h2.82v-8.09l-2.15-.11c-.25-1.41-.49-2.75-.72-4.1l-.4-.16-.42-.18c-.25-1.65.36-3.43-.68-5-.1-.14-.42-.12-.8-.23v-1.68l-.82-.21a38,38,0,0,1-.64-8.84c.11-2.89-.39-5.81.73-8.72h1c.26-2.6.51-5.12.76-7.67l1.29-.15v-2.25l1.38-.15v-5.08l-1.41-.24c.25-1.81-.43-3.68.6-5.4l-1.06-.42a41.65,41.65,0,0,1,.41-5.28c.43-1.88.1-3.94.1-5.88l.95-.25c0-1.76.33-3.65-.08-5.37a37.27,37.27,0,0,1-.43-5.42l-1.37-.23V615.1l-2.21-.61-1.16-1.23V612l-.89-.28v-1.13l-1-.34v-2.49a3.13,3.13,0,0,0-3-.36c-1.16.47-2.67.1-4.07.1-.1-.27-.19-.55-.32-.9l-1.68-.1v-2.71l-2-.21v-1.95l-1.7,1.95h-4.95c0-.82-.05-1.74-.05-2.67s0-1.89,0-2.92h3.73v-5.29c-1.41-.19-3,.33-4.21-.82v-.45l-5.18-1.27c0,.68-.07,1.27-.1,2h3.55l.7.7v4.62h-3.2v2.8l1.8.14v2.78h2.42v2.34h1.76c.68,3.59-.35,7-.36,10.54l-1.23.15-.33.85H708.3c-.06-.18-.11-.32-.17-.46s-.12-.26-.22-.48h-2.13v-2.82h-2.43v-2.82h-1.53l-1.65-1.94h-1v1.24l1.29.25v1.19l1.45.24c0,.55.06,1.09.09,1.69l.81.2c0,.5.12,1.09.19,1.76H704l.68,1.33v5.88h-4.53c-.07-.07-.18-.12-.18-.18,0-.32,0-.64,0-1.05l-1.4-.27c0-.35,0-.73-.07-1.27h-1.85v-2.35H695.3c-.06-.83-.11-1.58-.17-2.42h-1.27c-.06-.67-.11-1.27-.16-1.94h-4.63v-1.34l-1.45-.22v-1.75l-1.2-.11-1.25-1.46s0-.36-.09-.76l-.82-.31c0-.22-.11-.43-.19-.74h-2.15l-1.45-4.75H678v2.2h1.29c.06.83.1,1.59.16,2.46l1.27.06c.24.82.49,1.67.77,2.67l2.64.72v3.18h1.73l.85,3.45.64,0c1,4.35,1.79,8.72.53,13.2-1.55.32-.86,2.23-2,3l-1.6.08v2.73l1.71.19c.65,3.14-.86,6.19-.31,9l-1.49,1.37-1.4.43V648l-1,.26c.23,3-.48,6,.66,8.93l.65.14c.84,2.79,2.13,5.44,1.52,8.44L686,666v3.08l1,.33V671l.84.45c.31,1.55.55,2.73.8,3.95l.71.15c.09,2,1,3.88.5,6l1.34.86a23,23,0,0,1,1.1,9.3l1.39.16v5l1,.34v1.13l1,.34v2.45l1,1v5h1.8v2.74l.93.26c.54,2.94,1.1,5.9,1.67,8.94l.72.15c.07.36.15.8.24,1.29l.82.17v1.68l.9.24v2.57l1,.34v2.46c1.86,1,1.61,2.92,2.2,4.54l.54.11c.06.12.2.26.18.38a12.11,12.11,0,0,0,.81,4.46,14,14,0,0,1,.25,2.19l1.27.21c.24,1.84.47,3.66.72,5.57l.71.15c.05.52.1,1.12.15,1.78l1.28.11V749l.87.29a13.79,13.79,0,0,1,.56,6.1l1.39.08c.26,1.34.52,2.73.81,4.22h1.21c-.14,2.77,1,5.38.39,8.16h-4.64c-1-1.73-.18-3.68-.61-5.66l-1.17-.05c-.26-1.35-.53-2.74-.82-4.27l-1.14,0c-.24-1.8-.49-3.62-.76-5.59l-.71-.24v-1.66l-1.46-.26c0-.37-.06-.75-.09-1.17l-.9-.33c-.22-2.1-.44-4.24-.68-6.51l-1.15-.06c-.25-1.47-.49-3-.78-4.73-.19-.12-.63-.41-1.18-.79-.39-2-.82-4.11-1.27-6.36l-.6-.13v-1.66l-1-.27V727l-1-.33v-2.56l-1-.34c0-.51-.06-1.05-.1-1.63l-.9-.32v-2l-.8-.8c-.26-1.65-.5-3.15-.73-4.62l-.82-.22v-6L692,708l-1.21-6.18-.83-.07v-2.2l-.9-.23v-5l-1.55-.3c.43-2.54-.66-4.9-1.06-7.4l-.65-.24c-.23-1.85-.45-3.61-.66-5.37a2.68,2.68,0,0,0-1.07-1.75,2.73,2.73,0,0,1-.81-1.72c-.07-1.7-.82-3.2-1.09-4.84l-.77-.18v-4.08l-1.56-.26c.54-2.74-1.07-5-1.53-7.55l-.57,0c-.92-1.85-.69-3.89-1-5.82s0-4.11-.26-6.15.74-4,.5-6.1l1.34-.21c.07-.26.13-.48.18-.68l2.31-.79v-4.63c.43-1.37,1.5-.83,2.34-1.07v-2.72l-1.86-.14c.12-1.89-.29-3.76.5-5.55a3,3,0,0,1,.59-1,3.72,3.72,0,0,0,1.35-1.87l-.92-.31v-4l-.95-.31c-.23-1.56-.47-3.27-.73-5l-2.66-.66v-1.83l-1.94-.08c-.22-1-.43-2-.68-3.23l-1.22-.2v-2.19H673.3c-.08-.67-.15-1.26-.22-1.94h-1.3V601.8l-1.39-.14v-3.55l-1-.32c-.23-1-.47-2-.7-3l-1.75-1.5c-.16-1.06-.41-2.25-.5-3.46s0-2.52,0-3.84h-1.82v3.14l-1.46.24V592l-2,.22,0,.33h1.83v4.72l-.76.16-.26,1.35-1.2.06c-.07.42-.15.86-.22,1.3l-.73.18c-.25,1.63-.5,3.29-.76,5l-2,1c.38.3.62.5,1.13.89-.08,1.43.54,3.2-.4,4.9.35,1.13-.53,2.06-.49,3.15s0,2.24,0,3.49l1.84.21v2.59l.94.32c.46,3.18-.47,6.23-1,9.49h-2l.58,1.15c.23,2.89.46,5.77.7,8.73l-1.49.25c0,.39-.08.77-.13,1.19l-.9.32v2.14H654.1c-.05.67-.11,1.27-.16,1.94l-1.75.1v3.88c-1.15,1.17-2.54.77-3.88.9v2.12l-2.77,1.33c-.23,2-.45,3.9-.68,6l-1.34.92v1.5l-1.45.23c0,.55-.05,1.09-.08,1.64l-.92.36v2.14h-1.81V670l-.93.33c-.23,1.12-.47,2.3-.73,3.59l-.79.28q0,.51-.09,1.14l-.92.33c0,1.46.07,3,0,4.47s-.36,2.88-.56,4.4H633.6l-.33.94-1.28.15v2.24l-1.39.15v2.25c-.35.69-.55,1.09-.77,1.5h-2.54l-.18,1.76-.89.37c0,1.08.08,2.19,0,3.29s-.39,2.07-.59,3.14l-1.22.14v3.2h-3.31c-.08.38-.13.6-.2,1l-1.79.14c0,.59-.07,1.12-.1,1.76l-1.38.21v6.48l-.88.18c0,.52-.1,1.12-.17,1.88-1.69-.18-3.39.28-5.1-.38v1.69l-2,2h-2.31c-.06.75-.11,1.5-.17,2.24-1.73,1.13-3.65.46-5.45.67-.23-.46-.44-.85-.71-1.39,0-1.18-.37-2.69.1-3.86s-.18-2.64,1.23-3.65l-1.23-.3c-.06,1-.11,1.88-.16,2.78l-.87.33v5.3c-1.74,1.33-3.74.51-5.69.83v-6.16l1.21-.23c.42-.8,0-1.33-.62-1.85l-.31.92h-1.24c0,.67-.09,1.27-.15,1.95h-2.55l-1.68,2c0-.07,0,.31,0,.64l-3.13,1.22h-4.93v2.32l-1.87.11v2.34h2.7v5.64H576v-3.07l-.75-.21c-.28.79-.54,1.55-.84,2.38h-1.76c0,.45,0,.82-.07,1.19l-1.5,1.26h-1.29v1.81H568.2l-1.36,1.6s0,.36-.09.82h-2.16c-.1.51-.18,1-.28,1.48l-1.28.09v3.25l-1.87.1v1.26l-1.94.22v1.15l-1,.34c0,.51-.06,1-.1,1.75h-2.26c-.06.55-.11.93-.15,1.3l-4.73.71a4,4,0,0,1-1.11,3.8h-2.69v2.75h-4.69l-.23-1.28h-1.14l-.33-1h-1.69v1.25l-2.08.22c1,1.84.38,3.67.58,5.53l-1.44.23v4.07l-.76.18c-1,1.19-.63,2.72-.72,4.19l-1.27.12-.32.86H522.34c-.23-1.68-.06-3.36-.46-5.05s-.09-3.48-.09-5.34h-1.87l-.08,1.65-.87.34c-.23,2.77-.46,5.55-.69,8.39h-4.45a3.79,3.79,0,0,1-.66-2.83c.12-1-.3-2,.32-3a2.9,2.9,0,0,0,.15-1.37c0-1.51,0-3,0-4.63l1.35-.21.15-1.25h4.62c.05.5.11,1.1.18,1.74h1.8l0-.24-1-.26c.23-2-.2-4,.41-6.16.55-1.89.38-4,.57-6,.13-1.44-.42-2.95.4-4.32-.87-1.31-.21-2.77-.4-4.15a4.37,4.37,0,0,1,.05-.76h1.73l.23-1.44,1.72-.09v-3.28l2.45-.74-2.17-.63c-.66-2.94.2-5.45,1-8.13l.72-.25c0-.33,0-.71,0-1.13l.9-.32V714l.89-.22a16.31,16.31,0,0,0,.1-3.15c0-1.19,0-2.39,0-3.59s.17-2.17.24-3.25.1-2.34.25-3.49.39-2.07.6-3.17l1.69-.07v-5.46l1.35-.63H531.4V693l-.9.34-.2.73h-1.75v2.42h-8.1v1.34l-1.45.23v1.2l.8.28v4.62H517v3.3h-1.24l-.34,1H513.7v3.33l-1.49.15a10,10,0,0,0,0,1.34c.33,2.37-.91,4.62-.43,7l-1,.33-.09,1.63-.88.31c0,.51,0,1-.07,1.58l-.93.38v4.05h-1.78c-.08.51-.16.95-.24,1.47h-2.15l-.91,1.49H499.9l-.41,2.76h2.66v4.82h-3.54l-.77.77v5.33l-.89.3v2.08l-1,.34v4.63h3.76v3.66l.5.2.42.17v4.55h-5.07l-.29-.82-1.19-.14c0-.2-.09-.41-.15-.67l-1.28-.66c-.05.71-.11,1.44-.17,2.17-1.7,1.2-3.64.41-5.59.75-.06-.68-.11-1.28-.17-1.94l-1-.09-1.24-1.37v-2.35l-2.29-.14-.5-.49c-.25-1.57-.48-3.07-.73-4.65h-3.16V746l.59-.59h2.09v-1.77l1.44-.27.11-.81h-2c.22-1.93-.13-3.66.46-5.46.39-1.21.07-2.66.07-4.09H482c0-.51.06-.94.08-1.42l-1.07-.11-1.26-1.37v-2.28l-1.54-.28c.18-1.65-.29-3.34.38-5.06h-1.23c0-1-.09-1.9-.14-2.86l-.85-.18c0-.3,0-.67-.07-1.17l-.84-.3v-1.65l-1.46-.25V715l-1-.34V711h-2.42V708.9l-1.9-1.64-.09-1-.89-.23v-2.17l-.9-.24V701l-1.47-.25V698h-2.9v-2.82h-1.86v-3.86l-1.4-.09q-.09-.63-.21-1.32l-1.24-.15v-1.15l-1-.33v-5.94l1.15-.56h-3c-.07-.67-.14-1.26-.21-1.93h-1.76c0-.83-.08-1.59-.12-2.37l-.81-.18-.2-1.25-.69-.18c-.27-.92-.55-1.84-.83-2.76l-.7-.15-.13-1.19-.84-.31-.12-1.11-.93-.35v-2.09l-.9-.2V665h-2.34v-2.77l-1.95-.19c.15-1.4-.59-2-2-1.93v-2.24h-1.29l-.25-1.44-1.31-.13v-3.68l-1.38-.15V649.7l-2.42-.13v-2.79h-2.43V642h-2.33v-3.37h-2.43V636.3l-1.39-.15v-1.77l-2-.81c.09-4.09-.33-8.33.72-12.63l.6-.12v-2.35l-7.41.63c-.1-.62-.16-1.06-.23-1.53H416v1.28h-4.8l-.12-1.33a29.6,29.6,0,0,0-4.21.05c-1.53.21-2.38-1.39-3.78-1l-.18-.79-4.14-1.26-.13-.63-2.77-.83-.14-1.21h-2.19l-.23-1.43-.74,0-.18.83-1.81.19-.07,1.25h-4.72V610l-.9-.22-.16-2.71c-1.2-1.09-2.71-.31-4.15-.63l-.21-1.35h-3.12l-.17-.84-1.35-.25-.07-1.28-1.22-.05c-.55,1,.34.87.73,1.15v6.44h-4.6l-.29-.84H367.5L366.19,608c-.19-1.14-.43-2.64-.7-4.24l-.58-.17c-.05-.06-.23-.16-.23-.27,0-2.07,0-4.14,0-6.29h-1.83c-.2-1.63,0-3.19-.11-4.68l2.28-1-2.66-.19v-2.74H359v-2.25l-4.28-.72-.15-1.37-1.2-.07-.3-.85-1.21-.14v-1.21l-1.45-.26v-1.19l-1.45-.26c0-.37-.07-.75-.12-1.3h-2.32v-2.34H343.7l-.19-1.94h-2.76v-1.92l-1.86-.1v-1.78l-2.42-.16v-3.36c-.75-.65-1.72-1.08-1.89-1.73s-1.53-.4-1.16-1.41a4.65,4.65,0,0,0-1.66-.58,11.57,11.57,0,0,1-3.95-.68l-.06-1.15-1.31-.22c-.43-1.89.54-4-1.48-5.64s-1.69-1.84-5.24-2l-.15-.75-1.34-.22v-2.67h-1.44c-1.19-1-1.65-2.27-2.9-3.41v-1.85l-1.88-.17c0-.56-.05-1.1-.07-1.7l-.82-.24-.19-1.25h-1.7L309,539.6l-.84-.31c0-.57-.06-1.11-.1-1.71l-1.71-.1c-.24-1.18-.48-2.36-.75-3.67l-1.26-.23-.09-1.17-.88-.31c0-.51-.05-1.05-.08-1.67H302c0-1-.09-1.91-.14-2.93l-1,0L299.57,526c-.15-.74-.39-1.92-.65-3.23l-1.27-.22-.09-1.67-.78-.22-.28-1.36h-.71c-.06-.58-.11-1.18-.18-1.83l-.79-.11c-.24,3-.48,5.92-.73,9H291v1.4a23.76,23.76,0,0,1-3.62.56,8,8,0,0,1-3.44-.34c-1.09-.45-2.51-.1-3.81-.1-.24,1.41-.48,2.82-.72,4.18l-.92.24v3.17l-1.37.15v2.21l1.3.22v5.14h-1.72l-.23.89-3.15.73-.27.75h-5l-.15-.74-.84-.29V532.07l1.85-1.59v-1.39l1-.37v-2.14l1.39-.13v-2.73l1.38-.15V521l.21,0,.53-1.63,1.17-.19.14-1.18.91-.35V515.6l.84-.18v-1.79h-1.3V516h-2.79c-.06.29-.1.51-.18.88l-1.79.16c0,.4-.06.78-.1,1.33H268l-.17,1.38h-3.55l-.34,1-1.14,0-.24.67-4.06,1.76h-2.08v2.73h-3.73c-.07.67-.13,1.27-.2,2l-1.19.07-.32.9h-2.63v2.2a3.07,3.07,0,0,1-.69.21c-.87,0-1.74,0-2.68,0v2.82h-2.89l-.08,1.54c-.4.43-.65.74-.94,1a7.82,7.82,0,0,1-.9.6l-.14,1.16h-3.89L234,540.16v4.5h-2.4l-.1,1.87h-2.22l-.22,1.94h-1.74l-.1,1.11-2.42,2.33h-1.82v2.75h-4.7l-.59-.55v-4.54H219l.11-2.42h2.25v-3.76l1.94-.2V542l1.46-.27V540h3.38v-2.34H230l.16-2.42h1.77l.14-1.92h2.79c1.84-1.18,3.12-2.85,4.76-4.22v-2.49h-1.29v1.21l-4.35.83c0,.29-.06.67-.09,1-2.45.54-4.81,1.64-7.32,1.1-.15.14-.25.2-.26.26,0,.47,0,.94,0,1.44l-2.37.87-.19.78-9.37.7-.18,1.76h-2.23l-.16,1.38h-2.6l-.35,1h-2.15v1.38h-3.31l-.2.93h-1.53l-2,2.47-4.41.67v2.11l-2,.21-.06,1.31h-2.31l-.1,1.87h-3.18c-.07.66-.14,1.26-.22,1.93h-2.58l-.34,1-1.2.1-.21,1.38h-3.16v1.33l-1.94.19V558l-3.75.78-.26.76h-1.66L172,560.9l-.83.18v1.82H166.9v4.7l-2,.18-.08,1.8h-2.81v2.35h-1.82l-.18,1.72-2.48,1.2h-4.09v-4.59l1.11-1.12h1.09l.18-1.76.87-.32v-1.55l.89-.31v-1.64l1.46-.26v-1.68l1.49-.3,0-.22h-1.76l-.2.77h-2.1l-.33,1h-2.09l-.28.91-1.25.18v1.44L151,566.72l-1.35.08-.09.9-1.27,1.45h-.93l-.31.9h-3.66V573h-2.31l-.19.87-1.79.19v2.27h-2.4l-.1,1.87h-1.23l-.26,1.46h-1.75c0,.83-.08,1.58-.12,2.41l-1.83.1v2.81h-3.78v3.82c-3.87.07-7.66,0-11.53,0v3.64l-.89.28v3.6l-7.2.75-.21,1.23-7,.72-.3.73a18,18,0,0,0-3,.2A13.4,13.4,0,0,0,95,601.1v2.47H92.62V607H89.79v1.24l-.89.31-.35.9H86l-.33.92H81.24l-.26-.85H79.3l-.25,1.29H77.29v2.42H74v2.33l-3.4.82v2.6h-2.9v2.75l-2.37.86v2.14H60.09v1.81l-1.94.22v2.74h-2.4l-.11,1.87H51.48v3.85H50.1l-.27,1.47-1.29.09v1.77l-1.39.17v1.2l-1.43.27L45,643.29l-.79.28v2.62H42.91l-.27,1.46-1.17.1-.3.84-1.2.14v1.76l-3.92.18V651h4l.72.72v4.53H39.54l-.25,1.44H34.64V653h-.91v2.58a16.26,16.26,0,0,1-2,3.27,6.44,6.44,0,0,1-2.32,2.36L29.16,663c0,.06-.11.11-.17.17s-.1.13-.09.17l.7,1.64h.93c.06,0,.16.11.16.16,0,1.5,0,3,0,4.45l-2.32.8v.79c0,1.84.16,3.66-.9,5.39a10.4,10.4,0,0,0-.73,3.17H25.7c-.26,2.28-.52,4.49-.77,6.71l-1.25.15v3.55l-1.4.93-.71,5h-1c-.13.21-.28.34-.28.46a15.58,15.58,0,0,1-.91,5.61,9.43,9.43,0,0,0-.05,2.92l-.78.26c-.41,3-.82,5.92-1.22,8.87l-.83.32c-.28,1.8.52,3.8-1,5.35v3.41l-1,.33c.37,2.21-.8,4.35-.45,6.63-.67,1.3-.42,2.72-.49,4.06l-1,.36V742l-.83.18L11,751.56l-1.71.17v2.67l-1.47.24v2.19H6.67c-.15.22-.31.33-.31.46,0,.64,0,1.28,0,1.91s-.23,1.47-.37,2.38H9.6v7.27H.12c0-1.68-.33-3.42.1-5,.36-1.31.15-2.68.77-4,.43-.91.09-2.18.09-3.24.29-.27.48-.57.76-.68a2.57,2.57,0,0,1,.92,0c.09-.16.22-.28.22-.41,0-.88,0-1.76,0-2.64a11.9,11.9,0,0,1,0-2.39,15.49,15.49,0,0,1,.9-2,3.52,3.52,0,0,0,0-1.1l1.12-.1,1.28-1.5c0-2-.36-4.56.1-6.94a62.73,62.73,0,0,1,1.45-6.77l.69-.18a1.39,1.39,0,0,0,.14-.42c0-1-.05-1.92,0-2.87.09-1.13.31-2.26.46-3.39s-.23-2.12.42-3.2c.35-.57.06-1.54.06-2.29l.89-.37c0-3.09,1.7-6,.88-9.18l1-.33c.37-3.42,1.35-6.78,1-10.36H15c0-1.09-.08-2.1,0-3.1a20.85,20.85,0,0,1,.63-2.66l1.12-.13.76-4.6.65-.21.77-5.12h1.2v-4.25l2.09-.91c-.17.18-.07.12-.06.06.37-3.38-.75-6.7-.44-10.15l.81-.24c.35-1.25-.06-2.67.18-4.11l.79-.18c.25-1.06,0-2.25.17-3.62l.85-.61.07-1.32.76-.2c.23-1,.47-2,.72-3.18h1.51L29,651.57h2.24v-3.38h2.81v-2.33l2.42-.12.1-1.77h1.18l.31-1h1.19c-.12-.63-.27-1.16-.32-1.7s0-1.12,0-1.68V637.7l1.8-.1.18-.78,1.3-.23v-1.2l1.45-.25.11-1.23H45l.2-1.93h1.29v-3.86L48,628l.05-1.09,1.5-1.25c1-.18,2.39.18,3.75-.38H49.79c-1.33-1.83-.61-3.82-.85-5.78h1.75l.33-1h4.63v1.78l.91,0v-2.75l1.36-.15.87-2.31.62-.13c.29-.75-.25-1.7.78-2.2,2.54-.19,5.11-1,7.46-.54Zm483.25,113.5v6.14l-.77.21c-.26,1.06-.52,2.15-.8,3.31h-2.18v2.14l-.91.34c0,.56-.06,1.1-.1,1.8h-2.87v2.25l-1.47.27v2.73H541V745l2.11,2.36c1.56.31,1.67-.78,1.71-1.81l1.28-.15c.07-.46.14-.9.2-1.32l1.68-.09c.12-.36.22-.64.34-1h2.71l.73-2h2.65v-1.73l1.94-.21v-1.23l1.93-.2v-1.27l1.4-.11v-3.37h1.86v-2.14l2.81-.83.14-.68L566,729v-1.68l1.2-.14c.11-.31.21-.59.31-.85l1.67-.08c0-.46.1-.84.14-1.22l.83-.34.3-.89h1.25V721h2.18c.12-.35.22-.63.33-.92l1.85-.2v-2.29h4.74v-2.16l2.75-.73c.07-.72.14-1.31.21-2h1.68l.31-.89h1.11c.06-.23.11-.45.21-.86l2.75-.76c0-.43.05-1,.09-1.59l2.28-.78c.06-.42.13-.85.21-1.35h1.34v-2.19h6c.29,1,.54,1.85.77,2.62l3.68-.49c-.55-2-1.23-3.89-.92-5.9l-.91-.32v-5.82c2-1.1,4-.64,5.68-.73.56.55.89.87,1.38,1.37,0,.64.08,1.55.12,2.54h1.32c.16,2.12-.33,4.25.77,6.11h1c.11-.29.22-.57.32-.85l.9-.31v-2.12l1.67-.09.34-1h2.61l.15-1.38h2.25c.07-1.34-.19-2.66.25-3.66.52-1.17,0-2.33.43-3.41l.9-.32V689l1.94-.22v-1.72l1.2-.14c.12-.32.21-.6.3-.86l1.22-.06c0-1,.09-1.94.14-2.92h1.37v-3.3h2v-7.52L632,672V670.8l.78-.2c.26-1.07.53-2.15.78-3.21l.68-.14c.07-.65.14-1.24.21-1.91h1.72l.17-1.73.91-.27v-2.11l1.46-.27V659.3l.79-.2c.43-2.19.87-4.4,1.3-6.57l.53-.12c.24-1.45.46-2.8.7-4.21h3.11c.15-.35.26-.63.37-.9l1.84-.2v-2.68l.81-.18c0-.6.09-1.2.14-1.87h2.78v-2.14l.93-.36c0-.55.06-1.08.08-1.6l1.74-.45-1.21-1.29v-8.42l1.65-.09c.23-.72.44-1.36.6-1.85-.25-.74-.46-1.35-.63-1.87l-.81-.25v-2.56l-1-.34v-1.61l-1-.34c.24-2.76.47-5.48.7-8.24l.87-.33V608c.55-1.49,1.68-.77,2.42-1.19,0-.28-.07-.49-.11-.73l-1.74-.17v-4.59l.88-.29c-.22-1.94.12-2.4,1.37-3.34,0-.73.1-1.48.16-2.31h1.27c.06-.47.1-.85.14-1.21l.86-.3q0-.64.06-1.14l1.1-.38-1-.35v-4.63l1.4-.12V584.4h1.81V583h-2.86v-2.91H655c0-.54,0-.92-.08-1.34l-4.19-.71-.2-1.29a7.62,7.62,0,0,1-5.92-1.57c-.29-.79-.55-1.48-.83-2.25h-2.07l-.32-.89-1.32-.1a8.25,8.25,0,0,0-.66-4.64h-2c-.23,1.15-.44,2.17-.65,3.2l-3,.15v4.62l-1.37.2c0,.33,0,.48.06.73l1.28.2c.51,2.55-.33,5-.44,7l-1.17,2.45-.54.18-.79,2.7c-.77.13-1.66-.25-2.23.91v3h-3.38v2.82h-2c-.8.52-.76,1.64-1.86,1.69v7.4l-1.21.08v5.23h1c1.19,1.4.57,3.12.82,4.65l.86.81c.18,1.6.42,3.13.5,4.66s0,3.34,0,4.7c-.49,1.41-1.6.76-2.34,1.11v.86h1.8v7.05l-1.44.26v1.67l-1.28.23v1.72l1.29.15v4.56l-.8.29c-.09.43-.17.87-.25,1.29h-4.64l-2.39-1.15v1.85c0,.56,0,1.12,0,1.68a2.31,2.31,0,0,1-.43,1.76c-.26.3,0,1,0,1.26l-1.56,1.13V654h-1.76c0,.62,0,1.15-.07,1.64l-2.44.83v6l-1.85.21v4a10.55,10.55,0,0,0-2.73,2.69h-1.52l-.1,1.23-1.46.26V672l-1.46.25v1.65l-1,.34v3.58l-1.21,0-.29,1.5h-1.77V682l-.89.32-.09,1.57-2.44.84V687h-3.71v3.73l-1.39,1.59h-2.49v2.82h-3.39v3.19l-1,.34v1.24H575.9v1.86l-1.82.1c0,.44-.08.82-.13,1.24l-.81.29c-.09.44-.17.87-.27,1.38h-1.66c-.07.3-.12.52-.19.73s-.12.09-.21.16h-4.26l-.77,1.49v2.75c-.31,0-.54,0-.77.05a5.27,5.27,0,0,0-.6.2v1.15c-2,.18-1.81,2.09-2.48,3.26l-2.39.84v1.78h-2.11c-.27,1.81-.51,3.53-.72,5l-2.31.85c0,.45,0,.83-.08,1.29Zm206.08-104.5h-2.89v-5l-.91-.33c0-.58-.06-1.11-.09-1.66H750.9c-.23,2.25-.44,4.38-.67,6.62l3.48.67c-.55,4,.62,8.11.38,12.32h-1.84v1.36h1.67l.7,1.44c-.29,2.4.24,5,.63,7.59l.81.21v3.16h2.42V643.9l1.33-.06c.05-.87.09-1.62.13-2.29l.9-.19v-2.31h1.94v-2.7l1-.34v-2.56l.81-.27v-4.07l-.9-.23v-3.73h-2.9v-2.42h-2.34ZM598,560v-1.74l1-.32v-2.07l.85-.28,0-.28h-1.71l-.31-.89h-2.73v4.72h-2.89v2.22l-.9.32-.07,1.64-1.47.27v1.65l-1,.34v2.13l-1.69.08c-.27,1.46-.54,2.86-.81,4.34H585v4.67l-1.1,1.85h4v-2.23l2.9-.14v-2.7l.9-.23v-1.69l1-.21v-3.29h1.72c.26-1.26.5-2.44.75-3.63.24-.09.52-.2.74-.27.25-1.41.49-2.74.73-4.11Zm-63.22-62.19h1.75c.19,1.7-.09,3.27.18,4.78h.8c-.09-1.53.82-2.91.55-4.5-.05-.25.2-.55.28-.83.49-1.73,1.56-3.33,1.15-5.27,0-.11.12-.25.24-.47h1.64v-2.14l1-.39V485.5l.9-.34V484l-.95-.33V475.4l-.88-.31c-.18-1.72.4-3.49-.69-5l-1.26-.14a12.64,12.64,0,0,0,0-1.63c-.08-.51.39-1.16-.34-1.53,0,.07-.13.14-.12.2.36,3.69-.78,7.31-.45,11.18l-1.9.69v1.13l1.32.2v4.27c-.5.53-.83.86-1.3,1.34l-.94.18v5.54l1.28.15v4.49c-.43.89-1.28.67-2,.71-.1,0-.18.22-.28.33S534.77,497.45,534.82,497.77ZM791.09,666v3.63l1.19.14c.26,1.43.51,2.84.75,4.16h1.24c.27-5.76.17-15.89-.24-16.29h-1.51c-.07-.68-.13-1.26-.19-1.93h-1.27c0-.48-.08-.86-.11-1.2l-1-.34v-1.6l-.92-.31a8.49,8.49,0,0,0-.7-4.65h-1.65V645l-1.86-1.24-.22-1.76a4,4,0,0,0-.27,2.58,15.22,15.22,0,0,1,.9,5.85c0,.37,0,.74.08,1.19h1.45v3.84h1.38v6.1l1.94.09v4.14Zm-98.17-75.82v2.93l1.26,1.49h3.47v1.51c1.44.74,1.38,2,1.41,3.11l1.46.14v2.38h2.27c.07.68.13,1.27.19,1.91l.9-.18c-.18-1.5-.29-2.94-.55-4.36s.68-3,.47-4.48l-1-.35v-1.24h-2.34v-3.17l-1.3-.56-.29.87ZM544.29,687c.18-2.71-1.06-5.12-.28-7.62l1.15-.13v-1.32l-1.2-.08-.33-1-.55.1-.81,3.75-1.37.06v3.73l-1.93.15v2.68l-1.29.24v2.75H540v2.33h2.33v-2.3l1.28-1.41a6,6,0,0,0,2.86-1.15Zm133.65-93.81h2.42v2.34h1.85c0,.54.08.92.12,1.29h2.32l0-.22-1.54-.3V594.6l-1.39-.17v-3.31h-1.89c.08-1.64-.07-3.19.1-4.82h1.79v-2.21c-3.25-.55-6.35.65-9.46.43v2.35H675l.8,3.89h2.16Zm12.94-17.73h3.53l1,1c.45-1.85.87-3.51,1.26-5.19a2.06,2.06,0,0,0-.09-.64l-1.37-.16v-1.82c-1.12,0-2.3.35-3-.08-.92-.59-1.86-.09-2.66-.52-.08-.47-.16-.9-.24-1.31-1.07,0-2,.06-3,0a25.28,25.28,0,0,1-2.55-.46v2.28c1.08.36,2.13,0,3.22.5s2.25.12,2.68,1.51l1.21.05Zm-12-12.14h-1.29l-.29-.89h-1.07l-.29-.81-2.7-.76-.17-.75-1.36-.16v-2.76l-2.39,2.48h-1.2l1.29.62v3.06l2.9.13v2.73l1.38.15v2.32l1-.09v-4.29h4.21Zm-12.42,22c1.8-1.54,3.63-.47,5.42-1.08-.23-1.21-.45-2.39-.67-3.54-1.47-.25-2.9.1-4.34-.23v-1.72h-2.2v2.39h1.79Z"/><path class="cls-1" d="M505.92,49c.05.41.09.79.14,1.25h2.46l1.3,1.89V54.6H512l.36,1h1.13l.22,1.36.66.13.74,1.45v3.28h3.66l.18.84,1.32.25v2.15l1.4.24.17.76,1.32.2v2.56l1,.65c0,.78.06,1.32.09,1.94h2.26v2.15c1,.32,1.73.84,1.5,2.16h2.47c-.22,1.93.36,3.74-.65,5.62l2.44.21.85,1.39h1.58c0,.45.05.83.08,1.38h1.85v2.06l1.95,1.68c0,.63,0,1.42,0,2.21s-.26,1.52-.25,2.28a15.55,15.55,0,0,0,.37,2.22L540,95c-.2,2.12.3,4.29-.34,6.49h1.18c0,1,.1,1.91.15,2.9h1.6c1,2,.69,4,.74,6.09l-.89.31V112l-1.73.31.94.43a12.54,12.54,0,0,1,1.06,7.5h-4.47c-.53-.94-.84-2-2-2.5,0-.36-.08-.73-.13-1.1l-.85-.35v-4.53l2.26-.75v-3.09l-2.24-.09v2.12c-1.78,1.27-3.72.57-5.68.8a12.75,12.75,0,0,1-.13-3c0-1,0-2,0-3.25h2.82l0-.3-.9-.31v-2.68l-1.87-.09V99.28c-1.3-.15-2.54,0-4.08-.09.62.85.95,1.69,1.57,2.06s1,1.06,1.46,1.58v4.29l-.66.65h-4.55c0-.6-.06-1.14-.1-1.8-2,0-1.59-2.5-3.24-3.12V98.29h4.51a7,7,0,0,0-.74-1c-.64-.56-1.31-1.09-1.92-1.59V91.13h3.29V89.66h-2.76c0-.7-.06-1.24-.09-1.86H521c-.07-.67-.14-1.27-.21-1.94H519V83h-2.9V80.53h-5.21V78.68l-2.41-.12c0-.43-.07-.81-.11-1.29h-1.18l-.3-1h-1.66c-.1-.51-.18-.94-.28-1.49l-1.26-.07c-.23-1.63-.47-3.29-.74-5.17-1.49-.19-3.22,0-5-.11v-2.2L496.44,67V62.9h-2.06c-1.12-1.16-.79-2.53-.87-3.88h-6.46c-.47-1.61-1.76-1.49-3-1.49V54.18H482.1c-1.35,0-2.72.08-4.07,0-1.2-.09-2.38-.4-3.66-.62v-2l-1.07,1.63h-7.47V51c-.91-.36-2.26-.1-2.05-1.7H459V47.07h-2.2l-.34-1-1.14-.1c-.09-.26-.19-.53-.31-.84L453.94,45l-.38-.91H450l-.07-1.38h-2.69l-.23-.91h-4.56l-.23.7a9.18,9.18,0,0,1-4.56.62l-.21.79c1.76-.55,3.48-.15,5.35-.34-.11,2.14.32,4.16-.77,6.19h-4.37l-.26-.8h-1.28v4.18h-6.63L428.69,52l-.35.18v-1.8H428l-.2,1.42h-4.16l0,.34,1.76.21V58h-6l-.19-1.3-.24,0-.22,1.73-1.27.23-.18.83h-1.68l-.26,1a4.68,4.68,0,0,0-3.2.67c0,.38-.07.76-.12,1.34L406.07,62l-1.51,1.72h-1.43l-.26,1h-3l1.24,1.83v4.3a16.86,16.86,0,0,1-6.67-.53V66.25h-4.73l-.17,2.2-.75.16-.24,1.31h-5.8l-1.16-1.3c-.18-1.16-.41-2.66-.61-4l-1.63-1.54c-.78,1.82.29,3.31.28,4.9l.78.17v4.68l-1.63.07-.36.89h-4.3l-1.33-1.54V69h-.27l-.24,1.36-.81.16-.07,1.24.87.19v4.71h-2.69v2.77H363.2c-.2-1-.41-2-.63-3.15l-.5-.12c-.86,1.26.21,2.37.2,3.55v3.43l-.67.67h-4.41l-.7-.7c.31-1.49-.47-3.21.45-4.82-1-1.52,0-3.25-.56-4.87h-2.09l1.18,1.2v4.28l-.79.28v1.23l-1.89.16-.17.79h-4.57l-.24-.77H346.1l-.2-1.94h-1.64l-.33-.94-7.45-.7v3H339c.32.8.56,1.42.8,2.06,1.88-1,3.71-.4,5.45-.58,1,1.94.64,4,.73,6.13-1.81.2-3.63.45-5.45.57a3.47,3.47,0,0,0-2.47,1h-4.32c-1-1.78-.65-3.75-.72-5.7l-1.71-.08c-.27-.8-.54-1.57-.8-2.31l-1.31.62v2.93l-2,.73.05.35h3.2l.2,1,1.78.18v4.71c-1.36,0-2.77-.06-4.18,0a8.93,8.93,0,0,1-3.82-.65l-.19-1.76H324l-.13,1.7-3.79.7v1.09l-1.36,1.23h-4.26c-.07-.28-.12-.5-.19-.71s-.11-.11-.17-.17h-.54l-.27.8a1.6,1.6,0,0,1-.42.14l-9.62.57-1.37,1.21v.92c-2.85.81-5.67-.69-8.49-.25l-.22.82h-4.55l-.27-.79h-1.69l-.21,1.3H282c-.05,0-.15-.1-.15-.16,0-.32,0-.63,0-1.07-1.37-.53-2.37.7-3.57.79s-2.55,0-3.93,0l-.28-.87h-1.11l-.31-.79c-1.1-1.14-2.65-.59-4.23-.79,0-1.48-.06-3,0-4.47a3.83,3.83,0,0,0-1.32-3.23l-.21,1.36-4.56.69L262,90l-4.58.71V92c-3.6-.11-7,.8-10.51,1.67l-.26.74H244v3l-1.53,1.33h-4.13l-.29-.84-1.26-.19-.14-1.26h-1.88L233.48,95V88.69h2.2l.76-3.26.77-.27V81.62l.85-.2c.07-.35.14-.78.22-1.22l.82-.31.14-1.22,1.26-.11V76l1-.32V74.52l.92-.35c.16-.5.39-1.19.6-1.87s.4-1.43.63-2.25h.82l1.41-1.43V66.36l.79-.28.79-2.28,1.29-.1V61.45H253c0-.83.1-1.58.16-2.45l1.32-.06V55.17h3.31V51.43l1.93-.21V48.5l2.41-.12.1-1.23.85-.31.14-1.2h1.21l.83-2.45h3.85l.68-.68v-4l1.92-.15.11-1.28h2.12l.33-1H276l.9-2,2-.71V32.28l1.44-.24c0-.39.07-.76.12-1.24h3.17l.21-1.93H287V25.61c1.36-1.15,2.87-.38,4.27-.74l.17-.78,2.74-.77.13-1.14H296l.24-1.46h1.15l.34-1,1.14-.09.33-.9h3.57V17.38l2.45-.15L305.3,16h3.13l.27-1h2.1l.33-1h1.6l.34-1h3.19V11.25l7.11-1.31.18-.7h2.58l.33-1h2.62l.25-1.47h2.19V5.43l2.32-.18.94-.94h6.33c.05-.46.09-.84.17-1.44,1.64.36,3.37-.52,5,.53l4.88-.52.2-.82c3.17-.25,6.41-1.24,9.85-.05.07-.45.14-.88.21-1.36,2.37-.19,4.71-.77,7.15-.63,2.29.14,4.66-.29,6.85,1.12.19-.4.33-.72.48-1h5.45l.18.81h4.43L386.88,2c.77-.4,1.47.33,2.39.09A12.07,12.07,0,0,1,392.1,2c.87,0,1.75,0,2.63,0h2.88l.15.75a24,24,0,0,0,3.5.78,16.21,16.21,0,0,0,3.65.37,11.89,11.89,0,0,1,4.45.85A7,7,0,0,0,411,4.9l.36.9h5V7.66h4.71l.22.92h8.39c.08.5.16.93.25,1.45h4.63v2.9h6.58l.31.85,4.61.63v1.74l5.74.75.14,1.28H454l.35,1h2.09l.25.89,1.74.19V22h7.22l1.45,1.45.1.93h3.6l.27,1.46h1.76v2.9h4.22l.22.84a5,5,0,0,0,1.52.6c1.24.07,1.3.88,1.35,1.95h2.25l.15,1.38h4.58c.09.5.16.94.23,1.37l.86.3v1.54l.89.31v1.23l2,.18c.19.52.38,1.08.62,1.76,1.26.93,2.87.43,4.56.6v1.7l1,.35V44l2.79.16.16.82,1.81.14v3.12ZM295.21,87.23c.77,1,.37,2.09.48,3.15a6.37,6.37,0,0,0,.11.63h1.51c.58-.69,1.05-1.26,1.46-1.73,1.48-.21,2.92-.5,4.37-.59,1.74-.1,3.49,0,4.86,0l1.62.53V85.38l1.85-.14c0-.3,0-.45,0-.61a18.23,18.23,0,0,0-8.66-1.15V81.55H300.5v4.9l-.73.78h-4.61c.27-2.16-.39-4.38.52-6.53l-.92-.33v-2.1l-1.47-.9c0-1.33,0-2.76,0-4.19,0-.11.19-.21.23-.26l.77-.24V69.92h3.39V68c1.9.15,3.76-.31,5.53.55.11-.6.19-1,.28-1.55h3.82c-1-1.87-.45-3.73-.66-5.57h5.24v6.06l-2.39.14.17.83H313c.21-1.92.42-3.81.63-5.77h2.08l.28-.79h4.66v3c2.74-1.15,5.36-.73,8.14,0v2.18l.7-1.47h4V64.22h-1.9V60.83h-3.39V59.49h-.9v4.22h-5.67V58.2l1.29-.67c.55,0,1.27,0,2,0a3.33,3.33,0,0,0,2.33-.49h-2.74V52.25c2.63.11,5.28-.41,7.71,1.22v1.72h1.88v3.1A17.4,17.4,0,0,1,341.74,57V55.77c2.36-.7,4.62-1.38,7.1-1.08.29-.75.52-1.36.78-2h1.11l.12-1.46,6.17-.49v2.56h5.3v2.5l1.41-1.66V51.83h4l.84-.84V46.58l1.39-.15V44.18h5.29v4.7l1.26.06.35,1,.51-1.08a15.93,15.93,0,0,0,6.45-.69v-.95c1.34-.78,2.17-2.49,4.09-2.17,1.62-1,3.32-.23,5.07-.47v2h4.82v4.29L399,52.2h2.4l.33-1h3.05l.2-.79,1.6-.24c-1-1.14-.53-2.89-2.16-3.49V42.19l.88-.61c.07-.75.11-1.27.16-1.77,1.21,0,2.25.06,3.28,0s1.94-.37,2.92-.44,2.06,0,3,0l.66.63v4.57l-1.25.15v2.38c1.55-.19,3-.44,4.44-.53s3,0,4.49,0c-.75-1.78-.25-3.48-.47-5.32h2.52V39.44l1.46-.28V37.08l.46-.46,4.65-.73.17-2.21h4.63l.13,1.24c1.68-.74,3.38-.21,5-.41l.36.93h1.13l.29-.83h8.9l.14,2.41h2.33v2.33h1.76l.37,1h1.62l.16.75,1.28.23.2.85h2.3v2.42h5.36l1.26,1.7c.05.45.12,1,.18,1.57h.33V45.64h4.65c.05,0,.1.11.25.28V47h2.74c0,.68.06,1.28.08,1.75l7.64.76v3l9.81.69c1,1.11.6,2.51.76,3.83h2.93c.2.81.4,1.59.61,2.45h2.66v3.2l2.93.8V67.6h3.32c.22,1.31.43,2.56.65,3.89h2.55c.08.3.13.52.24.9h1.74c0,.71.07,1.24.1,2H516c0,.54.06.92.08,1.28l1.48.28v2.24h3.3V81h3.21c.09.52.17,1,.25,1.44l.84-.14c0-.65-.07-1.24-.09-1.6l-2.86-.81v-3.6l-1.46-.28V74.49l-1.81-.64V71.61l-.92-.35c0-.37-.08-.75-.12-1.11l-.84-.31c0-.42-.09-.79-.14-1.19l-1.33-.22c0-.47,0-.85-.06-1.24l-2-.2V64.7h-3c-.27-1.5-.52-2.91-.75-4.22l-.8-.16-.34-1h-1.16c0-.63-.06-1.17-.1-1.87h-2.11c-.33-.91-.59-1.6-.85-2.31l-1.67-.08-.2-1.31-5.21-1.25V48.86h-3.38V47.54l-2.42-.16V46.07L489.85,46c-.13-.34-.22-.62-.35-1h-1.64c-.05-.46-.1-.83-.15-1.27-1.12-.13-1.54-.84-1.32-2.08h-3V38.28H480V36.9h-2.19l-.24-1.46h-2.18l.08-.24-2.06-1-.15-.73h-2.82V30.78l-2.24-.17-.17-.68-4.11-.68c-.1-.56-.19-1-.29-1.51h-4.53l-.23-.9h-3.64l-.1-1.86h-2.63c-.14-.35-.25-.63-.35-.9l-1.68-.19-.22-.88h-2.14l-.22-1.31L442.78,21c0-.55,0-1.09-.07-1.59l-8.41-.69-.37-.92h-2.7V15.34h-4.66c-.09-.52-.16-1-.24-1.4h-4.87c-.69-1.07-1.87-.23-2.82-.74s-2.15-.18-3.25-.22h-1.92V10.65c-1.71.8-3.41.23-5.09.46l-.25-1.59c-2.83.56-5.5-.37-8.23-.37-.16,0-.4.07-.47,0-.86-.94-2.12,0-2.88-.54-1.09-.74-2.15-.25-3.21-.39-.78-.1-1.73.25-2.36-.08-1.07-.56-2.22-.08-3.16-.48a12.19,12.19,0,0,0-3.31-.45c-.35-.35-.59-.82-.92-.88-1.42-.28-2.87-.44-4.13-.62-2,1.6-4.14,1-6.1,1l-.19-.88c-1.4,0-2.75,0-4.1,0s-2.59.32-3.83-.34L365,6.75c-1.89-.13-3.58.67-5.41.52s-3.82,0-5.92,0l-.72,1a21.23,21.23,0,0,0-8.11,1,9.86,9.86,0,0,1-3.17.46,1.36,1.36,0,0,0-.41.15l-.22.82c-1.67-.17-3.4.3-5.19-.42v1.29l-2.9.16V13h-3.78V15H325.5c-.1.52-.18,1-.28,1.47H319.7l-.14,1.25-1.29.2-.18.83H315l-.34.91L313,19.8l-.18.78-2.19.18-.27.9h-2.72l-.75,2h-1.58l-.11,1.31h-3.58l-.38,1H299.7l-.34.91-1.69.1-.13,1.3-3.71.73-.21.82H291.9l-.11,1.95h-3.37v3.86c-1.57,0-3.07,0-4.56,0-.05,0-.1.11-.25.29v1l-1.26.14-.13,1.18a1.74,1.74,0,0,0-1.49,1.92l-3.19.79-.17.83h-2.79v2.91H271.2V48h-1.76l-.26,1.37H268l-.85,2.31-.73.27v.91L265,54.22h-2.4v2.9h-3.23c-.06,1-.11,1.91-.16,2.9h-1.37V63.8h-2.9v2.3l-2.42.14v2.7l-.78.2-.2,1.26-.83.18V72.3l-1.38,1.61h-1.07v2.63l-.92.32v1l-2,1.61v2l-1.18.09c-.43,2.08-.84,4.07-1.25,6.09l-1.22.2v1.76h2.14l.35-.88,1.66-.08.85-1.47H254c.22-1.58.42-3.08.64-4.68h3l.33-.9,4.07-.73.2-1.2.92-.2V76.78h5.69V79h1.86c0-.64.07-1.17.1-1.71h5.76v1.81c1.43,0,2.78,0,4.12,0a2.85,2.85,0,0,1,.69.2v2.21h3.31v1.95h5.78v3.77Zm-5.8,1.44h-4.65c-.08-.76-.14-1.35-.2-1.91h-2.51c-1.95,1.72-4.39.5-6.63,1.14,1.23.7.19,1.89.84,2.68,3.33,0,6.67,0,10,0,.11,0,.21-.19.25-.24l.25-.76h2.64Z"/><path class="cls-1" d="M240.69,260l-.17,1.53h-4.67v-1.75l-1.39-.16v-1.5l-2-1.57v-5.49a19.46,19.46,0,0,0,2.29,0,12.89,12.89,0,0,0,1.95-.54c.1-2.24-.65-4.77,2.37-5.67v-2.18c3.16-.39,4.38-.32,5.51.25,1.06-.87,2.3-.27,3.52-.52l.22-1.35h4.11v-1.71l7.69-1.34.13-1.21H263c.06-.66.12-1.26.18-1.93h4.61l.21,1.31.77,0V235a5.13,5.13,0,0,1,1.69-.66c3.45,0,6.87-.88,10.33-.5a9.52,9.52,0,0,1,1.58.44c1.23-.27.72-1.45.92-2.31H288l.72,1.79,4.37.72.73,1.21h1.6c.18.38.33.68.52,1.06l.39-1c1.72.21,3.48-.23,5.26.45a8.85,8.85,0,0,0,3.05.06l.18.86h3l1.2,1.32v4.39l-1.49.62a18.8,18.8,0,0,1,2,.75,11,11,0,0,1,1.39,1v4.37h-2.76v3.24l-1.07.38v3.6h-4.66v-1l-1.55-1.34-4.11.62c-.2.59-.47,1.35-.72,2.09l-5.6.7v1.21s0,.07.07.07h4.9l.39,1.08a18.73,18.73,0,0,1,8.39,1.11l.14,1.19H308v2.15l1.48,1.29h4.8c0,.62.07,1.16.11,1.86h2.29v5.6l-1.13.47,1.51.26.29.81,1.14.13.32.84,1.21.13v1.17l1,.34c0,.51.06,1,.1,1.62l.86.32V284l-5.11.76-.18.6-11.35,1.12c0,.53-.08.9-.12,1.28a18.3,18.3,0,0,1-2.6.65,26.29,26.29,0,0,1-3,0l-.25,1.35-.81.17v2.25h-5.22v-1.29l-2.42-.1v1.39H288.2c-.15.45-.25.73-.35,1h-4.43l-.29-.86h-3.05c-.11-.34-.21-.62-.33-1h-1.61l-.28-.91-1.25-.19V289l-1.91-.22-.18-.87a6,6,0,0,1-1.27,0,4.35,4.35,0,0,1-1-.58v-1.68l-.8-.17-.3-.86-1.1-.08c-.45-1.72-.91-3.45-1.36-5.19l-.72-.17v-2.6l-.85-.22c-.08.48-.15.91-.23,1.43h-1.67c-.1.5-.18.94-.28,1.46h-2.18v1.57l-1.6,1.34-.81.09,1.78,2v4.57c-1.52,1.09-3.25.21-5,.6l-.62-1-1.87-.1-.18-.82h-3.19l-.17,2.22h-8.43v-4.66l1.59-.08c.07-.13.2-.26.2-.39,0-1.92,0-3.84,0-5.75a10.74,10.74,0,0,1,.61-2.37c1.05-.11.88-1.8,2.16-1.62l.14-1.25h6.45c-.54-1.8-.16-3.52-.33-5.33h6.66v-1.26l6.72-.72.13-1.3h1.27c.06-.83.12-1.58.18-2.32a14,14,0,0,1,5.52-.61c.06-.27.12-.49.15-.7s.06-.45.08-.67c1.24,0,2.43,0,3.6-.13s2.1.19,3.23-.29,2.33-.14,3.52-.17h.89l.34.93h2.52l.81-1.8h-3.37l-.19-1.93h-2.76v1.73a48.61,48.61,0,0,0-6.87.61c-1.74.26-3.31-.7-5-.53l-.16-.73c-.13-.06-.26-.18-.4-.18-1.35,0-2.8.3-4-.08-2-.6-3.89-.25-5.86-.44l-.32.93h-3.93c-.64.73.35,2-1.5,2.4a48.77,48.77,0,0,1-10.56.46l-.29-.79Zm0-3.05v1.25h1.86v-2.14l2.53-1.25h2.17l.15-1.35h3.55a8.76,8.76,0,0,0,3.08-.08A10.43,10.43,0,0,1,257,253c1-.11,1.94-.43,2.91-.44a12.5,12.5,0,0,1,4.37.38c1.08.36,2.38,0,3.57.09s2.25.36,3.39.44,2.23,0,3.35,0a1.66,1.66,0,0,1,.42.12l.27.76h1.17l.27-.79h4.55l.2.77,1.2.19.31.83h2.18l1.56-1.32v-.94l4.21-.75.82-1.37h1.46l.35-1h1.62l.17-.84h4l.36-.9,1.17-.14v-2.75l-1.29-.11c0-.82-.07-1.57-.11-2.4h-2.22l-.32-1h-2.1l-.19-.7-7-.73-.27-2.13-.46,1.29c-3-.25-5.92.2-8.9-.45s-6,.91-9.05.3l-.23-1.39-.84.21v1.81c-.53.54-.85.87-1.35,1.36l-2.06.12v1.37h-3.09l-.33.9-1.62.1-.34,1h-3l-.33,1H251.2l-.16,1.38h-3.2l-.13,1.37h-3.62a9,9,0,0,0-1.56,1.26,8.41,8.41,0,0,0-.78,1.7H237.9c-.22.47-.39.86-.59,1.28l2.38.83v3Zm32.8,19.57c.41,1.42.83,2.84,1.25,4.31H276v1.34l1.92,1.92,1.52.1v1.33l1.67.07.32.88,1.14.1.29.82h6.38l.55-1.63,5.85-1.36v-1.53c0-1.61-.17-3.27,1.42-4.42a1.52,1.52,0,0,0,.47-1.2c-.16-1.58.47-3,.62-4.56l1.72-.17v-3.27h-4.26v-4.34h-7.09c-.05-.68-.1-1.27-.14-1.79h-2.71c-.24.84.29,1.9-.88,2.16l-6.32.69-.15.74-6.59.74c0,.78-.06,1.53-.1,2.36h-2.29v1.39h1.82l1.55,1.36v3.77Z"/><path class="cls-1" d="M631.56,735.85h1.61c.05-.06.16-.12.16-.17,0-2.14,0-4.27,0-6.49l1.49-.09c-.12-.87.44-1.8-.44-2.58.2-1.61-.41-3.24.39-4.86a3.31,3.31,0,0,0,.16-2.23,16.23,16.23,0,0,1-.09-4.08l1.38-.2,0-.24-1.84-.22v-7l-1.39-.16v-4.59l1.19-.22c-.62-1.64-.24-3.34-.3-5s0-3.49,0-5.34h4.79v5.57h1.86v3.31l.87.18c.23,2.44.46,4.9.71,7.45l.81.28v2.21l1.21.08c1.09,1,.67,2.41.81,3.72l.8.16v1.45l1.56,1v4.46l-.89.3v4.09h3.83l1.37,1.63c0,1.32-.23,3.12.78,4.7l.46,0c.06.14.2.27.19.4a13.56,13.56,0,0,0,.79,4.46,17.33,17.33,0,0,1,.24,3.14l1.37.22c0,4.23.24,8.46-.1,12.65-.18,2.26-.32,4.5-.4,6.76a3.44,3.44,0,0,1-.41,1h3.69v1.26l1.71.72c1.43-.12,1.08-1.28,1.41-1.88l.81-.17v-1.73h4.67c.07.37.14.81.23,1.33h2.24a19.28,19.28,0,0,0,.45,3.66,15,15,0,0,1,.07,3.92H650.74l-.16-.74h-5.09c-.06.25-.12.47-.17.68-.06.06-.12.17-.17.17H634.68l-1.26-1.44c0-.08,0-.45-.09-.87l-1.27-.14v-2.58l-1-.34v-1.37l-1.54-1.45h-3.32c0-3.1,0-6.12,0-9.14,0-.23.26-.46.48-.82l-1.35-.07v-6.45l1.41-1.19h1.28v-3.26l1.89-.15.17-.8,1.32-.2C631.48,737.67,631.52,736.75,631.56,735.85ZM645.37,758h1.88v6.65h-1.81v1.29h3.88c-.31-2.41-1-4.68-.44-7l.68-.18c.32-1.87,1-3.71.39-5.72h-1.23v-4.73h-2.81l-.1-1.75-.83-.29v-5.12h1.33l2-2c0-.35,0-.88-.08-1.48h-6l-.57-.57V732.6l1.3-.22v-2.69l-1.37-.15v-4.15l-.67-.09-1.06,2c-.25,2.37-.46,4.44-.68,6.47l1,.25c-.41,1.41,1.22,2.26,1,3.8s.24,3-.85,4.33h-3v2.73h3.11l.32.92,1.38.24v1.7l.82.09,1.61,1.35v1.44l.84.17Z"/><path class="cls-1" d="M475.61,263.34l1.09,1v4.88h-4.61l-.2-.81-2.72-.15v-1.74c-2.11.68-4.16.2-6.28.4v-2.35h-1.34l-.2-1.93h-3l-1.23.63v3l-1.85.21v1.77h-4.82v4.81H448v2.23a16.25,16.25,0,0,1-6.62.61l-.29-1.74c-.22.88-.33,1.3-.43,1.72a17.27,17.27,0,0,1-8-1v-2.15h-3l-1.39-1.61v-2.26l-1.85-.1v-2.26l-1.29-.14a37.53,37.53,0,0,1-1-6.16l-.2,1.39-4.11.69v1.24l-3.1,2.39h-.59l-.47,1h-1l-.33,1h-1.66c-.48,1.37,1.21.63,1.24,1.49v4.6H399.24l-.17-.8H397.3v-5.7h3.19c.06-1,.11-1.9.15-2.68l2.08-1c1.73-.55,3.68.29,5.48-1v-2a4.07,4.07,0,0,1,.71-.16c1.38,0,2.81.25,4.13-.7v-4h3.59c.27-1,.52-1.94.79-2.93h2.73v-1.37l2.38-.15.15-.69a17,17,0,0,1,6.52-.68l.24-.88H434l.23,1.29h4.17c0-.33,0-.71.05-1.1,1.56-1.21,3.49-1,5.12-.65a33.42,33.42,0,0,0,4.85.37c.31,0,.61,0,.91,0l.21.95a9.51,9.51,0,0,1,4.64.67l.19.72h2.71v2.42h6.18v1.37l2.89.15v3.24H471l.11,1.94h2.33V263h2.17Zm-46.27-6c0,1-.07,1.92,0,2.78a21.17,21.17,0,0,1,.43,2.44c0,1.18.59,1,1.33.87l1.11-5.57c1.64-.61,5.29-.78,5.71-.36l.06,1.09.84.29v8h-4.61v3.4a16.62,16.62,0,0,1,6.21.62c.2.51.42,1.1.65,1.72l.7-1.93h2.9a17.44,17.44,0,0,1,.72-6.77h2.45c1-3,.54-5.95.67-9h-4.63l-.36-1h-5.18v-1.39h-4.12c-.07.48-.14.92-.13.85l-1.27,1.49a25.49,25.49,0,0,0-2.75,0,22.23,22.23,0,0,0-2.6.56v1.76Z"/><path class="cls-1" d="M361.79,688.81l1.39-1.3h-2.29v-4.72l.66-.16a8.56,8.56,0,0,0,.69-4.67l1.44-.13V675.5h1.86v-2.77l2-.2c.11-1.27-.34-2.82,1.46-3.45v-3l1-.37v-2.17h2.82v-4.81h1.86V656l1.86-.18c.25-1.21.49-2.39.75-3.64l.94-.35c.16-2.22.32-4.52.49-6.82l-1-.21v-2.59l-.88-.28c-1.05-3.21-.84-6.55-.56-9.78.2-2.25.3-4.49.4-6.72a16.52,16.52,0,0,1,6.47-.65l.75,1.46v2.22l.9.23v10.86h.9v-1.87l1.41-1.42h1v-3.14l1.07-.42V630h2.34v-3.86h3.7c.25-2.07.49-4,.74-6.14h5.57a14.3,14.3,0,0,1-.66,6.54l-.54.11-.29.86-1.68.08v4l-2.43.86v3.65l-1.95.14v2.66l-.9.23-.17,2.24h-1.77v2.83l-.92.19-.21,1.32-1.72.09v3.1l-1,.33v1.24l-2,.14a5.56,5.56,0,0,1-2.27,5.54c-.2.94-.46,2.18-.73,3.44l-1.22.14v1.64l-.83.29-.76,2.71-.84.18-.08,1.75-1.22.09-.73,4.78-2.37.7c.66,3.19-.84,6.14-1.61,9.27l-1,.12a2.06,2.06,0,0,0-.17.42,12.57,12.57,0,0,1-.55,3.36c-.5,1.08-.3,2.12-.45,3.26h-2.7c-.34,1.45,0,2.87-.2,4.15l-1.38.86a16.3,16.3,0,0,1,0,2.22,11.38,11.38,0,0,1-.66,1.85l-.72.25-.06,1.19h-2.45c-1.4,1.64-.64,3.52-.94,5.19l-2.87.78v4.56l-.81.21v2.57l-1,.34v1.74h-2.42l-.77,2c-1.31-.16-.36,1.11-.94,1.53-.3.22-.3,1-.22,1.53.26,1.52-.57,2.88-.53,4.36,0,.22-.42.44-.68.7h-4.34c-1.16-2.62-.78-5.31-.05-8.11l1.27-.73V713l.77-.29c.26-.83.56-1.8.87-2.76h1.14c.05-.75.1-1.5.16-2.33h1.31v-4.79l1.4-.13v-2.61l1-.31v-1.13l1-.33v-1.67l1.41-.23c.05-.39.09-.77.14-1.22l.79-.18.2-1.78h1.71v-1.75l1-.35v-1l1.06-.5Z"/><path class="cls-1" d="M399.24,737.27h-1.83a1.59,1.59,0,0,1-.16-.51c.15-2.88.28-5.77.49-8.66a10.38,10.38,0,0,1,.55-2.16c.15-.49.36-1,.58-1.55h2.18v-2.3l.9-.23V717.8l1.38-.25.32-.91h3.15V712H409l.84-2.44H413v-1.35l1.94-.21v-2.47l.78-.78h4.41a18.8,18.8,0,0,1,1.12,4.94c.28,1.82-.62,3.52-.48,5.38l-.89.31V717l-1.46.26-.1,1.23-1.32.2,1.08,5.62h2a7.55,7.55,0,0,1,1.59,4.68,55.86,55.86,0,0,1,0,6.47,15.73,15.73,0,0,1-.58,2.76l-.79,0v1.85h-2.42v2.43H415v1.86h-2.34l-.08.33.75.34s.15.09.16.2c0,1.75,0,3.5,0,5.32h-5.21V745H405c-.08-.51-.15-1-.23-1.42-.15.07-.34.1-.35.16-.2,1.45-.38,2.89-.58,4.49l-1.79.13-.1,1.76h-1.24l-.22,1.37-.74.3-.74,5.09-1.71.08V759l-1.49.87v2.21h-5.69l-.15-1.91-1.34-1.3h-2.82V743.08h4.61l.79,1.33h2.11V743l1.39-2H402v-.33l-2.78-.17Z"/><path class="cls-1" d="M421.68,226.55v-1.76h4.79l.68,1.8h1.15v-1.08c.49-.49,6-.4,7.18,0l.16-1.3h2.19l.23-.9h4.53l.62.63v3l3.3.8.14.67,1.29.21c.05.39.09.77.13,1.14a1.13,1.13,0,0,0,.4.19,35.6,35.6,0,0,1,3.58,0,7,7,0,0,1,3.57,1v4.69H450V237l-1.85.21c-.11.27-.22.55-.35.9h-3l-.31.87h-4.6c0-.6-.05-1.13-.09-1.76h-1.21l-.55,2.26h-3.76l-.33.93-1.19.14-.14.66a13.62,13.62,0,0,1-6.1.64l-.14,1.38c-2.45.22-4.87.91-7.41.54-.11.33-.21.61-.33.95h-6.91l-.3-.85H400.78l-.36-1H397l-.2-.49-.25-.61-.34,1h-8.05c-.21-1.5-.41-3-.63-4.6H383v-4.88a25.63,25.63,0,0,1,10.84-1.41l.09-1.26,4.16-.7.23-.87h1.6l.39-1.1,7.39-.57v-2.57c2.77-.21,5.44-1.44,8.22.06v1.64Zm-25.35,10.06h12V233H414v4.73h-5.71l.08.8,3.38.41a61.35,61.35,0,0,1,11.71-.74l.33-1c1.72-.19,3.49.4,4.85-.55l.86-2c3.14.52,6-1,9.06-.2v1.68h1.38v-1.33l1.23-1.44,1.45-.27-1.09-1.32h-1.55l-.17-.83h-9.89l-1.59-1.39v-1H427l-.2,1.32H422c-.2-.79-.39-1.57-.56-2.24H416c0,.62,0,1.15-.09,1.85h-5.25v2.75c-2.26.43-4.62-.53-6.63.77l-.16.78h-1.67l-1.91,1.49h-3.92Z"/><path class="cls-1" d="M578.4,739.28c1.11-.26,2.28.26,3.21-.56,1.52.22,3-.26,4.62.38a3.45,3.45,0,0,0,3.6-.72v-8.7h1.79v-3.56c2-1.15,4.13-.72,6.26-.84v1.26l.89.31c.21,2.47.57,4.93.58,7.4s-.32,4.79-.49,7l-1.34,1.29h-2.43c.36,3.27-1.6,6.17-.84,9.58h-4.39v3.72l-.9.26c-.29,1.42,0,3-.18,4.59l-2.41.83c.4.64.27,1.61,1.44,1.76v4.63h-4.5l-.35,1H573.6l-.12-1.22-.87-.32v-4.16c.4-.94.76-1.83,1.17-2.8l1.17-.14V758l.9-.23v-3.52l.9-.33a10.6,10.6,0,0,1,.92-2,7,7,0,0,0,.52-4.94,10.3,10.3,0,0,1-.06-5A21,21,0,0,0,578.4,739.28Z"/><path class="cls-1" d="M571,602.2h-1.69v3.29h-1.86c-.09.51-.16,1-.24,1.47H565v3.14l-3.88.78c0,.58-.06,1.12-.09,1.7l-.9.32V615h-1.76l-.29,1.5-1.14.05q-.36,2.71-.72,5.47c-1.23.32-1.06,1.8-2.05,2.57l-1.25.19v3.06a16.79,16.79,0,0,1-6.5.62c-1.43-2.93-.32-5.9-.09-9h1.83c-.09-1.38,0-2.59,1.36-3.1.34-1.06.71-2.11,1-3.18a4.81,4.81,0,0,0,0-1.31l.91-.24v-2.1l.9-.27c0-.78.11-1.69.17-2.66l.78-.18c.06-.51.13-1.11.2-1.78h1.78v-3.3l.81-.17c.07-.13.19-.26.19-.39,0-1-.07-1.93,0-2.87a24.91,24.91,0,0,1,.6-2.8l1.26-.23c0-.36,0-.74.07-1.22l1.37-.22v-4.54l.9-.22.16-2.24H562v-2.82l1-.21v-2.22l1.46-.17V578.8l1.38-.15v-4l.89-.29v-3.16h1.24l.88-1.46h4.52c.37,2.9.29,3.6-.6,6.73a8.12,8.12,0,0,0-.16,1.85c0,.88,0,1.75,0,2.72l-1.4.24v2.26h-1.91v2.82h1.66l.34,1,1.16.08a30,30,0,0,1,0,12.86l-1.21.77ZM565.39,591l-1.06.43v3.69H563v3.16l-1.36.2c-.18,1.11.19,2.2-.44,3.21h3.09c.11-.28.22-.56.32-.83l1.85-.21V597.5l.67-.18c1-2,.59-4.06.69-6.09l-1.51-.11v-2.86l-.89.14Z"/><path class="cls-1" d="M529.47,598.28v2l1.37,1.36,1,.11V607h2.41c0,1.17.08,2.27,0,3.36s-.35,2.09-.55,3.21l-.81.29v2.59c2.32.54,4.83-.52,7.15.84v2.48l.9.33c.09,4,.09,4-.65,5.11h-4c-.4,1.4.48,2.54.58,3.79,0,.21.24.4.26.61.21,2.47.41,4.93.62,7.5h-4.8c-.44-.6.35-1.75-1.08-2.3h-1.91v-2.34l-1.37-.15v-9.44h4.62c0-.38.07-.6.12-1h-3.76c-.06-.54-.11-.92-.16-1.39h-4.12c-.07-.67-.14-1.26-.21-1.85l-.9-.35v-2.1l-.83-.17v-2.66c-1.2.13-1-1.15-1.85-1.55l-1.39-.08c-.44-2.48-.86-4.87-1.32-7.51l-.63-.37c-.4-1.34,0-2.25-.45-3.2-.36-.73-1.3-1-1.29-2.08,0-.77-.8-1.55-1.26-2.35v-5.94h5.59v1.17l2.95.85.05,1.16h1.49c1.3,1.48.75,3.18.91,4.82Z"/><path class="cls-1" d="M461.38,730.1h-1.7c-.24,2-.49,3.93-.74,6l-1.39,1.17-1.39.15v.74l1.85.17a16.54,16.54,0,0,1-.6,6.62h-2.2v3.67l-2.78.8v2.45l-1,.81v2.63l-1,.33c0,.35-.06.73-.11,1.27H448v2.34h-4.67c-1.11-3.81-.43-7.8-.65-11.83l1.74-.09c.2-.4.41-.79.68-1.32v-8.54l2.79-.78.16-.72,1.34-.21v-6.17l2.31-.62.25-.72,1.75-.1v-2.25l1.38-.16v-1.08c1.85-1.29,3.82-.57,5.59-.8C461.68,726,461.44,728,461.38,730.1Z"/><path class="cls-1" d="M409.57,257.73h-.94L407,259.67h-.9q-.13.39-.27.81l-.83.33-.13,1.2h-6.52v-5.65l1.21-.06.22-1.34,1.24-.12v-1.16l1-.32v-1.17l1.43-.27.15-.74,1.28-.22.18-.83h1.74l.17-1.46h2.72l.15-1.37h3.09l.94-1.45h4.33c1,1.89.6,3.93.69,6.1l-1.69.11c-.58.48-1.23,1-2.18,1.79h-2.17l-.3.88-2.11.69Z"/><path class="cls-1" d="M497.26,644.6c3.17-1.08,6.13-.62,9.14-.75v4.69l-.8.21v3.66h-2.41c-.05.83-.09,1.59-.13,2.27-2,1-4,.63-6.1.7C496.5,651.73,497.89,648.18,497.26,644.6Z"/><path class="cls-1" d="M690.41,741.81v4.49c-1.89,0-3.79.49-5.7-.54V743.7l-1-.34v-3.57l-1.43-.21V734h4.58l.27.77,3.15.74V740l-.76.27v1.14Z"/><path class="cls-1" d="M789.11,616.92l-.91.24v2.17H783l-.76-2.22-.8-.17v-6.42c1.94-.89,4-.66,5.85-.64l1,1.11C789.38,612.76,789,614.8,789.11,616.92Z"/><path class="cls-1" d="M492.29,637.68h4.51v4.76l-2.27,1.37c0,.1-.06.47-.11.91l-.73.16-.28.83h-5.58c0-.83,0-1.75-.05-2.68s0-1.88,0-2.91h1.71l.29-.88a7.34,7.34,0,0,0,1.45-.53A6.39,6.39,0,0,0,492.29,637.68Z"/><path class="cls-1" d="M561,653.57a24.47,24.47,0,0,1-4.72-.45c-1.4-.41-3,.55-4.26-.78v-4.62c1.6-1,3.37-.25,5-.53l.35,1H561Z"/><path class="cls-1" d="M513.51,93.94h-1.06l-.66-.66V88.62c2.05.27,4.1-.46,6,.63.94,1.89.61,3.93.66,6h-4.66C513.7,94.91,513.6,94.41,513.51,93.94Z"/><path class="cls-1" d="M607.68,732.09l1.24,1.65v4.44H602.8c0-2-.36-4,.66-6.09Z"/><path class="cls-1" d="M381.43,623.19v-1.65l-.91-.34v-4.56h5.58v6.55Z"/><path class="cls-1" d="M517.53,634.29V629.6l1.27-.19c.07-.26.13-.48.2-.78h4.66v5.13a3.49,3.49,0,0,1-1.15.51C520.87,634.33,519.22,634.29,517.53,634.29Z"/><path class="cls-1" d="M753.22,699.52c-.29,2.11.61,4.32-1.2,6.11h-4.53V701.1c.29-.49.6-1,.93-1.58Z"/><path class="cls-1" d="M464.22,232.2c-.48.25-.86.61-1.26.63-1.41.07-2.83,0-4.32,0V227.2c1.8,0,3.69-.49,5.58.54Z"/><path class="cls-1" d="M390.1,76.5V72.08c1.74-1.17,3.67-.41,5.59-.73v5.86C393.84,77,391.9,77.62,390.1,76.5Z"/><path class="cls-1" d="M582.54,628H577v-4.69c.83,0,1.75-.05,2.67-.05h2.91Z"/><path class="cls-1" d="M749.25,677.84H744c.31-1.74-.47-3.53.57-5.19h4.67Z"/><path class="cls-1" d="M264,534l-.59.59h-4.53v-5.1H264Z"/><path class="cls-1" d="M684.59,725.75h-4.68c-1-1.58-.26-3.36-.58-5.12h5.26Z"/><path class="cls-1" d="M231,103.6v6.07h-3.78c0-.92,0-1.92,0-2.92V103.6Z"/><path class="cls-1" d="M373.61,38l1.11,1.1v4.48l-2.27.08h-2.14l-1.76-1.31V38Z"/></svg>