<svg width="124" height="22" viewBox="0 0 124 22" fill="none" xmlns="http://www.w3.org/2000/svg">
<path d="M9.72294 4.42876C9.27182 4.11944 8.9271 3.78399 8.63258 3.38464C8.48993 3.19122 8.43172 2.99119 8.2172 2.83009C8.00347 2.66959 7.70613 2.60507 7.46144 2.47917C7.20776 2.34864 7.16939 2.11177 7.04606 1.91812C6.92364 1.72589 6.4952 1.77197 6.27011 1.77948C5.85758 1.79325 5.4422 1.92105 5.06148 2.03293C4.71551 2.13459 4.54968 2.31742 4.32303 2.55282C3.50487 3.40253 2.7007 4.32688 2.09902 5.27574C1.96944 5.48009 1.95754 5.68794 1.90864 5.90828C1.83591 6.23599 2.00383 6.37617 2.24613 6.64262C2.80892 7.26147 3.55132 7.71042 4.51052 7.91852C5.35856 8.10249 6.23655 8.18457 7.08645 8.36692C7.5289 8.46186 7.84989 8.69249 8.18835 8.92147C9.12428 9.55467 10.0896 10.1557 10.9893 10.8191C11.2292 10.996 11.5061 11.1641 11.6671 11.3888C11.7739 11.5377 11.7006 11.8597 11.6931 12.0192C11.6826 12.2432 11.6906 12.5185 11.5893 12.734C11.4498 13.0307 10.8552 12.9478 10.5306 13.0849C10.088 13.2719 10.1019 13.8899 9.59314 14.0597C9.39239 14.1267 9.23767 13.9829 9.0768 13.8951C8.42043 13.5366 7.60518 13.1883 6.82683 13.0069C6.39563 12.9064 5.87303 12.8962 5.47685 12.7253C5.35435 12.6725 5.29959 12.5641 5.20282 12.5217C5.03868 12.4498 4.83341 12.4505 4.65764 12.4004C4.35507 12.3142 4.10908 12.1803 3.79227 12.1101C2.87133 11.9061 1.99327 11.4863 1 11.4863" stroke="#0ACE00" stroke-linecap="round" stroke-linejoin="round"/>
<path d="M13.2671 12.3859C13.2671 10.9283 13.178 9.48589 13.5203 8.0464C13.8121 6.81901 13.9322 5.5748 14.2975 4.3583C14.323 4.27323 14.5306 3.28709 14.4594 3.30794C14.012 3.43904 16.2626 6.38386 16.423 6.69194C16.8155 7.44581 17.5622 8.05254 18.213 8.69775C18.7347 9.21508 19.1912 9.77313 19.4553 10.3887C19.6741 10.8987 19.6791 11.3845 19.6791 11.9157C19.6791 12.5622 19.654 13.2072 19.7909 13.8482C19.9069 14.3912 20.0554 15.0348 20.471 15.5067C20.751 15.8247 21.1463 16.0752 21.4278 16.3845" stroke="#0ACE00" stroke-linecap="round" stroke-linejoin="round"/>
<path d="M13.2567 8.69208C14.125 8.69208 14.9935 8.58149 15.8592 8.49783C16.4058 8.445 16.9772 8.46605 17.5174 8.32689C18.0122 8.19944 18.4818 8.12198 18.9869 8.04717C19.1523 8.02266 19.8285 8.09973 19.8957 7.92285" stroke="#0ACE00" stroke-linecap="round" stroke-linejoin="round"/>
<path d="M28.2812 5.53214C27.5558 5.26125 26.9683 4.73275 26.4992 4.23367C25.9674 3.66793 25.5518 3.0296 25.2691 2.36457C25.1249 2.02538 25.0186 1.56127 24.6513 1.31589C24.3867 1.1391 23.8744 0.833017 23.575 1.11347C22.8905 1.75466 22.5203 2.58995 21.8342 3.22591C21.7084 3.3425 21.7573 3.53778 21.7573 3.67595C21.7573 4.53871 21.7059 5.41236 21.7903 6.27289C21.8741 7.1274 22.0568 8.36041 23.0917 8.86767C23.6846 9.15828 24.2724 9.41294 24.9479 9.58474C26.0035 9.85325 27.1533 9.78131 28.1219 10.2523C28.6391 10.5038 29.2478 10.8506 29.05 11.3935C28.792 12.1017 27.8758 12.6635 27.4108 13.2713C27.2555 13.4742 26.9921 13.9112 26.6887 13.9905C25.8423 14.2117 24.9482 13.975 24.2093 13.6546C23.382 13.2958 22.5001 13.0742 21.6585 12.7502C21.3813 12.6435 20.9972 12.4501 20.9171 12.1989" stroke="#0ACE00" stroke-linecap="round" stroke-linejoin="round"/>
<path d="M31.8312 3.30762C31.7952 6.0869 31.6527 8.86044 31.6527 11.6413C31.6527 11.9527 31.6004 12.3275 31.7241 12.6213C31.7819 12.7585 31.8309 12.8928 31.8748 13.0359C32.0975 13.761 32.1524 14.5725 32.1524 15.3319C32.1524 15.6607 32.1524 16.6472 32.1524 16.3184" stroke="#0ACE00" stroke-linecap="round" stroke-linejoin="round"/>
<path d="M30.6203 12.5385C31.2314 12.4923 31.8254 12.1999 32.3992 12.0159C33.4736 11.6713 34.5743 11.3445 35.7045 11.2151C36.1955 11.1588 36.725 11.0049 37.2189 11.0049C37.443 11.0049 37.6716 10.9921 37.895 11.0078C38.0533 11.0189 38.4585 11.2061 38.1924 11.0049" stroke="#0ACE00" stroke-linecap="round" stroke-linejoin="round"/>
<path d="M35.2165 7.92285C35.3861 8.40786 35.7232 8.87245 36.0646 9.3126C36.3421 9.67036 36.7627 10.0928 36.8003 10.507C36.8568 11.1313 36.6939 11.7664 36.6939 12.3933C36.6939 12.7882 36.6345 13.1733 36.8337 13.549C37.0171 13.8949 37.2444 14.2294 37.4052 14.5806C37.4656 14.7126 37.519 14.8149 37.6241 14.9266C37.7562 15.0671 37.8961 15.2093 38.0071 15.3579C38.0363 15.3971 38.2807 15.724 38.2807 15.5777" stroke="#0ACE00" stroke-linecap="round" stroke-linejoin="round"/>
<path d="M40.3235 12.0306C40.3235 10.1902 40.4013 8.36712 40.7605 6.54385C40.864 6.01833 40.9062 5.47792 40.9761 4.94372C41.0051 4.72223 41.0173 4.45412 40.9846 4.2316C40.9725 4.14949 40.955 4.0718 40.8342 4.07717C40.7214 4.08219 40.7841 4.50589 40.786 4.55549C40.8165 5.363 41.2125 6.16193 41.4981 6.93209C41.9225 8.07624 42.3395 9.22471 42.8146 10.3576C43.1256 11.0992 43.3877 11.8372 43.3877 12.6226C43.3877 12.8319 43.4517 13.061 43.5523 13.2575C43.6402 13.4293 43.681 13.9947 43.8984 14.0769" stroke="#0ACE00" stroke-linecap="round" stroke-linejoin="round"/>
<path d="M39.3021 8.69871C40.1655 8.69871 41.0367 8.65864 41.8966 8.77639C42.649 8.87943 43.4107 9.07159 44.1545 9.25658C44.3964 9.31676 44.7069 9.3229 44.9198 9.46137" stroke="#0ACE00" stroke-linecap="round" stroke-linejoin="round"/>
<path d="M58.7085 4.0769C58.7085 5.28636 58.9212 6.45397 59.1814 7.64899C59.7756 10.379 60.4124 13.1018 60.953 15.8383C61.1652 16.9121 61.2379 18.0481 61.5961 19.1038C61.6402 19.2338 61.6958 19.3483 61.7727 19.4615" stroke="#0ACE00" stroke-linecap="round" stroke-linejoin="round"/>
<path d="M56.6657 4.84619C58.6687 4.86435 60.3171 5.33999 62.171 5.82403C63.2501 6.10581 64.3564 6.36188 65.3293 6.81093C66.4348 7.32116 66.9422 8.13441 67.4515 8.98392C67.6698 9.34801 68.0747 9.6538 68.2941 10.0251C68.5953 10.5348 68.7044 11.0667 68.8247 11.6096C69.083 12.7753 68.9067 13.771 67.3391 14.3394C66.4615 14.6577 65.3208 15.232 64.7051 15.8062C64.5634 15.9383 64.5462 16.1112 64.5303 16.2725C64.4849 16.7344 63.8119 17.2327 63.4131 17.5582C62.9291 17.953 62.3915 18.0831 61.7465 18.3368C61.2286 18.5405 60.6597 18.7562 60.0987 18.9027C59.6608 19.017 59.3168 19.2025 58.9127 19.3328C58.6633 19.4132 58.538 19.5675 58.4633 19.3509" stroke="#0ACE00" stroke-linecap="round" stroke-linejoin="round"/>
<path d="M69.4331 16.1338C70.1785 14.3564 71.5177 12.8092 71.8818 10.9416C71.9301 10.6937 71.9135 10.1831 72.1292 9.9783C72.1976 9.91331 72.5377 9.46143 72.6053 9.46143C72.7119 9.46143 72.6642 10.469 72.6857 10.5704C72.7871 11.0481 73.183 11.4065 73.5514 11.7827C73.9594 12.1992 74.2324 12.6797 74.6583 13.0842C75.0509 13.4572 75.2985 13.9447 75.5549 14.3764C76.2188 15.4945 76.9541 16.6094 77.7192 17.6891C77.9139 17.964 78.1149 18.0479 78.1149 17.6562" stroke="#0ACE00" stroke-linecap="round" stroke-linejoin="round"/>
<path d="M70.4545 14.8461C72.4396 14.7476 74.4201 14.2858 76.4064 14.2858C76.6561 14.2858 77.4748 13.5478 77.6042 14.8461" stroke="#0ACE00" stroke-linecap="round" stroke-linejoin="round"/>
<path d="M79.647 6.38452C79.6823 8.90476 80.7575 11.3421 81.4168 13.8104C81.645 14.6646 81.7999 15.5609 82.2004 16.3845" stroke="#0ACE00" stroke-linecap="round" stroke-linejoin="round"/>
<path d="M79.647 7.15381C84.7513 9.96819 85.7823 15.0592 88.6068 19.0614C89.0393 19.6742 89.4885 20.4016 90.1456 20.8976C90.2758 20.9959 90.3632 21.0754 90.3689 20.8789C90.386 20.3006 90.3158 19.7228 90.2821 19.1457C90.1857 17.4969 90.0529 15.9501 89.2521 14.4052C88.9038 13.7333 88.6149 12.9964 88.3834 12.2972C88.2893 12.013 88.2518 11.9901 88.1104 11.6227C87.9936 11.3193 87.8421 10.2473 87.4651 10.1049" stroke="#0ACE00" stroke-linecap="round" stroke-linejoin="round"/>
<path d="M94.5097 11.7693C94.5097 13.3696 94.2681 15.0703 94.887 16.6156C95.2522 17.5275 95.4443 18.6118 95.9953 19.4616" stroke="#0ACE00" stroke-linecap="round" stroke-linejoin="round"/>
<path d="M97.5213 8.69214C97.5708 10.568 98.0692 12.4081 98.4182 14.2613C98.5001 14.6963 98.6121 15.135 98.6121 15.5756C98.6121 15.6378 98.5816 15.7564 98.6363 15.8117C99.2359 16.4178 99.7955 17.1831 100.679 17.6295C101.348 17.9677 101.902 17.9312 102.745 17.9102C104.47 17.8672 106.04 17.273 107.769 17.273C108.123 17.273 108.661 17.3926 108.757 17.1127" stroke="#0ACE00" stroke-linecap="round" stroke-linejoin="round"/>
<path d="M108.476 13.3286C108.506 14.7988 109.104 16.4206 110.533 17.5465C111.129 18.0162 111.982 17.9159 112.833 17.9108C113.705 17.9056 115.396 17.9826 115.396 17.1603C115.396 16.1948 114.876 15.12 114.012 14.3557C113.252 13.6833 112.165 13.6876 111.18 13.3154C110.737 13.1481 110.02 12.5386 109.514 12.5386C108.693 12.5386 108.461 12.9662 108.246 13.4076" stroke="#0ACE00" stroke-linecap="round" stroke-linejoin="round"/>
<path d="M118.971 12.6416C119.408 14.1177 120.418 15.4349 121.279 16.796C121.513 17.1659 121.698 17.5899 121.999 17.9229C122.004 17.9283 122.247 17.5039 122.265 17.4549C122.432 17.0002 122.635 16.5569 122.699 16.0845C122.803 15.3235 122.643 14.5598 122.797 13.7972C122.899 13.291 122.823 12.7367 122.823 12.231C122.823 11.3001 123.056 10.3829 123.056 9.46143" stroke="#0ACE00" stroke-linecap="round" stroke-linejoin="round"/>
</svg>
