<svg width="9" height="29" viewBox="0 0 9 29" fill="none" xmlns="http://www.w3.org/2000/svg">
<path d="M6.07053 15.1045C6.10308 15.1396 6.11935 15.1629 6.11935 15.1746C6.1302 15.1863 6.13562 15.2038 6.13562 15.2272C6.13562 15.2622 6.12477 15.2798 6.10308 15.2798H6.07053V15.4199V15.5426C6.11392 15.5776 6.13562 15.6361 6.13562 15.7178C6.16817 15.7529 6.16817 15.7879 6.13562 15.823C6.13562 15.9047 6.1519 15.9573 6.18445 15.9807C6.18445 16.004 6.1736 16.0216 6.1519 16.0332C6.14105 16.0449 6.13562 16.0741 6.13562 16.1208H6.07053C6.10308 16.1325 6.1302 16.1617 6.1519 16.2085C6.1736 16.2552 6.18445 16.2902 6.18445 16.3136C6.16275 16.337 6.15732 16.3662 6.16817 16.4012C6.17902 16.4363 6.18445 16.4771 6.18445 16.5239H6.217C6.2387 16.5239 6.24955 16.5414 6.24955 16.5764C6.2604 16.6348 6.26582 16.6933 6.26582 16.7517C6.30922 16.775 6.33092 16.8101 6.33092 16.8568C6.34177 16.9152 6.35805 16.9736 6.37975 17.032C6.3255 17.0087 6.28752 16.9678 6.26582 16.9094C6.24412 16.8626 6.217 16.8101 6.18445 16.7517H6.07053C6.07053 16.7166 6.05968 16.6874 6.03798 16.664C6.02713 16.6524 6.00543 16.6232 5.97288 16.5764V16.5239V16.5063C5.97288 16.4947 5.96745 16.483 5.9566 16.4713C5.94575 16.4713 5.9349 16.4596 5.92405 16.4363C5.9132 16.4246 5.90778 16.4129 5.90778 16.4012C5.90778 16.3545 5.9132 16.3253 5.92405 16.3136C5.92405 16.3019 5.92948 16.2902 5.94033 16.2785C5.96203 16.2552 5.97288 16.2318 5.97288 16.2085V16.2435C5.97288 16.2552 5.9566 16.261 5.92405 16.261C5.92405 16.2377 5.91863 16.2085 5.90778 16.1734C5.90778 16.1384 5.88608 16.1267 5.84268 16.1384C5.84268 16.1267 5.8264 16.115 5.79385 16.1033C5.77215 16.1033 5.7613 16.08 5.7613 16.0332C5.8047 16.0099 5.8264 15.9923 5.8264 15.9807C5.83725 15.9807 5.85353 15.969 5.87523 15.9456H5.84268C5.86438 15.8872 5.86438 15.8463 5.84268 15.823C5.83183 15.8113 5.8047 15.7938 5.7613 15.7704H5.74503C5.74503 15.747 5.73418 15.7295 5.71248 15.7178C5.69078 15.7061 5.67993 15.6886 5.67993 15.6653V15.49C5.67993 15.4433 5.66908 15.4024 5.64738 15.3674C5.63653 15.3323 5.6311 15.3031 5.6311 15.2798C5.57685 15.3031 5.53345 15.309 5.5009 15.2973C5.46836 15.2856 5.43581 15.2798 5.40326 15.2798C5.39241 15.2564 5.37071 15.233 5.33816 15.2097C5.30561 15.198 5.27848 15.1629 5.25678 15.1045C5.23508 15.0812 5.21881 15.0461 5.20796 14.9994C5.20796 14.9527 5.19711 14.9059 5.17541 14.8592V14.7716C5.08861 14.7249 5.06691 14.6781 5.11031 14.6314V14.5964C5.11031 14.573 5.09403 14.5613 5.06148 14.5613V14.5438C5.06148 14.5438 5.04521 14.5263 5.01266 14.4912L5.06148 14.4387C5.02893 14.4387 4.99638 14.4153 4.96383 14.3686C5.00723 14.3219 5.00723 14.2693 4.96383 14.2109C4.94213 14.1875 4.92586 14.1758 4.91501 14.1758C4.91501 14.1758 4.90958 14.17 4.89873 14.1583C4.88788 14.1583 4.88246 14.1525 4.88246 14.1408C4.83906 14.1408 4.81194 14.1349 4.80109 14.1233C4.79024 14.1116 4.77396 14.1057 4.75226 14.1057V13.9831C4.73056 13.9831 4.71429 13.9772 4.70344 13.9656C4.70344 13.9539 4.69259 13.948 4.67089 13.948C4.62749 13.913 4.60579 13.8546 4.60579 13.7728C4.60579 13.656 4.59494 13.5859 4.57324 13.5625C4.57324 13.5275 4.56239 13.4983 4.54069 13.4749C4.51899 13.4516 4.50271 13.4282 4.49186 13.4048C4.49186 13.4165 4.48644 13.4224 4.47559 13.4224C4.46474 13.434 4.44304 13.4399 4.41049 13.4399C4.41049 13.4165 4.41049 13.399 4.41049 13.3873C4.42134 13.3873 4.44846 13.3756 4.49186 13.3523H4.39421V13.2822C4.38336 13.2822 4.37251 13.2763 4.36166 13.2647C4.33996 13.2413 4.31284 13.2296 4.28029 13.2296V13.1069V13.0018H4.23147C4.23147 12.8499 4.19349 12.7448 4.11754 12.6864C4.08499 12.6514 4.06872 12.6105 4.06872 12.5637C4.09042 12.5404 4.09042 12.5053 4.06872 12.4586C4.05787 12.4352 4.04159 12.4177 4.01989 12.406C3.99819 12.406 3.98734 12.3944 3.98734 12.371V12.336C3.93309 12.3243 3.90054 12.2892 3.88969 12.2308C3.81374 12.2308 3.77577 12.2016 3.77577 12.1432H3.72694C3.67269 12.1432 3.6293 12.1198 3.59675 12.0731C3.5642 12.0264 3.53707 11.9913 3.51537 11.968V11.8628H3.48282C3.50452 11.8044 3.50452 11.7694 3.48282 11.7577C3.47197 11.7343 3.44485 11.711 3.40145 11.6876C3.37975 11.6526 3.35805 11.6292 3.33635 11.6175C3.3255 11.5942 3.32007 11.565 3.32007 11.5299C3.32007 11.5065 3.30922 11.489 3.28752 11.4773C3.26582 11.4657 3.24412 11.4481 3.22242 11.4248V11.3021C3.17902 11.2904 3.14105 11.2729 3.1085 11.2495V11.2671C3.1085 11.2788 3.09222 11.2846 3.05967 11.2846V11.1795C3.04882 11.1795 3.03798 11.1678 3.02713 11.1444C3.01628 11.121 3.00543 11.1035 2.99458 11.0918C2.98373 11.0685 2.96745 11.0393 2.94575 11.0042H3.01085C2.9783 10.9809 2.95118 10.9633 2.92948 10.9517C2.90778 10.94 2.88608 10.9225 2.86438 10.8991V10.864C2.86438 10.8056 2.8481 10.7764 2.81555 10.7764C2.83725 10.7531 2.83725 10.7355 2.81555 10.7239C2.8047 10.7005 2.783 10.6888 2.75045 10.6888H2.6528C2.6528 10.5837 2.63653 10.5078 2.60398 10.461C2.58228 10.461 2.57143 10.4435 2.57143 10.4085C2.57143 10.3734 2.58228 10.3559 2.60398 10.3559C2.60398 10.2975 2.57143 10.2449 2.50633 10.1982C2.53888 10.1982 2.55515 10.1631 2.55515 10.0931H2.39241C2.41411 10.058 2.41953 10.0171 2.40868 9.97039C2.39783 9.92366 2.39241 9.88862 2.39241 9.86526L2.44123 9.81269C2.40868 9.81269 2.39241 9.80101 2.39241 9.77764C2.37071 9.77764 2.35443 9.77764 2.34358 9.77764C2.34358 9.76596 2.33273 9.73676 2.31103 9.69003V9.53233C2.27848 9.50896 2.25136 9.47392 2.22966 9.42719C2.21881 9.38046 2.21338 9.33958 2.21338 9.30453L2.14828 9.26949C2.11573 9.22276 2.08318 9.18187 2.05063 9.14683V9.11178L2.01808 9.07674C1.99638 9.05337 1.98553 9.02417 1.98553 8.98912L1.93671 8.93656C1.88246 8.87815 1.85533 8.81974 1.85533 8.76133H1.80651C1.78481 8.76133 1.77396 8.74965 1.77396 8.72628C1.76311 8.7146 1.75769 8.70292 1.75769 8.69124C1.75769 8.66787 1.76311 8.65619 1.77396 8.65619C1.77396 8.63283 1.77939 8.62115 1.79024 8.62115C1.80109 8.60947 1.83363 8.60363 1.88788 8.60363C1.86618 8.5569 1.83906 8.51017 1.80651 8.46344C1.78481 8.40503 1.76311 8.34663 1.74141 8.28822H1.69259C1.69259 8.24149 1.68174 8.2006 1.66004 8.16556C1.64919 8.11883 1.64376 8.0721 1.64376 8.02538C1.64376 8.00201 1.63834 7.96697 1.62749 7.92024C1.62749 7.87351 1.60036 7.83847 1.54611 7.81511L1.51356 7.78006C1.49186 7.7567 1.48101 7.72749 1.48101 7.69245H1.54611C1.56781 7.66908 1.58409 7.64572 1.59494 7.62236C1.61664 7.58731 1.61121 7.54058 1.57866 7.48217V7.44713C1.57866 7.4004 1.56781 7.35368 1.54611 7.30695C1.54611 7.28358 1.55154 7.26022 1.56239 7.23686C1.57324 7.20181 1.56781 7.17261 1.54611 7.14924C1.54611 7.09084 1.55696 7.06163 1.57866 7.06163C1.61121 7.02659 1.63291 6.99738 1.64376 6.97402C1.65461 6.93897 1.68716 6.90977 1.74141 6.8864V6.83384V6.60604C1.74141 6.58268 1.73599 6.571 1.72514 6.571C1.71429 6.55931 1.71971 6.54179 1.74141 6.51843C1.73056 6.53011 1.71971 6.53011 1.70886 6.51843C1.69801 6.51843 1.69259 6.49507 1.69259 6.44834V6.39577C1.69259 6.32568 1.67631 6.29063 1.64376 6.29063C1.61121 6.25559 1.58951 6.22638 1.57866 6.20302C1.57866 6.16798 1.57866 6.12125 1.57866 6.06284C1.58951 6.06284 1.59494 6.057 1.59494 6.04532C1.59494 6.02195 1.57866 5.99859 1.54611 5.97523V5.90514C1.54611 5.88177 1.54069 5.84673 1.52984 5.8C1.52984 5.74159 1.51356 5.7007 1.48101 5.67734V5.57221C1.48101 5.58389 1.47559 5.58389 1.46474 5.57221C1.45389 5.57221 1.43761 5.54884 1.41591 5.50211C1.41591 5.49043 1.41049 5.47291 1.39964 5.44955C1.38879 5.4145 1.35624 5.39698 1.30199 5.39698C1.29114 5.42034 1.28029 5.43786 1.26944 5.44955C1.24774 5.47291 1.22604 5.48459 1.20434 5.48459V5.36193C1.22604 5.33857 1.23146 5.31521 1.22062 5.29184C1.22062 5.2568 1.23146 5.22175 1.25316 5.18671C1.32911 5.18671 1.36709 5.16918 1.36709 5.13414C1.39964 5.09909 1.41591 5.06405 1.41591 5.029C1.39421 4.93555 1.38879 4.86546 1.39964 4.81873C1.42134 4.76032 1.44304 4.69023 1.46474 4.60846H1.41591C1.38336 4.60846 1.36709 4.57925 1.36709 4.52085C1.36709 4.4858 1.35624 4.4566 1.33454 4.43323C1.32369 4.42155 1.31284 4.41571 1.30199 4.41571C1.24774 4.38066 1.21519 4.33978 1.20434 4.29305C1.20434 4.24632 1.20434 4.21128 1.20434 4.18792C1.17179 4.18792 1.15552 4.17623 1.15552 4.15287V4.11782V4.03021C1.17722 4.00685 1.19892 3.97764 1.22062 3.9426C1.25316 3.90755 1.28029 3.89003 1.30199 3.89003C1.30199 3.8433 1.29656 3.80826 1.28571 3.78489C1.27486 3.74985 1.28029 3.72064 1.30199 3.69728C1.28029 3.6856 1.26944 3.67392 1.26944 3.66224C1.28029 3.63887 1.28571 3.62135 1.28571 3.60967C1.28571 3.59799 1.29114 3.5863 1.30199 3.57462C1.26944 3.52789 1.23689 3.49869 1.20434 3.48701C1.22604 3.48701 1.24231 3.47533 1.25316 3.45196C1.26401 3.41692 1.28029 3.3994 1.30199 3.3994C1.28029 3.37603 1.28571 3.35267 1.31826 3.3293C1.35081 3.30594 1.36709 3.28258 1.36709 3.25921C1.25859 3.20081 1.18807 3.1424 1.15552 3.08399L1.09042 3.03142C1.09042 2.99637 1.07414 2.97885 1.04159 2.97885C1.00904 2.96717 0.981917 2.95549 0.960217 2.94381C0.916818 2.94381 0.895118 2.9146 0.895118 2.85619C0.840868 2.90292 0.808318 2.90876 0.797468 2.87372C0.786618 2.83867 0.770344 2.82115 0.748644 2.82115C0.716094 2.82115 0.683544 2.83283 0.650995 2.85619C0.618445 2.90292 0.59132 2.93212 0.56962 2.94381C0.54792 2.94381 0.526221 2.94381 0.504521 2.94381C0.450271 2.95549 0.417721 2.96133 0.406872 2.96133C0.396022 2.94965 0.379747 2.9146 0.358047 2.85619V2.82115L0.325497 2.7861C0.303797 2.76274 0.292948 2.73938 0.292948 2.71601C0.347197 2.68097 0.368897 2.65176 0.358047 2.6284C0.358047 2.60503 0.358047 2.57583 0.358047 2.54078C0.379747 2.51742 0.385172 2.48822 0.374322 2.45317C0.363472 2.40644 0.358047 2.35972 0.358047 2.31299H0.195298C0.227848 2.28963 0.244123 2.26042 0.244123 2.22538H0.195298V2.20785C0.195298 2.18449 0.211573 2.17281 0.244123 2.17281V1.99758C0.244123 1.92749 0.260398 1.86908 0.292948 1.82236C0.379747 1.75227 0.401447 1.70554 0.358047 1.68218V1.57704C0.412297 1.51863 0.428571 1.46606 0.406872 1.41933C0.396022 1.36093 0.390597 1.30836 0.390597 1.26163C0.368897 1.2149 0.358047 1.17986 0.358047 1.1565C0.358047 1.09809 0.341772 1.05136 0.309222 1.01631C0.287523 0.969587 0.249548 0.899497 0.195298 0.806042C0.249548 0.770997 0.233273 0.718429 0.146474 0.648338C0.113924 0.683384 0.103074 0.712588 0.113924 0.735952C0.135624 0.759315 0.146474 0.782678 0.146474 0.806042C0.0488246 0.806042 0 0.776838 0 0.718429C0.0325497 0.66002 0.0596745 0.613293 0.0813743 0.578248C0.113924 0.53152 0.108499 0.473112 0.0650995 0.403021L0.0813743 0.315408C0.135624 0.233635 0.135624 0.163544 0.0813743 0.105136C0.0813743 0.0817724 0.0759493 0.0700908 0.0650995 0.0700908C0.0650995 0.0584085 0.0705244 0.0350449 0.0813743 0L0.146474 0.0700908C0.146474 0.093454 0.151899 0.122658 0.162749 0.157704C0.184448 0.181067 0.195298 0.204431 0.195298 0.227795L0.244123 0.26284C0.265823 0.286204 0.282098 0.315408 0.292948 0.350453C0.303798 0.385498 0.325497 0.414703 0.358047 0.438066H0.390597C0.390597 0.53152 0.401447 0.59577 0.423146 0.630816C0.455696 0.654179 0.493671 0.683384 0.53707 0.718429L0.56962 0.753474C0.58047 0.765156 0.607595 0.770996 0.650995 0.770996H0.667269C0.688969 0.770996 0.699819 0.782678 0.699819 0.806042C0.754069 0.957905 0.857143 1.03384 1.00904 1.03384V1.19154C1.00904 1.27331 1.03617 1.32588 1.09042 1.34925C1.09042 1.40765 1.12839 1.43686 1.20434 1.43686C1.22604 1.43686 1.25859 1.43686 1.30199 1.43686C1.35624 1.43686 1.39421 1.44854 1.41591 1.4719V1.61208C1.43761 1.69386 1.45389 1.77563 1.46474 1.8574C1.48644 1.92749 1.52441 2.00926 1.57866 2.10272C1.57866 2.18449 1.61664 2.22538 1.69259 2.22538C1.69259 2.23706 1.69801 2.24874 1.70886 2.26042C1.73056 2.28379 1.74141 2.30131 1.74141 2.31299C1.76311 2.35972 1.77396 2.39476 1.77396 2.41813C1.78481 2.44149 1.81194 2.46485 1.85533 2.48822C1.87703 2.51158 1.89873 2.53494 1.92043 2.55831C1.94213 2.58167 1.96383 2.57583 1.98553 2.54078C2.06148 2.54078 2.11573 2.56415 2.14828 2.61088C2.18083 2.66928 2.20796 2.71601 2.22966 2.75106C2.25136 2.77442 2.27848 2.80947 2.31103 2.85619C2.33273 2.85619 2.34358 2.87372 2.34358 2.90876C2.35443 2.93212 2.37071 2.94965 2.39241 2.96133C2.44665 2.96133 2.4792 2.96717 2.49005 2.97885C2.51175 2.97885 2.53345 2.99637 2.55515 3.03142L2.50633 3.08399V3.18912C2.52803 3.16576 2.5443 3.1424 2.55515 3.11903C2.566 3.09567 2.58228 3.08399 2.60398 3.08399C2.62568 3.08399 2.64195 3.09567 2.6528 3.11903C2.66365 3.1424 2.68535 3.15408 2.7179 3.15408C2.66365 3.17744 2.6311 3.19496 2.62025 3.20665C2.6094 3.21833 2.60398 3.25337 2.60398 3.31178H2.6528V3.3994C2.6962 3.3994 2.7179 3.38771 2.7179 3.36435V3.25921H2.75045C2.783 3.28258 2.8047 3.30594 2.81555 3.3293C2.8264 3.35267 2.84268 3.37603 2.86438 3.3994C2.84268 3.44612 2.81555 3.47533 2.783 3.48701C2.7613 3.48701 2.75045 3.49285 2.75045 3.50453C2.81555 3.57462 2.81555 3.63887 2.75045 3.69728C2.75045 3.75569 2.7613 3.80242 2.783 3.83746C2.81555 3.87251 2.85353 3.88419 2.89693 3.87251H3.01085V3.74985C3.07595 3.74985 3.1085 3.76737 3.1085 3.80242C3.1085 3.86083 3.14647 3.89003 3.22242 3.89003C3.17902 3.89003 3.15732 3.91923 3.15732 3.97764H3.18987C3.21157 3.97764 3.22242 3.99517 3.22242 4.03021C3.24412 4.03021 3.26582 4.04189 3.28752 4.06526C3.30922 4.07694 3.32007 4.09446 3.32007 4.11782C3.33092 4.12951 3.33635 4.14119 3.33635 4.15287C3.33635 4.17623 3.33092 4.18792 3.32007 4.18792V4.34562H3.40145V4.52085L3.48282 4.43323C3.50452 4.43323 3.51537 4.43907 3.51537 4.45076C3.52622 4.45076 3.5425 4.47412 3.5642 4.52085C3.5642 4.57925 3.61845 4.60846 3.72694 4.60846C3.75949 4.60846 3.79204 4.59678 3.82459 4.57341C3.86799 4.59678 3.89512 4.60846 3.90597 4.60846C3.90597 4.63182 3.91139 4.66103 3.92224 4.69607C3.93309 4.71944 3.96564 4.7428 4.01989 4.76616V4.94139H4.11754V4.85378H4.23147C4.23147 4.92387 4.21519 4.95891 4.18264 4.95891C4.20434 4.99396 4.22062 5.03484 4.23147 5.08157C4.24232 5.1283 4.25859 5.16334 4.28029 5.18671C4.30199 5.16334 4.32911 5.13998 4.36166 5.11662C4.39421 5.08157 4.41049 5.05237 4.41049 5.029H4.50814H4.57324C4.57324 5.01732 4.56239 4.9998 4.54069 4.97643C4.52984 4.97643 4.51899 4.97059 4.50814 4.95891C4.49729 4.94723 4.49186 4.94139 4.49186 4.94139V4.8713C4.49186 4.85962 4.49729 4.85378 4.50814 4.85378C4.55154 4.85378 4.58409 4.84794 4.60579 4.83625L4.57324 4.76616V4.73112C4.59494 4.73112 4.60579 4.73696 4.60579 4.74864C4.60579 4.74864 4.60579 4.77784 4.60579 4.83625V4.94139V5.08157V5.18671C4.60579 5.24512 4.60036 5.29768 4.58951 5.34441C4.57866 5.37946 4.58409 5.42618 4.60579 5.48459V5.67734C4.63834 5.7007 4.66004 5.72991 4.67089 5.76495C4.68174 5.8 4.69801 5.84673 4.71971 5.90514L4.67089 5.97523V6.06284H4.75226V6.11541C4.73056 6.11541 4.71971 6.12709 4.71971 6.15045V6.1855V6.29063C4.69801 6.29063 4.69259 6.30232 4.70344 6.32568C4.71429 6.34904 4.71971 6.37241 4.71971 6.39577V6.44834C4.76311 6.44834 4.79024 6.4717 4.80109 6.51843C4.81194 6.55347 4.83906 6.58268 4.88246 6.60604V6.65861C4.92586 6.71702 4.94756 6.75206 4.94756 6.76375C4.95841 6.77543 4.96383 6.79879 4.96383 6.83384L5.01266 6.76375C5.03436 6.76375 5.05063 6.78127 5.06148 6.81631C5.07233 6.83968 5.08861 6.86304 5.11031 6.8864C5.09946 6.87472 5.09946 6.86888 5.11031 6.86888H5.12658C5.13743 6.86888 5.14286 6.87472 5.14286 6.8864C5.15371 6.8864 5.16456 6.8864 5.17541 6.8864C5.17541 6.89809 5.18083 6.90393 5.19168 6.90393C5.21338 6.90393 5.22423 6.88056 5.22423 6.83384H5.30561C5.27306 6.86888 5.25678 6.90393 5.25678 6.93897H5.30561C5.34901 6.96234 5.37071 6.99154 5.37071 7.02659C5.38156 7.06163 5.38698 7.09084 5.38698 7.1142V7.20181V7.48217C5.38698 7.51722 5.38698 7.55227 5.38698 7.58731C5.39783 7.61067 5.39783 7.63404 5.38698 7.6574C5.39783 7.68076 5.40326 7.70997 5.40326 7.74501C5.40326 7.76838 5.40326 7.79174 5.40326 7.81511L5.46836 7.86767C5.47921 7.89104 5.49005 7.90856 5.5009 7.92024C5.51175 7.93192 5.51718 7.9436 5.51718 7.95529V7.99033C5.49548 8.0137 5.47921 8.03706 5.46836 8.06042C5.45751 8.08379 5.43581 8.10131 5.40326 8.11299C5.43581 8.15972 5.45751 8.18892 5.46836 8.2006C5.47921 8.2006 5.49548 8.20644 5.51718 8.21813H5.566C5.53345 8.26485 5.55515 8.32326 5.6311 8.39335C5.6311 8.4284 5.62025 8.44592 5.59855 8.44592H5.566H5.74503C5.74503 8.48097 5.73418 8.52185 5.71248 8.56858C5.70163 8.60363 5.71248 8.63283 5.74503 8.65619L5.7613 8.60363C5.7613 8.62699 5.75588 8.64451 5.74503 8.65619C5.74503 8.66787 5.74503 8.69124 5.74503 8.72628C5.75588 8.74965 5.7613 8.77301 5.7613 8.79637C5.77215 8.81974 5.79928 8.83142 5.84268 8.83142C5.86438 8.86646 5.87523 8.90151 5.87523 8.93656C5.89693 8.95992 5.9132 8.98912 5.92405 9.02417C5.9349 9.05921 5.95118 9.08842 5.97288 9.11178C6.00543 9.11178 6.01628 9.11762 6.00543 9.1293C5.99458 9.14099 6.00543 9.14683 6.03798 9.14683C6.05968 9.19355 6.07053 9.22276 6.07053 9.23444V9.26949V9.30453C6.05968 9.31621 6.05968 9.32789 6.07053 9.33958C6.07053 9.36294 6.09223 9.37462 6.13562 9.37462C6.16817 9.40967 6.18445 9.44471 6.18445 9.47976C6.18445 9.50312 6.18445 9.50896 6.18445 9.49728C6.1953 9.4856 6.217 9.47976 6.24955 9.47976V9.5148C6.24955 9.52648 6.24955 9.53817 6.24955 9.54985C6.2604 9.56153 6.26582 9.57905 6.26582 9.60242L6.3472 9.65498C6.3472 9.67835 6.33092 9.69003 6.29837 9.69003H6.26582C6.26582 9.74844 6.29295 9.77764 6.3472 9.77764C6.3689 9.80101 6.37975 9.83021 6.37975 9.86526V9.9003C6.37975 9.92366 6.39602 9.95287 6.42857 9.98792C6.45027 10.0113 6.4774 10.0288 6.50995 10.0405C6.55335 10.0522 6.57505 10.0872 6.57505 10.1456H6.64015C6.66185 10.1456 6.68897 10.1631 6.72152 10.1982C6.75407 10.2216 6.77034 10.2624 6.77034 10.3208C6.84629 10.3559 6.88427 10.3851 6.88427 10.4085C6.88427 10.4435 6.90054 10.461 6.93309 10.461C6.94394 10.461 6.96022 10.4727 6.98192 10.4961C6.98192 10.5078 6.98734 10.5194 6.99819 10.5311C7.05244 10.5545 7.07957 10.5895 7.07957 10.6363C7.09042 10.683 7.09584 10.7297 7.09584 10.7764C7.11754 10.7764 7.13382 10.7823 7.14467 10.794C7.15552 10.794 7.17722 10.8173 7.20977 10.864C7.20977 10.8874 7.21519 10.9108 7.22604 10.9341C7.23689 10.9575 7.24232 10.9809 7.24232 11.0042L7.30742 11.0743C7.30742 11.0977 7.31284 11.1269 7.32369 11.1619C7.34539 11.1853 7.35624 11.2145 7.35624 11.2495C7.34539 11.2612 7.34539 11.2671 7.35624 11.2671C7.35624 11.2788 7.37794 11.2846 7.42134 11.2846C7.43219 11.2846 7.43761 11.3021 7.43761 11.3372C7.44846 11.3722 7.47016 11.4014 7.50271 11.4248C7.50271 11.4481 7.49186 11.4598 7.47016 11.4598C7.44846 11.4481 7.43761 11.454 7.43761 11.4773V11.6175C7.43761 11.6993 7.45931 11.7402 7.50271 11.7402V11.9154V12.0205C7.52441 12.0556 7.54611 12.079 7.56781 12.0906C7.58951 12.1023 7.61121 12.1198 7.63291 12.1432C7.68716 12.1666 7.71971 12.2075 7.73056 12.2659C7.74141 12.3243 7.74684 12.3885 7.74684 12.4586H7.76311V12.4761C7.77396 12.4995 7.77939 12.5112 7.77939 12.5112L7.82821 12.5637C7.87161 12.5637 7.89331 12.6046 7.89331 12.6864H7.82821L7.86076 12.7214C7.87161 12.7331 7.89331 12.739 7.92586 12.739V12.9492C7.93671 12.9726 7.94213 12.9843 7.94213 12.9843V13.0018H7.92586V13.0544C7.91501 13.0777 7.90959 13.0894 7.90959 13.0894V13.1069H7.89331C7.91501 13.1069 7.92586 13.1186 7.92586 13.142V13.177C7.92586 13.2004 7.93128 13.2238 7.94213 13.2471C7.96383 13.2822 7.95841 13.3172 7.92586 13.3523V13.4048C7.96926 13.4282 7.99096 13.4574 7.99096 13.4924C7.99096 13.5625 8.02351 13.5976 8.08861 13.5976C8.05606 13.6443 8.03978 13.6852 8.03978 13.7202L8.08861 13.7728C8.08861 13.7962 8.09403 13.8079 8.10488 13.8079C8.11573 13.8195 8.11031 13.8254 8.08861 13.8254V13.948H7.99096C7.99096 13.9714 7.99096 13.9948 7.99096 14.0181C8.00181 14.0415 7.98011 14.0707 7.92586 14.1057V14.1408C7.95841 14.1758 7.96383 14.205 7.94213 14.2284C7.93128 14.2634 7.91501 14.2926 7.89331 14.316V14.4387C7.91501 14.4737 7.92586 14.5029 7.92586 14.5263C7.92586 14.5496 7.93671 14.5613 7.95841 14.5613C7.99096 14.573 8.01808 14.5964 8.03978 14.6314L8.08861 14.684C8.11031 14.7774 8.11031 14.8475 8.08861 14.8943C8.06691 14.941 8.06691 14.9936 8.08861 15.052L8.03978 14.9994V15.1746H8.08861V15.2272C8.06691 15.2506 8.04521 15.2681 8.02351 15.2798C8.01266 15.3031 7.98011 15.3148 7.92586 15.3148C7.90416 15.3615 7.88789 15.3966 7.87704 15.4199C7.87704 15.4433 7.86076 15.4842 7.82821 15.5426C7.82821 15.566 7.83906 15.5952 7.86076 15.6302C7.88246 15.6653 7.89331 15.6945 7.89331 15.7178C7.89331 15.7529 7.89874 15.7704 7.90959 15.7704H7.92586C7.95841 15.7938 7.97469 15.8113 7.97469 15.823C7.97469 15.8346 7.95841 15.858 7.92586 15.8931V15.9456V15.9631C7.92586 15.9748 7.91501 15.9807 7.89331 15.9807H7.99096C8.01266 16.004 8.02893 16.0391 8.03978 16.0858C8.06148 16.1325 8.06148 16.1734 8.03978 16.2085C8.03978 16.2435 8.04521 16.2669 8.05606 16.2785L8.08861 16.3136C8.08861 16.4187 8.12658 16.4888 8.20253 16.5239C8.15913 16.5472 8.13201 16.5764 8.12116 16.6115C8.11031 16.6582 8.08318 16.6757 8.03978 16.664C8.03978 16.7225 8.00181 16.7517 7.92586 16.7517C7.92586 16.7867 7.93671 16.8042 7.95841 16.8042H7.99096L7.92586 16.8568V16.8918C7.92586 16.9035 7.91501 16.9327 7.89331 16.9795V17.032C7.83906 17.1255 7.83906 17.1956 7.89331 17.2423C7.91501 17.2423 7.92044 17.2481 7.90959 17.2598C7.89874 17.2832 7.90416 17.2949 7.92586 17.2949V17.365V17.4C7.90416 17.435 7.89874 17.4642 7.90959 17.4876C7.92044 17.5227 7.92586 17.5635 7.92586 17.6103C7.93671 17.6336 7.94756 17.6512 7.95841 17.6628C7.98011 17.7096 7.99096 17.7329 7.99096 17.7329H8.03978C8.01808 17.7563 7.99096 17.7855 7.95841 17.8205C7.93671 17.8673 7.92586 17.8965 7.92586 17.9082C7.92586 17.9549 7.93128 17.9782 7.94213 17.9782C7.96383 17.9899 7.95841 18.0075 7.92586 18.0308L7.99096 18.0834C8.01266 18.06 8.02893 18.0542 8.03978 18.0659C8.05063 18.0892 8.06691 18.1126 8.08861 18.1359C8.08861 18.171 8.09403 18.2119 8.10488 18.2586C8.12658 18.3053 8.15913 18.3404 8.20253 18.3637V18.3988C8.20253 18.4222 8.21881 18.4338 8.25136 18.4338C8.25136 18.4455 8.26221 18.4806 8.28391 18.539C8.26221 18.5507 8.25136 18.5565 8.25136 18.5565V18.574C8.27306 18.574 8.28391 18.5857 8.28391 18.6091C8.29476 18.6324 8.31103 18.6558 8.33273 18.6792C8.33273 18.7142 8.32188 18.7434 8.30018 18.7668C8.28933 18.7784 8.28391 18.7901 8.28391 18.8018C8.28391 18.8719 8.30018 18.9069 8.33273 18.9069C8.35443 18.9303 8.35986 18.942 8.34901 18.942C8.34901 18.9537 8.34901 18.9654 8.34901 18.977L8.33273 18.9946C8.36528 18.9946 8.37071 19.0062 8.34901 19.0296C8.33816 19.0647 8.33273 19.0939 8.33273 19.1172C8.36528 19.1172 8.37071 19.1172 8.34901 19.1172C8.33816 19.1289 8.33273 19.1464 8.33273 19.1698H8.36528C8.38698 19.1698 8.39783 19.1873 8.39783 19.2224C8.41953 19.2224 8.43038 19.2048 8.43038 19.1698C8.43038 19.2516 8.45208 19.2924 8.49548 19.2924C8.45208 19.3392 8.42496 19.3625 8.41411 19.3625C8.40326 19.3742 8.39783 19.3742 8.39783 19.3625V19.5728C8.39783 19.5378 8.37613 19.5202 8.33273 19.5202C8.33273 19.5553 8.35443 19.5845 8.39783 19.6079V19.6955C8.36528 19.7071 8.35443 19.713 8.36528 19.713C8.38698 19.7247 8.39783 19.748 8.39783 19.7831C8.41953 19.8415 8.42496 19.8765 8.41411 19.8882C8.41411 19.9116 8.38698 19.9525 8.33273 20.0109C8.37613 20.0109 8.39783 20.0284 8.39783 20.0634V20.116H8.43038C8.40868 20.1277 8.39783 20.1335 8.39783 20.1335V20.1511H8.43038C8.47378 20.1277 8.49548 20.1569 8.49548 20.2387C8.49548 20.2504 8.50091 20.2679 8.51176 20.2912C8.5226 20.3263 8.51718 20.3555 8.49548 20.3789C8.52803 20.4139 8.50633 20.4314 8.43038 20.4314C8.43038 20.4898 8.44666 20.5366 8.47921 20.5716C8.52261 20.6066 8.5443 20.6358 8.5443 20.6592C8.5226 20.6826 8.50633 20.7059 8.49548 20.7293C8.49548 20.7644 8.49548 20.7936 8.49548 20.8169V20.8695C8.50633 20.8929 8.51176 20.9104 8.51176 20.9221C8.51176 20.9571 8.50633 20.9746 8.49548 20.9746C8.49548 20.9863 8.49548 20.9921 8.49548 20.9921C8.50633 20.9921 8.53888 20.9921 8.59313 20.9921C8.53888 21.0856 8.53888 21.1615 8.59313 21.2199V21.4477C8.59313 21.4828 8.58228 21.5061 8.56058 21.5178C8.54973 21.5295 8.5443 21.547 8.5443 21.5704C8.57685 21.6054 8.59313 21.6755 8.59313 21.7807V21.8858C8.59313 21.9676 8.57685 22.026 8.5443 22.061C8.55515 22.0961 8.55515 22.1194 8.5443 22.1311C8.53345 22.1428 8.51718 22.1545 8.49548 22.1662C8.51718 22.2129 8.53345 22.2538 8.5443 22.2888C8.55515 22.3239 8.57143 22.3531 8.59313 22.3764C8.56058 22.4115 8.5443 22.4465 8.5443 22.4816V22.7094C8.5226 22.7911 8.51718 22.8729 8.52803 22.9547C8.54973 23.0365 8.57143 23.1182 8.59313 23.2V23.4103C8.57143 23.4687 8.56601 23.5212 8.57686 23.568C8.58771 23.6264 8.60398 23.6848 8.62568 23.7432C8.67993 23.7432 8.70705 23.7841 8.70705 23.8659V24.0411C8.66365 24.1345 8.63653 24.228 8.62568 24.3215C8.62568 24.4266 8.62568 24.5376 8.62568 24.6544C8.62568 24.7011 8.62568 24.7537 8.62568 24.8121C8.63653 24.8705 8.66365 24.9406 8.70705 25.0224C8.70705 25.0808 8.71248 25.145 8.72333 25.2151C8.74503 25.2969 8.75588 25.3903 8.75588 25.4955C8.77758 25.5539 8.78843 25.659 8.78843 25.8109C8.81013 25.8693 8.8264 25.9102 8.83725 25.9335C8.8481 25.9569 8.8698 25.9978 8.90235 26.0562C8.92405 26.0562 8.9349 26.0971 8.9349 26.1789C8.90235 26.2256 8.90235 26.284 8.9349 26.3541C8.9349 26.3658 8.9349 26.3833 8.9349 26.4066C8.94575 26.4417 8.96745 26.4709 9 26.4943H8.9349V26.5468C8.9132 26.6052 8.90778 26.6636 8.91863 26.7221C8.92948 26.7805 8.9349 26.8389 8.9349 26.8973C8.9132 26.9907 8.90235 27.0842 8.90235 27.1776C8.90235 27.2711 8.90235 27.3587 8.90235 27.4405V27.5106C8.9349 27.6157 8.9349 27.6916 8.90235 27.7384V27.826C8.8698 27.9778 8.8481 28.118 8.83725 28.2465C8.8264 28.375 8.81013 28.5152 8.78843 28.6671C8.78843 28.7722 8.7613 28.8832 8.70705 29C8.66365 28.9416 8.63653 28.8949 8.62568 28.8598C8.62568 28.8248 8.62568 28.778 8.62568 28.7196V28.7021C8.62568 28.6788 8.61483 28.6671 8.59313 28.6671C8.61483 28.632 8.6311 28.5911 8.64195 28.5444C8.6528 28.5094 8.69078 28.4802 8.75588 28.4568C8.75588 28.4101 8.7613 28.375 8.77215 28.3517C8.783 28.34 8.78843 28.3166 8.78843 28.2816C8.81013 28.2232 8.81555 28.1648 8.8047 28.1063C8.79385 28.0596 8.77758 28.007 8.75588 27.9486C8.70163 27.9136 8.70163 27.826 8.75588 27.6858C8.63653 27.6391 8.63653 27.5807 8.75588 27.5106C8.72333 27.4638 8.70705 27.3879 8.70705 27.2828C8.72875 27.2244 8.73418 27.1601 8.72333 27.09C8.71248 27.0199 8.70705 26.9732 8.70705 26.9498C8.72875 26.8914 8.73418 26.8447 8.72333 26.8097C8.72333 26.7746 8.73418 26.7279 8.75588 26.6695C8.75588 26.6344 8.75588 26.6052 8.75588 26.5819C8.76673 26.5585 8.75045 26.5468 8.70705 26.5468C8.70705 26.5235 8.6962 26.5001 8.6745 26.4767C8.6528 26.4534 8.66365 26.4183 8.70705 26.3716C8.70705 26.3599 8.70163 26.3366 8.69078 26.3015C8.69078 26.2781 8.66908 26.2548 8.62568 26.2314V26.1263C8.59313 26.0211 8.59313 25.9511 8.62568 25.916V25.8284C8.60398 25.8167 8.59856 25.7934 8.6094 25.7583C8.62025 25.7349 8.61483 25.7116 8.59313 25.6882C8.56058 25.6765 8.5443 25.6532 8.5443 25.6181V25.5831C8.5443 25.548 8.53888 25.5071 8.52803 25.4604C8.52803 25.4254 8.51718 25.4079 8.49548 25.4079C8.46293 25.3845 8.43581 25.3553 8.41411 25.3202C8.40326 25.2969 8.39783 25.2735 8.39783 25.2502V25.1275L8.33273 25.0924C8.36528 25.0574 8.38698 25.034 8.39783 25.0224C8.41953 25.0107 8.43038 24.9932 8.43038 24.9698C8.40868 24.9347 8.37613 24.9172 8.33273 24.9172L8.34901 24.8997C8.34901 24.8763 8.34358 24.8647 8.33273 24.8647C8.33273 24.8296 8.32188 24.7946 8.30018 24.7595C8.28933 24.7362 8.27306 24.7011 8.25136 24.6544C8.25136 24.6193 8.24593 24.596 8.23508 24.5843C8.22423 24.5843 8.22966 24.5726 8.25136 24.5492C8.27306 24.5142 8.27848 24.4792 8.26763 24.4441C8.25678 24.4207 8.25136 24.3974 8.25136 24.374C8.26221 24.374 8.26763 24.3682 8.26763 24.3565C8.26763 24.3448 8.26221 24.3331 8.25136 24.3215H8.20253C8.20253 24.2747 8.21881 24.2455 8.25136 24.2338V24.0411V23.9184V23.9009C8.25136 23.8775 8.23508 23.8659 8.20253 23.8659C8.22423 23.8425 8.23508 23.8133 8.23508 23.7782C8.24593 23.7549 8.26221 23.7432 8.28391 23.7432C8.21881 23.6965 8.20796 23.6205 8.25136 23.5154H8.21881C8.20796 23.5154 8.20253 23.5096 8.20253 23.4979V23.4103C8.20253 23.3519 8.21881 23.3227 8.25136 23.3227H8.26763V23.3051C8.27848 23.2935 8.28391 23.2818 8.28391 23.2701C8.24051 23.235 8.21881 23.2117 8.21881 23.2C8.21881 23.1883 8.22966 23.1708 8.25136 23.1474C8.18626 23.089 8.14828 23.0423 8.13743 23.0073C8.12658 22.9722 8.11031 22.9255 8.08861 22.8671C8.12116 22.7853 8.12116 22.6977 8.08861 22.6042V22.5517C8.08861 22.5049 8.07233 22.464 8.03978 22.429H8.08861C8.03436 22.3706 7.98553 22.3297 7.94213 22.3063C7.90959 22.2947 7.90416 22.2479 7.92586 22.1662C7.90416 22.1428 7.88789 22.1078 7.87704 22.061C7.87704 22.0143 7.86076 21.9734 7.82821 21.9384C7.87161 21.9033 7.90416 21.8683 7.92586 21.8332C7.91501 21.8332 7.90959 21.8274 7.90959 21.8157C7.90959 21.7923 7.91501 21.7807 7.92586 21.7807V21.7106H7.95841C7.98011 21.7106 7.99096 21.7047 7.99096 21.6931H7.92586C7.92586 21.6113 7.94756 21.5704 7.99096 21.5704V21.4477C7.95841 21.4477 7.93671 21.4361 7.92586 21.4127C7.92586 21.401 7.91501 21.3952 7.89331 21.3952C7.89331 21.3718 7.88246 21.3543 7.86076 21.3426C7.84991 21.3309 7.86076 21.3134 7.89331 21.29C7.86076 21.255 7.84991 21.2316 7.86076 21.2199C7.88246 21.2083 7.90416 21.1907 7.92586 21.1674V21.1148C7.95841 21.0564 7.96383 21.0213 7.94213 21.0097C7.93128 20.998 7.91501 20.9805 7.89331 20.9571L7.82821 20.8169C7.82821 20.7936 7.82821 20.776 7.82821 20.7644C7.83906 20.7644 7.86076 20.741 7.89331 20.6943L7.82821 20.6592C7.82821 20.6242 7.84991 20.5891 7.89331 20.5541C7.84991 20.5541 7.82821 20.5307 7.82821 20.484C7.80651 20.484 7.79024 20.4781 7.77939 20.4665C7.77939 20.4665 7.77939 20.4373 7.77939 20.3789C7.80109 20.3555 7.82279 20.338 7.84449 20.3263C7.86619 20.3146 7.86076 20.2854 7.82821 20.2387C7.80651 20.1919 7.79566 20.1569 7.79566 20.1335C7.80651 20.1102 7.80109 20.0868 7.77939 20.0634H7.82821C7.82821 19.9817 7.81194 19.9408 7.77939 19.9408V19.8882C7.77939 19.8181 7.79566 19.7831 7.82821 19.7831V19.713C7.80651 19.7013 7.79566 19.6779 7.79566 19.6429C7.80651 19.6195 7.80109 19.5962 7.77939 19.5728C7.77939 19.5378 7.76854 19.5027 7.74684 19.4677V19.3976C7.74684 19.3742 7.73056 19.3392 7.69801 19.2924L7.63291 19.2224C7.61121 19.199 7.58951 19.1815 7.56781 19.1698C7.55696 19.1581 7.56239 19.1406 7.58409 19.1172H7.55154C7.54069 19.1172 7.53526 19.1055 7.53526 19.0822C7.53526 19.0354 7.54069 19.0062 7.55154 18.9946C7.57324 18.9946 7.58409 18.9887 7.58409 18.977C7.56239 18.942 7.54611 18.9069 7.53526 18.8719C7.53526 18.8485 7.52441 18.8252 7.50271 18.8018C7.50271 18.7784 7.49186 18.7492 7.47016 18.7142C7.44846 18.6792 7.43219 18.6499 7.42134 18.6266H7.43761C7.43761 18.5915 7.43219 18.574 7.42134 18.574C7.36709 18.574 7.33454 18.5682 7.32369 18.5565C7.32369 18.5448 7.33454 18.5098 7.35624 18.4514L7.30742 18.4338C7.30742 18.3988 7.31284 18.3696 7.32369 18.3462C7.33454 18.3229 7.36709 18.3112 7.42134 18.3112V18.2586C7.42134 18.2352 7.41049 18.2177 7.38879 18.206C7.36709 18.1944 7.35624 18.171 7.35624 18.1359C7.35624 18.1126 7.36709 18.0892 7.38879 18.0659C7.41049 18.0425 7.42134 18.0191 7.42134 17.9958V17.9082C7.43219 17.9082 7.44846 17.9023 7.47016 17.8906C7.49186 17.879 7.50271 17.8556 7.50271 17.8205V17.7855L7.43761 17.7329C7.42676 17.7329 7.42134 17.7271 7.42134 17.7154V17.6979C7.43219 17.6512 7.43219 17.6161 7.42134 17.5927C7.42134 17.5694 7.42134 17.546 7.42134 17.5227C7.42134 17.4526 7.44846 17.4 7.50271 17.365V17.2423C7.50271 17.2189 7.49186 17.1956 7.47016 17.1722C7.44846 17.1488 7.43761 17.1138 7.43761 17.0671V17.032C7.43761 17.0087 7.44846 16.9795 7.47016 16.9444C7.49186 16.9094 7.50271 16.8802 7.50271 16.8568C7.50271 16.8334 7.49186 16.8101 7.47016 16.7867C7.45931 16.7633 7.47016 16.7517 7.50271 16.7517V16.6816H7.53526C7.57866 16.5764 7.54611 16.5239 7.43761 16.5239C7.43761 16.4655 7.45931 16.4363 7.50271 16.4363V16.2085C7.47016 16.1734 7.44304 16.1325 7.42134 16.0858C7.41049 16.0508 7.38879 16.0332 7.35624 16.0332C7.35624 15.9748 7.38336 15.9456 7.43761 15.9456V15.8931H7.50271C7.45931 15.8931 7.43219 15.8755 7.42134 15.8405C7.41049 15.8171 7.38879 15.7938 7.35624 15.7704C7.38879 15.747 7.40506 15.7178 7.40506 15.6828C7.41591 15.6594 7.42676 15.6302 7.43761 15.5952H7.35624C7.35624 15.5718 7.33996 15.5601 7.30742 15.5601C7.27487 15.5718 7.27487 15.566 7.30742 15.5426L7.35624 15.49C7.32369 15.4433 7.30742 15.3849 7.30742 15.3148C7.23147 15.2798 7.20977 15.233 7.24232 15.1746C7.24232 15.1396 7.24774 15.0987 7.25859 15.052C7.26944 15.0169 7.30199 14.9994 7.35624 14.9994H7.42134V14.9468C7.41049 14.9585 7.39964 14.9585 7.38879 14.9468C7.36709 14.9468 7.35624 14.9235 7.35624 14.8767V14.7716C7.38879 14.7482 7.41049 14.7249 7.42134 14.7015C7.44304 14.6781 7.47016 14.6548 7.50271 14.6314V14.5613C7.45931 14.538 7.43219 14.5146 7.42134 14.4912V14.4387C7.41049 14.4504 7.39964 14.4504 7.38879 14.4387C7.36709 14.4387 7.35624 14.4153 7.35624 14.3686H7.42134C7.42134 14.2985 7.39964 14.2634 7.35624 14.2634C7.33454 14.2634 7.32369 14.2518 7.32369 14.2284C7.32369 14.2167 7.33454 14.2109 7.35624 14.2109C7.41049 14.1525 7.41049 14.0765 7.35624 13.9831C7.35624 13.9247 7.33996 13.8721 7.30742 13.8254L7.24232 13.7728C7.27487 13.7728 7.29657 13.7553 7.30742 13.7202C7.31827 13.6852 7.33454 13.6677 7.35624 13.6677V13.5976V13.4924C7.35624 13.4574 7.37794 13.4282 7.42134 13.4048V13.3873C7.43219 13.3756 7.43761 13.3639 7.43761 13.3523C7.42676 13.3289 7.42134 13.2997 7.42134 13.2647V13.2296C7.43219 13.1946 7.45931 13.1537 7.50271 13.1069C7.45931 13.0719 7.43761 13.0193 7.43761 12.9492C7.42676 12.9492 7.42134 12.9376 7.42134 12.9142V12.8792C7.43219 12.8675 7.44846 12.8675 7.47016 12.8792C7.49186 12.8792 7.50271 12.8733 7.50271 12.8616C7.49186 12.8616 7.48101 12.8558 7.47016 12.8441C7.44846 12.8207 7.43761 12.7974 7.43761 12.774C7.43761 12.7273 7.43219 12.6806 7.42134 12.6338C7.41049 12.5754 7.38879 12.5345 7.35624 12.5112C7.32369 12.4761 7.30742 12.4411 7.30742 12.406C7.30742 12.371 7.29657 12.3535 7.27487 12.3535C7.25317 12.3418 7.24232 12.3301 7.24232 12.3184C7.22062 12.3184 7.20977 12.3067 7.20977 12.2834V12.2308C7.15552 12.2075 7.11212 12.1782 7.07957 12.1432C7.04702 12.0965 7.01989 12.0556 6.99819 12.0205V11.968C6.99819 11.9446 6.98734 11.9212 6.96564 11.8979C6.94394 11.8628 6.93309 11.8278 6.93309 11.7927C6.91139 11.7694 6.90597 11.7519 6.91682 11.7402C6.93852 11.7285 6.96564 11.711 6.99819 11.6876H7.04702C6.99277 11.6526 6.96022 11.6234 6.94937 11.6C6.93852 11.5766 6.93309 11.5357 6.93309 11.4773C6.91139 11.454 6.88969 11.4306 6.86799 11.4073C6.84629 11.3722 6.81374 11.3372 6.77034 11.3021C6.72695 11.2788 6.75407 11.2379 6.85172 11.1795C6.83002 11.1678 6.81374 11.1561 6.80289 11.1444C6.79204 11.1327 6.78119 11.1269 6.77034 11.1269H6.73779C6.70525 11.0918 6.68897 11.051 6.68897 11.0042C6.68897 10.9458 6.66727 10.8933 6.62387 10.8465C6.58047 10.7998 6.53165 10.7764 6.4774 10.7764V10.7414C6.4557 10.7531 6.44485 10.7589 6.44485 10.7589H6.42857V10.7764C6.40687 10.7531 6.39602 10.7239 6.39602 10.6888C6.40687 10.6538 6.40145 10.6363 6.37975 10.6363C6.37975 10.5662 6.39602 10.5311 6.42857 10.5311C6.40687 10.5078 6.3906 10.4961 6.37975 10.4961C6.37975 10.4961 6.37432 10.4902 6.36347 10.4785C6.35262 10.4785 6.3472 10.4727 6.3472 10.461C6.3038 10.4377 6.27667 10.4143 6.26582 10.3909C6.26582 10.3676 6.26582 10.3442 6.26582 10.3208C6.25497 10.3208 6.24412 10.3267 6.23327 10.3384C6.23327 10.3501 6.217 10.3559 6.18445 10.3559C6.1085 10.3559 6.07053 10.3033 6.07053 10.1982C6.02713 10.1281 5.9783 10.0931 5.92405 10.0931C5.90235 10.0931 5.8698 10.0989 5.8264 10.1106C5.783 10.1106 5.75588 10.1223 5.74503 10.1456H5.6311H5.46836C5.42496 10.1456 5.39783 10.1631 5.38698 10.1982C5.39783 10.1748 5.41411 10.1456 5.43581 10.1106C5.46836 10.0638 5.51175 10.058 5.566 10.0931V10.023C5.62025 10.023 5.6528 10.0171 5.66365 10.0054C5.68535 9.98207 5.71248 9.95287 5.74503 9.91782V9.86526C5.75588 9.84189 5.77215 9.83021 5.79385 9.83021C5.81555 9.81853 5.8047 9.80101 5.7613 9.77764C5.7613 9.73092 5.75588 9.70755 5.74503 9.70755C5.74503 9.69587 5.74503 9.67835 5.74503 9.65498V9.53233L5.71248 9.49728C5.69078 9.47392 5.67993 9.45055 5.67993 9.42719C5.64738 9.42719 5.6311 9.42135 5.6311 9.40967V9.37462C5.5877 9.3279 5.566 9.30453 5.566 9.30453C5.55515 9.29285 5.55515 9.28117 5.566 9.26949C5.51175 9.23444 5.47921 9.1994 5.46836 9.16435C5.45751 9.1293 5.43581 9.11178 5.40326 9.11178C5.39241 9.11178 5.38698 9.10594 5.38698 9.09426V9.05921H5.40326C5.39241 9.00081 5.38698 8.95408 5.38698 8.91903C5.38698 8.88399 5.38698 8.85478 5.38698 8.83142H5.30561C5.26221 8.79637 5.22966 8.74965 5.20796 8.69124C5.19711 8.63283 5.16456 8.59194 5.11031 8.56858C5.15371 8.53353 5.19168 8.49265 5.22423 8.44592H5.06148C5.01808 8.30574 4.90416 8.22397 4.71971 8.2006C4.69801 8.24733 4.67089 8.25901 4.63834 8.23565C4.61664 8.21229 4.59494 8.1714 4.57324 8.11299C4.52984 8.15972 4.48644 8.17724 4.44304 8.16556C4.41049 8.1422 4.37251 8.15388 4.32911 8.2006V8.11299H4.23147V8.2006C4.14467 8.15388 4.06329 8.1422 3.98734 8.16556C3.92224 8.17724 3.86799 8.15388 3.82459 8.09547L3.77577 8.02538H3.67812C3.67812 8.00201 3.64015 7.99033 3.5642 7.99033C3.5425 7.99033 3.52622 7.97865 3.51537 7.95529C3.51537 7.92024 3.50452 7.89104 3.48282 7.86767C3.46112 7.86767 3.44485 7.86183 3.434 7.85015C3.3906 7.82679 3.3689 7.81511 3.3689 7.81511C3.2387 7.81511 3.1519 7.77422 3.1085 7.69245V7.67492H3.09222C3.07052 7.66324 3.05967 7.6574 3.05967 7.6574C3.02713 7.62236 2.98915 7.58731 2.94575 7.55227C2.90235 7.57563 2.86438 7.56979 2.83183 7.53474C2.81013 7.4997 2.77215 7.47049 2.7179 7.44713C2.68535 7.44713 2.6528 7.43545 2.62025 7.41208C2.59855 7.38872 2.57685 7.37704 2.55515 7.37704C2.5443 7.38872 2.53345 7.38872 2.5226 7.37704C2.51175 7.37704 2.48463 7.35368 2.44123 7.30695C2.41953 7.28358 2.39241 7.26022 2.35986 7.23686C2.33816 7.21349 2.30018 7.20181 2.24593 7.20181V7.14924V7.20181C2.22423 7.20181 2.19168 7.18429 2.14828 7.14924V7.20181H2.21338C2.21338 7.23686 2.21881 7.26022 2.22966 7.2719C2.24051 7.2719 2.24593 7.28358 2.24593 7.30695C2.24593 7.35368 2.25678 7.38872 2.27848 7.41208C2.28933 7.43545 2.30018 7.44713 2.31103 7.44713C2.24593 7.48217 2.21338 7.55227 2.21338 7.6574C2.21338 7.68076 2.21338 7.70997 2.21338 7.74501C2.21338 7.76838 2.22423 7.78006 2.24593 7.78006C2.30018 7.85015 2.30018 7.93192 2.24593 8.02538V8.09547V8.11299H2.21338V8.21813C2.21338 8.22981 2.21881 8.23565 2.22966 8.23565C2.24051 8.24733 2.25136 8.25317 2.26221 8.25317C2.27306 8.25317 2.28933 8.26485 2.31103 8.28822C2.33273 8.28822 2.34358 8.2999 2.34358 8.32326C2.35443 8.34663 2.37071 8.36999 2.39241 8.39335C2.37071 8.39335 2.35443 8.40503 2.34358 8.4284C2.34358 8.44008 2.33273 8.44592 2.31103 8.44592V8.51601C2.31103 8.57442 2.32731 8.62115 2.35986 8.65619C2.38156 8.65619 2.40868 8.67372 2.44123 8.70876C2.47378 8.73212 2.47378 8.77301 2.44123 8.83142C2.44123 8.85478 2.44665 8.88983 2.4575 8.93656C2.4792 8.98328 2.47378 9.02417 2.44123 9.05921C2.43038 9.0709 2.43038 9.08258 2.44123 9.09426C2.44123 9.10594 2.46293 9.11178 2.50633 9.11178C2.57143 9.11178 2.60398 9.12346 2.60398 9.14683C2.63653 9.14683 2.6528 9.16435 2.6528 9.1994C2.64195 9.21108 2.64195 9.22276 2.6528 9.23444C2.6528 9.2578 2.6745 9.26949 2.7179 9.26949H2.75045C2.75045 9.3279 2.7613 9.36294 2.783 9.37462C2.81555 9.3863 2.84268 9.40383 2.86438 9.42719V9.47976C2.85353 9.49144 2.8481 9.52064 2.8481 9.56737C2.8481 9.57905 2.85353 9.59074 2.86438 9.60242C2.86438 9.63746 2.8698 9.65498 2.88065 9.65498H2.89693V9.69003C2.91863 9.69003 2.94033 9.70755 2.96203 9.7426C2.99458 9.76596 3.01085 9.78932 3.01085 9.81269C3.01085 9.84773 3.02713 9.88278 3.05967 9.91782C3.03798 9.91782 3.01085 9.92367 2.9783 9.93535C2.9566 9.93535 2.94575 9.96455 2.94575 10.023H3.05967V10.0931H3.07595C3.09765 10.0931 3.1085 10.1106 3.1085 10.1456V10.3208C3.1302 10.3208 3.13562 10.3325 3.12477 10.3559C3.12477 10.3676 3.13562 10.3851 3.15732 10.4085V10.461H3.25497C3.25497 10.5194 3.26582 10.5545 3.28752 10.5662C3.32007 10.5778 3.35805 10.6012 3.40145 10.6363V10.5662L3.434 10.6012C3.46655 10.6363 3.48282 10.6655 3.48282 10.6888H3.434C3.4123 10.6888 3.40145 10.7063 3.40145 10.7414V10.7764C3.44485 10.8232 3.47197 10.8524 3.48282 10.864C3.50452 10.864 3.51537 10.8757 3.51537 10.8991C3.51537 10.9225 3.5208 10.9517 3.53165 10.9867C3.55335 11.0101 3.5642 11.0393 3.5642 11.0743C3.5642 11.1094 3.60217 11.1269 3.67812 11.1269C3.64557 11.1503 3.6293 11.1853 3.6293 11.232C3.64015 11.2671 3.67269 11.2846 3.72694 11.2846L3.77577 11.3021C3.75407 11.3372 3.74864 11.3605 3.75949 11.3722C3.77034 11.3839 3.77577 11.4014 3.77577 11.4248C3.77577 11.4481 3.77577 11.489 3.77577 11.5474C3.78662 11.5942 3.80289 11.6175 3.82459 11.6175C3.85714 11.6759 3.87884 11.7227 3.88969 11.7577C3.91139 11.7927 3.94394 11.8278 3.98734 11.8628C3.98734 11.8745 3.99277 11.8745 4.00362 11.8628V11.8453C4.00362 11.8336 4.00362 11.8278 4.00362 11.8278C4.01447 11.8161 4.01989 11.8044 4.01989 11.7927C4.04159 11.8512 4.05787 11.8979 4.06872 11.9329C4.07957 11.968 4.09584 11.9972 4.11754 12.0205L4.18264 12.0906C4.24774 12.0906 4.28029 12.1257 4.28029 12.1958C4.28029 12.2191 4.28571 12.2483 4.29656 12.2834C4.30741 12.3067 4.33996 12.3184 4.39421 12.3184C4.40506 12.3301 4.41049 12.3476 4.41049 12.371C4.42134 12.3944 4.44846 12.406 4.49186 12.406V12.4586H4.50814C4.50814 12.5287 4.52984 12.5637 4.57324 12.5637C4.62749 12.5988 4.65461 12.6338 4.65461 12.6689C4.66546 12.6922 4.67089 12.7156 4.67089 12.739C4.67089 12.7623 4.66004 12.7915 4.63834 12.8266C4.62749 12.8499 4.63834 12.8616 4.67089 12.8616C4.68174 12.8733 4.68716 12.8908 4.68716 12.9142C4.68716 12.9259 4.68174 12.9376 4.67089 12.9492C4.73599 12.9726 4.78481 13.0018 4.81736 13.0369C4.84991 13.0719 4.84449 13.1186 4.80109 13.177C4.87704 13.2238 4.90416 13.2822 4.88246 13.3523C4.89331 13.3523 4.89873 13.3581 4.89873 13.3698C4.90958 13.3932 4.93128 13.4048 4.96383 13.4048C4.92043 13.4048 4.89331 13.4165 4.88246 13.4399H4.96383H4.98011C5.00181 13.4399 5.01266 13.4574 5.01266 13.4924C5.04521 13.5509 5.11573 13.6093 5.22423 13.6677V13.7202C5.27848 13.7202 5.30561 13.7378 5.30561 13.7728C5.30561 13.7962 5.30561 13.8254 5.30561 13.8604C5.31646 13.8955 5.34358 13.9247 5.38698 13.948C5.39783 13.9831 5.39783 14.0356 5.38698 14.1057L5.40326 14.1233V14.1408C5.40326 14.2226 5.39783 14.281 5.38698 14.316C5.34358 14.316 5.32188 14.316 5.32188 14.316C5.32188 14.3277 5.34358 14.3452 5.38698 14.3686V14.316C5.39783 14.316 5.42496 14.3335 5.46836 14.3686C5.49005 14.4036 5.50633 14.427 5.51718 14.4387C5.53888 14.4504 5.57685 14.4679 5.6311 14.4912C5.59855 14.5146 5.59313 14.5321 5.61483 14.5438C5.63653 14.5672 5.65823 14.5964 5.67993 14.6314C5.71248 14.6548 5.73418 14.6781 5.74503 14.7015C5.76673 14.7249 5.79928 14.7482 5.84268 14.7716C5.84268 14.8183 5.85353 14.8417 5.87523 14.8417C5.90778 14.8534 5.92405 14.8651 5.92405 14.8767C5.94575 14.9351 5.96745 14.9819 5.98915 15.0169C6.0217 15.052 6.04883 15.0812 6.07053 15.1045H5.97288C6.00543 15.1045 6.0217 15.1104 6.0217 15.1221C6.03255 15.1454 6.04883 15.1396 6.07053 15.1045ZM4.28029 7.37704V7.34199C4.28029 7.31863 4.26402 7.30695 4.23147 7.30695C4.15552 7.30695 4.11754 7.2719 4.11754 7.20181C4.11754 7.10836 4.08499 7.06163 4.01989 7.06163C3.99819 7.06163 3.98734 7.04995 3.98734 7.02659V6.99154C3.98734 6.96818 3.97107 6.94481 3.93852 6.92145C3.91682 6.8864 3.90597 6.8572 3.90597 6.83384H3.82459L3.88969 6.76375C3.83544 6.74038 3.80289 6.72286 3.79204 6.71118C3.78119 6.6995 3.77577 6.66445 3.77577 6.60604V6.571C3.79747 6.59436 3.82459 6.60604 3.85714 6.60604H3.88969H3.90597C3.89512 6.60604 3.88969 6.6002 3.88969 6.58852V6.571H3.77577C3.77577 6.48922 3.75949 6.43082 3.72694 6.39577L3.77577 6.3432C3.74322 6.30816 3.72694 6.26727 3.72694 6.22054C3.72694 6.19718 3.72152 6.16798 3.71067 6.13293C3.71067 6.0862 3.69982 6.06284 3.67812 6.06284V6.02779H3.61302C3.58047 5.99275 3.54792 5.95186 3.51537 5.90514C3.58047 5.83504 3.58047 5.8 3.51537 5.8C3.49367 5.76495 3.46655 5.74743 3.434 5.74743C3.4123 5.74743 3.3906 5.76495 3.3689 5.8C3.3689 5.75327 3.35262 5.71239 3.32007 5.67734C3.32007 5.66566 3.3255 5.65398 3.33635 5.6423C3.35805 5.61893 3.3689 5.59557 3.3689 5.57221H3.32007C3.26582 5.53716 3.22242 5.5138 3.18987 5.50211C3.15732 5.47875 3.1302 5.44371 3.1085 5.39698C3.1085 5.33857 3.09222 5.32689 3.05967 5.36193C3.02713 5.35025 3.01085 5.32689 3.01085 5.29184V5.2568L2.94575 5.18671C2.8915 5.18671 2.8481 5.16918 2.81555 5.13414C2.783 5.11078 2.7613 5.08741 2.75045 5.06405C2.75045 5.04068 2.7396 5.029 2.7179 5.029C2.68535 4.99396 2.6528 4.97059 2.62025 4.95891C2.59855 4.93555 2.57685 4.9005 2.55515 4.85378H2.50633H2.39241C2.39241 4.84209 2.38156 4.83625 2.35986 4.83625C2.34901 4.82457 2.33273 4.80121 2.31103 4.76616C2.31103 4.7428 2.30018 4.73112 2.27848 4.73112C2.25678 4.71944 2.23508 4.69607 2.21338 4.66103L2.14828 4.60846C2.12658 4.60846 2.11031 4.63182 2.09946 4.67855C2.08861 4.71359 2.07233 4.73112 2.05063 4.73112V4.76616C2.00723 4.76616 1.98553 4.77784 1.98553 4.80121C1.97468 4.81289 1.97468 4.82457 1.98553 4.83625C1.96383 4.84794 1.94213 4.85962 1.92043 4.8713C1.90958 4.8713 1.91501 4.89466 1.93671 4.94139V4.95891H1.98553L2.05063 4.94139C2.01808 4.98812 2.01808 5.01732 2.05063 5.029C2.09403 5.04068 2.12658 5.05821 2.14828 5.08157C2.11573 5.11662 2.06148 5.13414 1.98553 5.13414C2.01808 5.1575 2.04521 5.17503 2.06691 5.18671C2.08861 5.19839 2.09946 5.22175 2.09946 5.2568C2.12116 5.28016 2.12658 5.30352 2.11573 5.32689C2.10488 5.35025 2.09946 5.37361 2.09946 5.39698C2.04521 5.39698 2.01266 5.40282 2.00181 5.4145C1.99096 5.42618 1.98553 5.47875 1.98553 5.57221H2.05063C2.08318 5.57221 2.09946 5.58389 2.09946 5.60725V5.62477C2.07776 5.64814 2.06148 5.6715 2.05063 5.69486C2.03978 5.71823 2.01808 5.72991 1.98553 5.72991V5.8C2.01808 5.8 2.03978 5.78832 2.05063 5.76495C2.06148 5.74159 2.07776 5.72991 2.09946 5.72991C2.09946 5.76495 2.11031 5.78832 2.13201 5.8C2.15371 5.81168 2.18083 5.8292 2.21338 5.85257L2.18083 5.88761C2.15913 5.91098 2.14828 5.94018 2.14828 5.97523C2.19168 6.01027 2.21338 6.057 2.21338 6.11541C2.18083 6.11541 2.15371 6.12709 2.13201 6.15045C2.11031 6.17382 2.09946 6.19718 2.09946 6.22054C2.15371 6.29063 2.13743 6.34904 2.05063 6.39577L2.09946 6.44834C2.12116 6.50675 2.14286 6.55931 2.16456 6.60604C2.19711 6.65277 2.22423 6.70534 2.24593 6.76375V6.83384V6.93897V7.06163C2.22423 7.09668 2.21338 7.1434 2.21338 7.20181C2.21338 7.31863 2.26221 7.37704 2.35986 7.37704H2.44123C2.48463 7.37704 2.5226 7.4004 2.55515 7.44713C2.566 7.45881 2.57685 7.46465 2.5877 7.46465C2.59855 7.47633 2.62025 7.48217 2.6528 7.48217C2.66365 7.49386 2.6745 7.4997 2.68535 7.4997C2.70705 7.52306 2.7179 7.54058 2.7179 7.55227C2.7396 7.55227 2.74503 7.56979 2.73418 7.60483C2.72333 7.63988 2.72875 7.6574 2.75045 7.6574V7.55227C2.783 7.57563 2.81555 7.59315 2.8481 7.60483C2.8915 7.61652 2.92405 7.64572 2.94575 7.69245C3 7.73917 3.0434 7.76838 3.07595 7.78006C3.11935 7.78006 3.16817 7.78006 3.22242 7.78006C3.24412 7.78006 3.25497 7.7859 3.25497 7.79758C3.26582 7.80926 3.28752 7.81511 3.32007 7.81511C3.34177 7.79174 3.36347 7.7859 3.38517 7.79758C3.40687 7.80926 3.43942 7.81511 3.48282 7.81511C3.48282 7.85015 3.48825 7.86767 3.4991 7.86767H3.51537C3.60217 7.89104 3.66727 7.92608 3.71067 7.97281C3.76492 8.01954 3.80289 8.06042 3.82459 8.09547C3.86799 8.09547 3.92224 8.13051 3.98734 8.2006V8.09547C4.04159 8.10715 4.12297 8.11299 4.23147 8.11299C4.25317 8.15972 4.26944 8.18892 4.28029 8.2006C4.29114 8.2006 4.30741 8.2006 4.32911 8.2006C4.32911 8.15388 4.33996 8.13051 4.36166 8.13051C4.38336 8.13051 4.39964 8.15388 4.41049 8.2006C4.45389 8.2006 4.49186 8.18892 4.52441 8.16556C4.55696 8.13051 4.57324 8.10715 4.57324 8.09547V7.86767C4.57324 7.80926 4.55154 7.78006 4.50814 7.78006L4.49186 7.69245C4.44846 7.69245 4.41591 7.68661 4.39421 7.67492C4.38336 7.66324 4.36166 7.6574 4.32911 7.6574C4.36166 7.59899 4.37794 7.56395 4.37794 7.55227C4.37794 7.54058 4.36166 7.51722 4.32911 7.48217V7.46465C4.32911 7.45297 4.32369 7.44129 4.31284 7.42961C4.30199 7.41793 4.29114 7.4004 4.28029 7.37704C4.31284 7.37704 4.31284 7.35368 4.28029 7.30695V7.37704ZM3.5642 7.92024V7.99033C3.5642 8.00201 3.56962 8.00201 3.58047 7.99033C3.60217 7.99033 3.61302 7.96697 3.61302 7.92024H3.5642Z" fill="black"/>
</svg>
