<svg width="9" height="17" viewBox="0 0 9 17" fill="none" xmlns="http://www.w3.org/2000/svg">
<path d="M8.96512 10.8084C8.96512 10.8317 8.97674 10.8433 9 10.8433C9 10.8781 8.98256 10.8781 8.94767 10.8433C8.92442 10.8665 8.91861 10.8898 8.93023 10.913C8.94186 10.9246 8.95349 10.9421 8.96512 10.9653C8.94186 10.9421 8.91861 10.9421 8.89535 10.9653C8.88372 10.9769 8.86628 10.9769 8.84302 10.9653V10.9827L8.87791 11.0176C8.86628 11.0292 8.86047 11.0408 8.86047 11.0525H8.87791C8.87791 11.0757 8.87209 11.0815 8.86047 11.0699C8.84884 11.0583 8.83721 11.0641 8.82558 11.0873L8.84302 11.1048C8.81977 11.1396 8.7907 11.1396 8.75581 11.1048C8.76744 11.128 8.77326 11.1454 8.77326 11.1571C8.76163 11.1687 8.74419 11.1919 8.72093 11.2268C8.7093 11.25 8.69186 11.2675 8.66861 11.2791C8.66861 11.2907 8.67442 11.2965 8.68605 11.2965C8.69767 11.2965 8.70349 11.3082 8.70349 11.3314C8.70349 11.3779 8.69186 11.4069 8.66861 11.4186C8.66861 11.4069 8.65698 11.4011 8.63372 11.4011L8.65116 11.4186C8.66279 11.4186 8.67442 11.4244 8.68605 11.436C8.7093 11.4476 8.73256 11.4534 8.75581 11.4534C8.72093 11.465 8.69186 11.4709 8.66861 11.4709V11.5755C8.64535 11.5755 8.62791 11.5871 8.61628 11.6103C8.60465 11.6219 8.59302 11.6336 8.5814 11.6452V11.6626C8.56977 11.6626 8.55814 11.6684 8.54651 11.6801H8.52907V11.6975C8.51744 11.7091 8.51163 11.7324 8.51163 11.7672C8.5 11.7672 8.48837 11.773 8.47675 11.7847C8.46512 11.7847 8.45349 11.7905 8.44186 11.8021C8.43023 11.8137 8.43605 11.8253 8.4593 11.837H8.44186C8.43023 11.837 8.42442 11.8428 8.42442 11.8544H8.40698C8.40698 11.866 8.39535 11.8834 8.37209 11.9067C8.36047 11.9183 8.35465 11.9299 8.35465 11.9415V11.959V11.9764C8.35465 11.9997 8.34884 12.0171 8.33721 12.0287C8.33721 12.0287 8.33721 12.0403 8.33721 12.0636C8.31395 12.0636 8.30233 12.0578 8.30233 12.0461C8.30233 12.0345 8.29651 12.0229 8.28488 12.0113V12.0984C8.28488 12.1333 8.25 12.1624 8.18023 12.1856C8.15698 12.1856 8.13372 12.1972 8.11047 12.2205H8.14535C8.15698 12.2089 8.16279 12.2089 8.16279 12.2205V12.2728H8.18023V12.3076H8.16279V12.3251C8.17442 12.3251 8.17442 12.3425 8.16279 12.3774C8.15116 12.3774 8.14535 12.3599 8.14535 12.3251L8.11047 12.3425C8.08721 12.3425 8.07558 12.3541 8.07558 12.3774V12.4471C8.07558 12.4587 8.07558 12.4645 8.07558 12.4645C8.08721 12.4645 8.09302 12.4703 8.09302 12.482V12.4994V12.5168V12.5691V12.6214V12.6737H8.11047C8.11047 12.6854 8.12209 12.6912 8.14535 12.6912V12.7435C8.12209 12.7435 8.11047 12.7609 8.11047 12.7958V12.8132H8.14535C8.14535 12.8248 8.15116 12.8306 8.16279 12.8306V12.8655V12.8829C8.16279 12.9062 8.15698 12.9178 8.14535 12.9178C8.14535 12.9178 8.14535 12.9294 8.14535 12.9527C8.12209 12.9527 8.11047 12.9585 8.11047 12.9701C8.11047 12.9817 8.10465 12.9933 8.09302 13.005C8.09302 13.0282 8.09884 13.0456 8.11047 13.0573C8.11047 13.1037 8.12209 13.1386 8.14535 13.1619C8.14535 13.1735 8.15116 13.1851 8.16279 13.1967C8.15116 13.1967 8.14535 13.2025 8.14535 13.2142C8.14535 13.2258 8.13372 13.2316 8.11047 13.2316C8.13372 13.2432 8.13953 13.2548 8.12791 13.2665C8.11628 13.2897 8.12209 13.3071 8.14535 13.3187V13.371V13.4931V13.5279V13.5454C8.12209 13.5454 8.11047 13.5338 8.11047 13.5105C8.12209 13.4989 8.11628 13.5047 8.09302 13.5279C8.10465 13.5396 8.11047 13.5628 8.11047 13.5977C8.09884 13.5977 8.08721 13.5919 8.07558 13.5802C8.06395 13.5686 8.04651 13.5628 8.02326 13.5628C8.05814 13.5977 8.0814 13.6151 8.09302 13.6151C8.10465 13.6384 8.10465 13.65 8.09302 13.65C8.0814 13.6616 8.07558 13.6732 8.07558 13.6848H8.02326C8.02326 13.7081 8.02907 13.7197 8.0407 13.7197C8.05233 13.7313 8.04651 13.7429 8.02326 13.7546C8.02326 13.7778 8.02907 13.7952 8.0407 13.8069C8.06395 13.8301 8.07558 13.8475 8.07558 13.8592C8.08721 13.8592 8.09302 13.8592 8.09302 13.8592C8.09302 13.8708 8.09884 13.8766 8.11047 13.8766C8.09884 13.8998 8.09302 13.9521 8.09302 14.0335H8.16279C8.16279 14.0684 8.16861 14.0858 8.18023 14.0858C8.21512 14.0858 8.23256 14.0916 8.23256 14.1032C8.26744 14.1265 8.2907 14.1497 8.30233 14.173C8.32558 14.173 8.33721 14.1846 8.33721 14.2078L8.30233 14.173C8.32558 14.2078 8.33721 14.2485 8.33721 14.295C8.33721 14.3415 8.33721 14.3822 8.33721 14.417H8.28488V14.4345C8.28488 14.4461 8.27907 14.4519 8.26744 14.4519C8.27907 14.4635 8.2907 14.4751 8.30233 14.4868C8.31395 14.51 8.3314 14.5216 8.35465 14.5216C8.34302 14.5216 8.33721 14.5274 8.33721 14.5391C8.31395 14.5623 8.30814 14.5681 8.31977 14.5565C8.3314 14.5449 8.34302 14.5507 8.35465 14.5739C8.34302 14.5855 8.33721 14.5914 8.33721 14.5914C8.34884 14.603 8.34884 14.6204 8.33721 14.6437V14.7134V14.7657V14.8877H8.30233V14.94C8.30233 14.9284 8.29651 14.9168 8.28488 14.9051C8.27326 14.9284 8.27326 14.9516 8.28488 14.9749V15.0272L8.26744 14.9749V15.0272C8.26744 15.062 8.25581 15.0795 8.23256 15.0795C8.19767 15.0911 8.17442 15.1085 8.16279 15.1318C8.15116 15.155 8.13372 15.1783 8.11047 15.2015C8.09884 15.2131 8.09302 15.2364 8.09302 15.2712C8.0814 15.2712 8.05814 15.2654 8.02326 15.2538C8.04651 15.2887 8.05814 15.3061 8.05814 15.3061C8.05814 15.3177 8.02907 15.3293 7.97093 15.341C7.98256 15.341 7.98837 15.3293 7.98837 15.3061V15.2538C8.01163 15.2306 8.02907 15.2073 8.0407 15.1841C8.06395 15.1608 8.0814 15.1434 8.09302 15.1318C8.11628 15.1085 8.12791 15.0911 8.12791 15.0795C8.13953 15.0795 8.15116 15.0737 8.16279 15.062V14.9749C8.17442 14.9633 8.18023 14.9516 8.18023 14.94C8.19186 14.94 8.2093 14.9284 8.23256 14.9051H8.25C8.25 14.9051 8.24419 14.8993 8.23256 14.8877C8.2093 14.8528 8.19767 14.8238 8.19767 14.8005C8.2093 14.7773 8.20349 14.7541 8.18023 14.7308C8.25 14.7076 8.25 14.6959 8.18023 14.6959C8.18023 14.6611 8.19767 14.632 8.23256 14.6088H8.25C8.25 14.6088 8.25581 14.603 8.26744 14.5914C8.27907 14.5914 8.27907 14.5855 8.26744 14.5739C8.26744 14.5739 8.27326 14.5739 8.28488 14.5739C8.27326 14.5507 8.26163 14.5391 8.25 14.5391C8.23837 14.5391 8.23256 14.5332 8.23256 14.5216C8.23256 14.4751 8.2093 14.4519 8.16279 14.4519C8.16279 14.3938 8.18605 14.3589 8.23256 14.3473C8.23256 14.324 8.22093 14.3066 8.19767 14.295C8.18605 14.2834 8.17442 14.2659 8.16279 14.2427C8.17442 14.2427 8.18023 14.2369 8.18023 14.2253V14.173H8.16279C8.15116 14.1265 8.12209 14.1032 8.07558 14.1032C8.05233 14.0916 8.03488 14.08 8.02326 14.0684C8.02326 14.0567 8.01163 14.0509 7.98837 14.0509C7.98837 14.0393 7.98256 14.0277 7.97093 14.0161C7.97093 14.0044 7.97093 13.987 7.97093 13.9638V13.9289C7.97093 13.9173 7.96512 13.9115 7.95349 13.9115V13.8592C7.93023 13.8592 7.90698 13.8592 7.88372 13.8592C7.86047 13.8592 7.84884 13.865 7.84884 13.8766C7.83721 13.8998 7.81395 13.9115 7.77907 13.9115C7.75581 13.9231 7.74419 13.9405 7.74419 13.9638V13.9986H7.72674C7.70349 14.0219 7.69767 14.0335 7.7093 14.0335C7.73256 14.0335 7.74419 14.0393 7.74419 14.0509H7.72674C7.72674 14.0742 7.73256 14.0916 7.74419 14.1032C7.73256 14.1032 7.72674 14.109 7.72674 14.1207C7.68023 14.0974 7.64535 14.0974 7.62209 14.1207C7.61047 14.1323 7.60465 14.1439 7.60465 14.1555V14.2078V14.2253C7.59302 14.2253 7.5814 14.2195 7.56977 14.2078C7.55814 14.2078 7.52907 14.1962 7.48256 14.173C7.47093 14.1962 7.47674 14.2136 7.5 14.2253C7.48837 14.2369 7.47093 14.2427 7.44768 14.2427C7.42442 14.2543 7.41861 14.2717 7.43023 14.295L7.46512 14.3473V14.3647H7.43023C7.41861 14.388 7.41279 14.417 7.41279 14.4519C7.44767 14.4868 7.46512 14.5158 7.46512 14.5391C7.43023 14.5391 7.40116 14.5565 7.37791 14.5914C7.41279 14.5914 7.44186 14.5972 7.46512 14.6088V14.6437H7.5C7.5 14.6785 7.48837 14.6959 7.46512 14.6959C7.47674 14.7076 7.48837 14.7134 7.5 14.7134V14.7831C7.5 14.8064 7.51744 14.818 7.55233 14.818V14.8528C7.57558 14.8761 7.59302 14.8877 7.60465 14.8877C7.61628 14.8993 7.63372 14.9168 7.65698 14.94C7.68023 14.9633 7.70349 14.9749 7.72674 14.9749C7.70349 14.9981 7.69186 15.0156 7.69186 15.0272C7.69186 15.0504 7.7093 15.0504 7.74419 15.0272C7.76744 15.0272 7.77907 15.0388 7.77907 15.062C7.7907 15.0737 7.79651 15.0853 7.79651 15.0969C7.79651 15.0969 7.79651 15.1143 7.79651 15.1492H7.74419V15.2015C7.76744 15.2131 7.77907 15.2247 7.77907 15.2364C7.7907 15.2596 7.80814 15.2829 7.8314 15.3061V15.3235V15.341H7.79651V15.3933H7.81395L7.8314 15.4107H7.84884H7.86628C7.88954 15.4107 7.90116 15.4223 7.90116 15.4456C7.91279 15.4456 7.91861 15.4339 7.91861 15.4107H7.95349V15.4456V15.5153C7.94186 15.5153 7.93605 15.5269 7.93605 15.5502C7.93605 15.5618 7.94186 15.5676 7.95349 15.5676C7.95349 15.5908 7.93605 15.6199 7.90116 15.6548V15.6896C7.90116 15.6896 7.90116 15.7129 7.90116 15.7594L7.91861 15.7768C7.94186 15.8 7.95349 15.8291 7.95349 15.864H7.91861V15.8814C7.91861 15.893 7.93023 15.8988 7.95349 15.8988C7.96512 15.9221 7.97093 15.9511 7.97093 15.986C7.97093 15.9976 7.97093 16.0034 7.97093 16.0034C7.98256 16.0034 7.98837 16.0092 7.98837 16.0209L7.97093 16.0732C7.97093 16.0964 7.97093 16.1022 7.97093 16.0906C7.98256 16.079 8 16.0732 8.02326 16.0732L7.97093 16.1254C7.98256 16.1254 7.98837 16.1254 7.98837 16.1254C7.98837 16.1371 8 16.1429 8.02326 16.1429H7.98837V16.1952H8.02326C8.05814 16.23 8.07558 16.2707 8.07558 16.3172C8.07558 16.3753 8.04651 16.416 7.98837 16.4392C8 16.4392 7.98837 16.4567 7.95349 16.4915C7.95349 16.5264 7.94186 16.5613 7.91861 16.5961C7.94186 16.5961 7.95349 16.6019 7.95349 16.6136C7.96512 16.6252 7.97674 16.6252 7.98837 16.6136C7.98837 16.6252 7.99419 16.631 8.00581 16.631C8.01744 16.631 8.02326 16.6426 8.02326 16.6659C8.05814 16.6775 8.07558 16.6949 8.07558 16.7182L8.09302 16.753C8.10465 16.7879 8.12209 16.8053 8.14535 16.8053C8.11047 16.8402 8.09884 16.8634 8.11047 16.8751C8.11047 16.9099 8.10465 16.9274 8.09302 16.9274C8.09302 16.9506 8.08721 16.9622 8.07558 16.9622V16.9971C8.07558 17.0087 8.04651 16.9855 7.98837 16.9274L8.00581 16.9099C8.02907 16.8867 8.05233 16.8751 8.07558 16.8751V16.8576C8.07558 16.846 8.0814 16.8402 8.09302 16.8402C8.06977 16.8053 8.04651 16.7879 8.02326 16.7879C8 16.7879 7.98256 16.7763 7.97093 16.753H7.95349V16.7182L7.91861 16.6833C7.84884 16.6833 7.84302 16.6659 7.90116 16.631V16.6136C7.87791 16.5555 7.87209 16.5148 7.88372 16.4915C7.89535 16.4683 7.90698 16.4451 7.91861 16.4218C7.95349 16.3753 7.97093 16.3346 7.97093 16.2998C7.97093 16.2649 7.96512 16.2475 7.95349 16.2475C7.95349 16.2126 7.94767 16.1894 7.93605 16.1777C7.92442 16.1777 7.91279 16.1661 7.90116 16.1429V16.108C7.91279 16.0383 7.89535 15.9802 7.84884 15.9337C7.84884 15.9221 7.84302 15.9104 7.8314 15.8988C7.8314 15.8988 7.8314 15.893 7.8314 15.8814V15.864H7.79651C7.78488 15.8058 7.77907 15.7361 7.77907 15.6548C7.77907 15.6083 7.76744 15.585 7.74419 15.585C7.73256 15.5734 7.72674 15.5444 7.72674 15.4979V15.463C7.73837 15.463 7.74419 15.4572 7.74419 15.4456C7.74419 15.4456 7.75581 15.4456 7.77907 15.4456C7.75581 15.4223 7.73837 15.3991 7.72674 15.3758C7.71512 15.3526 7.69768 15.3352 7.67442 15.3235V15.3061V15.2189C7.63954 15.1957 7.63954 15.1666 7.67442 15.1318C7.7093 15.1318 7.72674 15.126 7.72674 15.1143V15.0969C7.69186 15.0853 7.66279 15.0737 7.63954 15.062C7.62791 15.062 7.61047 15.062 7.58721 15.062C7.5407 15.0156 7.5407 14.9807 7.58721 14.9574C7.56395 14.9458 7.53488 14.9284 7.5 14.9051C7.47674 14.8935 7.45349 14.8761 7.43023 14.8528C7.41861 14.8296 7.40698 14.8122 7.39535 14.8005C7.38372 14.7889 7.37791 14.7773 7.37791 14.7657C7.35465 14.7424 7.33721 14.725 7.32558 14.7134C7.31395 14.7134 7.30233 14.7076 7.2907 14.6959V14.6437V14.6262C7.2907 14.6262 7.27907 14.6204 7.25581 14.6088C7.27907 14.5972 7.28488 14.5797 7.27326 14.5565C7.26163 14.5449 7.26744 14.5332 7.2907 14.5216L7.25581 14.4693H7.2907C7.2907 14.4577 7.27907 14.4519 7.25581 14.4519V14.417C7.24419 14.417 7.23256 14.3996 7.22093 14.3647C7.24419 14.3647 7.25581 14.3589 7.25581 14.3473V14.295C7.24419 14.2834 7.23837 14.2659 7.23837 14.2427H7.22093C7.2093 14.2427 7.19767 14.2369 7.18605 14.2253C7.19767 14.2253 7.23256 14.2078 7.2907 14.173C7.26744 14.173 7.25581 14.1672 7.25581 14.1555V14.1207H7.34302C7.3314 14.1323 7.32558 14.1439 7.32558 14.1555C7.31395 14.1672 7.30814 14.1846 7.30814 14.2078C7.35465 14.2078 7.37791 14.1788 7.37791 14.1207H7.41279C7.41279 14.109 7.41279 14.1032 7.41279 14.1032C7.42442 14.1032 7.43023 14.0974 7.43023 14.0858C7.43023 14.0509 7.44768 14.0335 7.48256 14.0335C7.48256 14.0335 7.48837 14.0277 7.5 14.0161V13.9986C7.53488 13.9754 7.56395 13.9638 7.58721 13.9638V13.9115C7.56395 13.9231 7.52907 13.9289 7.48256 13.9289C7.52907 13.894 7.56977 13.8766 7.60465 13.8766C7.59302 13.8766 7.59884 13.865 7.62209 13.8417C7.64535 13.8417 7.66279 13.8301 7.67442 13.8069C7.68605 13.7952 7.70349 13.7778 7.72674 13.7546C7.70349 13.7429 7.69767 13.7313 7.7093 13.7197C7.72093 13.7197 7.72674 13.7081 7.72674 13.6848H7.74419C7.77907 13.6616 7.80814 13.6384 7.8314 13.6151C7.87791 13.6151 7.90116 13.6093 7.90116 13.5977C7.90116 13.5977 7.9186 13.5977 7.95349 13.5977V13.5628H7.97093C7.97093 13.5512 7.95349 13.5454 7.91861 13.5454C7.91861 13.5454 7.92442 13.5396 7.93605 13.5279H7.95349C7.95349 13.4698 7.9593 13.4408 7.97093 13.4408C7.98256 13.4408 7.98837 13.435 7.98837 13.4233C7.98837 13.4233 7.98256 13.4175 7.97093 13.4059C7.9593 13.4059 7.95349 13.3943 7.95349 13.371C7.90698 13.3478 7.90698 13.3071 7.95349 13.249C7.95349 13.2374 7.94186 13.22 7.91861 13.1967C7.90698 13.1967 7.90116 13.1851 7.90116 13.1619V13.127H7.84884C7.88372 13.0805 7.90698 13.0573 7.91861 13.0573C7.90698 13.0456 7.90116 13.034 7.90116 13.0224C7.90116 13.0108 7.88372 12.9991 7.84884 12.9875H7.90116C7.91279 12.9527 7.91279 12.9178 7.90116 12.8829C7.8314 12.8597 7.8314 12.8364 7.90116 12.8132C7.90116 12.7667 7.88372 12.7435 7.84884 12.7435V12.7086V12.6912H7.86628C7.86628 12.6912 7.87791 12.6854 7.90116 12.6737L7.91861 12.6389C7.94186 12.6272 7.94186 12.6156 7.91861 12.604C7.89535 12.5808 7.87209 12.5691 7.84884 12.5691C7.83721 12.5691 7.8314 12.5808 7.8314 12.604V12.6214C7.8314 12.6214 7.8314 12.6272 7.8314 12.6389H7.79651C7.81977 12.6272 7.81977 12.604 7.79651 12.5691V12.5517V12.4994C7.79651 12.4762 7.7907 12.4645 7.77907 12.4645C7.77907 12.4645 7.77907 12.4587 7.77907 12.4471C7.75581 12.4006 7.74419 12.3774 7.74419 12.3774V12.3948H7.77907C7.77907 12.3832 7.78488 12.3774 7.79651 12.3774V12.3425C7.79651 12.3309 7.7907 12.3251 7.77907 12.3251V12.3425H7.74419H7.72674C7.71512 12.3425 7.70349 12.3425 7.69186 12.3425C7.69186 12.3309 7.68605 12.3251 7.67442 12.3251C7.69768 12.3251 7.7093 12.3251 7.7093 12.3251C7.72093 12.3135 7.73256 12.3076 7.74419 12.3076V12.2728C7.74419 12.2263 7.76163 12.203 7.79651 12.203C7.81977 12.1914 7.83721 12.1856 7.84884 12.1856C7.86047 12.1856 7.87791 12.174 7.90116 12.1507C7.90116 12.1391 7.92442 12.1333 7.97093 12.1333V12.0984H7.98837C8.04651 12.0403 8.07558 11.9997 8.07558 11.9764C8.07558 11.9764 8.0814 11.9706 8.09302 11.959V11.8892C8.10465 11.866 8.12209 11.8544 8.14535 11.8544C8.15698 11.8428 8.16279 11.8137 8.16279 11.7672C8.16279 11.7324 8.18605 11.7091 8.23256 11.6975C8.23256 11.6742 8.23837 11.6626 8.25 11.6626C8.27326 11.651 8.28488 11.6394 8.28488 11.6278V11.6452H8.33721V11.6278C8.33721 11.6278 8.34302 11.6161 8.35465 11.5929L8.33721 11.6278C8.31395 11.6161 8.29651 11.5813 8.28488 11.5232V11.4709C8.30814 11.4709 8.32558 11.465 8.33721 11.4534C8.34884 11.4302 8.37209 11.4302 8.40698 11.4534C8.40698 11.4302 8.40116 11.4069 8.38953 11.3837C8.37791 11.3605 8.38372 11.343 8.40698 11.3314L8.42442 11.314C8.42442 11.314 8.43605 11.3023 8.4593 11.2791H8.42442C8.42442 11.2675 8.43023 11.2617 8.44186 11.2617C8.45349 11.2617 8.46512 11.25 8.47675 11.2268C8.47675 11.1803 8.48837 11.1571 8.51163 11.1571C8.51163 11.1222 8.51744 11.1048 8.52907 11.1048C8.52907 11.0931 8.55233 11.0873 8.59884 11.0873C8.58721 11.0641 8.5814 11.0408 8.5814 11.0176H8.59884C8.62209 11.0176 8.63372 11.0118 8.63372 11.0002C8.63372 10.9769 8.62209 10.9653 8.59884 10.9653C8.58721 10.9421 8.5814 10.9188 8.5814 10.8956H8.52907L8.51163 10.8433H8.52907C8.52907 10.82 8.53488 10.8084 8.54651 10.8084C8.55814 10.7968 8.55233 10.7852 8.52907 10.7735H8.5814V10.7387C8.61628 10.7619 8.63954 10.7561 8.65116 10.7212C8.62791 10.698 8.61047 10.6748 8.59884 10.6515C8.58721 10.6283 8.55814 10.6283 8.51163 10.6515V10.6341C8.51163 10.6341 8.51744 10.6283 8.52907 10.6166H8.5814C8.59302 10.605 8.59884 10.5876 8.59884 10.5643V10.5469C8.58721 10.5469 8.5814 10.5469 8.5814 10.5469C8.5814 10.5237 8.5814 10.512 8.5814 10.512C8.59302 10.5004 8.59884 10.4888 8.59884 10.4772C8.59884 10.4539 8.60465 10.4423 8.61628 10.4423C8.62791 10.4423 8.63372 10.4365 8.63372 10.4249V10.4075C8.59884 10.3842 8.5814 10.3493 8.5814 10.3029L8.52907 10.2854C8.56395 10.2854 8.5814 10.2738 8.5814 10.2506C8.54651 10.2389 8.52907 10.2215 8.52907 10.1983H8.47675C8.5 10.1983 8.51163 10.1924 8.51163 10.1808V10.1634C8.51163 10.1053 8.5 10.0704 8.47675 10.0588C8.47675 10.0588 8.4593 10.0355 8.42442 9.98906H8.40698C8.40698 9.96582 8.40698 9.94839 8.40698 9.93676C8.41861 9.92514 8.42442 9.90771 8.42442 9.88446H8.4593C8.4593 9.87284 8.44767 9.86703 8.42442 9.86703C8.42442 9.86703 8.41861 9.87284 8.40698 9.88446V9.86703C8.36047 9.86703 8.32558 9.87284 8.30233 9.88446C8.30233 9.88446 8.30814 9.87865 8.31977 9.86703H8.33721V9.7973H8.30233H8.28488V9.81473H8.23256V9.7973C8.25581 9.77406 8.27326 9.76243 8.28488 9.76243C8.28488 9.75081 8.27907 9.73919 8.26744 9.72757C8.26744 9.71595 8.23837 9.69851 8.18023 9.67527V9.60554H8.16279V9.51837H8.14535C8.12209 9.47189 8.09884 9.44864 8.07558 9.44864C8.09884 9.4254 8.11047 9.40796 8.11047 9.39634V9.37891H8.14535C8.14535 9.37891 8.13372 9.3731 8.11047 9.36148L8.09302 9.32661V9.27431H8.11047C8.13372 9.27431 8.14535 9.29174 8.14535 9.32661L8.16279 9.27431C8.16279 9.27431 8.15698 9.2685 8.14535 9.25688C8.15698 9.25688 8.16279 9.23945 8.16279 9.20458V9.18715C8.16279 9.18715 8.16861 9.17553 8.18023 9.15228C8.16861 9.15228 8.16279 9.14647 8.16279 9.13485C8.16279 9.12323 8.15698 9.11742 8.14535 9.11742C8.14535 9.09417 8.15116 9.08255 8.16279 9.08255C8.17442 9.08255 8.17442 9.07674 8.16279 9.06512H8.11047V9.01282H8.07558C8.0407 9.0012 8.00581 8.99539 7.97093 8.99539V8.94309H7.95349V8.92565C7.95349 8.92565 7.94186 8.91984 7.91861 8.90822V8.89079C7.91861 8.87917 7.89535 8.87335 7.84884 8.87335L7.8314 8.83849V8.82106C7.87791 8.82106 7.90116 8.80362 7.90116 8.76876L7.86628 8.73389L7.84884 8.71646H7.8314H7.84884C7.84884 8.70484 7.86628 8.69903 7.90116 8.69903V8.66416C7.87791 8.66416 7.86047 8.66997 7.84884 8.68159C7.83721 8.69321 7.81977 8.70484 7.79651 8.71646C7.76163 8.68159 7.75581 8.64092 7.77907 8.59443C7.74419 8.59443 7.72674 8.577 7.72674 8.54213H7.65698C7.63372 8.51889 7.61047 8.51307 7.58721 8.5247L7.60465 8.50726C7.60465 8.48402 7.59884 8.4724 7.58721 8.4724C7.58721 8.46078 7.58721 8.44334 7.58721 8.4201C7.58721 8.40848 7.5814 8.40848 7.56977 8.4201C7.55814 8.4201 7.55233 8.41429 7.55233 8.40267C7.55233 8.3678 7.52907 8.35037 7.48256 8.35037H7.43023C7.41861 8.33875 7.40116 8.33293 7.37791 8.33293C7.37791 8.30969 7.37209 8.29807 7.36047 8.29807C7.34884 8.29807 7.3314 8.28645 7.30814 8.2632C7.30814 8.22834 7.2907 8.2109 7.25581 8.2109L7.2907 8.17604C7.25581 8.15279 7.24419 8.12374 7.25581 8.08887V8.07144C7.24419 8.08306 7.23256 8.08887 7.22093 8.08887V8.07144C7.2093 8.08306 7.19186 8.08887 7.1686 8.08887H7.13372C7.13372 8.08887 7.12791 8.08306 7.11628 8.07144C7.11628 8.08306 7.11047 8.08887 7.09884 8.08887C7.07558 8.08887 7.04651 8.07144 7.01163 8.03658V7.98428C6.98837 7.97265 6.97674 7.96103 6.97674 7.94941C6.97674 7.92617 6.96512 7.92617 6.94186 7.94941C6.93023 7.91454 6.92442 7.87968 6.92442 7.84481C6.88954 7.84481 6.86628 7.82738 6.85465 7.79251C6.85465 7.81576 6.82558 7.82738 6.76744 7.82738C6.75581 7.82738 6.74419 7.81576 6.73256 7.79251C6.73256 7.81576 6.72093 7.82738 6.69767 7.82738C6.68605 7.80414 6.68605 7.7867 6.69767 7.77508V7.72278C6.61628 7.69954 6.56977 7.68211 6.55814 7.67048L6.57558 7.65305C6.56395 7.65305 6.54651 7.64143 6.52326 7.61819C6.51163 7.64143 6.49419 7.65886 6.47093 7.67048C6.4593 7.67048 6.44767 7.68211 6.43605 7.70535C6.41279 7.70535 6.40698 7.69954 6.41861 7.68792C6.43023 7.67629 6.43605 7.66467 6.43605 7.65305C6.41279 7.65305 6.38954 7.64724 6.36628 7.63562C6.35465 7.624 6.3314 7.61237 6.29651 7.60075C6.29651 7.60075 6.28488 7.60075 6.26163 7.60075V7.54845C6.25 7.54845 6.24419 7.56008 6.24419 7.58332V7.60075C6.22093 7.60075 6.20349 7.59494 6.19186 7.58332C6.19186 7.56008 6.18605 7.54845 6.17442 7.54845C6.17442 7.53683 6.15698 7.53102 6.12209 7.53102C6.09884 7.53102 6.08721 7.5194 6.08721 7.49615C6.08721 7.49615 6.07558 7.48453 6.05233 7.46129L6.03488 7.44386C6.01163 7.42061 6 7.39737 6 7.37412C5.97674 7.37412 5.95349 7.36831 5.93023 7.35669C5.9186 7.34507 5.90116 7.34507 5.87791 7.35669C5.86628 7.35669 5.86047 7.35088 5.86047 7.33926C5.84884 7.33926 5.84302 7.32764 5.84302 7.30439H5.77326C5.76163 7.30439 5.75581 7.30439 5.75581 7.30439C5.75581 7.29277 5.74419 7.28696 5.72093 7.28696V7.30439H5.65116V7.25209C5.61628 7.27534 5.59884 7.30439 5.59884 7.33926C5.59884 7.3625 5.58721 7.37412 5.56395 7.37412C5.52907 7.37412 5.51163 7.40318 5.51163 7.46129C5.51163 7.46129 5.51744 7.47291 5.52907 7.49615V7.53102C5.52907 7.54264 5.52326 7.55426 5.51163 7.56589C5.51163 7.56589 5.51163 7.57751 5.51163 7.60075C5.51163 7.61237 5.51744 7.624 5.52907 7.63562C5.55233 7.63562 5.55233 7.64724 5.52907 7.67048C5.55233 7.67048 5.56977 7.67629 5.5814 7.68792C5.60465 7.69954 5.63954 7.70535 5.68605 7.70535C5.69767 7.71697 5.69186 7.7344 5.6686 7.75765C5.65698 7.76927 5.65116 7.78089 5.65116 7.79251C5.65116 7.81576 5.65698 7.82738 5.6686 7.82738C5.68023 7.82738 5.68605 7.83319 5.68605 7.84481C5.69767 7.85644 5.70349 7.86225 5.70349 7.86225C5.71512 7.85062 5.73256 7.85062 5.75581 7.86225C5.75581 7.87387 5.75 7.88549 5.73837 7.89711C5.73837 7.89711 5.73837 7.90292 5.73837 7.91454C5.72674 7.92617 5.72093 7.93779 5.72093 7.94941L5.75581 7.96684C5.76744 7.97847 5.7907 7.9959 5.82558 8.01914C5.81395 8.01914 5.80233 8.02495 5.7907 8.03658H5.77326V8.07144C5.79651 8.08306 5.81395 8.1005 5.82558 8.12374C5.83721 8.13536 5.85465 8.14117 5.87791 8.14117V8.07144H5.89535C5.89535 8.08306 5.90116 8.08887 5.91279 8.08887H5.94767V8.12374C5.94767 8.14698 5.94767 8.15861 5.94767 8.15861C5.93605 8.17023 5.94186 8.18185 5.96512 8.19347C5.98837 8.20509 6 8.21672 6 8.22834V8.2632H6.01744C6.0407 8.2632 6.04651 8.26901 6.03488 8.28064C6.02326 8.29226 6.02907 8.29807 6.05233 8.29807L6 8.35037H6.05233H6.08721C6.08721 8.37361 6.0814 8.39104 6.06977 8.40267C6.06977 8.40267 6.06977 8.40848 6.06977 8.4201V8.43753C6.06977 8.44915 6.07558 8.46078 6.08721 8.4724H6.06977C6.0814 8.4724 6.09302 8.47821 6.10465 8.48983C6.12791 8.50145 6.15116 8.50726 6.17442 8.50726C6.15116 8.50726 6.12791 8.51307 6.10465 8.5247C6.09302 8.5247 6.0814 8.5247 6.06977 8.5247C6.0814 8.53632 6.08721 8.55375 6.08721 8.577L6.12209 8.54213C6.15698 8.54213 6.17442 8.55375 6.17442 8.577V8.59443C6.13954 8.58281 6.12209 8.58281 6.12209 8.59443L6.08721 8.64673H6.05233L6.01744 8.66416V8.68159C6.01744 8.69321 6.02907 8.69903 6.05233 8.69903C6.07558 8.73389 6.09884 8.7397 6.12209 8.71646V8.76876C6.08721 8.82687 6.06977 8.85011 6.06977 8.83849C6.05814 8.83849 6.05233 8.83849 6.05233 8.83849C6.05233 8.82687 6.0407 8.82687 6.01744 8.83849H6.03488C6.03488 8.83849 6.0407 8.85011 6.05233 8.87335H6.06977C6.10465 8.87335 6.12209 8.88498 6.12209 8.90822C6.09884 8.93146 6.09302 8.95471 6.10465 8.97795C6.11628 8.98957 6.11047 9.0012 6.08721 9.01282V9.03025C6.08721 9.0535 6.0814 9.07674 6.06977 9.09998C6.06977 9.1116 6.06977 9.12904 6.06977 9.15228V9.20458C6.0814 9.20458 6.08721 9.21039 6.08721 9.22201C6.08721 9.23364 6.09884 9.23945 6.12209 9.23945C6.12209 9.25107 6.11628 9.25688 6.10465 9.25688C6.09302 9.25688 6.08721 9.26269 6.08721 9.27431V9.36148L6.06977 9.37891C6.0814 9.40215 6.09884 9.41378 6.12209 9.41378C6.15698 9.41378 6.18023 9.4254 6.19186 9.44864C6.22674 9.44864 6.24419 9.47189 6.24419 9.51837C6.22093 9.51837 6.2093 9.53 6.2093 9.55324C6.23256 9.55324 6.25 9.55905 6.26163 9.57067C6.25 9.57067 6.24419 9.58229 6.24419 9.60554C6.24419 9.61716 6.25 9.62297 6.26163 9.62297H6.29651C6.31977 9.61135 6.32558 9.60554 6.31395 9.60554C6.30233 9.60554 6.29651 9.59392 6.29651 9.57067C6.3314 9.54743 6.36047 9.55905 6.38372 9.60554C6.38372 9.60554 6.36628 9.62878 6.3314 9.67527C6.35465 9.67527 6.37209 9.68108 6.38372 9.6927C6.39535 9.6927 6.41279 9.6927 6.43605 9.6927C6.48256 9.6927 6.51163 9.70432 6.52326 9.72757C6.55814 9.72757 6.57558 9.73338 6.57558 9.745C6.59884 9.75662 6.60465 9.76243 6.59302 9.76243C6.5814 9.76243 6.57558 9.77406 6.57558 9.7973C6.56395 9.7973 6.55814 9.80311 6.55814 9.81473V9.86703C6.55814 9.87865 6.55814 9.89028 6.55814 9.9019C6.56977 9.91352 6.57558 9.92514 6.57558 9.93676H6.52326C6.53488 9.94839 6.54651 9.9542 6.55814 9.9542H6.57558C6.59884 9.9542 6.61047 9.96001 6.61047 9.97163C6.61047 9.98325 6.61628 9.98906 6.62791 9.98906C6.66279 9.98906 6.68023 10.0123 6.68023 10.0588C6.64535 10.0588 6.62791 10.0646 6.62791 10.0762V10.1111C6.65116 10.1227 6.65698 10.1343 6.64535 10.146C6.64535 10.1576 6.65698 10.175 6.68023 10.1983C6.63372 10.175 6.59302 10.1634 6.55814 10.1634V10.2157C6.55814 10.2273 6.56395 10.2331 6.57558 10.2331C6.57558 10.2447 6.5814 10.2506 6.59302 10.2506H6.61047C6.62209 10.2738 6.61047 10.2854 6.57558 10.2854C6.57558 10.2854 6.56977 10.297 6.55814 10.3203C6.56977 10.3203 6.57558 10.3319 6.57558 10.3552C6.57558 10.3668 6.58721 10.3726 6.61047 10.3726C6.62209 10.4075 6.62209 10.4423 6.61047 10.4772C6.62209 10.4772 6.62791 10.483 6.62791 10.4946C6.63954 10.4946 6.65698 10.4946 6.68023 10.4946C6.70349 10.4946 6.72093 10.5062 6.73256 10.5295C6.74419 10.5411 6.75581 10.5527 6.76744 10.5643C6.75581 10.5643 6.73256 10.5585 6.69767 10.5469C6.72093 10.5585 6.73256 10.576 6.73256 10.5992C6.74419 10.6108 6.73256 10.6283 6.69767 10.6515C6.69767 10.6515 6.69767 10.6573 6.69767 10.6689H6.75C6.75 10.6341 6.75581 10.6166 6.76744 10.6166V10.6689C6.76744 10.6922 6.77326 10.7096 6.78488 10.7212C6.79651 10.7212 6.80233 10.7271 6.80233 10.7387C6.80233 10.7387 6.81395 10.7445 6.83721 10.7561H6.85465V10.7735V10.791L6.80233 10.7735V10.7387C6.80233 10.7735 6.81977 10.7968 6.85465 10.8084C6.85465 10.8317 6.85465 10.8549 6.85465 10.8781C6.86628 10.8898 6.87209 10.9014 6.87209 10.913C6.88372 10.913 6.88372 10.9072 6.87209 10.8956H6.88954C6.88954 10.9072 6.89535 10.9188 6.90698 10.9304C6.9186 10.9304 6.92442 10.9421 6.92442 10.9653V11.0002C6.92442 11.0118 6.93023 11.0176 6.94186 11.0176C6.94186 11.0408 6.94767 11.0525 6.9593 11.0525C6.97093 11.0525 6.97674 11.0641 6.97674 11.0873C7.02326 11.0873 7.04651 11.1048 7.04651 11.1396C7.04651 11.1629 7.05233 11.1745 7.06395 11.1745C7.06395 11.2326 7.07558 11.2617 7.09884 11.2617L7.0814 11.2791C7.06977 11.2791 7.06395 11.2849 7.06395 11.2965C7.06395 11.3198 7.0814 11.3314 7.11628 11.3314C7.11628 11.343 7.12209 11.3488 7.13372 11.3488V11.4011C7.12209 11.4011 7.11047 11.3953 7.09884 11.3837C7.08721 11.3605 7.06977 11.3488 7.04651 11.3488C7 11.4069 7 11.4476 7.04651 11.4709C7.04651 11.4941 7.05233 11.5115 7.06395 11.5232C7.06395 11.5464 7.05814 11.5696 7.04651 11.5929C7.04651 11.6045 7.05233 11.6219 7.06395 11.6452C7.02907 11.6452 7.01163 11.6452 7.01163 11.6452L7.04651 11.6626V11.6975C7.04651 11.6975 7.05814 11.7033 7.0814 11.7149H7.09884C7.07558 11.7847 7.05814 11.8253 7.04651 11.837C7.04651 11.8486 7.03488 11.866 7.01163 11.8892C6.98837 11.9241 6.98837 11.9474 7.01163 11.959C7.03488 11.9706 7.05233 11.988 7.06395 12.0113C7.06395 12.0229 7.05814 12.0287 7.04651 12.0287C7.04651 12.0287 7.04651 12.0403 7.04651 12.0636C7.04651 12.0868 7.04651 12.1043 7.04651 12.1159C7.05814 12.1275 7.06395 12.1391 7.06395 12.1507H7.01163C7.03488 12.174 7.04651 12.1972 7.04651 12.2205C7.04651 12.2786 7.03488 12.3135 7.01163 12.3251H7.06395V12.3425C7.08721 12.3657 7.09884 12.4006 7.09884 12.4471V12.4645H7.06395C7.06395 12.4762 7.05814 12.4878 7.04651 12.4994V12.5343C7.04651 12.5459 7.05233 12.5517 7.06395 12.5517H7.13372V12.5691H7.15116C7.17442 12.5691 7.18605 12.5633 7.18605 12.5517C7.18605 12.5285 7.19186 12.5168 7.20349 12.5168C7.21512 12.5168 7.22093 12.5285 7.22093 12.5517C7.23256 12.5517 7.23837 12.5459 7.23837 12.5343C7.23837 12.5226 7.24419 12.5168 7.25581 12.5168C7.24419 12.5168 7.23837 12.511 7.23837 12.4994C7.27326 12.511 7.29651 12.511 7.30814 12.4994C7.34302 12.4762 7.37209 12.4587 7.39535 12.4471C7.43023 12.4355 7.4593 12.4122 7.48256 12.3774C7.48256 12.3774 7.48837 12.3832 7.5 12.3948C7.47674 12.418 7.45349 12.4413 7.43023 12.4645C7.41861 12.4762 7.40116 12.4936 7.37791 12.5168C7.35465 12.5168 7.33721 12.5226 7.32558 12.5343C7.31395 12.5459 7.30233 12.5517 7.2907 12.5517C7.26744 12.5633 7.24419 12.5808 7.22093 12.604C7.2093 12.6156 7.18023 12.6272 7.13372 12.6389V12.6563C7.13372 12.6679 7.15116 12.6737 7.18605 12.6737C7.12791 12.6737 7.08721 12.6854 7.06395 12.7086C7.06395 12.7086 7.05814 12.7028 7.04651 12.6912V12.7435H7.02907C7.01744 12.7435 7.01163 12.7318 7.01163 12.7086V12.7435C6.98837 12.7435 6.97674 12.7667 6.97674 12.8132C6.97674 12.8364 6.94186 12.8713 6.87209 12.9178C6.87209 12.941 6.86047 12.9527 6.83721 12.9527C6.81395 12.9527 6.7907 12.9527 6.76744 12.9527L6.80233 12.9875V13.005H6.76744C6.77907 13.0282 6.77326 13.0514 6.75 13.0747H6.73256V13.1096C6.73256 13.1212 6.72093 13.1386 6.69767 13.1619C6.73256 13.1619 6.75 13.1735 6.75 13.1967H6.73256V13.2316C6.7093 13.2316 6.69186 13.22 6.68023 13.1967C6.68023 13.22 6.69767 13.2548 6.73256 13.3013V13.3187H6.69767C6.68605 13.3187 6.68023 13.3246 6.68023 13.3362V13.3536C6.65698 13.3652 6.64535 13.3769 6.64535 13.3885C6.64535 13.4001 6.65698 13.4059 6.68023 13.4059V13.4233C6.64535 13.435 6.62209 13.4582 6.61047 13.4931V13.5279C6.58721 13.5279 6.57558 13.5338 6.57558 13.5454C6.56395 13.5454 6.55814 13.5396 6.55814 13.5279C6.53488 13.5279 6.51744 13.5279 6.50581 13.5279C6.49419 13.5396 6.47674 13.5454 6.45349 13.5454V13.5977V13.6151C6.45349 13.6616 6.47093 13.6965 6.50581 13.7197V13.7546C6.51744 13.7546 6.52326 13.7604 6.52326 13.772C6.52326 13.7836 6.53488 13.7778 6.55814 13.7546C6.55814 13.7546 6.56395 13.7662 6.57558 13.7894C6.59884 13.7894 6.61047 13.7952 6.61047 13.8069C6.61047 13.8301 6.61628 13.8417 6.62791 13.8417C6.65116 13.8417 6.67442 13.8534 6.69767 13.8766C6.72093 13.8766 6.73837 13.8824 6.75 13.894C6.76163 13.9057 6.77907 13.9173 6.80233 13.9289C6.83721 13.9521 6.85465 13.9754 6.85465 13.9986C6.86628 14.0219 6.87791 14.0335 6.88954 14.0335V14.1032L6.92442 14.1207C6.92442 14.1904 6.94186 14.2253 6.97674 14.2253L7.01163 14.2427C6.93023 14.2194 6.88372 14.1962 6.87209 14.173C6.87209 14.1381 6.84884 14.1207 6.80233 14.1207C6.80233 14.0974 6.78488 14.0684 6.75 14.0335H6.73256C6.73256 14.0335 6.72093 14.0219 6.69767 13.9986C6.69767 13.9754 6.67442 13.9638 6.62791 13.9638L6.61047 13.9289C6.61047 13.9173 6.59884 13.8998 6.57558 13.8766H6.55814H6.5407H6.52326C6.51163 13.865 6.5 13.8534 6.48837 13.8417C6.48837 13.8301 6.47674 13.8127 6.45349 13.7894C6.44186 13.7894 6.43605 13.7836 6.43605 13.772V13.7546C6.40116 13.7546 6.38372 13.7488 6.38372 13.7371V13.7894L6.36628 13.7546C6.34302 13.7429 6.31977 13.7371 6.29651 13.7371C6.29651 13.7952 6.26163 13.8359 6.19186 13.8592V13.8417L6.2093 13.7894C6.2093 13.7662 6.21512 13.7488 6.22675 13.7371C6.23837 13.7371 6.24419 13.7313 6.24419 13.7197C6.24419 13.7197 6.25 13.7139 6.26163 13.7023V13.6848C6.26163 13.65 6.27326 13.6267 6.29651 13.6151C6.31977 13.6151 6.34302 13.6093 6.36628 13.5977V13.5628H6.38372C6.39535 13.5512 6.41279 13.5396 6.43605 13.5279L6.45349 13.4931C6.45349 13.4466 6.47093 13.4175 6.50581 13.4059C6.50581 13.3827 6.50581 13.371 6.50581 13.371C6.51744 13.371 6.52326 13.3652 6.52326 13.3536V13.3187C6.54651 13.3071 6.55814 13.2897 6.55814 13.2665C6.56977 13.2432 6.58721 13.22 6.61047 13.1967L6.62791 13.1793C6.61628 13.1677 6.61628 13.1502 6.62791 13.127V13.0573C6.62791 13.0573 6.62791 13.0398 6.62791 13.005H6.68023V12.9875C6.68023 12.9759 6.69186 12.9585 6.71512 12.9352L6.73256 12.9178C6.75581 12.8713 6.76744 12.8539 6.76744 12.8655C6.7907 12.8422 6.80814 12.8248 6.81977 12.8132C6.84302 12.79 6.86628 12.7667 6.88954 12.7435C6.88954 12.697 6.88372 12.6621 6.87209 12.6389H6.85465V12.5691C6.85465 12.5691 6.86047 12.5633 6.87209 12.5517C6.87209 12.5401 6.88954 12.5226 6.92442 12.4994C6.90116 12.4762 6.88954 12.4587 6.88954 12.4471C6.90116 12.4471 6.90698 12.4413 6.90698 12.4297C6.90698 12.4064 6.90116 12.3948 6.88954 12.3948V12.3425C6.91279 12.3309 6.92442 12.3076 6.92442 12.2728V12.203V12.1507C6.90116 12.1391 6.88954 12.1101 6.88954 12.0636V12.0461C6.88954 12.0461 6.90116 12.0403 6.92442 12.0287C6.93605 11.9938 6.93605 11.9474 6.92442 11.8892C6.90116 11.8892 6.88954 11.8718 6.88954 11.837C6.88954 11.837 6.87791 11.8311 6.85465 11.8195V11.8021H6.83721C6.82558 11.8021 6.81395 11.7963 6.80233 11.7847V11.7672C6.83721 11.7324 6.85465 11.6975 6.85465 11.6626H6.80233C6.80233 11.651 6.80814 11.6452 6.81977 11.6452C6.84302 11.6336 6.85465 11.6161 6.85465 11.5929V11.5232C6.87791 11.4999 6.88372 11.4592 6.87209 11.4011V11.3837C6.87209 11.3837 6.87791 11.3721 6.88954 11.3488C6.87791 11.3488 6.87209 11.343 6.87209 11.3314C6.86047 11.3198 6.85465 11.3082 6.85465 11.2965V11.2791C6.8314 11.2675 6.80233 11.2268 6.76744 11.1571C6.76744 11.1571 6.76163 11.1513 6.75 11.1396C6.75 11.1048 6.72674 11.0931 6.68023 11.1048L6.69767 11.0873L6.68023 11.0525C6.68023 11.0408 6.6686 11.0234 6.64535 11.0002L6.62791 10.9827C6.60465 10.9711 6.56977 10.9246 6.52326 10.8433C6.51163 10.82 6.49419 10.8026 6.47093 10.791C6.4593 10.7794 6.44767 10.7619 6.43605 10.7387V10.791C6.40116 10.791 6.37791 10.7852 6.36628 10.7735V10.7387C6.36628 10.7387 6.35465 10.7503 6.3314 10.7735C6.28488 10.7271 6.27326 10.6922 6.29651 10.6689C6.27326 10.6573 6.25581 10.6457 6.24419 10.6341C6.23256 10.6225 6.21512 10.6108 6.19186 10.5992L6.2093 10.5643C6.2093 10.5527 6.20349 10.5469 6.19186 10.5469C6.20349 10.5121 6.22093 10.4946 6.24419 10.4946L6.2093 10.4772C6.18605 10.4772 6.17442 10.4656 6.17442 10.4423C6.13954 10.4307 6.11047 10.4191 6.08721 10.4075C6.07558 10.3493 6.05233 10.3203 6.01744 10.3203C6.00581 10.3203 5.99419 10.3203 5.98256 10.3203C5.98256 10.3087 5.97093 10.297 5.94767 10.2854C5.94767 10.297 5.94186 10.3029 5.93023 10.3029H5.87791C5.84302 10.3029 5.8314 10.3261 5.84302 10.3726C5.80814 10.3726 5.78488 10.3784 5.77326 10.39C5.76163 10.4016 5.74419 10.4133 5.72093 10.4249C5.72093 10.4365 5.71512 10.4423 5.70349 10.4423C5.69186 10.4423 5.68605 10.4481 5.68605 10.4598C5.68605 10.4714 5.67442 10.4772 5.65116 10.4772C5.65116 10.5237 5.66861 10.5469 5.70349 10.5469C5.71512 10.5237 5.72093 10.5179 5.72093 10.5295C5.72093 10.5411 5.73256 10.5469 5.75581 10.5469V10.5643C5.75581 10.5876 5.75 10.605 5.73837 10.6166C5.72674 10.6166 5.71512 10.6283 5.70349 10.6515V10.5992H5.68605C5.66279 10.6108 5.65116 10.6341 5.65116 10.6689H5.59884V10.7387C5.58721 10.7619 5.56977 10.7852 5.54651 10.8084C5.53488 10.82 5.52326 10.8491 5.51163 10.8956C5.48837 10.9072 5.44767 10.913 5.38954 10.913C5.40116 10.9246 5.40698 10.9479 5.40698 10.9827H5.38954V11.0525C5.38954 11.0873 5.38954 11.1048 5.38954 11.1048C5.36628 11.1048 5.34884 11.099 5.33721 11.0873C5.32558 11.0873 5.31977 11.1048 5.31977 11.1396C5.29651 11.1513 5.27326 11.1571 5.25 11.1571C5.23837 11.1454 5.23256 11.1513 5.23256 11.1745H5.16279L5.19767 11.2268C5.19767 11.25 5.18605 11.2617 5.16279 11.2617C5.15116 11.2617 5.14535 11.2675 5.14535 11.2791C5.15698 11.2907 5.15698 11.2965 5.14535 11.2965C5.12209 11.3198 5.11628 11.3372 5.12791 11.3488C5.15116 11.3605 5.15698 11.3779 5.14535 11.4011H5.12791C5.10465 11.4011 5.08721 11.3837 5.07558 11.3488V11.4186C5.05233 11.4418 5.02907 11.4534 5.00581 11.4534C4.99419 11.4534 4.98256 11.4592 4.97093 11.4709V11.5232H4.95349C4.95349 11.5696 4.93605 11.6045 4.90116 11.6278C4.90116 11.651 4.88953 11.6626 4.86628 11.6626C4.85465 11.6626 4.84302 11.6742 4.8314 11.6975C4.8314 11.7091 4.82558 11.7207 4.81395 11.7324C4.80233 11.7324 4.80814 11.744 4.8314 11.7672C4.8314 11.7788 4.81977 11.7963 4.79651 11.8195V11.837C4.79651 11.837 4.80814 11.8428 4.8314 11.8544C4.80814 11.8544 4.7907 11.8486 4.77907 11.837C4.76744 11.8253 4.75 11.8253 4.72674 11.837C4.72674 11.8486 4.74419 11.866 4.77907 11.8892H4.7093V11.9415C4.7093 11.9415 4.70349 11.9299 4.69186 11.9067V11.8892H4.67442H4.65698V11.9415H4.67442C4.66279 11.9532 4.67442 11.959 4.7093 11.959H4.72674V11.9764C4.68023 12.0113 4.64535 12.052 4.62209 12.0984C4.61046 12.0984 4.59302 12.1043 4.56977 12.1159C4.55814 12.1275 4.54651 12.1333 4.53488 12.1333C4.53488 12.1449 4.52907 12.1507 4.51744 12.1507H4.5H4.48256V12.1333H4.46512C4.46512 12.1101 4.45349 12.1101 4.43023 12.1333V12.0984H4.39535C4.39535 12.1217 4.38953 12.1391 4.37791 12.1507C4.36628 12.1507 4.37209 12.1624 4.39535 12.1856C4.4186 12.1856 4.43023 12.1972 4.43023 12.2205H4.46512V12.2728H4.48256C4.48256 12.3076 4.48837 12.3309 4.5 12.3425L4.48256 12.3774C4.48256 12.3774 4.48837 12.3832 4.5 12.3948C4.48837 12.418 4.47674 12.4355 4.46512 12.4471C4.46512 12.4471 4.46512 12.4529 4.46512 12.4645C4.46512 12.4529 4.4593 12.4471 4.44767 12.4471C4.43605 12.4355 4.43023 12.418 4.43023 12.3948C4.43023 12.4413 4.44186 12.4762 4.46512 12.4994H4.48256V12.5168C4.4593 12.5749 4.4593 12.6156 4.48256 12.6389V12.6912V12.7958C4.49419 12.8074 4.51163 12.819 4.53488 12.8306V12.8481C4.53488 12.8597 4.52326 12.8655 4.5 12.8655C4.48837 12.8771 4.48256 12.8945 4.48256 12.9178H4.46512V12.9527C4.47674 12.9527 4.47674 12.9585 4.46512 12.9701C4.46512 12.9933 4.47093 13.0166 4.48256 13.0398C4.47093 13.0398 4.46512 13.0398 4.46512 13.0398C4.46512 13.0514 4.45349 13.0573 4.43023 13.0573H4.39535C4.37209 13.0573 4.36047 13.0805 4.36047 13.127H4.39535H4.46512V13.1619V13.1793V13.1967V13.2316C4.45349 13.2316 4.44186 13.2374 4.43023 13.249C4.45349 13.2723 4.4593 13.2955 4.44767 13.3187C4.44767 13.342 4.4593 13.3594 4.48256 13.371C4.4593 13.371 4.44767 13.3769 4.44767 13.3885C4.4593 13.4117 4.45349 13.4233 4.43023 13.4233C4.43023 13.4698 4.44186 13.5047 4.46512 13.5279C4.43023 13.5047 4.40698 13.4815 4.39535 13.4582C4.39535 13.4466 4.38372 13.435 4.36047 13.4233V13.4408C4.34884 13.4408 4.34302 13.435 4.34302 13.4233C4.34302 13.4117 4.3314 13.4117 4.30814 13.4233C4.3314 13.435 4.34302 13.4466 4.34302 13.4582C4.35465 13.4815 4.37209 13.4931 4.39535 13.4931V13.5279L4.36047 13.5454L4.34302 13.5628V13.5977H4.36047H4.37791C4.37791 13.5977 4.38372 13.5861 4.39535 13.5628V13.5977C4.39535 13.6093 4.38953 13.6151 4.37791 13.6151H4.34302C4.34302 13.6384 4.34302 13.65 4.34302 13.65C4.35465 13.6616 4.36047 13.6732 4.36047 13.6848C4.34884 13.6732 4.34302 13.65 4.34302 13.6151H4.2907C4.27907 13.6616 4.28488 13.6848 4.30814 13.6848C4.3314 13.7081 4.34302 13.7255 4.34302 13.7371V13.7197L4.36047 13.7371C4.34884 13.7488 4.34884 13.7546 4.36047 13.7546C4.38372 13.7546 4.39535 13.7662 4.39535 13.7894C4.43023 13.7894 4.44767 13.8011 4.44767 13.8243C4.4593 13.8475 4.46512 13.865 4.46512 13.8766C4.46512 13.9115 4.47674 13.9289 4.5 13.9289V13.9986H4.48256H4.46512V14.0335H4.48256C4.47093 14.0451 4.47093 14.0509 4.48256 14.0509V14.0858V14.1032V14.1207H4.46512C4.44186 14.1207 4.43023 14.1323 4.43023 14.1555V14.173C4.45349 14.1962 4.48837 14.2078 4.53488 14.2078L4.55233 14.2253V14.2427H4.53488V14.3647C4.5 14.3531 4.46512 14.3473 4.43023 14.3473C4.44186 14.3589 4.44767 14.3705 4.44767 14.3822C4.44767 14.3938 4.44186 14.3996 4.43023 14.3996C4.45349 14.4112 4.46512 14.4345 4.46512 14.4693C4.44186 14.4693 4.4186 14.4926 4.39535 14.5391C4.37209 14.5274 4.36047 14.5042 4.36047 14.4693C4.32558 14.4693 4.30233 14.4868 4.2907 14.5216C4.2907 14.5332 4.29651 14.5391 4.30814 14.5391C4.35465 14.5739 4.35465 14.6262 4.30814 14.6959C4.29651 14.6959 4.2907 14.6959 4.2907 14.6959C4.2907 14.7076 4.28488 14.7134 4.27326 14.7134C4.27326 14.725 4.26163 14.7308 4.23837 14.7308H4.22093C4.22093 14.7541 4.2093 14.7657 4.18605 14.7657C4.18605 14.7773 4.19186 14.7831 4.20349 14.7831C4.21512 14.7831 4.2093 14.7947 4.18605 14.818L4.1686 14.8528V14.8703C4.1686 14.8819 4.17442 14.8877 4.18605 14.8877C4.18605 14.9226 4.18023 14.9458 4.1686 14.9574C4.15698 14.9574 4.15116 14.9807 4.15116 15.0272C4.15116 15.0504 4.15116 15.062 4.15116 15.062C4.16279 15.062 4.1686 15.0679 4.1686 15.0795H4.27326L4.2907 15.062L4.30814 15.0272C4.3314 15.0272 4.35465 15.0156 4.37791 14.9923C4.41279 14.9807 4.44186 14.9749 4.46512 14.9749C4.47674 14.9633 4.48837 14.9633 4.5 14.9749H4.55233C4.62209 14.9516 4.69767 14.94 4.77907 14.94C4.77907 14.9168 4.78488 14.9051 4.79651 14.9051C4.79651 14.8935 4.80233 14.8877 4.81395 14.8877C4.82558 14.8877 4.8314 14.8935 4.8314 14.9051C4.84302 14.8935 4.86628 14.8877 4.90116 14.8877C4.93605 14.8877 4.95349 14.8761 4.95349 14.8528C4.95349 14.8296 4.96512 14.818 4.98837 14.818L4.97093 14.8528V14.8703C4.97093 14.8819 4.97674 14.8877 4.98837 14.8877H4.97093C4.9593 14.8993 4.94186 14.9051 4.9186 14.9051C4.90698 14.9051 4.88953 14.9168 4.86628 14.94V14.9051C4.84302 14.9051 4.8314 14.9168 4.8314 14.94C4.8314 14.9516 4.81395 14.9574 4.77907 14.9574C4.74419 14.9574 4.72674 14.9633 4.72674 14.9749H4.67442C4.63953 14.9749 4.62209 14.9923 4.62209 15.0272C4.57558 15.0272 4.55233 15.0388 4.55233 15.062C4.55233 15.062 4.52907 15.062 4.48256 15.062C4.48256 15.0737 4.47674 15.0737 4.46512 15.062L4.44767 15.0795C4.43605 15.0795 4.43023 15.0853 4.43023 15.0969C4.37209 15.1202 4.34302 15.1202 4.34302 15.0969H4.30814C4.30814 15.1202 4.27907 15.1318 4.22093 15.1318C4.19767 15.1318 4.17442 15.1318 4.15116 15.1318C4.12791 15.1434 4.11047 15.1492 4.09884 15.1492C4.05233 15.1492 4.02907 15.1666 4.02907 15.2015C3.97093 15.2247 3.93605 15.2596 3.92442 15.3061V15.341C3.88954 15.3293 3.85465 15.3235 3.81977 15.3235C3.80814 15.3352 3.79651 15.3526 3.78488 15.3758C3.77326 15.3991 3.74419 15.4223 3.69767 15.4456H3.66279C3.66279 15.4572 3.66279 15.463 3.66279 15.463C3.67442 15.463 3.68023 15.4746 3.68023 15.4979C3.68023 15.5095 3.67442 15.5153 3.66279 15.5153C3.66279 15.5269 3.66279 15.5444 3.66279 15.5676C3.66279 15.5792 3.64535 15.585 3.61047 15.585C3.62209 15.5734 3.62791 15.556 3.62791 15.5327C3.62791 15.5211 3.63954 15.5153 3.66279 15.5153C3.62791 15.5037 3.61047 15.4804 3.61047 15.4456C3.61047 15.4456 3.62209 15.4339 3.64535 15.4107C3.65698 15.4107 3.66279 15.4049 3.66279 15.3933L3.68023 15.4107V15.3758C3.68023 15.3642 3.68605 15.3526 3.69767 15.341H3.71512C3.73837 15.341 3.75 15.3352 3.75 15.3235C3.75 15.3119 3.76163 15.3061 3.78488 15.3061C3.78488 15.2829 3.7907 15.2712 3.80233 15.2712H3.81977C3.81977 15.2596 3.82558 15.248 3.83721 15.2364C3.84884 15.2247 3.85465 15.2131 3.85465 15.2015C3.86628 15.1783 3.87791 15.1608 3.88953 15.1492C3.91279 15.1376 3.93023 15.1202 3.94186 15.0969C3.93023 15.062 3.92442 15.0446 3.92442 15.0446C3.93605 15.0446 3.95349 15.0214 3.97674 14.9749C4 14.9516 4.01744 14.9226 4.02907 14.8877C4.05233 14.8528 4.07558 14.8122 4.09884 14.7657L4.11628 14.7308V14.7134V14.6959C4.16279 14.6262 4.18605 14.5914 4.18605 14.5914V14.5391H4.22093C4.22093 14.5274 4.23837 14.5216 4.27326 14.5216C4.27326 14.4868 4.26163 14.4693 4.23837 14.4693H4.22093H4.18605C4.18605 14.4693 4.18023 14.4635 4.1686 14.4519C4.1686 14.417 4.18605 14.3996 4.22093 14.3996C4.26744 14.3996 4.2907 14.388 4.2907 14.3647C4.2907 14.3647 4.28488 14.3589 4.27326 14.3473C4.27326 14.324 4.27326 14.3066 4.27326 14.295C4.28488 14.295 4.2907 14.2892 4.2907 14.2776C4.2907 14.2776 4.30814 14.3008 4.34302 14.3473V14.295H4.36047C4.36047 14.295 4.35465 14.2834 4.34302 14.2601V14.2427C4.34302 14.2194 4.33721 14.1962 4.32558 14.173C4.31395 14.1613 4.30233 14.1381 4.2907 14.1032V14.0858V14.0509C4.27907 14.0277 4.26744 13.9986 4.25581 13.9638C4.25581 13.9405 4.24419 13.9231 4.22093 13.9115V13.8766L4.20349 13.8592H4.18605C4.18605 13.8475 4.18023 13.8301 4.1686 13.8069C4.1686 13.7952 4.1686 13.7778 4.1686 13.7546C4.1686 13.7197 4.15116 13.6907 4.11628 13.6674C4.13954 13.6442 4.15116 13.6267 4.15116 13.6151C4.16279 13.6035 4.17442 13.5861 4.18605 13.5628H4.22093V13.5454C4.18605 13.5454 4.18605 13.5279 4.22093 13.4931C4.19767 13.4931 4.18023 13.5047 4.1686 13.5279C4.18023 13.4698 4.18605 13.4117 4.18605 13.3536C4.18605 13.3071 4.19767 13.2548 4.22093 13.1967C4.22093 13.1851 4.23837 13.1735 4.27326 13.1619C4.21512 13.1619 4.21512 13.1328 4.27326 13.0747H4.25581C4.24419 13.0747 4.23256 13.0689 4.22093 13.0573V13.005C4.24419 13.005 4.25581 12.9991 4.25581 12.9875C4.25581 12.9875 4.24419 12.9875 4.22093 12.9875C4.22093 12.941 4.23837 12.9004 4.27326 12.8655C4.27326 12.8655 4.27907 12.8713 4.2907 12.8829C4.2907 12.8713 4.30814 12.8655 4.34302 12.8655C4.31977 12.8422 4.30814 12.8306 4.30814 12.8306V12.8132C4.29651 12.8132 4.2907 12.819 4.2907 12.8306C4.2907 12.8306 4.28488 12.8306 4.27326 12.8306C4.27326 12.819 4.26744 12.8016 4.25581 12.7783C4.24419 12.7551 4.25 12.7318 4.27326 12.7086V12.6912C4.27326 12.6563 4.27907 12.6331 4.2907 12.6214C4.22093 12.6214 4.18605 12.5982 4.18605 12.5517C4.18605 12.5285 4.18023 12.5168 4.1686 12.5168C4.1686 12.5168 4.1686 12.511 4.1686 12.4994V12.482V12.4645H4.15116H4.1686H4.18605V12.4471H4.22093V12.3948C4.25581 12.3948 4.27326 12.389 4.27326 12.3774C4.27326 12.389 4.27907 12.3948 4.2907 12.3948C4.2907 12.3832 4.29651 12.3657 4.30814 12.3425H4.2907C4.2907 12.3309 4.29651 12.3251 4.30814 12.3251H4.2907H4.27326V12.3425H4.22093H4.18605V12.3774H4.1686H4.15116V12.3425L4.13372 12.3251C4.12209 12.3251 4.11628 12.3193 4.11628 12.3076C4.13954 12.2844 4.15116 12.2553 4.15116 12.2205C4.15116 12.2089 4.13954 12.1972 4.11628 12.1856V12.1333C4.13954 12.1101 4.15116 12.1101 4.15116 12.1333C4.16279 12.1449 4.17442 12.1449 4.18605 12.1333C4.18605 12.1101 4.18023 12.0984 4.1686 12.0984C4.1686 12.0984 4.1686 12.0868 4.1686 12.0636C4.19186 12.0636 4.21512 12.0578 4.23837 12.0461C4.26163 12.0345 4.27907 12.0287 4.2907 12.0287L4.30814 12.0113L4.2907 12.0287V11.9764C4.24419 11.9764 4.22093 11.9706 4.22093 11.959C4.22093 11.9125 4.2093 11.8776 4.18605 11.8544L4.22093 11.837C4.19767 11.8021 4.18605 11.7556 4.18605 11.6975L4.22093 11.6626C4.19767 11.6626 4.18605 11.6568 4.18605 11.6452V11.6278C4.23256 11.6045 4.25581 11.5929 4.25581 11.5929C4.25581 11.5813 4.23256 11.558 4.18605 11.5232C4.18605 11.4883 4.18023 11.465 4.1686 11.4534C4.1686 11.4534 4.17442 11.4476 4.18605 11.436V11.4186L4.1686 11.4011C4.15698 11.4011 4.14535 11.3953 4.13372 11.3837C4.12209 11.3605 4.11047 11.3488 4.09884 11.3488C4.09884 11.3372 4.08721 11.3314 4.06395 11.3314C4.0407 11.3314 4.01744 11.3198 3.99419 11.2965L3.97674 11.3314V11.314C3.97674 11.3023 3.96512 11.2965 3.94186 11.2965C3.93023 11.2965 3.91279 11.2965 3.88953 11.2965C3.86628 11.2965 3.84302 11.2907 3.81977 11.2791H3.78488C3.76163 11.2791 3.73837 11.2791 3.71512 11.2791C3.69186 11.2791 3.67442 11.2733 3.66279 11.2617H3.64535C3.63372 11.2617 3.62791 11.25 3.62791 11.2268C3.59302 11.2036 3.56395 11.1861 3.5407 11.1745C3.51744 11.1513 3.50581 11.1222 3.50581 11.0873C3.48256 11.0408 3.46512 11.0176 3.45349 11.0176C3.44186 11.0176 3.43605 11.0118 3.43605 11.0002V10.9653C3.43605 10.9653 3.43023 10.9711 3.4186 10.9827V10.8956C3.39535 10.8723 3.37209 10.8549 3.34884 10.8433C3.32558 10.82 3.31395 10.7968 3.31395 10.7735H3.29651C3.31977 10.7154 3.30814 10.6748 3.26163 10.6515V10.6166V10.5992C3.26163 10.576 3.25581 10.5643 3.24419 10.5643C3.24419 10.5643 3.24419 10.5585 3.24419 10.5469C3.24419 10.5004 3.23256 10.4772 3.2093 10.4772V10.4423C3.17442 10.4307 3.15698 10.4133 3.15698 10.39C3.1686 10.3668 3.17442 10.3435 3.17442 10.3203C3.17442 10.297 3.16279 10.2854 3.13953 10.2854C3.13953 10.2622 3.13372 10.2447 3.12209 10.2331H3.08721C3.08721 10.2099 3.09302 10.1983 3.10465 10.1983H3.12209C3.12209 10.175 3.12209 10.1518 3.12209 10.1285C3.13372 10.1053 3.13953 10.082 3.13953 10.0588C3.13953 10.0704 3.14535 10.0762 3.15698 10.0762C3.1686 10.0762 3.17442 10.0878 3.17442 10.1111C3.17442 10.0878 3.18023 10.0762 3.19186 10.0762C3.20349 10.0762 3.2093 10.0704 3.2093 10.0588V10.1111H3.29651C3.30814 10.0762 3.29651 10.0588 3.26163 10.0588C3.25 10.0123 3.25 9.97744 3.26163 9.9542H3.27907C3.2907 9.9542 3.29651 9.9542 3.29651 9.9542C3.29651 9.94257 3.30233 9.93676 3.31395 9.93676H3.38372V9.88446C3.34884 9.87284 3.32558 9.86703 3.31395 9.86703C3.32558 9.84379 3.32558 9.82635 3.31395 9.81473C3.31395 9.80311 3.31395 9.78568 3.31395 9.76243V9.72757C3.32558 9.70432 3.32558 9.68689 3.31395 9.67527C3.31395 9.66365 3.31395 9.64621 3.31395 9.62297V9.55324V9.53581C3.31395 9.52418 3.30814 9.51837 3.29651 9.51837C3.29651 9.51837 3.29651 9.51256 3.29651 9.50094C3.30814 9.46607 3.33721 9.44283 3.38372 9.43121V9.41378H3.36628C3.35465 9.41378 3.34302 9.40796 3.3314 9.39634C3.36628 9.38472 3.39535 9.3731 3.4186 9.36148L3.3314 9.27431H3.26163C3.26163 9.26269 3.26744 9.25688 3.27907 9.25688C3.30233 9.25688 3.31395 9.25107 3.31395 9.23945C3.32558 9.2162 3.3314 9.21039 3.3314 9.22201C3.34302 9.23364 3.36047 9.23945 3.38372 9.23945H3.4186V9.20458C3.39535 9.19296 3.36047 9.18715 3.31395 9.18715C3.32558 9.18715 3.30814 9.1639 3.26163 9.11742C3.28488 9.11742 3.29651 9.1116 3.29651 9.09998C3.29651 9.08836 3.30233 9.09417 3.31395 9.11742L3.3314 9.08255C3.35465 9.07093 3.36047 9.06512 3.34884 9.06512C3.33721 9.06512 3.3314 9.0535 3.3314 9.03025C3.31977 9.01863 3.31395 8.98958 3.31395 8.94309V8.90822C3.32558 8.90822 3.3314 8.90241 3.3314 8.89079C3.29651 8.85592 3.27326 8.83849 3.26163 8.83849V8.82106C3.26163 8.82106 3.25581 8.82687 3.24419 8.83849V8.82106H3.17442C3.19767 8.82106 3.2093 8.81525 3.2093 8.80362C3.2093 8.78038 3.22093 8.76295 3.24419 8.75132C3.19767 8.75132 3.17442 8.75132 3.17442 8.75132C3.16279 8.75132 3.15698 8.74551 3.15698 8.73389L3.17442 8.71646H3.12209V8.69903C3.13372 8.67578 3.15116 8.66416 3.17442 8.66416C3.15116 8.65254 3.13953 8.63511 3.13953 8.61186C3.13953 8.58862 3.13372 8.56537 3.12209 8.54213C3.12209 8.51889 3.09884 8.50726 3.05233 8.50726C3.05233 8.48402 3.04651 8.4724 3.03488 8.4724C3.02326 8.46078 3.02907 8.44334 3.05233 8.4201V8.40267C2.99419 8.39104 2.9593 8.37361 2.94767 8.35037C2.94767 8.32712 2.94186 8.29807 2.93023 8.2632V8.22834C2.93023 8.21672 2.92442 8.2109 2.91279 8.2109C2.90116 8.19928 2.89535 8.18185 2.89535 8.15861H2.91279C2.92442 8.15861 2.93605 8.15279 2.94767 8.14117C2.93605 8.09468 2.93605 8.05982 2.94767 8.03658L2.89535 7.98428V7.96684C2.89535 7.93198 2.89535 7.90873 2.89535 7.89711C2.90698 7.87387 2.90116 7.85644 2.87791 7.84481C2.88953 7.83319 2.90116 7.83319 2.91279 7.84481C2.92442 7.84481 2.93605 7.839 2.94767 7.82738V7.79251C2.92442 7.79251 2.90116 7.79251 2.87791 7.79251C2.86628 7.78089 2.84884 7.77508 2.82558 7.77508C2.81395 7.74022 2.80814 7.71697 2.80814 7.70535V7.65305C2.78488 7.62981 2.77326 7.59494 2.77326 7.54845C2.77326 7.53683 2.76744 7.5194 2.75581 7.49615C2.76744 7.48453 2.78488 7.47291 2.80814 7.46129V7.37412C2.78488 7.3625 2.77907 7.35669 2.7907 7.35669C2.80233 7.34507 2.79651 7.33926 2.77326 7.33926L2.75581 7.30439C2.76744 7.30439 2.77326 7.29858 2.77326 7.28696C2.77326 7.26372 2.76744 7.2579 2.75581 7.26953C2.75581 7.28115 2.74419 7.27534 2.72093 7.25209C2.72093 7.22885 2.72674 7.20561 2.73837 7.18236C2.75 7.15912 2.74419 7.13587 2.72093 7.11263H2.75581L2.72093 7.0952C2.73256 7.0952 2.76163 7.06033 2.80814 6.9906C2.78488 7.00222 2.77326 7.00803 2.77326 7.00803C2.77326 6.99641 2.76744 6.99641 2.75581 7.00803C2.73256 7.00803 2.71512 7.00222 2.70349 6.9906C2.65698 6.97898 2.63372 6.96155 2.63372 6.9383C2.63372 6.90344 2.61628 6.87438 2.5814 6.85114V6.76397H2.56395C2.5407 6.75235 2.52907 6.70586 2.52907 6.62451H2.51163C2.5 6.62451 2.49419 6.6187 2.49419 6.60708V6.57221V6.51991C2.47093 6.51991 2.46512 6.51991 2.47674 6.51991C2.48837 6.50829 2.48256 6.49667 2.4593 6.48505C2.44767 6.48505 2.44186 6.47923 2.44186 6.46761C2.43023 6.46761 2.42442 6.46761 2.42442 6.46761C2.42442 6.45599 2.4186 6.45018 2.40698 6.45018V6.43275H2.42442L2.44186 6.45018V6.39788C2.45349 6.37464 2.4593 6.34558 2.4593 6.31072C2.4593 6.29909 2.46512 6.29328 2.47674 6.29328C2.48837 6.29328 2.49419 6.28166 2.49419 6.25842C2.5407 6.25842 2.56395 6.24098 2.56395 6.20612C2.56395 6.18288 2.56977 6.15963 2.5814 6.13639C2.56977 6.13639 2.56395 6.13058 2.56395 6.11895V6.08409L2.5814 6.06666C2.5814 6.02017 2.57558 5.99692 2.56395 5.99692C2.56395 5.97368 2.55233 5.96206 2.52907 5.96206C2.50581 5.95044 2.49419 5.92719 2.49419 5.89233C2.5407 5.89233 2.56977 5.88652 2.5814 5.87489C2.56977 5.84003 2.55233 5.81678 2.52907 5.80516C2.50581 5.79354 2.48256 5.77611 2.4593 5.75286C2.49419 5.718 2.49419 5.70056 2.4593 5.70056V5.64827C2.43605 5.63664 2.4186 5.62502 2.40698 5.6134C2.40698 5.60178 2.40116 5.59016 2.38954 5.57853C2.38954 5.56691 2.38372 5.5611 2.37209 5.5611C2.37209 5.5611 2.37209 5.54948 2.37209 5.52624C2.34884 5.52624 2.3314 5.52042 2.31977 5.5088C2.31977 5.49718 2.30814 5.50299 2.28488 5.52624V5.47394C2.28488 5.46231 2.27907 5.4565 2.26744 5.4565L2.28488 5.43907L2.26744 5.4042C2.26744 5.39258 2.26744 5.38096 2.26744 5.36934C2.27907 5.35772 2.28488 5.34028 2.28488 5.31704C2.30814 5.2938 2.31977 5.28217 2.31977 5.28217C2.3314 5.27055 2.34884 5.25312 2.37209 5.22988H2.31977C2.31977 5.17177 2.34302 5.14271 2.38954 5.14271V5.12528C2.38954 5.12528 2.38954 5.11947 2.38954 5.10784C2.38954 5.09622 2.39535 5.09041 2.40698 5.09041C2.43023 5.09041 2.44767 5.07298 2.4593 5.03811C2.4593 5.04974 2.46512 5.05555 2.47674 5.05555C2.47674 5.05555 2.48256 5.04974 2.49419 5.03811V5.02068C2.47093 5.02068 2.45349 5.02649 2.44186 5.03811C2.44186 5.03811 2.43023 5.03811 2.40698 5.03811C2.43023 5.02649 2.44186 4.99744 2.44186 4.95095H2.4593C2.48256 4.92771 2.5 4.91608 2.51163 4.91608C2.53488 4.90446 2.55814 4.88703 2.5814 4.86378C2.61628 4.86378 2.63953 4.87541 2.65116 4.89865C2.67442 4.89865 2.69186 4.90446 2.70349 4.91608C2.71512 4.91608 2.73256 4.91027 2.75581 4.89865C2.75581 4.87541 2.74419 4.8696 2.72093 4.88122C2.7093 4.89284 2.70349 4.88703 2.70349 4.86378V4.84635C2.6686 4.82311 2.63953 4.81149 2.61628 4.81149C2.60465 4.79986 2.58721 4.78824 2.56395 4.77662V4.72432C2.58721 4.7127 2.60465 4.70108 2.61628 4.68945C2.63953 4.66621 2.6686 4.64297 2.70349 4.61972V4.60229H2.65116C2.61628 4.56742 2.60465 4.54999 2.61628 4.54999C2.59302 4.53837 2.5814 4.50931 2.5814 4.46283V4.42796H2.56395V4.3931C2.57558 4.36985 2.58721 4.35242 2.59884 4.3408C2.61046 4.32917 2.61628 4.30593 2.61628 4.27107V4.2362C2.61628 4.22458 2.61046 4.21877 2.59884 4.21877C2.58721 4.21877 2.5814 4.20714 2.5814 4.1839C2.60465 4.1839 2.61046 4.1839 2.59884 4.1839C2.58721 4.17228 2.5814 4.16066 2.5814 4.14903C2.59302 4.13741 2.60465 4.1316 2.61628 4.1316L2.63372 4.14903C2.63372 4.09093 2.61628 4.06187 2.5814 4.06187V3.97471C2.5814 3.98633 2.58721 3.99214 2.59884 3.99214C2.61046 3.99214 2.61628 4.00376 2.61628 4.027C2.63953 4.027 2.64535 4.02119 2.63372 4.00957C2.63372 3.98633 2.63953 3.97471 2.65116 3.97471C2.63953 3.95146 2.62791 3.93403 2.61628 3.92241C2.61628 3.91078 2.61628 3.89335 2.61628 3.87011C2.61628 3.85849 2.62209 3.84105 2.63372 3.81781C2.62209 3.81781 2.61628 3.812 2.61628 3.80038V3.74808C2.61628 3.73646 2.62209 3.73064 2.63372 3.73064C2.64535 3.7074 2.65698 3.69578 2.6686 3.69578C2.68023 3.69578 2.67442 3.68997 2.65116 3.67835C2.65116 3.67835 2.64535 3.68416 2.63372 3.69578C2.63372 3.68416 2.62791 3.67253 2.61628 3.66091V3.55631C2.61628 3.54469 2.62209 3.52726 2.63372 3.50402C2.64535 3.50402 2.6686 3.49821 2.70349 3.48658C2.70349 3.45172 2.70349 3.42266 2.70349 3.39942C2.71512 3.36455 2.72093 3.3355 2.72093 3.31225C2.7093 3.31225 2.7093 3.30644 2.72093 3.29482H2.70349V3.24252C2.65698 3.21928 2.63372 3.18441 2.63372 3.13793C2.62209 3.1263 2.61628 3.11468 2.61628 3.10306C2.61628 3.07982 2.60465 3.06238 2.5814 3.05076C2.61628 2.99265 2.65698 2.95779 2.70349 2.94616H2.72093V2.92873C2.72093 2.92873 2.73256 2.93454 2.75581 2.94616V2.87643C2.75581 2.85319 2.75 2.83575 2.73837 2.82413C2.72674 2.80089 2.72093 2.76602 2.72093 2.71954C2.72093 2.70791 2.71512 2.69629 2.70349 2.68467C2.70349 2.67305 2.70349 2.65561 2.70349 2.63237C2.6686 2.64399 2.64535 2.6498 2.63372 2.6498C2.62209 2.63818 2.61046 2.62656 2.59884 2.61494C2.58721 2.60332 2.5814 2.57426 2.5814 2.52777H2.52907C2.52907 2.48129 2.50581 2.45223 2.4593 2.44061C2.50581 2.44061 2.52907 2.42899 2.52907 2.40574C2.52907 2.3825 2.50581 2.37088 2.4593 2.37088V2.33601V2.31858C2.44767 2.31858 2.44186 2.32439 2.44186 2.33601C2.4186 2.33601 2.41279 2.33601 2.42442 2.33601C2.43605 2.33601 2.44186 2.34763 2.44186 2.37088C2.4186 2.34763 2.41279 2.33601 2.42442 2.33601C2.43605 2.32439 2.44186 2.30696 2.44186 2.28371H2.40698V2.26628V2.24885C2.39535 2.23722 2.38954 2.2256 2.38954 2.21398V2.16168H2.31977C2.26163 2.16168 2.26163 2.19074 2.31977 2.24885H2.28488C2.27326 2.21398 2.26744 2.17912 2.26744 2.14425C2.27907 2.13263 2.27907 2.09195 2.26744 2.02222V2.00479V1.96992C2.25581 1.96992 2.25 1.97573 2.25 1.98735C2.25 1.99897 2.23837 2.00479 2.21512 2.00479C2.21512 1.98154 2.2093 1.96992 2.19767 1.96992C2.19767 1.9583 2.20349 1.94087 2.21512 1.91762C2.20349 1.906 2.18605 1.88857 2.16279 1.86532C2.13953 1.84208 2.12791 1.81302 2.12791 1.77816L2.14535 1.79559C2.18023 1.78397 2.19767 1.77235 2.19767 1.76072H2.09302H2.07558C2.07558 1.73748 2.06977 1.73167 2.05814 1.74329C2.04651 1.75491 2.0407 1.76654 2.0407 1.77816C2.02907 1.78978 2.01163 1.79559 1.98837 1.79559C1.97674 1.79559 1.96512 1.80721 1.95349 1.83046V1.79559L1.97093 1.77816C1.9593 1.76654 1.94186 1.76654 1.9186 1.77816C1.9186 1.77816 1.90698 1.74329 1.88372 1.67356C1.86046 1.66194 1.84302 1.65613 1.8314 1.65613C1.8314 1.64451 1.81977 1.62707 1.79651 1.60383V1.5864C1.79651 1.5864 1.79651 1.57477 1.79651 1.55153H1.77907H1.76163V1.51666H1.72674L1.7093 1.4818H1.67442V1.4295C1.66279 1.4295 1.64535 1.4295 1.62209 1.4295C1.61046 1.41788 1.59884 1.41207 1.58721 1.41207L1.56977 1.39463H1.55233C1.52907 1.34815 1.50581 1.30747 1.48256 1.2726C1.4593 1.24936 1.44186 1.23774 1.43023 1.23774C1.4186 1.23774 1.40698 1.23193 1.39535 1.2203C1.37209 1.18544 1.35465 1.1622 1.34302 1.15057C1.34302 1.13895 1.34302 1.12152 1.34302 1.09827H1.30814C1.28488 1.09827 1.26163 1.10409 1.23837 1.11571C1.26163 1.08084 1.27326 1.04016 1.27326 0.993677C1.29651 1.01692 1.31395 1.03435 1.32558 1.04598C1.33721 1.0576 1.34884 1.07503 1.36046 1.09827C1.39535 1.07503 1.41279 1.03435 1.41279 0.976243C1.41279 0.987866 1.40698 0.993677 1.39535 0.993677C1.37209 0.993677 1.36046 0.976244 1.36046 0.941378C1.36046 0.964621 1.35465 0.976243 1.34302 0.976243C1.34302 0.976243 1.34302 0.982054 1.34302 0.993677V0.923945C1.34302 0.889079 1.31977 0.871646 1.27326 0.871646C1.25 0.871646 1.23837 0.889079 1.23837 0.923945C1.23837 0.935567 1.22093 0.953 1.18605 0.976243C1.18605 0.964621 1.17442 0.947189 1.15116 0.923945C1.16279 0.923945 1.1686 0.918134 1.1686 0.906511C1.13372 0.871646 1.10465 0.842591 1.0814 0.819347C1.05814 0.796103 1.0407 0.77286 1.02907 0.749616V0.767049C1.02907 0.778671 1.01744 0.784482 0.994186 0.784482H0.976744V0.749616H0.994186C0.994186 0.737994 0.988372 0.726372 0.976744 0.71475C0.976744 0.703128 0.976744 0.674073 0.976744 0.627585V0.610153C0.930233 0.598531 0.906977 0.552043 0.906977 0.470689V0.435824L0.889535 0.41839C0.866279 0.41839 0.854651 0.406768 0.854651 0.383524L0.837209 0.366092C0.837209 0.377714 0.837209 0.383524 0.837209 0.383524C0.848837 0.383524 0.854651 0.395146 0.854651 0.41839C0.843023 0.41839 0.837209 0.412579 0.837209 0.400957C0.837209 0.389335 0.825581 0.377714 0.802326 0.366092C0.767442 0.35447 0.744186 0.331226 0.732558 0.29636C0.732558 0.273116 0.726744 0.267305 0.715116 0.278927C0.715116 0.278927 0.715116 0.267305 0.715116 0.244061H0.680232C0.633721 0.244061 0.593023 0.226628 0.558139 0.191763H0.505814C0.494186 0.18014 0.476744 0.174329 0.453488 0.174329C0.430232 0.162707 0.418604 0.145275 0.418604 0.122031L0.383721 0.104598C0.360465 0.104598 0.337209 0.098787 0.313953 0.0871645C0.290698 0.0755427 0.261628 0.0639209 0.226744 0.0522991H0.0697673C0.0581394 0.0522991 0.0348836 0.0348661 0 0H0.122093H0.226744C0.226744 0 0.232558 0.0058109 0.244186 0.0174327H0.313953C0.337209 0.0174327 0.354651 0.0232439 0.366279 0.0348664C0.389535 0.0464882 0.424419 0.05811 0.47093 0.0697318C0.47093 0.0697318 0.476744 0.0813539 0.488372 0.104598C0.5 0.0813539 0.534884 0.0697318 0.593023 0.0697318H0.680232C0.680232 0.104598 0.703488 0.122031 0.75 0.122031V0.156896C0.75 0.168518 0.767442 0.174329 0.802326 0.174329C0.802326 0.185951 0.80814 0.191763 0.819767 0.191763H0.837209C0.848837 0.226628 0.872093 0.249872 0.906977 0.261494V0.29636C0.918605 0.319604 0.930233 0.337037 0.941861 0.348659C0.965116 0.360281 0.982558 0.371903 0.994186 0.383524V0.41839C1.01744 0.441634 1.03488 0.464878 1.04651 0.488122C1.05814 0.511366 1.07558 0.53461 1.09884 0.557853C1.12209 0.557853 1.13372 0.563664 1.13372 0.575286C1.14535 0.586909 1.15698 0.598531 1.1686 0.610153V0.627585V0.679884C1.18023 0.645018 1.20349 0.627585 1.23837 0.627585L1.22093 0.679884H1.23837C1.26163 0.703128 1.28488 0.720561 1.30814 0.732182C1.3314 0.732182 1.34884 0.732182 1.36046 0.732182C1.38372 0.743805 1.40116 0.749616 1.41279 0.749616V0.732182C1.41279 0.743805 1.41279 0.749616 1.41279 0.749616C1.42442 0.737994 1.43023 0.737994 1.43023 0.749616V0.801914C1.46512 0.825159 1.49419 0.836781 1.51744 0.836781C1.5407 0.836781 1.56395 0.848402 1.58721 0.871646L1.60465 0.906511C1.63953 0.883268 1.65698 0.860024 1.65698 0.836781C1.6686 0.836781 1.67442 0.848402 1.67442 0.871646L1.65698 0.906511C1.65698 0.906511 1.6686 0.912323 1.69186 0.923945H1.7093C1.7093 0.923945 1.7093 0.906512 1.7093 0.871646C1.76744 0.871646 1.78488 0.89489 1.76163 0.941378C1.78488 0.964621 1.80814 0.982054 1.8314 0.993677C1.86628 1.0053 1.89535 1.02273 1.9186 1.04598C1.93023 1.03435 1.93605 1.01692 1.93605 0.993677C1.93605 0.982054 1.93023 0.976243 1.9186 0.976243H1.90116H1.88372V0.941378H1.84884V0.923945C1.87209 0.912323 1.89535 0.918134 1.9186 0.941378C1.9186 0.953 1.92442 0.958811 1.93605 0.958811C1.94767 0.970432 1.9593 0.976243 1.97093 0.976243C1.98256 0.976243 1.98837 0.982054 1.98837 0.993677C2 0.993677 2.01163 0.993677 2.02326 0.993677H2.0407H2.07558H2.0407C2.0407 1.02854 2.03488 1.04598 2.02326 1.04598V1.06341H1.98837C1.97674 1.06341 1.97093 1.07503 1.97093 1.09827H2.0407L2.07558 1.06341H2.09302C2.09302 1.08665 2.09884 1.10409 2.11047 1.11571C2.12209 1.11571 2.13372 1.12733 2.14535 1.15057V1.23774H2.21512C2.23837 1.23774 2.25 1.26098 2.25 1.30747V1.34233H2.26744C2.30233 1.34233 2.31977 1.35977 2.31977 1.39463C2.34302 1.39463 2.35465 1.40044 2.35465 1.41207C2.36628 1.41207 2.37791 1.41207 2.38954 1.41207V1.4295C2.40116 1.45274 2.42442 1.46436 2.4593 1.46436L2.49419 1.4818C2.48256 1.4818 2.47093 1.48761 2.4593 1.49923V1.51666C2.49419 1.51666 2.52326 1.52829 2.54651 1.55153C2.5814 1.57477 2.61628 1.59221 2.65116 1.60383V1.5864C2.69767 1.59802 2.72093 1.61545 2.72093 1.63869C2.74419 1.66194 2.77326 1.66775 2.80814 1.65613C2.80814 1.64451 2.80814 1.63869 2.80814 1.63869C2.81977 1.63869 2.82558 1.64451 2.82558 1.65613C2.82558 1.65613 2.83721 1.66194 2.86046 1.67356H2.87791H2.93023C2.93023 1.6968 2.93023 1.72005 2.93023 1.74329C2.94186 1.75491 2.94767 1.76654 2.94767 1.77816C2.9593 1.78978 3 1.79559 3.06977 1.79559C3.06977 1.80721 3.07558 1.81302 3.08721 1.81302C3.08721 1.82465 3.09884 1.83046 3.12209 1.83046V1.84789C3.15698 1.84789 3.17442 1.86532 3.17442 1.90019C3.19767 1.91181 3.22093 1.92343 3.24419 1.93505C3.26744 1.94668 3.2907 1.9583 3.31395 1.96992C3.30233 1.96992 3.29651 1.98735 3.29651 2.02222V2.05708V2.07452V2.09195V2.12682C3.27326 2.12682 3.26163 2.13263 3.26163 2.14425C3.26163 2.14425 3.25581 2.14425 3.24419 2.14425C3.24419 2.15587 3.23256 2.1733 3.2093 2.19655V2.16168L3.19186 2.14425H3.17442C3.13953 2.14425 3.11047 2.13844 3.08721 2.12682V2.14425C3.12209 2.14425 3.13953 2.15587 3.13953 2.17911V2.19655C3.17442 2.24304 3.17442 2.26628 3.13953 2.26628C3.10465 2.26628 3.08721 2.27209 3.08721 2.28371C3.07558 2.28371 3.06977 2.30115 3.06977 2.33601C3.06977 2.33601 3.07558 2.34763 3.08721 2.37088C3.08721 2.42899 3.08721 2.45804 3.08721 2.45804C3.11047 2.48129 3.12209 2.52196 3.12209 2.58007C3.09884 2.58007 3.0814 2.57426 3.06977 2.56264C3.06977 2.55102 3.06977 2.56845 3.06977 2.61494C3.06977 2.62656 3.07558 2.63237 3.08721 2.63237H3.12209V2.58007C3.13372 2.58007 3.13953 2.59169 3.13953 2.61494C3.13953 2.62656 3.14535 2.63237 3.15698 2.63237H3.2093C3.18605 2.64399 3.15698 2.66724 3.12209 2.7021H3.13953C3.16279 2.69048 3.18605 2.68467 3.2093 2.68467C3.23256 2.68467 3.25 2.68467 3.26163 2.68467H3.3314C3.40116 2.68467 3.44186 2.69048 3.45349 2.7021H3.50581C3.61046 2.7021 3.69186 2.73697 3.75 2.8067L3.78488 2.82413V2.99846C3.78488 3.04495 3.7907 3.09144 3.80233 3.13793L3.81977 3.15536C3.81977 3.1786 3.8314 3.19022 3.85465 3.19022H3.81977L3.85465 3.20766C3.85465 3.19604 3.86047 3.19022 3.87209 3.19022C3.93023 3.1786 3.98256 3.21347 4.02907 3.29482C4.0407 3.24833 4.0814 3.27158 4.15116 3.36455H4.11628C4.10465 3.36455 4.09884 3.37036 4.09884 3.38199C4.09884 3.46334 4.12209 3.48658 4.1686 3.45172V3.48658C4.20349 3.52145 4.22093 3.54469 4.22093 3.55631C4.22093 3.56794 4.22674 3.57375 4.23837 3.57375H4.27326C4.28488 3.57375 4.2907 3.58537 4.2907 3.60861C4.2907 3.62024 4.29651 3.62605 4.30814 3.62605C4.3314 3.64929 4.3314 3.67253 4.30814 3.69578H4.34302V3.73064C4.34302 3.74227 4.33721 3.75389 4.32558 3.76551C4.31395 3.76551 4.31977 3.77713 4.34302 3.80038V3.74808L4.37791 3.78294L4.39535 3.80038C4.4186 3.75389 4.4186 3.71902 4.39535 3.69578H4.43023C4.45349 3.71902 4.47093 3.73064 4.48256 3.73064C4.49419 3.73064 4.51163 3.73646 4.53488 3.74808C4.51163 3.77132 4.5 3.78875 4.5 3.80038C4.5 3.812 4.49419 3.82943 4.48256 3.85267C4.49419 3.85267 4.50581 3.85849 4.51744 3.87011C4.52907 3.87011 4.5407 3.87011 4.55233 3.87011L4.60465 3.90497H4.62209C4.6686 3.90497 4.72093 3.93403 4.77907 3.99214H4.79651C4.78488 4.01538 4.77326 4.03282 4.76163 4.04444C4.75 4.04444 4.75581 4.05025 4.77907 4.06187C4.7907 4.06187 4.79651 4.06768 4.79651 4.0793C4.80814 4.09092 4.82558 4.09674 4.84884 4.09674C4.88372 4.09674 4.9186 4.11417 4.95349 4.14903H4.97093V4.1316C4.97093 4.1316 4.97674 4.11998 4.98837 4.09674C4.97674 4.1316 4.97093 4.15485 4.97093 4.16647C4.98256 4.16647 4.98837 4.16066 4.98837 4.14903C4.98837 4.12579 5 4.12579 5.02326 4.14903C5 4.16066 5 4.17228 5.02326 4.1839C5.03488 4.20714 5.04651 4.22458 5.05814 4.2362C5.06977 4.24782 5.06395 4.27107 5.0407 4.30593C5.0407 4.3408 5.06395 4.38147 5.11046 4.42796C5.13372 4.41634 5.14535 4.40472 5.14535 4.3931C5.15698 4.40472 5.16279 4.42215 5.16279 4.44539C5.17442 4.45702 5.19186 4.45121 5.21512 4.42796C5.21512 4.45121 5.2093 4.46864 5.19767 4.48026C5.19767 4.48026 5.20349 4.49188 5.21512 4.51513C5.22674 4.51513 5.23256 4.52675 5.23256 4.54999C5.22093 4.58486 5.23837 4.62553 5.28488 4.67202C5.31977 4.70689 5.33721 4.72432 5.33721 4.72432C5.33721 4.72432 5.34302 4.73013 5.35465 4.74175V4.77662L5.33721 4.79405H5.31977C5.31977 4.84054 5.32558 4.86378 5.33721 4.86378V4.89865C5.33721 4.91027 5.35465 4.91608 5.38954 4.91608V4.86378H5.40698C5.40698 4.88703 5.40116 4.90446 5.38954 4.91608C5.40116 4.91608 5.40116 4.92771 5.38954 4.95095C5.38954 4.96257 5.39535 4.96838 5.40698 4.96838C5.43023 5.01487 5.46512 5.07298 5.51163 5.14271L5.52907 5.19501V5.22988H5.5814V5.28217H5.65116V5.31704C5.65116 5.34028 5.65698 5.35191 5.6686 5.35191H5.68605C5.67442 5.35191 5.6686 5.35772 5.6686 5.36934C5.65698 5.38096 5.65116 5.39258 5.65116 5.4042C5.65116 5.39258 5.66861 5.38677 5.70349 5.38677C5.69186 5.38677 5.68605 5.39258 5.68605 5.4042C5.69767 5.42745 5.72093 5.43907 5.75581 5.43907V5.5611L5.77326 5.57853C5.81977 5.59016 5.84302 5.6134 5.84302 5.64827C5.86628 5.64827 5.87791 5.65989 5.87791 5.68313V5.70056C5.88954 5.70056 5.89535 5.70638 5.89535 5.718C5.89535 5.718 5.90698 5.718 5.93023 5.718C5.90698 5.74124 5.88954 5.75286 5.87791 5.75286L5.82558 5.70056H5.7907C5.77907 5.70056 5.77326 5.70638 5.77326 5.718C5.79651 5.74124 5.81395 5.75867 5.82558 5.7703C5.84884 5.7703 5.87209 5.78192 5.89535 5.80516C5.86047 5.80516 5.84302 5.82841 5.84302 5.87489H5.89535V5.94462C5.9186 5.94462 5.93605 5.95044 5.94767 5.96206H5.89535V5.99692C5.9186 5.99692 5.93605 6.00855 5.94767 6.03179C5.9593 6.04341 5.98256 6.04922 6.01744 6.04922C6.00581 6.04922 6 6.05503 6 6.06666C6.01163 6.11314 6.01163 6.14801 6 6.17125C5.96512 6.17125 5.94767 6.1945 5.94767 6.24098C5.91279 6.24098 5.88954 6.2468 5.87791 6.25842C5.87791 6.28166 5.89535 6.29909 5.93023 6.31072C5.94186 6.31072 5.94767 6.31072 5.94767 6.31072C5.9593 6.29909 5.97674 6.29328 6 6.29328C5.96512 6.30491 5.94186 6.31653 5.93023 6.32815C5.90698 6.32815 5.89535 6.32815 5.89535 6.32815C5.89535 6.31653 5.88954 6.31072 5.87791 6.31072C5.87791 6.32234 5.87209 6.32815 5.86047 6.32815C5.84884 6.32815 5.85465 6.33977 5.87791 6.36302L5.89535 6.38045V6.39788C5.9186 6.42112 5.95349 6.42112 6 6.39788L6.01744 6.43275V6.45018C6.01744 6.4618 6.01163 6.46761 6 6.46761C6 6.46761 6 6.47342 6 6.48505C6.03488 6.48505 6.05233 6.49667 6.05233 6.51991C6.02907 6.55478 6.01744 6.58383 6.01744 6.60708C6.01744 6.6187 6.02326 6.62451 6.03488 6.62451H6.05233C6.07558 6.62451 6.08721 6.64194 6.08721 6.67681V6.69424V6.74654C6.11047 6.75816 6.13954 6.77559 6.17442 6.79884L6.19186 6.81627V6.8337C6.19186 6.84533 6.19767 6.85114 6.2093 6.85114C6.24419 6.87438 6.27326 6.89762 6.29651 6.92087V6.9383L6.3314 6.97317V6.9906C6.35465 7.02547 6.37791 7.03128 6.40116 7.00803H6.41861C6.41861 7.00803 6.42442 7.01966 6.43605 7.0429V7.0952C6.41279 7.10682 6.40698 7.11263 6.41861 7.11263C6.43023 7.11263 6.43605 7.11844 6.43605 7.13006H6.40116C6.40116 7.11844 6.38954 7.11263 6.36628 7.11263H6.29651C6.29651 7.19398 6.32558 7.21723 6.38372 7.18236V7.16493C6.39535 7.17655 6.41279 7.18236 6.43605 7.18236C6.44767 7.24047 6.46512 7.27534 6.48837 7.28696C6.52326 7.28696 6.56395 7.28696 6.61047 7.28696C6.58721 7.28696 6.57558 7.29277 6.57558 7.30439L6.55814 7.33926L6.57558 7.35669H6.61047C6.61047 7.36831 6.61628 7.37412 6.62791 7.37412C6.61628 7.40899 6.59884 7.43804 6.57558 7.46129H6.59302L6.61047 7.47872C6.62209 7.4671 6.62791 7.45548 6.62791 7.44386C6.63954 7.43223 6.65698 7.42642 6.68023 7.42642C6.69186 7.44967 6.70349 7.46129 6.71512 7.46129C6.73837 7.46129 6.75581 7.4671 6.76744 7.47872H6.73256C6.74419 7.49034 6.75 7.50778 6.75 7.53102H6.76744C6.7907 7.54264 6.80233 7.56589 6.80233 7.60075C6.84884 7.55426 6.87209 7.53102 6.87209 7.53102C6.90698 7.54264 6.90698 7.5717 6.87209 7.61819C6.88372 7.61819 6.88954 7.62981 6.88954 7.65305C6.91279 7.62981 6.92442 7.61819 6.92442 7.61819V7.60075V7.65305C6.94767 7.61819 6.98837 7.60656 7.04651 7.61819C7.02326 7.64143 7.01163 7.66467 7.01163 7.68792C7.01163 7.69954 7 7.71116 6.97674 7.72278C7 7.74603 7.01744 7.76346 7.02907 7.77508C7.0407 7.7867 7.05233 7.80414 7.06395 7.82738C7.08721 7.80414 7.09302 7.78089 7.0814 7.75765C7.06977 7.7344 7.06395 7.71697 7.06395 7.70535H7.09884C7.09884 7.68211 7.08721 7.67048 7.06395 7.67048H7.09884H7.13372C7.12209 7.69373 7.11047 7.70535 7.09884 7.70535C7.11047 7.75184 7.13954 7.78089 7.18605 7.79251L7.22093 7.82738V7.80995C7.22093 7.80995 7.22674 7.80414 7.23837 7.79251H7.27326C7.28488 7.79251 7.2907 7.7867 7.2907 7.77508C7.2907 7.77508 7.31977 7.77508 7.37791 7.77508C7.37791 7.7867 7.38372 7.79251 7.39535 7.79251H7.43023C7.43023 7.81576 7.41279 7.83319 7.37791 7.84481H7.36047H7.34302C7.34302 7.85644 7.34884 7.86225 7.36047 7.86225H7.37791C7.41279 7.95522 7.45349 7.96684 7.5 7.89711C7.5 7.87387 7.48837 7.87387 7.46512 7.89711V7.86225C7.47674 7.85062 7.48256 7.839 7.48256 7.82738C7.48256 7.839 7.48837 7.84481 7.5 7.84481C7.5 7.84481 7.52907 7.84481 7.58721 7.84481V7.89711C7.56395 7.93198 7.53488 7.95522 7.5 7.96684H7.60465C7.60465 7.96684 7.62209 7.98428 7.65698 8.01914V8.03658C7.62209 8.03658 7.59884 8.03076 7.58721 8.01914C7.58721 8.06563 7.59884 8.08887 7.62209 8.08887H7.77907C7.77907 8.11212 7.77326 8.12955 7.76163 8.14117C7.75 8.15279 7.74419 8.16442 7.74419 8.17604L7.76163 8.19347C7.76163 8.20509 7.76744 8.21672 7.77907 8.22834C7.7907 8.21672 7.80233 8.2109 7.81395 8.2109C7.82558 8.2109 7.8314 8.19928 7.8314 8.17604C7.84302 8.16442 7.84302 8.15279 7.8314 8.14117C7.84302 8.10631 7.84884 8.11212 7.84884 8.15861C7.87209 8.17023 7.87791 8.17604 7.86628 8.17604C7.85465 8.17604 7.84884 8.18766 7.84884 8.2109C7.87209 8.2109 7.88372 8.21672 7.88372 8.22834C7.89535 8.22834 7.90698 8.22834 7.91861 8.22834C7.91861 8.25158 7.92442 8.27483 7.93605 8.29807C7.94767 8.30969 7.95349 8.32712 7.95349 8.35037C8 8.32712 8.02326 8.32712 8.02326 8.35037V8.38523V8.35037H7.98837L7.97093 8.38523C7.97093 8.39686 7.97674 8.40267 7.98837 8.40267C8.01163 8.40267 8.02326 8.40848 8.02326 8.4201C8.03488 8.4201 8.05233 8.41429 8.07558 8.40267C8.0407 8.44915 8.0407 8.48402 8.07558 8.50726L8.09302 8.5247C8.13954 8.5247 8.16861 8.54213 8.18023 8.577H8.16279C8.17442 8.577 8.18023 8.58281 8.18023 8.59443V8.69903H8.23256C8.24419 8.69903 8.25 8.70484 8.25 8.71646C8.25 8.71646 8.25581 8.71646 8.26744 8.71646H8.28488C8.29651 8.7397 8.31395 8.75714 8.33721 8.76876H8.31977C8.30814 8.76876 8.30233 8.78619 8.30233 8.82106C8.32558 8.82106 8.34302 8.80362 8.35465 8.76876V8.82106C8.38954 8.85592 8.43023 8.87335 8.47675 8.87335C8.47675 8.90822 8.51163 8.9489 8.5814 8.99539C8.55814 8.99539 8.5407 9.0012 8.52907 9.01282C8.52907 9.01282 8.52326 9.01282 8.51163 9.01282C8.51163 9.02444 8.51744 9.03025 8.52907 9.03025H8.54651H8.5814H8.59884H8.65116H8.66861H8.75581V9.06512V9.08255C8.75581 9.10579 8.74419 9.11742 8.72093 9.11742H8.70349H8.66861C8.66861 9.14066 8.68023 9.15228 8.70349 9.15228C8.72674 9.15228 8.72674 9.1639 8.70349 9.18715C8.70349 9.19877 8.7093 9.20458 8.72093 9.20458H8.75581C8.76744 9.20458 8.77326 9.2162 8.77326 9.23945C8.77326 9.23945 8.75 9.24526 8.70349 9.25688C8.76163 9.31499 8.76163 9.3731 8.70349 9.43121V9.44864C8.68023 9.44864 8.66279 9.46607 8.65116 9.50094C8.63954 9.51256 8.62209 9.51837 8.59884 9.51837C8.59884 9.54162 8.60465 9.55324 8.61628 9.55324C8.62791 9.55324 8.62209 9.55905 8.59884 9.57067C8.59884 9.57067 8.59302 9.56486 8.5814 9.55324V9.57067H8.52907C8.56395 9.57067 8.58721 9.57648 8.59884 9.5881C8.62209 9.59973 8.62209 9.61135 8.59884 9.62297V9.67527C8.59884 9.67527 8.61047 9.67527 8.63372 9.67527V9.6927C8.64535 9.6927 8.65698 9.70432 8.66861 9.72757C8.64535 9.72757 8.63372 9.73919 8.63372 9.76243V9.7973C8.64535 9.77406 8.65698 9.75662 8.66861 9.745H8.68605C8.69767 9.745 8.70349 9.745 8.70349 9.745C8.71512 9.73338 8.73256 9.72757 8.75581 9.72757C8.74419 9.73919 8.73256 9.745 8.72093 9.745H8.70349V9.76243C8.68023 9.76243 8.66279 9.77406 8.65116 9.7973C8.66279 9.83217 8.67442 9.85541 8.68605 9.86703C8.7093 9.86703 8.73837 9.87284 8.77326 9.88446C8.76163 9.88446 8.75581 9.89028 8.75581 9.9019C8.75581 9.9019 8.75 9.9019 8.73837 9.9019C8.72675 9.91352 8.71512 9.91933 8.70349 9.91933C8.70349 9.93095 8.7093 9.94257 8.72093 9.9542C8.74419 9.9542 8.75581 9.96582 8.75581 9.98906C8.77907 9.94257 8.7907 9.91933 8.7907 9.91933C8.7907 9.93095 8.79651 9.93676 8.80814 9.93676L8.82558 9.9542C8.82558 9.97744 8.8314 9.98906 8.84302 9.98906C8.86628 9.98906 8.87791 10.0007 8.87791 10.0239C8.87791 10.0355 8.88954 10.0414 8.91279 10.0414V10.0588C8.8314 10.082 8.81977 10.1053 8.87791 10.1285V10.1634C8.90116 10.1634 8.91279 10.1692 8.91279 10.1808C8.91279 10.1924 8.92442 10.2099 8.94767 10.2331C8.92442 10.2331 8.90116 10.2389 8.87791 10.2506C8.90116 10.2506 8.90116 10.268 8.87791 10.3029C8.90116 10.3145 8.91861 10.3319 8.93023 10.3552C8.95349 10.3668 8.97674 10.3842 9 10.4075C8.97674 10.4075 8.96512 10.4191 8.96512 10.4423L8.94767 10.4772V10.5643C8.97093 10.6225 8.94768 10.6573 8.87791 10.6689V10.7212H8.91279C8.91279 10.7329 8.90698 10.7387 8.89535 10.7387H8.87791C8.90116 10.7619 8.92442 10.7735 8.94767 10.7735C8.92442 10.7852 8.91861 10.791 8.93023 10.791C8.95349 10.791 8.96512 10.7968 8.96512 10.8084ZM5.52907 8.33293C5.51744 8.30969 5.5 8.29226 5.47674 8.28064C5.45349 8.26901 5.43023 8.25158 5.40698 8.22834C5.40698 8.21672 5.40116 8.19928 5.38954 8.17604L5.37209 8.15861C5.36047 8.15861 5.35465 8.15279 5.35465 8.14117C5.35465 8.11793 5.34302 8.09468 5.31977 8.07144C5.3314 8.07144 5.33721 8.05982 5.33721 8.03658H5.23256C5.23256 8.02495 5.24419 8.01914 5.26744 8.01914C5.30233 8.01914 5.31977 8.00752 5.31977 7.98428C5.31977 7.97265 5.30814 7.96103 5.28488 7.94941C5.28488 7.92617 5.27326 7.90873 5.25 7.89711C5.23837 7.88549 5.23256 7.86806 5.23256 7.84481C5.2093 7.83319 5.19186 7.80995 5.18023 7.77508C5.18023 7.74022 5.1686 7.71697 5.14535 7.70535C5.14535 7.68211 5.13372 7.67048 5.11046 7.67048C5.08721 7.65886 5.06395 7.64143 5.0407 7.61819H5.00581C4.99419 7.61819 4.98837 7.61237 4.98837 7.60075L4.97093 7.54845C4.92442 7.54845 4.90116 7.53102 4.90116 7.49615C4.90116 7.49615 4.88953 7.49034 4.86628 7.47872C4.85465 7.4671 4.84884 7.44967 4.84884 7.42642C4.84884 7.39156 4.84302 7.3625 4.8314 7.33926L4.77907 7.28696H4.72674C4.72674 7.26372 4.74419 7.24047 4.77907 7.21723H4.67442C4.66279 7.21723 4.65698 7.21142 4.65698 7.1998C4.64535 7.1998 4.63954 7.1998 4.63954 7.1998C4.63954 7.18817 4.63372 7.18236 4.62209 7.18236C4.62209 7.18236 4.59884 7.16493 4.55233 7.13006C4.5407 7.13006 4.53488 7.12425 4.53488 7.11263C4.51163 7.10101 4.5 7.08939 4.5 7.07776C4.5 7.05452 4.49419 7.0429 4.48256 7.0429C4.47093 7.01966 4.44186 6.98479 4.39535 6.9383C4.37209 6.9383 4.34884 6.93249 4.32558 6.92087C4.31395 6.90925 4.31977 6.886 4.34302 6.85114C4.31977 6.85114 4.29651 6.84533 4.27326 6.8337C4.26163 6.82208 4.24419 6.82789 4.22093 6.85114L4.1686 6.79884C4.13372 6.79884 4.11628 6.78722 4.11628 6.76397C4.13954 6.69424 4.11628 6.63032 4.04651 6.57221C4.04651 6.59545 4.02907 6.60708 3.99419 6.60708C3.99419 6.56059 4 6.54316 4.01163 6.55478C4.02326 6.5664 4.03488 6.57221 4.04651 6.57221V6.53734C4.04651 6.53734 4.06395 6.52572 4.09884 6.50248C4.05233 6.50248 4.02907 6.49667 4.02907 6.48505C4.00581 6.4618 3.97674 6.45018 3.94186 6.45018C3.94186 6.45018 3.93605 6.44437 3.92442 6.43275C3.90116 6.43275 3.88372 6.42694 3.87209 6.41531C3.86047 6.40369 3.84302 6.39788 3.81977 6.39788C3.79651 6.42112 3.76744 6.42112 3.73256 6.39788C3.69767 6.36302 3.67442 6.33396 3.66279 6.31072C3.62791 6.31072 3.61047 6.31072 3.61047 6.31072H3.57558C3.56395 6.31072 3.5407 6.30491 3.50581 6.29328V6.25842H3.43605L3.40116 6.22355L3.38372 6.20612V6.17125H3.31395V6.13639H3.24419V6.17125V6.20612H3.13953C3.11628 6.25261 3.09302 6.25261 3.06977 6.20612C3.06977 6.22936 3.06395 6.24098 3.05233 6.24098C3.05233 6.24098 3.05233 6.2468 3.05233 6.25842C3.05233 6.22355 3.03488 6.20612 3 6.20612H2.96512V6.24098H2.94767C2.92442 6.21774 2.90116 6.21774 2.87791 6.24098C2.86628 6.25261 2.84884 6.27004 2.82558 6.29328V6.31072C2.82558 6.32234 2.8314 6.32815 2.84302 6.32815H2.87791C2.85465 6.32815 2.84884 6.33396 2.86046 6.34558C2.87209 6.3572 2.88372 6.36302 2.89535 6.36302C2.88372 6.36302 2.87791 6.37464 2.87791 6.39788V6.43275C2.85465 6.43275 2.84884 6.44437 2.86046 6.46761C2.87209 6.47923 2.88372 6.48505 2.89535 6.48505V6.45018H2.93023L2.94767 6.48505C2.94767 6.49667 2.9593 6.50248 2.98256 6.50248C2.99419 6.50248 3 6.50829 3 6.51991V6.57221C3 6.57221 2.99419 6.56059 2.98256 6.53734V6.51991H2.96512C2.96512 6.55478 2.97093 6.57802 2.98256 6.58964C2.98256 6.60126 2.98837 6.60708 3 6.60708V6.62451L2.96512 6.60708V6.64194C2.98837 6.66519 3 6.671 3 6.65937C3.01163 6.64775 3.02907 6.65356 3.05233 6.67681L3 6.69424L2.96512 6.74654H3C3.03488 6.75816 3.05233 6.78141 3.05233 6.81627C3.02907 6.83951 3.00581 6.85114 2.98256 6.85114C2.97093 6.85114 2.9593 6.85695 2.94767 6.86857C2.94767 6.89181 2.94767 6.90925 2.94767 6.92087C2.9593 6.93249 2.96512 6.94992 2.96512 6.97317C2.94186 6.97317 2.93023 6.96155 2.93023 6.9383C2.90698 6.9383 2.89535 6.93249 2.89535 6.92087C2.90698 6.89762 2.90116 6.89762 2.87791 6.92087V6.9383C2.87791 6.92668 2.86047 6.9383 2.82558 6.97317V6.9906H2.87791C2.88953 7.00222 2.89535 7.01384 2.89535 7.02547C2.89535 7.03709 2.90698 7.0429 2.93023 7.0429V7.0952C2.93023 7.10682 2.93605 7.11263 2.94767 7.11263C2.94767 7.12425 2.95349 7.13006 2.96512 7.13006C2.94186 7.17655 2.93023 7.20561 2.93023 7.21723V7.23466C2.93023 7.24628 2.93605 7.25209 2.94767 7.25209H2.96512V7.18236C2.98837 7.20561 3.00581 7.22885 3.01744 7.25209C3.0407 7.27534 3.05814 7.28696 3.06977 7.28696V7.33926V7.37412V7.46129C3.0814 7.46129 3.09884 7.4671 3.12209 7.47872H3.06977C3.06977 7.52521 3.06977 7.54845 3.06977 7.54845C3.0814 7.5717 3.0814 7.58913 3.06977 7.60075C3.05814 7.61237 3.05814 7.62981 3.06977 7.65305C3.11628 7.65305 3.12209 7.67048 3.08721 7.70535C3.08721 7.70535 3.08721 7.72859 3.08721 7.77508C3.11047 7.7867 3.11628 7.79833 3.10465 7.80995C3.09302 7.82157 3.08721 7.83319 3.08721 7.84481C3.08721 7.84481 3.0814 7.85062 3.06977 7.86225H3C3.02326 7.90873 3.03488 7.93779 3.03488 7.94941C3.04651 7.96103 3.05233 7.97265 3.05233 7.98428H3C3 8.00752 3.00581 8.03076 3.01744 8.05401C3.0407 8.06563 3.05814 8.07725 3.06977 8.08887C3.06977 8.11212 3.06395 8.12374 3.05233 8.12374C3.05233 8.12374 3.05233 8.12955 3.05233 8.14117V8.15861C2.99419 8.18185 2.97674 8.19928 3 8.2109C3 8.22253 3.02326 8.22834 3.06977 8.22834C3.10465 8.22834 3.12209 8.23996 3.12209 8.2632C3.12209 8.28645 3.10465 8.29807 3.06977 8.29807C3.0814 8.32131 3.08721 8.35037 3.08721 8.38523C3.11047 8.38523 3.12791 8.39104 3.13953 8.40267H3.17442L3.2093 8.4201C3.18605 8.44334 3.18023 8.45497 3.19186 8.45497C3.20349 8.44334 3.22093 8.44915 3.24419 8.4724C3.24419 8.49564 3.26163 8.51307 3.29651 8.5247C3.29651 8.5247 3.30233 8.53051 3.31395 8.54213V8.59443C3.36047 8.59443 3.39535 8.61186 3.4186 8.64673C3.39535 8.65835 3.38372 8.67578 3.38372 8.69903C3.38372 8.71065 3.38953 8.71646 3.40116 8.71646H3.4186C3.43023 8.71646 3.43605 8.72808 3.43605 8.75132C3.43605 8.76295 3.44186 8.76876 3.45349 8.76876L3.48837 8.82106C3.46512 8.83268 3.44767 8.85011 3.43605 8.87335H3.45349V8.89079C3.45349 8.89079 3.46512 8.8966 3.48837 8.90822H3.43605C3.43605 8.97795 3.45349 9.01282 3.48837 9.01282C3.46512 9.01282 3.45349 9.0012 3.45349 8.97795V8.94309C3.48837 8.94309 3.52907 8.96052 3.57558 8.99539C3.59884 8.99539 3.61047 9.0012 3.61047 9.01282C3.61047 9.01282 3.61628 9.01282 3.62791 9.01282L3.66279 9.03025H3.68023L3.69767 9.06512C3.69767 9.06512 3.69186 9.07093 3.68023 9.08255H3.69767C3.68605 9.10579 3.68023 9.11742 3.68023 9.11742C3.69186 9.11742 3.69767 9.12904 3.69767 9.15228H3.75H3.78488C3.76163 9.17553 3.75581 9.18715 3.76744 9.18715C3.7907 9.18715 3.79651 9.19296 3.78488 9.20458C3.78488 9.22782 3.78488 9.23945 3.78488 9.23945C3.79651 9.23945 3.80233 9.24526 3.80233 9.25688C3.76744 9.25688 3.75 9.26269 3.75 9.27431C3.79651 9.34404 3.81977 9.37891 3.81977 9.37891V9.50094V9.57067V9.5881C3.81977 9.59973 3.81395 9.60554 3.80233 9.60554C3.7907 9.58229 3.77907 9.58229 3.76744 9.60554C3.76744 9.61716 3.74419 9.62297 3.69767 9.62297C3.72093 9.64621 3.72674 9.66365 3.71512 9.67527C3.70349 9.68689 3.69186 9.70432 3.68023 9.72757C3.69186 9.72757 3.69767 9.73338 3.69767 9.745L3.75 9.76243C3.77326 9.7973 3.75581 9.81473 3.69767 9.81473C3.67442 9.81473 3.6686 9.83217 3.68023 9.86703C3.68023 9.87865 3.67442 9.88446 3.66279 9.88446C3.66279 9.88446 3.66279 9.89028 3.66279 9.9019V9.91933C3.66279 9.94257 3.66279 9.9542 3.66279 9.9542C3.67442 9.9542 3.68023 9.96582 3.68023 9.98906V10.0588V10.0762V10.1111H3.66279C3.66279 10.0762 3.64535 10.053 3.61047 10.0414V10.0588C3.58721 10.0704 3.57558 10.082 3.57558 10.0937C3.57558 10.1053 3.58721 10.1111 3.61047 10.1111L3.62791 10.1285V10.1634C3.60465 10.1634 3.5814 10.1866 3.55814 10.2331C3.55814 10.2099 3.53488 10.1983 3.48837 10.1983V10.2331H3.55814C3.55814 10.2447 3.53488 10.2506 3.48837 10.2506L3.45349 10.2854C3.47674 10.297 3.48837 10.3261 3.48837 10.3726L3.50581 10.4075C3.5407 10.4191 3.56395 10.4191 3.57558 10.4075C3.57558 10.4191 3.5814 10.4249 3.59302 10.4249C3.60465 10.4249 3.61047 10.4307 3.61047 10.4423H3.62791C3.65116 10.4423 3.66279 10.4481 3.66279 10.4598C3.66279 10.4714 3.6686 10.483 3.68023 10.4946C3.6686 10.5062 3.66279 10.5179 3.66279 10.5295V10.5643C3.62791 10.5643 3.61047 10.576 3.61047 10.5992C3.61047 10.6108 3.62791 10.6166 3.66279 10.6166H3.75C3.75 10.5818 3.73256 10.5411 3.69767 10.4946C3.75581 10.5527 3.78488 10.5876 3.78488 10.5992C3.79651 10.5992 3.80233 10.605 3.80233 10.6166C3.80233 10.6166 3.80814 10.6166 3.81977 10.6166C3.84302 10.6166 3.86047 10.6225 3.87209 10.6341C3.88372 10.6457 3.90116 10.6573 3.92442 10.6689C3.92442 10.6922 3.92442 10.7096 3.92442 10.7212C3.93605 10.7212 3.94186 10.7271 3.94186 10.7387C3.94186 10.7387 3.94767 10.7329 3.9593 10.7212H3.97674V10.6689L4.09884 10.791C4.09884 10.8142 4.09884 10.8375 4.09884 10.8607C4.11047 10.884 4.11047 10.9072 4.09884 10.9304L4.11628 10.9653C4.15116 10.9653 4.1686 10.9421 4.1686 10.8956C4.18023 10.9072 4.18023 10.9188 4.1686 10.9304C4.1686 10.9421 4.17442 10.9595 4.18605 10.9827H4.15116C4.16279 11.006 4.17442 11.0176 4.18605 11.0176V10.9827C4.2093 11.006 4.2093 11.0292 4.18605 11.0525C4.2093 11.0757 4.22093 11.0931 4.22093 11.1048C4.23256 11.1048 4.25 11.1164 4.27326 11.1396C4.27326 11.1513 4.28488 11.1803 4.30814 11.2268V11.2617C4.36628 11.2965 4.39535 11.3198 4.39535 11.3314C4.4186 11.343 4.43023 11.3546 4.43023 11.3663C4.43023 11.3779 4.44186 11.3721 4.46512 11.3488H4.48256C4.48256 11.3605 4.47674 11.3721 4.46512 11.3837V11.4011V11.4186C4.47674 11.4186 4.48256 11.436 4.48256 11.4709C4.47093 11.4941 4.46512 11.529 4.46512 11.5755H4.48256V11.6278C4.51744 11.6278 4.53488 11.6394 4.53488 11.6626H4.62209V11.7149C4.64535 11.7149 4.66279 11.7149 4.67442 11.7149C4.69767 11.7033 4.71512 11.6975 4.72674 11.6975C4.72674 11.6742 4.73256 11.6626 4.74419 11.6626C4.76744 11.6626 4.78488 11.6568 4.79651 11.6452C4.8314 11.6336 4.86628 11.5929 4.90116 11.5232C4.90116 11.4767 4.94186 11.4534 5.02326 11.4534C5.02326 11.4186 5.02907 11.3837 5.0407 11.3488H4.98837C4.98837 11.3023 5 11.2733 5.02326 11.2617C5.05814 11.2617 5.08721 11.2326 5.11046 11.1745H5.14535L5.16279 11.1571V11.1048C5.18605 11.0931 5.20349 11.0757 5.21512 11.0525C5.23837 11.0292 5.27326 11.006 5.31977 10.9827V10.9653C5.34302 10.9304 5.36628 10.9072 5.38954 10.8956C5.38954 10.8491 5.40698 10.8142 5.44186 10.791C5.44186 10.791 5.43023 10.7852 5.40698 10.7735C5.43023 10.7503 5.43605 10.7329 5.42442 10.7212C5.41279 10.7096 5.41861 10.6922 5.44186 10.6689C5.46512 10.6573 5.48256 10.6341 5.49419 10.5992C5.50581 10.5643 5.5 10.5295 5.47674 10.4946C5.5 10.4946 5.51163 10.4888 5.51163 10.4772C5.52326 10.4539 5.5407 10.4423 5.56395 10.4423C5.5407 10.4307 5.52326 10.4249 5.51163 10.4249C5.51163 10.4133 5.51744 10.3958 5.52907 10.3726V10.3552C5.52907 10.3319 5.5407 10.3203 5.56395 10.3203C5.57558 10.3203 5.5814 10.3203 5.5814 10.3203C5.5814 10.3087 5.58721 10.3029 5.59884 10.3029C5.59884 10.2796 5.58721 10.2564 5.56395 10.2331H5.5814C5.59302 10.2099 5.60465 10.1924 5.61628 10.1808C5.62791 10.1692 5.62209 10.1518 5.59884 10.1285C5.62209 10.1169 5.62209 10.1053 5.59884 10.0937C5.58721 10.082 5.58721 10.0704 5.59884 10.0588C5.59884 10.0007 5.60465 9.96001 5.61628 9.93676C5.63954 9.91352 5.65116 9.89028 5.65116 9.86703H5.68605C5.68605 9.82054 5.67442 9.7973 5.65116 9.7973C5.65116 9.77406 5.63954 9.76243 5.61628 9.76243H5.59884C5.62209 9.75081 5.63372 9.745 5.63372 9.745C5.64535 9.73338 5.66279 9.71595 5.68605 9.6927H5.6686C5.65698 9.6927 5.65116 9.68689 5.65116 9.67527C5.65116 9.65202 5.65698 9.62878 5.6686 9.60554C5.68023 9.57067 5.68605 9.54162 5.68605 9.51837C5.72093 9.48351 5.72674 9.45445 5.70349 9.43121V9.37891C5.70349 9.34404 5.7093 9.30918 5.72093 9.27431C5.74419 9.27431 5.76163 9.2685 5.77326 9.25688C5.75 9.25688 5.73256 9.25688 5.72093 9.25688C5.72093 9.24526 5.73256 9.23945 5.75581 9.23945C5.73256 9.2162 5.7093 9.20458 5.68605 9.20458C5.68605 9.20458 5.69186 9.19877 5.70349 9.18715C5.71512 9.18715 5.73256 9.17553 5.75581 9.15228H5.77326C5.80814 9.12904 5.80814 9.11742 5.77326 9.11742C5.77326 9.08255 5.75581 9.08255 5.72093 9.11742V9.03025C5.74419 9.03025 5.75581 9.01863 5.75581 8.99539V8.94309V8.90822C5.73256 8.88498 5.72093 8.83849 5.72093 8.76876L5.75581 8.75132C5.76744 8.75132 5.77326 8.7397 5.77326 8.71646C5.76163 8.71646 5.75581 8.71065 5.75581 8.69903H5.72093C5.72093 8.66416 5.7093 8.64673 5.68605 8.64673C5.68605 8.58862 5.69767 8.54794 5.72093 8.5247C5.72093 8.5247 5.69767 8.48983 5.65116 8.4201L5.59884 8.40267V8.38523H5.5814C5.59302 8.35037 5.58721 8.33293 5.56395 8.33293H5.52907ZM5.75581 5.96206H5.73837C5.72674 5.96206 5.72093 5.95625 5.72093 5.94462C5.69767 5.94462 5.68605 5.94462 5.68605 5.94462V5.92719C5.68605 5.92719 5.69186 5.91557 5.70349 5.89233L5.68605 5.92719L5.65116 5.89233C5.65116 5.91557 5.63372 5.933 5.59884 5.94462C5.58721 5.933 5.57558 5.92719 5.56395 5.92719C5.56395 5.92719 5.55233 5.91557 5.52907 5.89233H5.56395H5.5814C5.59302 5.8807 5.60465 5.8807 5.61628 5.89233C5.63954 5.89233 5.66279 5.89233 5.68605 5.89233H5.70349C5.73837 5.8807 5.74419 5.85746 5.72093 5.82259V5.80516C5.72093 5.78192 5.71512 5.7703 5.70349 5.7703C5.70349 5.7703 5.70349 5.76449 5.70349 5.75286C5.70349 5.718 5.69767 5.68313 5.68605 5.64827V5.63083C5.68605 5.59597 5.67442 5.57853 5.65116 5.57853H5.56395C5.57558 5.54367 5.57558 5.50299 5.56395 5.4565H5.52907C5.52907 5.41002 5.51163 5.39258 5.47674 5.4042C5.5 5.38096 5.50581 5.36353 5.49419 5.35191C5.48256 5.32866 5.48837 5.30542 5.51163 5.28217H5.44186C5.44186 5.27055 5.43605 5.26474 5.42442 5.26474C5.41279 5.26474 5.40698 5.25312 5.40698 5.22988C5.43023 5.21825 5.43605 5.21244 5.42442 5.21244C5.41279 5.21244 5.40698 5.20663 5.40698 5.19501H5.38954V5.14271C5.35465 5.10784 5.35465 5.09041 5.38954 5.09041L5.35465 5.07298C5.34302 5.07298 5.33721 5.06717 5.33721 5.05555V5.03811C5.30233 4.99163 5.28488 4.94514 5.28488 4.89865V4.91608C5.25 4.90446 5.23256 4.88122 5.23256 4.84635C5.23256 4.81149 5.22093 4.79405 5.19767 4.79405V4.77662C5.16279 4.73013 5.14535 4.69527 5.14535 4.67202C5.14535 4.63716 5.13372 4.61972 5.11046 4.61972C5.08721 4.6081 5.07558 4.60229 5.07558 4.60229C5.07558 4.59067 5.06395 4.58486 5.0407 4.58486C5.02907 4.56161 5.01744 4.53837 5.00581 4.51513C5.00581 4.48026 4.99419 4.45121 4.97093 4.42796H4.98837V4.41053L5.02326 4.3931V4.35823H4.98837H4.97093V4.3931C4.97093 4.3931 4.97093 4.38147 4.97093 4.35823V4.3408H4.86628C4.86628 4.3408 4.85465 4.3408 4.8314 4.3408L4.79651 4.30593C4.75 4.30593 4.72674 4.29431 4.72674 4.27107C4.71512 4.27107 4.7093 4.26525 4.7093 4.25363C4.7093 4.24201 4.69767 4.2362 4.67442 4.2362C4.67442 4.25944 4.66861 4.27107 4.65698 4.27107L4.62209 4.2362V4.21877C4.59884 4.19552 4.58721 4.1839 4.58721 4.1839H4.55233C4.51744 4.14903 4.5 4.13741 4.5 4.14903C4.5 4.10255 4.47674 4.06768 4.43023 4.04444H4.41279C4.40116 4.04444 4.39535 4.05025 4.39535 4.06187H4.36047L4.34302 4.04444C4.31977 4.04444 4.30814 4.04444 4.30814 4.04444C4.30814 4.03282 4.30233 4.027 4.2907 4.027C4.2907 4.027 4.28488 4.03282 4.27326 4.04444C4.27326 4.04444 4.26163 4.03863 4.23837 4.027H4.22093C4.19767 4.00376 4.18605 3.98633 4.18605 3.97471C4.17442 3.95146 4.1686 3.93403 4.1686 3.92241C4.1686 3.91078 4.16279 3.89335 4.15116 3.87011C4.12791 3.85849 4.11047 3.84105 4.09884 3.81781C4.09884 3.81781 4.08721 3.812 4.06395 3.80038H4.04651C4.04651 3.75389 4.02907 3.73064 3.99419 3.73064C3.99419 3.71902 3.98837 3.7074 3.97674 3.69578C3.97674 3.68416 3.9593 3.67835 3.92442 3.67835L3.94186 3.66091C3.93023 3.66091 3.92442 3.6551 3.92442 3.64348V3.62605C3.88954 3.62605 3.87209 3.6028 3.87209 3.55631C3.87209 3.53307 3.85465 3.50983 3.81977 3.48658L3.80233 3.45172C3.7907 3.42847 3.76744 3.40523 3.73256 3.38199C3.7093 3.35874 3.68605 3.3355 3.66279 3.31225C3.62791 3.31225 3.61047 3.28901 3.61047 3.24252C3.5407 3.24252 3.50581 3.21928 3.50581 3.17279C3.50581 3.16117 3.5 3.14955 3.48837 3.13793L3.45349 3.12049C3.44186 3.12049 3.43023 3.1263 3.4186 3.13793V3.15536C3.4186 3.1786 3.42442 3.19022 3.43605 3.19022C3.37791 3.1786 3.33721 3.15536 3.31395 3.12049C3.30233 3.13211 3.29651 3.14955 3.29651 3.17279C3.27326 3.14955 3.26163 3.13793 3.26163 3.13793V3.12049L3.29651 3.06819C3.30814 3.06819 3.31395 3.06238 3.31395 3.05076C3.30233 3.05076 3.2907 3.04495 3.27907 3.03333C3.26744 3.02171 3.25581 3.0159 3.24419 3.0159C3.25581 3.05076 3.25581 3.08563 3.24419 3.12049C3.16279 3.06238 3.11047 3.06819 3.08721 3.13793C3.08721 3.13793 3.0814 3.1263 3.06977 3.10306V3.06819C3.06977 3.05657 3.06395 3.04495 3.05233 3.03333C3.05233 3.02171 3.05233 3.01008 3.05233 2.99846C3.05233 3.01008 3.0407 3.02171 3.01744 3.03333C3.00581 3.04495 3 3.05657 3 3.06819C3 3.09144 3.00581 3.10887 3.01744 3.12049C3.0407 3.12049 3.05233 3.1263 3.05233 3.13793C3.07558 3.16117 3.0814 3.1786 3.06977 3.19022C3.05814 3.20185 3.0407 3.20766 3.01744 3.20766C3.00581 3.20766 3 3.21928 3 3.24252C2.96512 3.24252 2.94186 3.26577 2.93023 3.31225L2.89535 3.29482C2.88372 3.30644 2.87791 3.3355 2.87791 3.38199V3.50402V3.53888L2.89535 3.55631C2.89535 3.6028 2.90698 3.63767 2.93023 3.66091C2.88372 3.68416 2.86628 3.69578 2.87791 3.69578C2.87791 3.71902 2.86628 3.73064 2.84302 3.73064C2.8314 3.73064 2.82558 3.73646 2.82558 3.74808C2.82558 3.79457 2.84302 3.82943 2.87791 3.85267C2.90116 3.8643 2.92442 3.90497 2.94767 3.97471V4.00957C2.94767 4.02119 2.95349 4.027 2.96512 4.027C2.96512 4.07349 2.9593 4.09674 2.94767 4.09674C2.92442 4.1316 2.91279 4.14903 2.91279 4.14903H2.89535H2.87791L2.89535 4.16647C2.89535 4.16647 2.88953 4.17228 2.87791 4.1839H2.82558C2.84884 4.20714 2.85465 4.23039 2.84302 4.25363C2.84302 4.26525 2.85465 4.28269 2.87791 4.30593H2.82558C2.82558 4.32917 2.8314 4.3408 2.84302 4.3408H2.87791C2.87791 4.37566 2.86047 4.3931 2.82558 4.3931C2.86047 4.40472 2.87791 4.42796 2.87791 4.46283V4.51513C2.87791 4.53837 2.86047 4.54999 2.82558 4.54999V4.60229C2.82558 4.61391 2.84302 4.61972 2.87791 4.61972L2.89535 4.67202C2.88372 4.67202 2.87791 4.68364 2.87791 4.70689C2.91279 4.71851 2.93023 4.74175 2.93023 4.77662C2.93023 4.78824 2.93605 4.81149 2.94767 4.84635C2.91279 4.85797 2.89535 4.88122 2.89535 4.91608V4.93352C2.89535 4.94514 2.88953 4.95095 2.87791 4.95095C2.87791 4.96257 2.86628 4.97419 2.84302 4.98581C2.8314 4.99744 2.81977 4.99163 2.80814 4.96838C2.80814 5.01487 2.79651 5.0323 2.77326 5.02068C2.77326 5.02068 2.76744 5.02649 2.75581 5.03811C2.76744 5.03811 2.77326 5.04974 2.77326 5.07298L2.75581 5.09041C2.7907 5.09041 2.80814 5.10784 2.80814 5.14271C2.80814 5.16595 2.80814 5.18339 2.80814 5.19501C2.81977 5.20663 2.82558 5.21825 2.82558 5.22988H2.77326C2.80814 5.28799 2.84302 5.31704 2.87791 5.31704C2.88953 5.34028 2.90116 5.35191 2.91279 5.35191C2.92442 5.35191 2.9186 5.36353 2.89535 5.38677V5.43907C2.93023 5.45069 2.95349 5.47975 2.96512 5.52624C2.95349 5.54948 2.94767 5.5611 2.94767 5.5611C2.9593 5.5611 2.96512 5.56691 2.96512 5.57853V5.63083H3.05233C3.06395 5.64245 3.07558 5.65989 3.08721 5.68313C3.09884 5.69475 3.11628 5.70638 3.13953 5.718L3.17442 5.75286V5.7703H3.2093C3.23256 5.7703 3.24419 5.76449 3.24419 5.75286H3.26163C3.29651 5.77611 3.31395 5.79354 3.31395 5.80516C3.32558 5.80516 3.33721 5.81097 3.34884 5.82259C3.37209 5.82259 3.39535 5.81678 3.4186 5.80516C3.4186 5.81678 3.4186 5.82841 3.4186 5.84003C3.43023 5.84003 3.43605 5.85165 3.43605 5.87489C3.43605 5.84003 3.44186 5.82259 3.45349 5.82259C3.45349 5.85746 3.47093 5.87489 3.50581 5.87489C3.5407 5.88652 3.56977 5.89814 3.59302 5.90976C3.61628 5.92138 3.63954 5.933 3.66279 5.94462V5.96206V6.06666C3.67442 6.07828 3.70349 6.07828 3.75 6.06666C3.75 6.05503 3.76163 6.04922 3.78488 6.04922C3.79651 6.06084 3.81977 6.04341 3.85465 5.99692C3.85465 6.03179 3.86047 6.04922 3.87209 6.04922C3.90698 6.06084 3.93605 6.07828 3.9593 6.10152C3.98256 6.11314 4.00581 6.12477 4.02907 6.13639C4.05233 6.18288 4.07558 6.1945 4.09884 6.17125C4.13372 6.17125 4.15698 6.18288 4.1686 6.20612V6.25842C4.18023 6.28166 4.19186 6.28747 4.20349 6.27585C4.21512 6.26423 4.22093 6.25261 4.22093 6.24098C4.22093 6.21774 4.2093 6.1945 4.18605 6.17125C4.19767 6.17125 4.2093 6.17706 4.22093 6.18869V6.20612C4.24419 6.22936 4.27326 6.27004 4.30814 6.32815V6.36302C4.30814 6.38626 4.31395 6.39788 4.32558 6.39788H4.34302C4.36628 6.39788 4.37209 6.39788 4.36047 6.39788C4.36047 6.39788 4.37209 6.4095 4.39535 6.43275H4.30814V6.45018V6.46761C4.30814 6.47923 4.31977 6.48505 4.34302 6.48505C4.35465 6.48505 4.36047 6.50248 4.36047 6.53734C4.36047 6.56059 4.36047 6.58383 4.36047 6.60708H4.39535C4.39535 6.63032 4.4186 6.64194 4.46512 6.64194H4.48256V6.62451H4.5H4.48256H4.5C4.5 6.61289 4.49419 6.60708 4.48256 6.60708V6.57221H4.5L4.55233 6.62451H4.60465L4.62209 6.64194C4.64535 6.66519 4.67442 6.67681 4.7093 6.67681C4.74419 6.68843 4.76744 6.70586 4.77907 6.72911C4.7907 6.74073 4.80814 6.75235 4.8314 6.76397C4.84302 6.78722 4.85465 6.79884 4.86628 6.79884H4.90116C4.92442 6.81046 4.94186 6.82208 4.95349 6.8337C4.96512 6.84533 4.97674 6.85114 4.98837 6.85114V6.86857C5.02326 6.91506 5.05233 6.93249 5.07558 6.92087C5.11047 6.89762 5.13372 6.89181 5.14535 6.90344C5.1686 6.90344 5.19186 6.89181 5.21512 6.86857L5.23256 6.85114C5.23256 6.82789 5.25 6.81627 5.28488 6.81627V6.85114C5.29651 6.85114 5.30814 6.85695 5.31977 6.86857C5.3314 6.90344 5.34302 6.92087 5.35465 6.92087C5.34302 6.89762 5.3314 6.88019 5.31977 6.86857C5.31977 6.84533 5.31977 6.82208 5.31977 6.79884C5.3314 6.81046 5.35465 6.79303 5.38954 6.74654C5.42442 6.74654 5.46512 6.72911 5.51163 6.69424C5.51163 6.72911 5.51744 6.74654 5.52907 6.74654V6.69424V6.64194V6.62451C5.55233 6.62451 5.56395 6.6187 5.56395 6.60708C5.56395 6.58383 5.57558 6.57221 5.59884 6.57221V6.51991V6.50248H5.65116V6.48505C5.60465 6.45018 5.5814 6.42112 5.5814 6.39788C5.59302 6.37464 5.59884 6.35139 5.59884 6.32815C5.59884 6.30491 5.61628 6.28166 5.65116 6.25842H5.61628C5.60465 6.25842 5.59884 6.25261 5.59884 6.24098L5.65116 6.20612C5.62791 6.20612 5.62209 6.20612 5.63372 6.20612C5.64535 6.20612 5.65116 6.1945 5.65116 6.17125C5.65116 6.1945 5.66279 6.20612 5.68605 6.20612C5.68605 6.20612 5.69186 6.20031 5.70349 6.18869V6.17125V6.13639H5.68605V6.11895V6.08409H5.65116L5.59884 6.11895C5.58721 6.09571 5.5814 6.07828 5.5814 6.06666C5.5814 6.06666 5.5814 6.0899 5.5814 6.13639C5.56977 6.13639 5.56395 6.12477 5.56395 6.10152V6.08409C5.56395 6.07247 5.56977 6.06084 5.5814 6.04922C5.59302 6.04922 5.61628 6.03179 5.65116 5.99692C5.67442 6.04341 5.68605 6.06084 5.68605 6.04922V6.06666C5.7093 6.07828 5.73256 6.07828 5.75581 6.06666V5.96206Z" fill="black"/>
</svg>
