<svg width="12" height="16" viewBox="0 0 12 16" fill="none" xmlns="http://www.w3.org/2000/svg">
<path d="M12 12.878L11.7597 12.7716C11.7024 12.748 11.6452 12.6829 11.588 12.5765V12.3814H11.5708C11.5365 12.3459 11.5021 12.3282 11.4678 12.3282C11.4678 12.2927 11.4506 12.2513 11.4163 12.204L11.382 12.1685C11.3705 12.1567 11.3648 12.1212 11.3648 12.0621L11.3133 12.0089C11.279 11.9734 11.2618 11.9379 11.2618 11.9024C11.2389 11.9024 11.2217 11.8965 11.2103 11.8847C11.1989 11.861 11.1817 11.8374 11.1588 11.8137L11.0558 11.867V11.8137V11.867C11.0443 11.867 11.0329 11.8729 11.0215 11.8847C11.0215 11.8847 11.0157 11.8847 11.0043 11.8847C10.9928 11.8965 10.9814 11.9024 10.97 11.9024L10.9013 12.0621L10.7983 12.0089C10.7411 12.068 10.6724 12.1035 10.5923 12.1153C10.5122 12.1153 10.4435 12.1153 10.3863 12.1153H10.3348H10.2318V12.1685C10.2318 12.2513 10.2031 12.3222 10.1459 12.3814C10.123 12.4169 10.0944 12.4405 10.0601 12.4523C10.0258 12.4642 9.99714 12.4878 9.97425 12.5233L9.93991 12.6297L9.88841 12.5765L9.78541 12.7007L9.6824 12.5765L9.5279 12.7007L9.47639 12.6297V12.7007H9.42489C9.42489 12.7361 9.41917 12.7598 9.40773 12.7716L9.35622 12.8248L9.30472 12.878C9.28183 12.9017 9.25322 12.9254 9.21888 12.949C9.18455 12.9727 9.16738 12.9963 9.16738 13.02C9.14449 13.0436 9.12732 13.0732 9.11588 13.1086C9.11588 13.1441 9.11016 13.1737 9.09871 13.1973C9.07582 13.2565 9.05293 13.2979 9.03004 13.3215C9.0186 13.3452 8.97282 13.3688 8.8927 13.3925V13.4457C8.86981 13.4812 8.81831 13.4989 8.7382 13.4989H8.68669L8.58369 13.5521H8.54936L8.39485 13.4457V13.4989C8.39485 13.5225 8.37768 13.558 8.34335 13.6053C8.32046 13.6526 8.29185 13.7058 8.25751 13.765V13.8182C8.22318 13.8537 8.18312 13.8773 8.13734 13.8891C8.09156 13.901 8.05722 13.9187 8.03433 13.9423H8.01717C8.01717 13.9897 8.00572 14.0192 7.98283 14.031C7.95994 14.0429 7.93133 14.0606 7.897 14.0843H7.86266C7.85122 14.0843 7.84549 14.102 7.84549 14.1375C7.8226 14.1493 7.80544 14.1611 7.79399 14.1729C7.79399 14.1966 7.78255 14.2084 7.75966 14.2084V14.2616H7.79399C7.81688 14.2853 7.82833 14.3149 7.82833 14.3503C7.83977 14.3976 7.84549 14.4331 7.84549 14.4568V14.51L8.01717 14.5632L7.897 14.7228C7.897 14.7465 7.88555 14.7583 7.86266 14.7583H7.84549V14.8115C7.90272 14.8352 7.93705 14.8647 7.9485 14.9002C7.95994 14.9357 7.96566 14.9653 7.96566 14.9889V15.0244V15.0776V15.184C7.95422 15.1959 7.9485 15.2077 7.9485 15.2195C7.93705 15.2313 7.93133 15.2432 7.93133 15.255C7.93133 15.2668 7.91989 15.2786 7.897 15.2905V15.3082H7.84549V15.3792V15.4324V15.4856V15.5565C7.85694 15.5684 7.86266 15.5802 7.86266 15.592C7.86266 15.6038 7.85694 15.6157 7.84549 15.6275V15.7339L7.75966 16L7.60515 15.8049C7.60515 15.7694 7.59371 15.7339 7.57081 15.6984C7.55937 15.6748 7.55365 15.6334 7.55365 15.5743V15.5565V15.4856C7.55365 15.4619 7.5422 15.4442 7.51931 15.4324C7.50787 15.4205 7.50215 15.4028 7.50215 15.3792C7.4907 15.3673 7.48498 15.3496 7.48498 15.3259C7.48498 15.2905 7.4907 15.2609 7.50215 15.2372L7.46781 15.184C7.44492 15.2077 7.41631 15.2136 7.38197 15.2018C7.35908 15.1899 7.33619 15.184 7.3133 15.184H7.2618L7.2103 15.2372L7.17597 15.184V15.1308H7.12446L7.05579 15.184L7.00429 15.1308C6.9814 15.1545 6.95851 15.1722 6.93562 15.184C6.92418 15.1959 6.90701 15.2136 6.88412 15.2372C6.80401 15.2372 6.74678 15.255 6.71245 15.2905C6.68956 15.2905 6.64378 15.255 6.57511 15.184H6.5236H6.4721V15.2372L6.28326 15.3792V15.184H6.23176H6.16309C6.10587 15.184 6.07725 15.1663 6.07725 15.1308C6.02003 15.1899 5.96853 15.1899 5.92275 15.1308H5.87124C5.8598 15.1308 5.85408 15.1249 5.85408 15.1131V15.0776H5.71674C5.71674 15.1131 5.69957 15.1308 5.66524 15.1308L5.56223 15.3792L5.49356 15.0776C5.41345 15.0776 5.34478 15.048 5.28755 14.9889H4.6867L5.03004 14.8115L4.87554 13.9423L5.18455 14.51C5.21888 14.51 5.23605 14.5218 5.23605 14.5455V14.5632H5.28755H5.49356L5.44206 14.7228H5.45923C5.48212 14.7228 5.49356 14.7347 5.49356 14.7583L5.56223 14.8115H5.61373C5.64807 14.7761 5.69957 14.7583 5.76824 14.7583H5.85408L5.87124 14.6696L5.97425 14.8115L6.02575 14.8647V14.8115L6.16309 14.7583L6.23176 14.8647L6.28326 14.9357H6.33476C6.3691 14.8884 6.41488 14.8647 6.4721 14.8647H6.62661C6.62661 14.8766 6.63233 14.8825 6.64378 14.8825C6.65522 14.8943 6.66094 14.9002 6.66094 14.9002C6.67239 14.9002 6.68956 14.912 6.71245 14.9357C6.75823 14.8174 6.81545 14.7583 6.88412 14.7583C6.91845 14.7347 6.99857 14.7228 7.12446 14.7228C7.14735 14.7228 7.17597 14.7228 7.2103 14.7228C7.25608 14.7228 7.29041 14.7347 7.3133 14.7583L7.41631 14.8115C7.4392 14.8115 7.46209 14.7997 7.48498 14.7761C7.50787 14.7642 7.53076 14.7583 7.55365 14.7583V14.7228V14.7051C7.55365 14.6814 7.53648 14.6696 7.50215 14.6696V14.5632V14.51V14.4213C7.47926 14.3976 7.46781 14.374 7.46781 14.3503V14.3149L7.41631 14.2616L7.46781 14.2084L7.41631 14.1552L7.36481 14.1375C7.30758 14.1729 7.25608 14.1907 7.2103 14.1907C7.16452 14.2025 7.11302 14.2084 7.05579 14.2084L7.00429 14.1552H6.95279H6.93562C6.91273 14.1552 6.89557 14.1493 6.88412 14.1375L6.76395 14.2616L6.66094 14.1375H6.62661L6.57511 14.0843V14.031C6.54077 14.0665 6.51788 14.0843 6.50644 14.0843H6.4721H6.38627L6.33476 14.031V13.9423L6.16309 14.031V13.9423H6.07725H6.02575H5.92275V13.8891H5.87124C5.8598 13.8891 5.85408 13.8832 5.85408 13.8714C5.79685 13.8714 5.76824 13.8359 5.76824 13.765L5.54506 13.5521V13.4989V13.3925L5.49356 13.3392V13.2506C5.45923 13.2506 5.44206 13.2328 5.44206 13.1973C5.41917 13.1973 5.402 13.1855 5.39056 13.1619C5.37911 13.1382 5.35622 13.1086 5.32189 13.0732V13.02L5.08154 12.7716L5.44206 12.8248C5.46495 12.8248 5.48784 12.8367 5.51073 12.8603C5.53362 12.8721 5.55079 12.878 5.56223 12.878L5.61373 12.8248L5.66524 13.02V13.0732C5.69957 13.0732 5.71674 13.085 5.71674 13.1086V13.1441C5.72818 13.1678 5.73963 13.1796 5.75107 13.1796C5.76252 13.1914 5.76824 13.2033 5.76824 13.2151V13.2506H5.85408L5.87124 13.3038L5.92275 13.3392H5.93991C5.9628 13.3392 5.97425 13.357 5.97425 13.3925C5.97425 13.4279 5.99142 13.4634 6.02575 13.4989V13.5521V13.6053H6.07725L6.16309 13.4989V13.6053H6.23176C6.30043 13.6053 6.35193 13.6231 6.38627 13.6585C6.40916 13.6585 6.4206 13.6644 6.4206 13.6763C6.43205 13.6999 6.44921 13.7118 6.4721 13.7118H6.5236H6.62661H6.66094L6.83262 13.6585L6.95279 13.8182H7.05579H7.12446L7.17597 13.6585L7.2618 13.7118V13.6585C7.28469 13.6585 7.30186 13.6467 7.3133 13.6231C7.32475 13.6112 7.34192 13.6053 7.36481 13.6053H7.3133V13.5521V13.4457V13.3925V13.3392H7.2618V13.3038C7.20458 13.3038 7.17597 13.2683 7.17597 13.1973L7.12446 13.1441H7.05579V13.0732L6.95279 13.1441L6.93562 13.02L6.76395 12.9845V12.878H6.71245C6.66667 12.8544 6.62089 12.8367 6.57511 12.8248C6.52933 12.813 6.47783 12.7894 6.4206 12.7539H6.38627H6.28326H6.11159C6.0887 12.7302 6.05436 12.7125 6.00858 12.7007C5.97425 12.6888 5.94564 12.6652 5.92275 12.6297C5.88841 12.5942 5.86552 12.5765 5.85408 12.5765L5.76824 12.5233V12.5765L5.44206 12.4523H5.32189H5.13305V12.4346V12.3814H5.08154H4.99571L5.03004 12.2749H4.99571L4.87554 12.204V12.2749L4.7382 12.1153L4.6867 12.0089C4.61803 12.0089 4.58369 11.9911 4.58369 11.9557L4.48069 12.0089V11.9024C4.43491 11.9024 4.38913 11.8906 4.34335 11.867L4.29185 11.8137V11.7428C4.25751 11.7428 4.24034 11.7251 4.24034 11.6896H4.18884H4.0515L4 11.6364C3.94278 11.6364 3.897 11.6305 3.86266 11.6186V11.6364H3.81116V11.7428V11.8137V11.9024V11.9557L3.9485 11.867L3.91416 12.1685L3.9485 12.204H3.91416C3.93705 12.2395 3.95994 12.2809 3.98283 12.3282C4.00572 12.3755 4.02861 12.4109 4.0515 12.4346V12.4523H4.12017V12.5765C4.15451 12.612 4.17167 12.6711 4.17167 12.7539L4.18884 12.8248V12.9313C4.20029 12.9549 4.21173 12.9727 4.22318 12.9845C4.23462 12.9845 4.24034 12.9904 4.24034 13.0022V13.02C4.24034 13.0673 4.24607 13.0968 4.25751 13.1086L4.29185 13.1441V13.2506L4.34335 13.1441V13.3038L4.41202 13.3392V13.3925V13.6053V13.6585V13.7118L4.53219 14.1375L4.46352 14.031L4.29185 14.0843L4.24034 14.031C4.20601 13.9956 4.18884 13.9601 4.18884 13.9246V13.8891V13.8714L4.12017 13.765V13.7118V13.6053V13.4989C4.07439 13.4989 4.0515 13.493 4.0515 13.4812C4.04006 13.4693 4.04006 13.4575 4.0515 13.4457V13.3392V13.3038V13.4457L3.75966 12.6297V12.9313L3.60515 12.204H3.55365L3.60515 12.1685L3.55365 12.1153V12.0621V12.0089V11.9024C3.51931 11.8788 3.50215 11.8492 3.50215 11.8137C3.50215 11.7783 3.4907 11.7487 3.46781 11.7251C3.45637 11.7132 3.45064 11.7014 3.45064 11.6896C3.42775 11.6659 3.40486 11.6541 3.38197 11.6541C3.35908 11.6423 3.33619 11.6305 3.3133 11.6186H3.2618C3.22747 11.595 3.19886 11.5772 3.17597 11.5654C3.15308 11.5536 3.14163 11.5358 3.14163 11.5122C3.1073 11.5122 3.08441 11.4885 3.07296 11.4412H3.02146C2.95279 11.4412 2.91845 11.4235 2.91845 11.388C2.86123 11.388 2.80973 11.3703 2.76395 11.3348H2.60944H2.55794L2.52361 11.3171H2.4721H2.3691V11.2639L2.30043 11.2106V11.1574H2.28326C2.27182 11.1574 2.26609 11.1397 2.26609 11.1042C2.2432 11.1042 2.22604 11.0983 2.21459 11.0865C2.20315 11.0628 2.18598 11.051 2.16309 11.051C2.1402 11.0037 2.11159 10.9623 2.07725 10.9268C2.05436 10.8914 2.03147 10.844 2.00858 10.7849H1.99142V10.7494C1.93419 10.7494 1.88841 10.7317 1.85408 10.6962L1.75107 10.5898C1.73963 10.578 1.73391 10.5661 1.73391 10.5543V10.4834C1.69957 10.4834 1.66524 10.4656 1.6309 10.4302H1.59657C1.58512 10.4302 1.5794 10.4124 1.5794 10.3769V10.3237C1.55651 10.3001 1.53934 10.2764 1.5279 10.2528C1.51645 10.2291 1.49928 10.2114 1.47639 10.1996C1.45351 10.1996 1.42489 10.1818 1.39056 10.1463L1.28755 10.0399V9.95122L1.23605 9.88027V9.82705V9.77383V9.50776L1.18455 9.45454C1.16166 9.43089 1.13877 9.40724 1.11588 9.38359C1.10444 9.34812 1.09871 9.30673 1.09871 9.25942V9.20621V9.15299C1.05293 9.15299 1.03004 9.14117 1.03004 9.11752C1.0186 9.10569 1.0186 9.09387 1.03004 9.08204L0.841202 9.25942L0.7897 9.0643C0.7897 8.93422 0.835479 8.83961 0.927039 8.78049C0.995708 8.75684 1.03004 8.70953 1.03004 8.63858C1.0186 8.63858 1.0186 8.63267 1.03004 8.62084C1.03004 8.59719 1.05293 8.58537 1.09871 8.58537V8.53215V8.49667V8.44346V8.28381V8.2306V8.19512V8.14191C1.09871 8.11826 1.08727 8.10052 1.06438 8.08869C1.04149 8.07687 1.03004 8.05913 1.03004 8.03548V7.98226C0.995708 7.98226 0.978541 7.96452 0.978541 7.92905V7.89357V7.7694V7.71619V7.66297C0.978541 7.62749 0.989986 7.5861 1.01288 7.5388C1.04721 7.4915 1.09299 7.46785 1.15021 7.46785C1.1731 7.46785 1.18455 7.45011 1.18455 7.41463L1.23605 7.34368V7.32594C1.20172 7.32594 1.18455 7.29047 1.18455 7.21951C1.16166 7.21951 1.15021 7.20177 1.15021 7.1663L0.892704 7.11308L1.09871 7.02439V6.97117L1.03004 6.84701L1.09871 6.79379L1.03004 6.75831L1.09871 6.7051V6.65188V6.54545V6.38581C1.09871 6.35033 1.07582 6.31486 1.03004 6.27938L1.06438 6.2439C1.08727 6.22025 1.09871 6.20843 1.09871 6.20843C1.05293 6.22025 1.01288 6.2439 0.978541 6.27938L0.927039 6.33259C0.904149 6.35625 0.886981 6.3799 0.875536 6.40355C0.875536 6.4272 0.864092 6.43902 0.841202 6.43902C0.818312 6.43902 0.801145 6.45676 0.7897 6.49224C0.778255 6.51589 0.761087 6.53363 0.738197 6.54545C0.669528 6.61641 0.623748 6.65188 0.600858 6.65188H0.549356L0.429185 6.7051V6.84701V6.7051L0.188841 6.84701L0.377682 6.43902L0.360515 6.22616V6.15521V5.72949V5.67627V5.51663V5.4102H0.377682C0.377682 5.38655 0.383405 5.3629 0.39485 5.33925C0.41774 5.31559 0.429185 5.29194 0.429185 5.26829C0.474964 5.23282 0.515021 5.19734 0.549356 5.16186L0.600858 5.10865C0.566524 5.10865 0.549356 5.085 0.549356 5.03769V4.96674C0.549356 4.93126 0.532189 4.91353 0.497854 4.91353V4.86031C0.497854 4.89579 0.474964 4.91353 0.429185 4.91353C0.406295 4.93718 0.383405 4.96674 0.360515 5.00222C0.34907 5.02587 0.331903 5.03769 0.309013 5.03769C0.309013 5.07317 0.268956 5.09091 0.188841 5.09091H0L0.0515022 4.91353C0.0515022 4.87805 0.0629471 4.84848 0.0858368 4.82483C0.0972818 4.81301 0.114449 4.80709 0.137339 4.80709C0.137339 4.80709 0.143062 4.80118 0.154506 4.78936H0.188841C0.223176 4.78936 0.246066 4.78344 0.257511 4.77162C0.268956 4.74797 0.286123 4.73614 0.309013 4.73614V4.70067C0.309013 4.67701 0.32618 4.66519 0.360515 4.66519V4.61197V4.52328C0.360515 4.49963 0.34907 4.47598 0.32618 4.45233C0.314735 4.41685 0.309013 4.38729 0.309013 4.36364V4.20399V4.15078L0.360515 4.09756L0.188841 4.04435L0.360515 3.95565V3.90244V3.84922C0.32618 3.81375 0.309013 3.78418 0.309013 3.76053V3.72505V3.67184C0.309013 3.66001 0.314735 3.63636 0.32618 3.60089C0.34907 3.55358 0.366237 3.51219 0.377682 3.47672V3.4235L0.309013 3.2816L0.377682 3.22838L0.600858 3.08647L0.686695 3.17517V3.2816V3.40577H0.618026C0.663805 3.40577 0.663805 3.41168 0.618026 3.4235C0.69814 3.4235 0.69814 3.46489 0.618026 3.54767V3.6541V3.77827C0.606581 3.77827 0.600858 3.81966 0.600858 3.90244C0.612303 3.90244 0.629471 3.91426 0.652361 3.93792C0.686695 3.94974 0.715308 3.95565 0.738197 3.95565L0.892704 4.09756L0.686695 4.20399H0.618026V4.23947V4.36364V4.41685C0.629471 4.41685 0.646638 4.42868 0.669528 4.45233C0.669528 4.46415 0.67525 4.47007 0.686695 4.47007V4.55876V4.61197C0.686695 4.54102 0.703863 4.49372 0.738197 4.47007C0.783977 4.43459 0.818312 4.41685 0.841202 4.41685H0.978541V4.55876V4.61197C0.978541 4.69475 0.961374 4.75979 0.927039 4.80709H0.944206C0.967096 4.80709 0.978541 4.82483 0.978541 4.86031V4.91353L1.03004 5.03769L0.978541 5.09091V5.16186L1.09871 5.26829H1.03004V5.32151L0.978541 5.4102L1.03004 5.46341V5.6408V5.72949V5.7827C1.03004 5.80636 1.04149 5.82409 1.06438 5.83592C1.08727 5.84775 1.09871 5.86548 1.09871 5.88914H1.11588C1.13877 5.88914 1.15021 5.8714 1.15021 5.83592H1.16738V5.81818C1.16738 5.81818 1.1731 5.80636 1.18455 5.7827V5.67627L1.23605 5.72949C1.23605 5.69401 1.25322 5.66445 1.28755 5.6408L1.23605 5.56984L1.39056 5.51663C1.42489 5.48115 1.44206 5.43385 1.44206 5.37472V5.32151V5.21508L1.23605 4.86031L1.5794 5.03769C1.55651 4.97857 1.55079 4.92535 1.56223 4.87805C1.57368 4.83075 1.5794 4.80118 1.5794 4.78936C1.5794 4.76571 1.59084 4.74205 1.61373 4.7184C1.62518 4.69475 1.66524 4.65928 1.73391 4.61197C1.74535 4.5765 1.76824 4.54693 1.80258 4.52328L1.6824 4.15078L1.5794 4.20399V4.04435C1.55651 4.068 1.53934 4.09165 1.5279 4.1153C1.51645 4.13895 1.49928 4.15078 1.47639 4.15078V4.20399C1.45351 4.22764 1.43062 4.25129 1.40773 4.27494C1.38484 4.2986 1.36195 4.31042 1.33906 4.31042C1.33906 4.3459 1.32761 4.36364 1.30472 4.36364H1.28755L1.23605 4.41685H1.18455L0.978541 4.55876L1.03004 4.20399C1.03004 4.18034 1.04149 4.15669 1.06438 4.13304L1.09871 4.09756C1.13305 4.06208 1.17883 4.04435 1.23605 4.04435V3.99113C1.27039 3.96748 1.32189 3.92018 1.39056 3.84922L1.15021 3.60089L1.6309 3.72505H1.73391H2.00858H2.06009L2.16309 3.67184V3.72505C2.16309 3.68958 2.16881 3.67184 2.18026 3.67184H2.21459H2.23176C2.23176 3.67184 2.2432 3.66593 2.26609 3.6541C2.26609 3.6068 2.30043 3.54767 2.3691 3.47672H2.38627C2.40916 3.47672 2.4206 3.45898 2.4206 3.4235H2.4721H2.48927C2.48927 3.4235 2.50072 3.41759 2.52361 3.40577C2.52361 3.37029 2.52933 3.34072 2.54077 3.31707C2.55222 3.2816 2.55794 3.25203 2.55794 3.22838H2.60944V3.21064C2.60944 3.18699 2.62661 3.17517 2.66094 3.17517C2.66094 3.13969 2.67811 3.12195 2.71245 3.12195C2.71245 3.0983 2.72961 3.06874 2.76395 3.03326V2.90909H2.84979C2.89557 2.87361 2.95279 2.85588 3.02146 2.85588V2.76718L3.14163 2.8204H3.19313C3.19313 2.78492 3.20458 2.76718 3.22747 2.76718H3.2618C3.30758 2.61345 3.40486 2.56024 3.55365 2.60754V2.55432L3.60515 2.44789L3.65665 2.39468V2.44789L3.70815 2.39468C3.77682 2.39468 3.81116 2.37694 3.81116 2.34146C3.81116 2.24686 3.85694 2.16999 3.9485 2.11086L3.91416 2.05765L4 1.96896H3.9485L4.0515 1.91574V1.86253V1.80931V1.59645V1.54324C4.04006 1.54324 4.02861 1.53732 4.01717 1.5255C3.99428 1.50185 3.97139 1.49002 3.9485 1.49002V1.43681C3.92561 1.43681 3.91416 1.42498 3.91416 1.40133H3.86266H3.81116V1.34811V1.40133L3.70815 1.34811L3.50215 1.2949L3.55365 1.24168C3.49642 1.24168 3.45064 1.22395 3.41631 1.18847C3.38197 1.14117 3.36481 1.1116 3.36481 1.09978C3.33047 1.09978 3.29614 1.08204 3.2618 1.04656H3.14163L3.09013 1.11752L3.02146 1.04656C2.96423 0.963784 2.90701 0.922394 2.84979 0.922394H2.71245H2.66094C2.66094 0.957871 2.64378 0.97561 2.60944 0.97561H2.55794C2.53505 0.940133 2.50644 0.922394 2.4721 0.922394L2.11159 0.86918L2.4206 0.674057H2.52361H2.60944H2.71245C2.73534 0.650407 2.75823 0.638581 2.78112 0.638581C2.81545 0.626756 2.83834 0.620843 2.84979 0.620843C2.88412 0.644494 2.91273 0.662232 2.93562 0.674057C2.96996 0.685883 2.99857 0.709534 3.02146 0.745011H3.07296C3.08441 0.745011 3.10157 0.756836 3.12446 0.780487C3.14735 0.792313 3.17024 0.798226 3.19313 0.798226H3.2618L3.19313 0.42572L3.55365 0.86918V0.922394C3.57654 0.922394 3.59943 0.93422 3.62232 0.957872C3.65665 0.969697 3.70243 0.97561 3.75966 0.97561V1.04656L3.91416 1.09978H4.0515L4.12017 1.11752L4.17167 1.09978V1.11752L4.46352 1.09978C4.47496 1.09978 4.49213 1.10569 4.51502 1.11752C4.53791 1.11752 4.5608 1.11752 4.58369 1.11752L4.7382 1.09978L4.82403 0.97561L4.87554 0.922394C4.87554 0.886918 4.88698 0.86918 4.90987 0.86918H4.94421C4.94421 0.86918 4.94993 0.863267 4.96137 0.851441H4.99571V0.798226H5.03004L4.99571 0.674057H5.08154V0.620843L5.13305 0.674057H5.18455L5.23605 0.620843H5.32189H5.39056C5.42489 0.585366 5.45923 0.567628 5.49356 0.567628C5.5279 0.543976 5.54506 0.514412 5.54506 0.478936H5.56223H5.61373C5.65951 0.431633 5.71102 0.431633 5.76824 0.478936L5.97425 0.159645L5.92275 0.567628H5.97425L6.02575 0.53215H6.07725H6.11159H6.16309C6.20887 0.496674 6.26609 0.443459 6.33476 0.372505L6.38627 0.266075L6.4206 0.319291V0.10643L6.62661 0.266075H6.66094V0.10643H6.71245L6.62661 0L6.88412 0.10643V0L6.93562 0.10643H6.95279L7.00429 0.159645H7.05579L7.12446 0.212861H7.17597H7.19313V0.195122C7.19313 0.195122 7.19886 0.183296 7.2103 0.159645C7.27897 0.0886921 7.34764 0.0886921 7.41631 0.159645L7.50215 0.0532154L7.60515 0.159645L7.70815 0.10643L7.75966 0.212861L7.79399 0.159645L7.897 0.212861H7.96566C8 0.177384 8.04006 0.159645 8.08584 0.159645L8.25751 0.0532154V0.10643C8.2804 0.0946044 8.30901 0.0886917 8.34335 0.0886917C8.35479 0.0886917 8.37196 0.0946044 8.39485 0.10643H8.44635H8.49785C8.55508 0.10643 8.60086 0.124168 8.63519 0.159645H8.68669L8.85837 0.10643L8.8927 0.266075C8.8927 0.289727 8.88698 0.325203 8.87554 0.372505C8.87554 0.407982 8.85265 0.42572 8.80687 0.42572C8.70386 0.473023 8.61803 0.473023 8.54936 0.42572C8.52647 0.42572 8.5093 0.419808 8.49785 0.407982C8.48641 0.384331 8.46924 0.372505 8.44635 0.372505H8.39485V0.42572L8.30901 0.372505C8.27468 0.407982 8.23462 0.42572 8.18884 0.42572H8.13734L8.08584 0.53215H8.13734C8.13734 0.53215 8.14878 0.538063 8.17167 0.549889H8.18884V0.567628H8.30901L8.32618 0.620843L8.39485 0.674057H8.49785L8.58369 0.567628L8.63519 0.674057V0.620843H8.68669H8.7382H8.80687C8.85265 0.597191 8.88698 0.579453 8.90987 0.567628C8.94421 0.543976 8.98999 0.53215 9.04721 0.53215C9.08155 0.496674 9.1216 0.478936 9.16738 0.478936H9.35622L9.5794 0.53215L9.47639 0.620843V0.674057C9.53362 0.733185 9.57368 0.780488 9.59657 0.815965C9.6309 0.851441 9.65951 0.886918 9.6824 0.922394V0.97561H9.78541C9.78541 1.05839 9.81974 1.09978 9.88841 1.09978C9.88841 1.1116 9.88841 1.12934 9.88841 1.15299C9.89986 1.17664 9.91702 1.18847 9.93991 1.18847C10.0429 1.2476 10.0944 1.30081 10.0944 1.34811L10.1459 1.40133C10.2031 1.43681 10.2318 1.48411 10.2318 1.54324C10.2661 1.54324 10.2833 1.58463 10.2833 1.66741L10.4378 1.54324V1.80931V1.86253V1.91574V1.95122C10.4378 1.96305 10.4549 1.96896 10.4893 1.96896C10.4893 2.01626 10.4893 2.05765 10.4893 2.09313C10.5007 2.11678 10.5064 2.14043 10.5064 2.16408H10.5579C10.5808 2.18773 10.6037 2.20547 10.6266 2.21729C10.6609 2.22912 10.6781 2.25277 10.6781 2.28825C10.7468 2.28825 10.7811 2.32372 10.7811 2.39468C10.7926 2.41833 10.7983 2.44789 10.7983 2.48337C10.7983 2.51885 10.7983 2.5425 10.7983 2.55432H10.8498C10.8727 2.57797 10.8956 2.59571 10.9185 2.60754C10.9528 2.61936 10.97 2.65484 10.97 2.71397V2.74945C10.97 2.76127 10.9871 2.76718 11.0215 2.76718V2.8204L11.0558 2.85588H11.1073C11.1874 2.85588 11.2561 2.89727 11.3133 2.98004C11.3133 3.01552 11.3305 3.051 11.3648 3.08647C11.4335 3.08647 11.4678 3.13378 11.4678 3.22838V3.2816C11.4907 3.30525 11.5021 3.33481 11.5021 3.37029C11.5136 3.39394 11.5193 3.41168 11.5193 3.4235V3.47672V3.54767V3.60089C11.5193 3.62454 11.525 3.64228 11.5365 3.6541C11.5594 3.6541 11.5708 3.66001 11.5708 3.67184V3.72505C11.5823 3.72505 11.588 3.76644 11.588 3.84922V3.90244V3.95565V4.23947L11.5193 4.15078L11.4163 4.31042L11.3648 3.90244C11.3419 3.87879 11.3247 3.84922 11.3133 3.81375C11.3019 3.77827 11.2847 3.74871 11.2618 3.72505C11.2618 3.7014 11.2504 3.68367 11.2275 3.67184C11.216 3.64819 11.2103 3.6068 11.2103 3.54767V3.40577C11.176 3.37029 11.1588 3.34072 11.1588 3.31707V3.2816L11.0215 3.17517H11.0558H10.97H10.7983L10.8498 3.08647C10.8269 3.08647 10.8097 3.08056 10.7983 3.06874C10.7983 3.04508 10.7926 3.03326 10.7811 3.03326V2.98004L10.7468 2.94457C10.7353 2.93274 10.7296 2.90318 10.7296 2.85588C10.7296 2.83222 10.7182 2.8204 10.6953 2.8204H10.6781C10.6781 2.79675 10.6667 2.77901 10.6438 2.76718C10.6209 2.75536 10.6094 2.73762 10.6094 2.71397V2.69623C10.6094 2.67258 10.5923 2.66075 10.5579 2.66075V2.60754H10.5236C10.5122 2.60754 10.5064 2.5898 10.5064 2.55432L10.4893 2.53659C10.4664 2.53659 10.4492 2.51885 10.4378 2.48337C10.4378 2.44789 10.4378 2.41833 10.4378 2.39468H10.3863C10.3519 2.39468 10.3348 2.38877 10.3348 2.37694V2.34146H10.2833L10.2318 2.28825V2.21729V2.11086V2.05765C10.1974 1.99852 10.1688 1.96896 10.1459 1.96896L10.0773 1.898C10.0429 1.86253 10.0258 1.81522 10.0258 1.7561L9.97425 1.70288C9.91702 1.64375 9.88841 1.59054 9.88841 1.54324C9.81974 1.54324 9.78541 1.50776 9.78541 1.43681C9.76252 1.41316 9.74535 1.39542 9.73391 1.38359C9.72246 1.35994 9.70529 1.34811 9.6824 1.34811C9.6824 1.32446 9.67096 1.30673 9.64807 1.2949C9.63662 1.28307 9.6309 1.26534 9.6309 1.24168L9.47639 1.11752C9.44206 1.10569 9.41917 1.08204 9.40773 1.04656C9.40773 0.928308 9.37339 0.86918 9.30472 0.86918C9.30472 0.86918 9.29328 0.863267 9.27039 0.851441H9.25322L9.23605 0.833703C9.21316 0.810052 9.19027 0.798226 9.16738 0.798226H9.09871C9.06438 0.798226 9.04721 0.810052 9.04721 0.833703V0.851441H8.99571H8.94421L9.04721 0.86918L8.8927 0.97561V1.04656H8.94421C8.9671 1.07021 8.98999 1.09387 9.01288 1.11752C9.03577 1.12934 9.04721 1.15299 9.04721 1.18847H9.11588V1.2949H9.16738L9.25322 1.34811C9.32189 1.41907 9.35622 1.46637 9.35622 1.49002C9.39056 1.49002 9.40773 1.50776 9.40773 1.54324L9.42489 1.59645C9.42489 1.63193 9.43634 1.65558 9.45923 1.66741C9.48212 1.66741 9.50501 1.67923 9.5279 1.70288V1.80931V1.86253H9.5794C9.64807 1.93348 9.6824 1.99852 9.6824 2.05765L9.83691 2.60754L9.42489 2.16408V2.11086C9.41345 2.08721 9.39628 2.06356 9.37339 2.03991C9.36195 2.00443 9.35622 1.98078 9.35622 1.96896C9.32189 1.96896 9.30472 1.95122 9.30472 1.91574L9.25322 1.86253V1.80931L9.23605 1.79157C9.21316 1.76792 9.19027 1.7561 9.16738 1.7561C9.16738 1.72062 9.15594 1.70288 9.13305 1.70288H9.11588C9.10444 1.67923 9.09299 1.65558 9.08154 1.63193C9.08154 1.59645 9.0701 1.56689 9.04721 1.54324L8.99571 1.49002H8.96137C8.94993 1.49002 8.94421 1.47228 8.94421 1.43681L8.8927 1.49002L8.85837 1.40133H8.80687L8.77253 1.36585C8.76109 1.35403 8.74392 1.34811 8.72103 1.34811C8.70959 1.33629 8.69814 1.31855 8.68669 1.2949L8.58369 1.24168L8.44635 1.2949L8.49785 1.18847C8.49785 1.15299 8.48641 1.13526 8.46352 1.13526C8.45207 1.12343 8.44635 1.1116 8.44635 1.09978C8.36624 1.09978 8.32618 1.05839 8.32618 0.97561H8.30901H8.27468C8.26323 0.97561 8.25751 0.957871 8.25751 0.922394C8.21173 0.922394 8.17167 0.904656 8.13734 0.86918C8.11445 0.86918 8.09728 0.86918 8.08584 0.86918C8.07439 0.857354 8.05722 0.851441 8.03433 0.851441L8.01717 0.97561L7.96566 0.851441L7.79399 1.04656V0.745011H7.75966L7.65665 0.798226L7.60515 0.745011V0.674057C7.58226 0.674057 7.56509 0.668145 7.55365 0.656319C7.5422 0.632668 7.52504 0.620843 7.50215 0.620843H7.46781L7.36481 1.09978L7.2618 0.620843C7.23891 0.620843 7.22175 0.61493 7.2103 0.603104C7.2103 0.579453 7.19886 0.567628 7.17597 0.567628C7.15308 0.567628 7.12446 0.561715 7.09013 0.549889C7.05579 0.538063 7.02718 0.53215 7.00429 0.53215L6.83262 0.620843V0.745011L6.66094 0.674057C6.63805 0.674057 6.62089 0.685883 6.60944 0.709535C6.60944 0.733186 6.598 0.745011 6.57511 0.745011H6.62661L6.57511 0.798226V0.851441V0.86918L6.88412 1.09978L6.5236 0.97561L6.4721 1.09978L6.38627 0.97561H6.33476L6.28326 1.04656L6.23176 0.86918H6.16309L6.07725 1.04656L5.87124 0.97561H5.85408V0.922394V0.86918L5.76824 0.97561L5.71674 0.922394L5.66524 0.86918C5.64235 0.86918 5.62518 0.875093 5.61373 0.886918C5.60229 0.898744 5.58512 0.892831 5.56223 0.86918C5.56223 0.881005 5.55651 0.892831 5.54506 0.904656V0.922394V1.09978V1.11752V1.18847L5.66524 1.86253L5.32189 1.2949L5.23605 1.18847L5.18455 1.11752C5.18455 1.16482 5.15021 1.22395 5.08154 1.2949H5.03004V1.40133H4.99571C4.99571 1.42498 4.98426 1.44272 4.96137 1.45455C4.94993 1.45455 4.94421 1.46637 4.94421 1.49002H4.87554V1.54324L4.77253 1.59645H4.7382H4.6867L4.7382 1.70288H4.6867L4.63519 1.86253L4.58369 1.7561V1.80931L4.53219 1.86253L4.63519 2.11086L4.48069 2.05765C4.46924 2.11678 4.4578 2.15225 4.44635 2.16408C4.44635 2.17591 4.43491 2.19364 4.41202 2.21729C4.41202 2.25277 4.37196 2.27051 4.29185 2.27051L4.34335 2.44789L4.18884 2.34146L4.24034 2.39468L4.17167 2.44789V2.50111C4.17167 2.52476 4.15451 2.53659 4.12017 2.53659C4.12017 2.54841 4.103 2.56615 4.06867 2.5898C4.04578 2.61345 4.02289 2.6371 4 2.66075V2.69623C4 2.70806 3.98283 2.71397 3.9485 2.71397C3.97139 2.73762 3.97711 2.76127 3.96567 2.78492C3.95422 2.80857 3.9485 2.83222 3.9485 2.85588L3.91416 2.90909L4 3.08647H3.81116V3.17517V3.4235V3.47672H3.75966V3.54767V3.6541H3.81116L3.75966 4.09756H3.81116V4.23947C3.83405 4.27494 3.83405 4.31633 3.81116 4.36364C3.79971 4.41094 3.78255 4.44641 3.75966 4.47007L3.70815 4.52328V4.61197C3.73104 4.6711 3.73677 4.7184 3.72532 4.75388C3.71388 4.77753 3.70815 4.79527 3.70815 4.80709V4.86031V4.91353V4.96674L3.91416 5.16186C3.93705 5.16186 3.9485 5.17369 3.9485 5.19734C3.95994 5.20916 3.97711 5.21508 4 5.21508L4.0515 5.32151H4C4.01145 5.34516 4.02289 5.3629 4.03433 5.37472C4.04578 5.37472 4.0515 5.38064 4.0515 5.39246V5.4102V5.51663C4.0515 5.54028 4.04006 5.57576 4.01717 5.62306C4.00572 5.67036 4 5.70584 4 5.72949C3.97711 5.75314 3.95994 5.77679 3.9485 5.80044C3.9485 5.82409 3.93705 5.83592 3.91416 5.83592C3.87983 5.8714 3.85694 5.88914 3.84549 5.88914H3.81116V5.94235V5.96009C3.81116 6.00739 3.81688 6.04878 3.82833 6.08426C3.85122 6.10791 3.86266 6.13156 3.86266 6.15521V6.27938V6.33259V6.38581C3.90844 6.40946 3.93133 6.43902 3.93133 6.4745C3.94278 6.50998 3.9485 6.53363 3.9485 6.54545L4.0515 6.59867L3.9485 6.79379H3.91416V6.82927C3.91416 6.84109 3.897 6.84701 3.86266 6.84701H3.82833C3.81688 6.84701 3.81116 6.86474 3.81116 6.90022C3.81116 6.91205 3.81688 6.92387 3.82833 6.9357C3.85122 6.95935 3.86266 6.98891 3.86266 7.02439C3.85122 7.02439 3.84549 7.03622 3.84549 7.05987C3.84549 7.07169 3.85122 7.0776 3.86266 7.0776V7.11308V7.1663H3.91416C3.93705 7.22542 3.9485 7.27273 3.9485 7.3082C3.9485 7.34368 3.9485 7.37916 3.9485 7.41463C3.9485 7.45011 3.94278 7.47967 3.93133 7.50333C3.93133 7.51515 3.93133 7.53289 3.93133 7.55654L3.91416 7.59202V7.62749C3.91416 7.63932 3.897 7.64523 3.86266 7.64523V7.66297V7.7694L3.81116 7.84035V7.92905H3.75966V7.98226C3.72532 8.01774 3.70815 8.04139 3.70815 8.05321V8.08869C3.67382 8.08869 3.65665 8.10052 3.65665 8.12417V8.14191V8.19512V8.28381V8.33703V8.44346C3.65665 8.46711 3.64521 8.49076 3.62232 8.51441L3.60515 8.53215V8.58537V8.63858V8.70953C3.60515 8.73319 3.59371 8.75684 3.57082 8.78049C3.54793 8.79231 3.52504 8.81005 3.50215 8.8337L3.55365 8.88692V9.01109L3.50215 9.08204C3.52504 9.08204 3.5422 9.09386 3.55365 9.11752C3.56509 9.14117 3.58226 9.15299 3.60515 9.15299C3.60515 9.16482 3.61087 9.17664 3.62232 9.18847C3.64521 9.23577 3.65665 9.27716 3.65665 9.31264V9.34811C3.67954 9.37177 3.69099 9.40724 3.69099 9.45454C3.70243 9.50185 3.70815 9.53732 3.70815 9.56098V9.72062V9.77383L3.75966 9.898C3.81688 9.92166 3.83977 9.96305 3.82833 10.0222C3.81688 10.0813 3.81116 10.1227 3.81116 10.1463C3.81116 10.17 3.81688 10.1936 3.82833 10.2173C3.85122 10.2291 3.86266 10.2469 3.86266 10.2705C3.897 10.306 3.91416 10.3415 3.91416 10.3769H3.9485V10.4302C3.9485 10.4538 3.95422 10.4715 3.96567 10.4834C3.98856 10.4952 4 10.5129 4 10.5366C4.02289 10.5602 4.04006 10.5898 4.0515 10.6253C4.06295 10.6489 4.08584 10.6903 4.12017 10.7494C4.14306 10.7731 4.14878 10.8086 4.13734 10.8559C4.12589 10.8914 4.12017 10.9268 4.12017 10.9623C4.14306 11.0096 4.17167 11.0569 4.20601 11.1042C4.24034 11.1515 4.26896 11.2047 4.29185 11.2639C4.31474 11.2639 4.3319 11.2757 4.34335 11.2993C4.35479 11.3112 4.37768 11.323 4.41202 11.3348L4.46352 11.3171L4.58369 11.5122L4.63519 11.5654H4.6867H4.7382V11.6186C4.78398 11.6186 4.82976 11.6423 4.87554 11.6896V11.6186L4.94421 11.7428C4.94421 11.7901 4.94993 11.8137 4.96137 11.8137C4.97282 11.8256 4.98426 11.8256 4.99571 11.8137L5.03004 11.867H5.08154C5.11588 11.867 5.13305 11.8965 5.13305 11.9557H5.18455V12.0089C5.25322 12.0089 5.299 12.0266 5.32189 12.0621V12.0089L5.56223 12.1153H5.61373H5.66524L5.85408 12.0089V12.1153V12.1685H5.87124L5.92275 12.1153H5.97425V12.0976C5.97425 12.0739 5.99142 12.0621 6.02575 12.0621L6.16309 11.9557L6.23176 12.1685V12.204H6.33476H6.38627V12.2395C6.38627 12.2631 6.39771 12.2749 6.4206 12.2749V12.204L6.62661 12.2749V12.3814C6.62661 12.405 6.63233 12.4228 6.64378 12.4346C6.65522 12.4346 6.66094 12.4405 6.66094 12.4523C6.68383 12.4523 6.71817 12.4701 6.76395 12.5055C6.82117 12.5292 6.8784 12.5528 6.93562 12.5765L6.95279 12.5233C6.97568 12.5233 6.99285 12.5115 7.00429 12.4878C7.01574 12.4642 7.0329 12.4523 7.05579 12.4523C7.13591 12.4523 7.18741 12.476 7.2103 12.5233H7.2618H7.3133L7.50215 12.6297V12.5765H7.55365C7.58798 12.541 7.63948 12.5233 7.70815 12.5233C7.70815 12.4996 7.71388 12.4819 7.72532 12.4701C7.73677 12.4701 7.74821 12.4642 7.75966 12.4523H7.79399V12.4346L7.84549 12.3282H7.897L7.96566 12.2749C7.98855 12.2749 8.00572 12.2631 8.01717 12.2395C8.04006 12.2158 8.06295 12.204 8.08584 12.204C8.12017 12.1803 8.15451 12.1508 8.18884 12.1153H8.25751C8.2804 12.0916 8.29757 12.0739 8.30901 12.0621C8.3319 12.0503 8.36051 12.0325 8.39485 12.0089C8.46352 12.0089 8.49785 11.9911 8.49785 11.9557V11.9024C8.52074 11.9024 8.53791 11.8906 8.54936 11.867C8.5608 11.8315 8.58941 11.8137 8.63519 11.8137V11.6896H8.7382C8.79542 11.6423 8.86409 11.6186 8.94421 11.6186H9.09871L8.99571 11.9024L9.09871 12.1153L8.85837 12.0621H8.80687C8.80687 12.0976 8.78398 12.133 8.7382 12.1685H8.68669C8.68669 12.1922 8.67525 12.2158 8.65236 12.2395C8.62947 12.2631 8.60658 12.2749 8.58369 12.2749V12.3814L8.39485 12.4523V12.4346C8.39485 12.4464 8.37196 12.4523 8.32618 12.4523L8.30901 12.5765H8.18884V12.612C8.18884 12.6238 8.17167 12.6297 8.13734 12.6297L8.08584 12.7007L8.03433 12.7539H8.01717L7.96566 12.8248L7.897 12.7716L7.75966 13.02V12.878H7.70815H7.65665L7.60515 12.9313C7.58226 12.9431 7.56509 12.949 7.55365 12.949C7.51931 12.949 7.50215 12.9431 7.50215 12.9313V12.9845H7.55365L7.50215 13.1441L7.55365 13.1973V13.1441L7.70815 13.1973C7.70815 13.1619 7.72532 13.1205 7.75966 13.0732L7.77682 13.0554C7.79971 13.0318 7.8226 13.02 7.84549 13.02V12.9845L8.03433 12.9313L8.08584 13.02V13.0732L8.13734 13.1441H8.18884H8.25751C8.25751 13.1086 8.26896 13.085 8.29184 13.0732C8.32618 13.0495 8.36051 13.0495 8.39485 13.0732H8.44635L8.63519 12.9313V13.1441H8.68669V13.1086C8.68669 13.085 8.70386 13.0732 8.7382 13.0732V13.02C8.76109 13.02 8.77825 13.014 8.7897 13.0022L8.80687 12.9845V12.9667C8.80687 12.9431 8.82403 12.9313 8.85837 12.9313L8.8927 12.8248H8.94421C8.98999 12.7775 9.02432 12.7539 9.04721 12.7539C9.04721 12.6711 9.06438 12.612 9.09871 12.5765V12.5233H9.11588V12.4346V12.2749L9.30472 12.3282H9.35622H9.40773H9.42489L9.47639 12.204L9.5279 12.2749H9.6309C9.6309 12.2513 9.63662 12.2336 9.64807 12.2217C9.65951 12.2217 9.67096 12.2158 9.6824 12.204H9.78541L9.88841 12.0089V11.9557L9.97425 12.0089V11.9557C9.99714 11.8847 10.0315 11.8315 10.0773 11.796C10.1345 11.7487 10.1745 11.6955 10.1974 11.6364C10.1974 11.6364 10.2089 11.6305 10.2318 11.6186L10.2833 11.5654C10.3062 11.5418 10.3233 11.5122 10.3348 11.4767C10.3462 11.4412 10.3634 11.4117 10.3863 11.388C10.3863 11.3525 10.4206 11.3348 10.4893 11.3348L10.5064 11.1574L10.6781 11.3171C10.7239 11.3289 10.7239 11.3939 10.6781 11.5122C10.6781 11.5831 10.6381 11.6186 10.5579 11.6186C10.5465 11.6186 10.5351 11.6245 10.5236 11.6364H10.5064C10.5064 11.66 10.5007 11.6778 10.4893 11.6896C10.4893 11.7014 10.4893 11.7191 10.4893 11.7428C10.4549 11.7428 10.4378 11.7546 10.4378 11.7783V11.8137H10.5064L10.5408 11.7783C10.5637 11.7546 10.5866 11.7428 10.6094 11.7428H10.6781C10.701 11.7428 10.7182 11.7369 10.7296 11.7251C10.7411 11.7014 10.7582 11.6896 10.7811 11.6896C10.7811 11.6423 10.8212 11.6186 10.9013 11.6186V11.5122L10.97 11.3348L11.1073 11.4412C11.1187 11.4531 11.1302 11.459 11.1416 11.459C11.1531 11.4708 11.1588 11.4767 11.1588 11.4767C11.1702 11.4767 11.1874 11.4885 11.2103 11.5122C11.3133 11.5122 11.3648 11.5477 11.3648 11.6186L11.4163 11.6364C11.485 11.7073 11.5193 11.7664 11.5193 11.8137V11.7428L11.5708 11.8137C11.5823 11.8374 11.5994 11.861 11.6223 11.8847C11.6452 11.9084 11.6567 11.9497 11.6567 12.0089L11.7597 12.0621L11.7082 12.1153C11.7654 12.1389 11.7997 12.1685 11.8112 12.204C11.834 12.2276 11.8569 12.269 11.8798 12.3282V12.3814V12.4346C11.8798 12.4346 11.8856 12.4405 11.897 12.4523V12.5233C11.9084 12.5469 11.9199 12.5647 11.9313 12.5765C11.9428 12.5765 11.9485 12.5824 11.9485 12.5942V12.6297L12 12.878ZM7.84549 13.3925L7.79399 13.6053H7.897C7.897 13.5817 7.90844 13.5462 7.93133 13.4989C7.95422 13.4516 7.96566 13.4161 7.96566 13.3925V13.4457L7.84549 13.3925ZM7.79399 13.6053H7.75966V13.6585V13.765V13.7118V13.6585L7.79399 13.6053ZM3.75966 11.3171V11.3348H3.9485H4C4 11.323 3.98856 11.3171 3.96567 11.3171C3.95422 11.3052 3.9485 11.2875 3.9485 11.2639C3.9485 11.2166 3.91989 11.1633 3.86266 11.1042V11.051V11.0155V10.9623C3.83977 10.9268 3.8226 10.8973 3.81116 10.8736C3.79971 10.8381 3.78255 10.8086 3.75966 10.7849V10.7672C3.75966 10.7554 3.75393 10.7494 3.74249 10.7494C3.73104 10.7376 3.7196 10.7199 3.70815 10.6962L3.67382 10.6608C3.66237 10.6489 3.65665 10.6253 3.65665 10.5898L3.60515 10.643V10.4302C3.58226 10.4065 3.56509 10.3829 3.55365 10.3592C3.5422 10.3237 3.52504 10.2942 3.50215 10.2705V10.1463V10.0931C3.47926 10.0695 3.46209 10.0399 3.45064 10.0044C3.45064 9.95713 3.45064 9.92166 3.45064 9.898V9.82705C3.41631 9.82705 3.39914 9.79157 3.39914 9.72062C3.35336 9.64967 3.35336 9.57871 3.39914 9.50776C3.37625 9.50776 3.36481 9.50185 3.36481 9.49002V9.45454C3.31903 9.45454 3.2618 9.40724 3.19313 9.31264V9.25942H3.14163V9.15299L3.09013 9.08204H3.07296V8.94013C3.03863 8.90466 3.00429 8.88692 2.96996 8.88692H2.91845L2.76395 8.78049L2.71245 8.76275C2.71245 8.7391 2.701 8.72136 2.67811 8.70953C2.66667 8.69771 2.66094 8.67406 2.66094 8.63858C2.59227 8.63858 2.55794 8.62084 2.55794 8.58537L2.52361 8.76275L2.30043 8.44346C2.28898 8.43163 2.28326 8.41389 2.28326 8.39024C2.28326 8.34294 2.28898 8.30746 2.30043 8.28381L2.16309 8.33703V8.19512V8.14191L2.11159 8.2306L1.99142 8.08869C1.96853 8.07687 1.95136 8.06504 1.93991 8.05321C1.93991 8.04139 1.93419 8.02956 1.92275 8.01774C1.9113 8.00591 1.90558 7.99409 1.90558 7.98226V7.92905C1.90558 7.9527 1.89986 7.98817 1.88841 8.03548C1.88841 8.08278 1.87697 8.11826 1.85408 8.14191C1.79685 8.23651 1.73963 8.28381 1.6824 8.28381H1.5794L1.5279 8.33703V8.39024V8.44346H1.47639H1.6309L1.47639 8.63858C1.47639 8.68588 1.46495 8.70953 1.44206 8.70953C1.44206 8.73319 1.40773 8.75684 1.33906 8.78049L1.28755 8.8337C1.25322 8.8337 1.23605 8.84553 1.23605 8.86918V8.88692H1.25322C1.27611 8.88692 1.28755 8.90466 1.28755 8.94013L1.33906 9.01109L1.39056 9.0643V9.15299H1.44206L1.47639 9.31264L1.6309 9.40133L1.5279 9.50776V9.63193H1.5794L1.6309 9.72062V9.77383L1.6824 9.82705V9.898V9.95122C1.70529 9.99852 1.72246 10.0458 1.73391 10.0931C1.7568 10.1404 1.77969 10.1759 1.80258 10.1996C1.80258 10.2114 1.8083 10.2173 1.81974 10.2173H1.85408V10.2705C1.87697 10.2705 1.89413 10.2823 1.90558 10.306C1.91702 10.3178 1.94564 10.3237 1.99142 10.3237C2.00286 10.3829 2.00858 10.4183 2.00858 10.4302C2.02003 10.4302 2.0372 10.4302 2.06009 10.4302C2.11731 10.4538 2.16309 10.4834 2.19742 10.5188C2.2432 10.5543 2.27754 10.6135 2.30043 10.6962V10.7849C2.33476 10.8086 2.36338 10.8263 2.38627 10.8381C2.4206 10.85 2.44921 10.8677 2.4721 10.8914L2.52361 10.7849L2.55794 10.8914H2.66094V11.0155L2.83262 10.8381V11.1042H2.91845H2.96996C2.99285 11.1042 3.01001 11.116 3.02146 11.1397C3.0329 11.1515 3.05007 11.1574 3.07296 11.1574L3.09013 11.1042L3.14163 11.1574H3.19313V11.2106C3.18169 11.2106 3.18169 11.2047 3.19313 11.1929C3.19313 11.1693 3.21602 11.1574 3.2618 11.1574H3.3133L3.45064 11.1042L3.55365 11.2639C3.62232 11.2639 3.65665 11.2816 3.65665 11.3171H3.75966ZM1.44206 6.27938V6.38581L1.47639 6.52772L1.44206 6.54545V6.59867V6.7051C1.44206 6.74058 1.44778 6.75831 1.45923 6.75831H1.47639C1.51073 6.79379 1.5279 6.82335 1.5279 6.84701V6.90022V6.97117C1.5279 7.04213 1.51073 7.0776 1.47639 7.0776L1.5279 7.11308H1.54506C1.56795 7.11308 1.5794 7.10126 1.5794 7.0776L1.6824 6.97117V6.90022C1.70529 6.90022 1.72818 6.86474 1.75107 6.79379V6.7051C1.78541 6.7051 1.80258 6.69919 1.80258 6.68736V6.65188C1.80258 6.62823 1.8083 6.59867 1.81974 6.56319C1.84263 6.52772 1.85408 6.48633 1.85408 6.43902V6.38581L1.90558 6.33259L1.92275 6.31486C1.94564 6.2912 1.96853 6.27938 1.99142 6.27938V6.22616V6.20843L1.85408 6.102L2.00858 6.15521V6.13747C2.00858 6.11382 2.02575 6.102 2.06009 6.102C2.0372 6.07834 2.02003 6.04878 2.00858 6.0133C2.00858 5.97783 2.00858 5.95418 2.00858 5.94235C1.99714 5.94235 1.99142 5.93644 1.99142 5.92461V5.88914V5.72949H1.90558C1.84835 5.63488 1.84835 5.52845 1.90558 5.4102V5.32151V5.26829C1.88269 5.24464 1.87124 5.21508 1.87124 5.1796C1.87124 5.1323 1.88269 5.10273 1.90558 5.09091V5.03769V4.96674H1.85408V5.03769V5.07317C1.85408 5.085 1.83691 5.09091 1.80258 5.09091C1.80258 5.13821 1.78541 5.1796 1.75107 5.21508C1.75107 5.28603 1.74535 5.33925 1.73391 5.37472V5.4102V5.46341V5.49889C1.73391 5.51072 1.71674 5.53437 1.6824 5.56984V5.6408C1.65951 5.66445 1.64235 5.6881 1.6309 5.71175C1.61946 5.72358 1.60229 5.72949 1.5794 5.72949V5.76497C1.5794 5.77679 1.56223 5.7827 1.5279 5.7827L1.6309 5.96009H1.47639L1.44206 6.04878V6.15521V6.20843V6.27938ZM2.16309 4.47007C2.16309 4.52919 2.14592 4.5765 2.11159 4.61197V4.66519C2.11159 4.70066 2.11731 4.73614 2.12876 4.77162C2.15165 4.8071 2.16309 4.83666 2.16309 4.86031C2.18598 4.88396 2.19742 4.92535 2.19742 4.98448C2.20887 5.03178 2.21459 5.06726 2.21459 5.09091V5.10865L2.16309 5.16186H2.21459C2.21459 5.18551 2.21459 5.20325 2.21459 5.21508C2.22604 5.2269 2.2432 5.26238 2.26609 5.32151V5.37472C2.26609 5.39837 2.26037 5.42202 2.24893 5.44568C2.23748 5.46933 2.22604 5.49298 2.21459 5.51663V5.56984C2.23748 5.56984 2.24893 5.5935 2.24893 5.6408C2.26037 5.67627 2.26609 5.72358 2.26609 5.7827H2.30043V5.72949V5.67627C2.30043 5.65262 2.31187 5.62897 2.33476 5.60532L2.3691 5.56984V5.51663L2.30043 5.46341L2.3691 5.37472H2.4206V5.32151C2.44349 5.29786 2.46638 5.28012 2.48927 5.26829C2.51216 5.25647 2.53505 5.23873 2.55794 5.21508L2.76395 5.16186L2.71245 5.37472C2.71245 5.43385 2.69528 5.46341 2.66094 5.46341V5.56984L2.60944 5.6408C2.60944 5.7354 2.59227 5.80044 2.55794 5.83592H2.60944L2.4206 6.20843V6.15521V6.20843H2.3691L2.52361 6.27938L2.4721 6.33259L3.09013 7.32594L2.30043 6.54545C2.27754 6.54545 2.24893 6.56319 2.21459 6.59867H2.16309L2.21459 6.65188L2.11159 6.7051C2.11159 6.72875 2.10014 6.7524 2.07725 6.77605C2.06581 6.7997 2.06009 6.82335 2.06009 6.84701V6.97117H2.00858L2.06009 7.0776L1.99142 7.11308H1.90558C1.88269 7.17221 1.8598 7.20769 1.83691 7.21951C1.81402 7.23134 1.80258 7.24908 1.80258 7.27273L1.85408 7.32594V7.34368V7.46785H1.90558H2.00858V7.5388C2.04292 7.5388 2.06009 7.55654 2.06009 7.59202L2.11159 7.64523C2.11159 7.65706 2.11731 7.66888 2.12876 7.68071C2.15165 7.68071 2.16309 7.69253 2.16309 7.71619L2.21459 7.7694C2.23748 7.7694 2.26037 7.78123 2.28326 7.80488C2.29471 7.8167 2.30043 7.82853 2.30043 7.84035C2.33476 7.86401 2.36338 7.88174 2.38627 7.89357C2.40916 7.89357 2.4206 7.9054 2.4206 7.92905L2.4721 7.98226H2.55794V8.03548L2.66094 7.92905V8.14191V8.19512L2.71245 8.2306V8.28381C2.71245 8.31929 2.72961 8.33703 2.76395 8.33703H2.79828C2.79828 8.33703 2.81545 8.35477 2.84979 8.39024C2.9299 8.39024 2.96996 8.40798 2.96996 8.44346C3.00429 8.44346 3.03863 8.4612 3.07296 8.49667H3.09013V8.58537V8.56763C3.09013 8.54398 3.1073 8.53215 3.14163 8.53215V8.44346C3.14163 8.33703 3.18169 8.28381 3.2618 8.28381V8.2306C3.2618 8.20695 3.27897 8.17738 3.3133 8.14191V7.98226V7.84035H3.36481V7.71619C3.3877 7.68071 3.39914 7.65706 3.39914 7.64523V7.5388H3.50215V7.41463H3.39914L3.45064 7.27273L3.39914 7.21951V7.11308V7.0776V7.02439V6.97117V6.90022V6.79379V6.75831H3.36481H3.19313H3.14163H3.02146L3.07296 6.54545L3.09013 6.52772V6.43902L3.14163 6.38581H3.19313H3.22747C3.25036 6.38581 3.2618 6.36807 3.2618 6.33259H3.36481H3.39914V6.27938H3.45064V6.22616V6.20843V6.15521V6.102V6.04878L3.39914 5.96009H3.36481C3.36481 5.92461 3.35908 5.89505 3.34764 5.8714C3.33619 5.83592 3.34192 5.80636 3.36481 5.7827H3.3133L3.36481 5.6408C3.36481 5.61715 3.37053 5.59941 3.38197 5.58758L3.39914 5.56984V5.51663V5.37472V5.32151L3.36481 5.16186H3.39914V5.10865L3.14163 4.96674H3.39914C3.37625 4.93126 3.36481 4.89579 3.36481 4.86031H3.3133L3.19313 4.80709H3.14163V4.86031C3.11874 4.86031 3.09585 4.87214 3.07296 4.89579C3.06152 4.90761 3.04435 4.91353 3.02146 4.91353V4.96674H2.96996L3.09013 5.83592L2.76395 5.03769C2.74106 5.00222 2.72389 4.96083 2.71245 4.91353C2.701 4.86622 2.74106 4.82483 2.83262 4.78936L2.84979 4.73614L2.91845 4.66519C2.94134 4.66519 2.95851 4.65928 2.96996 4.64745C2.9814 4.6238 2.99857 4.61197 3.02146 4.61197C3.02146 4.58832 3.02718 4.5765 3.03863 4.5765C3.06152 4.56467 3.07296 4.54693 3.07296 4.52328V4.45233C3.07296 4.4405 3.07868 4.42868 3.09013 4.41685V4.31042H3.14163H3.19313C3.19313 4.26312 3.21602 4.22764 3.2618 4.20399V4.15078L3.19313 3.90244L3.36481 3.95565L3.39914 3.77827L3.45064 3.6541V3.54767V3.4235V3.40577L3.39914 3.2816H3.45064V3.17517H3.39914H3.36481H3.2618H3.22747C3.20458 3.17517 3.19313 3.15743 3.19313 3.12195C3.12446 3.1929 3.09013 3.1929 3.09013 3.12195C3.07868 3.15743 3.05579 3.1929 3.02146 3.22838H2.96996V3.2816L2.91845 3.33481V3.40577L2.84979 3.47672H2.83262L2.76395 3.54767V3.60089C2.74106 3.63636 2.72389 3.66593 2.71245 3.68958C2.701 3.71323 2.66667 3.72505 2.60944 3.72505L2.57511 3.76053C2.56366 3.77236 2.54649 3.77827 2.52361 3.77827V3.84922L2.4721 3.90244C2.4721 3.93792 2.45494 3.95565 2.4206 3.95565C2.4206 3.97931 2.40916 3.99704 2.38627 4.00887C2.36338 4.00887 2.33476 4.02069 2.30043 4.04435C2.30043 4.068 2.28898 4.08574 2.26609 4.09756C2.25465 4.10939 2.23748 4.12712 2.21459 4.15078H2.18026C2.16881 4.15078 2.16309 4.16851 2.16309 4.20399V4.31042V4.47007ZM1.28755 7.84035V7.89357L1.33906 7.84035L1.44206 7.98226V8.03548L1.5794 7.98226H1.6309V7.84035V7.7694V7.71619L1.5794 7.7694H1.5279H1.44206H1.28755V7.84035ZM1.80258 4.47007V4.41685V4.36364H1.85408V4.23947V4.15078V4.04435V4.02661C1.85408 4.00296 1.83691 3.99113 1.80258 3.99113V4.04435V4.47007ZM4.18884 1.18847L4.29185 1.2949L4.24034 1.24168L4.18884 1.18847ZM4.34335 1.40133H4.29185H4.34335ZM0.549356 5.72949L0.497854 6.22616L0.549356 6.27938C0.572246 6.27938 0.589414 6.27347 0.600858 6.26164C0.623748 6.23799 0.652361 6.22025 0.686695 6.20843C0.686695 6.13747 0.72103 6.102 0.7897 6.102V5.96009V5.88914C0.76681 5.83001 0.749642 5.7827 0.738197 5.74723C0.738197 5.69993 0.738197 5.66445 0.738197 5.6408V5.56984V5.51663V5.46341H0.703863C0.692418 5.46341 0.686695 5.44568 0.686695 5.4102V5.46341C0.640916 5.46341 0.618026 5.48115 0.618026 5.51663V5.58758C0.618026 5.61123 0.612303 5.62897 0.600858 5.6408C0.600858 5.65262 0.600858 5.66445 0.600858 5.67627L0.549356 5.72949Z" fill="black"/>
</svg>
