<svg width="8" height="17" viewBox="0 0 8 17" fill="none" xmlns="http://www.w3.org/2000/svg">
<path d="M8 9.63274C7.94126 9.63274 7.91189 9.6149 7.91189 9.57922V9.52571V9.49003H7.85903H7.89427C7.89427 9.43057 7.86491 9.38895 7.80617 9.36516C7.80617 9.32949 7.80029 9.29976 7.78855 9.27597V9.31165H7.7533L7.73568 9.27597H7.7533C7.7533 9.20462 7.74743 9.1511 7.73568 9.11542C7.73568 9.06786 7.73568 9.01434 7.73568 8.95488V8.9192H7.68282H7.73568V8.90136V8.72298V8.70514H7.68282C7.60059 8.72893 7.52423 8.71703 7.45375 8.66947C7.442 8.66947 7.43612 8.66352 7.43612 8.65163V8.66947V8.70514L7.40088 8.66947L7.34802 8.65163L7.3304 8.59811V8.56243H7.34802V8.5446H7.29515L7.3304 8.49108H7.29515L7.25991 8.56243L7.20705 8.5446C7.1953 8.5446 7.17768 8.55054 7.15419 8.56243V8.59811H7.10132C7.10132 8.61 7.09545 8.6219 7.0837 8.63379V8.65163L7.04846 8.66947V8.70514V8.7765C7.02496 8.80028 7.00734 8.83001 6.99559 8.86569C6.99559 8.88947 6.99559 8.90731 6.99559 8.9192C6.98385 8.94299 6.97797 8.97272 6.97797 9.00839V9.02623C6.96623 9.02623 6.95448 9.03218 6.94273 9.04407V9.06191C6.94273 9.08569 6.93098 9.10948 6.90749 9.13326C6.89574 9.15705 6.88987 9.18083 6.88987 9.20462L6.85463 9.25813C6.84288 9.25813 6.83701 9.26408 6.83701 9.27597C6.83701 9.34732 6.80764 9.383 6.7489 9.383C6.7489 9.40679 6.74303 9.42462 6.73128 9.43652C6.73128 9.43652 6.73128 9.44841 6.73128 9.47219V9.49003V9.52571H6.69604H6.73128L6.69604 9.57922V9.6149V9.63274C6.69604 9.62085 6.67841 9.63274 6.64317 9.66842L6.62555 9.72193V9.73977H6.59031H6.62555V9.77545C6.62555 9.82302 6.59618 9.8468 6.53745 9.8468H6.5022C6.5022 9.83491 6.49633 9.82896 6.48458 9.82896V9.8468H6.5022L6.48458 9.88248H6.5022H6.48458L6.44934 9.93599H6.39648V9.97167H6.37885V9.98951L6.39648 10.043V9.98951V10.043V10.0787V10.0965C6.38473 10.0965 6.37885 10.1084 6.37885 10.1322H6.34361V10.0965C6.34361 10.1203 6.33187 10.1322 6.30837 10.1322H6.29075H6.27313V10.1857V10.2214H6.29075H6.27313H6.23789V10.2392H6.18502C6.18502 10.263 6.1909 10.2809 6.20264 10.2928C6.21439 10.2928 6.20852 10.2928 6.18502 10.2928H6.14978L6.0793 10.4533H6.04405V10.489V10.5425C6.04405 10.5663 6.03818 10.5841 6.02643 10.596C6.02643 10.6079 6.02643 10.6257 6.02643 10.6495C6.02643 10.6733 6.03231 10.6852 6.04405 10.6852V10.703H6.0793L6.04405 10.7566H6.13216L6.0793 10.7922V10.8636H6.04405L6.13216 10.9349H6.0793H6.04405V10.9528L6.02643 10.9349H5.99119C5.99119 10.9349 5.97944 10.9468 5.95595 10.9706C5.9442 10.9825 5.93833 10.9944 5.93833 11.0063V11.0598V11.1133H5.92071C5.90896 11.1133 5.90308 11.1252 5.90308 11.149L5.88546 11.1668V11.2025V11.2204H5.90308V11.256L5.93833 11.2204L5.99119 11.2917L5.90308 11.3631C5.90308 11.3868 5.87959 11.4225 5.8326 11.4701C5.8091 11.4939 5.8091 11.5117 5.8326 11.5236H5.88546H5.90308C5.90308 11.5236 5.91483 11.5177 5.93833 11.5058V11.5236L5.90308 11.6128C5.92658 11.6366 5.9442 11.6544 5.95595 11.6663C5.97944 11.6663 5.99119 11.6782 5.99119 11.702V11.7198H5.88546H5.8326C5.8326 11.7079 5.82085 11.6842 5.79736 11.6485C5.79736 11.6842 5.79148 11.702 5.77974 11.702V11.7198V11.7555L5.72687 11.8269V11.6485H5.69163V11.702L5.62115 11.7555V11.809H5.5859V11.7912C5.5859 11.7674 5.57416 11.7555 5.55066 11.7555C5.55066 11.7912 5.54479 11.7912 5.53304 11.7555H5.48018H5.53304H5.44493H5.42731V11.809C5.36858 11.809 5.33921 11.815 5.33921 11.8269H5.32159C5.28634 11.8506 5.25698 11.8685 5.23348 11.8804C5.20999 11.9042 5.18649 11.922 5.163 11.9339C5.15125 11.9339 5.14537 11.9458 5.14537 11.9696C5.14537 12.029 5.1395 12.0588 5.12775 12.0588V12.0766H5.09251V12.1123L5.07489 12.0766V12.2193L5.02203 12.1658C5.02203 12.1539 5.01615 12.142 5.00441 12.1301C5.00441 12.1182 5.00441 12.1063 5.00441 12.0944L4.98678 12.0766H4.96916V12.0588H4.9163V12.0766L4.88106 12.0588V12.0766V12.1123V12.1658L4.84582 12.1836H4.79295C4.79295 12.1836 4.78708 12.1777 4.77533 12.1658V12.1123C4.75184 12.1123 4.74009 12.1361 4.74009 12.1836H4.68723L4.74009 12.2193H4.63436L4.56388 12.1658V12.2193H4.52863V12.2728V12.2193H4.49339C4.48164 12.2193 4.4699 12.2134 4.45815 12.2015C4.4464 12.1896 4.44053 12.1777 4.44053 12.1658H4.38767C4.35242 12.1301 4.3348 12.1004 4.3348 12.0766L4.31718 12.1123H4.28194C4.30543 12.148 4.31718 12.1717 4.31718 12.1836L4.28194 12.2907V12.1836C4.2467 12.1717 4.2232 12.1658 4.21145 12.1658H4.17621L4.21145 12.1836L4.14097 12.2728L4.08811 12.1836H4.03524V12.2193C4.01175 12.2193 3.99413 12.2312 3.98238 12.255C3.98238 12.2669 3.97651 12.2728 3.96476 12.2728L3.92952 12.2907V12.2728V12.2193H3.96476H3.92952V12.1836V12.1658H3.87665V12.2193H3.92952L3.87665 12.2728V12.2907V12.3263H3.85903H3.87665V12.362L3.82379 12.4334V12.469H3.78855V12.5226L3.80617 12.5404C3.80617 12.5523 3.80029 12.5642 3.78855 12.5761V12.6296C3.78855 12.6653 3.77093 12.6831 3.73568 12.6831V12.7366V12.6831C3.72394 12.6831 3.71806 12.6712 3.71806 12.6474C3.71806 12.6712 3.71219 12.6891 3.70044 12.7009C3.68869 12.7247 3.68282 12.7485 3.68282 12.7723V12.7901H3.64758C3.63583 12.7901 3.62996 12.802 3.62996 12.8258L3.68282 12.8972H3.71806V12.9328V12.9864L3.73568 13.0042V13.0399H3.71806L3.62996 13.0934V13.1291H3.61233H3.59471C3.58297 13.1291 3.57709 13.135 3.57709 13.1469L3.68282 13.2539L3.61233 13.2361V13.2539H3.57709V13.2896L3.52423 13.3431V13.2896H3.50661V13.3431C3.50661 13.355 3.51248 13.3729 3.52423 13.3966C3.52423 13.4323 3.54185 13.462 3.57709 13.4858L3.61233 13.5037L3.62996 13.5572H3.61233H3.57709H3.52423C3.52423 13.581 3.54185 13.5929 3.57709 13.5929V13.6107C3.58884 13.6107 3.59471 13.6166 3.59471 13.6285C3.59471 13.6404 3.58884 13.6464 3.57709 13.6464L3.61233 13.7534H3.57709L3.52423 13.8069H3.57709L3.52423 13.8426V13.8604L3.57709 13.914H3.61233L3.52423 13.9496H3.61233V14.1102L3.57709 14.0745V14.1102L3.52423 14.0745L3.50661 14.1102V14.0745H3.47137V14.1102C3.49486 14.1459 3.51248 14.1756 3.52423 14.1994H3.57709L3.52423 14.2172V14.2707V14.2886C3.52423 14.3005 3.51836 14.3064 3.50661 14.3064H3.52423L3.50661 14.3778L3.57709 14.4134L3.52423 14.6275C3.52423 14.6632 3.51836 14.6988 3.50661 14.7345C3.50661 14.7821 3.50661 14.8059 3.50661 14.8059V14.9129H3.47137V14.9664V14.9843V15.0199C3.47137 15.0556 3.45962 15.0794 3.43612 15.0913C3.42438 15.1151 3.4185 15.1389 3.4185 15.1626C3.38326 15.2697 3.38326 15.341 3.4185 15.3767V15.4302V15.6978C3.4185 15.7216 3.41263 15.7394 3.40088 15.7513C3.38913 15.7751 3.38326 15.7929 3.38326 15.8048C3.37151 15.8286 3.36564 15.8762 3.36564 15.9475V15.9832C3.36564 16.0189 3.35389 16.0427 3.3304 16.0546V16.0902V16.8751V16.9643L3.27753 17V16.9108V16.8751V16.7681C3.27753 16.7443 3.27753 16.7086 3.27753 16.6611C3.27753 16.6254 3.27166 16.5778 3.25991 16.5184V16.34V16.0902C3.25991 16.0308 3.25991 15.9832 3.25991 15.9475C3.27166 15.9237 3.27753 15.8881 3.27753 15.8405C3.31278 15.8167 3.3304 15.7632 3.3304 15.68C3.3304 15.6205 3.32452 15.567 3.31278 15.5194C3.31278 15.4837 3.30103 15.4362 3.27753 15.3767V15.341V15.3232V15.2162V15.0378C3.31278 15.0259 3.3304 15.0021 3.3304 14.9664C3.29515 14.9664 3.27753 14.9605 3.27753 14.9486V14.9129C3.27753 14.8772 3.29515 14.8416 3.3304 14.8059V14.681C3.3304 14.6572 3.31865 14.6334 3.29515 14.6097C3.28341 14.5859 3.27753 14.568 3.27753 14.5561V14.5205H3.25991L3.27753 14.4491H3.25991V14.4134V14.3599C3.25991 14.348 3.26579 14.3361 3.27753 14.3242C3.27753 14.2648 3.28341 14.2172 3.29515 14.1815C3.3069 14.1577 3.30103 14.1221 3.27753 14.0745H3.25991V14.0567V13.9675L3.27753 13.9496V13.8604C3.30103 13.8485 3.31278 13.8248 3.31278 13.7891C3.32452 13.7653 3.3304 13.7415 3.3304 13.7177V13.6107V13.5929C3.29515 13.5929 3.27753 13.5869 3.27753 13.575V13.5572L3.25991 13.5037H3.22467L3.17181 13.3966L3.22467 13.361V13.3431L3.18943 13.3075C3.17768 13.2956 3.17181 13.2777 3.17181 13.2539V13.2361V13.1826L3.22467 13.1469H3.25991L3.22467 13.1291C3.24816 13.1053 3.25404 13.0815 3.24229 13.0577C3.23054 13.0458 3.22467 13.028 3.22467 13.0042C3.22467 12.9923 3.20705 12.9685 3.17181 12.9328V12.8972V12.7901C3.17181 12.7782 3.16593 12.7723 3.15419 12.7723C3.15419 12.7128 3.16006 12.6712 3.17181 12.6474H3.22467C3.24816 12.6355 3.25991 12.5999 3.25991 12.5404V12.5226L3.17181 12.5404V12.469V12.4334H3.15419L3.22467 12.4155V12.3977C3.22467 12.3739 3.20705 12.362 3.17181 12.362H3.15419V12.3263C3.15419 12.3026 3.17768 12.2669 3.22467 12.2193H3.25991L3.22467 12.1836L3.25991 12.1658V12.0588V12.0052V11.9696V11.9339C3.27166 11.9339 3.27753 11.9101 3.27753 11.8625V11.8269C3.27753 11.8269 3.27166 11.8209 3.25991 11.809V11.7555C3.25991 11.7317 3.24816 11.7198 3.22467 11.7198V11.702H3.25991V11.6485H3.22467H3.18943C3.17768 11.6485 3.17181 11.6366 3.17181 11.6128V11.595H3.18943C3.18943 11.595 3.20117 11.589 3.22467 11.5771V11.5236H3.24229C3.24229 11.5236 3.24816 11.5177 3.25991 11.5058V11.4701V11.4166H3.22467V11.3987H3.15419L3.17181 11.3631C3.20705 11.3631 3.22467 11.3571 3.22467 11.3452H3.25991V11.2917V11.256C3.23642 11.2322 3.23642 11.2025 3.25991 11.1668V11.149C3.23642 11.1252 3.22467 11.0895 3.22467 11.042C3.24816 11.042 3.25991 11.036 3.25991 11.0241V11.0063V10.8101V10.7922C3.23642 10.7922 3.2188 10.7803 3.20705 10.7566C3.20705 10.7209 3.1953 10.6971 3.17181 10.6852V10.5782C3.14831 10.5306 3.16593 10.489 3.22467 10.4533C3.22467 10.4414 3.21292 10.4295 3.18943 10.4176C3.17768 10.3938 3.17181 10.3701 3.17181 10.3463C3.17181 10.3463 3.16593 10.3403 3.15419 10.3284L3.11894 10.2928L3.15419 10.2392C3.11894 10.2274 3.11894 10.1798 3.15419 10.0965C3.15419 10.0965 3.16006 10.0906 3.17181 10.0787C3.16006 10.0787 3.15419 10.049 3.15419 9.98951V9.93599H3.11894H3.15419V9.82896C3.13069 9.82896 3.11894 9.82302 3.11894 9.81112V9.77545V9.73977H3.15419L3.17181 9.77545H3.18943C3.21292 9.77545 3.22467 9.76355 3.22467 9.73977V9.66842H3.15419V9.63274L3.17181 9.6149L3.15419 9.57922V9.52571C3.15419 9.52571 3.16006 9.51976 3.17181 9.50787V9.49003C3.14831 9.46625 3.14831 9.43057 3.17181 9.383V9.36516C3.2188 9.31759 3.2188 9.28192 3.17181 9.25813V9.20462V9.16894V9.06191V8.9192V8.84785H3.15419H3.11894H3.06608V8.81217H3.03084V8.5446H3.06608C3.04258 8.5446 3.03084 8.52676 3.03084 8.49108V8.4554H3.06608L3.03084 8.41973L3.06608 8.25918C3.12482 8.25918 3.15419 8.27702 3.15419 8.3127C3.14244 8.3008 3.13656 8.28891 3.13656 8.27702C3.12482 8.26513 3.11894 8.25323 3.11894 8.24134V8.20567V8.18783L3.06608 8.13431L2.96035 8.18783L3.03084 8.09864L2.96035 8.06296H3.01322V8.00944H3.03084V7.99161V7.95593C3.05433 7.92025 3.0837 7.90241 3.11894 7.90241V7.93809C3.11894 7.94998 3.13069 7.95593 3.15419 7.95593C3.15419 7.92025 3.14244 7.90241 3.11894 7.90241V7.88457L3.06608 7.8489C3.07783 7.8489 3.0837 7.84295 3.0837 7.83106C3.0837 7.81917 3.07783 7.80728 3.06608 7.79538V7.83106C3.06608 7.84295 3.05433 7.8489 3.03084 7.8489L3.01322 7.88457L2.96035 7.90241V7.70619L3.01322 7.74187C3.02496 7.71808 3.04258 7.70619 3.06608 7.70619L3.15419 7.63484L3.17181 7.59916C3.16006 7.59916 3.15419 7.59321 3.15419 7.58132V7.54565L3.11894 7.52781C3.11894 7.50402 3.1072 7.49213 3.0837 7.49213H3.06608H3.03084L3.06608 7.43861H3.04846C3.03671 7.43861 3.03084 7.43267 3.03084 7.42078V7.3851V7.34942V7.33158C3.03084 7.3078 3.04258 7.29591 3.06608 7.29591V7.24239H3.03084L3.06608 7.18888C3.11307 7.16509 3.13656 7.14725 3.13656 7.13536C3.14831 7.12347 3.14244 7.10563 3.11894 7.08185V7.06401V7.02833V6.97482V6.93914H3.06608C3.04258 6.92725 3.03084 6.89157 3.03084 6.83211L3.01322 6.88562L2.96035 6.83211L3.01322 6.81427C3.02496 6.75481 3.03084 6.67751 3.03084 6.58237V6.56453V6.47534L3.06608 6.4575V6.42183V6.40399C3.06608 6.3802 3.0837 6.36831 3.11894 6.36831V6.35047H3.06608H3.11894V6.3148V6.26128H3.06608V6.2256V6.20776V6.15425C3.06608 6.13047 3.05433 6.11263 3.03084 6.10073V5.97587L3.06608 5.95803C3.06608 5.92235 3.0837 5.89262 3.11894 5.86884V5.851L3.03084 5.86884V5.851V5.79748V5.74397L3.01322 5.69045H2.96035H2.92511V5.65477V5.6191V5.54774C2.92511 5.52396 2.93098 5.51207 2.94273 5.51207H2.96035H2.92511L2.96035 5.49423V5.40504V5.33368H2.92511V5.29801V5.26233H2.96035L2.92511 5.20881L3.03084 5.19098V5.1553L3.11894 5.10178L3.06608 4.94124H3.03084V4.90556V4.85205C3.01909 4.82826 3.01322 4.79259 3.01322 4.74502C3.01322 4.69745 3.01322 4.65582 3.01322 4.62015V4.58447V4.54879H2.96035V4.44176C2.96035 4.41798 2.95448 4.39419 2.94273 4.37041C2.94273 4.33473 2.96623 4.305 3.01322 4.28122V4.26338H2.96035V4.2277L2.92511 4.19203C2.92511 4.16824 2.93098 4.1504 2.94273 4.13851C2.95448 4.12662 2.96035 4.10878 2.96035 4.085L3.01322 4.03148L3.03084 4.01364V3.97796V3.92445H3.01322V3.90661V3.87093C3.02496 3.87093 3.03084 3.86499 3.03084 3.8531C3.03084 3.82931 3.04258 3.80553 3.06608 3.78174C3.06608 3.74607 3.0837 3.71039 3.11894 3.67471H3.06608L3.15419 3.6212L3.17181 3.65687L3.22467 3.6212V3.54984H3.17181H3.15419V3.56768H3.11894L3.06608 3.46065H3.03084C3.01909 3.46065 3.01322 3.44281 3.01322 3.40714L2.96035 3.35362V3.31794V3.3001V3.26443V3.21091V3.19307C2.93686 3.19307 2.92511 3.18713 2.92511 3.17524V3.1574V3.06821V2.96118V2.94334H2.96035C3.01909 2.94334 3.03671 2.91361 3.01322 2.85415C3.01322 2.84225 3.01909 2.83631 3.03084 2.83631C3.05433 2.81252 3.06608 2.78279 3.06608 2.74711C3.06608 2.72333 3.06021 2.71144 3.04846 2.71144C3.03671 2.71144 3.03084 2.70549 3.03084 2.6936H3.01322L2.96035 2.71144V2.6936L2.92511 2.64008C2.92511 2.60441 2.95448 2.58657 3.01322 2.58657V2.53305H2.96035L3.01322 2.49738L2.92511 2.40819V2.39035C2.9486 2.39035 2.96035 2.3844 2.96035 2.37251V2.35467V2.33683H3.01322H2.96035V2.28332H2.92511V2.24764V2.17629H2.90749L2.92511 2.14061V2.12277V2.14061L2.87225 2.17629V2.14061C2.87225 2.12872 2.85463 2.09899 2.81938 2.05142V2.03358C2.81938 2.00979 2.81938 1.99196 2.81938 1.98006C2.83113 1.96817 2.84875 1.93844 2.87225 1.89087V1.87303C2.87225 1.88492 2.88399 1.86709 2.90749 1.81952V1.74816L2.92511 1.81952V1.85519C2.92511 1.86709 2.93686 1.87303 2.96035 1.87303H2.97797C3.00147 1.87303 3.01322 1.85519 3.01322 1.81952V1.80168H2.99559C2.98385 1.80168 2.9721 1.79573 2.96035 1.78384H2.92511L2.96035 1.74816H3.03084V1.69465H3.01322V1.67681L3.03084 1.64113H3.01322V1.58762V1.56978C3.01322 1.5341 3.01909 1.49843 3.03084 1.46275V1.42707H3.01322V1.51626L2.90749 1.32004V1.3914L2.87225 1.33788C2.837 1.33788 2.81938 1.32004 2.81938 1.28437H2.76652V1.26653C2.76652 1.24274 2.7489 1.23085 2.71366 1.23085L2.67841 1.21301L2.66079 1.19517C2.64905 1.19517 2.6373 1.19517 2.62555 1.19517C2.62555 1.18328 2.61968 1.17734 2.60793 1.17734V1.12382H2.57269L2.55507 1.10598H2.57269C2.59618 1.10598 2.62555 1.09409 2.66079 1.0703V1.03463H2.67841C2.66667 1.03463 2.66079 1.02868 2.66079 1.01679C2.66079 0.993005 2.66667 0.975166 2.67841 0.963274H2.66079H2.60793H2.57269H2.55507L2.57269 0.981112H2.5022L2.46696 0.963274V0.981112V1.03463H2.44934V1.0703L2.46696 1.12382L2.32599 1.10598H2.30837V1.0703V1.12382H2.20264L2.14978 1.0703V1.03463H2.11454C2.10279 1.05841 2.09692 1.0822 2.09692 1.10598H2.02643L2.00881 1.12382V1.0703C1.98532 1.04652 1.96769 1.03463 1.95595 1.03463C1.95595 1.05841 1.96182 1.0703 1.97357 1.0703H2.00881L1.90308 1.10598L1.86784 1.21301L1.85022 1.17734C1.81498 1.17734 1.79736 1.17139 1.79736 1.1595V1.12382V1.10598L1.76211 1.12382V1.10598H1.72687H1.67401L1.72687 1.17734L1.67401 1.12382H1.65639V1.10598V1.0703V1.10598H1.62115C1.5859 1.10598 1.56828 1.10004 1.56828 1.08814V1.0703H1.55066C1.50367 1.0703 1.49192 1.04057 1.51542 0.981112V0.963274H1.4978V0.981112V1.03463H1.44493L1.40969 0.981112C1.3862 0.981112 1.35683 0.998951 1.32159 1.03463C1.30984 0.998951 1.30396 0.945436 1.30396 0.874082V0.856244V0.838405C1.30396 0.838405 1.29222 0.832459 1.26872 0.820567C1.24523 0.820567 1.22761 0.826513 1.21586 0.838405C1.21586 0.850298 1.20999 0.856244 1.19824 0.856244V0.874082H1.21586V0.927598H1.163L1.09251 0.874082L1.14537 0.963274H1.09251H1.02203V0.874082V0.856244H0.969163H0.951542V0.820567L0.969163 0.767052H0.951542C0.939794 0.767052 0.928047 0.761106 0.9163 0.749213L0.951542 0.713537C0.963289 0.713537 0.969163 0.695698 0.969163 0.660021H0.9163V0.713537H0.863436V0.660021H0.845815H0.810573H0.740088H0.669603C0.634361 0.695698 0.61674 0.713537 0.61674 0.713537H0.599119H0.493392H0.264317C0.25257 0.737321 0.234949 0.737321 0.211454 0.713537C0.176211 0.713537 0.15859 0.695698 0.15859 0.660021H0.105727V0.624345H0.0352423V0.606506H0L0.0352423 0.570829H0.0528634C0.0881057 0.594614 0.123348 0.606506 0.15859 0.606506H0.211454H0.246696C0.246696 0.606506 0.25257 0.612452 0.264317 0.624345V0.606506H0.299559C0.381791 0.606506 0.452276 0.570829 0.511013 0.499475H0.563877C0.587371 0.499475 0.599119 0.505422 0.599119 0.517314H0.61674C0.61674 0.49353 0.628488 0.481637 0.651982 0.481637C0.687225 0.469745 0.716593 0.463799 0.740088 0.463799V0.410283H0.757709L0.810573 0.356769V0.410283C0.810573 0.44596 0.82232 0.463799 0.845815 0.463799V0.481637C0.845815 0.493529 0.851689 0.499475 0.863436 0.499475V0.517314H0.9163V0.499475H0.951542C0.951542 0.511368 0.957416 0.517314 0.969163 0.517314H1.02203C1.02203 0.517314 1.0279 0.511368 1.03965 0.499475H1.05727L1.163 0.463799L1.19824 0.499475H1.163H1.19824C1.19824 0.475691 1.22173 0.463799 1.26872 0.463799H1.30396C1.30396 0.41623 1.32746 0.392445 1.37445 0.392445H1.40969V0.463799H1.44493C1.48018 0.487583 1.4978 0.505422 1.4978 0.517314V0.535153C1.4978 0.547045 1.50367 0.558937 1.51542 0.570829L1.55066 0.606506V0.624345L1.51542 0.606506H1.4978V0.624345H1.55066L1.56828 0.606506H1.62115C1.62115 0.618399 1.62702 0.624345 1.63877 0.624345H1.65639C1.66814 0.624345 1.69163 0.636237 1.72687 0.660021V0.695698C1.72687 0.70759 1.73862 0.725429 1.76211 0.749213H1.85022L1.86784 0.660021L1.90308 0.713537H2.00881C2.02056 0.737321 2.03818 0.743267 2.06167 0.731375C2.08517 0.719483 2.10279 0.713537 2.11454 0.713537C2.17327 0.713537 2.20852 0.695698 2.22026 0.660021H2.25551V0.642183H2.27313C2.27313 0.642183 2.28488 0.648129 2.30837 0.660021V0.642183C2.30837 0.642183 2.31424 0.636237 2.32599 0.624345C2.34949 0.624345 2.37298 0.624345 2.39648 0.624345C2.41997 0.612452 2.44347 0.606506 2.46696 0.606506V0.624345V0.713537V0.749213H2.5022V0.713537L2.55507 0.660021V0.713537H2.57269C2.59618 0.689752 2.6138 0.677859 2.62555 0.677859C2.64905 0.677859 2.66079 0.689752 2.66079 0.713537H2.67841L2.66079 0.749213H2.67841C2.73715 0.749213 2.76652 0.755159 2.76652 0.767052L2.80176 0.749213V0.713537C2.80176 0.689752 2.80176 0.677859 2.80176 0.677859C2.81351 0.665967 2.81938 0.648129 2.81938 0.624345H2.87225H2.90749C2.90749 0.612452 2.90749 0.606506 2.90749 0.606506C2.91924 0.606506 2.92511 0.612452 2.92511 0.624345H2.96035H3.01322L3.03084 0.606506L3.06608 0.624345H3.11894V0.606506V0.570829L3.06608 0.517314C3.11307 0.49353 3.13656 0.469745 3.13656 0.445961C3.14831 0.410284 3.15419 0.380553 3.15419 0.356769H3.11894H3.15419C3.16593 0.356769 3.17181 0.33893 3.17181 0.303253V0.0535156H3.22467V0.0356774L3.25991 0V0.0356774V0.0535156V0.142708C3.25991 0.214061 3.28341 0.267576 3.3304 0.303253V0.356769H3.36564H3.38326V0.392445H3.4185C3.4185 0.380553 3.42438 0.374607 3.43612 0.374607C3.45962 0.374607 3.47137 0.380553 3.47137 0.392445C3.47137 0.404337 3.47724 0.416229 3.48899 0.428121C3.50073 0.428121 3.49486 0.440014 3.47137 0.463799V0.499475C3.47137 0.511368 3.48311 0.517314 3.50661 0.517314C3.48311 0.505422 3.48311 0.487583 3.50661 0.463799V0.410283L3.52423 0.463799C3.53598 0.463799 3.54185 0.469745 3.54185 0.481637C3.54185 0.505422 3.53598 0.517314 3.52423 0.517314V0.570829H3.57709V0.588667C3.57709 0.588667 3.58884 0.582721 3.61233 0.570829V0.517314L3.62996 0.624345H3.68282L3.71806 0.713537L3.68282 0.749213H3.70044L3.71806 0.767052H3.78855L3.82379 0.820567L3.73568 0.856244V0.927598H3.78855V0.981112H3.73568H3.78855V1.03463H3.82379V1.0703H3.78855H3.82379V1.10598V1.12382H3.78855H3.73568H3.71806H3.73568H3.71806L3.73568 1.17734V1.23085V1.28437V1.32004H3.78855C3.81204 1.32004 3.82379 1.32599 3.82379 1.33788C3.82379 1.33788 3.83554 1.33788 3.85903 1.33788V1.3914H3.87665V1.42707V1.46275C3.87665 1.48653 3.87078 1.50437 3.85903 1.51626C3.85903 1.51626 3.85903 1.52221 3.85903 1.5341V1.56978V1.58762H3.82379L3.85903 1.64113H3.87665V1.67681H3.92952L3.96476 1.64113H3.98238L4.03524 1.58762L4.07048 1.64113V1.67681H4.14097L4.08811 1.69465L4.07048 1.74816C4.07048 1.77195 4.07636 1.78384 4.08811 1.78384V1.74816L4.14097 1.78384H4.17621C4.19971 1.78384 4.21145 1.81357 4.21145 1.87303V1.81952C4.21145 1.79573 4.21733 1.77195 4.22907 1.74816H4.28194L4.31718 1.69465V1.74816H4.3348H4.38767V1.78384H4.40529C4.40529 1.78384 4.41116 1.77195 4.42291 1.74816V1.78384H4.44053V1.81952V1.78384C4.44053 1.78384 4.45228 1.78979 4.47577 1.80168H4.49339V1.81952H4.52863V1.87303H4.54626L4.56388 1.89087L4.61674 1.81952L4.63436 1.89087H4.74009L4.68723 1.92655C4.67548 1.96222 4.6696 1.9979 4.6696 2.03358V2.05142C4.70485 2.05142 4.74009 2.03358 4.77533 1.9979V1.98006H4.68723L4.77533 1.92655H4.79295C4.82819 1.90276 4.85756 1.88492 4.88106 1.87303C4.88106 1.83736 4.88693 1.81952 4.89868 1.81952H4.9163H4.96916H4.98678V1.87303H5.07489H5.09251C5.11601 1.88492 5.13363 1.89087 5.14537 1.89087V1.81952L5.19824 1.87303V1.78384L5.23348 1.74816V1.69465V1.67681L5.26872 1.69465L5.33921 1.74816H5.37445V1.78384C5.37445 1.80763 5.36858 1.82546 5.35683 1.83736C5.34508 1.84925 5.33921 1.86114 5.33921 1.87303C5.33921 1.88492 5.33333 1.89087 5.32159 1.89087H5.33921C5.3627 1.91466 5.39207 1.91466 5.42731 1.89087L5.48018 1.87303L5.42731 1.98006C5.43906 1.98006 5.44493 1.98601 5.44493 1.9979V2.03358H5.48018V2.12277C5.51542 2.13466 5.53304 2.1525 5.53304 2.17629L5.62115 2.2298V2.28332H5.67401V2.33683C5.63877 2.34872 5.63877 2.36656 5.67401 2.39035H5.69163V2.40819L5.77974 2.39035V2.40819L5.72687 2.47954L5.69163 2.49738H5.77974L5.69163 2.60441L5.79736 2.6936L5.93833 2.80063H6.02643V2.83631H6.04405H6.0793C6.0793 2.87198 6.09692 2.88982 6.13216 2.88982C6.14391 2.9255 6.14978 2.96118 6.14978 2.99685L6.18502 3.05037C6.16153 3.06226 6.14978 3.08604 6.14978 3.12172C6.14978 3.1574 6.14978 3.18713 6.14978 3.21091C6.17328 3.21091 6.20264 3.22875 6.23789 3.26443L6.27313 3.3001C6.23789 3.39524 6.23789 3.47849 6.27313 3.54984C6.27313 3.59741 6.26138 3.63309 6.23789 3.65687C6.20264 3.66877 6.18502 3.69255 6.18502 3.72823V3.7639H6.23789V3.72823H6.27313V3.7639H6.29075V3.81742C6.32599 3.81742 6.34361 3.82931 6.34361 3.8531V3.87093V3.90661V3.92445L6.37885 3.97796C6.3906 4.00175 6.40235 4.01959 6.4141 4.03148C6.42584 4.04337 6.41997 4.0731 6.39648 4.12067L6.44934 4.13851V4.19203L6.48458 4.2277L6.39648 4.26338V4.28122C6.39648 4.34068 6.4141 4.37041 6.44934 4.37041V4.38825V4.47744C6.44934 4.48933 6.45521 4.50122 6.46696 4.51312C6.46696 4.52501 6.47283 4.5369 6.48458 4.54879V4.58447V4.62015H6.5022L6.53745 4.6915L6.5022 4.72718L6.48458 4.74502V4.79853V4.83421H6.5022V4.85205H6.53745L6.59031 4.83421V4.85205V4.90556V4.94124H6.60793C6.60793 4.94124 6.6138 4.95313 6.62555 4.97691H6.60793C6.59618 4.97691 6.59031 4.99475 6.59031 5.03043V5.04827V5.10178V5.1553V5.19098L6.53745 5.20881V5.26233C6.53745 5.28611 6.5257 5.29801 6.5022 5.29801V5.40504C6.5257 5.42882 6.53157 5.44666 6.51982 5.45855C6.50808 5.45855 6.5022 5.47044 6.5022 5.49423H6.53745V5.51207L6.59031 5.54774V5.56558H6.53745V5.6191H6.62555V5.65477L6.53745 5.69045L6.59031 5.74397H6.53745V5.76181L6.59031 5.79748C6.55507 5.83316 6.53745 5.85694 6.53745 5.86884C6.53745 5.86884 6.54919 5.87478 6.57269 5.88667H6.59031V5.90451V5.97587V5.9937C6.59031 5.9937 6.57269 6.01154 6.53745 6.04722H6.5022L6.53745 6.10073H6.55507C6.55507 6.10073 6.56681 6.10073 6.59031 6.10073L6.62555 6.04722V6.11857H6.73128L6.64317 6.15425C6.60793 6.18993 6.59031 6.21371 6.59031 6.2256C6.6138 6.2256 6.61968 6.2256 6.60793 6.2256C6.59618 6.2256 6.59031 6.2375 6.59031 6.26128L6.62555 6.3148V6.42183H6.59031V6.4575H6.5022V6.47534H6.53745C6.57269 6.47534 6.59031 6.46939 6.59031 6.4575C6.60206 6.4575 6.60793 6.46345 6.60793 6.47534C6.60793 6.47534 6.6138 6.47534 6.62555 6.47534H6.64317C6.67841 6.49913 6.69604 6.52886 6.69604 6.56453H6.73128C6.70778 6.57643 6.70191 6.58237 6.71366 6.58237C6.7254 6.58237 6.73128 6.59426 6.73128 6.61805V6.63589C6.73128 6.64778 6.73715 6.65967 6.7489 6.67156V6.70724H6.73128V6.72508V6.77859C6.73128 6.80238 6.73128 6.82616 6.73128 6.84995C6.73128 6.87373 6.71953 6.89752 6.69604 6.9213H6.73128L6.69604 6.93914L6.7489 7.02833L6.83701 6.97482V7.02833C6.83701 7.06401 6.82526 7.08185 6.80176 7.08185C6.82526 7.08185 6.84288 7.09969 6.85463 7.13536C6.87812 7.13536 6.88987 7.14725 6.88987 7.17104C6.91336 7.17104 6.91924 7.17699 6.90749 7.18888C6.89574 7.20077 6.88987 7.21861 6.88987 7.24239H6.85463L6.83701 7.27807V7.29591L6.94273 7.34942V7.3851V7.42078C6.88399 7.44456 6.85463 7.48618 6.85463 7.54565V7.59916H6.87225C6.87225 7.59916 6.87812 7.61105 6.88987 7.63484C6.88987 7.64673 6.90749 7.65268 6.94273 7.65268V7.70619H6.97797V7.74187V7.77754H6.99559H7.04846V7.79538V7.88457C7.07195 7.88457 7.08957 7.87268 7.10132 7.8489C7.13656 7.8489 7.15419 7.86079 7.15419 7.88457H7.18943V7.95593L7.25991 7.99161C7.25991 8.0035 7.24816 8.00944 7.22467 8.00944H7.20705V8.06296L7.18943 8.09864V8.0808C7.18943 8.0808 7.17768 8.07485 7.15419 8.06296L7.10132 8.09864V8.13431V8.16999C7.10132 8.18188 7.09545 8.18783 7.0837 8.18783C7.09545 8.18783 7.10132 8.19377 7.10132 8.20567L7.15419 8.24134H7.20705L7.18943 8.25918H7.10132H7.0837V8.3127H7.10132L7.15419 8.36621H7.25991C7.28341 8.36621 7.3069 8.36027 7.3304 8.34837H7.34802L7.43612 8.41973H7.50661V8.49108H7.43612C7.44787 8.51487 7.45962 8.5327 7.47137 8.5446C7.49486 8.55649 7.51836 8.57433 7.54185 8.59811H7.55947H7.7533H7.80617H7.85903L7.89427 8.56243V8.65163V8.66947C7.85903 8.70514 7.82966 8.72298 7.80617 8.72298V8.7765V8.84785C7.80617 8.87163 7.81204 8.88947 7.82379 8.90136C7.83554 8.91326 7.82966 8.93109 7.80617 8.95488V9.06191V9.13326H7.78855V9.16894C7.80029 9.19272 7.80617 9.2284 7.80617 9.27597C7.86491 9.32354 7.90015 9.36516 7.91189 9.40084C7.92364 9.42462 7.94126 9.46625 7.96476 9.52571C7.98825 9.56139 8 9.59112 8 9.6149V9.63274ZM3.52423 14.574L3.47137 14.5561V14.6275L3.50661 14.574V14.6275L3.52423 14.574ZM6.7489 8.65163L6.73128 8.59811H6.7489C6.7489 8.57433 6.74303 8.56243 6.73128 8.56243C6.67254 8.56243 6.64317 8.53865 6.64317 8.49108V8.4554V8.36621L6.62555 8.34837H6.64317C6.67841 8.34837 6.70778 8.33648 6.73128 8.3127L6.69604 8.25918V8.24134L6.73128 8.20567V8.18783C6.70778 8.18783 6.69604 8.19377 6.69604 8.20567C6.66079 8.20567 6.64317 8.21756 6.64317 8.24134H6.62555V8.25918L6.59031 8.24134V8.20567V8.13431V8.11647C6.59031 8.11647 6.60206 8.11053 6.62555 8.09864C6.62555 8.09864 6.63142 8.09269 6.64317 8.0808V8.06296H6.62555V8.00944L6.59031 7.99161L6.62555 7.95593L6.59031 7.99161V7.90241V7.88457L6.53745 7.90241V7.77754V7.74187C6.57269 7.74187 6.59031 7.72998 6.59031 7.70619L6.5022 7.74187V7.70619C6.45521 7.65862 6.44934 7.60511 6.48458 7.54565H6.44934V7.43861L6.37885 7.42078H6.44934H6.39648V7.3851V7.34942L6.44934 7.29591V7.27807H6.39648L6.37885 7.29591V7.24239H6.29075V7.18888H6.30837C6.30837 7.18888 6.32012 7.18293 6.34361 7.17104V7.13536V7.08185L6.23789 7.17104L6.27313 7.08185V7.06401V7.02833L6.23789 6.97482L6.18502 6.93914L6.23789 6.83211V6.81427V6.77859V6.81427L6.18502 6.77859C6.18502 6.75481 6.17915 6.73697 6.1674 6.72508C6.15565 6.71319 6.14978 6.69535 6.14978 6.67156C6.18502 6.62399 6.18502 6.57048 6.14978 6.51102H6.13216V6.47534V6.4575V6.42183V6.3148C6.13216 6.27912 6.13803 6.24939 6.14978 6.2256H6.18502V6.15425L6.27313 6.11857V6.10073C6.27313 6.01749 6.26138 5.95208 6.23789 5.90451V5.851C6.26138 5.851 6.27313 5.84505 6.27313 5.83316V5.79748C6.28488 5.7737 6.28488 5.73802 6.27313 5.69045C6.24963 5.66667 6.22026 5.64288 6.18502 5.6191V5.56558V5.51207V5.49423V5.44071C6.16153 5.41693 6.14978 5.38125 6.14978 5.33368V5.29801C6.14978 5.25044 6.14391 5.22071 6.13216 5.20881C6.13216 5.18503 6.13803 5.14935 6.14978 5.10178L6.0793 5.03043V4.94124H6.04405V4.90556C6.04405 4.86988 6.0558 4.8461 6.0793 4.83421V4.74502L6.13216 4.6915L6.0793 4.67366V4.6915L6.04405 4.67366C6.03231 4.63799 6.02643 4.57852 6.02643 4.49528L5.99119 4.54879L5.90308 4.47744L5.99119 4.44176V4.38825V4.37041V4.28122V4.2277C5.95595 4.21581 5.93833 4.19797 5.93833 4.17419V4.13851C5.97357 4.12662 5.97357 4.10878 5.93833 4.085V4.12067H5.90308V4.085V4.01364L5.99119 3.97796C5.95595 3.97796 5.93833 3.97202 5.93833 3.96013V3.92445H5.90308C5.90308 3.91256 5.89721 3.90661 5.88546 3.90661V3.87093V3.90661V3.81742V3.78174V3.7639V3.67471H5.8326V3.65687L5.88546 3.6212C5.89721 3.58552 5.90308 3.54984 5.90308 3.51417H5.88546V3.46065V3.44281V3.42497H5.8326V3.40714C5.8326 3.37146 5.82085 3.34173 5.79736 3.31794L5.77974 3.3001C5.79148 3.27632 5.79148 3.26443 5.77974 3.26443C5.77974 3.25254 5.77974 3.2347 5.77974 3.21091V3.19307V3.1574V3.10388V3.05037L5.72687 3.06821L5.69163 2.94334C5.67988 2.91955 5.66226 2.90171 5.63877 2.88982C5.62702 2.86604 5.62115 2.8482 5.62115 2.83631V2.80063V2.78279C5.62115 2.75901 5.6094 2.74711 5.5859 2.74711V2.71144V2.74711L5.55066 2.80063V2.74711V2.71144H5.53304H5.48018V2.74711V2.80063H5.44493V2.74711H5.37445C5.35096 2.74711 5.33333 2.73522 5.32159 2.71144H5.26872H5.23348V2.6936L5.26872 2.64008V2.60441L5.23348 2.58657H5.19824L5.14537 2.60441L5.12775 2.49738C5.10426 2.49738 5.06902 2.46765 5.02203 2.40819C5.02203 2.40819 5.01615 2.39629 5.00441 2.37251L4.98678 2.35467H4.96916V2.33683V2.28332H4.9163L4.96916 2.17629H4.98678V2.2298H5.02203H5.07489H5.09251L5.14537 2.24764L5.12775 2.28332V2.33683C5.12775 2.34872 5.12775 2.35467 5.12775 2.35467C5.1395 2.35467 5.1395 2.36656 5.12775 2.39035H5.14537C5.14537 2.36656 5.15125 2.34872 5.163 2.33683C5.18649 2.32494 5.20999 2.3071 5.23348 2.28332H5.14537L5.19824 2.24764C5.19824 2.23575 5.18062 2.2298 5.14537 2.2298C5.13363 2.21791 5.12775 2.20602 5.12775 2.19412C5.11601 2.18223 5.11013 2.17629 5.11013 2.17629C5.11013 2.16439 5.10426 2.1525 5.09251 2.14061H5.07489H5.02203H4.98678H4.96916C4.95742 2.14061 4.94567 2.14655 4.93392 2.15845H4.9163V2.17629H4.96916C4.96916 2.18818 4.95742 2.20602 4.93392 2.2298L4.9163 2.24764H4.88106H4.84582V2.28332C4.89281 2.28332 4.89281 2.31899 4.84582 2.39035H4.79295H4.77533L4.79295 2.33683H4.77533C4.77533 2.33683 4.76946 2.32494 4.75771 2.30115V2.28332H4.74009C4.74009 2.25953 4.72834 2.24764 4.70485 2.24764C4.6931 2.24764 4.68135 2.24169 4.6696 2.2298H4.56388C4.54038 2.19412 4.49927 2.17629 4.44053 2.17629L4.49339 2.2298H4.44053H4.38767C4.32893 2.24169 4.27606 2.24169 4.22907 2.2298H4.21145V2.24764V2.2298H4.17621H4.21145H4.17621L4.14097 2.28332L4.17621 2.17629V2.14061C4.19971 2.14061 4.21145 2.13466 4.21145 2.12277H4.17621V2.14061H4.14097V2.17629C4.10573 2.1525 4.08223 2.14061 4.07048 2.14061C4.07048 2.12872 4.05874 2.12277 4.03524 2.12277H3.98238H3.96476H3.87665H3.85903H3.82379V2.05142H3.78855L3.73568 2.03358H3.71806V1.9979H3.68282L3.62996 2.03358L3.61233 2.05142C3.57709 2.11088 3.57709 2.14061 3.61233 2.14061V2.17629H3.57709H3.52423V2.2298H3.50661V2.17629V2.14061H3.47137C3.47137 2.16439 3.48311 2.19412 3.50661 2.2298H3.47137V2.24764V2.28332V2.33683C3.44787 2.34872 3.43025 2.36656 3.4185 2.39035C3.4185 2.40224 3.40675 2.40819 3.38326 2.40819V2.47954H3.3304C3.3304 2.49143 3.31278 2.49738 3.27753 2.49738V2.53305H3.25991V2.60441V2.62225C3.25991 2.63414 3.26579 2.64008 3.27753 2.64008H3.3304L3.36564 2.74711V2.80063H3.38326H3.4185H3.38326V2.81847C3.38326 2.83036 3.39501 2.83631 3.4185 2.83631V2.85415H3.38326C3.38326 2.87793 3.37739 2.88982 3.36564 2.88982C3.36564 2.96118 3.35389 3.01469 3.3304 3.05037V3.06821L3.27753 3.10388C3.32452 3.16334 3.32452 3.19902 3.27753 3.21091V3.26443L3.3304 3.21091C3.3304 3.2347 3.33627 3.25254 3.34802 3.26443C3.35977 3.26443 3.36564 3.27632 3.36564 3.3001H3.38326C3.38326 3.27632 3.38913 3.25254 3.40088 3.22875C3.41263 3.20497 3.4185 3.18118 3.4185 3.1574V3.10388L3.50661 3.19307V3.21091V3.26443C3.49486 3.26443 3.48311 3.27037 3.47137 3.28227V3.3001V3.31794V3.35362L3.4185 3.31794V3.35362H3.38326H3.36564V3.40714C3.35389 3.40714 3.34802 3.41308 3.34802 3.42497H3.36564V3.46065V3.51417L3.38326 3.532V3.54984V3.6212C3.39501 3.6212 3.40088 3.62714 3.40088 3.63903C3.40088 3.66282 3.39501 3.67471 3.38326 3.67471V3.72823L3.36564 3.7639C3.36564 3.7758 3.37151 3.78174 3.38326 3.78174V3.81742H3.4185L3.47137 3.87093V3.81742L3.57709 3.97796L3.62996 4.01364L3.61233 4.03148C3.60059 4.03148 3.59471 4.04337 3.59471 4.06716C3.59471 4.07905 3.60059 4.085 3.61233 4.085V4.10283V4.13851H3.57709L3.52423 4.12067V4.19203L3.50661 4.12067C3.48311 4.12067 3.47137 4.11473 3.47137 4.10283V4.085C3.45962 4.085 3.44787 4.09094 3.43612 4.10283H3.4185V4.12067C3.40675 4.12067 3.39501 4.12662 3.38326 4.13851H3.36564V4.17419C3.36564 4.18608 3.35389 4.19203 3.3304 4.19203C3.3304 4.21581 3.31865 4.2277 3.29515 4.2277H3.27753V4.28122V4.26338H3.3304H3.36564H3.38326L3.4185 4.2277C3.48899 4.27527 3.48899 4.34662 3.4185 4.44176C3.442 4.46555 3.44787 4.48339 3.43612 4.49528C3.42438 4.50717 3.4185 4.52501 3.4185 4.54879V4.58447V4.62015C3.39501 4.62015 3.38326 4.63799 3.38326 4.67366V4.6915C3.38326 4.75096 3.37739 4.81042 3.36564 4.86988C3.36564 4.91745 3.37151 4.97097 3.38326 5.03043L3.50661 5.04827L3.4185 5.08395L3.47137 5.10178L3.38326 5.1553V5.19098H3.36564H3.3304H3.36564V5.20881V5.26233C3.35389 5.26233 3.34214 5.26828 3.3304 5.28017V5.29801H3.36564V5.26233L3.38326 5.29801V5.26233L3.4185 5.29801V5.3872C3.39501 5.39909 3.38913 5.41693 3.40088 5.44071C3.41263 5.45261 3.4185 5.47044 3.4185 5.49423L3.50661 5.51207H3.47137V5.54774V5.6191H3.4185C3.45374 5.65477 3.47137 5.67261 3.47137 5.67261V5.69045H3.4185V5.74397H3.38326V5.79748H3.4185V5.851C3.45374 5.86289 3.47137 5.90451 3.47137 5.97587L3.50661 5.95803V6.01154C3.50661 6.071 3.49486 6.10073 3.47137 6.10073H3.50661V6.11857V6.13641C3.50661 6.1483 3.49486 6.15425 3.47137 6.15425V6.20776H3.50661L3.47137 6.2256V6.35047V6.4575L3.4185 6.56453V6.61805V6.67156V6.70724H3.47137C3.48311 6.71913 3.49486 6.72508 3.50661 6.72508H3.52423L3.57709 6.77859H3.61233C3.61233 6.7667 3.61821 6.76076 3.62996 6.76076V6.77859H3.68282H3.71806L3.68282 6.81427H3.64758C3.63583 6.81427 3.62996 6.81427 3.62996 6.81427C3.61821 6.81427 3.61233 6.82022 3.61233 6.83211L3.57709 6.88562V6.9213V6.93914C3.57709 6.96292 3.58884 6.99265 3.61233 7.02833H3.62996V7.17104H3.61233V7.24239H3.62996L3.61233 7.27807L3.68282 7.29591L3.52423 7.42078C3.52423 7.43267 3.51836 7.45645 3.50661 7.49213V7.52781L3.47137 7.54565L3.38326 7.59916V7.65268L3.36564 7.70619C3.36564 7.72998 3.37151 7.74187 3.38326 7.74187V7.77754V7.79538V7.8489H3.47137L3.4185 7.88457C3.46549 7.92025 3.48899 7.94998 3.48899 7.97377C3.50073 7.99755 3.50661 8.02728 3.50661 8.06296H3.47137H3.38326V8.09864H3.4185V8.13431H3.47137L3.50661 8.20567C3.50661 8.22945 3.49486 8.24729 3.47137 8.25918H3.4185V8.3127H3.43612C3.45962 8.3127 3.47137 8.32459 3.47137 8.34837H3.50661L3.47137 8.36621V8.41973L3.4185 8.4554V8.49108L3.47137 8.5446H3.4185V8.56243H3.47137V8.59811V8.65163H3.52423H3.50661L3.47137 8.66947L3.4185 8.65163V8.66947H3.43612C3.45962 8.66947 3.47137 8.68136 3.47137 8.70514L3.50661 8.72298H3.47137L3.50661 8.7765H3.47137V8.81217C3.47137 8.83596 3.48311 8.84785 3.50661 8.84785V8.90136L3.57709 9.02623H3.54185C3.5301 9.02623 3.52423 9.03812 3.52423 9.06191H3.50661L3.52423 9.11542H3.50661C3.48311 9.11542 3.45374 9.12137 3.4185 9.13326C3.37151 9.18083 3.38913 9.20462 3.47137 9.20462V9.27597H3.50661L3.47137 9.383V9.52571V9.6149H3.50661H3.52423L3.57709 9.66842H3.52423C3.51248 9.66842 3.50661 9.68625 3.50661 9.72193H3.52423C3.52423 9.69815 3.5301 9.68625 3.54185 9.68625C3.56535 9.68625 3.57709 9.69815 3.57709 9.72193L3.52423 9.93599L3.50661 9.88248V9.93599C3.50661 9.95978 3.50073 9.97167 3.48899 9.97167C3.47724 9.97167 3.47137 9.97761 3.47137 9.98951C3.47137 10.049 3.48311 10.0846 3.50661 10.0965V10.1322V10.1857L3.52423 10.1322H3.57709L3.61233 10.0965L3.62996 10.1857C3.62996 10.1976 3.62408 10.2095 3.61233 10.2214H3.57709H3.52423V10.2392H3.61233L3.57709 10.2928C3.57709 10.3165 3.57122 10.3344 3.55947 10.3463C3.54772 10.3582 3.5536 10.376 3.57709 10.3998V10.4355L3.61233 10.4533H3.62996H3.64758H3.68282C3.69457 10.4533 3.70631 10.4593 3.71806 10.4711V10.489C3.71806 10.5247 3.70631 10.5544 3.68282 10.5782H3.71806C3.71806 10.5901 3.70631 10.596 3.68282 10.596V10.6495C3.64758 10.6139 3.62408 10.6139 3.61233 10.6495C3.65932 10.6495 3.68282 10.6614 3.68282 10.6852V10.703H3.62996H3.68282V10.7922V10.8101L3.71806 10.8636H3.68282C3.68282 10.923 3.6652 10.9528 3.62996 10.9528V11.0063C3.62996 11.0301 3.63583 11.042 3.64758 11.042C3.67107 11.042 3.68282 11.0479 3.68282 11.0598C3.68282 11.0955 3.69457 11.1252 3.71806 11.149H3.73568L3.71806 11.1668V11.2204C3.71806 11.2679 3.72394 11.3095 3.73568 11.3452C3.73568 11.3571 3.74156 11.369 3.7533 11.3809C3.76505 11.3928 3.7768 11.3987 3.78855 11.3987C3.82379 11.4344 3.84728 11.4701 3.85903 11.5058C3.88253 11.5296 3.91777 11.5652 3.96476 11.6128L3.98238 11.5771H4.03524V11.5236H4.07048L4.14097 11.6128L4.03524 11.702H4.07048V11.6485H4.08811V11.702L4.14097 11.7198C4.14097 11.7912 4.15272 11.8269 4.17621 11.8269C4.19971 11.8269 4.21145 11.8388 4.21145 11.8625L4.22907 11.8804H4.28194V11.8625H4.31718V11.8804H4.3348V11.8625L4.38767 11.8804V11.8625H4.44053C4.52276 11.8625 4.58737 11.8506 4.63436 11.8269H4.74009H4.77533V11.809C4.78708 11.7852 4.79883 11.7674 4.81057 11.7555C4.83407 11.7317 4.84582 11.7139 4.84582 11.702L4.88106 11.6128L4.9163 11.6485H4.96916V11.6306H4.95154C4.93979 11.6306 4.92805 11.6247 4.9163 11.6128V11.5771V11.5236C4.95154 11.5117 4.97504 11.5117 4.98678 11.5236V11.5058H5.02203V11.5771L5.07489 11.5058L5.09251 11.5771C5.09251 11.5058 5.12775 11.5058 5.19824 11.5771V11.5236C5.22173 11.5236 5.24523 11.5177 5.26872 11.5058C5.29222 11.482 5.30984 11.4641 5.32159 11.4523C5.34508 11.4285 5.38032 11.4166 5.42731 11.4166C5.42731 11.4166 5.43319 11.4106 5.44493 11.3987V11.3631V11.3452C5.44493 11.3928 5.42144 11.3987 5.37445 11.3631C5.35096 11.3512 5.33921 11.3274 5.33921 11.2917L5.32159 11.3452L5.33921 11.1668L5.42731 11.2204H5.44493L5.42731 11.256H5.44493V11.2204V11.1668C5.44493 11.1668 5.45081 11.1549 5.46256 11.1312C5.46256 11.1193 5.46843 11.1133 5.48018 11.1133C5.51542 11.1133 5.53304 11.1074 5.53304 11.0955V11.0598V11.042C5.53304 11.042 5.53891 11.0301 5.55066 11.0063V10.9528H5.5859V10.9349V10.8993L5.55066 10.9349V10.8993V10.8636H5.53304V10.8101L5.55066 10.7922V10.7566C5.57416 10.7328 5.61527 10.6971 5.67401 10.6495V10.596V10.5782H5.69163V10.5425H5.72687V10.4533C5.77386 10.4533 5.79736 10.4474 5.79736 10.4355H5.8326V10.3998L5.88546 10.4355C5.89721 10.4355 5.90308 10.4236 5.90308 10.3998L5.88546 10.3463V10.3284H5.90308C5.90308 10.3047 5.89721 10.2928 5.88546 10.2928C5.88546 10.2809 5.88546 10.263 5.88546 10.2392V10.1857C5.89721 10.1857 5.90308 10.1679 5.90308 10.1322H5.93833L5.90308 10.0965C5.90308 10.0609 5.91483 10.0252 5.93833 9.98951H5.99119H6.02643V9.97167V9.93599H6.04405C6.06755 9.93599 6.0793 9.93005 6.0793 9.91815V9.88248C6.11454 9.85869 6.13803 9.8468 6.14978 9.8468L6.18502 9.77545H6.23789H6.18502V9.73977H6.23789L6.29075 9.63274H6.27313V9.6149C6.28488 9.59112 6.29075 9.54949 6.29075 9.49003L6.27313 9.47219H6.29075C6.32599 9.47219 6.34361 9.44246 6.34361 9.383V9.31165L6.37885 9.36516H6.39648L6.48458 9.383V9.36516H6.5022C6.5022 9.35327 6.50808 9.34138 6.51982 9.32949C6.51982 9.31759 6.51982 9.31165 6.51982 9.31165C6.53157 9.29976 6.53745 9.28786 6.53745 9.27597V9.25813H6.59031L6.62555 9.20462H6.59031L6.53745 9.25813H6.5022C6.5022 9.25813 6.49633 9.26408 6.48458 9.27597L6.37885 9.31165L6.48458 9.20462V9.13326H6.5022V9.11542H6.53745V9.06191V9.04407H6.55507C6.55507 9.04407 6.56681 9.03813 6.59031 9.02623V9.00839C6.59031 8.9965 6.59618 8.99056 6.60793 8.99056C6.61968 8.99056 6.63142 8.9965 6.64317 9.00839V8.95488C6.67841 8.95488 6.69604 8.94299 6.69604 8.9192V8.90136H6.64317V8.84785V8.81217H6.66079C6.68429 8.81217 6.69604 8.80028 6.69604 8.7765V8.72298V8.70514V8.6873C6.69604 8.6873 6.70778 8.68136 6.73128 8.66947V8.65163L6.7489 8.66947V8.65163ZM5.02203 11.6128H4.98678H5.02203ZM3.47137 3.87093H3.4185V3.90661L3.47137 3.87093ZM3.47137 5.97587H3.4185L3.47137 6.01154V5.97587ZM4.2467 2.17629C4.27019 2.17629 4.28194 2.16439 4.28194 2.14061L4.22907 2.17629H4.2467ZM6.02643 3.97796V4.01364V3.97796ZM3.71806 1.10598V1.0703V1.08814C3.71806 1.10004 3.70631 1.10598 3.68282 1.10598V1.12382L3.71806 1.10598ZM3.25991 12.4334C3.25991 12.4215 3.24816 12.4155 3.22467 12.4155V12.4334H3.25991ZM3.62996 12.8258L3.61233 12.8793V12.8972C3.61233 12.8496 3.61821 12.8258 3.62996 12.8258ZM3.06608 1.64113H3.03084H3.06608ZM2.4141 1.03463H2.36123H2.4141ZM2.4141 0.981112V0.963274V0.981112ZM2.44934 1.03463H2.4141H2.44934ZM1.40969 0.570829V0.606506V0.570829ZM1.44493 0.606506V0.570829V0.606506ZM3.01322 2.05142L2.96035 2.12277L3.01322 2.05142ZM6.18502 3.7639V3.78174L6.14978 3.81742V3.78174C6.13803 3.78174 6.13216 3.7758 6.13216 3.7639H6.18502ZM2.87225 1.23085V1.21301V1.23085ZM4.49339 12.1658V12.1123H4.44053L4.49339 12.1658Z" fill="black"/>
</svg>
