<svg width="13" height="16" viewBox="0 0 13 16" fill="none" xmlns="http://www.w3.org/2000/svg">
<path d="M13 8.58661L12.9829 8.60361V8.65462H12.8972C12.8858 8.65462 12.8744 8.64895 12.863 8.63762L12.8287 8.60361C12.8287 8.59228 12.8059 8.58661 12.7602 8.58661H12.7088H12.6746C12.6289 8.58661 12.5889 8.56961 12.5547 8.5356H12.5375C12.469 8.60361 12.4005 8.60361 12.332 8.5356L12.2806 8.48459V8.43358L12.3149 8.39957L12.2806 8.36557C12.2806 8.3429 12.2692 8.33156 12.2464 8.33156H12.2292H12.2121C12.2121 8.35423 12.2007 8.36557 12.1779 8.36557C12.1664 8.36557 12.1607 8.3769 12.1607 8.39957H12.1265L12.0922 8.43358L12.0066 8.39957L11.9038 8.33156H11.8353H11.7839C11.7839 8.29756 11.7782 8.27488 11.7668 8.26355L11.7154 8.21254H11.6983C11.6869 8.21254 11.6812 8.2012 11.6812 8.17853L11.6298 8.14453V8.11052C11.6184 8.07651 11.6126 8.05384 11.6126 8.04251H11.5955C11.5727 8.04251 11.5498 8.04818 11.527 8.05951C11.5042 8.05951 11.4756 8.05951 11.4414 8.05951C11.4071 8.05951 11.3843 8.07651 11.3729 8.11052L11.2872 8.14453L11.2358 8.11052H11.2187H11.1673V8.14453L11.0988 8.21254L11.0646 8.17853C11.0189 8.17853 10.996 8.1672 10.996 8.14453C10.9618 8.14453 10.9447 8.13886 10.9447 8.12752V8.11052H10.9275V8.05951H10.8933H10.8419H10.8248H10.7734V8.04251C10.7505 8.04251 10.7391 8.03684 10.7391 8.0255V7.9915L10.7049 7.95749H10.6192C10.6078 7.95749 10.5964 7.95182 10.585 7.94049C10.585 7.92915 10.5736 7.92349 10.5507 7.92349H10.3966C10.3852 7.92349 10.3794 7.92915 10.3794 7.94049C10.3794 7.94049 10.3737 7.94049 10.3623 7.94049C10.3509 7.95182 10.3395 7.95749 10.3281 7.95749H10.2596H10.2253C10.2139 7.98016 10.1968 7.99717 10.1739 8.0085C10.1511 8.01984 10.1168 8.00283 10.0711 7.95749H10.054C10.0198 7.98016 9.99693 7.9915 9.98551 7.9915H9.84848L9.83136 7.95749L9.77997 7.9915H9.71146H9.67721C9.63153 8.03684 9.59728 8.05951 9.57444 8.05951H9.54019C9.48309 8.05951 9.44884 8.05384 9.43742 8.04251H9.35178H9.31752C9.29469 8.08785 9.26043 8.11052 9.21476 8.11052H9.12912C9.10628 8.13319 9.08344 8.14453 9.06061 8.14453L9.00922 8.17853H8.9921H8.94071H8.90646H8.88933C8.88933 8.15586 8.87791 8.14453 8.85507 8.14453H8.83795H8.82082H8.78656C8.77514 8.14453 8.76943 8.15586 8.76943 8.17853H8.73518H8.66667V8.21254L8.61528 8.26355C8.61528 8.27488 8.60957 8.28055 8.59816 8.28055C8.59816 8.28055 8.59816 8.28622 8.59816 8.29756V8.33156V8.34856C8.59816 8.3599 8.58103 8.36557 8.54677 8.36557V8.43358V8.48459C8.54677 8.49593 8.53535 8.51293 8.51252 8.5356L8.46113 8.65462H8.51252V8.67163H8.54677V8.72264C8.54677 8.74531 8.55248 8.75664 8.5639 8.75664H8.59816V8.82465V8.90967V8.94368V8.97768V9.02869C8.57532 9.04003 8.55819 9.05703 8.54677 9.0797C8.54677 9.09104 8.53535 9.09671 8.51252 9.09671C8.53535 9.11938 8.54677 9.13071 8.54677 9.13071V9.16472V9.21573V9.26674L8.59816 9.36876H8.54677V9.40276C8.54677 9.4141 8.5639 9.41977 8.59816 9.41977V9.43677C8.59816 9.48211 8.60387 9.52178 8.61528 9.55579C8.64954 9.57846 8.66667 9.61247 8.66667 9.65781C8.66667 9.73716 8.67238 9.80517 8.6838 9.86185V9.87885C8.71805 9.90152 8.73518 9.93553 8.73518 9.98087C8.75802 10.0149 8.76943 10.0375 8.76943 10.0489C8.78085 10.0716 8.79227 10.0886 8.80369 10.0999C8.81511 10.0999 8.82082 10.1056 8.82082 10.1169V10.1339V10.1849C8.83224 10.1962 8.83224 10.2189 8.82082 10.2529L8.73518 10.3549L8.66667 10.2529V10.2019C8.63241 10.2019 8.61528 10.1962 8.61528 10.1849V10.1679C8.61528 10.1566 8.60957 10.1452 8.59816 10.1339L8.51252 10.0999L8.54677 10.0489C8.54677 10.0035 8.53535 9.9752 8.51252 9.96387V9.91286V9.89586H8.49539C8.48397 9.89586 8.47255 9.89019 8.46113 9.87885V9.86185C8.46113 9.81651 8.4383 9.77683 8.39262 9.74283V9.72582C8.39262 9.71449 8.38691 9.70882 8.37549 9.70882C8.37549 9.69749 8.37549 9.68048 8.37549 9.65781C8.36408 9.65781 8.35266 9.65214 8.34124 9.64081C8.32982 9.62947 8.32411 9.61247 8.32411 9.5898C8.30127 9.5898 8.28986 9.56146 8.28986 9.50478V9.48778L8.06719 9.55579L8.22134 9.36876V9.28374L8.20422 9.26674V9.21573C8.1928 9.21573 8.18138 9.21006 8.16996 9.19872C8.15854 9.19872 8.15283 9.18739 8.15283 9.16472L8.11858 9.09671H8.22134V9.0457V9.02869H8.20422V8.97768L8.15283 8.94368V8.87566V8.82465L8.11858 8.80765C8.11858 8.78498 8.10716 8.76231 8.08432 8.73964L8.06719 8.72264V8.67163C8.05578 8.67163 8.05007 8.66596 8.05007 8.65462H7.99868V8.58661V8.5356V8.5186C7.99868 8.49593 7.99868 8.48459 7.99868 8.48459H7.98156H7.93017V8.43358H7.89592V8.36557H7.84453C7.79886 8.38824 7.74177 8.38824 7.67325 8.36557H7.62187L7.60474 8.33156L7.55336 8.28055C7.47343 8.28055 7.41634 8.27488 7.38208 8.26355H7.34783V8.28055H7.22793H7.2108L7.07378 8.21254H7.05665H7.00527H6.98814L6.93676 8.28055L6.9025 8.26355H6.85112L6.83399 8.21254L6.73123 8.26355V8.21254L6.67984 8.17853L6.66271 8.14453C6.61704 8.12186 6.59991 8.11052 6.61133 8.11052H6.5942H6.50856C6.47431 8.11052 6.45718 8.12186 6.45718 8.14453C6.45718 8.15586 6.45147 8.16153 6.44005 8.16153C6.42863 8.17287 6.41151 8.17853 6.38867 8.17853L6.37154 8.14453H6.32016H6.2859L6.23452 8.17853L6.21739 8.11052C6.17172 8.11052 6.14888 8.09352 6.14888 8.05951H6.11462L6.04611 8.11052V8.05951H5.99473H5.96047L5.89196 8.11052V8.17853L5.84058 8.14453L5.77207 8.17853L5.82345 8.05951V8.04251H5.77207V7.9915L5.73781 7.95749H5.70356H5.60079H5.56654C5.55512 7.95749 5.54941 7.94616 5.54941 7.92349H5.51515H5.4809H5.44664L5.34387 7.9915V7.88948L5.27536 7.95749L5.22398 7.88948H5.20685H5.15547L5.0527 7.92349V7.83847H5.00132H4.89855L4.84717 7.82147V7.83847C4.83575 7.86114 4.81862 7.87248 4.79578 7.87248C4.77295 7.87248 4.75011 7.86114 4.72727 7.83847C4.6816 7.83847 4.65876 7.8328 4.65876 7.82147H4.57312H4.53887L4.50461 7.78746C4.50461 7.81013 4.48748 7.82147 4.45323 7.82147V7.88948L4.4361 7.92349V7.95749V7.9915C4.44752 8.0255 4.45323 8.04818 4.45323 8.05951L4.53887 8.04251V8.11052L4.60738 8.14453L4.57312 8.17853V8.21254H4.60738V8.28055V8.36557L4.65876 8.39957L4.60738 8.48459V8.50159L4.65876 8.48459L4.67589 8.5356C4.67589 8.54694 4.6816 8.55827 4.69302 8.56961L4.72727 8.60361V8.65462C4.75011 8.66596 4.76153 8.68863 4.76153 8.72264C4.77295 8.74531 4.77295 8.77364 4.76153 8.80765V8.82465H4.77866L4.84717 8.89267C4.84717 8.94934 4.8643 8.99469 4.89855 9.02869C4.92139 9.04003 4.93852 9.05136 4.94993 9.0627C4.97277 9.0627 4.98419 9.07403 4.98419 9.09671L5.20685 9.19872V9.21573V9.28374H5.22398L5.29249 9.41977L5.34387 9.36876V9.43677V9.50478V9.55579H5.37813H5.44664V9.5898H5.4809V9.64081C5.49231 9.64081 5.50373 9.64648 5.51515 9.65781C5.51515 9.66915 5.52086 9.68048 5.53228 9.69182C5.53228 9.70315 5.53228 9.71449 5.53228 9.72582C5.5437 9.72582 5.54941 9.73149 5.54941 9.74283V9.77683C5.59508 9.77683 5.61792 9.80517 5.61792 9.86185H5.6693L5.73781 9.96387H5.70356L5.73781 9.98087L5.92622 10.0489L5.82345 10.0999V10.1339H5.84058C5.87484 10.1339 5.89196 10.1452 5.89196 10.1679V10.1849C5.93764 10.1849 5.96047 10.2076 5.96047 10.2529V10.2699H5.99473C6.01757 10.3153 6.03469 10.3493 6.04611 10.3719C6.06895 10.3946 6.10321 10.4116 6.14888 10.423C6.1603 10.457 6.18314 10.4796 6.21739 10.491C6.22881 10.491 6.23452 10.508 6.23452 10.542C6.24594 10.542 6.25736 10.5476 6.26877 10.559C6.28019 10.559 6.29161 10.559 6.30303 10.559L6.32016 10.576H6.37154L6.45718 10.644H6.44005C6.45147 10.6553 6.45718 10.6723 6.45718 10.695C6.4686 10.7063 6.48573 10.712 6.50856 10.712V10.746C6.50856 10.7574 6.51427 10.7687 6.52569 10.78C6.52569 10.7914 6.5314 10.8027 6.54282 10.814L6.5942 10.865C6.60562 10.865 6.61133 10.8707 6.61133 10.882H6.66271V10.797L6.73123 10.933L6.81686 10.865V11.0181L6.85112 11.0351H6.86825C6.89108 11.0351 6.9025 11.0521 6.9025 11.0861C6.9596 11.0861 6.98814 11.0917 6.98814 11.1031H7.00527V11.1541H7.05665H7.07378C7.09662 11.1541 7.11946 11.1598 7.14229 11.1711C7.16513 11.1824 7.19368 11.1881 7.22793 11.1881V11.2391H7.27932H7.29644H7.34783C7.37066 11.2391 7.39921 11.2448 7.43347 11.2561H7.45059H7.5191L7.67325 11.2901L7.62187 11.3241H7.67325H7.70751L7.75889 11.2901L7.8274 11.3241V11.2901L7.98156 11.3581H8.06719L8.05007 11.4091C8.06148 11.4091 8.08432 11.4148 8.11858 11.4261H8.20422H8.22134H8.28986C8.28986 11.4035 8.3184 11.4035 8.37549 11.4261H8.39262V11.4091L8.46113 11.4261H8.54677H8.66667H8.6838C8.70663 11.4148 8.72947 11.4148 8.75231 11.4261C8.77514 11.4261 8.79798 11.4261 8.82082 11.4261H8.83795H8.94071H8.95784C8.98068 11.4261 8.9921 11.4431 8.9921 11.4772V11.4261L9.09486 11.4772C9.1177 11.4998 9.13483 11.5112 9.14625 11.5112H9.16337L9.23188 11.4772V11.5112H9.28327C9.28327 11.4885 9.28898 11.4772 9.3004 11.4772H9.31752H9.43742V11.5112H9.45455C9.47738 11.4885 9.49451 11.4715 9.50593 11.4601C9.52877 11.4375 9.5516 11.4261 9.57444 11.4261C9.6087 11.4261 9.65437 11.4205 9.71146 11.4091L9.84848 11.2901V11.4261H9.89987H9.93412V11.4091L10.054 11.3581H10.0711C10.0826 11.3581 10.0883 11.3638 10.0883 11.3751C10.0883 11.3865 10.0997 11.3978 10.1225 11.4091H10.1568C10.2025 11.3638 10.2253 11.3638 10.2253 11.4091H10.2596L10.3281 11.4261L10.3794 11.3581L10.3966 11.4261C10.4308 11.4261 10.448 11.4431 10.448 11.4772V11.4261H10.4822C10.5051 11.4148 10.5279 11.4091 10.5507 11.4091H10.6021L10.6192 11.3581L10.6706 11.4091L10.7049 11.3581V11.4091L10.7391 11.3241L10.8248 11.3581H10.8419L10.8248 11.2901L10.9275 11.3581H10.9447H11.0132H11.0646L11.0988 11.4772L10.9447 11.5792H10.9275L10.8419 11.6302H10.8248V11.6472H10.7391H10.6192H10.6021H10.5507V11.7322H10.4822H10.448V11.7662L10.3966 11.7322H10.3794H10.3281V11.7662L10.2596 11.7322L10.2253 11.6982H10.2082V11.7322L10.2596 11.7662C10.2596 11.7889 10.2653 11.8059 10.2767 11.8172C10.2881 11.8172 10.3052 11.8286 10.3281 11.8512L10.3966 11.9192L10.3794 11.9532L10.4822 12.0383L10.5507 12.1233L10.4822 12.1743V12.2423C10.4822 12.2536 10.4879 12.265 10.4993 12.2763C10.5108 12.2763 10.5165 12.2876 10.5165 12.3103L10.5507 12.3443C10.5507 12.3783 10.5564 12.3953 10.5679 12.3953H10.6021C10.6135 12.4067 10.6192 12.4237 10.6192 12.4463C10.6307 12.4577 10.6478 12.4633 10.6706 12.4633V12.5313H10.7049V12.6334H10.7734H10.9447L10.8419 12.7864C10.8762 12.7864 10.8933 12.8091 10.8933 12.8544C10.9161 12.8771 10.9332 12.8998 10.9447 12.9224V12.9564L10.996 13.0074H10.9447H10.996V13.0244H11.0988L11.0646 13.1095L11.1502 13.0074V13.1095H11.1673V13.2285H11.2187V13.2455V13.2795V13.3305V13.3475L11.39 13.4155H11.2187V13.4665C11.2187 13.5232 11.2016 13.5515 11.1673 13.5515H11.2187V13.5685V13.6196C11.2187 13.6196 11.2244 13.6252 11.2358 13.6366C11.2358 13.6479 11.2415 13.6649 11.253 13.6876C11.2758 13.7329 11.2872 13.7612 11.2872 13.7726V13.7896C11.3101 13.7896 11.3329 13.8009 11.3557 13.8236C11.3672 13.8349 11.3729 13.8463 11.3729 13.8576V13.9086C11.3843 13.9086 11.39 13.9256 11.39 13.9596C11.4357 14.005 11.4585 14.0446 11.4585 14.0786C11.4585 14.0786 11.4699 14.0843 11.4928 14.0956H11.5099V14.1126V14.1637H11.5441V14.1807H11.6298L11.5955 14.2317V14.2657H11.6126V14.2997C11.6241 14.2997 11.6298 14.311 11.6298 14.3337L11.6812 14.3847C11.6812 14.396 11.6926 14.4187 11.7154 14.4527H11.7668V14.4867V14.5207C11.7782 14.5207 11.7839 14.5321 11.7839 14.5547C11.8182 14.5887 11.8353 14.6114 11.8353 14.6227V14.6567C11.8467 14.6567 11.8524 14.6738 11.8524 14.7078V14.7248C11.8867 14.7248 11.9038 14.7474 11.9038 14.7928L11.9381 14.8438C11.9381 14.8665 11.9552 14.8948 11.9895 14.9288C12.0009 14.9401 12.0123 14.9571 12.0237 14.9798C12.0466 15.0025 12.0694 15.0308 12.0922 15.0648V15.0988C12.1151 15.1328 12.1265 15.1555 12.1265 15.1668V15.2008C12.1265 15.2122 12.1379 15.2179 12.1607 15.2179V15.2349L12.2121 15.3199L12.0922 15.3879L12.0066 15.2859C11.9952 15.2632 11.9838 15.2405 11.9723 15.2179C11.9723 15.2065 11.9609 15.1895 11.9381 15.1668C11.9381 15.1668 11.9267 15.1612 11.9038 15.1498V15.0988H11.8524L11.8353 15.0648V14.9968V14.9458L11.7668 14.8778C11.7668 14.8438 11.7383 14.8098 11.6812 14.7758L11.6298 14.7248C11.6184 14.7248 11.6126 14.7191 11.6126 14.7078C11.6126 14.7078 11.6069 14.7078 11.5955 14.7078C11.5955 14.6851 11.5841 14.6681 11.5613 14.6567C11.5498 14.6567 11.5441 14.6454 11.5441 14.6227C11.5213 14.6114 11.5099 14.5887 11.5099 14.5547V14.5207C11.4642 14.4867 11.4414 14.464 11.4414 14.4527V14.4017H11.3729L11.39 14.3847H11.3729V14.2997H11.2358L11.2872 14.2657L11.2358 14.2317H11.2872C11.253 14.1977 11.2358 14.175 11.2358 14.1637C11.2244 14.1637 11.2187 14.1467 11.2187 14.1126C11.1845 14.09 11.1673 14.0673 11.1673 14.0446V14.0106C11.1559 13.9766 11.1331 13.9539 11.0988 13.9426C11.0988 13.9199 11.0874 13.9086 11.0646 13.9086V13.8576C11.0189 13.8463 10.996 13.8179 10.996 13.7726V13.7216C10.9618 13.7216 10.9447 13.7102 10.9447 13.6876V13.6196H10.8933L10.9275 13.5685L10.8248 13.6876L10.9275 13.4665V13.3985V13.3475V13.3305H10.8419C10.8305 13.3305 10.8248 13.3022 10.8248 13.2455L10.7734 13.1775H10.8248L10.7734 13.1435L10.7391 13.1095C10.7163 13.1095 10.7049 13.0811 10.7049 13.0244V13.0074L10.6706 12.9564V12.9224C10.6706 12.8998 10.6592 12.8884 10.6364 12.8884H10.6192C10.6078 12.8884 10.6021 12.8827 10.6021 12.8714V12.8034L10.5507 12.7864C10.5279 12.7864 10.5165 12.7807 10.5165 12.7694V12.7354L10.448 12.6674L10.4822 12.6334L10.3281 12.6674L10.3966 12.5313H10.3794V12.4803H10.3623C10.3509 12.4803 10.3395 12.4747 10.3281 12.4633V12.4123L10.3109 12.3953H10.2938H10.2596L10.2253 12.3443C10.2253 12.333 10.2196 12.3216 10.2082 12.3103C10.1739 12.2763 10.1568 12.2366 10.1568 12.1913L9.93412 12.1743L10.0711 12.0893V12.0383L10.054 12.0213V11.9702H10.0026L9.98551 11.9532C9.95125 11.9532 9.92842 11.9476 9.917 11.9362C9.90558 11.9362 9.89987 11.9306 9.89987 11.9192V11.8682H9.84848V11.8512L9.77997 11.8002L9.76285 11.7662C9.72859 11.7889 9.70004 11.8002 9.67721 11.8002L9.62582 11.8512H9.6087L9.50593 11.8682H9.45455V11.8512L9.21476 11.8682H9.16337H9.09486V11.8512H8.9921H8.90646H8.83795H8.82082H8.73518H8.6838H8.66667H8.61528H8.59816H8.51252V11.8682L8.39262 11.8002V11.8512H8.37549C8.34124 11.8512 8.3184 11.8456 8.30698 11.8342C8.29556 11.8229 8.28986 11.8115 8.28986 11.8002H8.23847H8.22134L8.15283 12.0213L8.11858 11.8002H8.05007H7.99868L7.98156 11.7662H7.93017C7.90733 11.7889 7.89021 11.8002 7.87879 11.8002H7.84453C7.83311 11.8002 7.8217 11.7945 7.81028 11.7832C7.81028 11.7719 7.79886 11.7662 7.77602 11.7662H7.75889H7.70751H7.67325H7.62187H7.55336V11.7832C7.55336 11.7945 7.54194 11.8002 7.5191 11.8002C7.54194 11.8002 7.54765 11.8115 7.53623 11.8342C7.52481 11.8456 7.5191 11.8569 7.5191 11.8682C7.5191 11.8796 7.52481 11.8909 7.53623 11.9022C7.53623 11.9136 7.53623 11.9249 7.53623 11.9362C7.54765 11.9362 7.55336 11.9419 7.55336 11.9532L7.60474 11.9702H7.62187V12.0383V12.0893C7.65613 12.1119 7.67325 12.1459 7.67325 12.1913H7.70751V12.2423V12.3103C7.73035 12.333 7.74177 12.3556 7.74177 12.3783C7.75318 12.3897 7.7646 12.401 7.77602 12.4123V12.4633V12.4803V12.5313C7.77602 12.554 7.79315 12.5654 7.8274 12.5654L7.84453 12.6164C7.87879 12.6277 7.89592 12.6447 7.89592 12.6674H7.93017C7.93017 12.7127 7.9473 12.7354 7.98156 12.7354C7.98156 12.7694 7.98726 12.7921 7.99868 12.8034L8.05007 12.8544V12.8884L8.06719 12.9224H8.11858L8.15283 12.9564V13.0074H8.20422V12.9564L8.22134 13.0244H8.23847V13.0755V13.1435V13.1605C8.23847 13.1718 8.2556 13.1775 8.28986 13.1775L8.32411 13.1095L8.46113 13.2285L8.51252 13.1775V13.2285L8.54677 13.1775L8.51252 13.2285L8.54677 13.2795C8.58103 13.3135 8.60387 13.3305 8.61528 13.3305V13.3475V13.4155V13.4665C8.63812 13.4439 8.65525 13.4382 8.66667 13.4495C8.6895 13.4609 8.71234 13.4665 8.73518 13.4665L8.76943 13.5005C8.80369 13.5345 8.82082 13.5572 8.82082 13.5685L8.88933 13.6366H8.83795L8.90646 13.6876L9.00922 13.7216H8.94071V13.7726H8.88933V13.7896C8.90075 13.8236 8.90646 13.8463 8.90646 13.8576L8.9921 14.0106L8.88933 13.9596V14.0106C8.88933 14.0106 8.90075 14.0163 8.92358 14.0276L8.94071 14.0446V14.1126H8.9921V14.1637L9.00922 14.1807V14.2147C9.00922 14.226 9.02635 14.2317 9.06061 14.2317V14.2657H9.09486L9.12912 14.0446L9.21476 14.2317L9.23188 14.2657C9.23188 14.2883 9.23759 14.2997 9.24901 14.2997C9.27185 14.2997 9.28327 14.311 9.28327 14.3337V14.3847C9.3061 14.396 9.32894 14.4074 9.35178 14.4187C9.38603 14.4414 9.41458 14.464 9.43742 14.4867L9.45455 14.5207H9.4888C9.50022 14.5207 9.51735 14.5321 9.54019 14.5547H9.62582L9.6087 14.6057L9.62582 14.6227H9.67721V14.6567H9.76285C9.76285 14.6794 9.76285 14.6908 9.76285 14.6908C9.77426 14.7021 9.77997 14.7134 9.77997 14.7248C9.80281 14.7134 9.81994 14.7078 9.83136 14.7078C9.85419 14.7191 9.87703 14.7248 9.89987 14.7248V14.7758L9.93412 14.7928C9.94554 14.7928 9.96267 14.8041 9.98551 14.8268L10.0026 14.8438C10.0369 14.8665 10.0654 14.8835 10.0883 14.8948C10.1111 14.9175 10.1339 14.9345 10.1568 14.9458C10.1796 14.9685 10.1968 14.9911 10.2082 15.0138C10.231 15.0478 10.2596 15.0762 10.2938 15.0988C10.3395 15.0988 10.368 15.1045 10.3794 15.1158C10.4023 15.1385 10.4251 15.1555 10.448 15.1668H10.4651V15.1838C10.4651 15.1952 10.4708 15.2065 10.4822 15.2179H10.5165L10.5507 15.2349C10.5736 15.2349 10.5907 15.2405 10.6021 15.2519C10.6249 15.2745 10.6478 15.2859 10.6706 15.2859C10.7163 15.3312 10.7391 15.3652 10.7391 15.3879H10.7734L10.8248 15.4049C10.8933 15.4616 10.9275 15.5069 10.9275 15.5409V15.5579C10.939 15.5806 10.9504 15.5919 10.9618 15.5919C10.9846 15.6033 11.0018 15.6146 11.0132 15.6259L11.0646 15.6769C11.1331 15.6996 11.1673 15.7506 11.1673 15.83H11.2187V15.847L11.2872 15.898L11.2358 16H11.2187H11.1673H11.1502H11.0988C11.0417 16 11.0132 15.9773 11.0132 15.932V15.898L10.9447 15.932L10.9275 15.898V15.847H10.8933L10.8248 15.83V15.779C10.7905 15.779 10.762 15.7733 10.7391 15.762C10.7163 15.762 10.7049 15.7506 10.7049 15.7279C10.7049 15.7166 10.6935 15.7109 10.6706 15.7109L10.6192 15.6769V15.7109V15.6769C10.6078 15.6769 10.5964 15.6656 10.585 15.6429C10.585 15.6316 10.5736 15.6259 10.5507 15.6259L10.5165 15.6089L10.3794 15.4899L10.2938 15.4559V15.4049C10.2481 15.4049 10.2196 15.3822 10.2082 15.3369C10.1739 15.3255 10.1282 15.2915 10.0711 15.2349H10.054V15.2179H10.0026C9.99122 15.1838 9.96838 15.1668 9.93412 15.1668V15.2179L9.89987 15.0988C9.86561 15.0988 9.84848 15.0875 9.84848 15.0648L9.83136 15.0138C9.78568 15.0025 9.74572 14.9741 9.71146 14.9288C9.66579 14.9061 9.63724 14.8891 9.62582 14.8778C9.61441 14.8778 9.59728 14.8778 9.57444 14.8778H9.54019H9.43742C9.41458 14.8778 9.39745 14.8721 9.38604 14.8608C9.38604 14.8495 9.37462 14.8438 9.35178 14.8438H9.31752L9.23188 14.7928V14.7758L9.16337 14.7248H9.14625C9.13483 14.7248 9.12912 14.7191 9.12912 14.7078H9.09486H9.07773C9.06632 14.7078 9.06061 14.6908 9.06061 14.6567L8.9921 14.7078V14.6227L8.88933 14.6057L8.90646 14.5547L8.88933 14.5207L8.83795 14.5547V14.5207H8.82082L8.83795 14.4867L8.82082 14.3847L8.73518 14.4867L8.76943 14.2657V14.2317C8.66667 14.2317 8.61528 14.1807 8.61528 14.0786C8.60387 14.0786 8.59816 14.073 8.59816 14.0616V14.0446V14.0106V13.9596V13.9426C8.5639 13.9199 8.54677 13.8859 8.54677 13.8406H8.51252H8.46113H8.51252L8.46113 13.7896L8.44401 13.7216C8.40975 13.6989 8.38691 13.6706 8.37549 13.6366L8.28986 13.6196V13.5685V13.5515H8.23847H8.22134V13.5005L8.20422 13.4665H8.22134C8.22134 13.4325 8.21564 13.4155 8.20422 13.4155V13.3985L8.15283 13.4665L8.06719 13.3305V13.2795H8.05007V13.2455H7.99868L7.93017 13.2285L7.98156 13.1435V13.1095C7.92446 13.1095 7.89592 13.0981 7.89592 13.0755C7.87308 13.0755 7.85595 13.0641 7.84453 13.0414C7.84453 13.0301 7.83882 13.0244 7.8274 13.0244V13.0074C7.79315 13.0074 7.77602 13.0018 7.77602 12.9904V12.9564H7.75889C7.72464 12.9338 7.70751 12.8998 7.70751 12.8544H7.67325C7.67325 12.8204 7.66184 12.8034 7.639 12.8034H7.62187C7.61045 12.7921 7.60474 12.7694 7.60474 12.7354L7.5191 12.7014L7.55336 12.6674V12.6334H7.5191H7.50198L7.45059 12.7014L7.43347 12.5654H7.38208L7.43347 12.5313V12.4803C7.39921 12.469 7.38208 12.4407 7.38208 12.3953C7.35924 12.3613 7.34783 12.333 7.34783 12.3103C7.30215 12.265 7.27932 12.2253 7.27932 12.1913V12.1743L7.2108 12.1913L7.15942 12.0893V12.0383C7.10233 12.0156 7.10233 11.9872 7.15942 11.9532H7.2108C7.2108 11.8966 7.19368 11.8682 7.15942 11.8682V11.8512V11.7662V11.7322C7.13658 11.7095 7.12516 11.6812 7.12516 11.6472H7.07378V11.6302V11.5792L7.00527 11.8002L6.93676 11.5792V11.5452H6.9025L6.85112 11.5792L6.83399 11.5112H6.76548V11.4772H6.73123V11.4261H6.67984V11.4091V11.3581H6.66271C6.61704 11.3355 6.59991 11.3241 6.61133 11.3241H6.5942C6.54853 11.3015 6.52569 11.2901 6.52569 11.2901H6.50856L6.45718 11.2561H6.44005C6.4058 11.2448 6.38296 11.2221 6.37154 11.1881H6.32016V11.1541L6.21739 11.0861H6.2859L6.21739 11.0181H6.14888L6.06324 10.9671L6.04611 10.933C6.04611 10.9104 6.0347 10.8934 6.01186 10.882C6.00044 10.8594 5.98331 10.8367 5.96047 10.814H5.92622V10.797L5.77207 10.644V10.593H5.73781H5.70356V10.542H5.6693L5.61792 10.576L5.60079 10.491C5.5437 10.491 5.51515 10.4683 5.51515 10.423L5.4809 10.491L5.44664 10.406H5.37813H5.34387V10.423C5.30962 10.457 5.29249 10.474 5.29249 10.474H5.27536H5.22398C5.22398 10.4853 5.20114 10.491 5.15547 10.491H5.12121V10.576H5.0527L5.06983 10.644L4.98419 10.576C4.98419 10.5873 4.97277 10.5987 4.94993 10.61C4.93852 10.61 4.92139 10.6213 4.89855 10.644H4.8643C4.85288 10.644 4.84146 10.6497 4.83004 10.661C4.79578 10.661 4.76724 10.6723 4.7444 10.695C4.72156 10.7063 4.69302 10.7233 4.65876 10.746C4.63592 10.746 4.6188 10.7573 4.60738 10.78C4.60738 10.7914 4.59596 10.797 4.57312 10.797L4.53887 10.814C4.52745 10.814 4.51032 10.8254 4.48748 10.848C4.47607 10.8594 4.46465 10.865 4.45323 10.865C4.38472 10.933 4.32762 10.9841 4.28195 11.0181H4.24769C4.23628 11.0181 4.23057 11.0237 4.23057 11.0351C4.21915 11.0351 4.20202 11.0464 4.17918 11.0691C4.16776 11.0804 4.15064 11.0917 4.1278 11.1031C4.10496 11.1031 4.09354 11.1144 4.09354 11.1371C4.09354 11.1484 4.08213 11.1541 4.05929 11.1541L4.04216 11.1881H3.99078C3.99078 11.1994 3.98507 11.2108 3.97365 11.2221V11.2391H3.95652L3.88801 11.2561C3.88801 11.2788 3.87659 11.2901 3.85376 11.2901C3.84234 11.2901 3.83092 11.3015 3.8195 11.3241H3.78524C3.77383 11.3241 3.76812 11.3355 3.76812 11.3581H3.73386C3.69961 11.3921 3.67677 11.4318 3.66535 11.4772C3.60826 11.5112 3.53975 11.5452 3.45982 11.5792H3.44269H3.3913C3.37989 11.5905 3.37418 11.6018 3.37418 11.6132C3.36276 11.6245 3.35134 11.6302 3.33992 11.6302H3.30567C3.29425 11.6302 3.28854 11.6358 3.28854 11.6472H3.27141C3.21432 11.6472 3.17435 11.6642 3.15152 11.6982C3.10584 11.7209 3.07159 11.7322 3.04875 11.7322C3.03733 11.7322 3.0202 11.7435 2.99737 11.7662H2.96311L2.92885 11.8002H2.8946V11.8512H2.84321H2.7747L2.74045 11.8682L2.72332 11.8002L2.67194 11.7322L2.7747 11.6982L2.82609 11.6472C2.86034 11.6358 2.8946 11.6245 2.92885 11.6132C2.96311 11.5905 3.00307 11.5678 3.04875 11.5452C3.09442 11.5225 3.1401 11.5112 3.18577 11.5112C3.28854 11.4772 3.37418 11.4261 3.44269 11.3581C3.45411 11.3241 3.50549 11.2901 3.59684 11.2561L3.54545 11.1881L3.61397 11.2391C3.61397 11.2051 3.61968 11.1881 3.63109 11.1881H3.66535C3.69961 11.1314 3.73957 11.0861 3.78524 11.0521C3.83092 11.0181 3.87088 10.9784 3.90514 10.933C3.95081 10.933 3.97936 10.9274 3.99078 10.916C4.0022 10.8934 4.01932 10.8764 4.04216 10.865C4.05358 10.831 4.05929 10.8084 4.05929 10.797H4.09354C4.11638 10.7403 4.15635 10.712 4.21344 10.712C4.24769 10.6893 4.27624 10.6723 4.29908 10.661C4.33333 10.6383 4.36188 10.61 4.38472 10.576C4.40755 10.5533 4.41897 10.5363 4.41897 10.525C4.43039 10.5023 4.44181 10.491 4.45323 10.491L4.50461 10.474V10.423H4.53887L4.57312 10.406H4.60738V10.3889C4.60738 10.3663 4.62451 10.3549 4.65876 10.3549C4.67018 10.3323 4.69302 10.3209 4.72727 10.3209V10.2699L4.76153 10.2529H4.77866V10.2019L4.84717 10.2529L5.0527 10.2019H5.06983H5.12121V10.1849L5.15547 10.1339H5.20685V10.0999H5.22398V10.0489L5.27536 10.0319L5.22398 9.98087V9.96387C5.21256 9.96387 5.20685 9.94686 5.20685 9.91286H5.12121V9.86185L5.06983 10.0489L5.00132 9.86185L4.84717 10.0319L4.98419 9.74283H4.89855L4.93281 9.65781H4.84717V9.5898L4.83004 9.50478L4.65876 9.55579L4.72727 9.48778L4.65876 9.43677L4.72727 9.36876C4.70444 9.36876 4.6816 9.34042 4.65876 9.28374L4.60738 9.26674L4.57312 9.33475L4.50461 9.19872V9.16472H4.4361L4.45323 9.09671C4.44181 9.0627 4.4361 9.04003 4.4361 9.02869C4.37901 9.02869 4.35046 9.00035 4.35046 8.94368L3.88801 8.87566L4.35046 8.80765C4.32762 8.80765 4.31621 8.80198 4.31621 8.79065C4.31621 8.76798 4.32762 8.74531 4.35046 8.72264C4.32762 8.72264 4.31621 8.69996 4.31621 8.65462L4.28195 8.60361H4.23057H4.28195V8.58661V8.5356V8.50159L4.23057 8.48459V8.43358V8.41658L4.21344 8.39957C4.21344 8.3769 4.20202 8.36557 4.17918 8.36557C4.16776 8.36557 4.16206 8.35423 4.16206 8.33156L4.05929 8.26355V8.21254V8.17853L4.04216 8.14453V8.11052V8.05951C4.01932 8.05951 3.99649 8.04818 3.97365 8.0255C3.96223 8.01417 3.95652 8.00283 3.95652 7.9915L3.90514 7.95749C3.89372 7.95749 3.87088 7.94616 3.83663 7.92349V7.88948L3.8195 7.83847C3.78524 7.82713 3.7567 7.82147 3.73386 7.82147L3.68248 7.78746V7.73645C3.68248 7.72511 3.67677 7.71945 3.66535 7.71945C3.63109 7.68544 3.60826 7.66844 3.59684 7.66844C3.58542 7.66844 3.574 7.66277 3.56258 7.65143C3.55116 7.6401 3.54545 7.6231 3.54545 7.60042H3.3913V7.56642C3.3913 7.53241 3.3856 7.51541 3.37418 7.51541H3.33992V7.49841C3.29425 7.45306 3.27141 7.41339 3.27141 7.37938V7.34538L3.22003 7.29437C3.15152 7.29437 3.11726 7.2717 3.11726 7.22635V7.20935C3.09442 7.20935 3.07729 7.20368 3.06588 7.19235C3.06588 7.16968 3.06017 7.15834 3.04875 7.15834C3.01449 7.19235 2.97453 7.20935 2.92885 7.20935H2.8946H2.86034C2.84892 7.20935 2.84321 7.19235 2.84321 7.15834H2.82609H2.79183C2.78041 7.15834 2.7747 7.14701 2.7747 7.12434C2.74045 7.15834 2.72332 7.15834 2.72332 7.12434H2.67194H2.65481H2.60343L2.56917 7.15834L2.51779 7.05632C2.50637 7.05632 2.50066 7.05065 2.50066 7.03932V7.02232H2.38076V6.9543C2.35793 6.9543 2.3408 6.94864 2.32938 6.9373C2.32938 6.91463 2.31796 6.90329 2.29513 6.90329C2.29513 6.89196 2.28942 6.88629 2.278 6.88629V6.83528H2.20949L2.12385 6.90329L2.07246 6.80127L2.05534 6.76727C2.0325 6.7446 2.02108 6.73326 2.02108 6.73326H1.98682L1.90119 6.68225V6.66525H1.88406C1.86122 6.66525 1.83838 6.65958 1.81555 6.64825C1.80413 6.62558 1.787 6.61424 1.76416 6.61424L1.72991 6.58023H1.67852C1.66711 6.6029 1.64998 6.61424 1.62714 6.61424C1.6043 6.61424 1.59289 6.6029 1.59289 6.58023C1.57005 6.58023 1.55292 6.57457 1.5415 6.56323C1.5415 6.55189 1.53008 6.53489 1.50725 6.51222H1.47299C1.46157 6.51222 1.45586 6.49522 1.45586 6.46121H1.38735H1.37022H1.33597H1.28459H1.26746L1.21607 6.44421H1.19895C1.18753 6.44421 1.18182 6.43287 1.18182 6.4102H1.14756C1.07905 6.43287 1.02767 6.43287 0.993412 6.4102H0.976285C0.964866 6.4102 0.959157 6.3932 0.959157 6.35919H0.907773H0.890646H0.839262C0.827844 6.37053 0.816425 6.3762 0.805007 6.3762C0.770751 6.3762 0.747914 6.36486 0.736495 6.34219H0.685112C0.673693 6.35352 0.662275 6.35919 0.650856 6.35919H0.599473L0 6.27418L0.667984 6.18916H0.736495H0.822134C0.867809 6.15515 0.942029 6.13815 1.0448 6.13815H1.06192C1.08476 6.13815 1.1076 6.14949 1.13043 6.17216C1.15327 6.18349 1.18182 6.18916 1.21607 6.18916H1.26746H1.38735L1.45586 6.22317C1.51296 6.22317 1.56434 6.24017 1.61001 6.27418H1.6614C1.6614 6.28551 1.66711 6.29118 1.67852 6.29118L1.95257 6.34219H2.05534C2.05534 6.35352 2.06675 6.35919 2.08959 6.35919H2.12385H2.1581V6.4102L2.22661 6.29118L2.278 6.4102L2.38076 6.35919L2.34651 6.46121H2.38076C2.38076 6.46121 2.38647 6.45554 2.39789 6.44421H2.43215L2.44928 6.4102H2.50066V6.35919L2.44928 6.34219L2.51779 6.29118V6.27418C2.55204 6.24017 2.57488 6.22317 2.5863 6.22317H2.60343C2.62626 6.2005 2.64339 6.18349 2.65481 6.17216C2.67765 6.14949 2.70048 6.13815 2.72332 6.13815L2.75758 6.10414C2.76899 6.09281 2.7747 6.08147 2.7747 6.07014V6.00212H2.82609C2.83751 5.97945 2.86034 5.95112 2.8946 5.91711V5.8491H2.92885C2.94027 5.8491 2.94598 5.8491 2.94598 5.8491C2.9574 5.83776 2.96882 5.83209 2.98024 5.83209H2.99737H3.04875V5.81509C3.04875 5.81509 3.05446 5.80942 3.06588 5.79809L2.99737 5.73007L3.27141 5.67906L3.28854 5.66206C3.32279 5.66206 3.34563 5.65639 3.35705 5.64506C3.36847 5.63372 3.37418 5.62239 3.37418 5.61105C3.37418 5.59972 3.37418 5.59405 3.37418 5.59405C3.3856 5.58271 3.3913 5.57138 3.3913 5.56004V5.52604V5.44102H3.45982V5.39001C3.48265 5.36734 3.49407 5.35034 3.49407 5.339C3.50549 5.31633 3.52262 5.29933 3.54545 5.28799C3.57971 5.28799 3.59684 5.28232 3.59684 5.27099V5.23698C3.61968 5.19164 3.64822 5.16897 3.68248 5.16897L3.73386 5.13496V5.11796L3.8195 5.06695H3.83663L3.88801 4.98193L3.90514 4.96493H3.92227C3.9451 4.96493 3.95652 4.94793 3.95652 4.91392H3.97365C3.99649 4.91392 4.01932 4.90825 4.04216 4.89692H4.05929C4.05929 4.84024 4.07071 4.8119 4.09354 4.8119V4.76089C4.09354 4.71555 4.13351 4.68721 4.21344 4.67588C4.23628 4.6192 4.25911 4.59086 4.28195 4.59086H4.31621V4.53985H4.45323V4.47184L4.57312 4.53985V4.52285H4.59025V4.50584C4.59025 4.50584 4.59596 4.49451 4.60738 4.47184L4.65876 4.45483H4.67589L4.72727 4.42083C4.75011 4.42083 4.76153 4.40383 4.76153 4.36982H4.77866V4.35282L4.83004 4.30181L4.84717 4.35282V4.30181H4.89855H4.98419V4.2848L5.12121 4.19979H5.15547C5.18972 4.17712 5.21827 4.16011 5.24111 4.14878C5.26394 4.13744 5.28107 4.11477 5.29249 4.08077V4.06376V4.01275L5.34387 3.97875L5.37813 3.91073C5.37813 3.87673 5.39526 3.85406 5.42951 3.84272C5.42951 3.80871 5.44093 3.79171 5.46377 3.79171H5.4809H5.51515H5.54941L5.60079 3.7577H5.6693L5.70356 3.7407C5.73781 3.69536 5.77778 3.69536 5.82345 3.7407L5.84058 3.68969H5.96047H5.99473C5.99473 3.66702 6.01757 3.65568 6.06324 3.65568L6.11462 3.62168H6.14888L6.04611 3.53666H6.2859C6.30874 3.52533 6.343 3.51966 6.38867 3.51966L6.44005 3.46865C6.44005 3.46865 6.44576 3.45731 6.45718 3.43464H6.47431C6.49715 3.43464 6.50856 3.42331 6.50856 3.40064L6.61133 3.36663L6.66271 3.31562H6.67984C6.7141 3.31562 6.74264 3.30995 6.76548 3.29862H6.83399H6.85112C6.87396 3.29862 6.9025 3.29295 6.93676 3.28161C6.97101 3.27028 6.99385 3.27595 7.00527 3.29862C7.05094 3.29862 7.07378 3.30429 7.07378 3.31562H7.12516H7.15942H7.19368C7.18226 3.31562 7.19368 3.33262 7.22793 3.36663C7.22793 3.33262 7.23364 3.31562 7.24506 3.31562H7.27932L7.29644 3.29862L7.34783 3.31562H7.38208V3.29862L7.45059 3.31562H7.50198H7.5191C7.54194 3.30429 7.5762 3.29862 7.62187 3.29862H7.67325V3.31562C7.67325 3.30429 7.68467 3.29862 7.70751 3.29862H7.89592C7.91875 3.29862 7.93588 3.29295 7.9473 3.28161C7.97014 3.27028 7.98726 3.27595 7.99868 3.29862H8.01581C8.03865 3.29862 8.05007 3.28162 8.05007 3.24761H8.06719L8.11858 3.29862L8.15283 3.24761H8.23847H8.28986C8.31269 3.24761 8.32982 3.24194 8.34124 3.23061C8.36408 3.21927 8.3812 3.2136 8.39262 3.2136L8.44401 3.24761H8.46113H8.54677L8.59816 3.2136H8.61528H8.6838C8.72947 3.2136 8.76372 3.20793 8.78656 3.1966C8.8094 3.17393 8.82653 3.16259 8.83795 3.16259H8.88933L8.90646 3.2136L8.94071 3.16259L8.9921 3.2136L9.06061 3.07758L9.09486 3.14559V3.09458V3.07758L9.12912 3.04357C9.12912 3.00956 9.13483 2.99256 9.14625 2.99256H9.16337C9.16337 2.99256 9.16908 2.98689 9.1805 2.97556H9.21476C9.22618 2.97556 9.23188 2.95855 9.23188 2.92455H9.28327V2.90755C9.3061 2.90755 9.32894 2.89054 9.35178 2.85654V2.75452H9.38604V2.70351V2.63549V2.61849H9.40316C9.40316 2.61849 9.41458 2.61282 9.43742 2.60149C9.43742 2.56748 9.44313 2.54481 9.45455 2.53347V2.48246V2.41445L9.50593 2.31243L9.54019 2.36344C9.54019 2.34077 9.53448 2.32377 9.52306 2.31243C9.51164 2.28976 9.51735 2.26709 9.54019 2.24442V2.21041V2.19341C9.54019 2.17074 9.5516 2.1594 9.57444 2.1594C9.57444 2.14807 9.58586 2.1254 9.6087 2.09139L9.62582 2.05739L9.6087 1.98937H9.62582L9.67721 1.87035V1.83634L9.76285 1.80234C9.77426 1.80234 9.77997 1.791 9.77997 1.76833C9.82565 1.72299 9.86561 1.70599 9.89987 1.71732C9.89987 1.70599 9.90558 1.70032 9.917 1.70032C9.92842 1.70032 9.93412 1.68898 9.93412 1.66631C9.93412 1.63231 9.95696 1.6153 10.0026 1.6153V1.5983L10.054 1.54729L10.1225 1.44527L10.1568 1.53029L10.2082 1.47928L10.2253 1.32625H10.2596H10.2253L10.3281 1.25824C10.3623 1.25824 10.3794 1.25257 10.3794 1.24123V1.22423C10.3794 1.19022 10.3909 1.17322 10.4137 1.17322H10.448V1.15622H10.4822L10.5165 1.10521C10.5165 1.09387 10.5222 1.0882 10.5336 1.0882C10.545 1.07687 10.5507 1.05986 10.5507 1.03719C10.585 1.03719 10.6078 1.02586 10.6192 1.00319C10.6421 1.00319 10.6592 1.00319 10.6706 1.00319C10.6935 0.991852 10.7163 0.986184 10.7391 0.986184L10.7734 0.935175C10.8076 0.901169 10.8419 0.87283 10.8762 0.850159C10.9218 0.827488 10.9618 0.804817 10.996 0.782147C11.0075 0.770811 11.0189 0.765143 11.0303 0.765143C11.0531 0.753807 11.076 0.736804 11.0988 0.714134V0.697131H11.1159C11.1159 0.697131 11.1274 0.691463 11.1502 0.680127L11.1673 0.646121C11.1787 0.646121 11.1902 0.640453 11.2016 0.629118C11.213 0.629118 11.2187 0.629118 11.2187 0.629118C11.2187 0.617782 11.2244 0.612114 11.2358 0.612114L11.2872 0.561105H11.3215L11.3729 0.544102H11.39H11.4414C11.4528 0.521431 11.4642 0.510095 11.4756 0.510095C11.4985 0.49876 11.5213 0.481757 11.5441 0.459085C11.5784 0.459085 11.5955 0.44775 11.5955 0.425079H11.6298C11.6298 0.368402 11.6583 0.340063 11.7154 0.340063L11.7839 0.32306H11.8353H11.8524C11.8867 0.32306 11.9038 0.317393 11.9038 0.306057V0.289054C11.9495 0.266383 11.978 0.24938 11.9895 0.238045C12.0123 0.215373 12.0351 0.192702 12.058 0.170032C12.0808 0.170032 12.0979 0.170032 12.1094 0.170032C12.1208 0.158696 12.1379 0.153029 12.1607 0.153029L12.2121 0.102019H12.2292L12.4862 0L12.2292 0.391073L12.2121 0.32306C12.155 0.32306 12.1151 0.328728 12.0922 0.340063H12.0751C12.0637 0.340063 12.058 0.357067 12.058 0.391073V0.425079L12.0066 0.459085H11.9895V0.493092H11.9038L12.1607 0.867163L11.7839 0.561105L11.7668 0.612114C11.7668 0.634785 11.7383 0.646121 11.6812 0.646121V0.663124C11.6812 0.674459 11.664 0.680127 11.6298 0.680127V0.697131C11.6298 0.708466 11.6241 0.714134 11.6126 0.714134L11.5441 0.782147V0.765143L11.4585 0.782147L11.4414 0.765143H11.39H11.3729V0.782147H11.3215C11.3215 0.804817 11.2929 0.833156 11.2358 0.867163L11.2187 0.901168V0.935175C11.2187 0.957846 11.2073 0.974849 11.1845 0.986184C11.173 0.99752 11.1616 1.01452 11.1502 1.03719H11.0646H11.0132C11.0132 1.0712 10.9903 1.0882 10.9447 1.0882L10.9275 1.10521L10.7734 1.22423L10.7391 1.17322L10.7049 1.22423C10.7049 1.2469 10.6935 1.2639 10.6706 1.27524C10.6592 1.27524 10.6421 1.28657 10.6192 1.30924L10.6706 1.32625L10.6192 1.37726L10.7049 1.5983L10.5507 1.44527L10.5165 1.47928C10.5165 1.51328 10.4765 1.53029 10.3966 1.53029C10.3966 1.54162 10.3909 1.54729 10.3794 1.54729H10.3281V1.5983C10.3052 1.60963 10.2938 1.62664 10.2938 1.64931C10.2938 1.66064 10.2824 1.67765 10.2596 1.70032C10.2596 1.74566 10.2424 1.76833 10.2082 1.76833V1.80234V1.87035C10.1853 1.89302 10.1682 1.91569 10.1568 1.93836C10.1568 1.9497 10.1454 1.9667 10.1225 1.98937C10.1225 2.05739 10.0997 2.09139 10.054 2.09139V2.1424H10.0026V2.1594H9.98551H9.93412L9.89987 2.21041V2.27843H9.84848C9.84848 2.3351 9.84278 2.36344 9.83136 2.36344C9.83136 2.37478 9.81423 2.38045 9.77997 2.38045L9.76285 2.41445C9.76285 2.42579 9.75143 2.44279 9.72859 2.46546L9.71146 2.48246V2.53347L9.67721 2.55048L9.76285 2.63549L9.62582 2.6865V2.70351V2.73751C9.62582 2.74885 9.62011 2.76018 9.6087 2.77152C9.6087 2.78285 9.6087 2.79986 9.6087 2.82253C9.58586 2.8452 9.56302 2.87354 9.54019 2.90755V2.92455C9.54019 2.96989 9.52877 2.99256 9.50593 2.99256C9.50593 3.02657 9.4888 3.05491 9.45455 3.07758L9.38604 3.14559H9.35178V3.16259L9.38604 3.2136L9.45455 3.14559V3.16259L9.57444 3.09458L9.54019 3.24761C9.56302 3.24761 9.57444 3.25894 9.57444 3.28161C9.57444 3.29295 9.58586 3.29862 9.6087 3.29862H9.62582C9.68292 3.29862 9.72859 3.30429 9.76285 3.31562H9.83136L9.84848 3.36663C9.90558 3.36663 9.95125 3.37797 9.98551 3.40064C10.0312 3.40064 10.054 3.41197 10.054 3.43464C10.0654 3.40064 10.0997 3.41197 10.1568 3.46865H10.2082L10.2253 3.51966C10.2481 3.51966 10.271 3.52533 10.2938 3.53666H10.3109V3.55367C10.3109 3.565 10.3166 3.57634 10.3281 3.58767H10.3966C10.3966 3.61034 10.4251 3.62168 10.4822 3.62168H10.5507L10.7049 3.68969H10.7391L10.7734 3.7407C10.7962 3.7407 10.8134 3.74637 10.8248 3.7577C10.8476 3.7577 10.8704 3.7577 10.8933 3.7577H10.9275L10.9447 3.79171C10.9903 3.79171 11.0303 3.80871 11.0646 3.84272H11.0988L11.2358 3.7407L11.2187 3.91073L11.3729 3.97875L11.3215 4.01275L11.7154 4.19979L11.5099 4.23379C11.43 4.23379 11.3672 4.22246 11.3215 4.19979L11.3043 4.18278C11.2815 4.16011 11.2587 4.14878 11.2358 4.14878C11.2244 4.14878 11.2016 4.14311 11.1673 4.13177H11.1502H11.0988H11.0646L11.0132 4.14878V4.13177L10.9275 4.14878L10.996 4.06376H10.9447H10.9275H10.8248H10.7905C10.7791 4.06376 10.7734 4.04676 10.7734 4.01275H10.7391H10.6706V3.97875H10.6192V3.96174C10.6192 3.95041 10.6135 3.93907 10.6021 3.92774L10.5507 3.97875L10.5165 3.92774V3.91073H10.4822C10.4594 3.88806 10.4365 3.87106 10.4137 3.85972C10.4023 3.83705 10.3909 3.81438 10.3794 3.79171C10.3566 3.79171 10.3338 3.78604 10.3109 3.77471C10.2881 3.76337 10.2596 3.7577 10.2253 3.7577L10.2082 3.79171L10.054 3.85972L10.0711 3.7577H9.93412C9.91129 3.7577 9.89987 3.74637 9.89987 3.7237V3.68969C9.86561 3.68969 9.84848 3.68402 9.84848 3.67269V3.65568L9.83136 3.62168C9.7971 3.62168 9.77426 3.61034 9.76285 3.58767H9.71146H9.69434C9.68292 3.58767 9.67721 3.57067 9.67721 3.53666H9.62582H9.6087H9.54019L9.50593 3.51966H9.45455C9.45455 3.531 9.44884 3.53666 9.43742 3.53666C9.43742 3.53666 9.43742 3.531 9.43742 3.51966H9.38604C9.38604 3.531 9.3632 3.53666 9.31752 3.53666C9.31752 3.52533 9.3061 3.51966 9.28327 3.51966H9.23188H9.21476V3.53666H9.16337L9.12912 3.62168L9.09486 3.53666H9.06061H9.00922H8.9921L8.90646 3.51966H8.88933C8.86649 3.49699 8.84365 3.49132 8.82082 3.50266C8.8094 3.51399 8.79227 3.51966 8.76943 3.51966C8.75802 3.531 8.7466 3.53666 8.73518 3.53666C8.73518 3.53666 8.72947 3.54233 8.71805 3.55367L8.6838 3.58767H8.66667H8.61528H8.59816C8.59816 3.61034 8.58674 3.62168 8.5639 3.62168H8.54677L8.46113 3.7407L8.44401 3.65568H8.39262H8.37549H8.28986H8.23847L8.20422 3.62168H8.15283H8.11858C8.08432 3.59901 8.04436 3.58767 7.99868 3.58767H7.98156L7.93017 3.62168H7.89592H7.84453H7.77602C7.75318 3.64435 7.74177 3.65568 7.74177 3.65568H7.70751C7.66184 3.67836 7.62758 3.69536 7.60474 3.70669C7.59332 3.70669 7.5762 3.71803 7.55336 3.7407C7.54194 3.75204 7.53052 3.7577 7.5191 3.7577H7.50198C7.46772 3.78038 7.42776 3.79171 7.38208 3.79171L7.29644 3.7577V3.7407L7.27932 3.7577H7.2108H7.07378H7.05665L7.00527 3.79171H6.98814L7.00527 3.97875L6.9025 3.91073H6.85112C6.85112 3.92207 6.84541 3.9334 6.83399 3.94474C6.83399 3.94474 6.82828 3.95607 6.81686 3.97875H6.76548C6.75406 3.97875 6.74264 3.98441 6.73123 3.99575V4.01275H6.67984V4.06376C6.66842 4.06376 6.66271 4.06943 6.66271 4.08077C6.66271 4.08077 6.657 4.08077 6.64559 4.08077H6.61133V4.13177H6.5942L6.54282 4.14878H6.45718L6.38867 4.23379H6.37154V4.2848L6.32016 4.23379L6.2859 4.42083L6.21739 4.23379L6.16601 4.2848H6.14888C6.14888 4.29614 6.11462 4.30181 6.04611 4.30181H5.99473C5.99473 4.34715 5.97189 4.36982 5.92622 4.36982V4.40383C5.92622 4.41516 5.9148 4.42083 5.89196 4.42083C5.89196 4.4435 5.88054 4.45483 5.85771 4.45483H5.84058V4.47184L5.77207 4.53985L5.73781 4.52285V4.53985L5.6693 4.47184H5.61792L5.60079 4.52285V4.47184L5.54941 4.52285V4.47184H5.51515L5.4809 4.52285V4.47184H5.44664C5.43522 4.49451 5.41809 4.50018 5.39526 4.48884C5.38384 4.47751 5.36671 4.47184 5.34387 4.47184C5.34387 4.50584 5.33246 4.52285 5.30962 4.52285H5.29249H5.22398V4.47184L5.20685 4.52285H5.15547C5.13263 4.53418 5.10408 4.53985 5.06983 4.53985H5.0527C5.02986 4.56252 5.01274 4.58519 5.00132 4.60786C4.9899 4.6192 4.96706 4.62487 4.93281 4.62487C4.93281 4.65887 4.90426 4.67588 4.84717 4.67588V4.69288H4.83004C4.79578 4.72689 4.77295 4.74389 4.76153 4.74389H4.72727L4.67589 4.76089C4.67589 4.81757 4.65305 4.84591 4.60738 4.84591C4.58454 4.87991 4.55029 4.89692 4.50461 4.89692L4.45323 4.91392L4.4361 4.89692C4.4361 4.90825 4.42468 4.91959 4.40184 4.93092C4.39043 4.93092 4.38472 4.94226 4.38472 4.96493H4.35046L4.28195 5.11796V5.03294H4.23057L4.21344 5.06695C4.17918 5.06695 4.16206 5.07828 4.16206 5.10096V5.11796L4.09354 5.13496C4.09354 5.15763 4.08784 5.16897 4.07642 5.16897C4.065 5.16897 4.05929 5.1803 4.05929 5.20298C4.05929 5.25965 4.03645 5.28799 3.99078 5.28799L3.95652 5.30499V5.356V5.44102L3.90514 5.39001L3.88801 5.44102L3.83663 5.45802C3.82521 5.49203 3.79095 5.50903 3.73386 5.50903C3.72244 5.50903 3.71102 5.5147 3.6996 5.52604H3.68248H3.66535C3.63109 5.52604 3.61397 5.53737 3.61397 5.56004V5.57705C3.61397 5.64506 3.59113 5.67906 3.54545 5.67906C3.54545 5.74708 3.51691 5.79809 3.45982 5.83209L3.44269 5.8491V5.90011C3.41985 5.90011 3.3856 5.92278 3.33992 5.96812C3.29425 6.00212 3.27141 6.03046 3.27141 6.05313L3.22003 6.07014H3.18577L3.15152 6.12115V6.13815C3.15152 6.14949 3.13439 6.17216 3.10013 6.20616C3.08871 6.2175 3.07729 6.22317 3.06588 6.22317H3.04875C3.04875 6.2345 3.03733 6.2515 3.01449 6.27418L2.99737 6.29118C2.99737 6.30251 2.99166 6.31385 2.98024 6.32519V6.34219H2.96311L2.92885 6.35919L2.8946 6.4102V6.4272C2.8946 6.43854 2.87747 6.44421 2.84321 6.44421C2.84321 6.45554 2.82038 6.46121 2.7747 6.46121C2.7747 6.49522 2.76329 6.52356 2.74045 6.54623L2.82609 6.66525L2.67194 6.61424L2.65481 6.66525L2.67194 6.68225C2.71761 6.72759 2.74045 6.75593 2.74045 6.76727H2.7747L2.84321 6.73326V6.80127H2.8946H2.92885V6.83528C2.95169 6.83528 2.97453 6.85228 2.99737 6.88629C3.03162 6.85228 3.07159 6.85228 3.11726 6.88629C3.16293 6.88629 3.18577 6.89196 3.18577 6.90329H3.22003C3.22003 6.92596 3.22574 6.94297 3.23715 6.9543C3.25999 6.9543 3.27141 6.96564 3.27141 6.98831C3.28283 7.01098 3.30567 7.02232 3.33992 7.02232H3.37418C3.3856 7.02232 3.3913 7.01665 3.3913 7.00531C3.40272 6.99398 3.41985 6.99965 3.44269 7.02232H3.5112H3.54545H3.61397H3.66535H3.68248C3.6939 7.01098 3.70531 7.00531 3.71673 7.00531C3.73957 7.00531 3.7567 7.01098 3.76812 7.02232C3.80237 7.04499 3.84234 7.05632 3.88801 7.05632H3.99078L3.95652 7.10733H3.99078L4.1278 7.15834L4.09354 7.20935C4.11638 7.23202 4.1278 7.24336 4.1278 7.24336V7.27736C4.13922 7.27736 4.14493 7.28303 4.14493 7.29437C4.15635 7.29437 4.16776 7.29437 4.17918 7.29437H4.21344L4.23057 7.27736L4.28195 7.29437C4.28195 7.32837 4.28766 7.34538 4.29908 7.34538H4.31621H4.35046V7.36238C4.35046 7.37372 4.36188 7.37938 4.38472 7.37938H4.4361H4.45323L4.50461 7.43039H4.57312L4.60738 7.37938C4.66447 7.33404 4.71585 7.33404 4.76153 7.37938C4.76153 7.35671 4.76153 7.34538 4.76153 7.34538C4.77295 7.34538 4.77866 7.35671 4.77866 7.37938C4.81291 7.35671 4.85288 7.35671 4.89855 7.37938H4.91568C4.91568 7.37938 4.92139 7.36805 4.93281 7.34538H4.98419L5.0527 7.27736L5.06983 7.37938H5.12121H5.15547C5.15547 7.35671 5.16118 7.34538 5.1726 7.34538H5.20685H5.22398V7.29437H5.29249V7.34538L5.34387 7.29437L5.4809 7.02232V7.29437H5.60079L5.54941 7.20935L5.61792 7.22635H5.6693V7.27736L5.89196 7.37938L5.92622 7.43039L5.96047 7.37938L6.04611 7.43039L5.99473 7.34538H6.16601L6.21739 7.29437C6.22881 7.29437 6.24023 7.30003 6.25165 7.31137C6.26307 7.32271 6.27448 7.33404 6.2859 7.34538C6.29732 7.34538 6.30874 7.35671 6.32016 7.37938L6.37154 7.43039C6.37154 7.43039 6.37725 7.43606 6.38867 7.4474H6.44005H6.54282C6.54282 7.4814 6.55995 7.49841 6.5942 7.49841H6.61133L6.66271 7.4474H6.73123H6.76548L6.81686 7.43039V7.4474V7.43039L6.9025 7.4474H6.98814L7.00527 7.29437L7.05665 7.43039L7.12516 7.37938L7.07378 7.4474V7.49841H7.12516V7.51541H7.14229V7.53241C7.14229 7.54375 7.148 7.55508 7.15942 7.56642C7.17084 7.55508 7.18226 7.54942 7.19368 7.54942C7.20509 7.54942 7.21651 7.55508 7.22793 7.56642L7.38208 7.51541L7.34783 7.60042V7.65143H7.38208C7.38208 7.61743 7.38779 7.60042 7.39921 7.60042H7.43347H7.50198V7.65143L7.5191 7.66844H7.60474V7.68544C7.60474 7.69678 7.61045 7.70811 7.62187 7.71945L7.70751 7.66844V7.65143H7.75889L7.77602 7.60042V7.51541C7.7646 7.51541 7.75889 7.50974 7.75889 7.49841V7.4474L7.67325 7.43039H7.77602C7.7646 7.39639 7.75889 7.36805 7.75889 7.34538V7.29437V7.27736H7.70751L7.75889 7.22635V7.20935V7.15834L7.70751 7.12434L7.75889 7.10733V7.05632C7.75889 7.04499 7.74747 7.02798 7.72464 7.00531L7.70751 6.98831V6.9543C7.70751 6.93163 7.7018 6.91463 7.69038 6.90329C7.67896 6.88062 7.67325 6.84662 7.67325 6.80127V6.76727V6.73326H7.639C7.62758 6.73326 7.62187 6.71626 7.62187 6.68225C7.62187 6.63691 7.65042 6.61424 7.70751 6.61424L7.77602 6.58023L7.8274 6.68225C7.8274 6.73893 7.83311 6.7786 7.84453 6.80127V6.83528C7.86737 6.86929 7.87879 6.90896 7.87879 6.9543C7.89021 6.98831 7.90733 7.02232 7.93017 7.05632V7.10733C7.96443 7.11867 7.96443 7.13567 7.93017 7.15834C7.96443 7.15834 7.98156 7.17535 7.98156 7.20935H8.05007L7.99868 7.27736V7.34538C7.99868 7.36805 8.00439 7.38505 8.01581 7.39639C8.03865 7.39639 8.05007 7.40772 8.05007 7.43039L8.06719 7.56642L8.11858 7.60042H8.15283C8.16425 7.60042 8.17567 7.59476 8.18709 7.58342C8.19851 7.58342 8.20422 7.58342 8.20422 7.58342C8.20422 7.57209 8.20993 7.56642 8.22134 7.56642L8.23847 7.51541L8.32411 7.60042C8.35837 7.57775 8.3812 7.56642 8.39262 7.56642L8.44401 7.51541L8.51252 7.56642H8.54677C8.55819 7.57775 8.56961 7.58342 8.58103 7.58342C8.59245 7.59476 8.60387 7.60042 8.61528 7.60042H8.66667H8.6838H8.82082C8.83224 7.60042 8.84365 7.59476 8.85507 7.58342C8.87791 7.57209 8.89504 7.56642 8.90646 7.56642L8.94071 7.51541L8.9921 7.56642V7.51541V7.49841L9.06061 7.51541L9.09486 7.49841C9.09486 7.4644 9.10057 7.4474 9.11199 7.4474H9.12912L9.16337 7.29437L9.21476 7.37938V7.29437L9.28327 7.43039C9.28327 7.39639 9.28898 7.37938 9.3004 7.37938H9.31752C9.31752 7.35671 9.32323 7.33971 9.33465 7.32837C9.33465 7.31704 9.34036 7.3057 9.35178 7.29437L9.38604 7.27736V7.20935C9.42029 7.20935 9.43742 7.18101 9.43742 7.12434C9.44884 7.113 9.45455 7.10166 9.45455 7.09033C9.46596 7.06766 9.48309 7.04499 9.50593 7.02232C9.50593 6.99965 9.51164 6.98264 9.52306 6.97131C9.53448 6.94864 9.54019 6.92596 9.54019 6.90329L9.57444 6.88629V6.83528V6.80127C9.57444 6.7786 9.58586 6.76727 9.6087 6.76727L9.62582 6.73326H9.67721L9.62582 6.66525L9.71146 6.61424L9.67721 6.54623L9.76285 6.51222C9.76285 6.47821 9.78568 6.46121 9.83136 6.46121L9.89987 6.44421V6.51222C9.89987 6.53489 9.90558 6.55189 9.917 6.56323C9.92842 6.57457 9.92271 6.58023 9.89987 6.58023V6.61424V6.64825C9.89987 6.65958 9.88274 6.66525 9.84848 6.66525V6.68225C9.84848 6.73893 9.84278 6.7786 9.83136 6.80127C9.83136 6.82395 9.81423 6.83528 9.77997 6.83528V6.90329C9.75714 6.95997 9.7343 6.98831 9.71146 6.98831C9.71146 7.01098 9.70575 7.03365 9.69434 7.05632C9.68292 7.06766 9.67721 7.08466 9.67721 7.10733C9.66579 7.10733 9.65437 7.113 9.64295 7.12434H9.62582C9.62582 7.14701 9.62011 7.16968 9.6087 7.19235C9.6087 7.20368 9.6087 7.21502 9.6087 7.22635L9.57444 7.29437C9.59728 7.29437 9.6087 7.3057 9.6087 7.32837V7.34538V7.43039H9.62582C9.66008 7.44173 9.70575 7.4474 9.76285 7.4474H9.77997H9.89987H9.95125C9.95125 7.4474 9.96838 7.4644 10.0026 7.49841C10.0369 7.49841 10.0769 7.52108 10.1225 7.56642H10.2082C10.2196 7.53241 10.2367 7.51541 10.2596 7.51541L10.3281 7.49841L10.3794 7.51541H10.3966H10.448C10.4708 7.51541 10.4822 7.50974 10.4822 7.49841H10.5507L10.6021 7.4474L10.6706 7.49841H10.7049L10.7734 7.4474V7.51541H10.8248L10.8419 7.56642C10.8419 7.54375 10.8476 7.53241 10.859 7.53241C10.8819 7.53241 10.9047 7.54375 10.9275 7.56642H10.996L11.0132 7.51541L11.0988 7.60042H11.1331C11.1217 7.60042 11.1331 7.61743 11.1673 7.65143C11.1673 7.65143 11.1787 7.6571 11.2016 7.66844H11.2187H11.2358H11.2872L11.3215 7.65143L11.3729 7.71945L11.39 7.66844V7.71945H11.4414H11.4585L11.5955 7.56642L11.6126 7.71945V7.78746L11.6298 7.73645L11.6812 7.78746H11.7154H11.7668H11.7839L11.8353 7.82147H11.8524V7.83847L11.9381 7.82147V7.88948L12.058 7.9915H12.0922H12.1607V8.04251L12.2292 7.9915V8.05951V8.09352C12.2292 8.10485 12.2464 8.11052 12.2806 8.11052C12.2921 8.11052 12.3035 8.11619 12.3149 8.12752C12.3263 8.12752 12.3377 8.12752 12.3491 8.12752C12.3606 8.13886 12.372 8.14453 12.3834 8.14453C12.3948 8.1672 12.4062 8.17853 12.4177 8.17853C12.4405 8.17853 12.4633 8.18987 12.4862 8.21254C12.4976 8.21254 12.5147 8.22388 12.5375 8.24655L12.5547 8.26355C12.5547 8.26355 12.5661 8.26922 12.5889 8.28055H12.6061H12.6232C12.6803 8.33723 12.726 8.36557 12.7602 8.36557C12.7602 8.36557 12.7716 8.37124 12.7945 8.38257C12.8059 8.39391 12.8173 8.39957 12.8287 8.39957C12.8516 8.45625 12.9029 8.48459 12.9829 8.48459V8.50159L13 8.58661ZM2.38076 6.51222V6.46121V6.51222Z" fill="black"/>
</svg>
