<svg width="10" height="19" viewBox="0 0 10 19" fill="none" xmlns="http://www.w3.org/2000/svg">
<path d="M10 3.74164L9.88679 3.89612C9.87421 3.89612 9.86792 3.90756 9.86792 3.93044C9.86792 3.94188 9.85535 3.95905 9.83019 3.98193V4.01626H9.79245C9.7673 4.01626 9.75472 4.03342 9.75472 4.06775C9.75472 4.09064 9.74843 4.10208 9.73585 4.10208C9.73585 4.10208 9.73585 4.11352 9.73585 4.1364C9.71069 4.17073 9.68553 4.19362 9.66038 4.20506C9.63522 4.20506 9.61635 4.21078 9.60377 4.22222C9.57862 4.24511 9.55346 4.26227 9.5283 4.27371C9.50314 4.27371 9.47799 4.29088 9.45283 4.3252C9.45283 4.33665 9.44654 4.35381 9.43396 4.37669C9.39623 4.37669 9.37107 4.38814 9.35849 4.41102C9.35849 4.4339 9.34591 4.45107 9.32076 4.46251C9.30818 4.46251 9.28931 4.46823 9.26415 4.47967C9.23899 4.49112 9.21384 4.49684 9.18868 4.49684H9.15094C9.11321 4.54261 9.03774 4.56549 8.92453 4.56549H8.69811C8.68553 4.54261 8.67296 4.53117 8.66038 4.53117C8.66038 4.53117 8.65409 4.52544 8.64151 4.514C8.62893 4.514 8.62264 4.50828 8.62264 4.49684C8.57233 4.56549 8.5283 4.56549 8.49057 4.49684C8.44025 4.47395 8.40881 4.46251 8.39623 4.46251H8.35849V4.44535H8.15094V4.41102C8.15094 4.39958 8.14465 4.38814 8.13208 4.37669C8.10692 4.37669 8.08176 4.37669 8.0566 4.37669C8.03145 4.37669 8.00629 4.36525 7.98113 4.34237H7.75472C7.72956 4.34237 7.69811 4.34237 7.66038 4.34237C7.63522 4.33092 7.61006 4.3252 7.58491 4.3252V4.25655H7.54717C7.49686 4.30232 7.4717 4.3252 7.4717 4.3252C7.45912 4.33665 7.45283 4.33665 7.45283 4.3252H7.41509V4.34237H7.35849C7.2956 4.43391 7.16352 4.46823 6.96226 4.44535C6.91195 4.44535 6.86163 4.45107 6.81132 4.46251H6.75472C6.7044 4.46251 6.67296 4.47395 6.66038 4.49684H6.54717C6.53459 4.54261 6.49057 4.56549 6.41509 4.56549C6.38994 4.56549 6.37107 4.57693 6.35849 4.59982H6.22642C6.08805 4.59982 5.99371 4.58838 5.9434 4.56549H5.62264C5.54717 4.49684 5.47799 4.46251 5.41509 4.46251C5.38994 4.46251 5.37107 4.46251 5.35849 4.46251C5.35849 4.45107 5.3522 4.44535 5.33962 4.44535H5.15094L5.07547 4.37669L5.0566 4.34237H5.01887C4.98113 4.34237 4.95598 4.33665 4.9434 4.3252V4.34237L5.0566 4.37669L4.9434 4.44535L4.98113 4.49684L4.9434 4.56549C4.9434 4.58838 4.9434 4.61698 4.9434 4.65131C4.9434 4.67419 4.93082 4.69708 4.90566 4.71996L4.84906 4.73713V4.80578C4.84906 4.82867 4.84277 4.85727 4.83019 4.8916C4.83019 4.91448 4.81132 4.92593 4.77359 4.92593V4.96025C4.77359 4.98314 4.76101 5.01174 4.73585 5.04607C4.72327 5.0804 4.7044 5.12045 4.67925 5.16621V5.18338C4.67925 5.19482 4.66667 5.20054 4.64151 5.20054V5.28636H4.58491L4.50943 5.52665V5.50948H4.45283V5.56098C4.45283 5.61819 4.42767 5.65824 4.37736 5.68112C4.33962 5.68112 4.32075 5.69256 4.32075 5.71545V5.74977H4.28302C4.25786 5.7841 4.20126 5.80126 4.11321 5.80126C4.11321 5.84703 4.08805 5.86992 4.03774 5.86992H3.90566C3.8805 5.91569 3.83648 5.93857 3.77359 5.93857V6.02439L3.60377 5.99006C3.54088 6.01295 3.48428 6.02439 3.43396 6.02439H3.37736C3.32704 6.02439 3.27044 6.03583 3.20755 6.05872L3.16981 6.11021L3.11321 6.05872V6.11021H3.03774L2.98113 6.17886V6.21319C2.98113 6.22463 2.96855 6.23035 2.9434 6.23035C2.9434 6.27612 2.93082 6.29901 2.90566 6.29901L2.81132 6.38482C2.81132 6.44203 2.79874 6.48208 2.77359 6.50497H2.81132V6.65944L2.84906 6.72809L2.9434 6.74526H2.90566V6.89973C2.90566 6.96838 2.88679 7.00271 2.84906 7.00271L2.9434 7.12285L2.81132 7.14002C2.84906 7.20867 2.84906 7.2716 2.81132 7.32882C2.78616 7.32882 2.75472 7.34026 2.71698 7.36314C2.71698 7.42036 2.7044 7.4604 2.67925 7.48329L2.71698 7.51761V7.56911C2.75472 7.59199 2.77359 7.63204 2.77359 7.68925L2.84906 7.63776V7.87805C2.88679 7.87805 2.90566 7.89521 2.90566 7.92954C2.90566 7.95242 2.91195 7.97531 2.92453 7.99819C2.93711 8.00964 2.93082 8.03252 2.90566 8.06685C2.93082 8.07829 2.9434 8.08973 2.9434 8.10117C2.9434 8.11262 2.95597 8.11834 2.98113 8.11834V8.18699C2.98113 8.19843 2.98742 8.20415 3 8.20415C3.02516 8.20415 3.03774 8.2156 3.03774 8.23848L3.16981 8.3243L3.11321 8.42728C3.08805 8.42728 3.07547 8.43872 3.07547 8.46161C3.07547 8.47305 3.06918 8.48449 3.0566 8.49593C3.04403 8.49593 3.03774 8.5131 3.03774 8.54743V8.58175L3.11321 8.59892L3.03774 8.73622V8.82204C3.05031 8.82204 3.06289 8.82776 3.07547 8.8392V8.94219C3.10063 8.96507 3.11321 9.01656 3.11321 9.09666C3.15094 9.13098 3.16981 9.17103 3.16981 9.2168L3.20755 9.33695L3.11321 9.38844C3.1761 9.45709 3.1761 9.52002 3.11321 9.57724C3.13837 9.61156 3.15723 9.63445 3.16981 9.64589C3.19497 9.65733 3.19497 9.67449 3.16981 9.69738C3.20755 9.73171 3.23899 9.76603 3.26415 9.80036C3.28931 9.82325 3.31447 9.86329 3.33962 9.92051V10.0578L3.30189 10.1265V10.1951C3.30189 10.218 3.27044 10.2581 3.20755 10.3153L3.16981 10.3668C3.10692 10.4469 3.06289 10.4869 3.03774 10.4869V10.5556C3.07547 10.6013 3.08805 10.6357 3.07547 10.6585C3.07547 10.6814 3.06289 10.7043 3.03774 10.7272V10.7615H3.0566C3.0566 10.7615 3.06289 10.773 3.07547 10.7958L3.11321 10.8817L3.07547 10.916H3.11321C3.16352 10.9618 3.18868 11.0075 3.18868 11.0533C3.20126 11.0991 3.22013 11.1334 3.24528 11.1563L3.20755 11.2249C3.2327 11.2478 3.24528 11.265 3.24528 11.2764L3.30189 11.4995L3.16981 11.3966V11.4995C3.19497 11.5568 3.20755 11.6083 3.20755 11.654V11.7055C3.2327 11.7284 3.24528 11.7684 3.24528 11.8257V12.1346C3.30818 12.2376 3.30818 12.3177 3.24528 12.3749V12.4435C3.2956 12.455 3.2956 12.495 3.24528 12.5637V12.598L3.43396 12.804H3.30189C3.32704 12.804 3.33962 12.8211 3.33962 12.8555C3.33962 12.9127 3.33333 12.9413 3.32075 12.9413C3.30818 12.9527 3.30189 12.9699 3.30189 12.9928V13.0786L3.33962 13.1129V13.1644L3.4717 13.2331L3.37736 13.2846V13.3017C3.37736 13.3132 3.39623 13.3189 3.43396 13.3189L3.4717 13.4047L3.43396 13.439L3.37736 13.4734L3.43396 13.5248C3.43396 13.5363 3.42138 13.5534 3.39623 13.5763L3.37736 13.5935V13.8338C3.36478 13.8338 3.35849 13.8452 3.35849 13.8681C3.35849 13.8796 3.36478 13.891 3.37736 13.9024V13.9196L3.43396 13.9539H3.50943V14.1427L3.4717 14.1771V14.2629C3.4717 14.2858 3.45912 14.3086 3.43396 14.3315C3.45912 14.3315 3.4717 14.3601 3.4717 14.4173H3.50943L3.4717 14.5032V14.5375L3.50943 14.589L3.43396 14.6233V14.6576C3.4717 14.7263 3.49686 14.7663 3.50943 14.7778V14.9666C3.49686 14.9666 3.49686 14.9723 3.50943 14.9837C3.50943 15.0066 3.53459 15.0181 3.58491 15.0181V15.121C3.59748 15.1783 3.58491 15.2126 3.54717 15.224C3.52201 15.2469 3.49686 15.2584 3.4717 15.2584L3.50943 15.327L3.58491 15.2584V15.5501C3.58491 15.5616 3.59119 15.5673 3.60377 15.5673V15.7218C3.60377 15.7447 3.61006 15.7618 3.62264 15.7733C3.63522 15.7961 3.64151 15.819 3.64151 15.8419C3.62893 15.8419 3.61635 15.8476 3.60377 15.8591V16.1165L3.58491 16.1852L3.60377 16.2023V16.3053L3.64151 16.2367V16.3225C3.7044 16.3568 3.73585 16.4312 3.73585 16.5456C3.78616 16.6028 3.78616 16.6543 3.73585 16.7001V16.7173C3.73585 16.7401 3.72956 16.7573 3.71698 16.7687C3.71698 16.7802 3.71698 16.7916 3.71698 16.8031V16.8202H3.64151C3.64151 16.9003 3.62893 16.9518 3.60377 16.9747H3.58491V17.1463L3.60377 17.215L3.50943 17.3351H3.4717L3.43396 17.3866V17.4553H3.33962C3.33962 17.4896 3.33333 17.5068 3.32075 17.5068C3.30818 17.5182 3.30189 17.5297 3.30189 17.5411C3.30189 17.5869 3.28931 17.6212 3.26415 17.6441L3.24528 17.6612C3.24528 17.6841 3.24528 17.707 3.24528 17.7299C3.24528 17.7528 3.2327 17.7757 3.20755 17.7986V17.8157H3.30189L3.24528 17.9187V18.0045L3.33962 18.1247H3.24528V18.159C3.28302 18.159 3.30189 18.1704 3.30189 18.1933H3.33962C3.33962 18.2276 3.34591 18.2505 3.35849 18.262C3.35849 18.2734 3.36478 18.2791 3.37736 18.2791V18.365C3.41509 18.365 3.43396 18.3878 3.43396 18.4336L3.4717 18.5194H3.37736V18.5537H3.43396L3.37736 18.8799H3.33962L3.30189 19L3.07547 18.794H3.11321L2.81132 18.6052H3.03774V18.4336H2.98113V18.365C2.98113 18.3306 3 18.3135 3.03774 18.3135C2.97484 18.3135 2.9434 18.2734 2.9434 18.1933L2.90566 18.159L2.77359 17.8844L2.90566 17.9187C2.90566 17.8958 2.89308 17.8844 2.86792 17.8844H2.84906V17.7642C2.84906 17.707 2.85535 17.667 2.86792 17.6441C2.89308 17.6326 2.90566 17.6098 2.90566 17.5754C2.93082 17.5525 2.94969 17.5182 2.96226 17.4724C2.98742 17.4267 3.01258 17.3809 3.03774 17.3351C3.03774 17.2894 3.05031 17.2493 3.07547 17.215C3.07547 17.1807 3.07547 17.1463 3.07547 17.112C3.07547 17.0777 3.08805 17.0491 3.11321 17.0262V16.9747C3.13837 16.9518 3.15094 16.9289 3.15094 16.9061C3.16352 16.8946 3.18239 16.866 3.20755 16.8202L3.24528 16.7859L3.30189 16.7001V16.6658C3.30189 16.5857 3.31447 16.5227 3.33962 16.477C3.31447 16.4655 3.30189 16.4255 3.30189 16.3568H3.24528V16.3225C3.22013 16.3111 3.22013 16.2824 3.24528 16.2367C3.22013 16.2367 3.20755 16.2252 3.20755 16.2023C3.18239 16.2023 3.16981 16.1852 3.16981 16.1509V16.1165H2.98113L3.11321 15.9277C3.15094 15.9277 3.16981 15.922 3.16981 15.9106V15.8762C3.14465 15.8534 3.13836 15.8305 3.15094 15.8076C3.16352 15.7961 3.16981 15.779 3.16981 15.7561V15.4472C3.19497 15.4128 3.20755 15.3442 3.20755 15.2412V15.2069C3.20755 15.1497 3.19497 15.121 3.16981 15.121V15.0009C3.16981 14.978 3.15723 14.9551 3.13208 14.9322C3.1195 14.9094 3.11321 14.8865 3.11321 14.8636V14.7435H3.09434C3.08176 14.7435 3.07547 14.7377 3.07547 14.7263V14.6233H3.11321V14.5375C3.08805 14.4917 3.07547 14.4231 3.07547 14.3315V14.1942L3.11321 14.1771H3.07547L3.03774 14.1427V14.0569C3.03774 14.034 3.03145 14.0111 3.01887 13.9883C3.01887 13.9654 3.00629 13.9425 2.98113 13.9196V13.7823H3.03774C3 13.7365 2.98113 13.7022 2.98113 13.6793V13.5935C2.98113 13.5706 3 13.5477 3.03774 13.5248V13.4047C3 13.3704 2.98113 13.3303 2.98113 13.2846C2.98113 13.2273 2.96855 13.1701 2.9434 13.1129V12.9584C2.9434 12.9356 2.93711 12.9184 2.92453 12.907C2.91195 12.907 2.90566 12.8898 2.90566 12.8555V12.5637V12.3234H2.84906C2.8239 12.2662 2.81132 12.2261 2.81132 12.2033C2.81132 12.1804 2.81132 12.1575 2.81132 12.1346V12.1174C2.81132 12.106 2.8239 12.0888 2.84906 12.0659C2.8239 12.0202 2.80503 11.9858 2.79245 11.963C2.77987 11.9401 2.77359 11.9172 2.77359 11.8943V11.8257C2.73585 11.7913 2.71698 11.7513 2.71698 11.7055V11.6197L2.54717 11.5854L2.67925 11.4652V11.3794L2.56604 11.2764L2.67925 11.2593V11.1048L2.54717 10.9846L2.64151 10.916V10.8645C2.60377 10.8645 2.57862 10.8531 2.56604 10.8302C2.55346 10.8073 2.54717 10.7844 2.54717 10.7615H2.50943V10.7958C2.45912 10.7958 2.42138 10.8073 2.39623 10.8302C2.37107 10.8416 2.32704 10.8302 2.26415 10.7958H2.11321C2.05031 10.8531 1.96855 10.8531 1.86792 10.7958L1.73585 10.6757L1.90566 10.607C1.95598 10.607 2.00629 10.6013 2.0566 10.5899C2.10692 10.567 2.14465 10.5556 2.16981 10.5556H2.26415C2.32704 10.4983 2.38365 10.4869 2.43396 10.5212H2.54717C2.55975 10.4983 2.59119 10.4869 2.64151 10.4869C2.59119 10.4526 2.56604 10.424 2.56604 10.4011C2.56604 10.3439 2.58491 10.3038 2.62264 10.2809C2.66038 10.2466 2.71069 10.218 2.77359 10.1951C2.79874 10.1951 2.81132 10.1837 2.81132 10.1608C2.83648 10.1379 2.84906 10.115 2.84906 10.0921V10.0578C2.88679 10.0578 2.90566 10.0521 2.90566 10.0407V10.0063L2.84906 9.93767C2.81132 9.92623 2.78616 9.90334 2.77359 9.86901C2.77359 9.83469 2.77359 9.8118 2.77359 9.80036C2.72327 9.74315 2.69182 9.68594 2.67925 9.62873C2.67925 9.57151 2.67925 9.5143 2.67925 9.45709V9.38844L2.54717 9.30262L2.64151 9.26829C2.66667 9.23397 2.67925 9.20536 2.67925 9.18248V9.14815H2.64151V9.09666L2.50943 9.06233L2.64151 8.97651V8.90786L2.56604 8.73622C2.54088 8.64468 2.56604 8.58175 2.64151 8.54743C2.64151 8.49021 2.65409 8.45016 2.67925 8.42728V8.3243H2.64151V8.23848H2.54717V8.11834C2.52201 8.09545 2.49686 8.07829 2.4717 8.06685C2.44654 8.0554 2.43396 8.02108 2.43396 7.96387C2.43396 7.95242 2.42767 7.94098 2.41509 7.92954C2.38994 7.88377 2.37107 7.84944 2.35849 7.82656C2.35849 7.80367 2.33962 7.76935 2.30189 7.72358L2.26415 7.68925V7.63776C2.26415 7.62632 2.25786 7.6206 2.24528 7.6206C2.24528 7.60915 2.24528 7.59771 2.24528 7.58627V7.38031C2.24528 7.36886 2.24528 7.36314 2.24528 7.36314C2.25786 7.3517 2.26415 7.34026 2.26415 7.32882V7.26016L2.30189 7.243V7.00271C2.30189 6.97983 2.31447 6.95694 2.33962 6.93406C2.36478 6.91117 2.37736 6.88829 2.37736 6.8654L2.30189 6.84824L2.37736 6.77958L2.30189 6.74526C2.30189 6.73381 2.2956 6.72809 2.28302 6.72809C2.27044 6.71665 2.26415 6.69377 2.26415 6.65944C2.26415 6.57934 2.27673 6.52785 2.30189 6.50497C2.26415 6.47064 2.24528 6.41915 2.24528 6.3505L2.16981 6.26468V6.17886C2.13208 6.14453 2.11321 6.12165 2.11321 6.11021C2.07547 6.11021 2.05031 6.11593 2.03774 6.12737C2.03774 6.13881 2.02516 6.13309 2 6.11021C1.98742 6.13309 1.96855 6.14453 1.9434 6.14453C1.91824 6.14453 1.90566 6.13309 1.90566 6.11021L1.86792 6.14453C1.83019 6.22463 1.78616 6.26468 1.73585 6.26468C1.71069 6.28756 1.69182 6.29901 1.67925 6.29901H1.64151C1.61635 6.29901 1.60377 6.31045 1.60377 6.33333V6.41915L1.4717 6.38482C1.40881 6.38482 1.36478 6.39627 1.33962 6.41915H1.30189C1.23899 6.47636 1.16981 6.50497 1.09434 6.50497L1.07547 6.5393H0.962264C0.949686 6.56218 0.937107 6.58506 0.924528 6.60795C0.924528 6.61939 0.893082 6.62511 0.830189 6.62511C0.830189 6.63656 0.823899 6.648 0.811321 6.65944C0.811321 6.67088 0.811321 6.68232 0.811321 6.69377V6.72809L0.698113 6.77958L0.660378 6.84824L0.433962 7.00271L0.509434 6.74526V6.65944C0.522013 6.63655 0.528302 6.61939 0.528302 6.60795C0.528302 6.58506 0.540881 6.56218 0.566038 6.5393H0.584906V6.52213L0.566038 6.50497V6.41915L0.698113 6.3505H0.735849C0.761006 6.3505 0.786164 6.33333 0.811321 6.29901C0.811321 6.29901 0.830189 6.28184 0.867925 6.24752C0.880503 6.23607 0.893082 6.23035 0.905661 6.23035L0.943396 6.17886C0.943396 6.15598 0.974843 6.14453 1.03774 6.14453C1.03774 6.09877 1.04403 6.07016 1.0566 6.05872C1.06918 6.03583 1.07547 6.01295 1.07547 5.99006H1.13208C1.15723 5.99006 1.16981 5.9729 1.16981 5.93857H1.24528C1.28302 5.91569 1.32704 5.90425 1.37736 5.90425V5.86992H1.43396C1.39623 5.82415 1.37736 5.7841 1.37736 5.74977V5.50948L1.56604 5.62963C1.5912 5.58386 1.61635 5.56098 1.64151 5.56098V5.54381C1.64151 5.54381 1.62893 5.53809 1.60377 5.52665V5.32069C1.60377 5.2978 1.61006 5.28636 1.62264 5.28636H1.64151V5.11472H1.60377V5.04607C1.60377 5.02319 1.61006 5.00602 1.62264 4.99458C1.63522 4.9717 1.64151 4.94881 1.64151 4.92593V4.73713H1.60377L1.64151 4.71996V4.68564C1.61635 4.62842 1.61635 4.58838 1.64151 4.56549V4.46251L1.69811 4.44535V4.37669C1.67296 4.37669 1.66038 4.37097 1.66038 4.35953C1.66038 4.34809 1.67296 4.33665 1.69811 4.3252C1.67296 4.29088 1.65409 4.26799 1.64151 4.25655C1.64151 4.23366 1.62893 4.2165 1.60377 4.20506C1.60377 4.1364 1.61635 4.09064 1.64151 4.06775V3.94761L1.73585 3.86179C1.71069 3.86179 1.69811 3.85035 1.69811 3.82746C1.63522 3.77025 1.61635 3.71304 1.64151 3.65583V3.6215C1.61635 3.6215 1.60377 3.61006 1.60377 3.58717C1.60377 3.55285 1.60377 3.52424 1.60377 3.50135V3.46703L1.4717 3.38121L1.56604 3.34688C1.5283 3.31256 1.50943 3.28967 1.50943 3.27823V3.26107H1.37736C1.37736 3.27251 1.3522 3.27823 1.30189 3.27823C1.26415 3.324 1.2327 3.34688 1.20755 3.34688C1.20755 3.38121 1.16981 3.39837 1.09434 3.39837C1.09434 3.46703 1.07547 3.50135 1.03774 3.50135H0.962264V3.53568C0.949686 3.55857 0.90566 3.58717 0.830189 3.6215H0.811321C0.735849 3.64438 0.666667 3.66727 0.603774 3.69015C0.553459 3.71304 0.496855 3.74164 0.433962 3.77597C0.408805 3.79886 0.383648 3.81602 0.358491 3.82746C0.345912 3.82746 0.314465 3.8389 0.264151 3.86179L0 3.89612L0.169811 3.70732V3.65583C0.207547 3.65583 0.226415 3.65011 0.226415 3.63866V3.6215C0.264151 3.57573 0.295598 3.53568 0.320755 3.50135C0.358491 3.46703 0.396227 3.4327 0.433962 3.39837H0.471698C0.484277 3.39837 0.490566 3.39837 0.490566 3.39837C0.503145 3.38693 0.515723 3.38121 0.528302 3.38121V3.27823H0.566038C0.603774 3.25534 0.628931 3.23246 0.64151 3.20957C0.654088 3.17525 0.672956 3.15808 0.698113 3.15808C0.735849 3.1352 0.761006 3.11232 0.773585 3.08943C0.786164 3.0551 0.805032 3.0265 0.830189 3.00361C0.867925 3.00361 0.886793 3.00361 0.886793 3.00361C0.899371 2.99217 0.918239 2.98645 0.943396 2.98645V2.9178L1.07547 2.79765L1.09434 2.76332C1.13208 2.76332 1.15094 2.7576 1.15094 2.74616C1.16352 2.73472 1.18239 2.729 1.20755 2.729V2.67751C1.2327 2.65462 1.24528 2.63746 1.24528 2.62602V2.60885C1.28302 2.60885 1.30189 2.60313 1.30189 2.59169V2.55736C1.25157 2.52304 1.25157 2.48299 1.30189 2.43722V2.40289L1.24528 2.36856L1.30189 2.31707L1.20755 2.00813L1.33962 2.12827V2.05962H1.37736V2.00813H1.43396V1.88799H1.33962L1.37736 1.69919C1.37736 1.6763 1.38365 1.65914 1.39623 1.6477C1.42138 1.63625 1.43396 1.61337 1.43396 1.57904H1.4717C1.44654 1.55616 1.43396 1.53327 1.43396 1.51039C1.43396 1.47606 1.44654 1.44746 1.4717 1.42457H1.45283C1.44025 1.42457 1.43396 1.41885 1.43396 1.40741V1.18428C1.43396 1.1614 1.44654 1.14995 1.4717 1.14995C1.4717 1.14995 1.46541 1.13851 1.45283 1.11563V1.09846H1.43396V1.06414C1.42138 1.05269 1.41509 1.03553 1.41509 1.01265C1.41509 0.955435 1.42138 0.921108 1.43396 0.909665C1.43396 0.795242 1.44654 0.715146 1.4717 0.669376C1.44654 0.612165 1.44654 0.572117 1.4717 0.549232C1.49686 0.492021 1.50943 0.38904 1.50943 0.240289C1.50943 0.205962 1.5283 0.165913 1.56604 0.120144V0.102981C1.56604 0.102981 1.57862 0.0915385 1.60377 0.0686542L1.69811 0L1.77359 0.0858174C1.77359 0.143029 1.77987 0.183077 1.79245 0.205962C1.81761 0.217405 1.83019 0.251732 1.83019 0.308943C1.80503 0.320385 1.79874 0.348991 1.81132 0.394761C1.8239 0.429088 1.83019 0.457694 1.83019 0.480578V0.669376L1.86792 0.703704C1.89308 0.726588 1.93082 0.755194 1.98113 0.789521H2.16981C2.2327 0.789521 2.27673 0.800963 2.30189 0.823848H2.33962C2.36478 0.823848 2.37736 0.812406 2.37736 0.789521C2.38994 0.789521 2.39623 0.795242 2.39623 0.806684C2.39623 0.806684 2.40252 0.806684 2.41509 0.806684C2.41509 0.818127 2.42138 0.823848 2.43396 0.823848H2.64151C2.72956 0.823848 2.78616 0.83529 2.81132 0.858175C2.81132 0.83529 2.81761 0.823848 2.83019 0.823848H2.84906C2.88679 0.800963 2.91824 0.789521 2.9434 0.789521H3.07547C3.07547 0.755194 3.10692 0.73803 3.16981 0.73803H3.37736C3.37736 0.680819 3.40881 0.680819 3.4717 0.73803H3.73585C3.76101 0.73803 3.79245 0.732309 3.83019 0.720867C3.86792 0.709425 3.89308 0.703704 3.90566 0.703704C3.9434 0.703704 3.96855 0.697983 3.98113 0.68654C4.00629 0.675098 4.02516 0.669376 4.03774 0.669376C4.13836 0.669376 4.21384 0.675098 4.26415 0.68654C4.31447 0.697983 4.36478 0.73231 4.41509 0.789521H4.45283V0.806684C4.45283 0.818127 4.4717 0.823848 4.50943 0.823848C4.59748 0.778078 4.66667 0.806684 4.71698 0.909665C4.72956 0.898223 4.75472 0.892502 4.79245 0.892502C4.80503 0.892502 4.81132 0.898223 4.81132 0.909665H4.9434C5.00629 0.93255 5.06289 0.943993 5.11321 0.943993C5.1761 0.943993 5.2327 0.955435 5.28302 0.978319C5.30818 1.01265 5.36478 1.01265 5.45283 0.978319C5.51572 0.955435 5.5912 0.943993 5.67925 0.943993H6.07547C6.10063 0.943993 6.1195 0.949714 6.13208 0.961156C6.15723 0.972598 6.18868 0.978319 6.22642 0.978319C6.25157 1.0012 6.28302 1.02409 6.32076 1.04697C6.35849 1.05842 6.38994 1.07558 6.41509 1.09846C6.46541 1.09846 6.50314 1.11563 6.5283 1.14995H6.54717C6.61006 1.17284 6.66038 1.18428 6.69811 1.18428C6.74843 1.18428 6.78616 1.18428 6.81132 1.18428L6.88679 1.21861H6.92453C6.98742 1.21861 7.04403 1.23577 7.09434 1.2701H7.15094C7.18868 1.2701 7.22013 1.27582 7.24528 1.28726C7.27044 1.2987 7.2956 1.30443 7.32075 1.30443V1.33875C7.34591 1.33875 7.35849 1.36164 7.35849 1.40741C7.39623 1.40741 7.42767 1.41313 7.45283 1.42457H7.69811C7.69811 1.43601 7.7044 1.44173 7.71698 1.44173H7.77358C7.79874 1.45318 7.81761 1.4589 7.83019 1.4589H7.84906L7.88679 1.52755H8.01887V1.54471C8.08176 1.54471 8.13208 1.55044 8.16981 1.56188C8.22013 1.56188 8.25786 1.59048 8.28302 1.6477C8.34591 1.61337 8.39623 1.60765 8.43396 1.63053C8.4717 1.65342 8.50315 1.6763 8.5283 1.69919C8.55346 1.69919 8.56604 1.71063 8.56604 1.73351C8.57862 1.7564 8.59748 1.76784 8.62264 1.76784C8.6478 1.79073 8.67296 1.80789 8.69811 1.81933C8.73585 1.81933 8.7673 1.84222 8.79245 1.88799L8.83019 1.92231C8.89308 1.92231 8.92453 1.92803 8.92453 1.93948H8.96226C9 1.98524 9.03145 2.00813 9.0566 2.00813C9.08176 2.03101 9.11321 2.04818 9.15094 2.05962L9.30189 2.28275L9.01887 2.24842H8.96226L8.92453 2.19693C8.8239 2.1626 8.73585 2.11683 8.66038 2.05962H8.60377C8.5912 2.05962 8.57862 2.0539 8.56604 2.04246C8.54088 2.04246 8.5283 2.03674 8.5283 2.02529V2.00813C8.46541 1.9738 8.42767 1.95092 8.41509 1.93948C8.40252 1.92803 8.38365 1.91087 8.35849 1.88799H8.28302C8.25786 1.85366 8.22641 1.83649 8.18868 1.83649C8.15094 1.82505 8.1195 1.81361 8.09434 1.80217C8.04402 1.80217 8.01258 1.79645 8 1.785C7.98742 1.785 7.98113 1.77928 7.98113 1.76784H7.88679C7.84906 1.76784 7.83019 1.74496 7.83019 1.69919H7.69811C7.6478 1.69919 7.62264 1.68774 7.62264 1.66486H7.54717C7.48428 1.68774 7.43396 1.69347 7.39623 1.68202C7.37107 1.67058 7.34591 1.65914 7.32075 1.6477C7.2956 1.6477 7.27044 1.63625 7.24528 1.61337C7.22013 1.59048 7.18868 1.5676 7.15094 1.54471L7.09434 1.52755C7.00629 1.52755 6.94969 1.50467 6.92453 1.4589H6.79245C6.72956 1.4589 6.69182 1.45318 6.67925 1.44173C6.66667 1.43029 6.6478 1.42457 6.62264 1.42457C6.58491 1.42457 6.55975 1.42457 6.54717 1.42457C6.53459 1.41313 6.51572 1.40741 6.49057 1.40741C6.44025 1.40741 6.40252 1.38452 6.37736 1.33875H6.35849C6.35849 1.33875 6.33333 1.32731 6.28302 1.30443H6.22642C6.1761 1.32731 6.10692 1.33875 6.01887 1.33875C5.99371 1.33875 5.96226 1.33875 5.92453 1.33875C5.89937 1.33875 5.87421 1.32731 5.84906 1.30443C5.8239 1.30443 5.81132 1.2987 5.81132 1.28726V1.2701C5.74843 1.2701 5.71698 1.25294 5.71698 1.21861C5.69182 1.21861 5.67925 1.21289 5.67925 1.20145V1.18428H5.58491C5.53459 1.20717 5.49057 1.23005 5.45283 1.25294C5.41509 1.26438 5.37107 1.2701 5.32075 1.2701C5.32075 1.24721 5.31447 1.23577 5.30189 1.23577C5.28931 1.23577 5.28302 1.24721 5.28302 1.2701C5.2327 1.2701 5.18239 1.2701 5.13208 1.2701C5.09434 1.25866 5.06918 1.24149 5.0566 1.21861C4.99371 1.21861 4.95598 1.21289 4.9434 1.20145C4.93082 1.20145 4.91824 1.19572 4.90566 1.18428H4.77359C4.72327 1.1614 4.69811 1.14995 4.69811 1.14995H4.67925C4.61635 1.14995 4.57233 1.13279 4.54717 1.09846C4.52201 1.07558 4.47799 1.06414 4.41509 1.06414C4.33962 1.06414 4.28302 1.03553 4.24528 0.978319L4.16981 0.943993C4.10692 0.943993 4.06289 0.943993 4.03774 0.943993C4.01258 0.943993 3.96855 0.955435 3.90566 0.978319H3.71698C3.66667 0.978319 3.64151 0.995483 3.64151 1.02981H3.50943C3.43396 1.06414 3.36478 1.06414 3.30189 1.02981H3.20755C3.20755 1.07558 3.1761 1.09846 3.11321 1.09846V1.14995L3.07547 1.09846C3.07547 1.13279 3.04403 1.14995 2.98113 1.14995H2.84906C2.83648 1.14995 2.8239 1.15568 2.81132 1.16712C2.81132 1.16712 2.80503 1.16712 2.79245 1.16712L2.77359 1.18428H2.64151L2.62264 1.20145C2.61006 1.21289 2.59119 1.21861 2.56604 1.21861H2.01887C2.00629 1.21861 2 1.23577 2 1.2701H1.98113C1.99371 1.30443 1.99371 1.3502 1.98113 1.40741V1.52755C1.98113 1.53899 1.96855 1.54471 1.9434 1.54471C1.91824 1.54471 1.90566 1.55616 1.90566 1.57904L1.98113 1.6477L1.90566 1.76784V1.81933C1.8805 1.81933 1.86792 1.83077 1.86792 1.85366C1.86792 1.87654 1.8805 1.89943 1.90566 1.92231V2.00813L1.98113 2.04246C1.98113 2.0539 1.98113 2.07106 1.98113 2.09395C1.98113 2.11683 1.98742 2.13972 2 2.1626V2.19693L2.03774 2.24842L2 2.31707C1.98742 2.31707 1.98113 2.32852 1.98113 2.3514V2.36856C1.98113 2.38001 1.96855 2.39717 1.9434 2.42005C1.93082 2.4315 1.91824 2.43722 1.90566 2.43722V2.52304H1.98113V2.60885L2 2.67751V2.86631C1.98742 2.88919 1.98113 2.90635 1.98113 2.9178C1.99371 2.92924 2 2.94068 2 2.95212V2.98645C2.02516 2.99789 2.03774 3.03794 2.03774 3.10659H2.11321C2.11321 3.11804 2.1195 3.1352 2.13208 3.15808V3.22674H2.16981V3.27823H2.26415V3.46703C2.26415 3.48991 2.27044 3.50135 2.28302 3.50135C2.2956 3.50135 2.30189 3.5128 2.30189 3.53568V3.6215L2.37736 3.65583L2.41509 3.6215L2.50943 3.70732H2.56604L2.67925 3.74164H2.84906V3.70732L2.98113 3.58717L3.03774 3.65583H3.0566V3.67299C3.0566 3.68443 3.06289 3.69587 3.07547 3.70732L3.16981 3.46703L3.24528 3.6215C3.27044 3.6215 3.28931 3.62722 3.30189 3.63866C3.32704 3.65011 3.3522 3.65583 3.37736 3.65583H3.49057V3.67299C3.49057 3.68443 3.49686 3.69587 3.50943 3.70732H3.64151C3.69182 3.68443 3.71698 3.67871 3.71698 3.69015C3.72956 3.7016 3.74843 3.70732 3.77359 3.70732C3.86164 3.65011 3.90566 3.65011 3.90566 3.70732H4.24528L4.37736 3.65583C4.40252 3.65583 4.42767 3.67299 4.45283 3.70732H4.90566C4.93082 3.68443 4.9434 3.66155 4.9434 3.63866V3.6215L4.90566 3.53568L4.98113 3.50135C4.98113 3.47847 4.99371 3.46703 5.01887 3.46703C5.04403 3.45559 5.0566 3.4327 5.0566 3.39837C5.0566 3.37549 5.06918 3.3526 5.09434 3.32972C5.13208 3.29539 5.16352 3.27251 5.18868 3.26107L5.20755 3.22674C5.28302 3.15808 5.32075 3.11804 5.32075 3.10659C5.33333 3.07227 5.3522 3.04938 5.37736 3.03794C5.40252 3.01506 5.41509 2.99789 5.41509 2.98645C5.41509 2.96356 5.42138 2.9464 5.43396 2.93496L5.45283 2.9178C5.45283 2.89491 5.48428 2.88347 5.54717 2.88347L5.75472 2.79765L5.62264 3.03794C5.62264 3.08371 5.61635 3.11804 5.60377 3.14092C5.59119 3.16381 5.58491 3.19241 5.58491 3.22674C5.55975 3.24962 5.54088 3.26107 5.5283 3.26107C5.51572 3.27251 5.50314 3.27823 5.49057 3.27823H5.45283V3.34688C5.42767 3.34688 5.40881 3.3526 5.39623 3.36405C5.39623 3.37549 5.37736 3.38121 5.33962 3.38121C5.33962 3.39265 5.33333 3.4041 5.32075 3.41554C5.32075 3.41554 5.32075 3.4327 5.32075 3.46703C5.33333 3.48991 5.33962 3.52996 5.33962 3.58717C5.37736 3.61006 5.38365 3.63294 5.35849 3.65583C5.33333 3.66727 5.32075 3.68443 5.32075 3.70732L5.20755 3.74164C5.19497 3.74164 5.18868 3.74736 5.18868 3.75881V3.82746C5.1761 3.82746 5.16981 3.83318 5.16981 3.84463C5.15723 3.85607 5.15094 3.87323 5.15094 3.89612C5.10063 3.94188 5.07547 3.96477 5.07547 3.96477C5.06289 3.97621 5.06289 3.98193 5.07547 3.98193V4.01626C5.07547 4.03914 5.08805 4.06203 5.11321 4.08491C5.13836 4.09636 5.16352 4.10208 5.18868 4.10208V4.1364H5.20755C5.27044 4.1364 5.30818 4.14213 5.32075 4.15357C5.34591 4.15357 5.37736 4.17073 5.41509 4.20506C5.44025 4.20506 5.46541 4.20506 5.49057 4.20506C5.5283 4.20506 5.54717 4.21078 5.54717 4.22222C5.57233 4.24511 5.59748 4.25655 5.62264 4.25655H5.84906C5.87421 4.25655 5.90566 4.26227 5.9434 4.27371C5.98113 4.27371 6.02516 4.29088 6.07547 4.3252H6.28302C6.33333 4.29088 6.37107 4.27371 6.39623 4.27371C6.42138 4.26227 6.45283 4.24511 6.49057 4.22222H6.5283L6.62264 4.20506V4.22222C6.6478 4.21078 6.67296 4.20506 6.69811 4.20506C6.73585 4.19362 6.7673 4.17073 6.79245 4.1364H7.0566C7.1195 4.1364 7.16352 4.12496 7.18868 4.10208C7.23899 4.10208 7.27044 4.09636 7.28302 4.08491C7.30818 4.07347 7.33333 4.06775 7.35849 4.06775C7.37107 4.06775 7.38365 4.06203 7.39623 4.05059C7.42138 4.0277 7.44025 4.01626 7.45283 4.01626H7.69811C7.73585 4.05059 7.79874 4.06775 7.88679 4.06775H8.09434C8.1195 4.09064 8.16352 4.10208 8.22642 4.10208L8.26415 4.1364H8.35849C8.38365 4.1364 8.40881 4.14785 8.43396 4.17073C8.4717 4.19362 8.50315 4.21078 8.5283 4.22222C8.57862 4.22222 8.61006 4.22794 8.62264 4.23939C8.6478 4.25083 8.67296 4.25655 8.69811 4.25655H8.79245C8.79245 4.29088 8.79874 4.30232 8.81132 4.29088L8.83019 4.25655H9.0566C9.08176 4.23366 9.10063 4.22222 9.11321 4.22222C9.13836 4.22222 9.16352 4.2165 9.18868 4.20506C9.18868 4.2165 9.19497 4.2165 9.20755 4.20506V4.1879C9.20755 4.17645 9.20755 4.17073 9.20755 4.17073C9.22013 4.15929 9.22641 4.14785 9.22641 4.1364C9.23899 4.1364 9.25157 4.13068 9.26415 4.11924C9.27673 4.11924 9.28302 4.11924 9.28302 4.11924C9.2956 4.1078 9.30818 4.10208 9.32076 4.10208V4.06775C9.35849 4.01054 9.40252 3.98193 9.45283 3.98193V3.94761H9.49057C9.5283 3.90184 9.55975 3.86751 9.58491 3.84463C9.62264 3.82174 9.67296 3.78741 9.73585 3.74164C9.73585 3.71876 9.7673 3.70732 9.83019 3.70732L10 3.74164ZM4.50943 4.59982H4.64151V4.56549L4.67925 4.49684V4.37669C4.65409 4.37669 4.62893 4.37097 4.60377 4.35953C4.59119 4.34809 4.57233 4.33665 4.54717 4.3252L4.41509 4.1364V4.20506H4.32075C4.2956 4.20506 4.27044 4.19362 4.24528 4.17073C4.2327 4.14785 4.20755 4.12496 4.16981 4.10208C4.16981 4.12496 4.15094 4.1364 4.11321 4.1364C4.07547 4.1364 4.05031 4.14785 4.03774 4.17073C4.02516 4.18217 4.00629 4.17073 3.98113 4.1364V4.20506L3.84906 4.1364C3.79874 4.1364 3.76101 4.15929 3.73585 4.20506C3.72327 4.20506 3.69811 4.21078 3.66038 4.22222C3.63522 4.22222 3.61006 4.2165 3.58491 4.20506H3.43396C3.38365 4.25083 3.32075 4.25655 3.24528 4.22222C3.20755 4.25655 3.16352 4.25655 3.11321 4.22222H3.07547V4.25655L3.03774 4.34237L2.9434 4.3252C2.91824 4.33665 2.89308 4.34237 2.86792 4.34237C2.85535 4.34237 2.84906 4.35381 2.84906 4.37669L2.77359 4.49684L2.67925 4.44535H2.64151L2.56604 4.46251L2.54717 4.49684C2.54717 4.53117 2.54088 4.55405 2.5283 4.56549C2.51572 4.56549 2.50943 4.57693 2.50943 4.59982C2.45912 4.61126 2.43396 4.63987 2.43396 4.68564C2.43396 4.71996 2.42767 4.76001 2.41509 4.80578V4.84011L2.39623 4.85727C2.37107 4.88016 2.33962 4.90304 2.30189 4.92593H2.26415C2.25157 4.94881 2.2327 4.9717 2.20755 4.99458C2.18239 5.00602 2.15723 5.02319 2.13208 5.04607V5.0804C2.1195 5.10328 2.11321 5.13189 2.11321 5.16621V5.23487C2.11321 5.23487 2.1195 5.24631 2.13208 5.2692V5.28636L2.43396 5.50948H2.41509L2.43396 5.52665C2.49686 5.54953 2.53459 5.5667 2.54717 5.57814C2.57233 5.57814 2.60377 5.60675 2.64151 5.66396V5.68112L2.67925 5.66396H3C3.01258 5.66396 3.02516 5.66968 3.03774 5.68112H3.07547C3.07547 5.66968 3.10692 5.66396 3.16981 5.66396H3.24528L3.30189 5.68112H3.43396C3.43396 5.69256 3.44025 5.69828 3.45283 5.69828C3.46541 5.70973 3.4717 5.71545 3.4717 5.71545C3.48428 5.71545 3.49686 5.72689 3.50943 5.74977L3.58491 5.68112H3.71698C3.71698 5.68112 3.72956 5.6754 3.75472 5.66396H3.77359L3.84906 5.62963H3.90566C3.9434 5.5953 3.96855 5.57814 3.98113 5.57814C4.00629 5.5667 4.02516 5.56098 4.03774 5.56098L4.15094 5.50948L4.16981 5.44083V5.38934C4.18239 5.38934 4.20126 5.3779 4.22642 5.35501C4.22642 5.34357 4.2327 5.33213 4.24528 5.32069L4.28302 5.28636C4.28302 5.18338 4.32704 5.11472 4.41509 5.0804C4.44025 5.05751 4.45283 5.04035 4.45283 5.02891C4.46541 5.00602 4.48428 4.98314 4.50943 4.96025C4.50943 4.93737 4.51572 4.92593 4.5283 4.92593H4.54717C4.54717 4.84583 4.55975 4.80578 4.58491 4.80578V4.68564L4.50943 4.59982ZM4.45283 4.1364H4.50943L4.45283 4.10208V4.1364Z" fill="black"/>
</svg>
