<svg width="12" height="15" viewBox="0 0 12 15" fill="none" xmlns="http://www.w3.org/2000/svg">
<path d="M11.9272 14.983C11.9514 14.983 11.9636 14.983 11.9636 14.983C11.9757 14.9943 11.9879 15 12 15C11.9393 15 11.909 14.9774 11.909 14.9321C11.8847 14.9208 11.8725 14.9152 11.8725 14.9152L11.8361 14.8812C11.8361 14.8699 11.83 14.8586 11.8179 14.8473H11.7997C11.7997 14.8247 11.7693 14.7964 11.7086 14.7624H11.7815C11.7451 14.7624 11.7208 14.7568 11.7086 14.7455C11.6965 14.7455 11.6904 14.7398 11.6904 14.7285C11.6297 14.7172 11.5994 14.6946 11.5994 14.6606H11.5448C11.5448 14.6719 11.5266 14.6663 11.4901 14.6437H11.5448C11.5205 14.621 11.5083 14.6097 11.5083 14.6097H11.4901C11.4901 14.5984 11.4841 14.5871 11.4719 14.5758C11.4719 14.5758 11.4719 14.5701 11.4719 14.5588L11.4537 14.5419C11.4537 14.5192 11.4476 14.5023 11.4355 14.4909C11.4234 14.4796 11.4173 14.4627 11.4173 14.44H11.3627L11.4173 14.4061H11.3627V14.3891C11.3505 14.3891 11.3445 14.3778 11.3445 14.3552C11.3445 14.3326 11.3323 14.3156 11.308 14.3043H11.3445C11.3445 14.2817 11.3202 14.2704 11.2716 14.2704C11.2716 14.2704 11.2838 14.2647 11.308 14.2534C11.2838 14.2534 11.2716 14.2364 11.2716 14.2025H11.2352V14.1855C11.2352 14.1742 11.2291 14.1629 11.217 14.1516C11.217 14.1516 11.217 14.1403 11.217 14.1176V14.1007V14.0498V14.0328C11.1563 14.0328 11.1259 14.0215 11.1259 13.9989C11.0895 13.9989 11.0713 13.9932 11.0713 13.9819V13.9649C11.0592 13.9649 11.0531 13.9593 11.0531 13.948H11.0167V13.8801C11.0167 13.9027 11.0228 13.914 11.0349 13.914H11.0531V13.8462C11.0531 13.8348 11.047 13.8235 11.0349 13.8122C11.0228 13.8122 11.0167 13.8009 11.0167 13.7783V13.7613H10.9803V13.6595C10.9439 13.6143 10.8953 13.586 10.8346 13.5747L10.8528 13.5238C10.8528 13.5238 10.8467 13.5181 10.8346 13.5068C10.8346 13.5068 10.8225 13.5068 10.7982 13.5068H10.78H10.7618L10.7436 13.4729V13.4559C10.7071 13.4559 10.6889 13.4389 10.6889 13.405V13.388C10.7253 13.388 10.7436 13.3824 10.7436 13.371C10.7678 13.3371 10.7739 13.2919 10.7618 13.2353V13.2014C10.7739 13.1787 10.7739 13.1335 10.7618 13.0656C10.7496 13.0543 10.7253 13.0373 10.6889 13.0147V12.9808C10.6889 12.9468 10.6829 12.9299 10.6707 12.9299V12.845H10.5979H10.6707V12.8111H10.5979C10.5857 12.7885 10.5857 12.7715 10.5979 12.7602C10.5857 12.7602 10.5736 12.7489 10.5615 12.7262C10.5493 12.7149 10.5554 12.7036 10.5797 12.6923C10.5554 12.681 10.5493 12.6697 10.5615 12.6584C10.5736 12.6584 10.5797 12.6471 10.5797 12.6244C10.5797 12.6244 10.5675 12.6188 10.5432 12.6075C10.5432 12.5848 10.5311 12.5622 10.5068 12.5396H10.5432V12.5226H10.5797L10.5432 12.4887V12.4208L10.5068 12.4038C10.4947 12.3925 10.4886 12.3812 10.4886 12.3699C10.4765 12.3586 10.4704 12.3473 10.4704 12.336C10.4704 12.336 10.4643 12.3303 10.4522 12.319V12.2511C10.4279 12.2511 10.4219 12.2511 10.434 12.2511C10.4461 12.2511 10.4522 12.2398 10.4522 12.2172H10.3976V12.1833C10.3976 12.1606 10.3794 12.1324 10.3429 12.0984L10.3247 12.0814C10.3005 12.0588 10.2822 12.0475 10.2701 12.0475L10.3065 12.0136C10.2822 12.0136 10.2701 12.0079 10.2701 11.9966C10.2701 11.9853 10.264 11.9796 10.2519 11.9796H10.2337C10.2215 11.9796 10.2155 11.9796 10.2155 11.9796C10.2155 11.9683 10.2033 11.9627 10.1791 11.9627C10.1791 11.9287 10.1912 11.9118 10.2155 11.9118H10.2519L10.1791 11.8948H10.1609H10.1244C10.1123 11.8948 10.1002 11.9005 10.088 11.9118C10.0759 11.9118 10.0577 11.9061 10.0334 11.8948C10.0212 11.8948 10.0152 11.8891 10.0152 11.8778C10.003 11.8778 9.99697 11.8778 9.99697 11.8778C9.99697 11.8665 9.9909 11.8609 9.97876 11.8609L9.96055 11.8439C9.93627 11.8213 9.91806 11.81 9.90592 11.81H9.88771C9.86343 11.81 9.84522 11.8043 9.83308 11.793H9.81487H9.77845H9.74203L9.70562 11.7421H9.68741V11.7251H9.63278C9.63278 11.7251 9.62671 11.7251 9.61457 11.7251C9.59029 11.7251 9.57208 11.7251 9.55994 11.7251C9.55994 11.7138 9.5478 11.7081 9.52352 11.7081C9.52352 11.6742 9.51138 11.6572 9.4871 11.6572C9.46282 11.6572 9.43247 11.6403 9.39606 11.6063H9.34143C9.31715 11.595 9.29894 11.5894 9.2868 11.5894C9.27466 11.5781 9.25645 11.5611 9.23217 11.5385V11.5215C9.22003 11.5102 9.20182 11.5045 9.17754 11.5045C9.1654 11.4932 9.15326 11.4762 9.14112 11.4536C9.11684 11.4536 9.1047 11.4536 9.1047 11.4536C9.1047 11.4423 9.09256 11.4367 9.06829 11.4367C9.06829 11.4027 9.05615 11.3857 9.03187 11.3857C9.05615 11.3857 9.06829 11.3801 9.06829 11.3688C9.04401 11.3688 9.0258 11.3631 9.01366 11.3518C9.01366 11.3405 8.98331 11.3462 8.92261 11.3688V11.3348C8.92261 11.3122 8.91047 11.3122 8.88619 11.3348V11.3009C8.91047 11.2896 8.91047 11.267 8.88619 11.233V11.2161C8.88619 11.2048 8.87405 11.1878 8.84977 11.1652H8.83156V11.1482C8.783 11.1482 8.75873 11.1312 8.75873 11.0973H8.74052C8.72838 11.0973 8.71624 11.0973 8.7041 11.0973C8.7041 11.086 8.69803 11.0803 8.68589 11.0803L8.66768 11.0124C8.67982 11.0124 8.67982 11.0068 8.66768 10.9955H8.59484C8.59484 10.9502 8.57663 10.9502 8.54021 10.9955C8.51593 10.9955 8.49772 10.9898 8.48558 10.9785C8.47344 10.9672 8.46738 10.9559 8.46738 10.9446C8.40668 10.9333 8.35205 10.9276 8.30349 10.9276C8.29135 10.9276 8.27921 10.9219 8.26707 10.9106C8.25493 10.9106 8.24886 10.905 8.24886 10.8937C8.22458 10.8824 8.19423 10.8767 8.15781 10.8767H8.1214H8.06677C8.06677 10.8541 8.05463 10.8484 8.03035 10.8597C8.01821 10.871 8.01214 10.8654 8.01214 10.8428C8.01214 10.8201 7.99393 10.8088 7.95751 10.8088H7.81184H7.739C7.72686 10.8088 7.72079 10.8032 7.72079 10.7919C7.66009 10.7579 7.59332 10.7296 7.52049 10.707C7.50835 10.707 7.49014 10.7014 7.46586 10.69C7.45372 10.6674 7.44158 10.6561 7.42944 10.6561H7.30197C7.27769 10.6448 7.25341 10.6391 7.22914 10.6391H7.21093C7.18665 10.6052 7.16844 10.5826 7.1563 10.5713C7.14416 10.56 7.11381 10.56 7.06525 10.5713V10.5543C7.05311 10.5543 7.04704 10.5486 7.04704 10.5373C7.04704 10.5147 7.0349 10.5034 7.01062 10.5034L6.9742 10.4864H6.95599C6.94385 10.4864 6.93778 10.4921 6.93778 10.5034C6.93778 10.5034 6.93171 10.5034 6.91958 10.5034V10.4864H6.88316C6.85888 10.4751 6.82853 10.4581 6.79211 10.4355H6.75569H6.5736H6.55539C6.54325 10.4355 6.53718 10.4468 6.53718 10.4695C6.53718 10.4921 6.52504 10.5034 6.50076 10.5034C6.46434 10.5034 6.44613 10.526 6.44613 10.5713H6.46434C6.46434 10.5713 6.46434 10.5882 6.46434 10.6222V10.6391C6.48862 10.6391 6.50076 10.6448 6.50076 10.6561C6.50076 10.6561 6.5129 10.6561 6.53718 10.6561C6.56146 10.69 6.59181 10.707 6.62822 10.707C6.62822 10.6844 6.63429 10.6787 6.64643 10.69C6.65857 10.69 6.66464 10.6787 6.66464 10.6561C6.67678 10.69 6.70106 10.707 6.73748 10.707C6.73748 10.7183 6.74355 10.724 6.75569 10.724L6.68285 10.7919V10.8428V10.8597C6.68285 10.871 6.67678 10.8767 6.66464 10.8767H6.64643C6.63429 10.8767 6.62822 10.8654 6.62822 10.8428C6.62822 10.8088 6.61002 10.7919 6.5736 10.7919C6.54932 10.7579 6.52504 10.7409 6.50076 10.7409H6.46434C6.46434 10.7296 6.44006 10.724 6.3915 10.724C6.37936 10.724 6.37329 10.7183 6.37329 10.707C6.34901 10.6731 6.30653 10.6505 6.24583 10.6391V10.6561C6.24583 10.6448 6.22762 10.6278 6.1912 10.6052C6.16692 10.5826 6.14264 10.5713 6.11836 10.5713C6.11836 10.6052 6.11229 10.6222 6.10015 10.6222C6.10015 10.6222 6.10015 10.6052 6.10015 10.5713C6.07587 10.5713 6.05766 10.5713 6.04552 10.5713C6.03338 10.56 6.01517 10.5543 5.9909 10.5543C5.9909 10.5204 5.96662 10.5034 5.91806 10.5034H5.89985C5.88771 10.5034 5.88164 10.5034 5.88164 10.5034C5.88164 10.4921 5.87557 10.4864 5.86343 10.4864C5.83915 10.4864 5.81487 10.4808 5.79059 10.4695C5.79059 10.4468 5.78452 10.4355 5.77238 10.4355C5.77238 10.4242 5.77238 10.4072 5.77238 10.3846L5.69955 10.3507H5.64492H5.6085C5.59636 10.3507 5.59029 10.3394 5.59029 10.3167C5.59029 10.2941 5.57815 10.2828 5.55387 10.2828H5.51745V10.2658L5.49924 10.2319C5.46282 10.2093 5.41426 10.198 5.35357 10.198C5.35357 10.1867 5.3475 10.181 5.33536 10.181C5.33536 10.1697 5.33536 10.1527 5.33536 10.1301H5.31715C5.29287 10.1301 5.27466 10.1244 5.26252 10.1131C5.26252 10.0566 5.22003 10.0339 5.13505 10.0452V10.0283H5.11684V10.0452H5.08043H5.06222H5.04401C5.03187 10.0452 5.01973 10.0509 5.00759 10.0622C5.00759 10.0735 4.99545 10.0792 4.97117 10.0792H4.95296C4.94082 10.0905 4.92261 10.0962 4.89833 10.0962C4.88619 10.0962 4.88012 10.0905 4.88012 10.0792C4.81942 10.0452 4.77693 10.0566 4.75266 10.1131C4.75266 10.0905 4.74659 10.0792 4.73445 10.0792C4.69803 10.0792 4.67375 10.0905 4.66161 10.1131H4.58877L4.57056 10.0792H4.53414C4.48558 10.0792 4.45524 10.0679 4.4431 10.0452H4.37026H4.29742C4.28528 10.0339 4.25493 10.0283 4.20637 10.0283L4.15175 9.99434C4.12747 9.99434 4.10319 9.98869 4.07891 9.97738H4.02428C4.01214 9.97738 4.00607 9.97172 4.00607 9.96041H3.93323C3.90895 9.96041 3.89074 9.9491 3.8786 9.92647C3.84219 9.91516 3.81791 9.9095 3.80577 9.9095H3.78756C3.75114 9.87556 3.70258 9.8586 3.64188 9.8586C3.6176 9.8586 3.60546 9.84728 3.60546 9.82466L3.58725 9.77376C3.58725 9.76244 3.56297 9.75679 3.51442 9.75679C3.49014 9.71154 3.46586 9.68326 3.44158 9.67195H3.42337V9.63801C3.42337 9.58145 3.41123 9.55317 3.38695 9.55317C3.38695 9.54185 3.37481 9.52489 3.35053 9.50226L3.33232 9.48529H3.2959V9.46833H3.27769C3.26555 9.46833 3.25948 9.45701 3.25948 9.43439V9.41742C3.25948 9.41742 3.24734 9.42308 3.22307 9.43439C3.21093 9.43439 3.20486 9.42873 3.20486 9.41742C3.19272 9.41742 3.18665 9.41742 3.18665 9.41742C3.18665 9.40611 3.18058 9.40045 3.16844 9.40045L3.11381 9.29864H3.05918L3.04097 9.28167C2.99241 9.25905 2.95599 9.24774 2.93171 9.24774C2.91958 9.23642 2.90137 9.22511 2.87709 9.2138H2.85888C2.85888 9.20249 2.84674 9.19683 2.82246 9.19683C2.82246 9.18552 2.81639 9.17986 2.80425 9.17986C2.77997 9.17986 2.76176 9.18552 2.74962 9.19683L2.73141 9.14593C2.68285 9.14593 2.65857 9.14027 2.65857 9.12896H2.58574H2.54932L2.49469 9.07805C2.49469 9.08937 2.48862 9.10068 2.47648 9.11199C2.4522 9.13461 2.42792 9.14593 2.40364 9.14593C2.3915 9.15724 2.38543 9.16855 2.38543 9.17986C2.37329 9.19118 2.36115 9.19683 2.34901 9.19683C2.33687 9.20815 2.31866 9.21946 2.29439 9.23077C2.28225 9.23077 2.27618 9.24774 2.27618 9.28167C2.26404 9.24774 2.23976 9.23077 2.20334 9.23077C2.20334 9.21946 2.19727 9.2138 2.18513 9.2138H2.11229C2.08801 9.2138 2.07587 9.20815 2.07587 9.19683C2.06373 9.19683 2.04552 9.20249 2.02124 9.2138C1.99697 9.2138 1.96662 9.2138 1.9302 9.2138V9.43439C1.9302 9.45701 1.93627 9.46833 1.94841 9.46833C1.97269 9.46833 1.98483 9.47398 1.98483 9.48529V9.50226C1.98483 9.52489 1.9909 9.54185 2.00303 9.55317V9.5871C2.00303 9.59842 1.99697 9.60407 1.98483 9.60407V9.63801L1.9302 9.67195H1.91199C1.89985 9.67195 1.89378 9.66063 1.89378 9.63801L1.85736 9.60407L1.80273 9.55317C1.77845 9.55317 1.76024 9.54751 1.7481 9.5362C1.7481 9.52489 1.73596 9.50792 1.71168 9.48529V9.46833V9.43439V9.40045C1.67527 9.40045 1.65099 9.38348 1.63885 9.34955C1.63885 9.31561 1.63885 9.29299 1.63885 9.28167H1.65706V9.26471C1.65706 9.26471 1.65099 9.25339 1.63885 9.23077V9.2138C1.63885 9.20249 1.63278 9.19683 1.62064 9.19683H1.63885V9.14593H1.62064C1.6085 9.14593 1.60243 9.14593 1.60243 9.14593C1.60243 9.13462 1.59636 9.12896 1.58422 9.12896C1.59636 9.12896 1.60243 9.1233 1.60243 9.11199C1.60243 9.08937 1.59636 9.07805 1.58422 9.07805V9.06109C1.58422 9.01584 1.57208 8.99321 1.5478 8.99321V8.94231C1.5478 8.931 1.55387 8.92534 1.56601 8.92534C1.57815 8.91403 1.58422 8.89706 1.58422 8.87443C1.55994 8.87443 1.55387 8.87443 1.56601 8.87443C1.57815 8.87443 1.58422 8.86878 1.58422 8.85747V8.8405C1.58422 8.81787 1.59029 8.80656 1.60243 8.80656C1.61457 8.79525 1.62064 8.78394 1.62064 8.77262V8.70475V8.68778C1.62064 8.66516 1.62064 8.64819 1.62064 8.63688C1.63278 8.62557 1.63885 8.61425 1.63885 8.60294V8.569C1.61457 8.53507 1.61457 8.50679 1.63885 8.48416C1.67527 8.45023 1.69347 8.40498 1.69347 8.34842L1.71168 8.33145C1.73596 8.33145 1.7481 8.32014 1.7481 8.29751C1.7481 8.27489 1.73596 8.26357 1.71168 8.26357V8.24661H1.72989C1.72989 8.24661 1.74203 8.24095 1.76631 8.22964H1.71168H1.76631V8.21267C1.76631 8.19005 1.77238 8.17308 1.78452 8.16176C1.79666 8.13914 1.80273 8.11652 1.80273 8.09389H1.76631V8.05995C1.71775 8.05995 1.69347 8.0543 1.69347 8.04299H1.63885C1.63885 8.02036 1.62064 7.99774 1.58422 7.97511H1.56601C1.54173 7.97511 1.52352 7.96946 1.51138 7.95814V7.92421C1.51138 7.9129 1.50531 7.90158 1.49317 7.89027H1.43854L1.42033 7.8733C1.42033 7.83937 1.38998 7.81109 1.32929 7.78846C1.30501 7.78846 1.29287 7.78281 1.29287 7.77149C1.29287 7.74887 1.28073 7.73756 1.25645 7.73756V7.72059V7.65271V7.63575L1.23824 7.61878C1.23824 7.6414 1.23217 7.64706 1.22003 7.63575C1.20789 7.62443 1.20182 7.61312 1.20182 7.60181V7.58484C1.20182 7.58484 1.18968 7.57919 1.1654 7.56787V7.53394C1.1654 7.52262 1.15933 7.51697 1.14719 7.51697C1.13505 7.50566 1.12898 7.48869 1.12898 7.46606C1.15326 7.45475 1.15933 7.44344 1.14719 7.43213C1.13505 7.42081 1.12898 7.40385 1.12898 7.38122H1.11077C1.09863 7.38122 1.09256 7.37557 1.09256 7.36425L1.12898 7.33032C1.1047 7.33032 1.09256 7.319 1.09256 7.29638C1.06829 7.29638 1.05615 7.30204 1.05615 7.31335C1.05615 7.31335 1.05008 7.31335 1.03794 7.31335L1.01973 7.33032H0.965099C0.952959 7.33032 0.946889 7.32466 0.946889 7.31335C0.946889 7.30204 0.946889 7.30769 0.946889 7.33032H0.91047C0.886191 7.30769 0.874052 7.30769 0.874052 7.33032C0.849772 7.30769 0.837633 7.27941 0.837633 7.24547C0.801214 7.24547 0.783004 7.22851 0.783004 7.19457H0.728376H0.746586C0.746586 7.20588 0.740516 7.21719 0.728376 7.22851V7.24547C0.691957 7.24547 0.673748 7.25113 0.673748 7.26244C0.649469 7.26244 0.637329 7.26244 0.637329 7.26244V7.24547H0.546282C0.497724 7.24547 0.461305 7.25113 0.437026 7.26244H0.364188H0.30956H0.163885H0.109256C0.0728376 7.26244 0.0364188 7.27376 0 7.29638V7.26244C0.0121396 7.26244 0.0242792 7.26244 0.0364188 7.26244C0.0485584 7.25113 0.0667678 7.24547 0.091047 7.24547H0.163885C0.176024 7.21154 0.212443 7.19457 0.273141 7.19457H0.30956C0.333839 7.19457 0.345979 7.19457 0.345979 7.19457C0.358118 7.18326 0.376328 7.1776 0.400607 7.1776C0.437026 7.1776 0.461305 7.1776 0.473445 7.1776C0.497724 7.16629 0.528073 7.16063 0.564492 7.16063H0.637329H0.673748H0.728376C0.728376 7.13801 0.728376 7.13235 0.728376 7.14366C0.740516 7.14366 0.758725 7.13235 0.783004 7.10973V7.09276H0.837633C0.861912 7.10407 0.880121 7.11538 0.892261 7.1267C0.904401 7.1267 0.898331 7.14366 0.874052 7.1776L0.91047 7.19457V7.24547C0.93475 7.22285 0.952959 7.21719 0.965099 7.22851C0.977238 7.22851 1.00152 7.21719 1.03794 7.19457H1.09256L1.12898 7.24547H1.1654C1.1654 7.21154 1.17754 7.19457 1.20182 7.19457C1.20182 7.20588 1.19575 7.21719 1.18361 7.22851V7.24547H1.1654C1.21396 7.24547 1.24431 7.25113 1.25645 7.26244H1.29287C1.35357 7.26244 1.39605 7.27376 1.42033 7.29638H1.43854H1.51138H1.62064C1.63278 7.29638 1.63885 7.319 1.63885 7.36425L1.69347 7.33032H1.76631H1.9302H1.98483C2.02124 7.33032 2.05159 7.30769 2.07587 7.26244L2.11229 7.24547V7.19457C2.11229 7.17195 2.13657 7.16063 2.18513 7.16063C2.18513 7.1267 2.1912 7.10407 2.20334 7.09276V7.07579C2.20334 7.04185 2.20334 7.02489 2.20334 7.02489V7.00792C2.23976 7.00792 2.25797 7.00226 2.25797 6.99095V7.00792L2.3308 6.94004C2.3308 6.94004 2.3308 6.93439 2.3308 6.92308H2.34901C2.33687 6.90045 2.3308 6.88348 2.3308 6.87217C2.34294 6.84955 2.34901 6.82692 2.34901 6.8043C2.34901 6.78167 2.35508 6.77036 2.36722 6.77036C2.37936 6.75905 2.38543 6.74208 2.38543 6.71946V6.70249C2.36115 6.70249 2.34294 6.69118 2.3308 6.66855C2.31866 6.63462 2.30046 6.60633 2.27618 6.58371C2.27618 6.56109 2.27011 6.54412 2.25797 6.53281C2.25797 6.51018 2.25797 6.49321 2.25797 6.4819V6.36312C2.27011 6.36312 2.27618 6.35747 2.27618 6.34615V6.29525C2.27618 6.28394 2.29439 6.25566 2.3308 6.21041V6.19344C2.3308 6.18213 2.33687 6.16516 2.34901 6.14253V6.1086C2.34901 6.06335 2.36115 6.04072 2.38543 6.04072C2.38543 6.00679 2.3915 5.97851 2.40364 5.95588L2.47648 5.92195C2.47648 5.8767 2.50076 5.84842 2.54932 5.8371V5.76923C2.5736 5.76923 2.58574 5.74661 2.58574 5.70136H2.65857C2.65857 5.69005 2.65857 5.68439 2.65857 5.68439C2.67071 5.68439 2.67678 5.67308 2.67678 5.65045L2.73141 5.58258C2.73141 5.58258 2.73748 5.57127 2.74962 5.54864C2.74962 5.52602 2.75569 5.51471 2.76783 5.51471H2.78604C2.81032 5.50339 2.8346 5.48642 2.85888 5.4638C2.8953 5.44118 2.91958 5.42986 2.93171 5.42986C2.95599 5.41855 2.99241 5.40158 3.04097 5.37896C3.07739 5.34502 3.10774 5.32805 3.13202 5.32805C3.16844 5.31674 3.19879 5.30543 3.22307 5.29412H3.25948C3.28376 5.30543 3.30197 5.31109 3.31411 5.31109C3.33839 5.31109 3.36267 5.3224 3.38695 5.34502V5.31109L3.33232 5.29412H3.38695C3.38695 5.27149 3.39302 5.26018 3.40516 5.26018C3.4173 5.26018 3.42337 5.24887 3.42337 5.22624H3.51442H3.55083C3.57511 5.22624 3.58725 5.22059 3.58725 5.20928H3.44158C3.42944 5.20928 3.42337 5.21493 3.42337 5.22624C3.42337 5.22624 3.4173 5.22624 3.40516 5.22624H3.38695C3.36267 5.22624 3.34446 5.2319 3.33232 5.24321C3.33232 5.25452 3.32018 5.24887 3.2959 5.22624C3.34446 5.21493 3.38088 5.20362 3.40516 5.19231C3.44158 5.16968 3.478 5.15271 3.51442 5.1414C3.56297 5.13009 3.60546 5.12443 3.64188 5.12443V5.07353C3.64188 5.03959 3.66616 5.02262 3.71472 5.02262C3.71472 5 3.71472 4.98869 3.71472 4.98869C3.72686 4.98869 3.73293 4.97738 3.73293 4.95475C3.73293 4.94344 3.739 4.93213 3.75114 4.92081C3.77542 4.9095 3.79363 4.89253 3.80577 4.86991L3.82398 4.85294H3.84219C3.86646 4.85294 3.8786 4.83597 3.8786 4.80204V4.78507C3.89074 4.78507 3.92109 4.76244 3.96965 4.71719C3.96965 4.70588 3.97572 4.70023 3.98786 4.70023C4 4.70023 4.01214 4.68891 4.02428 4.66629V4.63235C4.07284 4.63235 4.09712 4.6267 4.09712 4.61538C4.09712 4.60407 4.07284 4.59842 4.02428 4.59842C4.10926 4.59842 4.15175 4.57014 4.15175 4.51357C4.18816 4.51357 4.20637 4.50792 4.20637 4.49661H4.24279V4.47964C4.26707 4.47964 4.27921 4.46267 4.27921 4.42873C4.27921 4.42873 4.28528 4.42308 4.29742 4.41176C4.33384 4.41176 4.35205 4.38914 4.35205 4.34389L4.37026 4.32692C4.37026 4.32692 4.37026 4.30995 4.37026 4.27602C4.37026 4.26471 4.37633 4.25905 4.38847 4.25905C4.38847 4.25905 4.39454 4.25339 4.40668 4.24208C4.43096 4.24208 4.4431 4.23643 4.4431 4.22511V4.19118C4.47951 4.17986 4.522 4.15158 4.57056 4.10633C4.5827 4.09502 4.60091 4.08371 4.62519 4.0724C4.64947 4.06109 4.66161 4.04977 4.66161 4.03846C4.66161 4.02715 4.67375 4.01018 4.69803 3.98756C4.71017 3.97624 4.72231 3.97059 4.73445 3.97059V3.91968H4.75266L4.78907 3.90271V3.83484C4.81335 3.82353 4.82549 3.81222 4.82549 3.8009C4.83763 3.78959 4.85584 3.78394 4.88012 3.78394V3.69909C4.89226 3.69909 4.91047 3.68778 4.93475 3.66516L4.95296 3.64819C4.9651 3.62557 4.97117 3.6086 4.97117 3.59729L5.0258 3.54638C5.0258 3.53507 5.0258 3.52941 5.0258 3.52941C5.03794 3.5181 5.04401 3.50113 5.04401 3.47851V3.44457C5.05615 3.41063 5.06222 3.38235 5.06222 3.35973C5.07436 3.3371 5.09256 3.30882 5.11684 3.27489C5.12898 3.27489 5.13505 3.26923 5.13505 3.25792V3.24095C5.18361 3.20701 5.20789 3.18439 5.20789 3.17308V3.15611C5.20789 3.15611 5.21396 3.1448 5.2261 3.12217V3.08823C5.2261 3.08823 5.23217 3.08258 5.24431 3.07127H5.26252C5.2261 3.02602 5.23824 3.00339 5.29894 3.00339C5.32322 2.98077 5.33536 2.94118 5.33536 2.88462V2.85068C5.3475 2.83937 5.37785 2.83371 5.4264 2.83371C5.4264 2.78846 5.43247 2.76584 5.44461 2.76584V2.7319C5.48103 2.7319 5.49924 2.72059 5.49924 2.69796V2.66403V2.64706C5.49924 2.64706 5.51745 2.62443 5.55387 2.57919L5.57208 2.56222C5.57208 2.56222 5.57815 2.55091 5.59029 2.52828H5.6085C5.63278 2.52828 5.64492 2.51697 5.64492 2.49434C5.6692 2.47172 5.68134 2.46041 5.68134 2.46041H5.69955C5.7481 2.44909 5.77845 2.43213 5.79059 2.4095C5.81487 2.4095 5.82701 2.40385 5.82701 2.39253V2.37557C5.85129 2.36425 5.86343 2.35294 5.86343 2.34163C5.87557 2.319 5.89378 2.30769 5.91806 2.30769C5.91806 2.29638 5.92413 2.29072 5.93627 2.29072C5.96055 2.29072 5.97269 2.28507 5.97269 2.27376C5.98483 2.27376 5.99697 2.2681 6.0091 2.25679C6.02124 2.23416 6.03945 2.22285 6.06373 2.22285H6.08194C6.08194 2.22285 6.08801 2.21719 6.10015 2.20588V2.27376C6.07587 2.27376 6.06373 2.27941 6.06373 2.29072C6.06373 2.30204 6.05159 2.30769 6.02731 2.30769C6.00304 2.34163 5.98483 2.3586 5.97269 2.3586C5.97269 2.36991 5.96055 2.37557 5.93627 2.37557C5.92413 2.37557 5.91199 2.38688 5.89985 2.4095V2.44344C5.85129 2.44344 5.82701 2.46041 5.82701 2.49434C5.81487 2.49434 5.80273 2.5 5.79059 2.51131L5.77238 2.52828L5.69955 2.56222C5.68741 2.57353 5.68134 2.58484 5.68134 2.59615V2.63009H5.79059V2.64706H5.82701C5.85129 2.64706 5.86343 2.65271 5.86343 2.66403C5.86343 2.66403 5.87557 2.66403 5.89985 2.66403V2.69796C5.89985 2.70928 5.90592 2.71493 5.91806 2.71493C5.91806 2.72624 5.92413 2.73756 5.93627 2.74887C5.96055 2.76018 5.97876 2.75452 5.9909 2.7319L6.0091 2.71493C6.0091 2.70362 6.0091 2.69796 6.0091 2.69796C6.02124 2.69796 6.02731 2.68665 6.02731 2.66403C6.05159 2.66403 6.06373 2.66403 6.06373 2.66403C6.06373 2.65271 6.07587 2.6414 6.10015 2.63009C6.08801 2.63009 6.08194 2.62443 6.08194 2.61312C6.08194 2.5905 6.08801 2.57919 6.10015 2.57919C6.10015 2.56787 6.09408 2.56222 6.08194 2.56222C6.0698 2.56222 6.06373 2.55091 6.06373 2.52828L6.10015 2.49434C6.07587 2.46041 6.03945 2.44344 5.9909 2.44344H5.97269C5.99697 2.44344 6.01517 2.43778 6.02731 2.42647C6.05159 2.41516 6.07587 2.4095 6.10015 2.4095C6.11229 2.4095 6.11836 2.39819 6.11836 2.37557H6.17299C6.18513 2.36425 6.19727 2.3586 6.20941 2.3586C6.23369 2.34729 6.25797 2.33032 6.28225 2.30769C6.31866 2.29638 6.33687 2.2681 6.33687 2.22285H6.37329C6.37329 2.21154 6.37329 2.20588 6.37329 2.20588C6.38543 2.20588 6.3915 2.19457 6.3915 2.17195C6.3915 2.14932 6.39757 2.13235 6.40971 2.12104C6.43399 2.09842 6.44613 2.07579 6.44613 2.05317C6.48255 2.05317 6.50076 2.02489 6.50076 1.96833V1.83258C6.50076 1.82127 6.5129 1.81561 6.53718 1.81561C6.53718 1.79299 6.56753 1.78167 6.62822 1.78167C6.62822 1.75905 6.63429 1.74774 6.64643 1.74774C6.65857 1.74774 6.66464 1.74208 6.66464 1.73077C6.67678 1.70814 6.68892 1.69118 6.70106 1.67986C6.72534 1.65724 6.73748 1.63462 6.73748 1.61199C6.73748 1.60068 6.73748 1.58371 6.73748 1.56109C6.73748 1.53846 6.74355 1.52149 6.75569 1.51018C6.74355 1.51018 6.73748 1.50452 6.73748 1.49321V1.47624V1.45928C6.70106 1.42534 6.70106 1.40271 6.73748 1.3914V1.32353C6.73748 1.31222 6.74355 1.30656 6.75569 1.30656C6.77997 1.28394 6.79211 1.26697 6.79211 1.25566C6.80425 1.23303 6.82246 1.21606 6.84674 1.20475V1.15385C6.85888 1.15385 6.88316 1.13688 6.91958 1.10294C6.91958 1.08032 6.93778 1.05204 6.9742 1.0181H7.01062C7.0349 1.0181 7.04704 0.995475 7.04704 0.950226L7.06525 0.933258C7.08953 0.933258 7.10774 0.927602 7.11988 0.91629C7.11988 0.904977 7.12595 0.893665 7.13809 0.882353C7.15023 0.871041 7.16237 0.865385 7.17451 0.865385C7.19879 0.854072 7.217 0.837104 7.22914 0.814479L7.26555 0.797511C7.28983 0.786199 7.30804 0.780543 7.32018 0.780543C7.34446 0.769231 7.36874 0.752262 7.39302 0.729638H7.42944C7.42944 0.729638 7.45372 0.71267 7.50228 0.678733H7.52049C7.52049 0.667421 7.5387 0.661764 7.57511 0.661764C7.58725 0.661764 7.59332 0.650452 7.59332 0.627828C7.59332 0.605204 7.59939 0.593892 7.61153 0.593892L7.64795 0.576923V0.542986C7.68437 0.50905 7.71472 0.492081 7.739 0.492081C7.77542 0.469457 7.80577 0.446833 7.83005 0.424208C7.85432 0.390271 7.89681 0.361991 7.95751 0.339366C7.98179 0.328054 8 0.322398 8.01214 0.322398C8.02428 0.311086 8.04249 0.288462 8.06677 0.254525L8.08498 0.237557C8.08498 0.237557 8.09712 0.2319 8.1214 0.220588C8.16995 0.175339 8.19423 0.147059 8.19423 0.135747H8.1214L8.15781 0.10181C8.18209 0.10181 8.21244 0.0961536 8.24886 0.0848415C8.28528 0.0735295 8.3217 0.0678734 8.35812 0.0678734C8.35812 0.0678734 8.37026 0.0622174 8.39454 0.0509053H8.41275C8.47344 0.0509053 8.50379 0.0339369 8.50379 0H8.54021C8.56449 0.0339369 8.5827 0.0509053 8.59484 0.0509053C8.6434 0.0509053 8.67375 0.0565614 8.68589 0.0678734H8.74052H8.75873V0.135747H8.79514C8.81942 0.135747 8.83763 0.152715 8.84977 0.186651L8.83156 0.220588C8.83156 0.243213 8.83763 0.260181 8.84977 0.271493L8.83156 0.322398C8.83156 0.322398 8.84977 0.339367 8.88619 0.373303L8.92261 0.424208C8.92261 0.43552 8.91654 0.446833 8.9044 0.458145C8.89226 0.458145 8.88619 0.469457 8.88619 0.492081C8.91047 0.492081 8.95903 0.50905 9.03187 0.542986C9.08043 0.542986 9.1047 0.554299 9.1047 0.576923V0.661764C9.14112 0.661764 9.15326 0.678733 9.14112 0.71267C9.15326 0.71267 9.17754 0.718326 9.21396 0.729638H9.23217V0.780543C9.25645 0.780543 9.29287 0.791855 9.34143 0.814479V0.865385C9.36571 0.876697 9.37785 0.893665 9.37785 0.91629C9.38999 0.927602 9.40819 0.938914 9.43247 0.950226V1.00113C9.43247 1.01244 9.43854 1.0181 9.45068 1.0181C9.45068 1.0181 9.45068 1.03507 9.45068 1.069L9.43247 1.10294C9.43247 1.12557 9.43247 1.13688 9.43247 1.13688C9.44461 1.13688 9.45068 1.14253 9.45068 1.15385C9.47496 1.17647 9.48103 1.19344 9.46889 1.20475C9.45675 1.21606 9.46282 1.23303 9.4871 1.25566V1.32353C9.51138 1.32353 9.51745 1.33484 9.50531 1.35747C9.49317 1.36878 9.4871 1.38009 9.4871 1.3914C9.47496 1.3914 9.46889 1.39706 9.46889 1.40837C9.45675 1.41968 9.45068 1.43665 9.45068 1.45928H9.39606C9.43247 1.41403 9.45068 1.3914 9.45068 1.3914V1.32353C9.43854 1.32353 9.43247 1.31222 9.43247 1.28959V1.25566C9.43247 1.23303 9.4264 1.21606 9.41426 1.20475C9.40212 1.19344 9.39606 1.17647 9.39606 1.15385V1.13688C9.39606 1.12557 9.38999 1.11991 9.37785 1.11991C9.35357 1.11991 9.34143 1.11425 9.34143 1.10294H9.30501V1.11991C9.30501 1.13122 9.29287 1.13688 9.26859 1.13688C9.26859 1.14819 9.25645 1.17081 9.23217 1.20475C9.23217 1.18213 9.2261 1.16516 9.21396 1.15385C9.21396 1.14253 9.22003 1.12557 9.23217 1.10294V1.069L9.21396 1.03507V1.0181V1.00113H9.19575C9.18361 1.00113 9.17147 0.995475 9.15933 0.984162C9.15933 0.961538 9.15326 0.94457 9.14112 0.933258C9.14112 0.921946 9.14112 0.904977 9.14112 0.882353C9.09256 0.859729 9.06829 0.831448 9.06829 0.797511C9.06829 0.797511 9.05615 0.791855 9.03187 0.780543L8.95903 0.729638V0.71267H8.99545C9.01973 0.71267 9.03187 0.701357 9.03187 0.678733H8.95903C8.95903 0.667421 8.98331 0.661764 9.03187 0.661764C8.98331 0.616516 8.94689 0.593892 8.92261 0.593892C8.92261 0.593892 8.91047 0.588235 8.88619 0.576923C8.88619 0.554299 8.86798 0.542986 8.83156 0.542986V0.509049C8.80728 0.509049 8.79514 0.509049 8.79514 0.509049C8.79514 0.497737 8.783 0.492081 8.75873 0.492081V0.441177C8.75873 0.373303 8.73445 0.33371 8.68589 0.322398V0.271493C8.64947 0.237557 8.61305 0.220588 8.57663 0.220588C8.50379 0.220588 8.44917 0.209276 8.41275 0.186651H8.35812C8.35812 0.209276 8.33991 0.220588 8.30349 0.220588C8.26707 0.277149 8.21851 0.316742 8.15781 0.339366C8.13354 0.339366 8.1214 0.345022 8.1214 0.356334C8.1214 0.367647 8.10926 0.373303 8.08498 0.373303C8.07284 0.40724 8.04856 0.424208 8.01214 0.424208C8 0.43552 7.98179 0.452489 7.95751 0.475113C7.93323 0.486425 7.89074 0.492081 7.83005 0.492081V0.509049H7.86646C7.89074 0.509049 7.90288 0.520362 7.90288 0.542986H7.83005C7.81791 0.542986 7.80577 0.548643 7.79363 0.559955C7.79363 0.571267 7.77542 0.576923 7.739 0.576923C7.739 0.588235 7.73293 0.593892 7.72079 0.593892C7.69651 0.593892 7.67223 0.616516 7.64795 0.661764C7.62367 0.661764 7.60546 0.667421 7.59332 0.678733C7.59332 0.678733 7.58725 0.678733 7.57511 0.678733V0.71267C7.55083 0.71267 7.52656 0.718326 7.50228 0.729638C7.49014 0.729638 7.47193 0.729638 7.44765 0.729638C7.43551 0.763575 7.4173 0.786199 7.39302 0.797511C7.36874 0.808823 7.34446 0.825792 7.32018 0.848416C7.2959 0.859729 7.26555 0.871041 7.22914 0.882353H7.21093V0.933258C7.21093 0.94457 7.19879 0.950226 7.17451 0.950226C7.16237 0.950226 7.1563 0.961538 7.1563 0.984162C7.11988 0.984162 7.08346 1.00113 7.04704 1.03507C7.01062 1.05769 6.98634 1.08032 6.9742 1.10294C6.9742 1.12557 6.96813 1.14253 6.95599 1.15385C6.95599 1.17647 6.93172 1.21041 6.88316 1.25566V1.28959C6.88316 1.31222 6.87102 1.32353 6.84674 1.32353V1.37443V1.3914V1.40837V1.45928C6.84674 1.47059 6.85281 1.4819 6.86495 1.49321C6.87709 1.50452 6.8953 1.49887 6.91958 1.47624L6.95599 1.51018C6.95599 1.52149 6.94992 1.53281 6.93778 1.54412C6.92565 1.54412 6.91958 1.55543 6.91958 1.57805C6.91958 1.58937 6.91351 1.60068 6.90137 1.61199C6.88923 1.6233 6.88316 1.64027 6.88316 1.6629C6.82246 1.69683 6.79211 1.72511 6.79211 1.74774V1.78167C6.76783 1.8043 6.74962 1.82127 6.73748 1.83258C6.72534 1.84389 6.70713 1.87217 6.68285 1.91742C6.68285 1.92873 6.67678 1.93439 6.66464 1.93439C6.66464 1.93439 6.67071 1.9457 6.68285 1.96833C6.67071 1.96833 6.66464 1.97964 6.66464 2.00226C6.66464 2.02489 6.65857 2.0362 6.64643 2.0362C6.63429 2.0362 6.62822 2.04186 6.62822 2.05317C6.56753 2.05317 6.53718 2.08145 6.53718 2.13801C6.53718 2.16063 6.53111 2.17195 6.51897 2.17195C6.50683 2.17195 6.50076 2.18326 6.50076 2.20588C6.47648 2.21719 6.46434 2.24547 6.46434 2.29072V2.30769H6.50076C6.50076 2.34163 6.50683 2.3586 6.51897 2.3586H6.53718C6.53718 2.39253 6.52504 2.42081 6.50076 2.44344C6.50076 2.48869 6.46434 2.52828 6.3915 2.56222C6.3915 2.56222 6.37329 2.58484 6.33687 2.63009C6.30046 2.6414 6.28225 2.66968 6.28225 2.71493V2.7319C6.25797 2.75452 6.24583 2.77715 6.24583 2.79977C6.22155 2.79977 6.20334 2.80543 6.1912 2.81674C6.1912 2.82805 6.18513 2.83371 6.17299 2.83371C6.14871 2.84502 6.1305 2.85068 6.11836 2.85068C6.10622 2.85068 6.08801 2.86199 6.06373 2.88462C6.06373 2.90724 6.05766 2.92986 6.04552 2.95249C6.03338 2.9638 6.02731 2.98077 6.02731 3.00339C6.02731 3.03733 6.02124 3.07127 6.0091 3.1052C5.99697 3.12783 5.98483 3.15045 5.97269 3.17308C5.96055 3.17308 5.94841 3.17873 5.93627 3.19005H5.91806C5.91806 3.21267 5.91199 3.22964 5.89985 3.24095C5.89985 3.24095 5.89985 3.24661 5.89985 3.25792C5.89985 3.25792 5.90592 3.26357 5.91806 3.27489C5.91806 3.32014 5.89985 3.34276 5.86343 3.34276V3.39366C5.86343 3.4276 5.85129 3.45023 5.82701 3.46154C5.80273 3.46154 5.78452 3.46719 5.77238 3.47851V3.52941C5.73596 3.54072 5.71168 3.55769 5.69955 3.58032C5.69955 3.59163 5.69348 3.60294 5.68134 3.61425C5.68134 3.64819 5.65099 3.67647 5.59029 3.69909V3.75C5.59029 3.77262 5.57815 3.78394 5.55387 3.78394C5.52959 3.78394 5.51745 3.78959 5.51745 3.8009C5.51745 3.81222 5.51138 3.82353 5.49924 3.83484C5.45068 3.88009 5.40212 3.90271 5.35357 3.90271C5.34143 3.91403 5.32322 3.92534 5.29894 3.93665C5.27466 3.93665 5.25038 3.94796 5.2261 3.97059C5.21396 3.9819 5.19575 3.99321 5.17147 4.00452C5.14719 4.00452 5.13505 4.01584 5.13505 4.03846V4.05543L5.11684 4.08937V4.1233V4.14027C5.11684 4.17421 5.09863 4.19118 5.06222 4.19118V4.24208C5.03794 4.26471 5.0258 4.29864 5.0258 4.34389V4.42873C4.98938 4.42873 4.97117 4.45136 4.97117 4.49661L4.95296 4.51357C4.92868 4.51357 4.91654 4.54185 4.91654 4.59842C4.89226 4.62104 4.88012 4.65498 4.88012 4.70023C4.85584 4.70023 4.8437 4.70588 4.8437 4.71719C4.8437 4.71719 4.85584 4.71719 4.88012 4.71719C4.88012 4.76244 4.89226 4.78507 4.91654 4.78507V4.80204C4.94082 4.83597 4.95903 4.8586 4.97117 4.86991V4.90385C4.97117 4.93778 4.9651 4.95475 4.95296 4.95475V5.02262C4.92868 5.02262 4.91654 5.02828 4.91654 5.03959C4.91654 5.0509 4.9044 5.05656 4.88012 5.05656V5.07353V5.10747C4.88012 5.11878 4.89226 5.12443 4.91654 5.12443C4.89226 5.13575 4.86191 5.14706 4.82549 5.15837V5.19231C4.82549 5.20362 4.81335 5.20928 4.78907 5.20928L4.77087 5.22624C4.75873 5.23756 4.75266 5.24887 4.75266 5.26018C4.80121 5.28281 4.81335 5.29977 4.78907 5.31109C4.84977 5.33371 4.88012 5.3733 4.88012 5.42986V5.4638C4.9044 5.4638 4.91654 5.48077 4.91654 5.51471V5.54864C4.91654 5.57127 4.91047 5.58823 4.89833 5.59955C4.88619 5.59955 4.88012 5.61652 4.88012 5.65045H4.8437C4.83156 5.65045 4.82549 5.66176 4.82549 5.68439C4.84977 5.68439 4.86191 5.69005 4.86191 5.70136C4.86191 5.70136 4.84977 5.70136 4.82549 5.70136C4.82549 5.72398 4.81942 5.74095 4.80728 5.75226C4.79514 5.75226 4.78907 5.75792 4.78907 5.76923V5.8371L4.75266 5.85407C4.74052 5.88801 4.71624 5.91063 4.67982 5.92195L4.66161 5.95588H4.62519C4.60091 5.95588 4.58877 5.96719 4.58877 5.98982L4.57056 6.00679C4.54628 6.02941 4.522 6.04638 4.49772 6.05769C4.48558 6.069 4.46738 6.08597 4.4431 6.1086C4.41882 6.1086 4.40668 6.11991 4.40668 6.14253C4.40668 6.16516 4.41275 6.18213 4.42489 6.19344C4.42489 6.20475 4.43096 6.21041 4.4431 6.21041V6.27828C4.4431 6.28959 4.44917 6.28959 4.4613 6.27828C4.4613 6.28959 4.46737 6.3009 4.47951 6.31222C4.49165 6.31222 4.48558 6.32353 4.4613 6.34615C4.4613 6.35747 4.45524 6.36312 4.4431 6.36312C4.4431 6.35181 4.4431 6.35181 4.4431 6.36312V6.38009C4.4431 6.40271 4.44917 6.42534 4.4613 6.44796H4.4431L4.4613 6.4819V6.54977L4.49772 6.56674V6.63461C4.49772 6.64593 4.50986 6.65158 4.53414 6.65158C4.53414 6.6629 4.54021 6.67421 4.55235 6.68552C4.56449 6.69683 4.57663 6.70249 4.58877 6.70249V6.71946H4.57056V6.75339C4.522 6.75339 4.49772 6.74208 4.49772 6.71946C4.47344 6.70814 4.4613 6.69683 4.4613 6.68552C4.4613 6.6629 4.45524 6.64593 4.4431 6.63461V6.58371L4.42489 6.60068H4.40668V6.58371C4.40668 6.5724 4.38847 6.56674 4.35205 6.56674C4.35205 6.57805 4.33991 6.58937 4.31563 6.60068C4.30349 6.60068 4.29135 6.61199 4.27921 6.63461C4.24279 6.63461 4.2003 6.65724 4.15175 6.70249C4.12747 6.70249 4.09712 6.70814 4.0607 6.71946C4.03642 6.71946 4.01821 6.73077 4.00607 6.75339C3.98179 6.76471 3.95751 6.78167 3.93323 6.8043H3.89681C3.88467 6.8043 3.87253 6.80995 3.86039 6.82127C3.86039 6.83258 3.84826 6.83824 3.82398 6.83824C3.81184 6.84955 3.80577 6.86086 3.80577 6.87217C3.80577 6.88348 3.7997 6.88914 3.78756 6.88914C3.76328 6.88914 3.74507 6.8948 3.73293 6.90611C3.72079 6.91742 3.70258 6.92308 3.6783 6.92308L3.64188 6.94004C3.6176 6.97398 3.57511 6.99661 3.51442 7.00792H3.44158V7.02489C3.44158 7.05882 3.43551 7.08145 3.42337 7.09276C3.42337 7.09276 3.42337 7.09842 3.42337 7.10973C3.39909 7.10973 3.38088 7.12104 3.36874 7.14366C3.36874 7.15498 3.3566 7.16063 3.33232 7.16063V7.1776V7.19457C3.30804 7.19457 3.28983 7.20588 3.27769 7.22851C3.26555 7.23982 3.24734 7.24547 3.22307 7.24547C3.22307 7.25679 3.217 7.26244 3.20486 7.26244C3.18058 7.26244 3.1563 7.2681 3.13202 7.27941C3.11988 7.29072 3.0956 7.29638 3.05918 7.29638C3.04704 7.319 3.02276 7.33597 2.98634 7.34729C2.96206 7.3586 2.94385 7.36425 2.93171 7.36425C2.8953 7.36425 2.85888 7.38122 2.82246 7.41516C2.82246 7.43778 2.81639 7.45475 2.80425 7.46606C2.79211 7.47738 2.78604 7.49434 2.78604 7.51697L2.74962 7.53394V7.56787C2.73748 7.56787 2.72534 7.57353 2.7132 7.58484C2.7132 7.59615 2.70106 7.60181 2.67678 7.60181C2.67678 7.63575 2.67071 7.65271 2.65857 7.65271C2.61002 7.67534 2.58574 7.69231 2.58574 7.70362C2.5736 7.71493 2.5736 7.72059 2.58574 7.72059C2.58574 7.7319 2.57967 7.74321 2.56753 7.75452C2.56753 7.75452 2.56753 7.76584 2.56753 7.78846C2.55539 7.79977 2.54932 7.81109 2.54932 7.8224C2.5129 7.8224 2.48862 7.83937 2.47648 7.8733C2.48862 7.8733 2.49469 7.87896 2.49469 7.89027H2.54932L2.49469 7.95814C2.53111 7.95814 2.54932 7.96946 2.54932 7.99208V8.00905C2.54932 8.02036 2.55539 8.03167 2.56753 8.04299V8.02602C2.56753 8.02602 2.5736 8.03167 2.58574 8.04299H2.65857V7.99208H2.67678V8.04299C2.67678 8.0543 2.69499 8.05995 2.73141 8.05995H2.74962L2.78604 8.09389V8.1448C2.79818 8.1448 2.81639 8.15611 2.84067 8.17873C2.84067 8.19004 2.84674 8.20136 2.85888 8.21267V8.26357C2.85888 8.27489 2.86495 8.28054 2.87709 8.28054H2.93171H2.87709C2.87709 8.31448 2.88316 8.33145 2.8953 8.33145H2.93171H2.87709C2.91351 8.34276 2.93171 8.35973 2.93171 8.38235C2.93171 8.39366 2.93171 8.40498 2.93171 8.41629C2.93171 8.4276 2.93778 8.43326 2.94992 8.43326H2.93171V8.48416H2.8953C2.88316 8.48416 2.87709 8.48982 2.87709 8.50113H2.93171V8.53507H2.94992H2.93171V8.569C2.94385 8.569 2.96206 8.569 2.98634 8.569C3.02276 8.569 3.04097 8.58032 3.04097 8.60294H3.05918V8.569C3.05918 8.59163 3.06525 8.60294 3.07739 8.60294H3.11381C3.11381 8.61425 3.11381 8.61991 3.11381 8.61991C3.12595 8.61991 3.13202 8.61425 3.13202 8.60294H3.16844C3.18058 8.61425 3.19272 8.61425 3.20486 8.60294C3.20486 8.61425 3.20486 8.61991 3.20486 8.61991C3.217 8.61991 3.22307 8.62557 3.22307 8.63688H3.25948H3.2959C3.33232 8.68213 3.38088 8.70475 3.44158 8.70475C3.478 8.76131 3.50228 8.78394 3.51442 8.77262C3.51442 8.78394 3.52656 8.78959 3.55083 8.78959H3.58725V8.8405H3.64188C3.64188 8.85181 3.64795 8.86312 3.66009 8.87443C3.67223 8.88575 3.6783 8.90271 3.6783 8.92534H3.71472H3.73293H3.75114C3.76328 8.92534 3.77542 8.931 3.78756 8.94231H3.80577C3.79363 8.96493 3.79363 8.97624 3.80577 8.97624C3.80577 8.97624 3.81184 8.9819 3.82398 8.99321C3.83612 9.00452 3.84826 9.01018 3.86039 9.01018C3.87253 9.02149 3.88467 9.02715 3.89681 9.02715V8.99321C3.92109 9.01584 3.9393 9.02715 3.95144 9.02715C3.96358 9.02715 3.96965 9.03846 3.96965 9.06109H4.00607C4.00607 9.0724 4.01214 9.07805 4.02428 9.07805H4.0607H4.11533C4.11533 9.10068 4.1214 9.11765 4.13354 9.12896C4.13354 9.14027 4.13961 9.14593 4.15175 9.14593C4.18816 9.14593 4.20637 9.15724 4.20637 9.17986V9.19683C4.23065 9.19683 4.23672 9.20249 4.22458 9.2138C4.21244 9.2138 4.21851 9.2138 4.24279 9.2138V9.23077H4.27921H4.35205L4.29742 9.28167C4.33384 9.28167 4.35205 9.26471 4.35205 9.23077H4.37026V9.2138L4.40668 9.19683C4.43096 9.1629 4.44917 9.14027 4.4613 9.12896C4.4613 9.10633 4.46737 9.09502 4.47951 9.09502C4.49165 9.08371 4.49772 9.0724 4.49772 9.06109H4.53414L4.49772 9.02715V8.99321C4.522 8.9819 4.53414 8.95928 4.53414 8.92534C4.55842 8.92534 4.57056 8.90837 4.57056 8.87443H4.58877H4.60698L4.58877 8.85747V8.8405C4.63733 8.80656 4.63126 8.78394 4.57056 8.77262H4.58877L4.57056 8.70475V8.63688V8.60294C4.57056 8.569 4.55842 8.54072 4.53414 8.5181C4.50986 8.49548 4.49772 8.46719 4.49772 8.43326L4.4613 8.41629C4.44917 8.41629 4.43096 8.41063 4.40668 8.39932V8.38235C4.40668 8.35973 4.41882 8.34842 4.4431 8.34842L4.40668 8.33145C4.43096 8.33145 4.4431 8.32579 4.4431 8.31448C4.45524 8.29185 4.45524 8.28054 4.4431 8.28054V8.26357V8.22964C4.45524 8.22964 4.45524 8.22398 4.4431 8.21267V8.1448H4.40668L4.37026 8.09389C4.37026 8.07127 4.37633 8.05995 4.38847 8.05995H4.40668C4.40668 8.04864 4.41275 8.04299 4.42489 8.04299C4.43703 8.03167 4.44917 8.01471 4.4613 7.99208V7.97511C4.48558 7.97511 4.49772 7.97511 4.49772 7.97511C4.49772 7.9638 4.50986 7.95814 4.53414 7.95814C4.55842 7.95814 4.57663 7.9638 4.58877 7.97511H4.57056V7.99208L4.58877 8.04299V8.05995C4.57663 8.07127 4.57056 8.08823 4.57056 8.11086V8.1448L4.58877 8.16176V8.17873C4.62519 8.17873 4.64947 8.17308 4.66161 8.16176C4.67375 8.15045 4.67982 8.15611 4.67982 8.17873H4.73445V8.1448C4.73445 8.12217 4.73445 8.11652 4.73445 8.12783C4.73445 8.12783 4.74052 8.11652 4.75266 8.09389C4.75266 8.12783 4.74659 8.1448 4.73445 8.1448C4.74659 8.1448 4.75266 8.12783 4.75266 8.09389C4.77693 8.12783 4.80121 8.12783 4.82549 8.09389V8.1448L4.88012 8.09389H4.91654C4.91654 8.07127 4.9044 8.05995 4.88012 8.05995L4.91654 8.04299H4.95296C4.9651 8.04299 4.97117 8.03733 4.97117 8.02602C4.97117 8.01471 4.97117 8.02036 4.97117 8.04299V8.02602C4.97117 8.00339 4.98938 7.99208 5.0258 7.99208V7.97511C5.0258 7.9638 5.00759 7.95814 4.97117 7.95814C4.99545 7.95814 5.00759 7.94683 5.00759 7.92421C5.01973 7.90158 5.03187 7.89027 5.04401 7.89027H5.0258C5.0258 7.87896 5.03187 7.8733 5.04401 7.8733C5.03187 7.8733 5.0258 7.85068 5.0258 7.80543C4.98938 7.80543 4.97117 7.79412 4.97117 7.77149V7.73756C4.95903 7.72624 4.94082 7.72059 4.91654 7.72059H4.78907C4.78907 7.69796 4.79514 7.681 4.80728 7.66968C4.81942 7.65837 4.81335 7.65271 4.78907 7.65271C4.81335 7.63009 4.82549 7.61312 4.82549 7.60181H4.8437C4.86798 7.60181 4.88012 7.5905 4.88012 7.56787V7.53394C4.88012 7.48869 4.89226 7.46041 4.91654 7.44909V7.43213C4.91654 7.43213 4.92868 7.42647 4.95296 7.41516V7.36425C4.92868 7.36425 4.92261 7.36425 4.93475 7.36425C4.94689 7.36425 4.95296 7.35294 4.95296 7.33032H4.97117C4.97117 7.30769 4.97724 7.29638 4.98938 7.29638C5.00152 7.29638 4.99545 7.29638 4.97117 7.29638V7.24547V7.1776V7.09276C4.97117 7.05882 4.97724 7.04186 4.98938 7.04186C5.01366 7.03054 5.0258 7.01923 5.0258 7.00792C4.97724 6.99661 4.95296 6.96833 4.95296 6.92308H4.97117V6.83824C5.00759 6.83824 5.0258 6.83258 5.0258 6.82127V6.8043C5.0258 6.8043 5.01366 6.79299 4.98938 6.77036C4.97724 6.77036 4.97117 6.76471 4.97117 6.75339C5.03187 6.75339 5.08043 6.74208 5.11684 6.71946C5.11684 6.74208 5.11684 6.75905 5.11684 6.77036C5.12898 6.77036 5.12898 6.78167 5.11684 6.8043V6.88914V6.92308V6.99095V7.00792C5.09256 7.00792 5.08649 7.00792 5.09863 7.00792C5.11077 7.00792 5.11684 7.01357 5.11684 7.02489V7.09276C5.11684 7.10407 5.1047 7.12104 5.08043 7.14366C5.06829 7.15498 5.06222 7.16629 5.06222 7.1776C5.08649 7.18891 5.09256 7.20588 5.08043 7.22851C5.06829 7.25113 5.06222 7.27376 5.06222 7.29638C5.06222 7.319 5.05615 7.33597 5.04401 7.34729C5.04401 7.3586 5.04401 7.36991 5.04401 7.38122C5.03187 7.42647 5.0258 7.47172 5.0258 7.51697C5.0258 7.52828 5.03187 7.53394 5.04401 7.53394V7.65271V7.66968V7.72059V7.73756C5.04401 7.73756 5.05008 7.74887 5.06222 7.77149V7.78846C5.06222 7.79977 5.08043 7.80543 5.11684 7.80543V7.8733C5.08043 7.8733 5.06222 7.90158 5.06222 7.95814L5.04401 7.97511V8.04299L5.0258 8.05995C5.05008 8.1052 5.06222 8.1448 5.06222 8.17873H5.04401V8.21267C5.03187 8.22398 5.01973 8.23529 5.00759 8.24661C5.00759 8.25792 4.99545 8.26357 4.97117 8.26357C4.97117 8.27489 4.9651 8.28054 4.95296 8.28054C4.92868 8.28054 4.91654 8.27489 4.91654 8.26357C4.89226 8.26357 4.88012 8.25226 4.88012 8.22964C4.85584 8.22964 4.83763 8.23529 4.82549 8.24661C4.82549 8.25792 4.81335 8.26923 4.78907 8.28054V8.33145H4.75266H4.73445V8.34842H4.69803C4.68589 8.34842 4.67982 8.36538 4.67982 8.39932C4.67982 8.39932 4.67982 8.40498 4.67982 8.41629C4.67982 8.41629 4.67375 8.42195 4.66161 8.43326H4.67982V8.50113C4.71624 8.52376 4.73445 8.55769 4.73445 8.60294V8.68778C4.71017 8.69909 4.7041 8.72172 4.71624 8.75566C4.72838 8.78959 4.73445 8.81787 4.73445 8.8405L4.67982 8.85747V8.87443C4.67982 8.88575 4.67375 8.89706 4.66161 8.90837C4.66161 8.90837 4.66161 8.91403 4.66161 8.92534V8.94231C4.61305 8.96493 4.58877 9.00452 4.58877 9.06109C4.57663 9.0724 4.57056 9.08937 4.57056 9.11199C4.57056 9.1233 4.55842 9.12896 4.53414 9.12896C4.50986 9.14027 4.49772 9.15724 4.49772 9.17986C4.49772 9.19118 4.48558 9.20249 4.4613 9.2138C4.4613 9.2138 4.45524 9.21946 4.4431 9.23077V9.28167V9.29864L4.4613 9.33258V9.29864H4.47951C4.47951 9.29864 4.48558 9.30995 4.49772 9.33258H4.4613H4.49772C4.49772 9.37783 4.522 9.40045 4.57056 9.40045C4.5827 9.42308 4.60091 9.43439 4.62519 9.43439C4.64947 9.43439 4.66768 9.4457 4.67982 9.46833C4.7041 9.47964 4.72231 9.49095 4.73445 9.50226C4.74659 9.51357 4.7648 9.51923 4.78907 9.51923C4.78907 9.56448 4.83156 9.60407 4.91654 9.63801C4.94082 9.66063 4.95903 9.67195 4.97117 9.67195C4.97117 9.68326 4.97724 9.68891 4.98938 9.68891H5.0258C5.03794 9.71154 5.04401 9.73416 5.04401 9.75679H5.0258C5.03794 9.7681 5.05008 9.79072 5.06222 9.82466H5.11684H5.13505C5.13505 9.83597 5.14719 9.84728 5.17147 9.8586C5.19575 9.86991 5.21396 9.88688 5.2261 9.9095V9.89253C5.2261 9.86991 5.23824 9.8586 5.26252 9.8586H5.33536H5.35357V9.84163L5.4264 9.8586C5.4264 9.84728 5.43247 9.84163 5.44461 9.84163C5.46889 9.83032 5.48103 9.83032 5.48103 9.84163C5.49317 9.84163 5.50531 9.84163 5.51745 9.84163H5.53566L5.55387 9.8586H5.59029H5.64492H5.77238C5.77238 9.8586 5.77845 9.85294 5.79059 9.84163C5.79059 9.85294 5.79666 9.86425 5.8088 9.87557C5.83308 9.88688 5.86343 9.88122 5.89985 9.8586H5.91806H5.93627H5.97269H6.02731H6.04552V9.87557C6.04552 9.88688 6.05159 9.89819 6.06373 9.9095H6.10015C6.10015 9.9095 6.11229 9.91516 6.13657 9.92647H6.17299C6.22155 9.92647 6.24583 9.92647 6.24583 9.92647H6.28225V9.96041C6.31866 9.96041 6.34901 9.97172 6.37329 9.99434L6.3915 10.0113V10.0283H6.44613C6.44613 10.0283 6.46434 10.0452 6.50076 10.0792V10.1131H6.5736C6.63429 10.1131 6.67071 10.1357 6.68285 10.181V10.198H6.75569C6.75569 10.2206 6.76176 10.2319 6.7739 10.2319C6.78604 10.2319 6.79211 10.2432 6.79211 10.2658L6.84674 10.2828H6.79211L6.84674 10.3167C6.87102 10.3394 6.8953 10.3394 6.91958 10.3167V10.3846V10.3507C6.94385 10.3507 6.95599 10.362 6.95599 10.3846H7.01062H7.04704V10.4016C7.04704 10.4129 7.05311 10.4242 7.06525 10.4355C7.12595 10.4355 7.1563 10.4525 7.1563 10.4864L7.21093 10.4695C7.21093 10.4808 7.22914 10.4921 7.26555 10.5034C7.28983 10.5034 7.30804 10.5147 7.32018 10.5373C7.34446 10.5486 7.36874 10.5543 7.39302 10.5543C7.4173 10.5656 7.42944 10.5713 7.42944 10.5713C7.42944 10.56 7.43551 10.5543 7.44765 10.5543C7.48407 10.5543 7.50835 10.5373 7.52049 10.5034C7.52049 10.5373 7.5387 10.56 7.57511 10.5713V10.5543H7.59332C7.59332 10.5656 7.61153 10.5713 7.64795 10.5713C7.67223 10.6165 7.69651 10.6391 7.72079 10.6391C7.73293 10.6391 7.739 10.6391 7.739 10.6391L7.81184 10.6561H7.83005H7.90288V10.707C7.90288 10.707 7.91502 10.7014 7.9393 10.69H7.95751V10.707C7.99393 10.7296 8.04856 10.7409 8.1214 10.7409C8.1214 10.7409 8.13354 10.7353 8.15781 10.724C8.18209 10.7353 8.19423 10.7523 8.19423 10.7749C8.20637 10.7862 8.22458 10.7919 8.24886 10.7919H8.28528C8.28528 10.7919 8.29135 10.7975 8.30349 10.8088L8.35812 10.8428C8.37026 10.8428 8.38847 10.8541 8.41275 10.8767L8.46738 10.8937C8.46738 10.905 8.49165 10.888 8.54021 10.8428H8.55842C8.55842 10.8428 8.55235 10.8314 8.54021 10.8088H8.59484H8.63126C8.6434 10.8088 8.64947 10.8088 8.64947 10.8088C8.66161 10.7975 8.67375 10.7919 8.68589 10.7919V10.8088H8.74052V10.8767C8.74052 10.888 8.75873 10.8937 8.79514 10.8937C8.79514 10.9163 8.80728 10.9276 8.83156 10.9276V10.9446C8.83156 10.9559 8.83156 10.9672 8.83156 10.9785C8.8437 10.9785 8.84977 10.9842 8.84977 10.9955V11.0124C8.87405 11.0124 8.89226 11.0238 8.9044 11.0464C8.91654 11.069 8.93475 11.0747 8.95903 11.0633V11.0803C9.00759 11.0803 9.03187 11.086 9.03187 11.0973H9.05008V11.1143C9.05008 11.1256 9.05615 11.1369 9.06829 11.1482H9.05008C9.03794 11.1482 9.03187 11.1538 9.03187 11.1652H9.06829V11.1821C9.06829 11.1934 9.08043 11.1991 9.1047 11.1991C9.1047 11.2217 9.11077 11.2387 9.12291 11.25C9.13505 11.25 9.14719 11.2613 9.15933 11.2839H9.14112V11.3348C9.14112 11.3348 9.15326 11.3405 9.17754 11.3518C9.18968 11.3631 9.20182 11.3688 9.21396 11.3688H9.15933L9.21396 11.3857C9.25038 11.3857 9.28073 11.4027 9.30501 11.4367V11.4536C9.32929 11.4423 9.34143 11.4423 9.34143 11.4536C9.35357 11.4536 9.37178 11.4536 9.39606 11.4536H9.34143L9.39606 11.5045C9.42033 11.5045 9.43854 11.5102 9.45068 11.5215C9.45068 11.5328 9.45675 11.5385 9.46889 11.5385H9.4871L9.52352 11.5894V11.5385C9.55994 11.5385 9.57815 11.5498 9.57815 11.5724V11.5894C9.60243 11.5667 9.61457 11.5611 9.61457 11.5724C9.61457 11.5837 9.62064 11.5894 9.63278 11.5894H9.68741L9.63278 11.6063C9.6692 11.629 9.69348 11.629 9.70562 11.6063C9.72989 11.629 9.73596 11.6403 9.72382 11.6403C9.71169 11.6403 9.71775 11.6403 9.74203 11.6403L9.77845 11.6572H9.79666H9.83308C9.83308 11.6912 9.83915 11.7081 9.85129 11.7081H9.88771H9.96055C9.97269 11.7195 9.9909 11.7251 10.0152 11.7251C9.9909 11.7138 9.9909 11.7081 10.0152 11.7081V11.6912C10.0152 11.6912 10.0212 11.6799 10.0334 11.6572L10.0152 11.6403V11.6063H10.0334V11.6403L10.1244 11.6063H10.0516C10.0395 11.6063 10.0334 11.6007 10.0334 11.5894H10.1244V11.5385H10.0334C10.0212 11.5385 10.0152 11.5328 10.0152 11.5215C9.9909 11.5215 9.97269 11.5158 9.96055 11.5045V11.4536V11.3857C9.98483 11.3631 9.98483 11.3348 9.96055 11.3009C9.96055 11.2896 9.94841 11.2783 9.92413 11.267C9.91199 11.2443 9.90592 11.2217 9.90592 11.1991V11.1821C9.90592 11.1821 9.90592 11.1765 9.90592 11.1652C9.90592 11.1538 9.89985 11.1482 9.88771 11.1482V11.0973C9.89985 11.0973 9.90592 11.0916 9.90592 11.0803H9.96055V11.0633C9.91199 11.0181 9.88771 10.9955 9.88771 10.9955H9.85129C9.83915 10.9955 9.83308 10.9785 9.83308 10.9446C9.83308 10.9446 9.82701 10.9389 9.81487 10.9276H9.79666C9.78452 10.9276 9.77845 10.9163 9.77845 10.8937H9.76024C9.7481 10.8937 9.74203 10.888 9.74203 10.8767C9.71775 10.8767 9.70562 10.8654 9.70562 10.8428C9.68134 10.7862 9.63885 10.7466 9.57815 10.724C9.54173 10.724 9.52352 10.7183 9.52352 10.707H9.4871C9.46282 10.707 9.43854 10.7014 9.41426 10.69C9.38999 10.6674 9.36571 10.6561 9.34143 10.6561C9.29287 10.6561 9.25645 10.6505 9.23217 10.6391H9.21396C9.20182 10.6505 9.18968 10.6505 9.17754 10.6391C9.1654 10.6391 9.15933 10.6165 9.15933 10.5713H9.14112C9.11684 10.6052 9.1047 10.6165 9.1047 10.6052C9.1047 10.5826 9.09256 10.5713 9.06829 10.5713H9.03187C8.99545 10.56 8.98331 10.5486 8.99545 10.5373C9.00759 10.5147 8.98331 10.5034 8.92261 10.5034C8.89833 10.5034 8.88619 10.4977 8.88619 10.4864C8.88619 10.4751 8.87405 10.4751 8.84977 10.4864V10.4355H8.83156C8.79514 10.379 8.74659 10.3507 8.68589 10.3507H8.66768V10.3167H8.59484C8.5827 10.2941 8.57663 10.2885 8.57663 10.2998C8.57663 10.3111 8.56449 10.3054 8.54021 10.2828C8.54021 10.2715 8.51593 10.2658 8.46738 10.2658C8.49165 10.2658 8.50379 10.2602 8.50379 10.2489V10.2319C8.50379 10.2206 8.49772 10.2093 8.48558 10.198H8.46738V10.181H8.50379C8.50379 10.1357 8.51593 10.1131 8.54021 10.1131V10.0792C8.55235 10.0679 8.55842 10.0566 8.55842 10.0452H8.54021V10.0283V9.96041C8.51593 9.96041 8.49772 9.95475 8.48558 9.94344C8.47344 9.94344 8.46738 9.93778 8.46738 9.92647C8.46738 9.91516 8.45524 9.9095 8.43096 9.9095C8.41882 9.89819 8.41275 9.88122 8.41275 9.8586H8.39454L8.41275 9.84163C8.41275 9.84163 8.40061 9.83597 8.37633 9.82466H8.35812C8.35812 9.79072 8.33991 9.77376 8.30349 9.77376C8.30349 9.76244 8.29742 9.76244 8.28528 9.77376C8.28528 9.77376 8.28528 9.7681 8.28528 9.75679V9.72285C8.28528 9.70023 8.27314 9.68326 8.24886 9.67195C8.22458 9.67195 8.21244 9.66629 8.21244 9.65498C8.21244 9.64366 8.20637 9.63801 8.19423 9.63801H8.15781V9.60407L8.1214 9.63801L8.08498 9.60407C8.08498 9.61538 8.07891 9.62104 8.06677 9.62104V9.60407H7.99393H7.95751V9.55317C7.92109 9.5871 7.89074 9.60407 7.86646 9.60407H7.83005L7.81184 9.55317H7.739C7.739 9.53054 7.73293 9.51923 7.72079 9.51923C7.72079 9.51923 7.72079 9.50792 7.72079 9.48529C7.69651 9.48529 7.68437 9.48529 7.68437 9.48529C7.68437 9.47398 7.67223 9.46833 7.64795 9.46833C7.62367 9.4457 7.60546 9.43439 7.59332 9.43439C7.59332 9.41176 7.58725 9.38914 7.57511 9.36652C7.56297 9.34389 7.54476 9.33258 7.52049 9.33258L7.50228 9.29864C7.46586 9.29864 7.44158 9.29299 7.42944 9.28167C7.4173 9.27036 7.38695 9.25339 7.33839 9.23077H7.32018C7.30804 9.23077 7.2959 9.23077 7.28376 9.23077C7.28376 9.21946 7.27769 9.2138 7.26555 9.2138C7.26555 9.16855 7.25341 9.14593 7.22914 9.14593C7.217 9.13462 7.21093 9.11199 7.21093 9.07805C7.16237 9.06674 7.13809 9.04977 7.13809 9.02715L7.06525 8.99321V8.97624H7.01062H6.99241C6.98027 8.97624 6.9742 8.96493 6.9742 8.94231C6.9742 8.931 6.96813 8.92534 6.95599 8.92534C6.95599 8.91403 6.95599 8.89706 6.95599 8.87443C6.99241 8.87443 7.01062 8.8914 7.01062 8.92534H7.04704C7.05918 8.92534 7.08953 8.931 7.13809 8.94231L7.1563 8.92534C7.1563 8.93665 7.16237 8.94796 7.17451 8.95928C7.18665 8.97059 7.19879 8.97624 7.21093 8.97624C7.22307 8.98756 7.22914 8.99887 7.22914 9.01018C7.22914 9.02149 7.24127 9.03846 7.26555 9.06109L7.30197 9.07805C7.32625 9.11199 7.36874 9.12896 7.42944 9.12896V9.14593C7.42944 9.17986 7.45372 9.20249 7.50228 9.2138H7.57511V9.23077H7.61153H7.59332C7.59332 9.26471 7.60546 9.28167 7.62974 9.28167H7.64795C7.67223 9.29299 7.69651 9.29864 7.72079 9.29864C7.72079 9.29864 7.72686 9.29864 7.739 9.29864V9.33258L7.81184 9.29864C7.82398 9.32127 7.84219 9.33823 7.86646 9.34955C7.90288 9.34955 7.93323 9.36652 7.95751 9.40045L7.99393 9.43439C7.99393 9.45701 8 9.46833 8.01214 9.46833H8.03035C8.03035 9.46833 8.04249 9.46833 8.06677 9.46833L8.08498 9.48529H8.15781C8.19423 9.50792 8.24279 9.54751 8.30349 9.60407V9.63801C8.35205 9.67195 8.37633 9.68891 8.37633 9.68891C8.40061 9.68891 8.41882 9.69457 8.43096 9.70588C8.45524 9.71719 8.47951 9.72285 8.50379 9.72285H8.46738C8.49165 9.74547 8.50379 9.76244 8.50379 9.77376C8.51593 9.77376 8.54021 9.7681 8.57663 9.75679L8.54021 9.77376V9.80769C8.54021 9.819 8.55235 9.82466 8.57663 9.82466L8.59484 9.84163H8.63126C8.6434 9.84163 8.65554 9.84728 8.66768 9.8586C8.71624 9.8586 8.74052 9.87556 8.74052 9.9095C8.74052 9.89819 8.74659 9.89253 8.75873 9.89253V9.9095C8.79514 9.9095 8.82549 9.92647 8.84977 9.96041V9.9095L8.88619 9.92647C8.88619 9.9491 8.89833 9.96041 8.92261 9.96041L8.95903 9.92647C8.93475 9.9491 8.92868 9.96041 8.94082 9.96041C8.95296 9.96041 8.95903 9.97172 8.95903 9.99434L8.94082 9.97738C8.92868 9.97738 8.92261 9.98303 8.92261 9.99434C8.94689 10.017 8.98331 10.0283 9.03187 10.0283C9.03187 10.0396 9.05615 10.0452 9.1047 10.0452V10.0622C9.1047 10.0735 9.11684 10.0792 9.14112 10.0792C9.15326 10.0792 9.15933 10.0905 9.15933 10.1131C9.14719 10.1131 9.14112 10.1075 9.14112 10.0962V10.0792V10.1131C9.15326 10.1131 9.15933 10.1188 9.15933 10.1301C9.17147 10.1301 9.19575 10.1301 9.23217 10.1301H9.25038V10.1471C9.25038 10.1584 9.24431 10.1697 9.23217 10.181C9.23217 10.1923 9.23824 10.198 9.25038 10.198C9.26252 10.198 9.26859 10.2093 9.26859 10.2319L9.30501 10.2658H9.26859H9.34143C9.34143 10.2545 9.3475 10.2489 9.35964 10.2489C9.38392 10.2489 9.39606 10.2545 9.39606 10.2658H9.43247C9.44461 10.2658 9.46282 10.2715 9.4871 10.2828H9.52352C9.55994 10.2828 9.55994 10.2941 9.52352 10.3167C9.5478 10.3167 9.56601 10.3224 9.57815 10.3337C9.60243 10.345 9.62064 10.3507 9.63278 10.3507C9.6085 10.3959 9.6085 10.4355 9.63278 10.4695H9.68741V10.4864H9.70562V10.5543C9.70562 10.5769 9.71169 10.5939 9.72382 10.6052C9.72382 10.6165 9.72989 10.6278 9.74203 10.6391C9.75417 10.6391 9.76631 10.6448 9.77845 10.6561V10.707H9.83308L9.81487 10.724L9.88771 10.7919V10.7749C9.88771 10.7523 9.89378 10.7409 9.90592 10.7409V10.7919V10.8088V10.8767C9.9302 10.8767 9.94234 10.8824 9.94234 10.8937C9.95448 10.8937 9.96662 10.8937 9.97876 10.8937L10.0152 10.9276V10.9446C10.0273 10.9446 10.0334 10.9502 10.0334 10.9615C10.0455 10.9615 10.0759 10.9729 10.1244 10.9955H10.0152H10.1244C10.1244 11.0068 10.1305 11.0124 10.1426 11.0124H10.1791C10.1791 11.0351 10.1912 11.052 10.2155 11.0633C10.2398 11.0633 10.2519 11.069 10.2519 11.0803C10.2519 11.1256 10.258 11.1538 10.2701 11.1652C10.258 11.1652 10.2458 11.1708 10.2337 11.1821C10.2337 11.1934 10.2155 11.1878 10.1791 11.1652L10.1609 11.1991H10.1244C10.1487 11.2217 10.1609 11.2557 10.1609 11.3009V11.3348V11.3688V11.3857C10.1609 11.3971 10.1609 11.4084 10.1609 11.4197C10.173 11.4197 10.1791 11.4253 10.1791 11.4367C10.1791 11.448 10.1912 11.4649 10.2155 11.4876C10.2398 11.4989 10.258 11.5045 10.2701 11.5045V11.5894H10.3065H10.2701C10.2701 11.612 10.2944 11.612 10.3429 11.5894L10.3065 11.6063V11.6572H10.3429C10.3308 11.6686 10.3247 11.6799 10.3247 11.6912V11.7081H10.3429C10.3429 11.7195 10.349 11.7251 10.3612 11.7251H10.3794C10.3915 11.7251 10.3976 11.7308 10.3976 11.7421C10.3976 11.776 10.4158 11.7986 10.4522 11.81C10.4643 11.81 10.4704 11.8213 10.4704 11.8439C10.4704 11.8552 10.4825 11.8609 10.5068 11.8609C10.5068 11.8835 10.5129 11.8948 10.525 11.8948C10.5372 11.8948 10.5311 11.9005 10.5068 11.9118L10.5432 11.9627C10.5432 11.974 10.5493 11.9853 10.5615 11.9966C10.5736 12.0079 10.5675 12.0136 10.5432 12.0136C10.5432 12.0362 10.5554 12.0475 10.5797 12.0475C10.5797 12.0475 10.5797 12.0758 10.5797 12.1324C10.5918 12.1324 10.5979 12.138 10.5979 12.1493C10.61 12.1493 10.6343 12.1493 10.6707 12.1493H10.5979C10.5979 12.1719 10.6222 12.1946 10.6707 12.2172C10.6829 12.2398 10.6829 12.2568 10.6707 12.2681C10.6707 12.2794 10.6707 12.2964 10.6707 12.319V12.2681H10.6889C10.6889 12.302 10.695 12.319 10.7071 12.319H10.7436V12.3529C10.7557 12.3529 10.7618 12.3699 10.7618 12.4038C10.7739 12.4038 10.7739 12.4208 10.7618 12.4548V12.4717V12.4887H10.78V12.5735L10.8346 12.5396C10.8346 12.5848 10.8407 12.6131 10.8528 12.6244H10.8346C10.8346 12.6697 10.8164 12.698 10.78 12.7093V12.7432C10.78 12.7545 10.7982 12.7602 10.8346 12.7602V12.7771C10.8467 12.7998 10.8771 12.8111 10.9256 12.8111V12.879L10.9439 12.9299H10.9256C10.9256 12.9412 10.9317 12.9468 10.9439 12.9468C10.9681 12.9468 10.9803 12.9525 10.9803 12.9638C10.9803 12.9751 10.9924 12.9921 11.0167 13.0147V13.1505L10.9803 13.0656C10.9803 13.0995 10.9863 13.1222 10.9985 13.1335C10.9985 13.1448 11.0046 13.1505 11.0167 13.1505L10.9803 13.1674H11.0167H10.9803C10.956 13.19 10.9499 13.2014 10.9621 13.2014C10.9742 13.2014 10.9803 13.2127 10.9803 13.2353V13.2523V13.3032H10.9985L11.0167 13.3201C10.9924 13.3201 10.9803 13.3145 10.9803 13.3032V13.3201C11.0046 13.3428 11.0228 13.3541 11.0349 13.3541C11.047 13.3654 11.0531 13.3767 11.0531 13.388V13.405H11.0713H11.0531C11.0531 13.4389 11.0592 13.4559 11.0713 13.4559H11.1259C11.1381 13.4559 11.1442 13.4728 11.1442 13.5068C11.1442 13.5068 11.1442 13.5124 11.1442 13.5238V13.5916C11.1442 13.6029 11.1563 13.6086 11.1806 13.6086H11.217L11.2352 13.6595C11.2352 13.6708 11.2413 13.6765 11.2534 13.6765H11.2716C11.2716 13.6878 11.2656 13.6991 11.2534 13.7104V13.7274H11.2352H11.2716C11.2716 13.75 11.2656 13.7613 11.2534 13.7613C11.2413 13.7613 11.2473 13.767 11.2716 13.7783V13.8122C11.2716 13.8235 11.2838 13.8292 11.308 13.8292V13.8462C11.2838 13.8688 11.2838 13.8914 11.308 13.914C11.308 13.9367 11.3202 13.9536 11.3445 13.9649H11.308C11.308 13.9876 11.308 13.9989 11.308 13.9989C11.3202 13.9989 11.3566 14.0102 11.4173 14.0328V14.1007C11.4173 14.112 11.4234 14.1233 11.4355 14.1346C11.4476 14.1572 11.4537 14.1742 11.4537 14.1855V14.2534H11.4901C11.4901 14.2647 11.4962 14.2704 11.5083 14.2704C11.5205 14.2704 11.5266 14.2817 11.5266 14.3043C11.5023 14.3495 11.4962 14.3722 11.5083 14.3722C11.5205 14.3835 11.5326 14.3948 11.5448 14.4061H11.563C11.5873 14.4061 11.5994 14.4174 11.5994 14.44V14.474C11.5994 14.4853 11.6055 14.4909 11.6176 14.4909V14.5419V14.5588C11.6662 14.5928 11.6965 14.6097 11.7086 14.6097V14.7115C11.7086 14.7229 11.739 14.7285 11.7997 14.7285V14.7624C11.824 14.7624 11.83 14.7681 11.8179 14.7794C11.8058 14.7907 11.8118 14.802 11.8361 14.8133V14.8303C11.8361 14.8416 11.8483 14.8473 11.8725 14.8473V14.8812C11.8847 14.8812 11.8968 14.8869 11.909 14.8982V14.9152C11.9211 14.9265 11.9332 14.9321 11.9454 14.9321C11.9575 14.9434 11.9514 14.9604 11.9272 14.983Z" fill="black"/>
</svg>
