<svg width="10" height="17" viewBox="0 0 10 17" fill="none" xmlns="http://www.w3.org/2000/svg">
<path d="M8.20738 6.75226C8.2191 6.75226 8.25425 6.78068 8.31283 6.83751H8.26011C8.23667 6.86025 8.20152 6.87162 8.15466 6.87162C8.10779 6.87162 8.06093 6.88298 8.01406 6.90572C7.96719 6.90572 7.93204 6.9114 7.90861 6.92277C7.90861 6.93414 7.90275 6.93982 7.89104 6.93982C7.84417 6.93982 7.82074 6.93414 7.82074 6.92277C7.82074 6.9114 7.79731 6.9114 7.75044 6.92277V6.90572H7.71529H7.68014C7.64499 6.91708 7.64499 6.93982 7.68014 6.97392V7.00802C7.68014 7.03076 7.69186 7.04213 7.71529 7.04213C7.69186 7.04213 7.67428 7.04213 7.66257 7.04213C7.66257 7.03076 7.65085 7.02508 7.62742 7.02508C7.62742 7.03644 7.6157 7.04213 7.59227 7.04213C7.55712 7.07623 7.53954 7.11601 7.53954 7.16148V7.19559V7.22969C7.56298 7.25242 7.57469 7.27516 7.57469 7.29789C7.58641 7.32063 7.60398 7.33768 7.62742 7.34905V7.4002H7.59227C7.6157 7.41157 7.62742 7.44567 7.62742 7.50251H7.68014C7.70357 7.50251 7.71529 7.50819 7.71529 7.51956C7.71529 7.53093 7.70357 7.53661 7.68014 7.53661H7.62742V7.57071C7.62742 7.59345 7.64499 7.60481 7.68014 7.60481C7.59813 7.60481 7.53368 7.6446 7.48682 7.72417C7.46339 7.72417 7.43409 7.69575 7.39895 7.63892H7.2935V7.67302C7.2935 7.68439 7.27592 7.69007 7.24077 7.69007C7.21734 7.69007 7.20562 7.70144 7.20562 7.72417V7.77533L7.17048 7.82648H7.20562C7.20562 7.86058 7.21734 7.88332 7.24077 7.89468H7.17048C7.17048 7.84921 7.1529 7.82648 7.11775 7.82648H7.10018C7.08846 7.83785 7.07674 7.84353 7.06503 7.84353H7.04745V7.82648C7.03574 7.82648 7.0123 7.80943 6.97715 7.77533V7.87763C7.0123 7.889 7.03574 7.889 7.04745 7.87763C7.09432 7.87763 7.11775 7.88332 7.11775 7.89468C7.11775 7.94015 7.13533 7.97994 7.17048 8.01404C7.13533 8.02541 7.13533 8.04246 7.17048 8.0652C7.14704 8.08793 7.12361 8.09361 7.10018 8.08225C7.08846 8.07088 7.07088 8.07656 7.04745 8.0993V8.1334C7.04745 8.14477 7.06503 8.15045 7.10018 8.15045V8.21866H7.17048C7.14704 8.21866 7.12361 8.23002 7.10018 8.25276C7.08846 8.26413 7.07088 8.26981 7.04745 8.26981C7.07088 8.26981 7.07674 8.27549 7.06503 8.28686C7.05331 8.28686 7.04159 8.29823 7.02988 8.32096C7.04159 8.29823 7.06503 8.28686 7.10018 8.28686H7.11775C7.11775 8.29823 7.12947 8.30391 7.1529 8.30391H7.17048V8.28686H7.24077C7.27592 8.3096 7.2935 8.33801 7.2935 8.37212C7.23492 8.40622 7.20562 8.45169 7.20562 8.50853H7.11775H7.17048C7.14704 8.53126 7.14118 8.54831 7.1529 8.55968C7.16462 8.55968 7.18219 8.56536 7.20562 8.57673C7.15876 8.64493 7.14704 8.67904 7.17048 8.67904V8.69609C7.17048 8.74156 7.18219 8.78134 7.20562 8.81545V8.84955C7.22906 8.87228 7.24077 8.90639 7.24077 8.95186C7.24077 8.95186 7.25249 8.95754 7.27592 8.96891H7.2935V8.98596V9.07121H7.24077V9.19057C7.27592 9.19057 7.2935 9.20762 7.2935 9.24173C7.32865 9.26446 7.34622 9.30425 7.34622 9.36108V9.30993C7.34622 9.33266 7.34036 9.34972 7.32865 9.36108C7.31693 9.36108 7.32279 9.36677 7.34622 9.37813C7.32279 9.37813 7.29936 9.38382 7.27592 9.39519C7.25249 9.40655 7.22906 9.41224 7.20562 9.41224C7.20562 9.43497 7.21148 9.45202 7.2232 9.46339C7.23491 9.46339 7.24077 9.47476 7.24077 9.49749C7.21734 9.5316 7.23492 9.54865 7.2935 9.54865C7.32865 9.56001 7.35208 9.5657 7.3638 9.5657C7.3638 9.58843 7.36965 9.60548 7.38137 9.61685C7.39309 9.61685 7.39895 9.62254 7.39895 9.6339V9.68506H7.4341V9.71916H7.3638C7.35208 9.69642 7.32865 9.69642 7.2935 9.71916V9.6339C7.27006 9.65664 7.24663 9.67369 7.2232 9.68506C7.21148 9.68506 7.20562 9.69642 7.20562 9.71916C7.22906 9.74189 7.22906 9.776 7.20562 9.82146C7.20562 9.8101 7.19391 9.80441 7.17048 9.80441V9.82146H7.11775C7.10603 9.8442 7.0826 9.8442 7.04745 9.82146C7.04745 9.8101 7.02402 9.8101 6.97715 9.82146C7.0123 9.8442 7.02988 9.87262 7.02988 9.90672C6.99473 9.92946 6.99473 9.94082 7.02988 9.94082V9.97493H7.04745C7.0826 9.97493 7.10603 9.98061 7.11775 9.99198H7.13533C7.13533 9.99198 7.14704 9.98629 7.17048 9.97493V9.99198H7.20562C7.18219 9.99198 7.17048 9.97492 7.17048 9.94082H7.20562C7.21734 9.94082 7.22906 9.94651 7.24077 9.95787V9.97493C7.21734 9.98629 7.21734 10.009 7.24077 10.0431H7.2935H7.34622C7.34622 10.0545 7.35208 10.0659 7.3638 10.0772C7.3638 10.1 7.37551 10.1113 7.39895 10.1113V10.1625C7.37551 10.1625 7.36965 10.1682 7.38137 10.1795C7.39309 10.1795 7.39895 10.1909 7.39895 10.2136V10.2818L7.41652 10.2989H7.39895V10.4012C7.37551 10.4239 7.35794 10.4239 7.34622 10.4012C7.31107 10.4012 7.28178 10.3955 7.25835 10.3842C7.23492 10.3842 7.21734 10.3785 7.20562 10.3671C7.18219 10.3671 7.17048 10.3557 7.17048 10.333V10.2989C7.13533 10.2875 7.09432 10.2818 7.04745 10.2818C7.04745 10.2932 7.04745 10.3103 7.04745 10.333C7.05917 10.3557 7.07674 10.3785 7.10018 10.4012C7.10018 10.4239 7.13533 10.4353 7.20562 10.4353C7.20562 10.4126 7.21148 10.4069 7.2232 10.4183C7.24663 10.4296 7.27006 10.4239 7.2935 10.4012V10.4353C7.23492 10.4353 7.20562 10.458 7.20562 10.5035C7.18219 10.5035 7.17048 10.5319 7.17048 10.5888H7.11775C7.10603 10.5888 7.09432 10.5945 7.0826 10.6058C7.0826 10.6172 7.07088 10.6229 7.04745 10.6229C7.0826 10.6229 7.10018 10.6342 7.10018 10.657V10.674C7.10018 10.6399 7.10603 10.6229 7.11775 10.6229C7.11775 10.657 7.13533 10.674 7.17048 10.674H7.11775C7.11775 10.6854 7.12361 10.6968 7.13533 10.7081C7.15876 10.7309 7.17048 10.7536 7.17048 10.7763C7.17048 10.7536 7.17633 10.7479 7.18805 10.7593C7.19977 10.7593 7.20562 10.7479 7.20562 10.7252C7.22906 10.7252 7.24077 10.7365 7.24077 10.7593C7.25249 10.7706 7.27006 10.7763 7.2935 10.7763L7.24077 10.8104V10.8445C7.24077 10.8786 7.25835 10.8957 7.2935 10.8957H7.34622H7.4341H7.45167C7.46339 10.8957 7.4751 10.9014 7.48682 10.9127H7.53954C7.53954 10.9582 7.50439 10.9809 7.4341 10.9809H7.34622C7.35794 11.015 7.37551 11.0321 7.39895 11.0321C7.3638 11.0776 7.35208 11.1174 7.3638 11.1515V11.1685C7.35208 11.1685 7.34622 11.1969 7.34622 11.2538C7.27592 11.2992 7.27592 11.3333 7.34622 11.3561C7.34622 11.4129 7.35208 11.4527 7.3638 11.4754V11.4925C7.3638 11.5038 7.37551 11.5095 7.39895 11.5095C7.39895 11.555 7.41066 11.5834 7.4341 11.5948H7.53954V11.6459H7.48682C7.48682 11.6573 7.49268 11.663 7.50439 11.663H7.53954V11.7141V11.7653H7.48682C7.52197 11.7994 7.53954 11.8108 7.53954 11.7994V11.8335C7.51611 11.8335 7.49854 11.8392 7.48682 11.8506C7.4751 11.8506 7.45753 11.8506 7.4341 11.8506C7.41066 11.8506 7.39895 11.879 7.39895 11.9358V11.9699C7.42238 11.9699 7.43995 11.9813 7.45167 12.004C7.46339 12.0154 7.45753 12.0267 7.4341 12.0381C7.4341 12.095 7.45167 12.1347 7.48682 12.1575C7.46339 12.2029 7.43995 12.237 7.41652 12.2598C7.4048 12.2711 7.38723 12.2939 7.3638 12.328V12.4303C7.3638 12.4417 7.37551 12.4644 7.39895 12.4985V12.4473C7.42238 12.4701 7.4341 12.4985 7.4341 12.5326C7.4341 12.5553 7.4341 12.5781 7.4341 12.6008C7.46924 12.6235 7.50439 12.6349 7.53954 12.6349V12.7031V12.7713C7.59813 12.7713 7.62742 12.794 7.62742 12.8395C7.62742 12.8623 7.63327 12.8736 7.64499 12.8736C7.66842 12.885 7.68014 12.8964 7.68014 12.9077C7.65671 12.9077 7.63327 12.9191 7.60984 12.9418C7.58641 12.9759 7.56298 12.993 7.53954 12.993V13.0271C7.56298 13.0271 7.57469 13.0214 7.57469 13.01C7.58641 12.9987 7.60398 12.993 7.62742 12.993H7.64499C7.66842 12.993 7.68014 13.0043 7.68014 13.0271V13.0612C7.68014 13.0384 7.70357 13.0271 7.75044 13.0271H7.80316C7.85003 13.0271 7.88518 13.0157 7.90861 12.993V12.9418C7.90861 12.9987 7.92033 13.0271 7.94376 13.0271H7.90861C7.90861 13.0839 7.9379 13.1123 7.99649 13.1123C7.96134 13.1123 7.94376 13.118 7.94376 13.1294C7.92033 13.118 7.87346 13.1123 7.80316 13.1123C7.74458 13.1351 7.71529 13.1805 7.71529 13.2487V13.2999C7.69186 13.3113 7.69186 13.317 7.71529 13.317C7.73872 13.3397 7.7563 13.3567 7.76801 13.3681C7.79145 13.3908 7.80902 13.4136 7.82074 13.4363V13.4704V13.4875C7.82074 13.4988 7.83831 13.5045 7.87346 13.5045V13.5557C7.88518 13.5557 7.8969 13.5614 7.90861 13.5727V13.6068C7.90861 13.6296 7.91447 13.6409 7.92619 13.6409C7.9379 13.6523 7.94376 13.6693 7.94376 13.6921H7.92619C7.91447 13.6921 7.90861 13.7034 7.90861 13.7262C7.96719 13.7262 7.99649 13.7432 7.99649 13.7773H7.94376C7.92033 13.7773 7.90861 13.8001 7.90861 13.8455V13.9137C7.93204 13.9137 7.94376 13.9308 7.94376 13.9649V14.016C7.94376 14.0388 7.96134 14.0558 7.99649 14.0672V14.016V14.0672C8.0082 14.0899 8.02578 14.107 8.04921 14.1184C8.08436 14.1297 8.10193 14.1525 8.10193 14.1866C8.12537 14.1866 8.14294 14.1922 8.15466 14.2036C8.16637 14.2263 8.18395 14.2377 8.20738 14.2377L8.24253 14.2889L8.27768 14.323C8.2894 14.3343 8.30111 14.34 8.31283 14.34C8.33626 14.3628 8.36555 14.3741 8.4007 14.3741V14.4253H8.34798C8.34798 14.448 8.35384 14.4594 8.36555 14.4594C8.38899 14.4707 8.4007 14.4935 8.4007 14.5276C8.42414 14.5276 8.44171 14.5333 8.45343 14.5446C8.46514 14.556 8.48858 14.5617 8.52373 14.5617C8.53544 14.539 8.57059 14.5276 8.62917 14.5276V14.5958H8.57645V14.6469C8.57645 14.6583 8.58231 14.664 8.59402 14.664H8.62917C8.65261 14.7095 8.65261 14.7492 8.62917 14.7834C8.65261 14.8175 8.6819 14.8175 8.71705 14.7834C8.74048 14.8743 8.78735 14.897 8.85764 14.8516H8.94552C8.94552 14.8857 8.95138 14.9084 8.96309 14.9198H9.01582V14.9709C8.96895 14.9709 8.94552 14.9539 8.94552 14.9198C8.94552 14.9425 8.94552 14.9539 8.94552 14.9539C8.95724 14.9652 8.99238 14.9823 9.05097 15.005C9.02753 15.0278 9.01582 15.0562 9.01582 15.0903C8.99238 15.0903 8.98067 15.0903 8.98067 15.0903C8.98067 15.1016 8.99238 15.1016 9.01582 15.0903H9.13884L9.15641 15.1073C9.1447 15.1301 9.1447 15.1528 9.15641 15.1755C9.16813 15.1983 9.18571 15.2096 9.20914 15.2096V15.2437L9.15641 15.2778H9.22671V15.2608L9.20914 15.2437H9.22671V15.2608C9.22671 15.2722 9.24429 15.2778 9.27944 15.2778C9.30287 15.2778 9.3263 15.2892 9.34974 15.3119C9.37317 15.3347 9.3966 15.346 9.42004 15.346C9.42004 15.3915 9.44347 15.4086 9.49033 15.3972C9.51377 15.454 9.53134 15.4995 9.54306 15.5336C9.56649 15.5791 9.58992 15.6302 9.61336 15.6871L9.66608 15.7212C9.66608 15.7439 9.66608 15.7553 9.66608 15.7553C9.6778 15.7666 9.68366 15.778 9.68366 15.7894C9.68366 15.8348 9.68951 15.8689 9.70123 15.8917C9.72466 15.9144 9.74224 15.9485 9.75395 15.994C9.7891 16.0053 9.80668 16.0395 9.80668 16.0963V16.1133C9.80668 16.1247 9.82425 16.1304 9.8594 16.1304C9.8594 16.1872 9.86526 16.227 9.87698 16.2498H9.80668C9.80668 16.2839 9.80668 16.318 9.80668 16.3521C9.81839 16.3975 9.84183 16.4316 9.87698 16.4544V16.4714H9.91213V16.5226C9.91213 16.568 9.92384 16.5908 9.94728 16.5908C9.94728 16.6135 9.95313 16.6249 9.96485 16.6249C9.98828 16.6362 10 16.6533 10 16.676H9.96485C9.95313 16.676 9.94728 16.6817 9.94728 16.6931H10C9.97657 16.7158 9.96485 16.7329 9.96485 16.7442C9.97657 16.767 9.97071 16.7783 9.94728 16.7783C9.92384 16.7783 9.91213 16.784 9.91213 16.7954C9.91213 16.8068 9.92384 16.8124 9.94728 16.8124C9.94728 16.892 9.93556 16.9545 9.91213 17V16.9318C9.88869 16.9091 9.88284 16.892 9.89455 16.8806C9.91799 16.8693 9.91213 16.8636 9.87698 16.8636C9.92384 16.7613 9.90041 16.6703 9.80668 16.5908H9.8594C9.8594 16.5112 9.82425 16.4714 9.75395 16.4714C9.74224 16.4714 9.73638 16.4657 9.73638 16.4544C9.70123 16.4544 9.68366 16.4487 9.68366 16.4373V16.4032H9.70123C9.72466 16.4032 9.73638 16.4203 9.73638 16.4544C9.73638 16.3634 9.71881 16.3009 9.68366 16.2668L9.66608 16.2498V16.2156H9.68366V16.1815C9.71881 16.1815 9.73638 16.1531 9.73638 16.0963H9.66608C9.66608 16.0736 9.64851 16.0451 9.61336 16.011H9.59578C9.58407 16.011 9.57821 16.0053 9.57821 15.994C9.57821 15.9712 9.57235 15.9485 9.56063 15.9258C9.54892 15.9144 9.54306 15.8974 9.54306 15.8746C9.50791 15.8746 9.49033 15.8576 9.49033 15.8235C9.51377 15.8007 9.52548 15.7951 9.52548 15.8064C9.5372 15.8178 9.55477 15.8235 9.57821 15.8235C9.57821 15.7666 9.54892 15.7212 9.49033 15.6871L9.47276 15.7041V15.7212H9.49033C9.49033 15.7553 9.49619 15.7723 9.50791 15.7723H9.54306C9.50791 15.7837 9.49033 15.8007 9.49033 15.8235C9.45519 15.8007 9.43175 15.7666 9.42004 15.7212C9.43175 15.6984 9.43175 15.6586 9.42004 15.6018H9.43761C9.42589 15.6018 9.42004 15.5961 9.42004 15.5848C9.42004 15.5507 9.42589 15.5336 9.43761 15.5336C9.43761 15.5336 9.43175 15.5336 9.42004 15.5336H9.40246C9.36731 15.5336 9.34388 15.5279 9.33216 15.5165C9.33216 15.4824 9.32045 15.4654 9.29701 15.4654H9.27944C9.3263 15.4199 9.30873 15.3972 9.22671 15.3972C9.17985 15.3631 9.12127 15.3404 9.05097 15.329C9.02753 15.2949 8.99238 15.2778 8.94552 15.2778C8.95724 15.2551 8.96309 15.2324 8.96309 15.2096C8.95138 15.2096 8.94552 15.1983 8.94552 15.1755C8.94552 15.1528 8.94552 15.1301 8.94552 15.1073H8.85764C8.81078 15.0846 8.76977 15.0846 8.73462 15.1073H8.71705C8.6819 15.1073 8.66432 15.1016 8.66432 15.0903C8.66432 15.0562 8.6819 15.0391 8.71705 15.0391L8.66432 15.005C8.64089 15.0505 8.61746 15.0619 8.59402 15.0391C8.58231 15.0164 8.56473 15.005 8.5413 15.005C8.5413 14.9482 8.55302 14.9198 8.57645 14.9198C8.55302 14.9084 8.51201 14.9027 8.45343 14.9027C8.45343 14.8231 8.41828 14.7834 8.34798 14.7834C8.38313 14.772 8.4007 14.7549 8.4007 14.7322V14.7151C8.34212 14.7151 8.29526 14.6981 8.26011 14.664C8.26011 14.6754 8.24253 14.6526 8.20738 14.5958C8.19566 14.5958 8.18981 14.5901 8.18981 14.5787C8.18981 14.556 8.19566 14.539 8.20738 14.5276C8.18395 14.5276 8.15466 14.5333 8.11951 14.5446C8.09608 14.556 8.07264 14.5617 8.04921 14.5617H8.06678C8.09022 14.5617 8.10193 14.5731 8.10193 14.5958C8.0785 14.5958 8.05507 14.6015 8.03163 14.6128C8.01992 14.6242 8.0082 14.6185 7.99649 14.5958V14.5787C7.99649 14.5787 7.97891 14.5617 7.94376 14.5276V14.4764H7.90861C7.90861 14.4651 7.89104 14.4594 7.85589 14.4594C7.83246 14.4594 7.81488 14.448 7.80316 14.4253V14.3741V14.34L7.82074 14.2889C7.80902 14.2889 7.79145 14.2832 7.76801 14.2718C7.7563 14.2604 7.73872 14.2661 7.71529 14.2889C7.71529 14.2661 7.69772 14.2491 7.66257 14.2377C7.63913 14.2263 7.6157 14.2093 7.59227 14.1866H7.68014C7.70357 14.1866 7.71529 14.1809 7.71529 14.1695C7.71529 14.1581 7.72701 14.1411 7.75044 14.1184C7.72701 14.1411 7.70943 14.1525 7.69772 14.1525H7.68014L7.62742 14.1184H7.59227C7.55712 14.1184 7.53954 14.1127 7.53954 14.1013V14.0672V13.9137V13.8626C7.57469 13.8626 7.59227 13.8399 7.59227 13.7944H7.68014C7.65671 13.7944 7.63913 13.783 7.62742 13.7603C7.6157 13.7489 7.58641 13.7546 7.53954 13.7773C7.57469 13.7432 7.59227 13.7034 7.59227 13.658H7.62742C7.62742 13.6239 7.60984 13.6068 7.57469 13.6068H7.53954C7.53954 13.5727 7.52197 13.5557 7.48682 13.5557C7.48682 13.5329 7.4751 13.5102 7.45167 13.4875C7.43995 13.4761 7.4341 13.459 7.4341 13.4363L7.48682 13.3852H7.45167C7.42824 13.3852 7.41066 13.3795 7.39895 13.3681V13.2999V13.2487V13.1976C7.39895 13.209 7.4048 13.2146 7.41652 13.2146C7.41652 13.2146 7.42238 13.2033 7.4341 13.1805C7.46924 13.1805 7.48682 13.1635 7.48682 13.1294C7.45167 13.1294 7.42238 13.1464 7.39895 13.1805C7.3638 13.1805 7.34622 13.1635 7.34622 13.1294C7.34622 13.1294 7.33451 13.1237 7.31107 13.1123H7.2935C7.24663 13.0896 7.21734 13.0726 7.20562 13.0612C7.20562 13.0498 7.21734 13.0271 7.24077 12.993C7.24077 13.0157 7.24663 13.0271 7.25835 13.0271H7.2935H7.3638C7.3638 12.9702 7.32279 12.9418 7.24077 12.9418C7.27592 12.9418 7.31693 12.9305 7.3638 12.9077C7.3638 12.8964 7.35794 12.8907 7.34622 12.8907C7.31107 12.8566 7.2935 12.8282 7.2935 12.8054C7.30521 12.794 7.31107 12.7713 7.31107 12.7372C7.31107 12.7258 7.30521 12.7145 7.2935 12.7031C7.2232 12.7031 7.20562 12.6804 7.24077 12.6349H7.20562C7.20562 12.6122 7.19391 12.6008 7.17048 12.6008C7.17048 12.5781 7.17633 12.5667 7.18805 12.5667C7.19977 12.5553 7.20562 12.5383 7.20562 12.5155V12.4985L7.17048 12.4473C7.17048 12.4019 7.19391 12.3621 7.24077 12.328C7.20562 12.3166 7.19391 12.3052 7.20562 12.2939C7.22906 12.2711 7.24077 12.2541 7.24077 12.2427C7.21734 12.22 7.18805 12.22 7.1529 12.2427C7.12947 12.2541 7.11189 12.2541 7.10018 12.2427C7.10018 12.2086 7.11189 12.1916 7.13533 12.1916H7.17048C7.19391 12.1916 7.20562 12.1802 7.20562 12.1575H7.17048C7.19391 12.1347 7.21734 12.1063 7.24077 12.0722V12.0381L7.2935 12.0722V12.0381H7.24077L7.20562 12.0211C7.17047 11.9642 7.11775 11.9358 7.04745 11.9358L7.02988 11.9017V11.8506C7.02988 11.8392 7.03574 11.8335 7.04745 11.8335H7.02988V11.7823V11.7653C7.00644 11.7653 6.99473 11.7539 6.99473 11.7312C7.00644 11.7085 7.00059 11.6857 6.97715 11.663H6.95958L6.97715 11.6459C7.00059 11.6459 7.0123 11.6403 7.0123 11.6289C7.0123 11.6062 7.00059 11.5891 6.97715 11.5777H7.04745C7.03574 11.5323 7.0123 11.4982 6.97715 11.4754L7.02988 11.4413H6.88928V11.4243C6.88928 11.4015 6.901 11.3902 6.92443 11.3902C6.94786 11.3674 6.96544 11.3561 6.97715 11.3561C7.00059 11.3447 7.00059 11.322 6.97715 11.2879C7.0123 11.2879 7.02988 11.2822 7.02988 11.2708C7.02988 11.2594 7.03574 11.2424 7.04745 11.2197H6.92443C6.92443 11.1742 6.91271 11.1515 6.88928 11.1515C6.91271 11.1515 6.92443 11.1458 6.92443 11.1344C6.93615 11.1117 6.95372 11.1003 6.97715 11.1003C6.95372 11.1003 6.93615 11.1003 6.92443 11.1003C6.92443 11.0889 6.91271 11.0833 6.88928 11.0833V11.0321C6.87756 11.0321 6.86585 11.0264 6.85413 11.015C6.8307 10.9923 6.80141 10.9809 6.76626 10.9809C6.78969 10.9582 6.81312 10.9412 6.83656 10.9298C6.8717 10.9184 6.88928 10.9071 6.88928 10.8957C6.88928 10.873 6.87756 10.8673 6.85413 10.8786C6.84241 10.8786 6.8307 10.8673 6.81898 10.8445H6.69596C6.69596 10.8218 6.68424 10.8104 6.66081 10.8104C6.64909 10.8104 6.64323 10.7991 6.64323 10.7763C6.65495 10.7763 6.66081 10.7706 6.66081 10.7593C6.66081 10.7479 6.65495 10.7365 6.64323 10.7252H6.57293C6.57293 10.7024 6.56708 10.6968 6.55536 10.7081C6.55536 10.7195 6.54364 10.7252 6.52021 10.7252H6.57293C6.57293 10.7593 6.57879 10.7763 6.59051 10.7763H6.62566C6.61394 10.7877 6.60223 10.7934 6.59051 10.7934C6.57879 10.8047 6.55536 10.8104 6.52021 10.8104H6.50264V10.7252C6.51435 10.6911 6.51435 10.674 6.50264 10.674C6.4792 10.6513 6.44991 10.6229 6.41476 10.5888C6.39133 10.5547 6.37961 10.5262 6.37961 10.5035H6.44991L6.41476 10.4694C6.40305 10.458 6.39719 10.4467 6.39719 10.4353C6.39719 10.4126 6.4089 10.4012 6.43234 10.4012C6.45577 10.4012 6.4792 10.3898 6.50264 10.3671H6.39719L6.44991 10.2989H6.50264C6.4792 10.2989 6.45577 10.2989 6.43234 10.2989C6.4089 10.2875 6.39133 10.2818 6.37961 10.2818V10.2307V10.2136V10.1966C6.37961 10.1966 6.38547 10.1852 6.39719 10.1625H6.44991C6.40305 10.1625 6.37961 10.1454 6.37961 10.1113C6.37961 10.1 6.35618 10.0943 6.30931 10.0943C6.25073 10.0943 6.21558 10.0829 6.20387 10.0602C6.20387 10.0374 6.19801 10.0147 6.18629 9.99198H6.20387V9.97493H6.25659C6.29174 9.97493 6.30931 9.95219 6.30931 9.90672C6.27417 9.90672 6.23902 9.88967 6.20387 9.85557C6.20387 9.83283 6.20387 9.82146 6.20387 9.82146C6.21558 9.82146 6.25073 9.81578 6.30931 9.80441C6.28588 9.78168 6.26831 9.76463 6.25659 9.75326C6.24487 9.73053 6.2273 9.71916 6.20387 9.71916C6.2273 9.69642 6.25073 9.68506 6.27417 9.68506C6.2976 9.67369 6.30931 9.65664 6.30931 9.6339V9.5657C6.30931 9.5657 6.2976 9.56001 6.27417 9.54865H6.25659V9.44634C6.18629 9.49181 6.12185 9.49181 6.06327 9.44634C6.09842 9.4236 6.11599 9.39519 6.11599 9.36108C6.09256 9.36108 6.06913 9.36108 6.04569 9.36108C6.03398 9.36108 6.0164 9.34403 5.99297 9.30993C5.9461 9.3554 5.92267 9.37813 5.92267 9.37813C5.86409 9.37813 5.8348 9.40087 5.8348 9.44634V9.49749H5.74692V9.5657C5.72349 9.5657 5.68834 9.57138 5.64148 9.58275C5.59461 9.58275 5.54774 9.59412 5.50088 9.61685V9.54865C5.48916 9.51454 5.46573 9.52023 5.43058 9.5657C5.40715 9.55433 5.37786 9.54865 5.34271 9.54865C5.34271 9.59412 5.33099 9.61685 5.30756 9.61685C5.28412 9.61685 5.25483 9.62254 5.21968 9.6339C5.20797 9.6339 5.20797 9.62253 5.21968 9.5998C5.24312 9.57706 5.24312 9.5657 5.21968 9.5657C5.21968 9.58843 5.21383 9.60548 5.20211 9.61685C5.20211 9.61685 5.20211 9.62254 5.20211 9.6339V9.5657C5.17868 9.5657 5.16696 9.57706 5.16696 9.5998V9.61685V9.5657C5.16696 9.52023 5.14939 9.51454 5.11424 9.54865H5.02636H4.99121C4.9795 9.56001 4.95606 9.56001 4.92091 9.54865C4.89748 9.58275 4.87405 9.59412 4.85062 9.58275C4.8389 9.57138 4.82132 9.5657 4.79789 9.5657C4.79789 9.5998 4.78617 9.62822 4.76274 9.65095C4.73931 9.67369 4.71588 9.69642 4.69244 9.71916H4.5167C4.55185 9.69642 4.58114 9.68506 4.60457 9.68506H4.46397L4.41125 9.6339H4.3761C4.36438 9.6339 4.35852 9.62822 4.35852 9.61685L4.3058 9.6339C4.2355 9.61117 4.20035 9.61117 4.20035 9.6339H4.14763C4.13591 9.6339 4.13005 9.62822 4.13005 9.61685C4.0949 9.58275 4.07733 9.56001 4.07733 9.54865C4.06561 9.56001 4.04804 9.57138 4.0246 9.58275C4.01289 9.58275 4.00703 9.59412 4.00703 9.61685H3.93673C3.90158 9.58275 3.86057 9.5657 3.81371 9.5657V9.61685C3.81371 9.61685 3.81371 9.62254 3.81371 9.6339H3.83128C3.83128 9.6339 3.843 9.62822 3.86643 9.61685V9.68506C3.83128 9.68506 3.81371 9.70779 3.81371 9.75326C3.80199 9.78736 3.79028 9.81578 3.77856 9.83852C3.76684 9.84988 3.72583 9.85557 3.65554 9.85557C3.65554 9.8783 3.65554 9.90104 3.65554 9.92377C3.66725 9.93514 3.65554 9.95219 3.62039 9.97493C3.62039 9.98629 3.62039 10.0033 3.62039 10.0261C3.6321 10.0374 3.62625 10.0431 3.60281 10.0431V10.1625V10.2136L3.62039 10.2307C3.62039 10.2421 3.6321 10.2591 3.65554 10.2818C3.6321 10.2818 3.59695 10.2818 3.55009 10.2818C3.50322 10.2818 3.46221 10.2875 3.42707 10.2989H3.35677C3.33333 10.2989 3.31576 10.3103 3.30404 10.333C3.30404 10.3557 3.29818 10.3785 3.28647 10.4012L3.30404 10.4865C3.30404 10.4865 3.31576 10.4921 3.33919 10.5035H3.35677V10.5206C3.35677 10.5319 3.33919 10.5376 3.30404 10.5376C3.30404 10.5717 3.28061 10.5888 3.23374 10.5888V10.674C3.21031 10.6968 3.21617 10.7252 3.25132 10.7593C3.28647 10.7934 3.32162 10.8218 3.35677 10.8445H3.30404C3.30404 10.89 3.29818 10.9127 3.28647 10.9127C3.28647 10.9241 3.28647 10.9355 3.28647 10.9468C3.29818 10.9468 3.30404 10.9525 3.30404 10.9639V10.9809C3.30404 11.0491 3.32748 11.0833 3.37434 11.0833H3.47979L3.42707 11.1003V11.1515C3.4505 11.1515 3.45636 11.1571 3.44464 11.1685C3.43292 11.1799 3.42707 11.1969 3.42707 11.2197C3.43878 11.2197 3.44464 11.2253 3.44464 11.2367C3.45636 11.2367 3.46807 11.2367 3.47979 11.2367L3.49736 11.2538C3.49736 11.3106 3.49151 11.339 3.47979 11.339V11.3561V11.3902C3.5618 11.447 3.60867 11.4868 3.62039 11.5095L3.65554 11.5777V11.5948H3.69069H3.74341L3.79613 11.7141C3.843 11.7141 3.86643 11.7312 3.86643 11.7653V11.7823C3.86643 11.7937 3.86643 11.8051 3.86643 11.8164C3.87815 11.8164 3.88401 11.8221 3.88401 11.8335L3.93673 11.7823C3.93673 11.8164 3.91916 11.8335 3.88401 11.8335C3.90744 11.8335 3.91916 11.8392 3.91916 11.8506C3.93087 11.8506 3.94845 11.8506 3.97188 11.8506C3.94845 11.8733 3.92501 11.879 3.90158 11.8676C3.88987 11.8562 3.87815 11.8676 3.86643 11.9017V11.8847C3.86643 11.8619 3.84886 11.8506 3.81371 11.8506V11.9017C3.81371 11.9244 3.81957 11.9358 3.83128 11.9358C3.85472 11.9358 3.86643 11.9472 3.86643 11.9699C3.86643 12.0495 3.9133 12.112 4.00703 12.1575L4.05975 12.1916C4.07147 12.237 4.0949 12.2598 4.13005 12.2598C4.15349 12.2825 4.18278 12.3109 4.21793 12.345C4.25308 12.3791 4.28237 12.4076 4.3058 12.4303V12.4473H4.46397C4.44054 12.4701 4.41125 12.4758 4.3761 12.4644C4.35267 12.453 4.32923 12.4473 4.3058 12.4473L4.35852 12.4985H4.41125C4.4464 12.4985 4.46397 12.5212 4.46397 12.5667H4.49912V12.5838C4.49912 12.5838 4.50498 12.5781 4.5167 12.5667H4.60457C4.58114 12.5894 4.56942 12.6349 4.56942 12.7031C4.49912 12.8054 4.49912 12.9134 4.56942 13.0271H4.5167C4.5167 13.0498 4.52255 13.0612 4.53427 13.0612C4.5577 13.0612 4.58114 13.0498 4.60457 13.0271V13.1123C4.60457 13.1578 4.59285 13.1862 4.56942 13.1976C4.56942 13.2658 4.58114 13.3056 4.60457 13.317V13.3511C4.60457 13.3624 4.62214 13.3681 4.65729 13.3681C4.63386 13.3795 4.61043 13.3908 4.58699 13.4022C4.56356 13.4249 4.54013 13.4477 4.5167 13.4704C4.5167 13.4477 4.53427 13.4193 4.56942 13.3852H4.5167C4.50498 13.317 4.47569 13.2544 4.42882 13.1976C4.39367 13.1521 4.33509 13.1294 4.25308 13.1294C4.28822 13.118 4.3058 13.0953 4.3058 13.0612V13.0441C4.3058 13.0328 4.32337 13.0157 4.35852 12.993H4.3058C4.3058 12.9702 4.31166 12.9532 4.32337 12.9418C4.33509 12.9418 4.32923 12.9305 4.3058 12.9077H4.32337C4.32337 12.9077 4.33509 12.902 4.35852 12.8907C4.35852 12.8566 4.34095 12.8282 4.3058 12.8054C4.3058 12.7486 4.25893 12.7088 4.1652 12.6861L4.14763 12.669C4.12419 12.6463 4.10076 12.6349 4.07733 12.6349V12.6008V12.5838L4.05975 12.5667C4.01289 12.544 3.9836 12.5326 3.97188 12.5326C3.97188 12.5212 3.97188 12.5099 3.97188 12.4985V12.4473C3.90158 12.436 3.84886 12.436 3.81371 12.4473L3.79613 12.4303V12.3791V12.3109C3.76098 12.3109 3.74341 12.2882 3.74341 12.2427V12.1916V12.1575C3.74341 12.1006 3.72584 12.0552 3.69069 12.0211V11.9699V11.9529C3.69069 11.9529 3.67897 11.9472 3.65554 11.9358C3.60867 11.8903 3.60867 11.8562 3.65554 11.8335H3.63796C3.61453 11.8335 3.60281 11.8164 3.60281 11.7823C3.60281 11.8051 3.59695 11.8221 3.58524 11.8335C3.57352 11.8335 3.53837 11.8335 3.47979 11.8335V11.7823H3.42707V11.663C3.42707 11.6971 3.4505 11.7141 3.49736 11.7141C3.49736 11.7028 3.50322 11.6914 3.51494 11.68C3.53837 11.6573 3.55009 11.6459 3.55009 11.6459C3.52666 11.6232 3.50322 11.6232 3.47979 11.6459C3.46807 11.6573 3.4505 11.6573 3.42707 11.6459C3.4505 11.6459 3.46221 11.6403 3.46221 11.6289C3.47393 11.6062 3.48565 11.5948 3.49736 11.5948C3.48565 11.5948 3.47979 11.5891 3.47979 11.5777L3.42707 11.5948C3.42707 11.5834 3.41535 11.5777 3.39192 11.5777C3.3802 11.5664 3.37434 11.5436 3.37434 11.5095L3.35677 11.5266V11.5777V11.4754H3.28647V11.4584H3.26889C3.25718 11.4584 3.24546 11.4527 3.23374 11.4413V11.3561V11.339C3.23374 11.3163 3.2396 11.3106 3.25132 11.322C3.27475 11.322 3.28647 11.3106 3.28647 11.2879H3.18102H3.16344V11.339C3.10486 11.339 3.07557 11.3106 3.07557 11.2538C3.13415 11.1969 3.16344 11.1969 3.16344 11.2538C3.17516 11.231 3.19859 11.2026 3.23374 11.1685C3.21031 11.1685 3.18688 11.1685 3.16344 11.1685C3.15173 11.1571 3.13415 11.1515 3.11072 11.1515C3.08729 11.1628 3.058 11.1685 3.02285 11.1685L2.97012 11.1515L3.02285 11.1003V11.0321H3.04042C3.06385 11.0321 3.07557 11.015 3.07557 10.9809C3.05214 10.9809 3.02871 10.9753 3.00527 10.9639C2.98184 10.9525 2.96426 10.9582 2.95255 10.9809H2.89982C2.89982 10.9923 2.89397 11.0037 2.88225 11.015V11.0321V11.0833V11.1003C2.8471 11.1344 2.80609 11.1515 2.75923 11.1515C2.75923 11.1515 2.74751 11.1628 2.72408 11.1856C2.71236 11.1969 2.7065 11.2083 2.7065 11.2197V11.2879V11.4413C2.68307 11.4754 2.68307 11.5095 2.7065 11.5436C2.72994 11.5777 2.77094 11.5948 2.82953 11.5948C2.82953 11.6289 2.83538 11.6459 2.8471 11.6459H2.88225L2.89982 11.663V11.6459H2.95255C2.95255 11.6573 2.95841 11.663 2.97012 11.663C2.97012 11.6971 2.9877 11.7141 3.02285 11.7141C2.9877 11.7369 2.95841 11.7539 2.93497 11.7653C2.91154 11.7653 2.89397 11.771 2.88225 11.7823L2.82953 11.8335C2.80609 11.8449 2.79438 11.8506 2.79438 11.8506C2.79438 11.8392 2.78266 11.8335 2.75923 11.8335C2.73579 11.8335 2.72408 11.8392 2.72408 11.8506C2.73579 11.8506 2.72994 11.8506 2.7065 11.8506C2.68307 11.8506 2.6655 11.8562 2.65378 11.8676C2.65378 11.879 2.64792 11.8733 2.6362 11.8506H2.60105H2.56591C2.54247 11.8733 2.5249 11.8847 2.51318 11.8847C2.50146 11.8733 2.48389 11.879 2.46046 11.9017C2.46046 11.9244 2.44288 11.9358 2.40773 11.9358V11.9699C2.40773 12.004 2.39602 12.0211 2.37258 12.0211C2.33743 12.0211 2.31986 12.004 2.31986 11.9699C2.35501 11.9699 2.37258 11.9642 2.37258 11.9529V11.9358L2.40773 11.9017C2.3843 11.9017 2.36673 11.896 2.35501 11.8847C2.35501 11.8619 2.34329 11.8506 2.31986 11.8506H2.28471L2.24956 11.8335H2.12654C2.16169 11.8676 2.17926 11.879 2.17926 11.8676V11.9017C2.19098 11.9244 2.20269 11.9472 2.21441 11.9699C2.22613 11.9813 2.22027 11.9983 2.19684 12.0211C2.19684 12.0552 2.21441 12.0893 2.24956 12.1234V12.1404C2.24956 12.1518 2.26128 12.1575 2.28471 12.1575C2.23784 12.2029 2.23784 12.237 2.28471 12.2598C2.33158 12.2939 2.36673 12.328 2.39016 12.3621C2.41359 12.3848 2.43702 12.4132 2.46046 12.4473C2.46046 12.4701 2.46632 12.4928 2.47803 12.5155C2.50146 12.5269 2.51318 12.544 2.51318 12.5667C2.54833 12.5894 2.56591 12.6292 2.56591 12.6861L2.51318 12.6349V12.6861C2.51318 12.6974 2.49561 12.7031 2.46046 12.7031L2.51318 12.7713C2.54833 12.7713 2.56591 12.7827 2.56591 12.8054V12.8395C2.54247 12.8736 2.5249 12.902 2.51318 12.9248C2.50146 12.9475 2.48389 12.9702 2.46046 12.993V13.0271H2.42531C2.41359 13.0271 2.40773 13.0384 2.40773 13.0612H2.28471H2.26714C2.25542 13.0612 2.24956 13.0782 2.24956 13.1123C2.21441 13.1237 2.19098 13.1294 2.17926 13.1294C2.12068 13.1862 2.09139 13.209 2.09139 13.1976C2.09139 13.209 2.08553 13.2203 2.07381 13.2317V13.2487H2.05624C2.05624 13.2715 2.05038 13.2885 2.03866 13.2999C2.02695 13.3113 2.03281 13.317 2.05624 13.317C2.07967 13.3397 2.08553 13.3567 2.07381 13.3681C2.0621 13.3908 2.05624 13.4136 2.05624 13.4363C2.05624 13.459 2.04452 13.4704 2.02109 13.4704H2.00351H1.84534C1.82191 13.5159 1.81605 13.5386 1.82777 13.5386C1.8512 13.55 1.87463 13.5614 1.89807 13.5727L1.95079 13.658H1.89807C1.89807 13.7034 1.91564 13.7262 1.95079 13.7262V13.6921C1.97422 13.6921 1.9918 13.7205 2.00351 13.7773C2.03866 13.7773 2.05624 13.783 2.05624 13.7944H2.09139V13.7262L2.12654 13.7773V13.8455V13.8626C2.10311 13.8626 2.07967 13.8796 2.05624 13.9137C2.00937 13.9706 2.00937 14.016 2.05624 14.0502V14.0672C2.05624 14.124 2.06796 14.1638 2.09139 14.1866V14.2377L2.12654 14.2548C2.10311 14.2775 2.07381 14.2889 2.03866 14.2889C2.01523 14.3002 2.00351 14.3287 2.00351 14.3741V14.4253C2.03866 14.448 2.03866 14.4651 2.00351 14.4764V14.5617H2.05624L2.00351 14.5958L2.05624 14.6469C2.05624 14.6924 2.03866 14.7151 2.00351 14.7151V14.7834H1.95079H1.91564C1.90393 14.7834 1.89807 14.8004 1.89807 14.8345H1.91564C1.92736 14.8345 1.93907 14.8402 1.95079 14.8516V14.7834H2.00351C2.00351 14.8175 2.00937 14.8459 2.02109 14.8686C2.04452 14.8913 2.05624 14.9084 2.05624 14.9198V14.9709C2.07967 14.9709 2.09139 14.9823 2.09139 15.005C2.11482 15.0278 2.1324 15.0391 2.14411 15.0391C2.16755 15.0505 2.18512 15.0675 2.19684 15.0903V15.1073V15.2437C2.19684 15.3006 2.21441 15.3517 2.24956 15.3972V15.4654C2.22613 15.4654 2.20269 15.454 2.17926 15.4313C2.16755 15.4199 2.14997 15.4142 2.12654 15.4142C2.12654 15.4029 2.1324 15.3858 2.14411 15.3631C2.16755 15.3517 2.17926 15.3404 2.17926 15.329V15.2778C2.16755 15.2778 2.15583 15.2722 2.14411 15.2608C2.1324 15.2494 2.12654 15.2324 2.12654 15.2096C2.12654 15.1414 2.11482 15.1073 2.09139 15.1073C2.04452 15.0846 1.99766 15.0505 1.95079 15.005H1.89807V14.9198C1.89807 14.9084 1.88635 14.897 1.86292 14.8857C1.8512 14.8857 1.84534 14.8743 1.84534 14.8516C1.81019 14.8516 1.7809 14.8686 1.75747 14.9027C1.75747 14.88 1.76333 14.8572 1.77504 14.8345C1.78676 14.8231 1.79262 14.8061 1.79262 14.7834C1.76919 14.7834 1.75161 14.7663 1.73989 14.7322C1.75161 14.7322 1.75747 14.7265 1.75747 14.7151C1.75747 14.6697 1.75161 14.6299 1.73989 14.5958C1.70475 14.5958 1.68717 14.5844 1.68717 14.5617C1.72232 14.5617 1.74575 14.5503 1.75747 14.5276V14.5105C1.75747 14.4878 1.76919 14.4764 1.79262 14.4764C1.82777 14.4651 1.82777 14.4594 1.79262 14.4594V14.4253V14.34C1.7809 14.34 1.76919 14.3457 1.75747 14.3571V14.3741H1.73989V14.4253H1.68717C1.68717 14.4025 1.69303 14.3855 1.70475 14.3741C1.72818 14.3741 1.73989 14.3628 1.73989 14.34H1.75747C1.75747 14.3173 1.76333 14.3002 1.77504 14.2889C1.78676 14.2889 1.79262 14.2775 1.79262 14.2548C1.79262 14.2434 1.79848 14.232 1.81019 14.2207C1.83363 14.2207 1.84534 14.2093 1.84534 14.1866H1.86292C1.88635 14.1866 1.89807 14.1752 1.89807 14.1525C1.86292 14.1297 1.84534 14.0956 1.84534 14.0502C1.84534 14.0274 1.83363 14.0047 1.81019 13.9819C1.79848 13.9706 1.79262 13.9478 1.79262 13.9137C1.76919 13.891 1.76333 13.874 1.77504 13.8626C1.78676 13.8512 1.7809 13.8455 1.75747 13.8455C1.74575 13.8001 1.69303 13.7773 1.5993 13.7773C1.56415 13.7773 1.52314 13.7603 1.47627 13.7262C1.51142 13.7034 1.529 13.675 1.529 13.6409C1.529 13.6182 1.51142 13.5955 1.47627 13.5727V13.5045C1.52314 13.5386 1.56415 13.5557 1.5993 13.5557C1.5993 13.4988 1.58172 13.4704 1.54657 13.4704H1.47627C1.46456 13.4136 1.4587 13.3567 1.4587 13.2999H1.47627V13.317V13.3681H1.56415C1.55243 13.334 1.54657 13.3113 1.54657 13.2999H1.56415V13.1976C1.55243 13.1976 1.52314 13.1919 1.47627 13.1805L1.51142 13.1464C1.53486 13.1237 1.54657 13.1123 1.54657 13.1123C1.51142 13.1123 1.48213 13.1123 1.4587 13.1123C1.43527 13.1123 1.42355 13.0953 1.42355 13.0612C1.44698 13.0384 1.46456 13.0271 1.47627 13.0271C1.52314 13.0271 1.54657 13.0384 1.54657 13.0612C1.55829 13.0384 1.56415 13.0157 1.56415 12.993C1.58758 12.993 1.61101 12.9816 1.63445 12.9589C1.65788 12.9475 1.69303 12.9418 1.73989 12.9418H1.75747V12.9077C1.7809 12.9077 1.80434 12.9077 1.82777 12.9077C1.8512 12.9077 1.87463 12.9191 1.89807 12.9418C1.93322 12.9191 1.95079 12.885 1.95079 12.8395H1.98594C1.99766 12.8395 2.00351 12.8338 2.00351 12.8225C2.01523 12.8111 2.03281 12.8054 2.05624 12.8054C2.00937 12.7827 1.9918 12.7713 2.00351 12.7713H1.98594V12.7031C1.99766 12.7031 2.00351 12.7145 2.00351 12.7372C2.01523 12.7599 2.03281 12.7713 2.05624 12.7713V12.7031C2.03281 12.6917 2.01523 12.6804 2.00351 12.669C1.9918 12.6463 1.97422 12.6349 1.95079 12.6349C1.97422 12.6349 1.98594 12.6292 1.98594 12.6179V12.6008H1.95079C1.97422 12.5781 1.98594 12.5724 1.98594 12.5838C1.98594 12.5951 1.9918 12.6008 2.00351 12.6008C2.03866 12.6235 2.07967 12.6349 2.12654 12.6349H2.19684V12.652H2.21441C2.21441 12.652 2.22613 12.6463 2.24956 12.6349V12.6008V12.5667C2.24956 12.4871 2.22613 12.4473 2.17926 12.4473C2.1324 12.4701 2.1031 12.4758 2.09139 12.4644C2.09139 12.453 2.07967 12.4417 2.05624 12.4303V12.328C2.07967 12.3166 2.08553 12.3109 2.07381 12.3109C2.0621 12.2996 2.05624 12.2825 2.05624 12.2598C2.03281 12.2598 2.01523 12.2598 2.00351 12.2598C2.00351 12.2484 1.99766 12.2427 1.98594 12.2427V12.1916C1.96251 12.1688 1.95079 12.1177 1.95079 12.0381H1.98594V12.0211C1.99766 12.0211 2.00351 12.004 2.00351 11.9699L1.98594 12.0211H1.95079C1.95079 11.9642 1.91564 11.9358 1.84534 11.9358C1.82191 11.9358 1.79848 11.9415 1.77504 11.9529C1.76333 11.9642 1.75747 11.9585 1.75747 11.9358C1.75747 11.9244 1.75161 11.9188 1.73989 11.9188C1.71646 11.9188 1.69889 11.9244 1.68717 11.9358H1.6696C1.64616 11.9358 1.62273 11.9244 1.5993 11.9017V11.8506C1.5993 11.8847 1.60516 11.9017 1.61687 11.9017H1.65202V11.8506H1.68717V11.8335C1.68717 11.8108 1.69303 11.7937 1.70475 11.7823C1.71646 11.771 1.72818 11.7653 1.73989 11.7653C1.77504 11.7653 1.79262 11.7482 1.79262 11.7141C1.79262 11.68 1.79848 11.663 1.81019 11.663H1.84534V11.6459H1.95079C1.93907 11.6346 1.93322 11.6232 1.93322 11.6118C1.93322 11.6005 1.93907 11.5891 1.95079 11.5777C1.95079 11.5891 1.95665 11.6005 1.96837 11.6118C1.98008 11.6118 1.98594 11.6232 1.98594 11.6459C1.98594 11.6118 1.9918 11.5948 2.00351 11.5948C1.9918 11.5834 1.98594 11.5664 1.98594 11.5436C1.99766 11.5209 1.99766 11.4982 1.98594 11.4754C1.98594 11.4982 1.97422 11.5095 1.95079 11.5095V11.4925H1.93322C1.9215 11.4925 1.90978 11.4868 1.89807 11.4754H1.95079C1.97422 11.4527 1.98594 11.4243 1.98594 11.3902H1.89807C1.86292 11.3902 1.84534 11.3731 1.84534 11.339H1.73989L1.68717 11.2879H1.73989C1.71646 11.2651 1.69889 11.2481 1.68717 11.2367C1.68717 11.214 1.67545 11.1912 1.65202 11.1685V11.1515C1.67545 11.1515 1.7106 11.1287 1.75747 11.0833C1.72232 11.0491 1.7106 11.0321 1.72232 11.0321H1.68717C1.68717 11.0321 1.68131 11.0207 1.6696 10.998V10.9809H1.65202C1.61687 10.9582 1.5993 10.9355 1.5993 10.9127C1.5993 10.8673 1.61687 10.8332 1.65202 10.8104V10.7763H1.6696L1.65202 10.7252H1.56415C1.55243 10.7024 1.53486 10.6854 1.51142 10.674C1.48799 10.6627 1.47042 10.6342 1.4587 10.5888C1.43527 10.566 1.42355 10.5433 1.42355 10.5206V10.5035H1.4587C1.47042 10.5035 1.47627 10.4978 1.47627 10.4865V10.4012C1.47627 10.3898 1.47042 10.3785 1.4587 10.3671C1.43527 10.333 1.42941 10.3159 1.44113 10.3159C1.46456 10.3046 1.47042 10.2989 1.4587 10.2989H1.42355H1.37083C1.37083 10.2989 1.37668 10.2932 1.3884 10.2818H1.42355C1.44698 10.2818 1.46456 10.2648 1.47627 10.2307H1.54657L1.56415 10.2136V10.2307C1.62273 10.2307 1.65202 10.2307 1.65202 10.2307H1.68717V10.2136C1.66374 10.1795 1.63445 10.1625 1.5993 10.1625C1.57586 10.1625 1.55829 10.1568 1.54657 10.1454C1.53486 10.1227 1.51142 10.1113 1.47627 10.1113V10.0943L1.51142 10.0602C1.53486 10.0374 1.54657 10.0147 1.54657 9.99198H1.56415C1.58758 9.99198 1.5993 9.99198 1.5993 9.99198C1.61101 9.98061 1.62859 9.97493 1.65202 9.97493V9.85557V9.82146H1.56415V9.80441C1.56415 9.78168 1.57001 9.77031 1.58172 9.77031C1.59344 9.75894 1.58758 9.74189 1.56415 9.71916C1.56415 9.66232 1.55829 9.62822 1.54657 9.61685H1.47627C1.52314 9.58275 1.54657 9.56001 1.54657 9.54865C1.54657 9.52591 1.53486 9.50886 1.51142 9.49749C1.48799 9.48613 1.47627 9.46907 1.47627 9.44634H1.4587L1.42355 9.36108H1.54657C1.55829 9.32698 1.56415 9.2872 1.56415 9.24173H1.58172V9.22467C1.58172 9.22467 1.58758 9.21331 1.5993 9.19057H1.56415C1.56415 9.15647 1.57001 9.13942 1.58172 9.13942H1.5993H1.65202C1.65202 9.12805 1.6403 9.111 1.61687 9.08826C1.60516 9.08826 1.5993 9.08258 1.5993 9.07121C1.57586 9.07121 1.56415 9.05985 1.56415 9.03711V8.98596H1.65202H1.6696V9.00301C1.6696 9.01438 1.67545 9.02574 1.68717 9.03711V8.98596V8.96891C1.68717 8.96891 1.70475 8.95754 1.73989 8.93481C1.70475 8.9007 1.67545 8.88365 1.65202 8.88365C1.65202 8.86092 1.63445 8.84955 1.5993 8.84955C1.51728 8.84955 1.47627 8.82113 1.47627 8.76429C1.46456 8.74156 1.44698 8.73019 1.42355 8.73019H1.37083C1.37083 8.70746 1.37668 8.70177 1.3884 8.71314C1.41183 8.72451 1.42355 8.71882 1.42355 8.69609H1.44113C1.45284 8.69609 1.46456 8.6904 1.47627 8.67904C1.46456 8.6563 1.45284 8.63357 1.44113 8.61083C1.44113 8.5881 1.41769 8.57673 1.37083 8.57673V8.55968C1.40598 8.55968 1.42355 8.554 1.42355 8.54263V8.50853C1.3884 8.50853 1.35911 8.49148 1.33568 8.45737V8.55968L1.28295 8.50853C1.27124 8.50853 1.26538 8.50284 1.26538 8.49147C1.26538 8.46874 1.27124 8.45737 1.28295 8.45737V8.44032C1.28295 8.41759 1.31224 8.40622 1.37083 8.40622C1.37083 8.42895 1.40012 8.44032 1.4587 8.44032C1.4587 8.39485 1.44698 8.37212 1.42355 8.37212C1.41183 8.37212 1.40012 8.36643 1.3884 8.35507C1.36497 8.33233 1.34739 8.32096 1.33568 8.32096V8.28686H1.28295C1.27124 8.28686 1.26538 8.28118 1.26538 8.26981C1.27709 8.21297 1.27709 8.17319 1.26538 8.15045V8.0993C1.26538 8.0993 1.27709 8.09361 1.30053 8.08225C1.31224 8.08225 1.32396 8.07656 1.33568 8.0652L1.28295 8.03109H1.30053C1.30053 8.03109 1.31224 8.02541 1.33568 8.01404H1.37083C1.37083 7.97994 1.37668 7.96289 1.3884 7.96289H1.42355C1.44698 7.92879 1.45284 7.91174 1.44113 7.91174C1.42941 7.90037 1.42355 7.889 1.42355 7.87763C1.44698 7.84353 1.42941 7.82648 1.37083 7.82648H1.33568H1.37083C1.41769 7.82648 1.44113 7.81511 1.44113 7.79238C1.45284 7.76964 1.4587 7.74691 1.4587 7.72417V7.69007H1.47627C1.47627 7.66734 1.48213 7.65597 1.49385 7.65597C1.51728 7.6446 1.51142 7.62755 1.47627 7.60481L1.54657 7.58776C1.54657 7.56503 1.53486 7.55934 1.51142 7.57071C1.48799 7.57071 1.47042 7.55934 1.4587 7.53661C1.4587 7.53661 1.46456 7.53093 1.47627 7.51956V7.50251C1.49971 7.51388 1.51728 7.51956 1.529 7.51956L1.54657 7.50251L1.56415 7.46841V7.41725C1.55243 7.41725 1.54657 7.41157 1.54657 7.4002V7.34905C1.54657 7.33768 1.50557 7.332 1.42355 7.332C1.42355 7.26379 1.43527 7.22969 1.4587 7.22969C1.43527 7.20695 1.40598 7.20695 1.37083 7.22969V7.19559C1.37083 7.17285 1.35911 7.16148 1.33568 7.16148H1.28295L1.33568 7.14443H1.42355C1.42355 7.11033 1.43527 7.09328 1.4587 7.09328C1.43527 7.05918 1.40598 7.03644 1.37083 7.02508C1.34739 7.03644 1.3181 7.03644 1.28295 7.02508V6.97392C1.3181 6.97392 1.33568 6.96824 1.33568 6.95687V6.92277V6.87162H1.37083H1.42355C1.40012 6.84888 1.39426 6.83751 1.40598 6.83751C1.41769 6.82615 1.42355 6.80909 1.42355 6.78636H1.28295C1.30639 6.76362 1.32982 6.75226 1.35325 6.75226C1.37668 6.75226 1.40012 6.74657 1.42355 6.73521C1.44698 6.73521 1.4587 6.71247 1.4587 6.667C1.4587 6.64427 1.42941 6.6329 1.37083 6.6329V6.667V6.54764H1.33568V6.47944V6.41123C1.32396 6.41123 1.3181 6.40555 1.3181 6.39418C1.29467 6.37145 1.27709 6.36008 1.26538 6.36008C1.26538 6.34871 1.27124 6.32598 1.28295 6.29188V6.24072C1.28295 6.22935 1.28881 6.22367 1.30053 6.22367C1.32396 6.22367 1.33568 6.2123 1.33568 6.18957L1.35325 6.17252C1.36497 6.17252 1.37083 6.17252 1.37083 6.17252C1.38254 6.16115 1.40012 6.15547 1.42355 6.15547H1.47627H1.51142C1.53486 6.15547 1.54657 6.13842 1.54657 6.10431C1.55829 6.13842 1.57586 6.13842 1.5993 6.10431H1.61687C1.6403 6.10431 1.65202 6.09295 1.65202 6.07021H1.6696C1.6696 6.07021 1.67545 6.06453 1.68717 6.05316H1.65202H1.68717C1.68717 5.99632 1.70475 5.9679 1.73989 5.9679H1.75747C1.75747 5.92243 1.76333 5.90538 1.77504 5.91675C1.78676 5.91675 1.79262 5.90538 1.79262 5.88265C1.80434 5.88265 1.81019 5.87696 1.81019 5.8656C1.81019 5.8656 1.80434 5.85991 1.79262 5.84855C1.79262 5.81444 1.81019 5.79739 1.84534 5.79739H1.79262L1.84534 5.74624C1.84534 5.78034 1.88049 5.79739 1.95079 5.79739V5.74624H1.89807V5.69509H1.84534C1.81019 5.69509 1.79262 5.6894 1.79262 5.67803V5.66098C1.76919 5.60415 1.78676 5.55868 1.84534 5.52457L1.89807 5.49047C1.89807 5.445 1.90393 5.41658 1.91564 5.40522L1.95079 5.37111H1.84534V5.42227H1.79262H1.75747V5.28586C1.7809 5.28586 1.79262 5.29154 1.79262 5.30291C1.80434 5.31428 1.82191 5.31996 1.84534 5.31996L1.89807 5.37111V5.28586H1.98594C1.96251 5.25176 1.96251 5.22334 1.98594 5.2006L1.95079 5.18355C1.88049 5.18355 1.82777 5.18923 1.79262 5.2006C1.79262 5.21197 1.78676 5.22334 1.77504 5.2347H1.75747C1.75747 5.2006 1.75747 5.18355 1.75747 5.18355C1.75747 5.13808 1.78676 5.11535 1.84534 5.11535C1.78676 5.11535 1.75747 5.10966 1.75747 5.09829C1.7809 5.07556 1.7809 5.06988 1.75747 5.08124C1.74575 5.09261 1.74575 5.08693 1.75747 5.06419H1.79262C1.79262 5.03009 1.77504 5.01304 1.73989 5.01304C1.75161 4.9903 1.76919 4.96757 1.79262 4.94483C1.76919 4.93347 1.73404 4.92778 1.68717 4.92778V4.82548C1.66374 4.84821 1.6403 4.86526 1.61687 4.87663C1.60516 4.888 1.58758 4.90505 1.56415 4.92778C1.56415 4.89368 1.55829 4.85958 1.54657 4.82548C1.54657 4.82548 1.55243 4.83684 1.56415 4.85958V4.87663C1.58758 4.8539 1.60516 4.83684 1.61687 4.82548C1.6403 4.80274 1.65202 4.78001 1.65202 4.75727C1.65202 4.72317 1.63445 4.70612 1.5993 4.70612H1.56415V4.68907H1.47627V4.65496H1.42355C1.41183 4.65496 1.40012 4.64928 1.3884 4.63791C1.37668 4.62655 1.37083 4.60381 1.37083 4.56971C1.40598 4.56971 1.42355 4.55266 1.42355 4.51856H1.33568C1.35911 4.51856 1.37083 4.5015 1.37083 4.4674H1.33568V4.4333V4.3992V4.4333C1.38254 4.4333 1.41183 4.42762 1.42355 4.41625C1.44698 4.40488 1.46456 4.3992 1.47627 4.3992V4.34804C1.47627 4.32531 1.47042 4.31394 1.4587 4.31394H1.42355H1.44113C1.44113 4.31394 1.44698 4.30257 1.4587 4.27984C1.43527 4.27984 1.42355 4.27416 1.42355 4.26279V4.24574C1.3884 4.24574 1.37083 4.22869 1.37083 4.19458H1.33568V4.14343C1.33568 4.1207 1.3181 4.10933 1.28295 4.10933V4.02407C1.27124 4.0127 1.25366 4.00702 1.23023 4.00702C1.17165 4.00702 1.14236 3.98429 1.14236 3.93882V3.97292V3.88766L1.1775 3.83651V3.75125H1.14236H1.10721H1.07206C1.06034 3.75125 1.05448 3.7342 1.05448 3.7001C1.04277 3.67737 1.02519 3.666 1.00176 3.666C0.990041 3.666 0.984183 3.65463 0.984183 3.6319C0.984183 3.60916 0.96075 3.58643 0.913884 3.56369C0.867018 3.56369 0.843585 3.53527 0.843585 3.47844V3.44433C0.79672 3.35339 0.779145 3.25677 0.790861 3.15446V3.12036V3.08626H0.773287C0.773287 3.00669 0.755712 2.94417 0.720563 2.8987C0.720563 2.86459 0.702988 2.83049 0.667838 2.79639C0.667838 2.75092 0.656122 2.69977 0.632689 2.64293C0.620973 2.58609 0.603398 2.52925 0.579965 2.47242C0.568248 2.44968 0.56239 2.39853 0.56239 2.31896C0.56239 2.30759 0.550674 2.29054 0.527241 2.2678C0.515524 2.24507 0.509666 2.21665 0.509666 2.18255C0.509666 2.12571 0.527241 2.08024 0.56239 2.04614H0.527241C0.515524 2.04614 0.509666 2.02909 0.509666 1.99498V2.04614C0.4628 2.00067 0.480375 1.9552 0.56239 1.90973H0.509666C0.509666 1.88699 0.509666 1.86426 0.509666 1.84152C0.521383 1.81879 0.538957 1.80174 0.56239 1.79037C0.56239 1.79037 0.568248 1.78469 0.579965 1.77332V1.75627H0.56239H0.509666C0.544816 1.75627 0.568248 1.7449 0.579965 1.72217C0.568248 1.72217 0.56239 1.71648 0.56239 1.70512V1.67101C0.503808 1.64828 0.474517 1.63123 0.474517 1.61986C0.474517 1.60849 0.486233 1.58007 0.509666 1.5346C0.544816 1.5346 0.56239 1.56302 0.56239 1.61986V1.63691C0.56239 1.64828 0.568248 1.65965 0.579965 1.67101H0.615114C0.615114 1.68238 0.620973 1.68806 0.632689 1.68806C0.644405 1.68806 0.656122 1.68238 0.667838 1.67101V1.61986C0.667838 1.59712 0.656122 1.57439 0.632689 1.55166C0.620973 1.52892 0.615114 1.50619 0.615114 1.48345H0.579965C0.568248 1.48345 0.56239 1.47208 0.56239 1.44935V1.41525H0.509666C0.509666 1.36978 0.527241 1.34704 0.56239 1.34704H0.456942C0.456942 1.32431 0.4628 1.31294 0.474517 1.31294C0.49795 1.30157 0.509666 1.28452 0.509666 1.26179C0.451084 1.26179 0.421793 1.222 0.421793 1.14243C0.421793 1.09696 0.392502 1.07422 0.333919 1.07422C0.322203 1.07422 0.316345 1.06854 0.316345 1.05717C0.281195 1.03444 0.234329 1.01739 0.175747 1.00602C0.128881 0.983283 0.0878736 0.983283 0.0527242 1.00602H0.0175747C0.00585824 1.00602 0 0.988967 0 0.954864H0.123023H0.246046H0.228471C0.216755 0.954864 0.205038 0.949181 0.193322 0.937814C0.228471 0.949181 0.269479 0.949181 0.316345 0.937814V0.903711C0.292912 0.858242 0.275337 0.824139 0.26362 0.801404C0.26362 0.778669 0.257762 0.744567 0.246046 0.699097V0.647944C0.222613 0.591106 0.19918 0.551321 0.175747 0.528586C0.152314 0.494484 0.140598 0.466065 0.140598 0.44333C0.128881 0.44333 0.123023 0.426279 0.123023 0.392177V0.358074L0.140598 0.323972L0.123023 0.272818V0.255767H0.0878736C0.111306 0.233032 0.111306 0.210298 0.0878736 0.187562C0.0644407 0.187562 0.0527242 0.15346 0.0527242 0.0852557L0.0878736 0.0341019V0.0170509C0.0878736 0.0170509 0.09959 0.0113673 0.123023 0V0.0852557C0.123023 0.119358 0.128881 0.119358 0.140598 0.0852557C0.164031 0.142093 0.187463 0.187563 0.210896 0.221665C0.234329 0.255767 0.246046 0.289869 0.246046 0.323972C0.269479 0.449013 0.316344 0.574055 0.386643 0.699097C0.386643 0.733199 0.392501 0.755934 0.404218 0.767302C0.415934 0.767302 0.421793 0.772986 0.421793 0.784353H0.439367C0.439367 0.784353 0.445226 0.79572 0.456942 0.818455C0.456942 0.79572 0.456942 0.79572 0.456942 0.818455C0.456942 0.84119 0.445226 0.84119 0.421793 0.818455V0.903711L0.456942 0.869609V0.937814C0.433509 0.937814 0.427651 0.943497 0.439367 0.954864C0.451084 0.966232 0.456942 0.983283 0.456942 1.00602V1.05717C0.456942 1.05717 0.468659 1.06286 0.492092 1.07422H0.509666C0.509666 1.11969 0.515524 1.14811 0.527241 1.15948L0.56239 1.19358C0.574107 1.21632 0.579965 1.23905 0.579965 1.26179C0.603398 1.26179 0.615114 1.2902 0.615114 1.34704C0.650264 1.35841 0.667838 1.40388 0.667838 1.48345L0.720563 1.5346V1.48345C0.755712 1.48345 0.773287 1.49482 0.773287 1.51755V1.5346C0.76157 1.54597 0.755712 1.56302 0.755712 1.58576C0.755712 1.59712 0.76157 1.60849 0.773287 1.61986V1.75627C0.773287 1.779 0.755712 1.79606 0.720563 1.80742L0.773287 1.87563H0.667838C0.644406 1.90973 0.632689 1.93246 0.632689 1.94383C0.632689 1.9552 0.66198 1.97225 0.720563 1.99498C0.685413 1.99498 0.667838 2.01204 0.667838 2.04614V2.13139C0.691271 2.15413 0.69713 2.18255 0.685413 2.21665C0.685413 2.25075 0.69713 2.27917 0.720563 2.30191C0.69713 2.32464 0.691271 2.34738 0.702988 2.37011C0.714704 2.39284 0.720563 2.41558 0.720563 2.43832C0.755712 2.43832 0.773287 2.42695 0.773287 2.40421H0.790861C0.790861 2.42695 0.785003 2.43832 0.773287 2.43832C0.773287 2.43832 0.773287 2.44968 0.773287 2.47242C0.785003 2.48378 0.785003 2.50652 0.773287 2.54062C0.785003 2.57472 0.790861 2.61451 0.790861 2.65998V2.69408C0.790861 2.70545 0.790861 2.71113 0.790861 2.71113C0.779145 2.7225 0.785003 2.72818 0.808436 2.72818H0.843585V2.76229V2.79639C0.843585 2.81912 0.843585 2.83618 0.843585 2.84754C0.855302 2.84754 0.855302 2.85891 0.843585 2.88165V2.8987C0.855302 2.94417 0.86116 3.00669 0.86116 3.08626C0.86116 3.10899 0.867018 3.12605 0.878735 3.13741C0.902168 3.14878 0.913884 3.16015 0.913884 3.17151C0.9256 3.17151 0.931459 3.17151 0.931459 3.17151C0.943175 3.16015 0.954892 3.15446 0.966608 3.15446H0.984183H1.14236C1.14236 3.16583 1.1365 3.1772 1.12478 3.18857C1.11306 3.18857 1.11892 3.19993 1.14236 3.22267C1.16579 3.18857 1.19508 3.16583 1.23023 3.15446V3.17151V3.15446C1.25366 3.15446 1.26538 3.16015 1.26538 3.17151C1.26538 3.17151 1.27124 3.17151 1.28295 3.17151C1.25952 3.17151 1.24195 3.18288 1.23023 3.20562C1.21851 3.21698 1.20094 3.22267 1.1775 3.22267V3.27382C1.16579 3.26245 1.14821 3.25677 1.12478 3.25677C1.11306 3.25677 1.10721 3.26245 1.10721 3.27382C1.07206 3.28519 1.04862 3.30792 1.03691 3.34203C1.03691 3.34203 1.04277 3.34771 1.05448 3.35908V3.41023C1.07791 3.43297 1.09549 3.46138 1.10721 3.49549C1.13064 3.51822 1.14236 3.54096 1.14236 3.56369C1.16579 3.57506 1.1775 3.59779 1.1775 3.6319H1.28295V3.666C1.30639 3.71147 1.33568 3.75694 1.37083 3.80241C1.40598 3.83651 1.42355 3.86493 1.42355 3.88766V3.97292V4.02407C1.44698 4.05817 1.48799 4.08659 1.54657 4.10933C1.54657 4.05249 1.56415 4.02407 1.5993 4.02407H1.68717V4.07523C1.66374 4.09796 1.64616 4.11501 1.63445 4.12638C1.63445 4.13775 1.62273 4.14343 1.5993 4.14343C1.65788 4.21164 1.67545 4.2571 1.65202 4.27984L1.68717 4.31394V4.3992L1.73989 4.4333H1.68717V4.3992V4.4333C1.66374 4.5015 1.68717 4.56403 1.75747 4.62086C1.75747 4.6436 1.76919 4.66633 1.79262 4.68907V4.67202H1.81019C1.81019 4.67202 1.82191 4.66633 1.84534 4.65496C1.82191 4.6777 1.81605 4.69475 1.82777 4.70612C1.83948 4.71749 1.84534 4.73454 1.84534 4.75727C1.86878 4.78001 1.89221 4.80274 1.91564 4.82548C1.95079 4.83684 1.98008 4.8539 2.00351 4.87663C2.02695 4.87663 2.03866 4.888 2.03866 4.91073C2.05038 4.93347 2.05624 4.9562 2.05624 4.97894C2.05624 5.03577 2.06796 5.06419 2.09139 5.06419C2.09139 5.08693 2.09725 5.09829 2.10896 5.09829C2.12068 5.09829 2.12654 5.10398 2.12654 5.11535C2.11482 5.11535 2.10896 5.12671 2.10896 5.14945C2.10896 5.16082 2.11482 5.17218 2.12654 5.18355C2.16169 5.18355 2.17926 5.18923 2.17926 5.2006C2.19098 5.2006 2.19684 5.21197 2.19684 5.2347V5.37111C2.18512 5.39385 2.17926 5.42227 2.17926 5.45637C2.19098 5.4791 2.19098 5.50184 2.17926 5.52457H2.12654C2.11482 5.52457 2.1031 5.53026 2.09139 5.54163V5.55868H2.12654H2.14411C2.15583 5.55868 2.16755 5.56436 2.17926 5.57573V5.62688H2.19684V5.57573C2.22027 5.59846 2.22613 5.6212 2.21441 5.64393C2.20269 5.6553 2.19098 5.66098 2.17926 5.66098H2.19684V5.69509C2.19684 5.72919 2.20269 5.74624 2.21441 5.74624H2.24956V5.79739C2.20269 5.79739 2.17926 5.81444 2.17926 5.84855C2.14411 5.84855 2.11482 5.83149 2.09139 5.79739V5.84855C2.11482 5.87128 2.12068 5.89402 2.10896 5.91675C2.09725 5.92812 2.10311 5.94517 2.12654 5.9679L2.17926 5.9338C2.22613 5.9338 2.24956 5.91675 2.24956 5.88265H2.28471H2.26714C2.25542 5.88265 2.24956 5.8997 2.24956 5.9338H2.28471C2.28471 5.91107 2.29057 5.8997 2.30228 5.8997C2.314 5.8997 2.31986 5.91107 2.31986 5.9338C2.27299 5.9338 2.24956 5.94517 2.24956 5.9679C2.24956 5.99064 2.2437 6.01337 2.23199 6.03611C2.22027 6.04748 2.22613 6.05884 2.24956 6.07021C2.27299 6.07021 2.314 6.09863 2.37258 6.15547V6.18957C2.39602 6.2123 2.42531 6.22367 2.46046 6.22367C2.46046 6.23504 2.47803 6.25777 2.51318 6.29188C2.51318 6.32598 2.53076 6.34303 2.56591 6.34303C2.55419 6.34303 2.54833 6.33735 2.54833 6.32598C2.54833 6.30324 2.55419 6.29188 2.56591 6.29188C2.56591 6.32598 2.57762 6.34303 2.60105 6.34303C2.60105 6.30893 2.60691 6.29188 2.61863 6.29188H2.6362C2.6362 6.29188 2.63035 6.28051 2.61863 6.25777V6.24072H2.60105C2.57762 6.24072 2.56591 6.23504 2.56591 6.22367V6.18957C2.61277 6.18957 2.64206 6.20094 2.65378 6.22367C2.68893 6.22367 2.72408 6.22935 2.75923 6.24072C2.75923 6.25209 2.76509 6.25777 2.7768 6.25777C2.80023 6.25777 2.81781 6.25209 2.82953 6.24072V6.34303H2.79438C2.79438 6.3544 2.80609 6.36008 2.82953 6.36008C2.86467 6.36008 2.89982 6.37145 2.93497 6.39418C2.97012 6.41692 3.01699 6.43965 3.07557 6.46239C3.11072 6.46239 3.11072 6.47944 3.07557 6.51354H2.97012C2.95841 6.53628 2.93497 6.56469 2.89982 6.5988V6.6329H2.97012H3.16344V6.5988H3.18102C3.18102 6.6329 3.17516 6.65563 3.16344 6.667C3.15173 6.67837 3.13415 6.7011 3.11072 6.73521L3.16344 6.75226C3.10486 6.75226 3.07557 6.76362 3.07557 6.78636H3.16344C3.16344 6.82046 3.13415 6.83751 3.07557 6.83751V6.87162H2.97012C2.95841 6.89435 2.95841 6.92845 2.97012 6.97392L3.00527 7.00802C3.02871 7.03076 3.05214 7.04213 3.07557 7.04213C3.00527 7.04213 2.9877 7.05918 3.02285 7.09328H3.07557V7.12738C3.07557 7.13875 3.08729 7.14443 3.11072 7.14443C3.11072 7.13307 3.11658 7.12738 3.1283 7.12738C3.14001 7.12738 3.15173 7.13307 3.16344 7.14443C3.17516 7.14443 3.18102 7.15012 3.18102 7.16148C3.19274 7.16148 3.21031 7.16148 3.23374 7.16148H3.30404V7.14443C3.35091 7.1558 3.37434 7.16148 3.37434 7.16148V7.14443C3.40949 7.14443 3.42707 7.16148 3.42707 7.19559C3.40363 7.21832 3.37434 7.22401 3.33919 7.21264C3.31576 7.20127 3.29818 7.19559 3.28647 7.19559C3.28647 7.21832 3.28647 7.24106 3.28647 7.26379C3.29818 7.28653 3.30404 7.30926 3.30404 7.332H3.32162C3.32162 7.332 3.31576 7.33768 3.30404 7.34905H3.37434C3.39777 7.38315 3.40363 7.41157 3.39192 7.4343C3.3802 7.45704 3.36848 7.46841 3.35677 7.46841C3.32162 7.49114 3.29818 7.50251 3.28647 7.50251H3.25132C3.22789 7.50251 3.20445 7.51388 3.18102 7.53661V7.50251H3.16344L3.18102 7.51956V7.53661C3.21617 7.53661 3.23374 7.55366 3.23374 7.58776C3.23374 7.59913 3.24546 7.60481 3.26889 7.60481C3.30404 7.60481 3.33333 7.61618 3.35677 7.63892H3.37434C3.39777 7.63892 3.42707 7.63323 3.46221 7.62187C3.49736 7.6105 3.52666 7.60481 3.55009 7.60481V7.53661C3.59695 7.53661 3.62039 7.55366 3.62039 7.58776H3.65554C3.65554 7.58776 3.68483 7.60481 3.74341 7.63892C3.76684 7.63892 3.78442 7.63323 3.79613 7.62187C3.81957 7.6105 3.843 7.61618 3.86643 7.63892L3.88401 7.60481C3.91916 7.59345 3.93673 7.57071 3.93673 7.53661H3.95431C3.95431 7.53661 3.96016 7.52524 3.97188 7.50251H4.00703V7.58776C4.04218 7.55366 4.0949 7.53661 4.1652 7.53661V7.57071C4.1652 7.59345 4.17692 7.60481 4.20035 7.60481C4.22378 7.60481 4.22964 7.59913 4.21793 7.58776C4.21793 7.5764 4.22964 7.55934 4.25308 7.53661L4.3058 7.58776C4.3058 7.59913 4.28822 7.61618 4.25308 7.63892H4.27065C4.29408 7.63892 4.3058 7.65597 4.3058 7.69007V7.60481C4.3058 7.62755 4.32337 7.65597 4.35852 7.69007V7.63892C4.42882 7.63892 4.46397 7.62755 4.46397 7.60481C4.4874 7.62755 4.5167 7.65028 4.55185 7.67302C4.59871 7.68439 4.63386 7.69007 4.65729 7.69007C4.68073 7.69007 4.69244 7.67302 4.69244 7.63892H4.78032V7.69007C4.78032 7.71281 4.78617 7.72417 4.79789 7.72417V7.69007H4.97364C4.97364 7.66734 4.97364 7.65597 4.97364 7.65597C4.98535 7.6446 4.99121 7.62755 4.99121 7.60481H5.07909C5.13767 7.59345 5.21383 7.58776 5.30756 7.58776L5.34271 7.60481H5.36028C5.38371 7.60481 5.39543 7.61618 5.39543 7.63892H5.50088C5.50088 7.65028 5.50674 7.65597 5.51845 7.65597L5.53603 7.63892V7.58776V7.60481H5.58875V7.58776H5.64148V7.53661L5.8348 7.50251V7.46841C5.86995 7.45704 5.88752 7.45704 5.88752 7.46841C5.88752 7.47977 5.88166 7.49114 5.86995 7.50251H5.92267L5.94025 7.46841V7.48546C5.94025 7.49682 5.95782 7.50251 5.99297 7.50251H5.94025H5.99297V7.48546C5.99297 7.48546 6.00469 7.46272 6.02812 7.41725C5.96954 7.41725 5.94025 7.41157 5.94025 7.4002C5.94025 7.37747 5.9461 7.37747 5.95782 7.4002C5.98125 7.41157 6.00469 7.41157 6.02812 7.4002C6.02812 7.37747 6.02812 7.37747 6.02812 7.4002C6.02812 7.41157 6.03984 7.41725 6.06327 7.41725L6.11599 7.4002H6.13357C6.16872 7.4002 6.18629 7.39452 6.18629 7.38315V7.34905C6.19801 7.34905 6.20387 7.36041 6.20387 7.38315C6.21558 7.39452 6.23316 7.4002 6.25659 7.4002H6.34446C6.34446 7.4002 6.33861 7.38883 6.32689 7.3661V7.34905H6.30931C6.25073 7.34905 6.21558 7.34905 6.20387 7.34905C6.20387 7.34905 6.19801 7.34336 6.18629 7.332H6.20387C6.26245 7.27516 6.30931 7.27516 6.34446 7.332L6.37961 7.28084V7.22969V7.19559C6.37961 7.19559 6.39133 7.20127 6.41476 7.21264C6.42648 7.22401 6.4382 7.22969 6.44991 7.22969H6.52021H6.57293C6.57293 7.20695 6.56122 7.1899 6.53779 7.17854C6.52607 7.16717 6.52021 7.1558 6.52021 7.14443V7.09328C6.52021 7.10465 6.51435 7.11601 6.50264 7.12738C6.49092 7.13875 6.47335 7.14443 6.44991 7.14443C6.44991 7.1217 6.45577 7.10465 6.46749 7.09328C6.49092 7.08191 6.50264 7.06486 6.50264 7.04213C6.51435 7.04213 6.52021 7.03644 6.52021 7.02508L6.50264 6.92277H6.57293C6.5495 6.9114 6.53193 6.90003 6.52021 6.88867C6.52021 6.8773 6.51435 6.88298 6.50264 6.90572V6.87162C6.4792 6.87162 6.44991 6.8773 6.41476 6.88867C6.39133 6.90003 6.3679 6.90572 6.34446 6.90572C6.3679 6.90572 6.37961 6.90003 6.37961 6.88867V6.87162H6.34446L6.30931 6.73521L6.25659 6.75226V6.73521V6.667H6.20387V6.64995H6.22144C6.22144 6.64995 6.23316 6.64427 6.25659 6.6329H6.30931L6.25659 6.5988V6.54764L6.30931 6.5988C6.33275 6.5988 6.34446 6.58743 6.34446 6.56469C6.35618 6.53059 6.37376 6.52491 6.39719 6.54764C6.38547 6.54764 6.37961 6.53628 6.37961 6.51354H6.44991L6.50264 6.47944V6.51354L6.52021 6.54764C6.55536 6.54764 6.57293 6.56469 6.57293 6.5988C6.57293 6.57606 6.57879 6.56469 6.59051 6.56469C6.60223 6.55333 6.59637 6.54764 6.57293 6.54764C6.57293 6.50217 6.59051 6.47375 6.62566 6.46239C6.67253 6.46239 6.71939 6.46807 6.76626 6.47944H6.71353V6.46239L6.76626 6.41123L6.81898 6.46239C6.8307 6.43965 6.8307 6.4226 6.81898 6.41123C6.81898 6.39987 6.81898 6.38282 6.81898 6.36008H6.76626H6.71353C6.73697 6.34871 6.74282 6.34303 6.73111 6.34303C6.71939 6.33166 6.71353 6.31461 6.71353 6.29188V6.24072L6.69596 6.22367V6.18957V6.10431H6.71353C6.73697 6.08158 6.73697 6.07021 6.71353 6.07021C6.70182 6.07021 6.69596 6.06453 6.69596 6.05316L6.71353 6.00201V5.9679H6.76626V5.9338C6.76626 5.91107 6.7604 5.8997 6.74868 5.8997C6.73697 5.88833 6.74282 5.87128 6.76626 5.84855C6.71939 5.87128 6.69596 5.85423 6.69596 5.79739C6.64909 5.79739 6.62566 5.78034 6.62566 5.74624L6.64323 5.79739V5.69509C6.63152 5.69509 6.6198 5.6894 6.60808 5.67803C6.60808 5.66667 6.59637 5.66098 6.57293 5.66098V5.62688V5.57573C6.53779 5.56436 6.52021 5.55299 6.52021 5.54163C6.52021 5.51889 6.51435 5.4791 6.50264 5.42227H6.52021C6.52021 5.38816 6.49678 5.37111 6.44991 5.37111H6.52021H6.39719V5.33701C6.39719 5.32564 6.39133 5.31996 6.37961 5.31996C6.37961 5.30859 6.37961 5.29723 6.37961 5.28586V5.25176C6.37961 5.22902 6.38547 5.21197 6.39719 5.2006H6.37961V5.18355V5.14945C6.37961 5.12671 6.3679 5.11535 6.34446 5.11535V5.09829L6.30931 5.06419H6.37961C6.37961 5.06419 6.37376 5.05283 6.36204 5.03009V5.01304H6.34446L6.30931 4.94483C6.25073 4.93347 6.19215 4.89368 6.13357 4.82548H6.11599H6.06327V4.80843C6.02812 4.75159 5.99883 4.72317 5.9754 4.72317C5.96368 4.7118 5.92853 4.70612 5.86995 4.70612V4.68907H5.99297L5.94025 4.65496H5.99297C6.0164 4.63223 6.02812 4.60381 6.02812 4.56971C6.02812 4.55834 6.03398 4.54697 6.04569 4.53561L6.06327 4.51856C6.03984 4.51856 6.02812 4.52424 6.02812 4.53561C6.02812 4.52424 6.02226 4.51287 6.01054 4.5015C6.01054 4.49014 5.98711 4.49582 5.94025 4.51856C5.94025 4.48445 5.9461 4.4674 5.95782 4.4674H5.99297H6.02812V4.4333C6.00469 4.4333 5.99297 4.42762 5.99297 4.41625V4.3992C5.95782 4.38783 5.94025 4.3651 5.94025 4.33099V4.31394C5.94025 4.29121 5.94025 4.27416 5.94025 4.26279C5.95196 4.24005 5.98125 4.21732 6.02812 4.19458V4.16048C6.02812 4.14911 6.03984 4.13206 6.06327 4.10933C6.0164 4.10933 5.96954 4.1207 5.92267 4.14343C5.92267 4.1207 5.92853 4.10933 5.94025 4.10933C5.9051 4.10933 5.88166 4.10364 5.86995 4.09228C5.86995 4.06954 5.85823 4.04681 5.8348 4.02407C5.81137 4.02407 5.81137 4.01839 5.8348 4.00702V3.97292V3.88766H5.86995C5.86995 3.85356 5.89338 3.83651 5.94025 3.83651H5.79965C5.77622 3.81377 5.75864 3.79672 5.74692 3.78536C5.73521 3.76262 5.71763 3.75125 5.6942 3.75125V3.7342C5.6942 3.71147 5.67663 3.7001 5.64148 3.7001L5.58875 3.666C5.58875 3.64326 5.57118 3.61484 5.53603 3.58074C5.5126 3.58074 5.50088 3.57506 5.50088 3.56369H5.58875L5.53603 3.47844V3.52959C5.5126 3.52959 5.49502 3.53527 5.4833 3.54664C5.4833 3.55801 5.4833 3.55232 5.4833 3.52959C5.42472 3.47275 5.39543 3.43297 5.39543 3.41023C5.38371 3.41023 5.37786 3.40455 5.37786 3.39318C5.37786 3.38181 5.38371 3.37044 5.39543 3.35908H5.36028C5.34856 3.35908 5.34271 3.35339 5.34271 3.34203L5.39543 3.29087H5.43058H5.36028C5.33685 3.29087 5.31927 3.29087 5.30756 3.29087C5.29584 3.27951 5.28412 3.27382 5.27241 3.27382V3.22267C5.27241 3.19993 5.26069 3.18288 5.23726 3.17151C5.22554 3.16015 5.21383 3.1431 5.20211 3.12036C5.21383 3.09763 5.22554 3.08626 5.23726 3.08626C5.26069 3.07489 5.27241 3.04079 5.27241 2.98395C5.29584 2.98395 5.31342 2.97258 5.32513 2.94985C5.33685 2.92711 5.34271 2.93848 5.34271 2.98395C5.37786 2.97258 5.40715 2.94417 5.43058 2.8987C5.372 2.8987 5.34271 2.89301 5.34271 2.88165C5.31927 2.88165 5.30756 2.85323 5.30756 2.79639V2.76229C5.30756 2.78502 5.31927 2.81344 5.34271 2.84754C5.34271 2.82481 5.34856 2.81344 5.36028 2.81344C5.38371 2.80207 5.39543 2.78502 5.39543 2.76229H5.34271V2.72818H5.39543V2.71113C5.39543 2.6543 5.37786 2.62588 5.34271 2.62588C5.31927 2.61451 5.29584 2.60883 5.27241 2.60883L5.21968 2.65998C5.20797 2.65998 5.20211 2.6543 5.20211 2.64293V2.60883C5.17868 2.59746 5.17282 2.59178 5.18453 2.59178C5.19625 2.59178 5.19039 2.59178 5.16696 2.59178C5.13181 2.59178 5.10838 2.58609 5.09666 2.57472C5.08494 2.56336 5.07909 2.55199 5.07909 2.54062C5.04394 2.50652 5.05565 2.48947 5.11424 2.48947C5.11424 2.4781 5.10252 2.47242 5.07909 2.47242H5.11424C5.14939 2.48378 5.17868 2.48947 5.20211 2.48947C5.20211 2.48947 5.20211 2.48378 5.20211 2.47242C5.20211 2.46105 5.19625 2.44968 5.18453 2.43832H5.16696C5.16696 2.41558 5.17868 2.40421 5.20211 2.40421L5.16696 2.35306C5.16696 2.33032 5.17868 2.31896 5.20211 2.31896C5.14353 2.29622 5.11424 2.27349 5.11424 2.25075V2.21665L5.07909 2.18255V2.09729C5.07909 2.06319 5.0908 2.04614 5.11424 2.04614C5.0908 2.04614 5.06151 2.02909 5.02636 1.99498H4.97364V1.90973C4.92677 1.85289 4.89748 1.81879 4.88576 1.80742C4.88576 1.79606 4.89748 1.779 4.92091 1.75627C4.89748 1.75627 4.87991 1.75058 4.86819 1.73922C4.86819 1.72785 4.85647 1.72217 4.83304 1.72217C4.86819 1.68806 4.89748 1.67101 4.92091 1.67101C4.92091 1.67101 4.91506 1.65965 4.90334 1.63691V1.61986H4.88576C4.88576 1.60849 4.89162 1.59712 4.90334 1.58576C4.90334 1.57439 4.90334 1.56871 4.90334 1.56871C4.91506 1.55734 4.92091 1.54597 4.92091 1.5346V1.48345C4.87405 1.52892 4.8389 1.54029 4.81547 1.51755C4.79203 1.49482 4.76274 1.48345 4.72759 1.48345L4.74517 1.4664C4.7686 1.44366 4.78032 1.42661 4.78032 1.41525C4.78032 1.43798 4.78617 1.44935 4.79789 1.44935C4.79789 1.42661 4.80375 1.41525 4.81547 1.41525C4.8389 1.40388 4.86233 1.38683 4.88576 1.36409C4.86233 1.35272 4.84476 1.34136 4.83304 1.32999C4.83304 1.30725 4.82132 1.28452 4.79789 1.26179C4.85647 1.26179 4.88576 1.23905 4.88576 1.19358V1.14243V1.12538V1.10832C4.88576 1.08559 4.89748 1.07422 4.92091 1.07422C4.89748 1.07422 4.88576 1.06854 4.88576 1.05717C4.85062 1.05717 4.83304 1.02307 4.83304 0.954864C4.83304 0.943497 4.82132 0.926446 4.79789 0.903711C4.79789 0.858242 4.82718 0.818456 4.88576 0.784353C4.9092 0.772986 4.92677 0.767302 4.93849 0.767302C4.96192 0.755934 4.97364 0.733199 4.97364 0.699097C4.97364 0.68773 4.99121 0.682046 5.02636 0.682046V0.767302C5.00293 0.778669 4.99121 0.801404 4.99121 0.835507C4.99121 0.858242 4.98535 0.880976 4.97364 0.903711C4.97364 1.00602 5.0205 1.05717 5.11424 1.05717C5.13767 1.06854 5.15524 1.07991 5.16696 1.09127C5.19039 1.10264 5.20797 1.13674 5.21968 1.19358C5.20797 1.19358 5.20211 1.20495 5.20211 1.22768C5.20211 1.25042 5.20211 1.26747 5.20211 1.27884C5.21383 1.27884 5.21968 1.2902 5.21968 1.31294L5.20211 1.34704H5.21968V1.48345V1.51755C5.21968 1.55165 5.21968 1.56871 5.21968 1.56871V1.61986H5.16696H5.11424C5.14939 1.65396 5.18453 1.65396 5.21968 1.61986C5.20797 1.64259 5.20211 1.67101 5.20211 1.70512C5.21383 1.72785 5.21968 1.75627 5.21968 1.79037C5.20797 1.79037 5.20797 1.79606 5.21968 1.80742C5.2314 1.80742 5.24897 1.80742 5.27241 1.80742V1.85858C5.27241 1.89268 5.28412 1.89836 5.30756 1.87563C5.33099 1.87563 5.36028 1.88699 5.39543 1.90973H5.4833C5.45987 1.93246 5.44816 1.9552 5.44816 1.97793C5.45987 2.00067 5.45401 2.0234 5.43058 2.04614H5.4833C5.49502 2.04614 5.50088 2.06319 5.50088 2.09729C5.48916 2.10866 5.4833 2.12003 5.4833 2.13139V2.21665V2.30191C5.4833 2.30191 5.4833 2.30759 5.4833 2.31896C5.51845 2.31896 5.53603 2.33032 5.53603 2.35306C5.57118 2.35306 5.58875 2.37011 5.58875 2.40421C5.58875 2.42695 5.59461 2.43832 5.60633 2.43832C5.62976 2.43832 5.64148 2.44968 5.64148 2.47242C5.64148 2.47242 5.65319 2.4781 5.67663 2.48947H5.6942V2.60883V2.65998C5.75278 2.69408 5.78207 2.73955 5.78207 2.79639C5.79379 2.84186 5.81137 2.87596 5.8348 2.8987H5.74692V2.9669C5.72349 2.9669 5.71763 2.97258 5.72935 2.98395C5.74107 2.98395 5.74692 2.99532 5.74692 3.01805C5.80551 3.01805 5.8348 3.00669 5.8348 2.98395V3.01805L5.79965 3.08626C5.79965 3.10899 5.80551 3.12036 5.81722 3.12036C5.82894 3.12036 5.84651 3.13173 5.86995 3.15446C5.85823 3.15446 5.84651 3.16015 5.8348 3.17151C5.85823 3.19425 5.86409 3.22267 5.85237 3.25677C5.85237 3.27951 5.88166 3.29087 5.94025 3.29087V3.34203C5.99883 3.34203 6.0164 3.37613 5.99297 3.44433C6.0164 3.46707 6.03398 3.48412 6.04569 3.49549C6.06913 3.49549 6.09256 3.50685 6.11599 3.52959C6.12771 3.55232 6.12771 3.58643 6.11599 3.6319H6.18629L6.13357 3.666H6.18629C6.18629 3.68873 6.16872 3.7001 6.13357 3.7001L6.18629 3.75125C6.23316 3.75125 6.27417 3.76262 6.30931 3.78536C6.33275 3.76262 6.35618 3.7342 6.37961 3.7001V3.75125H6.39719C6.39719 3.76262 6.39133 3.77399 6.37961 3.78536C6.37961 3.81946 6.37961 3.83651 6.37961 3.83651C6.37961 3.87061 6.38547 3.88766 6.39719 3.88766C6.39719 3.89903 6.39133 3.9104 6.37961 3.92177V3.93882V3.95587C6.37961 3.96723 6.38547 3.97292 6.39719 3.97292V3.93882H6.44991C6.44991 3.97292 6.45577 3.98997 6.46749 3.98997C6.49092 3.9786 6.50849 3.98429 6.52021 4.00702C6.52021 3.99565 6.51435 3.98429 6.50264 3.97292H6.57293L6.52021 4.00702H6.57293C6.60808 4.01839 6.62566 4.04112 6.62566 4.07523C6.60223 4.10933 6.57293 4.12638 6.53779 4.12638C6.50264 4.11501 6.45577 4.1207 6.39719 4.14343C6.39719 4.17753 6.40305 4.20027 6.41476 4.21163L6.44991 4.24574C6.44991 4.26847 6.45577 4.28552 6.46749 4.29689C6.49092 4.30826 6.50264 4.32531 6.50264 4.34804C6.51435 4.38215 6.52021 4.43898 6.52021 4.51856C6.52021 4.52992 6.53779 4.54697 6.57293 4.56971H6.59051C6.61394 4.56971 6.62566 4.55834 6.62566 4.53561C6.63738 4.53561 6.64323 4.54697 6.64323 4.56971L6.62566 4.62086H6.57293C6.57293 4.6436 6.59051 4.66633 6.62566 4.68907C6.63738 4.68907 6.64323 4.7118 6.64323 4.75727C6.64323 4.79137 6.66081 4.80843 6.69596 4.80843V4.87663C6.70767 4.89936 6.71353 4.91642 6.71353 4.92778C6.72525 4.93915 6.7604 4.9562 6.81898 4.97894H6.83656C6.83656 5.00167 6.85413 5.01304 6.88928 5.01304C6.85413 5.04714 6.83656 5.07556 6.83656 5.09829C6.83656 5.07556 6.84241 5.06419 6.85413 5.06419C6.87756 5.05283 6.88928 5.03577 6.88928 5.01304C6.91271 5.04714 6.92443 5.07556 6.92443 5.09829H6.88928V5.18355V5.31996L6.92443 5.37111V5.42227C6.94786 5.39953 6.96544 5.39953 6.97715 5.42227C6.98887 5.43363 7.00644 5.45637 7.02988 5.49047C7.02988 5.51321 7.02988 5.53026 7.02988 5.54163C7.04159 5.55299 7.04745 5.56436 7.04745 5.57573V5.62688C7.09432 5.62688 7.11775 5.63825 7.11775 5.66098C7.14118 5.68372 7.15876 5.70077 7.17048 5.71214C7.19391 5.71214 7.21734 5.7235 7.24077 5.74624C7.24077 5.78034 7.22906 5.79739 7.20562 5.79739C7.25249 5.79739 7.28764 5.81444 7.31107 5.84855C7.34622 5.87128 7.37551 5.87128 7.39895 5.84855V5.88265C7.39895 5.89402 7.4048 5.90538 7.41652 5.91675C7.42824 5.92812 7.45167 5.9338 7.48682 5.9338C7.48682 5.95654 7.49268 5.97927 7.50439 6.00201C7.51611 6.01337 7.49268 6.03042 7.4341 6.05316H7.53954V6.00201V6.05316H7.59227C7.59227 6.06453 7.60398 6.07021 7.62742 6.07021C7.60398 6.09295 7.58055 6.11 7.55712 6.12136C7.5454 6.13273 7.53954 6.12705 7.53954 6.10431V6.29188V6.36008H7.59227C7.6157 6.36008 7.62742 6.36008 7.62742 6.36008C7.63913 6.34871 7.65671 6.34303 7.68014 6.34303L7.71529 6.36008C7.73872 6.34871 7.77387 6.34303 7.82074 6.34303C7.77387 6.34303 7.75044 6.34871 7.75044 6.36008H7.80316V6.34303L7.82074 6.36008C7.82074 6.38282 7.81488 6.39987 7.80316 6.41123C7.80316 6.4226 7.80902 6.43965 7.82074 6.46239V6.51354C7.84417 6.53628 7.85589 6.55333 7.85589 6.56469C7.85589 6.56469 7.84417 6.58743 7.82074 6.6329C7.84417 6.6329 7.85589 6.63858 7.85589 6.64995C7.8676 6.66132 7.88518 6.65563 7.90861 6.6329C7.93204 6.65563 7.95548 6.67837 7.97891 6.7011C8.00234 6.72384 8.02578 6.73521 8.04921 6.73521C8.11951 6.73521 8.17223 6.74089 8.20738 6.75226ZM6.69596 5.69509H6.64323C6.64323 5.72919 6.64909 5.74624 6.66081 5.74624H6.69596V5.69509ZM1.23023 4.00702C1.25366 4.00702 1.26538 3.98429 1.26538 3.93882H1.1775C1.1775 3.96155 1.18336 3.97292 1.19508 3.97292C1.21851 3.97292 1.23023 3.98429 1.23023 4.00702ZM1.47627 7.28084C1.47627 7.28084 1.47042 7.26948 1.4587 7.24674V7.22969V7.28084H1.47627ZM1.56415 6.5988C1.58758 6.5988 1.5993 6.62153 1.5993 6.667H1.65202V6.5988H1.56415ZM1.65202 7.38315C1.65202 7.36041 1.63445 7.34905 1.5993 7.34905C1.5993 7.38315 1.61687 7.4002 1.65202 7.4002V7.38315ZM2.95255 10.7763C2.95255 10.7991 2.95841 10.8104 2.97012 10.8104L2.95255 10.7763ZM2.79438 7.00802C2.79438 6.98529 2.78266 6.97392 2.75923 6.97392C2.78266 6.97392 2.79438 6.95687 2.79438 6.92277C2.79438 6.9114 2.80609 6.90572 2.82953 6.90572C2.86467 6.88298 2.86467 6.86025 2.82953 6.83751C2.82953 6.81478 2.82367 6.79773 2.81195 6.78636C2.80023 6.76362 2.79438 6.74657 2.79438 6.73521C2.81781 6.73521 2.81781 6.71247 2.79438 6.667C2.77094 6.667 2.75923 6.65563 2.75923 6.6329H2.65378C2.6655 6.62153 2.67135 6.60448 2.67135 6.58175C2.67135 6.57038 2.6655 6.55901 2.65378 6.54764C2.64206 6.52491 2.62449 6.51354 2.60105 6.51354V6.54764C2.57762 6.52491 2.54833 6.51354 2.51318 6.51354H2.46046C2.44874 6.51354 2.43702 6.50786 2.42531 6.49649C2.41359 6.48512 2.40187 6.47944 2.39016 6.47944C2.39016 6.47944 2.3843 6.47375 2.37258 6.46239H2.40773H2.31986V6.36008C2.27299 6.36008 2.23199 6.37713 2.19684 6.41123C2.19684 6.36576 2.1734 6.34303 2.12654 6.34303V6.29188C2.10311 6.26914 2.09139 6.25209 2.09139 6.24072V6.22367H2.05624V6.24072C2.02109 6.24072 2.00351 6.22367 2.00351 6.18957C1.98008 6.18957 1.95079 6.19525 1.91564 6.20662C1.89221 6.21799 1.86878 6.22367 1.84534 6.22367H1.79262C1.75747 6.28051 1.7106 6.32598 1.65202 6.36008C1.58172 6.42828 1.58172 6.46807 1.65202 6.47944C1.61687 6.50217 1.5993 6.52491 1.5993 6.54764C1.63445 6.54764 1.65202 6.56469 1.65202 6.5988C1.67545 6.5988 1.68131 6.60448 1.6696 6.61585C1.65788 6.62722 1.66374 6.6329 1.68717 6.6329C1.68717 6.65563 1.69303 6.67268 1.70475 6.68405C1.72818 6.68405 1.73989 6.7011 1.73989 6.73521V6.83751C1.70475 6.80341 1.67545 6.78636 1.65202 6.78636C1.67545 6.78636 1.68717 6.79773 1.68717 6.82046V6.83751C1.68717 6.86025 1.68131 6.87162 1.6696 6.87162C1.65788 6.87162 1.65202 6.88298 1.65202 6.90572C1.67545 6.91708 1.68717 6.93982 1.68717 6.97392C1.69889 7.00802 1.72232 7.03076 1.75747 7.04213C1.72232 7.04213 1.69889 7.03644 1.68717 7.02508C1.68717 7.00234 1.67545 7.00234 1.65202 7.02508C1.67545 7.03644 1.69303 7.04781 1.70475 7.05918C1.72818 7.05918 1.73989 7.07054 1.73989 7.09328C1.75161 7.15012 1.76919 7.18422 1.79262 7.19559H1.75747H1.73989C1.71646 7.21832 1.70475 7.23537 1.70475 7.24674C1.70475 7.24674 1.71646 7.27516 1.73989 7.332C1.75161 7.332 1.75747 7.33768 1.75747 7.34905C1.75747 7.34905 1.75161 7.34905 1.73989 7.34905H1.68717C1.72232 7.38315 1.73989 7.4343 1.73989 7.50251H1.75747V7.53661C1.75747 7.55934 1.75161 7.5764 1.73989 7.58776C1.73989 7.58776 1.73989 7.59345 1.73989 7.60481C1.73989 7.62755 1.73989 7.65028 1.73989 7.67302C1.75161 7.68439 1.75747 7.70144 1.75747 7.72417H1.68717C1.68717 7.75828 1.67545 7.77533 1.65202 7.77533V7.87763C1.67545 7.87763 1.68717 7.90605 1.68717 7.96289V8.01404C1.68717 8.01404 1.68131 8.00268 1.6696 7.97994V7.96289H1.65202H1.5993C1.63445 7.96289 1.65202 7.97426 1.65202 7.99699V8.01404H1.68717C1.67545 8.02541 1.66374 8.03109 1.65202 8.03109C1.65202 8.03109 1.64616 8.03678 1.63445 8.04814C1.62273 8.05951 1.61101 8.0652 1.5993 8.0652C1.57586 8.08793 1.56415 8.10498 1.56415 8.11635C1.55243 8.12772 1.54657 8.13908 1.54657 8.15045C1.54657 8.17319 1.55243 8.17319 1.56415 8.15045C1.58758 8.17319 1.60516 8.18455 1.61687 8.18455C1.62859 8.18455 1.62273 8.19592 1.5993 8.21866C1.5993 8.19592 1.59344 8.18455 1.58172 8.18455C1.57001 8.18455 1.55829 8.19592 1.54657 8.21866C1.54657 8.26413 1.55243 8.28686 1.56415 8.28686C1.62273 8.28686 1.65202 8.31528 1.65202 8.37212C1.67545 8.40622 1.69303 8.44032 1.70475 8.47442C1.72818 8.50853 1.74575 8.53694 1.75747 8.55968C1.80434 8.57105 1.83948 8.5881 1.86292 8.61083C1.89807 8.63357 1.93907 8.6563 1.98594 8.67904V8.73019H1.95079H1.89807V8.76429C1.89807 8.7984 1.88635 8.81545 1.86292 8.81545H1.84534V8.84955L1.89807 8.81545H2.05624C2.07967 8.78134 2.10311 8.79271 2.12654 8.84955H2.09139V8.88365C2.06796 8.91775 2.05624 8.95186 2.05624 8.98596C2.03281 9.00869 2.01523 9.03143 2.00351 9.05416C1.9918 9.06553 1.97422 9.07121 1.95079 9.07121V9.10532C1.95079 9.12805 1.93322 9.13942 1.89807 9.13942H1.95079V9.24173H1.84534C1.84534 9.26446 1.86292 9.27583 1.89807 9.27583L1.84534 9.30993C1.88049 9.30993 1.89807 9.32698 1.89807 9.36108H1.84534C1.78676 9.36108 1.75161 9.36677 1.73989 9.37813C1.72818 9.37813 1.71646 9.38382 1.70475 9.39519H1.68717V9.41224L1.73989 9.44634H1.79262V9.41224C1.80434 9.41224 1.81019 9.41792 1.81019 9.42929C1.81019 9.44066 1.80434 9.44634 1.79262 9.44634V9.54865C1.79262 9.56001 1.7809 9.58275 1.75747 9.61685H1.84534V9.5657C1.84534 9.5998 1.8512 9.61685 1.86292 9.61685H1.89807C1.82777 9.63959 1.79262 9.67369 1.79262 9.71916C1.76919 9.71916 1.75747 9.73053 1.75747 9.75326H1.84534V9.80441H1.79262L1.77504 9.82146H1.79262C1.82777 9.82146 1.86292 9.81578 1.89807 9.80441C1.89807 9.81578 1.88635 9.82146 1.86292 9.82146H1.84534H1.79262V9.90672V9.94082H1.77504C1.76333 9.94082 1.75747 9.92946 1.75747 9.90672V9.94082C1.79262 9.97492 1.82191 9.98629 1.84534 9.97493C1.92736 9.97493 1.94493 9.99766 1.89807 10.0431C1.87463 10.0659 1.86292 10.0886 1.86292 10.1113C1.87463 10.1227 1.86878 10.1398 1.84534 10.1625H1.79262C1.9215 10.1625 1.98594 10.2023 1.98594 10.2818C1.99766 10.2932 2.00351 10.3103 2.00351 10.333C2.00351 10.3557 2.00351 10.3785 2.00351 10.4012L2.05624 10.4353C2.03281 10.458 2.02695 10.4751 2.03866 10.4865C2.05038 10.4978 2.05624 10.5149 2.05624 10.5376V10.5035L2.00351 10.5376C1.9918 10.5376 1.98594 10.5319 1.98594 10.5206C1.98594 10.5092 1.97422 10.5149 1.95079 10.5376C1.98594 10.5831 1.99766 10.6115 1.98594 10.6229V10.674C1.92736 10.674 1.89807 10.6911 1.89807 10.7252C1.89807 10.6911 1.88049 10.674 1.84534 10.674V10.7252C1.84534 10.7593 1.86292 10.7763 1.89807 10.7763C1.94493 10.7763 1.98008 10.7991 2.00351 10.8445C2.03866 10.8445 2.05624 10.8673 2.05624 10.9127C2.03281 10.9127 2.02109 10.9127 2.02109 10.9127C2.02109 10.9014 2.01523 10.8957 2.00351 10.8957H1.98594C1.96251 10.9298 1.96837 10.9468 2.00351 10.9468C2.02695 10.9923 2.02695 11.015 2.00351 11.015C1.9918 11.0037 1.97422 11.0094 1.95079 11.0321C1.95079 11.0435 1.95665 11.0548 1.96837 11.0662C1.96837 11.0776 1.97422 11.0889 1.98594 11.1003C1.99766 11.1003 2.00351 11.106 2.00351 11.1174C2.01523 11.1287 2.03281 11.123 2.05624 11.1003H2.09139C2.09139 11.123 2.12068 11.1458 2.17926 11.1685C2.15583 11.1685 2.13825 11.1799 2.12654 11.2026C2.12654 11.214 2.11482 11.2197 2.09139 11.2197H2.19684V11.339C2.22027 11.339 2.23199 11.3447 2.23199 11.3561C2.2437 11.3561 2.26128 11.3504 2.28471 11.339H2.40773C2.40773 11.339 2.41945 11.339 2.44288 11.339H2.46046H2.51318V11.2197V11.1685H2.53076C2.55419 11.1685 2.56591 11.1628 2.56591 11.1515C2.56591 11.1287 2.5952 11.0889 2.65378 11.0321C2.65378 10.998 2.68893 10.9809 2.75923 10.9809C2.80609 10.9809 2.82953 10.9696 2.82953 10.9468V10.9127C2.86467 10.9127 2.88225 10.89 2.88225 10.8445C2.88225 10.8218 2.88225 10.8104 2.88225 10.8104C2.89397 10.8104 2.89982 10.7991 2.89982 10.7763C2.89982 10.765 2.89397 10.7536 2.88225 10.7422C2.88225 10.7309 2.88225 10.7195 2.88225 10.7081V10.674H2.89982H2.88225C2.85882 10.674 2.84124 10.657 2.82953 10.6229C2.86467 10.6229 2.88225 10.6172 2.88225 10.6058V10.5888H2.79438C2.79438 10.5433 2.80023 10.5206 2.81195 10.5206C2.82367 10.5092 2.82953 10.4978 2.82953 10.4865C2.82953 10.4637 2.82367 10.4524 2.81195 10.4524C2.80023 10.441 2.79438 10.4239 2.79438 10.4012H2.82953V10.3671C2.85296 10.3671 2.86468 10.3728 2.86468 10.3842C2.87639 10.3955 2.88811 10.4012 2.89982 10.4012C2.89982 10.3216 2.94083 10.2818 3.02285 10.2818C3.02285 10.2591 3.02871 10.2307 3.04042 10.1966C3.06385 10.1625 3.07557 10.1341 3.07557 10.1113C3.099 10.1454 3.1283 10.1625 3.16344 10.1625C3.16344 10.1852 3.15759 10.2023 3.14587 10.2136C3.13415 10.2136 3.14001 10.2193 3.16344 10.2307C3.14001 10.2307 3.1283 10.2421 3.1283 10.2648C3.1283 10.2762 3.14001 10.2818 3.16344 10.2818H3.18102C3.21617 10.2477 3.25132 10.225 3.28647 10.2136V10.1625V10.1454C3.28647 10.1454 3.29233 10.1341 3.30404 10.1113H3.23374V10.1625L3.16344 10.0943H3.23374V10.0431C3.21031 10.0431 3.18688 10.0431 3.16344 10.0431C3.15173 10.0318 3.12244 10.0147 3.07557 9.99198C3.07557 9.98061 3.08143 9.96924 3.09315 9.95787C3.10486 9.94651 3.11072 9.92946 3.11072 9.90672H3.23374C3.23374 9.86125 3.24546 9.83852 3.26889 9.83852C3.30404 9.82715 3.33333 9.81578 3.35677 9.80441C3.36848 9.80441 3.37434 9.776 3.37434 9.71916C3.37434 9.71916 3.38606 9.72484 3.40949 9.73621H3.42707V9.75326V9.68506V9.6339C3.39192 9.6339 3.37434 9.61117 3.37434 9.5657V9.49749C3.39777 9.49749 3.40363 9.49181 3.39192 9.48044C3.39192 9.45771 3.40363 9.43497 3.42707 9.41224C3.39192 9.41224 3.36848 9.40087 3.35677 9.37813C3.35677 9.37813 3.35677 9.37245 3.35677 9.36108C3.33333 9.33835 3.31576 9.33267 3.30404 9.34403C3.30404 9.3554 3.29818 9.36108 3.28647 9.36108C3.27475 9.36108 3.26889 9.34972 3.26889 9.32698V9.30993H3.28647H3.23374C3.23374 9.26446 3.21617 9.22467 3.18102 9.19057H3.23374C3.25718 9.16784 3.26889 9.15079 3.26889 9.13942C3.26889 9.12805 3.25718 9.09395 3.23374 9.03711V8.98596C3.23374 8.96322 3.2396 8.95186 3.25132 8.95186C3.26303 8.95186 3.25718 8.95186 3.23374 8.95186V8.93481C3.21031 8.93481 3.19859 8.94049 3.19859 8.95186C3.19859 8.95186 3.19274 8.95186 3.18102 8.95186H3.16344C3.10486 8.94049 3.07557 8.91775 3.07557 8.88365H3.11072H3.16344V8.84955H3.18102H3.11072H3.16344C3.16344 8.84955 3.1693 8.84386 3.18102 8.8325V8.81545H3.16344V8.69609C3.16344 8.69609 3.15173 8.6904 3.1283 8.67904H3.11072V8.57673L3.07557 8.62788C3.07557 8.60515 3.06385 8.59946 3.04042 8.61083C3.01699 8.61083 2.99356 8.59947 2.97012 8.57673L2.95255 8.55968C2.95255 8.49147 2.95841 8.45169 2.97012 8.44032V8.40622C2.97012 8.38348 2.94669 8.37212 2.89982 8.37212C2.93497 8.37212 2.95255 8.3437 2.95255 8.28686H2.89982V8.21866C2.89982 8.17319 2.92326 8.15045 2.97012 8.15045C3.02871 8.12772 3.06971 8.11067 3.09315 8.0993C3.11658 8.07656 3.14001 8.05383 3.16344 8.03109H3.07557C2.99356 8.03109 2.95255 8.03109 2.95255 8.03109H2.89982C2.94669 8.01973 2.97012 7.99699 2.97012 7.96289H3.02285C3.04628 7.98562 3.058 7.99131 3.058 7.97994C3.06971 7.96857 3.08729 7.96289 3.11072 7.96289H3.02285C2.9877 7.91742 2.9877 7.889 3.02285 7.87763H3.07557C3.099 7.8549 3.09315 7.83785 3.058 7.82648C3.02285 7.81511 2.99356 7.79806 2.97012 7.77533L2.95255 7.82648C2.95255 7.79238 2.95841 7.77533 2.97012 7.77533C2.98184 7.76396 2.99941 7.74691 3.02285 7.72417C2.9877 7.72417 2.97012 7.69575 2.97012 7.63892H3.02285C3.02285 7.61618 3.01113 7.59913 2.9877 7.58776C2.97598 7.5764 2.97012 7.55934 2.97012 7.53661V7.51956H2.9877C2.9877 7.51956 2.99941 7.51388 3.02285 7.50251H2.95255C2.96426 7.47977 2.96426 7.45135 2.95255 7.41725V7.4002C2.94083 7.4002 2.93497 7.39452 2.93497 7.38315C2.93497 7.37178 2.94083 7.36041 2.95255 7.34905V7.332C2.9174 7.32063 2.89982 7.29789 2.89982 7.26379V7.22969H2.88225C2.88225 7.26379 2.87053 7.28084 2.8471 7.28084H2.82953V7.19559V7.21264C2.82953 7.22401 2.81781 7.22969 2.79438 7.22969V7.19559C2.81781 7.17285 2.8471 7.17285 2.88225 7.19559C2.88225 7.16148 2.85296 7.14443 2.79438 7.14443V7.09328C2.77094 7.07054 2.76509 7.05918 2.7768 7.05918C2.78852 7.04781 2.79438 7.03644 2.79438 7.02508V7.00802ZM7.94376 14.4594V14.4764H7.96134C7.98477 14.4764 7.99649 14.4707 7.99649 14.4594H7.94376ZM7.17048 11.7653C7.19391 11.7653 7.21148 11.7596 7.2232 11.7482C7.24663 11.7369 7.27006 11.7426 7.2935 11.7653L7.34622 11.7141C7.32279 11.6914 7.2935 11.6857 7.25835 11.6971C7.2232 11.6971 7.20562 11.68 7.20562 11.6459H7.11775C7.10603 11.6459 7.10018 11.6516 7.10018 11.663C7.10018 11.663 7.09432 11.663 7.0826 11.663H7.04745C7.07088 11.6857 7.08846 11.6971 7.10018 11.6971C7.11189 11.6857 7.11775 11.6914 7.11775 11.7141H7.13533C7.15876 11.7141 7.17048 11.7312 7.17048 11.7653ZM7.34622 11.9699C7.35794 11.9472 7.37551 11.9358 7.39895 11.9358C7.37551 11.9358 7.3638 11.9415 7.3638 11.9529C7.3638 11.9642 7.35794 11.9699 7.34622 11.9699ZM6.44991 8.62788C6.49678 8.67335 6.53779 8.6563 6.57293 8.57673C6.49092 8.57673 6.43234 8.59378 6.39719 8.62788C6.39719 8.58241 6.39133 8.55968 6.37961 8.55968L6.34446 8.57673C6.34446 8.53126 6.2976 8.50853 6.20387 8.50853H6.25659C6.31517 8.50853 6.34446 8.48579 6.34446 8.44032C6.32103 8.44032 6.30931 8.41759 6.30931 8.37212C6.35618 8.37212 6.37961 8.35507 6.37961 8.32096H6.30931C6.30931 8.28686 6.32103 8.25276 6.34446 8.21866H6.30931V8.18455H6.20387C6.20387 8.20729 6.19801 8.21866 6.18629 8.21866H6.15114C6.13943 8.21866 6.13357 8.20729 6.13357 8.18455H6.11599V8.15045C6.03398 8.15045 5.99297 8.12203 5.99297 8.0652H5.92267V8.03109C5.92267 8.03109 5.92267 8.00836 5.92267 7.96289L5.8348 8.01404V8.03109H5.81722C5.80551 8.03109 5.79379 8.03109 5.78207 8.03109C5.77036 8.01973 5.75864 8.01404 5.74692 8.01404C5.74692 7.99131 5.75864 7.97426 5.78207 7.96289C5.81722 7.95152 5.8348 7.92879 5.8348 7.89468V7.87763H5.74692C5.72349 7.9231 5.70592 7.95721 5.6942 7.97994C5.68248 7.99131 5.66491 7.98562 5.64148 7.96289C5.64148 7.97426 5.64733 7.97426 5.65905 7.96289C5.68248 7.96289 5.6942 7.94015 5.6942 7.89468C5.67077 7.89468 5.65319 7.91174 5.64148 7.94584C5.62976 7.96857 5.61219 7.99131 5.58875 8.01404C5.54189 7.90037 5.50674 7.88332 5.4833 7.96289C5.4833 7.99699 5.47159 8.01404 5.44816 8.01404H5.43058C5.38371 8.01404 5.34271 7.99699 5.30756 7.96289C5.27241 7.91742 5.24312 7.89468 5.21968 7.89468C5.21968 7.88332 5.21383 7.86627 5.20211 7.84353C5.20211 7.8208 5.20211 7.79806 5.20211 7.77533C5.17868 7.79806 5.1611 7.8208 5.14938 7.84353C5.14938 7.86627 5.13767 7.88332 5.11424 7.89468C5.0908 7.88332 5.0498 7.87763 4.99121 7.87763H4.92091C4.89748 7.87763 4.88576 7.88332 4.88576 7.89468C4.86233 7.89468 4.84476 7.90605 4.83304 7.92879C4.83304 7.95152 4.82132 7.96289 4.79789 7.96289C4.78617 7.96289 4.77446 7.97426 4.76274 7.99699C4.76274 8.00836 4.75103 8.01404 4.72759 8.01404C4.72759 8.02541 4.71588 8.03109 4.69244 8.03109H4.60457V8.01404C4.59285 8.02541 4.57528 8.03109 4.55185 8.03109H4.5167H4.53427C4.53427 8.03109 4.54599 8.02541 4.56942 8.01404H4.49912C4.49912 7.95721 4.50498 7.9231 4.5167 7.91174C4.54013 7.90037 4.54013 7.889 4.5167 7.87763C4.49326 7.90037 4.45811 7.90037 4.41125 7.87763H4.35852H4.3058V7.82648V7.87763C4.29408 7.87763 4.28823 7.88332 4.28823 7.89468H4.3058V7.92879C4.3058 7.95152 4.32337 7.96289 4.35852 7.96289H4.3058V7.89468C4.24722 7.89468 4.20621 7.90605 4.18278 7.92879C4.17106 7.94015 4.15349 7.92879 4.13005 7.89468C4.08319 7.89468 4.05975 7.889 4.05975 7.87763C4.01289 7.8549 3.97774 7.83785 3.95431 7.82648C3.93087 7.80374 3.90744 7.80374 3.88401 7.82648C3.84886 7.79238 3.81957 7.78101 3.79613 7.79238C3.78442 7.79238 3.74927 7.80374 3.69069 7.82648C3.69069 7.87195 3.66139 7.89468 3.60281 7.89468C3.60281 7.88332 3.58524 7.86058 3.55009 7.82648V7.80943C3.55009 7.78669 3.53251 7.77533 3.49736 7.77533V7.82648C3.49736 7.86058 3.49151 7.87763 3.47979 7.87763C3.45636 7.87763 3.42121 7.90605 3.37434 7.96289C3.39777 7.96289 3.41535 7.97426 3.42707 7.99699C3.43878 8.00836 3.45636 8.01404 3.47979 8.01404C3.44464 8.02541 3.42707 8.04246 3.42707 8.0652H3.55009H3.51494C3.50322 8.0652 3.49736 8.07656 3.49736 8.0993H3.62039C3.60867 8.0993 3.60281 8.11067 3.60281 8.1334V8.15045C3.54423 8.23002 3.48565 8.27549 3.42707 8.28686C3.42707 8.3096 3.41535 8.32096 3.39192 8.32096H3.37434C3.38606 8.32096 3.3802 8.34938 3.35677 8.40622C3.36848 8.42895 3.36848 8.44032 3.35677 8.44032C3.35677 8.44032 3.35677 8.44601 3.35677 8.45737C3.35677 8.48011 3.35677 8.49716 3.35677 8.50853C3.36848 8.51989 3.37434 8.53694 3.37434 8.55968C3.37434 8.57105 3.39192 8.59378 3.42707 8.62788L3.47979 8.67904C3.44464 8.71314 3.42707 8.76998 3.42707 8.84955L3.47979 8.88365C3.47979 8.88365 3.48565 8.89502 3.49736 8.91775V8.93481C3.49736 8.94617 3.50322 8.95186 3.51494 8.95186C3.53837 8.95186 3.55009 8.96322 3.55009 8.98596H3.65554C3.65554 9.00869 3.66139 9.03143 3.67311 9.05416C3.68483 9.0769 3.69069 9.10532 3.69069 9.13942C3.66725 9.17352 3.65554 9.20762 3.65554 9.24173L3.62039 9.27583C3.62039 9.29856 3.61453 9.31561 3.60281 9.32698C3.60281 9.32698 3.60281 9.33835 3.60281 9.36108L3.62039 9.37813C3.60867 9.37813 3.60281 9.3895 3.60281 9.41224C3.60281 9.46907 3.62039 9.49749 3.65554 9.49749C3.67897 9.49749 3.69654 9.49181 3.70826 9.48044L3.74341 9.44634C3.77856 9.44634 3.80199 9.43497 3.81371 9.41224C3.82542 9.3895 3.843 9.37813 3.86643 9.37813V9.36108H3.88401C3.90744 9.33835 3.93673 9.33267 3.97188 9.34403C4.00703 9.34403 4.03632 9.3213 4.05975 9.27583V9.30993C4.01289 9.33266 3.97188 9.3554 3.93673 9.37813C3.90158 9.3895 3.87815 9.41224 3.86643 9.44634H3.88401C3.91916 9.44634 3.94845 9.43497 3.97188 9.41224L3.98946 9.39519C3.98946 9.39519 4.01289 9.38382 4.05975 9.36108L4.07733 9.37813C4.07733 9.3554 4.10662 9.3554 4.1652 9.37813H4.3058V9.41224C4.3761 9.41224 4.42882 9.4236 4.46397 9.44634H4.48155V9.46339C4.48155 9.47476 4.4874 9.48613 4.49912 9.49749H4.5167H4.56942C4.56942 9.46339 4.57528 9.44066 4.58699 9.42929C4.58699 9.41792 4.59285 9.41224 4.60457 9.41224C4.60457 9.37814 4.62214 9.36108 4.65729 9.36108C4.65729 9.37245 4.66315 9.37813 4.67487 9.37813C4.68658 9.3895 4.69244 9.39519 4.69244 9.39519C4.70416 9.39519 4.71588 9.40087 4.72759 9.41224H4.76274C4.76274 9.41224 4.77446 9.40087 4.79789 9.37813C4.85647 9.37813 4.89748 9.3554 4.92091 9.30993H4.88576H4.83304V9.27583L4.88576 9.24173H4.92091C4.95606 9.21899 4.99121 9.20194 5.02636 9.19057C5.07323 9.1792 5.12009 9.16215 5.16696 9.13942V9.07121H5.18453C5.18453 9.07121 5.19039 9.05985 5.20211 9.03711C5.24897 9.03711 5.27241 9.02006 5.27241 8.98596H5.30756C5.30756 8.96322 5.31342 8.95754 5.32513 8.96891C5.34856 8.98027 5.372 8.97459 5.39543 8.95186V8.98596C5.33685 8.98596 5.30756 9.00301 5.30756 9.03711H5.39543C5.39543 9.13942 5.36614 9.19057 5.30756 9.19057C5.30756 9.1792 5.3017 9.17352 5.28998 9.17352C5.27827 9.17352 5.27241 9.1792 5.27241 9.19057C5.27241 9.22467 5.28412 9.22467 5.30756 9.19057C5.30756 9.21331 5.3017 9.23036 5.28998 9.24173C5.28998 9.24173 5.28998 9.24741 5.28998 9.25878L5.27241 9.27583C5.29584 9.27583 5.30756 9.28151 5.30756 9.29288C5.30756 9.30425 5.31927 9.30993 5.34271 9.30993H5.39543C5.41886 9.34403 5.45401 9.36108 5.50088 9.36108C5.50088 9.32698 5.53017 9.30993 5.58875 9.30993C5.65905 9.26446 5.6942 9.20762 5.6942 9.13942H5.74692C5.74692 9.15079 5.75864 9.15647 5.78207 9.15647H5.79965V9.13942H5.81722V9.15647C5.81722 9.16784 5.82308 9.1792 5.8348 9.19057H5.86995C5.89338 9.19057 5.9051 9.18489 5.9051 9.17352C5.91681 9.15079 5.92853 9.13942 5.94025 9.13942V9.19057L5.99297 9.24173V9.19057C6.07499 9.19057 6.12185 9.17352 6.13357 9.13942L6.11599 9.07121C6.11599 9.07121 6.12185 9.06553 6.13357 9.05416V9.03711C6.157 9.03711 6.17458 9.03143 6.18629 9.02006C6.20972 8.99733 6.23316 8.98596 6.25659 8.98596C6.28002 8.98596 6.30346 8.99164 6.32689 9.00301C6.35032 9.01438 6.37376 9.00869 6.39719 8.98596H6.34446C6.32103 8.96322 6.30931 8.92912 6.30931 8.88365C6.33275 8.88365 6.35032 8.87797 6.36204 8.8666C6.37376 8.8666 6.37961 8.86092 6.37961 8.84955C6.40305 8.79271 6.42648 8.76429 6.44991 8.76429H6.50264V8.73019L6.44991 8.69609C6.42648 8.69609 6.42648 8.69609 6.44991 8.69609C6.47335 8.69609 6.47335 8.6904 6.44991 8.67904V8.62788ZM6.83656 5.37111C6.8717 5.37111 6.88928 5.34269 6.88928 5.28586H6.81898C6.79555 5.30859 6.78383 5.33133 6.78383 5.35406C6.78383 5.36543 6.79555 5.37111 6.81898 5.37111H6.83656Z" fill="black"/>
</svg>
