<svg width="2" height="19" viewBox="0 0 2 19" fill="none" xmlns="http://www.w3.org/2000/svg">
<path d="M2 2.6561H1.9434V2.70923H1.92453C1.91195 2.70923 1.90566 2.72693 1.90566 2.76235H1.9434L1.90566 2.78006L1.9434 2.85089H1.92453C1.91195 2.85089 1.90566 2.86269 1.90566 2.8863L1.9434 2.90401V2.97484L1.90566 3.01025L1.9434 3.06337H1.90566V3.08108H1.9434V3.1342V3.20503L1.90566 3.27586C1.85535 3.32308 1.81761 3.32898 1.79245 3.29357C1.74214 3.29357 1.7044 3.30537 1.67925 3.32898C1.64151 3.30537 1.61635 3.30537 1.60377 3.32898C1.5912 3.35259 1.58491 3.35259 1.58491 3.32898C1.55975 3.3644 1.5283 3.39391 1.49057 3.41752L1.4717 3.43523C1.45912 3.44703 1.44654 3.45884 1.43396 3.47064C1.43396 3.48245 1.42767 3.49425 1.41509 3.50606C1.44025 3.51786 1.44025 3.52967 1.41509 3.54147C1.40252 3.54147 1.38365 3.55918 1.35849 3.59459H1.4717L1.41509 3.63001H1.37736C1.36478 3.63001 1.3522 3.63591 1.33962 3.64772V3.71855C1.3522 3.74216 1.37736 3.74216 1.41509 3.71855C1.46541 3.71855 1.49057 3.74806 1.49057 3.80708V3.87791V3.94874C1.49057 3.97235 1.48428 3.99006 1.4717 4.00186C1.4717 4.01367 1.4717 4.02547 1.4717 4.03728V4.05499C1.43396 4.06679 1.39623 4.07269 1.35849 4.07269C1.42138 4.14352 1.46541 4.16713 1.49057 4.14352C1.49057 4.15533 1.50943 4.17894 1.54717 4.21435C1.50943 4.23796 1.48428 4.24977 1.4717 4.24977C1.4717 4.27338 1.45912 4.28518 1.43396 4.28518H1.41509C1.45283 4.3206 1.47799 4.3383 1.49057 4.3383V4.3206C1.49057 4.30879 1.48428 4.29699 1.4717 4.28518H1.49057C1.49057 4.34421 1.48428 4.37962 1.4717 4.39143C1.48428 4.42684 1.48428 4.45045 1.4717 4.46226C1.4717 4.46226 1.4717 4.47406 1.4717 4.49767V4.58621H1.41509C1.41509 4.60982 1.42138 4.61572 1.43396 4.60391C1.45912 4.59211 1.47799 4.58621 1.49057 4.58621V4.62162L1.54717 4.58621C1.57233 4.60982 1.58491 4.63933 1.58491 4.67474C1.59748 4.68655 1.61635 4.69245 1.64151 4.69245C1.65409 4.70426 1.67925 4.71016 1.71698 4.71016C1.7673 4.74557 1.79874 4.77509 1.81132 4.7987H1.83019L1.84906 4.8164V4.88723C1.8239 4.91084 1.81761 4.93445 1.83019 4.95806C1.84277 4.98167 1.84906 4.99938 1.84906 5.01118C1.84906 5.01118 1.86164 5.01709 1.88679 5.02889H1.90566V5.0466C1.90566 5.07021 1.89308 5.08201 1.86792 5.08201H1.84906C1.8239 5.08201 1.80503 5.07611 1.79245 5.06431C1.79245 5.0525 1.79245 5.0584 1.79245 5.08201V5.20596C1.75472 5.20596 1.71069 5.20596 1.66038 5.20596C1.62264 5.19416 1.59748 5.19416 1.58491 5.20596V5.24138H1.67925C1.64151 5.24138 1.61635 5.25318 1.60377 5.27679C1.60377 5.3004 1.59748 5.31221 1.58491 5.31221H1.67925V5.32992L1.64151 5.36533C1.61635 5.38894 1.60377 5.41255 1.60377 5.43616L1.58491 5.45387H1.54717V5.43616C1.53459 5.43616 1.52201 5.44206 1.50943 5.45387H1.49057L1.4717 5.50699C1.48428 5.50699 1.49057 5.51289 1.49057 5.5247C1.50314 5.5247 1.53459 5.50109 1.58491 5.45387V5.50699L1.60377 5.5424L1.58491 5.57782H1.54717H1.56604V5.59553C1.56604 5.60733 1.57233 5.61914 1.58491 5.63094C1.55975 5.63094 1.5283 5.64275 1.49057 5.66636H1.54717V5.73719H1.49057C1.55346 5.73719 1.58491 5.74309 1.58491 5.75489H1.56604H1.54717V5.79031L1.49057 5.86114C1.51572 5.89655 1.52201 5.91426 1.50943 5.91426C1.49686 5.90245 1.48428 5.90836 1.4717 5.93197C1.39623 5.97919 1.35849 6.02641 1.35849 6.07363V6.12675V6.16216C1.35849 6.17397 1.37736 6.17987 1.41509 6.17987L1.4717 6.12675V6.2507C1.43396 6.2507 1.39623 6.26841 1.35849 6.30382C1.34591 6.30382 1.33962 6.32743 1.33962 6.37465C1.3522 6.37465 1.35849 6.38646 1.35849 6.41007C1.35849 6.45728 1.3522 6.48089 1.33962 6.48089C1.3522 6.48089 1.35849 6.4868 1.35849 6.4986H1.4717C1.44654 6.52221 1.44025 6.54582 1.45283 6.56943C1.46541 6.59304 1.45283 6.60485 1.41509 6.60485C1.45283 6.61665 1.47799 6.62255 1.49057 6.62255C1.47799 6.64616 1.45912 6.66387 1.43396 6.67568C1.42138 6.68748 1.41509 6.70519 1.41509 6.7288V6.79963V6.74651C1.37736 6.78192 1.35849 6.81143 1.35849 6.83504L1.33962 6.90587C1.33962 6.92948 1.33333 6.94719 1.32075 6.95899C1.32075 6.95899 1.30189 6.9767 1.26415 7.01212V7.04753C1.26415 7.07114 1.25786 7.09475 1.24528 7.11836C1.2327 7.13016 1.22642 7.16558 1.22642 7.2246H1.20755C1.20755 7.20099 1.19497 7.18919 1.16981 7.18919C1.14465 7.18919 1.13208 7.20099 1.13208 7.2246V7.24231H1.09434H1.03774V7.34856C1.02516 7.34856 1 7.34856 0.962264 7.34856C0.937107 7.33675 0.924529 7.31314 0.924529 7.27773C0.899371 7.27773 0.886793 7.28953 0.886793 7.31314C0.886793 7.33675 0.886793 7.35446 0.886793 7.36626C0.886793 7.40168 0.899371 7.43709 0.924529 7.47251C0.899371 7.48431 0.886793 7.51382 0.886793 7.56104C0.886793 7.59646 0.899371 7.62597 0.924529 7.64958V7.7027V7.77353V7.79124L0.981132 7.84436C0.955975 7.84436 0.943396 7.85026 0.943396 7.86207C0.943396 7.87387 0.955975 7.87978 0.981132 7.87978C1.00629 7.90339 1.01887 7.92109 1.01887 7.9329V7.96831V8.05685C1.0566 8.05685 1.0566 8.07456 1.01887 8.10997H1.03774L1.01887 8.1808C0.993711 8.20441 0.993711 8.21622 1.01887 8.21622C1.01887 8.22802 1.01258 8.23392 1 8.23392H0.981132V8.34017L0.924529 8.39329H1.01887C0.955975 8.39329 0.924529 8.39919 0.924529 8.411C0.924529 8.48183 0.943396 8.51724 0.981132 8.51724H1.01887H1.03774H1.01887H0.981132C0.981132 8.52905 0.993711 8.53495 1.01887 8.53495C0.981132 8.60578 0.949686 8.6471 0.924529 8.6589C0.924529 8.68251 0.930818 8.71202 0.943396 8.74744C0.968554 8.78285 0.981132 8.81236 0.981132 8.83597C0.981132 8.84778 0.974843 8.86549 0.962264 8.8891C0.962264 8.91271 0.949686 8.92451 0.924529 8.92451C0.899371 8.94812 0.886793 8.97763 0.886793 9.01305C0.886793 9.03666 0.886793 9.06027 0.886793 9.08388L0.924529 9.137C0.924529 9.137 0.886793 9.16061 0.811321 9.20783V9.26095V9.27866C0.798742 9.34949 0.798742 9.41442 0.811321 9.47344C0.861635 9.47344 0.886793 9.48524 0.886793 9.50885L0.924529 9.56198C0.937107 9.56198 0.943396 9.56788 0.943396 9.57968C0.943396 9.60329 0.937107 9.621 0.924529 9.63281V9.68593H0.981132V9.77446C0.943396 9.77446 0.924529 9.76266 0.924529 9.73905V9.70364C0.899371 9.70364 0.899371 9.72724 0.924529 9.77446V9.82759V9.91612V10.0047V10.0224C0.924529 10.0224 0.91195 10.046 0.886793 10.0932C0.899371 10.105 0.930818 10.1581 0.981132 10.2526V10.3057C0.993711 10.3057 1 10.3116 1 10.3234C1 10.347 0.993711 10.3647 0.981132 10.3765V10.4296C1.00629 10.4414 1.00629 10.4532 0.981132 10.4651C0.955975 10.4651 0.968554 10.4828 1.01887 10.5182H0.981132C0.943396 10.5418 0.924529 10.5831 0.924529 10.6421C0.899371 10.6539 0.893082 10.6716 0.905661 10.6952C0.918239 10.7189 0.91195 10.7484 0.886793 10.7838C0.886793 10.8074 0.893082 10.8251 0.905661 10.8369C0.918239 10.8369 0.924529 10.8487 0.924529 10.8723V10.9609H0.886793C0.886793 10.9845 0.886793 11.0081 0.886793 11.0317C0.886793 11.0553 0.899371 11.0671 0.924529 11.0671V11.0848V11.1202L0.886793 11.1733C0.886793 11.2324 0.886793 11.2619 0.886793 11.2619C0.886793 11.2619 0.899371 11.2737 0.924529 11.2973C0.924529 11.3091 0.924529 11.3268 0.924529 11.3504C0.924529 11.374 0.91195 11.3976 0.886793 11.4212C0.899371 11.4331 0.905661 11.4449 0.905661 11.4567C0.905661 11.4921 0.899371 11.5098 0.886793 11.5098V11.5452V11.6337H0.905661V11.616C0.905661 11.616 0.91195 11.6042 0.924529 11.5806C0.924529 11.5924 0.918239 11.6042 0.905661 11.616V11.6337H0.886793C0.886793 11.681 0.899371 11.7046 0.924529 11.7046C0.899371 11.7282 0.880503 11.7518 0.867925 11.7754C0.867925 11.799 0.849057 11.8167 0.811321 11.8285C0.811321 11.8521 0.823899 11.8757 0.849057 11.8993C0.874214 11.923 0.886793 11.9407 0.886793 11.9525C0.91195 11.9525 0.924529 11.9643 0.924529 11.9879V12.0056H0.886793C0.836478 12.0056 0.811321 11.9997 0.811321 11.9879C0.798742 11.9761 0.798742 11.9643 0.811321 11.9525L0.792453 12.0056C0.805031 12.0056 0.836478 12.0174 0.886793 12.041H0.924529C0.924529 12.0646 0.930818 12.0764 0.943396 12.0764C0.968554 12.0646 0.993711 12.0823 1.01887 12.1295C1.03145 12.1295 1.03145 12.165 1.01887 12.2358V12.2535H0.981132H0.924529H0.943396C0.968554 12.2535 0.981132 12.2653 0.981132 12.2889H0.924529V12.3774C0.899371 12.4129 0.899371 12.4424 0.924529 12.466V12.4837C0.924529 12.4955 0.943396 12.5014 0.981132 12.5014V12.5722C0.981132 12.6194 0.993711 12.6194 1.01887 12.5722V12.6431V12.6785C1.03145 12.6785 1.03774 12.6844 1.03774 12.6962H1.01887C1.03145 12.7316 1.03774 12.7847 1.03774 12.8555H1.13208C1.10692 12.8674 1.09434 12.8851 1.09434 12.9087H1.01887C1.01887 12.9559 1.02516 12.9854 1.03774 12.9972C1.02516 12.9972 1.01887 13.0031 1.01887 13.0149V13.1034V13.0326H1.03774C1.07547 13.0916 1.07547 13.1389 1.03774 13.1743C1.03774 13.2097 1.03145 13.2333 1.01887 13.2451C1.01887 13.2687 1.01887 13.2805 1.01887 13.2805C1.03145 13.2923 1.03145 13.31 1.01887 13.3336C1.03145 13.3809 1.03774 13.4163 1.03774 13.4399H1.01887C1.03145 13.4753 1.03774 13.5048 1.03774 13.5284C1.05031 13.552 1.06918 13.5756 1.09434 13.5993C1.06918 13.5993 1.05031 13.5993 1.03774 13.5993C1.03774 13.6111 1.03145 13.617 1.01887 13.617V13.6524C1.01887 13.6642 1.02516 13.6701 1.03774 13.6701V13.7055C1.03774 13.7173 1.0566 13.7232 1.09434 13.7232C1.04403 13.735 1.01887 13.7645 1.01887 13.8117C1.01887 13.8354 1.02516 13.8708 1.03774 13.918H1.01887V13.9357C1.01887 13.9475 1.02516 13.9593 1.03774 13.9711C1.05031 13.9711 1.0566 13.977 1.0566 13.9888C1.0566 14.0124 1.05031 14.0301 1.03774 14.0419H1.09434V14.0951C1.09434 14.1305 1.07547 14.1541 1.03774 14.1659H1.01887C0.993711 14.1895 0.993711 14.2249 1.01887 14.2721C1.03145 14.2721 1.04403 14.278 1.0566 14.2898C1.06918 14.3016 1.06289 14.3194 1.03774 14.343V14.3784H1.01887H1.03774C1.02516 14.402 1.01887 14.4374 1.01887 14.4846C1.03145 14.4846 1.03774 14.4964 1.03774 14.52C1.05031 14.5436 1.06918 14.5673 1.09434 14.5909H1.03774L1.09434 14.6086C1.1195 14.6086 1.13208 14.6322 1.13208 14.6794L1.01887 14.7856C0.993711 14.8093 0.987421 14.8329 1 14.8565C1.01258 14.8801 1.00629 14.8919 0.981132 14.8919C1.01887 14.9155 1.03774 14.9391 1.03774 14.9627V14.9981C1.03774 15.0099 1.03145 15.0158 1.01887 15.0158C1.03145 15.0276 1.03774 15.0572 1.03774 15.1044H1.01887V15.1221C1.01887 15.1339 1.00629 15.1398 0.981132 15.1398H1.01887C1.03145 15.1398 1.03774 15.1457 1.03774 15.1575C1.03774 15.1929 1.0566 15.2283 1.09434 15.2637C1.06918 15.2637 1.05031 15.2697 1.03774 15.2815C1.02516 15.2933 1.00629 15.2992 0.981132 15.2992C0.943396 15.3228 0.924529 15.3936 0.924529 15.5116V15.5471C0.899371 15.5471 0.874214 15.553 0.849057 15.5648C0.823899 15.5884 0.811321 15.612 0.811321 15.6356L0.792453 15.6533H0.754717L0.679245 15.7241H0.660377H0.679245C0.72956 15.7477 0.754717 15.7655 0.754717 15.7773C0.754717 15.8127 0.761006 15.8304 0.773585 15.8304C0.786164 15.8422 0.792453 15.8599 0.792453 15.8835C0.779874 15.8835 0.773585 15.8894 0.773585 15.9012C0.761006 15.913 0.754717 15.9366 0.754717 15.972C0.779874 15.9248 0.792453 15.9248 0.792453 15.972V16.0075H0.811321L0.886793 15.972V16.0783H0.924529C0.899371 16.1137 0.899371 16.1314 0.924529 16.1314V16.1668C0.924529 16.1786 0.943396 16.1845 0.981132 16.1845C0.943396 16.1845 0.91195 16.1904 0.886793 16.2022C0.874214 16.214 0.867925 16.2258 0.867925 16.2377C0.842767 16.2613 0.823899 16.2731 0.811321 16.2731C0.811321 16.2731 0.811321 16.279 0.811321 16.2908C0.786164 16.3498 0.786164 16.3911 0.811321 16.4147V16.5033V16.521H0.830189C0.842767 16.521 0.849057 16.5151 0.849057 16.5033C0.861635 16.5033 0.874214 16.5033 0.886793 16.5033C0.886793 16.5151 0.899371 16.521 0.924529 16.521V16.5033C0.949686 16.5151 0.962264 16.5328 0.962264 16.5564C0.974843 16.58 0.981132 16.6036 0.981132 16.6272C0.981132 16.6744 0.993711 16.698 1.01887 16.698V16.7512C1.00629 16.7748 1 16.7925 1 16.8043C1 16.8397 1.00629 16.8633 1.01887 16.8751C1.01887 16.8751 1.00629 16.8928 0.981132 16.9282H1.01887V17.0168C1.01887 17.0404 1.01887 17.0581 1.01887 17.0699C1.03145 17.0817 1.03774 17.1053 1.03774 17.1407V17.2116L1.09434 17.2647C1.09434 17.3001 1.08805 17.3414 1.07547 17.3886C1.07547 17.4359 1.06289 17.4713 1.03774 17.4949V17.5657C1.02516 17.5775 1.01887 17.6129 1.01887 17.6719C1.01887 17.7546 1.00629 17.8018 0.981132 17.8136C0.981132 17.908 0.974843 17.973 0.962264 18.0084C0.962264 18.0556 0.949686 18.1146 0.924529 18.1855C0.924529 18.1973 0.943396 18.215 0.981132 18.2386H0.924529C0.962264 18.2858 0.981132 18.3153 0.981132 18.3271V18.4334C0.943396 18.4334 0.924529 18.457 0.924529 18.5042C0.924529 18.516 0.918239 18.5278 0.905661 18.5396C0.880503 18.5632 0.849057 18.5868 0.811321 18.6104H0.886793H0.924529C0.899371 18.6222 0.893082 18.634 0.905661 18.6459C0.918239 18.6695 0.924529 18.699 0.924529 18.7344V18.7521V18.7875C0.949686 18.7875 0.962264 18.7993 0.962264 18.8229C0.974843 18.8465 0.981132 18.8642 0.981132 18.876C0.918239 18.9351 0.918239 18.9646 0.981132 18.9646V19L0.924529 18.9646H0.886793C0.91195 18.9174 0.918239 18.8761 0.905661 18.8406C0.893082 18.8052 0.886793 18.7757 0.886793 18.7521V18.7344C0.849057 18.7344 0.823899 18.7226 0.811321 18.699C0.811321 18.6754 0.811321 18.6518 0.811321 18.6281C0.798742 18.6163 0.798742 18.6104 0.811321 18.6104V18.575C0.811321 18.5632 0.805031 18.5514 0.792453 18.5396C0.742138 18.4334 0.748428 18.3802 0.811321 18.3802C0.798742 18.3802 0.792453 18.398 0.792453 18.4334C0.842767 18.4098 0.867925 18.392 0.867925 18.3802C0.880503 18.3684 0.886793 18.3507 0.886793 18.3271C0.836478 18.3271 0.811321 18.3389 0.811321 18.3625C0.798742 18.3743 0.798742 18.3802 0.811321 18.3802C0.811321 18.3448 0.836478 18.3212 0.886793 18.3094H0.811321C0.861635 18.2622 0.886793 18.2209 0.886793 18.1855H0.849057C0.823899 18.1855 0.811321 18.1678 0.811321 18.1323V18.0792C0.836478 18.0792 0.855346 18.0733 0.867925 18.0615L0.886793 18.0438C0.849057 18.0202 0.836478 18.0084 0.849057 18.0084C0.874214 18.0084 0.886793 18.0025 0.886793 17.9907V18.0084C0.91195 17.9966 0.924529 17.9671 0.924529 17.9199C0.924529 17.8962 0.924529 17.8726 0.924529 17.849C0.924529 17.8254 0.91195 17.8136 0.886793 17.8136C0.91195 17.8018 0.924529 17.7841 0.924529 17.7605C0.899371 17.6897 0.899371 17.6247 0.924529 17.5657V17.4949C0.91195 17.4949 0.905661 17.489 0.905661 17.4772C0.905661 17.4654 0.91195 17.4536 0.924529 17.4418V17.4063C0.924529 17.3827 0.91195 17.3591 0.886793 17.3355C0.91195 17.3001 0.924529 17.2765 0.924529 17.2647L0.981132 17.2116C0.943396 17.2116 0.924529 17.2057 0.924529 17.1938V17.1584H0.811321L0.886793 17.1407H0.811321C0.811321 17.0817 0.836478 17.0522 0.886793 17.0522V17.0168C0.836478 17.0168 0.811321 16.9932 0.811321 16.9459C0.849057 16.9341 0.855346 16.9223 0.830189 16.9105C0.81761 16.9105 0.811321 16.8987 0.811321 16.8751C0.811321 16.8633 0.805031 16.8515 0.792453 16.8397H0.754717L0.792453 16.8043H0.754717C0.792453 16.7571 0.792453 16.7217 0.754717 16.698V16.7512L0.679245 16.7158V16.698C0.666667 16.698 0.660377 16.6862 0.660377 16.6626C0.660377 16.639 0.666667 16.6272 0.679245 16.6272V16.6095L0.660377 16.5918V16.4678C0.647799 16.4678 0.64151 16.456 0.64151 16.4324V16.4147H0.660377L0.603774 16.397C0.641509 16.397 0.660377 16.3852 0.660377 16.3616V16.3262C0.622642 16.3026 0.603774 16.2849 0.603774 16.2731C0.578616 16.2377 0.559748 16.214 0.54717 16.2022C0.534591 16.2022 0.528302 16.1963 0.528302 16.1845C0.528302 16.1609 0.534591 16.1432 0.54717 16.1314C0.559748 16.1196 0.566038 16.1019 0.566038 16.0783H0.528302C0.490566 16.0783 0.471698 16.0547 0.471698 16.0075C0.446541 15.9838 0.433962 15.9602 0.433962 15.9366C0.433962 15.913 0.427673 15.8953 0.415094 15.8835C0.389937 15.8835 0.377358 15.8776 0.377358 15.8658C0.36478 15.8658 0.358491 15.8599 0.358491 15.8481C0.371069 15.8481 0.389937 15.8481 0.415094 15.8481H0.339623C0.339623 15.7891 0.327044 15.7477 0.301887 15.7241C0.327044 15.7241 0.352201 15.7123 0.377358 15.6887L0.415094 15.6533V15.6356C0.377359 15.612 0.36478 15.5943 0.377358 15.5825C0.402516 15.5825 0.415094 15.5707 0.415094 15.5471C0.36478 15.5471 0.339623 15.5353 0.339623 15.5116C0.377359 15.488 0.402516 15.4526 0.415094 15.4054C0.427673 15.37 0.446541 15.3464 0.471698 15.3346C0.471698 15.311 0.477988 15.2992 0.490566 15.2992H0.528302C0.503145 15.2992 0.496855 15.2874 0.509434 15.2637C0.522013 15.2519 0.528302 15.2342 0.528302 15.2106V15.2992L0.566038 15.2637V15.2992C0.591195 15.2756 0.603774 15.246 0.603774 15.2106H0.584906C0.572327 15.2106 0.566038 15.1929 0.566038 15.1575H0.584906C0.584906 15.1575 0.591195 15.1516 0.603774 15.1398C0.603774 15.1162 0.622642 15.1044 0.660377 15.1044C0.660377 15.0454 0.641509 15.0158 0.603774 15.0158H0.660377C0.622642 14.9804 0.603774 14.945 0.603774 14.9096L0.622642 14.8919C0.647799 14.8683 0.660377 14.8506 0.660377 14.8388V14.8211C0.660377 14.7975 0.666667 14.7856 0.679245 14.7856V14.7148V14.6794V14.6086C0.679245 14.5968 0.704403 14.5791 0.754717 14.5555C0.704403 14.5555 0.679245 14.5318 0.679245 14.4846C0.666667 14.4846 0.660377 14.5082 0.660377 14.5555C0.660377 14.4964 0.641509 14.4492 0.603774 14.4138C0.515723 14.3666 0.490566 14.3253 0.528302 14.2898C0.528302 14.278 0.534591 14.2603 0.54717 14.2367C0.559748 14.2131 0.566038 14.1895 0.566038 14.1659H0.603774V13.9888V13.8649H0.566038V13.8472H0.471698V13.8295H0.490566C0.490566 13.8295 0.503145 13.8235 0.528302 13.8117C0.490566 13.8117 0.471698 13.7881 0.471698 13.7409H0.433962V13.6701V13.6524C0.433962 13.6406 0.427673 13.6288 0.415094 13.617H0.433962L0.415094 13.5993C0.377359 13.6111 0.36478 13.6111 0.377358 13.5993C0.389937 13.5993 0.377359 13.5993 0.339623 13.5993C0.36478 13.5875 0.377358 13.5756 0.377358 13.5638C0.377358 13.552 0.383648 13.5402 0.396226 13.5284C0.396226 13.5166 0.402516 13.5107 0.415094 13.5107C0.45283 13.4635 0.503145 13.4399 0.566038 13.4399V13.4222V13.3336C0.540881 13.31 0.528302 13.2805 0.528302 13.2451H0.566038V13.1743C0.591195 13.1389 0.603774 13.0916 0.603774 13.0326C0.628931 13.0326 0.64151 13.0267 0.64151 13.0149C0.654088 13.0031 0.666667 12.9972 0.679245 12.9972L0.660377 12.9795L0.679245 12.9087C0.666667 12.8851 0.641509 12.8674 0.603774 12.8555H0.584906V12.8378C0.584906 12.8378 0.591195 12.826 0.603774 12.8024C0.603774 12.7788 0.597484 12.7552 0.584906 12.7316C0.572327 12.708 0.578616 12.6962 0.603774 12.6962H0.660377V12.6785C0.660377 12.6785 0.666667 12.6726 0.679245 12.6608V12.6431C0.716981 12.6431 0.723271 12.6431 0.698113 12.6431C0.685535 12.6431 0.679245 12.6549 0.679245 12.6785C0.679245 12.6903 0.704403 12.7139 0.754717 12.7493V12.6785C0.779874 12.6785 0.792453 12.6844 0.792453 12.6962C0.792453 12.6962 0.798742 12.6962 0.811321 12.6962V12.6785C0.798742 12.6549 0.792453 12.6194 0.792453 12.5722H0.754717V12.5545C0.754717 12.5309 0.742139 12.5191 0.716981 12.5191C0.691824 12.5073 0.672956 12.5014 0.660377 12.5014C0.63522 12.466 0.610063 12.4424 0.584906 12.4306C0.572327 12.4188 0.553459 12.4011 0.528302 12.3774C0.528302 12.3656 0.534591 12.3479 0.54717 12.3243C0.559748 12.3007 0.578616 12.2889 0.603774 12.2889C0.578616 12.2653 0.566038 12.2417 0.566038 12.2181C0.566038 12.1827 0.578616 12.1532 0.603774 12.1295C0.603774 12.1059 0.591195 12.0882 0.566038 12.0764C0.540881 12.0528 0.540881 12.0292 0.566038 12.0056H0.603774V11.9879C0.603774 11.9643 0.591195 11.9525 0.566038 11.9525H0.54717C0.534591 11.9525 0.528302 11.9702 0.528302 12.0056V11.9525C0.553459 11.9407 0.566038 11.923 0.566038 11.8993C0.566038 11.8757 0.578616 11.8521 0.603774 11.8285H0.660377V11.8108H0.679245C0.716981 11.7754 0.735849 11.7577 0.735849 11.7577C0.735849 11.7459 0.716981 11.7282 0.679245 11.7046C0.666667 11.7046 0.660377 11.681 0.660377 11.6337C0.660377 11.5747 0.666667 11.5334 0.679245 11.5098C0.72956 11.498 0.754717 11.4685 0.754717 11.4212C0.716981 11.3976 0.691824 11.374 0.679245 11.3504C0.679245 11.3268 0.679245 11.3091 0.679245 11.2973C0.691824 11.2973 0.704403 11.2914 0.716981 11.2796C0.742139 11.256 0.754717 11.2324 0.754717 11.2088C0.754717 11.1852 0.742139 11.1733 0.716981 11.1733C0.691824 11.1615 0.679245 11.1438 0.679245 11.1202H0.660377V11.0848L0.679245 11.0671L0.716981 11.0317C0.742139 11.0081 0.754717 10.9845 0.754717 10.9609V10.9431C0.754717 10.8959 0.767296 10.8605 0.792453 10.8369V10.7838V10.7661C0.792453 10.7661 0.792453 10.7484 0.792453 10.713V10.6598C0.842767 10.6126 0.855346 10.5772 0.830189 10.5536C0.81761 10.5182 0.805031 10.4828 0.792453 10.4473V10.3765C0.767296 10.3529 0.754717 10.3116 0.754717 10.2526C0.716981 10.1935 0.704403 10.1581 0.716981 10.1463C0.72956 10.1345 0.716981 10.1168 0.679245 10.0932C0.716981 10.0578 0.735849 10.0401 0.735849 10.0401C0.735849 10.0283 0.716981 10.0165 0.679245 10.0047V9.95154C0.679245 9.90432 0.679245 9.88071 0.679245 9.88071C0.754717 9.83349 0.754717 9.79807 0.679245 9.77446V9.63281L0.660377 9.57968C0.647799 9.57968 0.63522 9.57378 0.622642 9.56198C0.610063 9.55017 0.597484 9.54427 0.584906 9.54427C0.584906 9.54427 0.578616 9.53246 0.566038 9.50885V9.47344C0.566038 9.43803 0.566038 9.40851 0.566038 9.3849C0.578616 9.34949 0.610063 9.31407 0.660377 9.27866V9.26095V9.20783V9.15471C0.660377 9.10749 0.691824 9.07207 0.754717 9.04846V8.92451H0.679245C0.679245 8.8891 0.691824 8.87139 0.716981 8.87139C0.742139 8.85958 0.754717 8.84778 0.754717 8.83597L0.679245 8.80056C0.691824 8.80056 0.704403 8.79466 0.716981 8.78285C0.742139 8.75924 0.754717 8.73563 0.754717 8.71202H0.679245C0.704403 8.70022 0.716981 8.69432 0.716981 8.69432C0.716981 8.68251 0.723271 8.67071 0.735849 8.6589C0.735849 8.6471 0.742139 8.64119 0.754717 8.64119C0.779874 8.64119 0.792453 8.62939 0.792453 8.60578V8.53495H0.754717C0.754717 8.52314 0.742139 8.51724 0.716981 8.51724C0.704403 8.50544 0.716981 8.48773 0.754717 8.46412H0.679245C0.716981 8.44051 0.72956 8.4169 0.716981 8.39329C0.704403 8.35788 0.716981 8.34017 0.754717 8.34017V8.21622C0.754717 8.19261 0.72956 8.1808 0.679245 8.1808V8.14539C0.679245 8.13358 0.672956 8.12178 0.660377 8.10997C0.660377 8.10997 0.666667 8.10407 0.679245 8.09226C0.666667 8.06866 0.666667 8.03324 0.679245 7.98602C0.679245 7.97422 0.691824 7.97422 0.716981 7.98602C0.742139 7.98602 0.767296 7.98012 0.792453 7.96831C0.767296 7.96831 0.754717 7.96241 0.754717 7.95061V7.91519H0.603774V7.87978C0.603774 7.85617 0.597484 7.83256 0.584906 7.80895C0.572327 7.77353 0.566038 7.72631 0.566038 7.66729C0.591195 7.65548 0.603774 7.64368 0.603774 7.63187C0.603774 7.60826 0.591195 7.59646 0.566038 7.59646C0.566038 7.51382 0.578616 7.4548 0.603774 7.41939C0.603774 7.40758 0.597484 7.40168 0.584906 7.40168C0.572327 7.40168 0.566038 7.40758 0.566038 7.41939L0.528302 7.36626C0.528302 7.35446 0.515723 7.34856 0.490566 7.34856C0.477988 7.33675 0.471698 7.31314 0.471698 7.27773L0.528302 7.24231C0.528302 7.23051 0.540881 7.2246 0.566038 7.2246C0.591195 7.2246 0.603774 7.18919 0.603774 7.11836C0.603774 7.08295 0.610063 7.05934 0.622642 7.04753C0.647799 7.03573 0.666667 7.00031 0.679245 6.94129C0.679245 6.91768 0.654088 6.90587 0.603774 6.90587V6.7288C0.603774 6.69338 0.591195 6.65797 0.566038 6.62255H0.603774C0.641509 6.62255 0.660377 6.61665 0.660377 6.60485H0.603774C0.578616 6.60485 0.566038 6.59304 0.566038 6.56943V6.53402V6.4986C0.540881 6.4986 0.528302 6.4868 0.528302 6.46319C0.528302 6.42777 0.540881 6.39826 0.566038 6.37465C0.566038 6.35104 0.578616 6.33924 0.603774 6.33924C0.641509 6.32743 0.666667 6.31563 0.679245 6.30382C0.679245 6.26841 0.704403 6.2507 0.754717 6.2507C0.754717 6.27431 0.761006 6.29202 0.773585 6.30382C0.773585 6.31563 0.779874 6.32153 0.792453 6.32153C0.779874 6.33333 0.773585 6.34514 0.773585 6.35694V6.37465H0.792453H0.886793C0.886793 6.33924 0.880503 6.30972 0.867925 6.28611C0.867925 6.2507 0.842767 6.21528 0.792453 6.17987H0.773585C0.761006 6.17987 0.754717 6.18577 0.754717 6.19758H0.660377C0.63522 6.19758 0.603774 6.17397 0.566038 6.12675V6.05592C0.566038 6.04411 0.572327 6.03231 0.584906 6.0205C0.584906 6.0205 0.610063 6.03231 0.660377 6.05592C0.660377 5.97328 0.628931 5.93197 0.566038 5.93197V5.87884C0.540881 5.86704 0.509434 5.88475 0.471698 5.93197H0.433962C0.421384 5.93197 0.389937 5.91426 0.339623 5.87884V5.79031H0.301887H0.264151C0.251572 5.79031 0.245283 5.7785 0.245283 5.75489L0.301887 5.73719V5.66636C0.327044 5.66636 0.339623 5.65455 0.339623 5.63094C0.352201 5.60733 0.377359 5.60733 0.415094 5.63094V5.66636L0.433962 5.63094H0.471698H0.433962C0.433962 5.59553 0.440252 5.57782 0.45283 5.57782H0.471698C0.496855 5.55421 0.509434 5.55421 0.509434 5.57782C0.522013 5.58962 0.540881 5.60733 0.566038 5.63094V5.57782C0.540881 5.55421 0.515723 5.5365 0.490566 5.5247C0.477988 5.50109 0.45912 5.47748 0.433962 5.45387V5.36533L0.471698 5.32992C0.471698 5.31811 0.465409 5.3004 0.45283 5.27679C0.440252 5.25318 0.427673 5.24138 0.415094 5.24138C0.389937 5.24138 0.377358 5.23548 0.377358 5.22367C0.36478 5.21187 0.377359 5.20006 0.415094 5.18826C0.339623 5.18826 0.283019 5.17055 0.245283 5.13514V5.08201H0.207547C0.207547 5.0584 0.220126 5.0466 0.245283 5.0466H0.207547C0.18239 5.0466 0.176101 5.0407 0.188679 5.02889C0.201258 5.01709 0.194969 5.01118 0.169811 5.01118H0.150943C0.138365 5.01118 0.125786 5.00528 0.113208 4.99348C0.138365 4.95806 0.157233 4.94035 0.169811 4.94035C0.194969 4.92855 0.207547 4.91084 0.207547 4.88723C0.232704 4.88723 0.245283 4.87543 0.245283 4.85182C0.245283 4.82821 0.232704 4.8105 0.207547 4.7987C0.18239 4.77509 0.176101 4.76328 0.188679 4.76328C0.201258 4.75148 0.207547 4.73377 0.207547 4.71016H0.245283V4.62162C0.283019 4.62162 0.301887 4.63933 0.301887 4.67474C0.327044 4.67474 0.339623 4.68065 0.339623 4.69245C0.352201 4.70426 0.377359 4.71016 0.415094 4.71016H0.433962V4.67474C0.433962 4.67474 0.427673 4.66294 0.415094 4.63933V4.62162V4.58621H0.320755C0.308176 4.58621 0.301887 4.5803 0.301887 4.5685C0.251572 4.53308 0.220126 4.50947 0.207547 4.49767C0.207547 4.48587 0.220126 4.45045 0.245283 4.39143H0.207547L0.245283 4.37372H0.301887V4.3383C0.301887 4.30289 0.289308 4.28518 0.264151 4.28518H0.245283C0.283019 4.22616 0.257862 4.15533 0.169811 4.07269L0.113208 4.14352V4.07269V4.05499V4.07269C0.138365 4.06089 0.150943 4.04908 0.150943 4.03728C0.163522 4.02547 0.18239 4.01957 0.207547 4.01957C0.207547 3.93694 0.238994 3.93694 0.301887 4.01957H0.339623V3.93103V3.8425L0.301887 3.80708L0.339623 3.75396C0.314466 3.73035 0.295598 3.70674 0.283019 3.68313C0.283019 3.65952 0.257862 3.64772 0.207547 3.64772V3.59459C0.18239 3.54738 0.150943 3.54738 0.113208 3.59459V3.52377L0.0943395 3.50606C0.0943395 3.44703 0.0691823 3.40572 0.018868 3.38211C0.018868 3.3585 0.0125786 3.34669 0 3.34669C0 3.33489 0 3.31718 0 3.29357H0.018868C0.0314466 3.29357 0.0377359 3.29357 0.0377359 3.29357C0.0503146 3.28176 0.0691824 3.27586 0.0943395 3.27586C0.106918 3.22864 0.132075 3.20503 0.169811 3.20503C0.106918 3.18142 0.106918 3.14011 0.169811 3.08108V3.01025V2.97484C0.169811 2.93942 0.157233 2.92171 0.132075 2.92171C0.119497 2.90991 0.113208 2.8981 0.113208 2.8863C0.113208 2.86269 0.119497 2.85089 0.132075 2.85089H0.169811H0.207547H0.113208C0.100629 2.81547 0.081761 2.79776 0.0566039 2.79776C0.0314466 2.78596 0.018868 2.77415 0.018868 2.76235V2.6561C0.018868 2.6443 0.0314466 2.6384 0.0566039 2.6384C0.081761 2.62659 0.0943395 2.60888 0.0943395 2.58527C0.106918 2.58527 0.132075 2.57347 0.169811 2.54986C0.169811 2.51445 0.157233 2.49674 0.132075 2.49674C0.119497 2.48493 0.113208 2.47313 0.113208 2.46132C0.113208 2.43771 0.106918 2.4141 0.0943395 2.39049C0.0943395 2.36688 0.100629 2.34918 0.113208 2.33737C0.113208 2.31376 0.081761 2.30196 0.018868 2.30196V2.26654C0.0566037 2.26654 0.0754716 2.26064 0.0754716 2.24883C0.0880502 2.22523 0.100629 2.21342 0.113208 2.21342L0.0943395 2.1603C0.0943395 2.14849 0.100629 2.14849 0.113208 2.1603H0.150943C0.163522 2.1603 0.169811 2.1603 0.169811 2.1603C0.18239 2.14849 0.194969 2.14259 0.207547 2.14259C0.27044 2.08357 0.27044 2.04225 0.207547 2.01864V1.96552C0.207547 2.00093 0.213837 2.01864 0.226415 2.01864H0.245283V1.91239V1.73532C0.245283 1.73532 0.232704 1.72942 0.207547 1.71761H0.188679C0.176101 1.71761 0.169811 1.70581 0.169811 1.6822V1.64678C0.169811 1.62317 0.18239 1.61137 0.207547 1.61137V1.59366V1.54054H0.226415V1.52283C0.226415 1.52283 0.232704 1.51103 0.245283 1.48742H0.301887V1.46971H0.245283L0.207547 1.41659V1.38117C0.232704 1.38117 0.245283 1.35166 0.245283 1.29264V1.27493L0.207547 1.2041L0.169811 1.16869C0.169811 1.15688 0.157233 1.15098 0.132075 1.15098C0.119497 1.13917 0.113208 1.12147 0.113208 1.09786C0.163522 1.09786 0.188679 1.10966 0.188679 1.13327C0.201258 1.14508 0.220126 1.15098 0.245283 1.15098C0.320755 1.08015 0.320755 1.04473 0.245283 1.04473C0.220126 1.02112 0.201258 1.01522 0.188679 1.02703C0.176101 1.02703 0.169811 1.01522 0.169811 0.991612V0.973905H0.207547C0.232704 0.973905 0.251572 0.968002 0.264151 0.956197L0.301887 0.920783V0.849953L0.245283 0.86766V0.779123V0.814539C0.245283 0.838148 0.264151 0.849953 0.301887 0.849953C0.301887 0.802733 0.314466 0.779123 0.339623 0.779123C0.339623 0.767319 0.333333 0.761416 0.320755 0.761416C0.320755 0.761416 0.320755 0.755514 0.320755 0.743709C0.308176 0.743709 0.301887 0.737807 0.301887 0.726002C0.327044 0.690587 0.36478 0.655172 0.415094 0.619757C0.415094 0.619757 0.415094 0.60205 0.415094 0.566636C0.36478 0.566636 0.339623 0.525318 0.339623 0.442684C0.402516 0.430879 0.402516 0.395464 0.339623 0.33644V0.407269H0.301887V0.33644C0.314466 0.33644 0.320755 0.330537 0.320755 0.318733L0.301887 0.301024C0.301887 0.26561 0.283019 0.242 0.245283 0.230195V0.177073H0.301887V0.123951C0.264151 0.112146 0.232704 0.106244 0.207547 0.106244V0.0354143H0.169811C0.194969 0.0354143 0.207547 0.0295119 0.207547 0.0177071V0C0.232704 0.0236095 0.264151 0.0354143 0.301887 0.0354143C0.339623 0.0354143 0.377359 0.0354143 0.415094 0.0354143C0.427673 0.082634 0.433962 0.129854 0.433962 0.177073L0.471698 0.230195C0.446541 0.242 0.433962 0.26561 0.433962 0.301024H0.45283C0.45283 0.301024 0.45912 0.31283 0.471698 0.33644C0.471698 0.348245 0.477988 0.354147 0.490566 0.354147C0.515723 0.377756 0.528302 0.395464 0.528302 0.407269C0.540881 0.407269 0.553459 0.413172 0.566038 0.424977H0.584906L0.603774 0.442684V0.495806C0.603774 0.53122 0.610063 0.548928 0.622642 0.548928H0.660377C0.622642 0.572538 0.603774 0.584343 0.603774 0.584343V0.619757C0.603774 0.655172 0.610063 0.678782 0.622642 0.690587L0.660377 0.726002C0.660377 0.737807 0.647799 0.743709 0.622642 0.743709H0.603774V0.761416C0.603774 0.773221 0.591195 0.779123 0.566038 0.779123L0.528302 0.849953V0.86766H0.471698C0.446541 0.86766 0.433962 0.885368 0.433962 0.920783C0.433962 0.885368 0.427673 0.86766 0.415094 0.86766L0.433962 0.920783C0.421384 0.956198 0.415094 0.979807 0.415094 0.991612C0.415094 1.05064 0.415094 1.09195 0.415094 1.11556C0.427673 1.12737 0.465409 1.12147 0.528302 1.09786C0.528302 1.12147 0.522013 1.13917 0.509434 1.15098C0.496855 1.15098 0.503145 1.15098 0.528302 1.15098C0.528302 1.16278 0.540881 1.16869 0.566038 1.16869C0.591195 1.1923 0.622642 1.22771 0.660377 1.27493C0.672956 1.27493 0.691824 1.28083 0.716981 1.29264C0.742139 1.30444 0.754717 1.33395 0.754717 1.38117C0.779874 1.38117 0.798742 1.39298 0.811321 1.41659H0.792453V1.46971C0.805031 1.46971 0.823899 1.47561 0.849057 1.48742C0.874214 1.48742 0.899371 1.48742 0.924529 1.48742C0.924529 1.51103 0.918239 1.52873 0.905661 1.54054C0.893082 1.55235 0.886793 1.57005 0.886793 1.59366H0.924529H0.943396C0.968554 1.59366 0.981132 1.59366 0.981132 1.59366C0.981132 1.60547 0.968554 1.62317 0.943396 1.64678C0.930818 1.65859 0.924529 1.67039 0.924529 1.6822C0.924529 1.70581 0.943396 1.71761 0.981132 1.71761V1.6822C1.01887 1.70581 1.03774 1.72352 1.03774 1.73532H1.01887V1.78844H1.03774H1.09434C1.09434 1.82386 1.10063 1.84747 1.11321 1.85927C1.11321 1.87108 1.1195 1.88288 1.13208 1.89469C1.10692 1.90649 1.07547 1.91239 1.03774 1.91239C1.02516 1.91239 1.01887 1.91239 1.01887 1.91239C1.01887 1.90059 1.00629 1.89469 0.981132 1.89469H0.943396C0.930818 1.89469 0.924529 1.90059 0.924529 1.91239H0.981132C0.981132 1.936 0.968554 1.95371 0.943396 1.96552C0.930818 1.97732 0.924529 1.99503 0.924529 2.01864C0.924529 2.03044 0.924529 2.04815 0.924529 2.07176C0.937107 2.09537 0.955975 2.10718 0.981132 2.10718C0.943396 2.13079 0.91195 2.14259 0.886793 2.14259L0.924529 2.1603C0.924529 2.19571 0.91195 2.23113 0.886793 2.26654C0.937107 2.26654 0.962264 2.27244 0.962264 2.28425C0.974843 2.29605 0.993711 2.30196 1.01887 2.30196C1.01887 2.37279 1.04403 2.42591 1.09434 2.46132C1.1195 2.47313 1.1761 2.47903 1.26415 2.47903H1.33962H1.35849C1.39623 2.46723 1.43396 2.46132 1.4717 2.46132H1.49057C1.47799 2.47313 1.4717 2.50264 1.4717 2.54986V2.49674L1.49057 2.47903C1.51572 2.51445 1.53459 2.52625 1.54717 2.51444C1.57233 2.50264 1.5912 2.51445 1.60377 2.54986C1.5912 2.56166 1.5912 2.56757 1.60377 2.56757C1.60377 2.57937 1.62893 2.58527 1.67925 2.58527C1.74214 2.52625 1.78616 2.54396 1.81132 2.6384H1.83019V2.62069C1.83019 2.62069 1.83648 2.60888 1.84906 2.58527C1.84906 2.63249 1.8805 2.6561 1.9434 2.6561H2Z" fill="black"/>
</svg>
