<svg width="19" height="12" viewBox="0 0 19 12" fill="none" xmlns="http://www.w3.org/2000/svg">
<path d="M19 1.56302L18.9504 1.96639L18.7189 1.93277H18.6197H18.4708H18.4378C18.3496 1.95518 18.2724 1.96078 18.2063 1.94958C18.1511 1.93838 18.1126 1.92157 18.0905 1.89916H17.9417V1.93277V1.94958C17.9417 1.96078 17.9252 1.96639 17.8921 1.96639C17.837 2.19048 17.7433 2.30812 17.611 2.31933L17.5944 2.33613V2.38655C17.5503 2.42017 17.5173 2.45938 17.4952 2.5042C17.4842 2.53781 17.4566 2.57703 17.4125 2.62185H17.3299C17.3299 2.64426 17.3188 2.66106 17.2968 2.67227C17.2747 2.67227 17.2637 2.69468 17.2637 2.7395C17.2417 2.82913 17.1755 2.87395 17.0653 2.87395H16.9991C16.955 2.89636 16.933 2.90756 16.933 2.90756H16.9164C16.8613 2.90756 16.8172 2.92437 16.7842 2.95798C16.7511 2.98039 16.7235 2.9916 16.7015 2.9916C16.6905 3.0028 16.6794 3.0084 16.6684 3.0084H16.5857L16.5692 3.04202C16.492 3.09804 16.4149 3.13165 16.3377 3.14286C16.2605 3.14286 16.1944 3.14286 16.1393 3.14286C16.0952 3.13165 16.0455 3.13165 15.9904 3.14286C15.9353 3.14286 15.8857 3.14286 15.8416 3.14286H15.8251C15.8251 3.18767 15.8085 3.23249 15.7755 3.27731C15.7534 3.31092 15.7424 3.35014 15.7424 3.39496L15.5605 3.78151L16.0566 3.47899L15.4778 4.31933L15.5605 4.42017L15.4778 4.47059L15.577 5.17647L15.1636 4.72269C15.1636 4.73389 15.1581 4.7451 15.1471 4.7563C15.103 4.7563 15.0809 4.76751 15.0809 4.78992C15.0699 4.80112 15.0699 4.81232 15.0809 4.82353L15.0479 4.84034C15.0148 4.84034 14.9927 4.85714 14.9817 4.89076C14.9707 4.91316 14.9431 4.92437 14.899 4.92437C14.899 4.93557 14.899 4.95798 14.899 4.9916C14.9101 5.014 14.9376 5.05322 14.9817 5.10924C14.9817 5.15406 14.9762 5.20448 14.9652 5.2605C14.9652 5.30532 14.9431 5.35574 14.899 5.41176L14.8825 5.44538L14.7998 5.63025V5.69748L14.7337 5.71429C14.7668 5.7591 14.7833 5.79832 14.7833 5.83193C14.7943 5.85434 14.7998 5.89356 14.7998 5.94958C14.7998 5.9944 14.7943 6.03922 14.7833 6.08403C14.7833 6.11765 14.7668 6.14006 14.7337 6.15126C14.7668 6.2409 14.7723 6.31933 14.7502 6.38655C14.7282 6.44258 14.6951 6.48179 14.651 6.5042C14.629 6.56022 14.6069 6.59944 14.5849 6.62185C14.5738 6.64426 14.5628 6.65546 14.5518 6.65546V6.72269C14.5408 6.72269 14.5187 6.7395 14.4856 6.77311C14.4305 6.80672 14.3974 6.82913 14.3864 6.84034C14.3864 6.85154 14.3809 6.87395 14.3699 6.90756C14.3368 6.90756 14.3148 6.92437 14.3037 6.95798C14.3037 6.98039 14.2927 6.9916 14.2707 6.9916L14.1715 7.0084H14.0888C14.0337 6.9972 13.984 6.96358 13.9399 6.90756C13.9069 6.85154 13.8628 6.79552 13.8077 6.73949V6.72269C13.7195 6.73389 13.6423 6.73389 13.5762 6.72269L13.4935 6.73949H13.4604C13.4384 6.7619 13.4108 6.77871 13.3777 6.78992C13.3446 6.78992 13.3006 6.80672 13.2454 6.84034L13.2124 6.90756C13.1903 6.95238 13.1683 6.98039 13.1462 6.9916C13.1242 6.9916 13.1021 6.9916 13.0801 6.9916C13.0801 7.0028 13.058 7.0084 13.0139 7.0084V7.04202C13.0139 7.05322 13.0029 7.05882 12.9809 7.05882C12.9588 7.05882 12.9423 7.06443 12.9312 7.07563C12.9312 7.08683 12.9202 7.09244 12.8982 7.09244C12.8651 7.13725 12.832 7.17647 12.799 7.21008C12.7659 7.23249 12.7438 7.2549 12.7328 7.27731V7.34454C12.6997 7.34454 12.6777 7.35014 12.6667 7.36134C12.6556 7.36134 12.6446 7.36134 12.6336 7.36134L12.6171 7.37815C12.6171 7.47899 12.5895 7.52941 12.5344 7.52941C12.5344 7.57423 12.4903 7.65266 12.4021 7.76471L12.3856 7.81513V7.84874C12.3856 7.87115 12.38 7.90476 12.369 7.94958C12.369 7.98319 12.347 8.02241 12.3029 8.06723V8.11765C12.3029 8.15126 12.2974 8.17927 12.2863 8.20168C12.2753 8.21288 12.2588 8.23529 12.2367 8.26891C12.1816 8.31372 12.1265 8.34174 12.0714 8.35294C12.0273 8.35294 11.9942 8.35294 11.9721 8.35294C11.917 8.35294 11.8895 8.34174 11.8895 8.31933C11.8343 8.34174 11.7792 8.35294 11.7241 8.35294H11.7076V8.42017H11.658H11.5918C11.5918 8.43137 11.5863 8.44258 11.5753 8.45378H11.5587C11.5036 8.45378 11.4706 8.45378 11.4595 8.45378C11.4595 8.45378 11.4595 8.46498 11.4595 8.48739C11.4265 8.58823 11.3768 8.67787 11.3107 8.7563C11.2887 8.77871 11.2666 8.79552 11.2446 8.80672C11.2225 8.80672 11.2115 8.81793 11.2115 8.84034H11.1619V8.87395C11.1178 8.95238 11.0847 8.9916 11.0627 8.9916L11.0461 9.02521C11.002 9.02521 10.98 9.04202 10.98 9.07563H10.9634V9.10924H10.8642V9.17647C10.8422 9.2437 10.8091 9.29972 10.765 9.34454C10.7209 9.38935 10.6768 9.43417 10.6327 9.47899C10.6107 9.52381 10.5776 9.56302 10.5335 9.59664C10.5004 9.61905 10.4784 9.63025 10.4674 9.63025C10.4674 9.66386 10.4508 9.68067 10.4178 9.68067H10.3847C10.3296 9.69188 10.2855 9.70868 10.2524 9.73109C10.2303 9.7535 10.1918 9.77591 10.1366 9.79832L10.1201 9.88235C10.076 9.90476 10.0319 9.92157 9.98782 9.93277C9.95474 9.94398 9.89411 9.94958 9.80592 9.94958C9.79489 9.94958 9.77836 9.96639 9.75631 10C9.73426 10.0224 9.69016 10.0336 9.62402 10.0336L9.60748 10.0504H9.5248C9.50276 10.084 9.48071 10.1064 9.45866 10.1176C9.43661 10.1289 9.40905 10.1457 9.37598 10.1681C9.35393 10.1905 9.33739 10.2017 9.32637 10.2017H9.2933H9.27676L9.19408 10.2353C9.17203 10.2577 9.13345 10.2857 9.07833 10.3193C9.03423 10.3529 8.99014 10.3697 8.94604 10.3697C8.93502 10.381 8.91297 10.3922 8.8799 10.4034C8.85785 10.4034 8.8358 10.4146 8.81375 10.437H8.73107C8.68697 10.5154 8.64288 10.5546 8.59878 10.5546H8.43342C8.40035 10.5658 8.37279 10.5826 8.35074 10.605C8.32869 10.6275 8.30664 10.6387 8.28459 10.6387C8.26255 10.6835 8.2405 10.7227 8.21845 10.7563C8.1964 10.7787 8.15782 10.8011 8.1027 10.8235C8.08065 10.8683 8.05309 10.8964 8.02002 10.9076V11.0084L8.06963 11.0924C8.1027 11.1373 8.12475 11.1597 8.13577 11.1597L8.78068 11.479L8.21845 11.6471C8.10821 11.7367 8.00899 11.7367 7.9208 11.6471L7.85466 11.5966H7.77198V11.5798H7.72237H7.62315C7.56803 11.591 7.50189 11.5966 7.42472 11.5966C7.33652 11.619 7.27038 11.6359 7.22628 11.6471C7.18219 11.6471 7.14912 11.6471 7.12707 11.6471C7.06092 11.7367 6.95619 11.7703 6.81288 11.7479C6.75776 11.7591 6.70815 11.7647 6.66406 11.7647C6.63098 11.7647 6.58689 11.7647 6.53177 11.7647C6.47665 11.8095 6.42153 11.8375 6.36641 11.8487C6.31129 11.8487 6.26719 11.8431 6.23412 11.8319H6.18451C6.07427 11.888 5.98056 11.8936 5.90339 11.8487C5.88135 11.8487 5.8593 11.8599 5.83725 11.8824C5.8152 11.8936 5.79315 11.8992 5.77111 11.8992C5.73803 11.9216 5.71047 11.944 5.68842 11.9664C5.66638 11.9888 5.62228 12 5.55614 12H5.3577H5.17581H5.1262C5.11517 12 5.08761 12 5.04352 12C4.99942 11.9888 4.95532 11.972 4.91123 11.9496C4.87816 11.9272 4.85611 11.8992 4.84508 11.8655C4.83406 11.8319 4.81201 11.7983 4.77894 11.7647C4.77894 11.7087 4.79547 11.6527 4.82855 11.5966C4.87264 11.5294 4.93879 11.4902 5.02698 11.479H5.10966L4.99391 11.395H5.1262C5.11517 11.395 5.10966 11.3838 5.10966 11.3613V11.3277C5.03249 11.2605 4.99391 11.2325 4.99391 11.2437C4.96084 11.1989 4.93879 11.1709 4.92776 11.1597C4.92776 11.1373 4.92225 11.1148 4.91123 11.0924C4.84508 11.0476 4.78445 11.014 4.72933 10.9916C4.68523 10.9692 4.64665 10.9412 4.61358 10.9076C4.59153 10.8964 4.56397 10.8796 4.5309 10.8571C4.50885 10.8347 4.48129 10.8123 4.44822 10.7899C4.36002 10.7451 4.31593 10.6947 4.31593 10.6387V10.605C4.31593 10.5826 4.29939 10.5714 4.26632 10.5714H4.24978C4.21671 10.5714 4.18915 10.5658 4.1671 10.5546L4.15057 10.5378C4.13954 10.5378 4.12852 10.5378 4.11749 10.5378C4.10647 10.5266 4.09545 10.521 4.08442 10.521H4.05135L3.9356 10.437H3.91906C3.91906 10.4146 3.90804 10.4034 3.88599 10.4034C3.86394 10.3922 3.85292 10.381 3.85292 10.3697H3.77024C3.74819 10.3249 3.72063 10.2913 3.68755 10.2689C3.65448 10.2353 3.62141 10.2017 3.58834 10.1681V10.0504C3.57731 10.0392 3.55527 10.0224 3.52219 10C3.50014 9.96639 3.4781 9.94958 3.45605 9.94958H3.43951C3.42849 9.94958 3.42298 9.93837 3.42298 9.91597C3.42298 9.93837 3.39542 9.94958 3.3403 9.94958L3.27415 9.98319C3.21903 10.0056 3.18596 9.9944 3.17493 9.94958C3.13084 10.0056 3.09225 10.0392 3.05918 10.0504C3.02611 10.0616 3.00406 10.084 2.99304 10.1176H2.89382L2.86075 10.1681H2.745C2.7009 10.2129 2.63475 10.2353 2.54656 10.2353L2.49695 10.2857C2.44183 10.3305 2.39223 10.3641 2.34813 10.3866C2.31506 10.3978 2.27647 10.4146 2.23238 10.437C2.12214 10.5714 2.01189 10.6387 1.90165 10.6387L1.98433 10.7227C1.99536 10.7227 2.00638 10.7283 2.01741 10.7395C2.03945 10.7619 2.05048 10.7787 2.05048 10.7899L2.13316 10.7395L2.18277 10.7899C2.24891 10.8123 2.30403 10.8291 2.34813 10.8403C2.40325 10.8403 2.46939 10.8627 2.54656 10.9076H2.57963L2.77807 11.0084L2.64578 11.479L2.39774 11.395L2.36466 11.479L2.18277 11.395H2.05048H1.98433H1.90165L1.98433 11.6471L1.5544 11.7647L1.43864 11.4958V11.479V11.395C1.40557 11.395 1.38903 11.3725 1.38903 11.3277H1.33943C1.25123 11.3277 1.17958 11.2717 1.12446 11.1597H1.09138C1.01422 11.1485 0.948071 11.126 0.89295 11.0924C0.848854 11.0588 0.815782 10.9972 0.793734 10.9076V10.8908C0.738613 10.902 0.689005 10.9076 0.644909 10.9076C0.600812 10.9076 0.551204 10.9076 0.496084 10.9076H0.413403H0.330722H0.248042L0.0826806 10.8908L0 10.521L0.231506 10.437H0.248042C0.248042 10.437 0.275602 10.4202 0.330722 10.3866H0.479547H0.5953H0.611836C0.611836 10.3866 0.617348 10.381 0.628373 10.3697H0.677981C0.854366 10.3697 0.964607 10.3753 1.0087 10.3866C1.06382 10.3866 1.10241 10.3978 1.12446 10.4202C1.15753 10.4314 1.18509 10.437 1.20714 10.437C1.21816 10.4146 1.24021 10.3978 1.27328 10.3866C1.30635 10.3641 1.34494 10.3305 1.38903 10.2857C1.45518 10.2633 1.50479 10.2465 1.53786 10.2353C1.57093 10.2129 1.61503 10.2017 1.67015 10.2017V10.1681H1.68668H1.75283C1.75283 10.1345 1.75834 10.1176 1.76936 10.1176H1.7859C1.80795 10.0728 1.84653 10.028 1.90165 9.98319C1.9678 9.93837 2.01741 9.91597 2.05048 9.91597C2.12765 9.91597 2.18828 9.87675 2.23238 9.79832C2.25442 9.79832 2.28198 9.79272 2.31506 9.78151C2.34813 9.77031 2.37569 9.76471 2.39774 9.76471C2.45286 9.71989 2.50247 9.68627 2.54656 9.66387C2.59066 9.64146 2.6568 9.63025 2.745 9.63025C2.76704 9.58543 2.80563 9.55182 2.86075 9.52941C2.90484 9.47339 2.94894 9.43977 2.99304 9.42857C3.04816 9.40616 3.08123 9.39496 3.09225 9.39496H3.17493C3.21903 9.37255 3.25762 9.36134 3.29069 9.36134C3.33478 9.35014 3.37888 9.34454 3.42298 9.34454L3.48912 9.31092C3.50015 9.31092 3.51117 9.30532 3.52219 9.29412C3.53322 9.28291 3.54424 9.27171 3.55527 9.2605C3.56629 9.2493 3.5718 9.22689 3.5718 9.19328H3.58834C3.62141 9.18207 3.63795 9.16527 3.63795 9.14286C3.64897 9.12045 3.66551 9.09804 3.68755 9.07563C3.72063 9.04202 3.74267 9.02521 3.7537 9.02521H3.77024L4.05135 8.87395L4.08442 8.9916H4.13403V8.95798H4.1671C4.20017 8.95798 4.22773 8.94678 4.24978 8.92437C4.26081 8.91316 4.26632 8.89636 4.26632 8.87395C4.32144 8.87395 4.349 8.86274 4.349 8.84034C4.40412 8.81793 4.46475 8.81232 4.5309 8.82353C4.59704 8.83473 4.64114 8.85154 4.66319 8.87395C4.67421 8.87395 4.69075 8.87955 4.71279 8.89076C4.74587 8.89076 4.7624 8.91316 4.7624 8.95798H4.77894H4.84508H4.92776C5.02698 8.86835 5.13722 8.84033 5.25849 8.87395C5.26951 8.87395 5.27502 8.86835 5.27502 8.85714C5.28605 8.84594 5.30809 8.84034 5.34117 8.84034H5.3577C5.41282 8.84034 5.4459 8.82913 5.45692 8.80672H5.55614H5.62228H5.68842H5.70496L5.77111 8.7563C5.8152 8.68908 5.87583 8.65546 5.953 8.65546C5.953 8.63305 5.95851 8.61625 5.96954 8.60504L5.98607 8.58823C6.00812 8.58823 6.01915 8.58263 6.01915 8.57143C6.03017 8.54902 6.04671 8.53781 6.06876 8.53781C6.12388 8.53781 6.179 8.53221 6.23412 8.52101C6.28924 8.5098 6.33333 8.51541 6.36641 8.53781H6.39948C6.42153 8.53781 6.43255 8.52101 6.43255 8.48739H6.63098V8.45378C6.66406 8.45378 6.69162 8.44818 6.71366 8.43697C6.74674 8.42577 6.77981 8.42017 6.81288 8.42017C6.87903 8.42017 6.9121 8.39776 6.9121 8.35294H7.09399H7.24282L8.73107 7.98319L7.72237 8.7563C7.66725 8.77871 7.61764 8.80112 7.57354 8.82353C7.52945 8.83473 7.46881 8.84034 7.39164 8.84034H7.34204C7.28692 8.86274 7.21526 8.87395 7.12707 8.87395H7.04439H6.94517H6.9121C6.89005 8.91877 6.85147 8.95238 6.79634 8.97479C6.75225 8.98599 6.70815 8.9916 6.66406 8.9916C6.64201 9.01401 6.61445 9.02521 6.58138 9.02521H6.53177H6.46562V9.07563H6.36641H6.23412H6.18451V9.10924C6.08529 9.16526 6.00812 9.19328 5.953 9.19328C5.953 9.2493 5.94198 9.28291 5.91993 9.29412C5.89788 9.30532 5.87583 9.31092 5.85379 9.31092C5.79867 9.33333 5.69945 9.34454 5.55614 9.34454H5.50653C5.50653 9.37815 5.4955 9.39496 5.47346 9.39496H5.45692C5.4018 9.41737 5.35219 9.43417 5.30809 9.44538C5.264 9.45658 5.20337 9.45098 5.1262 9.42857H5.10966C5.02147 9.45098 4.93879 9.46779 4.86162 9.47899C4.79547 9.47899 4.73484 9.47899 4.67972 9.47899C4.64665 9.47899 4.61909 9.47339 4.59704 9.46218C4.57499 9.43978 4.54743 9.42857 4.51436 9.42857C4.47026 9.42857 4.44822 9.44538 4.44822 9.47899H4.41514C4.33798 9.53501 4.28285 9.56302 4.24978 9.56302C4.17261 9.61905 4.10647 9.66386 4.05135 9.69748H4.00174V9.73109C4.00174 9.7535 4.01828 9.76471 4.05135 9.76471V9.79832H4.08442C4.08442 9.84314 4.08993 9.87115 4.10096 9.88235C4.12301 9.88235 4.14505 9.89356 4.1671 9.91597H4.24978H4.26632H4.29939C4.31041 9.91597 4.349 9.92717 4.41514 9.94958C4.51436 9.94958 4.60255 10.0224 4.67972 10.1681L4.91123 10.3697C4.92225 10.3697 4.9443 10.3753 4.97737 10.3866C5.01044 10.3978 5.02698 10.4146 5.02698 10.437L5.34117 10.7395V10.7899V10.8235C5.35219 10.8235 5.3577 10.8459 5.3577 10.8908C5.37975 10.8908 5.39077 10.8964 5.39077 10.9076C5.4018 10.9076 5.41282 10.9076 5.42385 10.9076H5.44038C5.47346 10.9076 5.51204 10.9244 5.55614 10.958C5.60023 10.9916 5.62228 11.0364 5.62228 11.0924H5.68842L5.70496 11.1429H5.77111H5.90339C5.98056 11.0196 6.11285 11.0028 6.30026 11.0924H6.43255C6.43255 11.0364 6.43806 11.0028 6.44909 10.9916C6.47113 10.9804 6.49869 10.9748 6.53177 10.9748C6.55381 10.9748 6.57586 10.9692 6.59791 10.958C6.63098 10.9356 6.66406 10.9412 6.69713 10.9748H6.74674C6.77981 10.9412 6.80186 10.9244 6.81288 10.9244C6.8239 10.9132 6.84595 10.9076 6.87903 10.9076H6.94517V10.8908H7.25936H7.39164C7.42472 10.8011 7.47433 10.7451 7.54047 10.7227C7.56252 10.6779 7.57905 10.6443 7.59008 10.6218C7.6011 10.5882 7.62866 10.5658 7.67276 10.5546V10.521C7.69481 10.4762 7.71686 10.4426 7.7389 10.4202C7.74993 10.409 7.75544 10.3978 7.75544 10.3866C7.76646 10.3753 7.78851 10.3473 7.82158 10.3025C7.85466 10.2577 7.88773 10.2241 7.9208 10.2017C8.00899 10.1681 8.06963 10.1176 8.1027 10.0504L8.13577 10.0336C8.17987 10.0336 8.20743 10.0224 8.21845 10C8.2405 9.96639 8.26255 9.93837 8.28459 9.91597C8.30664 9.89356 8.32869 9.88235 8.35074 9.88235H8.36728L8.81375 9.69748L8.78068 9.79832H8.84682C8.89092 9.77591 8.9295 9.7535 8.96258 9.73109C9.00667 9.70868 9.05077 9.69188 9.09486 9.68067C9.12794 9.68067 9.14447 9.67507 9.14447 9.66387C9.1555 9.64146 9.17203 9.63025 9.19408 9.63025C9.2492 9.59664 9.2933 9.56863 9.32637 9.54622C9.35944 9.52381 9.39803 9.5014 9.44212 9.47899H9.5248C9.5248 9.44538 9.53583 9.42857 9.55788 9.42857H9.60748C9.61851 9.42857 9.63504 9.42297 9.65709 9.41176C9.67914 9.40056 9.71221 9.39496 9.75631 9.39496H9.78938C9.78938 9.38375 9.80592 9.36134 9.83899 9.32773C9.85001 9.31653 9.86104 9.31092 9.87206 9.31092C9.90513 9.2549 9.92167 9.22129 9.92167 9.21008C9.93269 9.19888 9.94923 9.18767 9.97128 9.17647C9.99333 9.17647 10.0099 9.16527 10.0209 9.14286C10.0429 9.12045 10.076 9.10924 10.1201 9.10924C10.1311 9.10924 10.1366 9.09804 10.1366 9.07563C10.1918 9.05322 10.2303 9.03641 10.2524 9.02521C10.2855 9.0028 10.3296 8.98039 10.3847 8.95798C10.3847 8.94678 10.3902 8.93557 10.4012 8.92437C10.4122 8.91316 10.4178 8.90196 10.4178 8.89076C10.4288 8.87955 10.4453 8.87395 10.4674 8.87395C10.4784 8.84033 10.4949 8.80672 10.517 8.77311C10.55 8.72829 10.5776 8.70588 10.5997 8.70588C10.5997 8.68347 10.6052 8.66667 10.6162 8.65546C10.6382 8.64426 10.6658 8.62185 10.6989 8.58823C10.754 8.53221 10.7981 8.48739 10.8312 8.45378C10.8753 8.42017 10.9249 8.37535 10.98 8.31933L11.0461 8.26891L11.0627 8.20168C11.0847 8.13445 11.1233 8.08403 11.1784 8.05042C11.2446 8.0056 11.2887 7.98319 11.3107 7.98319V7.96639C11.3328 7.96639 11.3438 7.95518 11.3438 7.93277C11.3548 7.91036 11.3713 7.89916 11.3934 7.89916L11.4265 7.84874C11.4926 7.80392 11.5477 7.78151 11.5918 7.78151C11.6469 7.77031 11.6855 7.76471 11.7076 7.76471H11.7241C11.7682 7.7535 11.7958 7.7479 11.8068 7.7479V7.66386V7.63025C11.8068 7.57423 11.8068 7.53501 11.8068 7.5126C11.8178 7.4902 11.8454 7.45658 11.8895 7.41176C11.8895 7.36695 11.9005 7.34454 11.9225 7.34454V7.27731C11.9336 7.27731 11.9446 7.27171 11.9556 7.2605C11.9666 7.2493 11.9721 7.23809 11.9721 7.22689C11.9832 7.21569 11.9997 7.19888 12.0218 7.17647C12.0438 7.15406 12.0659 7.13725 12.0879 7.12605C12.121 7.10364 12.143 7.08123 12.154 7.05882H12.1871C12.2202 7.05882 12.2367 7.04202 12.2367 7.0084C12.2588 6.95238 12.2863 6.90196 12.3194 6.85714C12.3635 6.80112 12.3911 6.7619 12.4021 6.73949C12.4241 6.72829 12.4462 6.71148 12.4682 6.68907C12.4903 6.65546 12.5123 6.62745 12.5344 6.60504C12.5785 6.60504 12.606 6.58823 12.6171 6.55462C12.6391 6.55462 12.6612 6.54902 12.6832 6.53781C12.7273 6.51541 12.7493 6.5042 12.7493 6.5042C12.7714 6.48179 12.7934 6.45938 12.8155 6.43697C12.8486 6.41457 12.8927 6.40336 12.9478 6.40336L12.9809 6.38655H13.0139V6.31933H13.0801C13.036 6.31933 13.0139 6.30812 13.0139 6.28571C13.0029 6.27451 13.0029 6.2633 13.0139 6.2521C12.9919 6.22969 12.9698 6.20728 12.9478 6.18487C12.9368 6.15126 12.9202 6.10644 12.8982 6.05042H12.8816C12.8706 6.05042 12.8651 6.05042 12.8651 6.05042C12.8651 6.03922 12.8541 6.03361 12.832 6.03361C12.7769 5.94398 12.7493 5.88235 12.7493 5.84874V5.79832C12.7383 5.7423 12.7328 5.70868 12.7328 5.69748C12.6777 5.66386 12.6446 5.63585 12.6336 5.61344C12.6226 5.59104 12.6171 5.56302 12.6171 5.52941V5.5126C12.606 5.47899 12.6005 5.43978 12.6005 5.39496C12.6005 5.35014 12.6005 5.31653 12.6005 5.29412C12.6005 5.23809 12.595 5.20448 12.584 5.19328C12.584 5.17087 12.5674 5.14286 12.5344 5.10924V4.9916C12.5013 4.95798 12.5013 4.90196 12.5344 4.82353C12.5674 4.76751 12.595 4.72829 12.6171 4.70588C12.6391 4.67227 12.6832 4.63865 12.7493 4.60504H12.832H12.8982V4.52101C12.8982 4.45378 12.9147 4.39776 12.9478 4.35294C12.9257 4.33053 12.9092 4.30812 12.8982 4.28571C12.8982 4.2633 12.8982 4.2465 12.8982 4.23529V4.13445V3.91597C12.8982 3.90476 12.8871 3.88795 12.8651 3.86555C12.8431 3.83193 12.832 3.80392 12.832 3.78151C12.832 3.7591 12.821 3.73109 12.799 3.69748C12.7879 3.65266 12.7824 3.60224 12.7824 3.54622C12.7824 3.52381 12.7714 3.5126 12.7493 3.5126V3.47899V3.44538C12.7493 3.44538 12.7438 3.43417 12.7328 3.41176V3.39496V3.36134L12.6171 3.31092C12.606 3.2549 12.6005 3.22129 12.6005 3.21008C12.5674 3.21008 12.5399 3.19888 12.5178 3.17647L12.4848 3.14286C12.4627 3.13165 12.4021 3.12605 12.3029 3.12605H12.2698H12.2367H12.154H12.1375H11.9721C11.9281 3.13725 11.8895 3.14286 11.8564 3.14286C11.8233 3.13165 11.8013 3.12605 11.7903 3.12605C11.7131 3.13725 11.5918 3.13725 11.4265 3.12605H11.3107C11.2335 3.12605 11.1674 3.12605 11.1123 3.12605C11.0682 3.11485 11.0241 3.08683 10.98 3.04202H10.7981H10.55H10.3847C10.3296 3.01961 10.28 3.0084 10.2359 3.0084C10.2028 3.0084 10.1642 3.0028 10.1201 2.9916C10.0429 2.9916 9.96026 2.97479 9.87206 2.94118C9.79489 2.90756 9.71221 2.86835 9.62402 2.82353L9.60748 2.78992L9.5248 2.7395C9.50276 2.7395 9.48071 2.72829 9.45866 2.70588C9.43661 2.67227 9.40905 2.64426 9.37598 2.62185C9.32086 2.62185 9.25471 2.60504 9.17755 2.57143C9.1114 2.52661 9.06179 2.48179 9.02872 2.43697C9.02872 2.41457 9.00116 2.37535 8.94604 2.31933C8.89092 2.30812 8.85233 2.29132 8.83029 2.26891C8.81926 2.23529 8.80273 2.20728 8.78068 2.18487L7.12707 3.14286L8.28459 2.08403H8.25152C8.22947 2.08403 8.20191 2.08403 8.16884 2.08403C8.14679 2.07283 8.12475 2.05042 8.1027 2.01681H7.9208H7.77198H7.67276H7.54047C7.44125 2.01681 7.37511 2 7.34204 1.96639L7.04439 1.78151L7.39164 1.56302H7.47433H7.54047C7.58457 1.56302 7.61764 1.56302 7.63969 1.56302C7.67276 1.55182 7.71134 1.54622 7.75544 1.54622C7.74442 1.53501 7.7389 1.51821 7.7389 1.4958C7.72788 1.47339 7.72237 1.44538 7.72237 1.41176H7.67276H7.62315C7.61213 1.41176 7.59559 1.40616 7.57354 1.39496C7.52945 1.37255 7.49637 1.33893 7.47433 1.29412C7.45228 1.29412 7.43574 1.28851 7.42472 1.27731C7.42472 1.2549 7.41369 1.2437 7.39164 1.2437C7.3696 1.22129 7.34204 1.20448 7.30896 1.19328C7.27589 1.18207 7.25936 1.15406 7.25936 1.10924C7.21526 1.09804 7.18219 1.09244 7.16014 1.09244C7.13809 1.08123 7.11604 1.05882 7.09399 1.02521H7.02785C6.98375 1.05882 6.95068 1.07003 6.92863 1.05882C6.91761 1.03641 6.90107 1.02521 6.87903 1.02521L6.81288 0.957983H6.66406H6.63098H6.46562H6.34987C6.19553 1.02521 6.06324 1.02521 5.953 0.957983C5.89788 0.946778 5.84827 0.941176 5.80418 0.941176C5.77111 0.941176 5.73252 0.941176 5.68842 0.941176H5.62228C5.58921 0.941176 5.55614 0.946778 5.52306 0.957983C5.50102 0.957983 5.47897 0.952381 5.45692 0.941176H5.44038H5.34117H5.25849C5.19234 0.941176 5.13171 0.941176 5.07659 0.941176C5.03249 0.929972 4.98288 0.901961 4.92776 0.857143H4.91123C4.87816 0.857143 4.82855 0.868347 4.7624 0.890756C4.69626 0.913165 4.64665 0.901961 4.61358 0.857143H4.5805C4.54743 0.845938 4.51436 0.840336 4.48129 0.840336C4.45924 0.840336 4.43719 0.840336 4.41514 0.840336H4.13403C4.08993 0.851541 4.04584 0.851541 4.00174 0.840336C3.95764 0.829131 3.93008 0.80112 3.91906 0.756302C3.87496 0.756302 3.82536 0.745097 3.77024 0.722689H3.7537C3.74267 0.722689 3.73716 0.733893 3.73716 0.756302C3.75921 0.756302 3.77024 0.773109 3.77024 0.806722C3.78126 0.840336 3.80882 0.885154 3.85292 0.941176V0.957983V1.09244C3.88599 1.10364 3.90804 1.12605 3.91906 1.15966C3.93008 1.18207 3.9356 1.19888 3.9356 1.21008C4.01276 1.21008 4.05135 1.23809 4.05135 1.29412C4.05135 1.33893 4.06237 1.36134 4.08442 1.36134C4.10647 1.38375 4.12301 1.40056 4.13403 1.41176C4.15608 1.41176 4.1671 1.42297 4.1671 1.44538C4.22222 1.5014 4.26081 1.53501 4.28285 1.54622C4.3049 1.55742 4.31593 1.57983 4.31593 1.61345C4.37105 1.61345 4.40963 1.61345 4.43168 1.61345C4.46475 1.61345 4.51436 1.62465 4.5805 1.64706C4.6246 1.68067 4.65216 1.71989 4.66319 1.76471C4.68523 1.79832 4.71831 1.84314 4.7624 1.89916V1.91597C4.7624 1.92717 4.7624 1.93838 4.7624 1.94958C4.77343 1.94958 4.77894 1.95518 4.77894 1.96639C4.78996 1.96639 4.8065 1.97759 4.82855 2C4.82855 2.0112 4.83406 2.01681 4.84508 2.01681C4.87816 2.05042 4.89469 2.08403 4.89469 2.11765C4.90572 2.14006 4.91674 2.15126 4.92776 2.15126C4.98288 2.17367 5.02698 2.18487 5.06005 2.18487C5.09312 2.18487 5.11517 2.18487 5.1262 2.18487C5.14825 2.20728 5.17581 2.23529 5.20888 2.26891C5.24195 2.29132 5.264 2.30812 5.27502 2.31933H5.34117H5.50653H5.62228H5.70496C5.71598 2.33053 5.73252 2.33613 5.75457 2.33613C5.77662 2.34734 5.79315 2.35294 5.80418 2.35294C5.8152 2.35294 5.83174 2.36415 5.85379 2.38655C5.90891 2.35294 5.953 2.34734 5.98607 2.36975C6.03017 2.39216 6.07427 2.41457 6.11836 2.43697C6.23963 2.43697 6.3168 2.44258 6.34987 2.45378C6.36089 2.48739 6.37743 2.5098 6.39948 2.52101C6.42153 2.52101 6.44357 2.52101 6.46562 2.52101C6.53177 2.52101 6.56484 2.52661 6.56484 2.53781L6.94517 2.7395L6.63098 2.9916C6.61996 3.0028 6.60342 3.0084 6.58138 3.0084C6.55933 3.01961 6.53728 3.02521 6.51523 3.02521C6.50421 3.02521 6.48767 3.03081 6.46562 3.04202H6.43255C6.36641 3.04202 6.30026 3.03641 6.23412 3.02521C6.179 3.01401 6.12388 3.0028 6.06876 2.9916C6.04671 2.9916 6.03568 2.98039 6.03568 2.95798V2.90756H5.90339C5.88135 2.90756 5.84827 2.90756 5.80418 2.90756C5.77111 2.90756 5.73252 2.89636 5.68842 2.87395H5.44038C5.264 2.87395 5.15927 2.85714 5.1262 2.82353H5.10966H5.06005C5.038 2.82353 5.02698 2.81232 5.02698 2.78992H4.91123C4.77894 2.73389 4.69626 2.67787 4.66319 2.62185C4.65216 2.62185 4.64114 2.61625 4.63011 2.60504C4.61909 2.59384 4.61358 2.57143 4.61358 2.53781H4.5805C4.54743 2.52661 4.51436 2.5098 4.48129 2.48739C4.45924 2.46499 4.43719 2.44818 4.41514 2.43697C4.38207 2.41457 4.36002 2.39216 4.349 2.36975C4.349 2.33613 4.33798 2.31933 4.31593 2.31933L4.24978 2.21849L4.26632 2.18487H4.24978C4.20569 2.16246 4.17261 2.15126 4.15057 2.15126C4.13954 2.14006 4.13403 2.11765 4.13403 2.08403C4.08993 2.08403 4.04584 2.07283 4.00174 2.05042C3.95764 2.01681 3.9356 1.97759 3.9356 1.93277C3.8915 1.91036 3.86394 1.89916 3.85292 1.89916C3.84189 1.88795 3.81433 1.86555 3.77024 1.83193C3.74819 1.80952 3.72614 1.79272 3.70409 1.78151C3.69307 1.77031 3.67653 1.7479 3.65448 1.71429H3.58834C3.57731 1.68067 3.54975 1.65266 3.50566 1.63025C3.47258 1.59664 3.45605 1.53501 3.45605 1.44538C3.44502 1.44538 3.43951 1.43978 3.43951 1.42857C3.42849 1.41737 3.42298 1.39496 3.42298 1.36134V1.21008H3.37337V1.19328L3.3403 1.10924V1.09244C3.26313 1.09244 3.22454 1.04762 3.22454 0.957983C3.1584 0.946778 3.1143 0.918767 3.09225 0.873949C3.07021 0.829131 3.04265 0.778711 3.00957 0.722689C2.88831 0.722689 2.76704 0.683473 2.64578 0.605042C2.57963 0.605042 2.54656 0.59944 2.54656 0.588235H2.49695C2.45286 0.588235 2.4253 0.57703 2.41427 0.554622C2.40325 0.532212 2.38671 0.521008 2.36466 0.521008L2.31506 0.504201C2.29301 0.504201 2.27096 0.492997 2.24891 0.470588C2.22686 0.448179 2.20482 0.42577 2.18277 0.403361L1.90165 0H2.36466C2.36466 0.0112043 2.37018 0.0168065 2.3812 0.0168065C2.39222 0.0280108 2.40325 0.0448177 2.41427 0.067227H2.49695C2.54105 0.067227 2.57963 0.0728292 2.61271 0.0840335C2.64578 0.0840335 2.67885 0.0840335 2.71192 0.0840335C2.745 0.0840335 2.77807 0.0952379 2.81114 0.117647C2.84421 0.140056 2.87177 0.151261 2.89382 0.151261H2.99304C3.03713 0.173669 3.07021 0.184874 3.09225 0.184874C3.1143 0.184874 3.1584 0.184874 3.22454 0.184874H3.42298C3.45605 0.184874 3.49463 0.196078 3.53873 0.218488C3.58283 0.229692 3.62141 0.235294 3.65448 0.235294C3.69858 0.212885 3.74268 0.20168 3.78677 0.20168C3.84189 0.190476 3.88599 0.184874 3.91906 0.184874C3.96316 0.184874 3.99623 0.196078 4.01828 0.218488C4.04033 0.229692 4.06237 0.240896 4.08442 0.252101C4.18364 0.229692 4.26081 0.229692 4.31593 0.252101H4.349H4.41514C4.47026 0.308123 4.51987 0.341736 4.56397 0.352941C4.60807 0.352941 4.64114 0.352941 4.66319 0.352941C4.67421 0.352941 4.69075 0.358543 4.71279 0.369748C4.74587 0.369748 4.7624 0.380952 4.7624 0.403361V0.386555C4.7624 0.386555 4.76791 0.37535 4.77894 0.352941C4.81201 0.352941 4.86162 0.358543 4.92776 0.369748C4.99391 0.369748 5.06005 0.380952 5.1262 0.403361H5.25849H5.34117H5.3577H5.62228C5.6333 0.414565 5.64433 0.420168 5.65535 0.420168C5.6774 0.420168 5.68842 0.414565 5.68842 0.403361C5.83174 0.403361 5.93095 0.414565 5.98607 0.436974H6.30026H6.53177H6.56484H6.63098H6.66406H6.9121L6.94517 0.504201C7.00029 0.470588 7.04439 0.453782 7.07746 0.453782C7.12156 0.442577 7.15463 0.436974 7.17668 0.436974H7.24282C7.29794 0.436974 7.33652 0.448179 7.35857 0.470588C7.38062 0.492997 7.40267 0.504201 7.42472 0.504201H7.54047C7.58457 0.504201 7.62315 0.504201 7.65622 0.504201C7.70032 0.504201 7.73339 0.509803 7.75544 0.521008H8.1027C8.1027 0.565826 8.15231 0.588235 8.25152 0.588235H8.3342C8.35625 0.588235 8.38381 0.588235 8.41688 0.588235C8.44996 0.588235 8.48854 0.593837 8.53264 0.605042H8.61532C8.72556 0.593837 8.85785 0.593837 9.01218 0.605042H9.09486H9.27676L9.2933 0.689076H9.62402C9.69016 0.689076 9.7508 0.694678 9.80592 0.705882C9.86104 0.717087 9.91616 0.733893 9.97128 0.756302H10.0209C10.076 0.756302 10.1201 0.773109 10.1532 0.806722C10.1973 0.829132 10.2414 0.845938 10.2855 0.857143H10.3847C10.4949 0.857143 10.55 0.885154 10.55 0.941176H10.5997C10.6548 0.896358 10.7044 0.873949 10.7485 0.873949C10.7926 0.862745 10.8312 0.851541 10.8642 0.840336C10.9965 0.840336 11.0792 0.845938 11.1123 0.857143L11.2115 0.521008L11.4595 0.756302C11.4706 0.756302 11.4871 0.761904 11.5091 0.773109C11.5422 0.806722 11.5587 0.829131 11.5587 0.840336H11.5918H11.6249C11.6359 0.840336 11.6469 0.845938 11.658 0.857143H11.7903H11.8068H11.8895C11.9115 0.857143 11.9336 0.857143 11.9556 0.857143C11.9777 0.845938 12.0107 0.845938 12.0548 0.857143C12.11 0.845938 12.1706 0.840336 12.2367 0.840336H12.2533C12.2643 0.840336 12.2698 0.845938 12.2698 0.857143C12.2808 0.857143 12.2918 0.857143 12.3029 0.857143C12.38 0.845938 12.4572 0.845938 12.5344 0.857143H12.6171C12.6722 0.845938 12.7163 0.840336 12.7493 0.840336C12.7934 0.840336 12.8431 0.840336 12.8982 0.840336C12.9202 0.840336 12.9368 0.829132 12.9478 0.806722C12.9698 0.773109 12.9919 0.756302 13.0139 0.756302C13.0139 0.733893 13.0635 0.722689 13.1627 0.722689H13.2124C13.2675 0.666666 13.3171 0.633053 13.3612 0.621849C13.4053 0.610644 13.4384 0.59944 13.4604 0.588235H13.5762H13.5927C13.7029 0.498599 13.8187 0.436975 13.9399 0.403361H13.973H14.0392H14.0557C14.0777 0.403361 14.0888 0.386554 14.0888 0.352941H14.1384H14.1715C14.1715 0.296918 14.1715 0.268907 14.1715 0.268907C14.1715 0.257703 14.1825 0.252101 14.2045 0.252101C14.2927 0.196078 14.4085 0.190476 14.5518 0.235294H14.6179H14.651C14.7392 0.246498 14.8329 0.268907 14.9321 0.302521C15.0313 0.336134 15.1085 0.352941 15.1636 0.352941C15.2739 0.296918 15.3731 0.296918 15.4613 0.352941C15.5495 0.397759 15.6377 0.448179 15.7258 0.504201L15.7424 0.521008L15.8416 0.605042C15.8857 0.593837 15.9353 0.588235 15.9904 0.588235L16.9991 0.605042L16.3377 0.957983L16.9991 1.09244H17.0653H17.1645C17.2086 1.10364 17.2361 1.11485 17.2472 1.12605C17.2692 1.12605 17.2968 1.14846 17.3299 1.19328C17.3739 1.19328 17.4015 1.19888 17.4125 1.21008C17.4346 1.21008 17.4621 1.21008 17.4952 1.21008H17.5944C17.5944 1.19888 17.5944 1.17647 17.5944 1.14286C17.5944 1.10924 17.5999 1.07003 17.611 1.02521C17.611 0.980392 17.6385 0.941176 17.6936 0.907562C17.7488 0.862745 17.7984 0.840336 17.8425 0.840336L18.6197 0.722689L18.0905 1.21008V1.2437C18.1015 1.2437 18.107 1.2605 18.107 1.29412L18.4378 1.41176L18.4047 1.44538C18.4819 1.41176 18.5866 1.41176 18.7189 1.44538H18.8181L19 1.56302ZM17.3299 1.93277C17.3299 1.91036 17.3409 1.89916 17.3629 1.89916H17.4125C17.4236 1.89916 17.4291 1.87675 17.4291 1.83193V1.79832H17.4125C17.3354 1.82073 17.2692 1.83753 17.2141 1.84874C17.159 1.84874 17.1204 1.86555 17.0983 1.89916H16.9991H16.933H16.6519H16.5857C16.5857 1.91036 16.5802 1.91597 16.5692 1.91597C16.5582 1.92717 16.5416 1.93277 16.5196 1.93277C16.4975 1.95518 16.4589 1.96639 16.4038 1.96639C16.3487 1.96639 16.2936 1.96639 16.2385 1.96639H15.9904H15.9077H15.7258C15.5384 2.10084 15.4061 2.10084 15.329 1.96639C15.329 2 15.3014 2.01681 15.2463 2.01681C15.2353 2.08403 15.2187 2.12885 15.1967 2.15126C15.1746 2.17367 15.1581 2.18487 15.1471 2.18487H15.0809C15.0589 2.20728 15.0368 2.22409 15.0148 2.23529C14.9927 2.23529 14.9817 2.2577 14.9817 2.30252H14.899C14.899 2.31373 14.899 2.33613 14.899 2.36975C14.899 2.39216 14.8935 2.41457 14.8825 2.43697V2.45378C14.8605 2.48739 14.8439 2.51541 14.8329 2.53781C14.8219 2.54902 14.7888 2.57703 14.7337 2.62185C14.7557 2.62185 14.7668 2.62745 14.7668 2.63866C14.7668 2.63866 14.7723 2.63866 14.7833 2.63866C14.7833 2.64986 14.7888 2.65546 14.7998 2.65546C14.8219 2.63305 14.8825 2.62185 14.9817 2.62185C14.9817 2.64426 14.9927 2.64986 15.0148 2.63866C15.0368 2.62745 15.0589 2.62185 15.0809 2.62185H15.1636C15.2077 2.57703 15.2463 2.56583 15.2794 2.58823C15.3235 2.61064 15.3565 2.62185 15.3786 2.62185H15.3951C15.4502 2.57703 15.4999 2.55462 15.544 2.55462C15.588 2.54342 15.6487 2.53781 15.7258 2.53781H15.8251H16.0566H16.1393H16.1723H16.2385H16.255H16.3377H16.3708C16.3928 2.53781 16.4038 2.53221 16.4038 2.52101C16.5251 2.43137 16.6408 2.38655 16.7511 2.38655H16.8172H16.8503C16.8834 2.35294 16.9164 2.31933 16.9495 2.28571C16.9936 2.2409 17.0432 2.20728 17.0983 2.18487V2.15126C17.1204 2.11765 17.1369 2.07843 17.148 2.03361C17.17 1.9888 17.2086 1.95518 17.2637 1.93277H17.3299ZM11.1619 2.53781C11.1619 2.52661 11.1453 2.52101 11.1123 2.52101H11.0627H11.1123C11.1123 2.53221 11.1178 2.53781 11.1288 2.53781H11.1619ZM10.7154 2.52101H10.7981H10.8642C10.8422 2.52101 10.8201 2.5098 10.7981 2.48739C10.7871 2.46499 10.7595 2.45378 10.7154 2.45378H10.6327C10.6107 2.45378 10.5941 2.46499 10.5831 2.48739C10.5831 2.5098 10.5721 2.52101 10.55 2.52101H10.7154ZM8.78068 1.44538H8.94604H9.01218V1.41176C9.02321 1.41176 9.03974 1.40616 9.06179 1.39496C9.09486 1.37255 9.12794 1.36134 9.16101 1.36134C9.09486 1.36134 9.05077 1.35014 9.02872 1.32773C9.00667 1.30532 8.97911 1.29412 8.94604 1.29412C8.93502 1.27171 8.91297 1.2605 8.8799 1.2605C8.85785 1.2493 8.8358 1.2437 8.81375 1.2437C8.7917 1.2437 8.75863 1.2381 8.71453 1.22689C8.68146 1.21569 8.64288 1.21008 8.59878 1.21008V1.19328H8.53264C8.47752 1.14846 8.42791 1.12605 8.38381 1.12605C8.33972 1.11485 8.29562 1.10924 8.25152 1.10924C8.22947 1.10924 8.19089 1.10364 8.13577 1.09244V1.10924C8.19089 1.10924 8.22947 1.13725 8.25152 1.19328H8.26806C8.27908 1.19328 8.28459 1.19888 8.28459 1.21008C8.29562 1.22129 8.31215 1.23249 8.3342 1.2437C8.35625 1.2437 8.3783 1.2549 8.40035 1.27731C8.4224 1.28851 8.43893 1.29412 8.44996 1.29412C8.49405 1.32773 8.53264 1.35014 8.56571 1.36134C8.60981 1.37255 8.64839 1.38936 8.68146 1.41176L8.73107 1.44538H8.78068ZM11.5587 1.93277C11.4926 1.93277 11.432 1.93838 11.3768 1.94958C11.3328 1.96078 11.2776 1.95518 11.2115 1.93277C11.2335 1.95518 11.2611 1.97199 11.2942 1.98319C11.3383 1.98319 11.3713 1.9944 11.3934 2.01681C11.3934 2.06162 11.4154 2.08403 11.4595 2.08403L11.5587 2.15126C11.5808 2.11765 11.6139 2.10084 11.658 2.10084C11.7021 2.08964 11.7462 2.08403 11.7903 2.08403H11.8068H12.0218C12.0769 2.11765 12.1265 2.14006 12.1706 2.15126C12.2257 2.15126 12.2698 2.15126 12.3029 2.15126H12.4021V2.08403V2.01681C12.3911 1.98319 12.3856 1.92157 12.3856 1.83193L12.369 1.81513C12.358 1.81513 12.347 1.81513 12.3359 1.81513C12.3359 1.80392 12.3249 1.79832 12.3029 1.79832H12.2698C12.2478 1.78711 12.2312 1.78151 12.2202 1.78151C12.2202 1.77031 12.1981 1.7479 12.154 1.71429L12.1375 1.79832C12.0273 1.92157 11.9115 1.96639 11.7903 1.93277H11.658H11.5587ZM10.55 1.56302C10.55 1.55182 10.5666 1.54622 10.5997 1.54622C10.5776 1.54622 10.55 1.52941 10.517 1.4958C10.4949 1.46218 10.4784 1.44538 10.4674 1.44538C10.4122 1.44538 10.3571 1.44538 10.302 1.44538C10.2579 1.44538 10.2248 1.43417 10.2028 1.41176C10.2028 1.43417 10.2083 1.45098 10.2193 1.46218C10.2303 1.46218 10.2359 1.4902 10.2359 1.54622C10.2579 1.55742 10.291 1.57423 10.3351 1.59664C10.3792 1.60784 10.4233 1.62465 10.4674 1.64706L10.55 1.56302ZM9.2933 1.83193C9.28227 1.83193 9.27676 1.85434 9.27676 1.89916C9.28779 1.89916 9.31535 1.91036 9.35944 1.93277C9.41456 1.95518 9.46968 2.0056 9.5248 2.08403C9.5689 2.12885 9.59646 2.15126 9.60748 2.15126C9.61851 2.16246 9.62402 2.16246 9.62402 2.15126C9.73426 2.17367 9.79489 2.22409 9.80592 2.30252L10.0374 2.01681L10.0209 1.96639C9.97679 1.94398 9.93821 1.92717 9.90513 1.91597C9.87206 1.89356 9.83348 1.85434 9.78938 1.79832C9.78938 1.80952 9.7508 1.78151 9.67363 1.71429C9.64056 1.7591 9.61851 1.78151 9.60748 1.78151L9.5248 1.79832H9.4752C9.45315 1.79832 9.42559 1.80392 9.39252 1.81513C9.35944 1.82633 9.32637 1.83193 9.2933 1.83193ZM12.832 1.44538C12.8871 1.5014 12.9202 1.55182 12.9312 1.59664C12.9423 1.63025 12.9588 1.64706 12.9809 1.64706C13.0139 1.80392 13.0139 1.89916 12.9809 1.93277H13.0139H13.1627C13.2179 1.93277 13.273 1.92157 13.3281 1.89916C13.3943 1.84314 13.4549 1.81513 13.51 1.81513C13.5762 1.80392 13.6368 1.79272 13.6919 1.78151C13.747 1.7479 13.7856 1.71989 13.8077 1.69748C13.8297 1.66387 13.8738 1.64706 13.9399 1.64706C13.9951 1.62465 14.0392 1.61345 14.0722 1.61345C14.1163 1.61345 14.1494 1.61345 14.1715 1.61345H14.2707H14.3699C14.5022 1.56863 14.6179 1.54622 14.7171 1.54622V1.52941C14.7171 1.52941 14.7227 1.51821 14.7337 1.4958V1.44538H14.7998C14.7998 1.42297 14.8053 1.41176 14.8164 1.41176C14.8384 1.40056 14.8605 1.38375 14.8825 1.36134C14.8935 1.30532 14.9597 1.2549 15.0809 1.21008C15.0809 1.19888 15.092 1.19328 15.114 1.19328C15.1361 1.19328 15.1526 1.19328 15.1636 1.19328V1.10924H15.2298C15.2408 1.09804 15.2628 1.08123 15.2959 1.05882C15.329 1.02521 15.3565 0.991596 15.3786 0.957983L15.4778 0.941176C15.4337 0.941176 15.4006 0.941176 15.3786 0.941176C15.3676 0.929972 15.351 0.901961 15.329 0.857143H15.2463H15.1471H14.9817C14.9817 0.901961 14.9652 0.929972 14.9321 0.941176C14.9101 0.941176 14.8935 0.941176 14.8825 0.941176C14.8384 0.941176 14.7888 0.969187 14.7337 1.02521H14.7171L14.651 1.05882C14.6069 1.08123 14.5738 1.09244 14.5518 1.09244H14.4856H14.3864H14.3037C14.3037 1.10364 14.2982 1.10924 14.2872 1.10924H14.2707C14.2376 1.10924 14.21 1.12605 14.188 1.15966C14.177 1.18207 14.1604 1.19328 14.1384 1.19328H14.0392C13.9951 1.19328 13.962 1.19888 13.9399 1.21008H13.9234H13.8077H13.7084L13.6919 1.2437H13.5762H13.4935L13.4604 1.29412H13.4273C13.3722 1.32773 13.3226 1.35014 13.2785 1.36134C13.2454 1.36134 13.2068 1.36134 13.1627 1.36134C13.1297 1.39496 13.0801 1.41176 13.0139 1.41176C12.9698 1.41176 12.9312 1.42297 12.8982 1.44538H12.832ZM13.2124 2.45378C13.1793 2.45378 13.1462 2.47619 13.1131 2.52101V2.53781H13.3612H13.5927C13.6037 2.53781 13.6258 2.55462 13.6588 2.58823L13.6919 2.62185C13.747 2.57703 13.7856 2.55462 13.8077 2.55462C13.8297 2.55462 13.8738 2.57703 13.9399 2.62185C13.962 2.56583 14.0116 2.53781 14.0888 2.53781H14.1384C14.1384 2.53781 14.1439 2.53221 14.1549 2.52101H14.1715C14.1715 2.48739 14.177 2.47059 14.188 2.47059C14.199 2.45938 14.2045 2.44818 14.2045 2.43697C14.2376 2.43697 14.2541 2.42577 14.2541 2.40336C14.2652 2.38095 14.2817 2.35294 14.3037 2.31933H14.3699C14.3699 2.30812 14.3699 2.29132 14.3699 2.26891C14.3809 2.23529 14.3864 2.20728 14.3864 2.18487H14.3699H14.3037H14.0888C14.0667 2.18487 14.0392 2.19048 14.0061 2.20168C13.984 2.21288 13.962 2.21849 13.9399 2.21849C13.9289 2.2633 13.8959 2.29132 13.8407 2.30252C13.7966 2.31373 13.7525 2.31933 13.7084 2.31933C13.6974 2.30812 13.6919 2.30812 13.6919 2.31933H13.6423C13.6202 2.31933 13.5982 2.33053 13.5762 2.35294C13.5651 2.37535 13.5376 2.38655 13.4935 2.38655C13.4494 2.42017 13.3667 2.43697 13.2454 2.43697H13.2289C13.2179 2.43697 13.2124 2.44258 13.2124 2.45378ZM15.9904 1.10924H15.9243C15.9243 1.17647 15.8967 1.21008 15.8416 1.21008V1.2437C15.8416 1.26611 15.8361 1.28291 15.8251 1.29412C15.8251 1.30532 15.8251 1.32773 15.8251 1.36134V1.41176C15.8692 1.41176 15.9022 1.41176 15.9243 1.41176C15.9463 1.40056 15.9904 1.38375 16.0566 1.36134H16.0731H16.3377C16.3818 1.32773 16.4149 1.30532 16.4369 1.29412C16.47 1.28291 16.5141 1.26611 16.5692 1.2437L16.2385 1.02521L15.9904 1.10924ZM15.1636 4.03361L15.5605 3.78151L15.329 3.39496C15.2739 3.37255 15.2463 3.31653 15.2463 3.22689L15.1636 3.14286L15.1471 3.21008H14.899C14.866 3.22129 14.8274 3.22689 14.7833 3.22689C14.7392 3.21569 14.6951 3.18767 14.651 3.14286H14.5518C14.5297 3.14286 14.4912 3.15406 14.436 3.17647C14.3809 3.18767 14.3258 3.17087 14.2707 3.12605H14.2045H14.1715H14.1384C14.0833 3.13725 14.0281 3.14286 13.973 3.14286C13.9289 3.14286 13.8738 3.14286 13.8077 3.14286C13.7856 3.22129 13.714 3.22129 13.5927 3.14286H13.4935H13.2454V3.22689C13.2454 3.2493 13.2509 3.26611 13.262 3.27731C13.284 3.29972 13.3061 3.31092 13.3281 3.31092V3.39496V3.47899C13.3502 3.47899 13.3612 3.5014 13.3612 3.54622V3.64706C13.3612 3.65826 13.3832 3.68627 13.4273 3.73109C13.4494 3.78711 13.4604 3.83753 13.4604 3.88235C13.4604 3.92717 13.4604 3.97759 13.4604 4.03361V4.13445V4.20168C13.4824 4.22409 13.4935 4.2521 13.4935 4.28571C13.4935 4.30812 13.4935 4.33053 13.4935 4.35294C13.4935 4.46499 13.4824 4.54342 13.4604 4.58823V4.60504C13.4494 4.61625 13.4439 4.62745 13.4439 4.63865C13.4328 4.64986 13.4273 4.67787 13.4273 4.72269C13.4273 4.7451 13.4163 4.7619 13.3943 4.77311C13.3722 4.77311 13.3612 4.78992 13.3612 4.82353C13.3391 4.83473 13.3226 4.86274 13.3116 4.90756C13.3006 4.94118 13.2675 4.96919 13.2124 4.9916C13.2124 5.014 13.1958 5.04202 13.1627 5.07563C13.1297 5.10924 13.1021 5.14286 13.0801 5.17647V5.19328V5.2605V5.29412C13.1021 5.31653 13.1187 5.34454 13.1297 5.37815C13.1517 5.41176 13.1627 5.45658 13.1627 5.5126C13.1848 5.55742 13.2013 5.59104 13.2124 5.61344C13.2344 5.63585 13.2454 5.66947 13.2454 5.71429L13.3281 5.79832C13.3281 5.80952 13.3336 5.82073 13.3446 5.83193C13.3446 5.84314 13.3446 5.85434 13.3446 5.86555C13.3557 5.86555 13.3612 5.87115 13.3612 5.88235C13.3722 5.88235 13.3887 5.89356 13.4108 5.91597C13.4108 5.92717 13.4163 5.93837 13.4273 5.94958L13.4604 5.96639C13.5596 6.02241 13.6202 6.05042 13.6423 6.05042L13.6919 6.13445C13.8021 6.04482 13.9344 6.04482 14.0888 6.13445H14.1053C14.1163 6.13445 14.1274 6.14006 14.1384 6.15126L14.1715 6.13445V6.05042C14.1715 6.03922 14.177 6.01681 14.188 5.98319C14.199 5.94958 14.2045 5.91597 14.2045 5.88235V5.84874C14.2045 5.77031 14.2155 5.70868 14.2376 5.66387C14.2596 5.60784 14.2817 5.55742 14.3037 5.5126C14.3037 5.45658 14.3148 5.41176 14.3368 5.37815C14.3589 5.34454 14.3699 5.31653 14.3699 5.29412L14.3864 5.19328L14.4856 5.10924C14.4305 5.06443 14.3974 5.03081 14.3864 5.0084C14.3864 4.98599 14.3864 4.96358 14.3864 4.94118V4.92437V4.7563L14.4856 4.72269C14.5077 4.65546 14.5408 4.59944 14.5849 4.55462C14.64 4.4986 14.6841 4.47059 14.7171 4.47059V4.45378C14.7171 4.45378 14.7227 4.44258 14.7337 4.42017C14.7998 4.35294 14.8494 4.31933 14.8825 4.31933C14.8935 4.27451 14.9266 4.2465 14.9817 4.23529C14.9927 4.23529 15.0038 4.22969 15.0148 4.21849C15.0479 4.18487 15.0699 4.15686 15.0809 4.13445L15.1471 4.03361H15.1636Z" fill="black"/>
</svg>
