<svg width="5" height="17" viewBox="0 0 5 17" fill="none" xmlns="http://www.w3.org/2000/svg">
<path d="M5 15.9364L4.85342 15.9887L4.83713 15.8841C4.81542 15.8841 4.80456 15.8609 4.80456 15.8144C4.78284 15.7911 4.76656 15.7737 4.7557 15.7621C4.7557 15.7621 4.75027 15.7504 4.73941 15.7272C4.73941 15.7039 4.73398 15.6807 4.72313 15.6574C4.71227 15.6458 4.70684 15.6284 4.70684 15.6051C4.69598 15.5819 4.68512 15.5528 4.67427 15.5179C4.66341 15.4947 4.65798 15.4656 4.65798 15.4308V15.361C4.65798 15.361 4.65255 15.3552 4.64169 15.3436C4.61998 15.2855 4.60912 15.239 4.60912 15.2041C4.60912 15.1692 4.59826 15.1227 4.57655 15.0646V14.9774C4.56569 14.9774 4.56026 14.9716 4.56026 14.96C4.5494 14.9484 4.54397 14.9309 4.54397 14.9077C4.54397 14.8728 4.53312 14.8438 4.5114 14.8205C4.5114 14.8089 4.50597 14.7973 4.49511 14.7856C4.49511 14.7856 4.49511 14.774 4.49511 14.7508H4.46254V14.7333C4.45168 14.6985 4.4354 14.6694 4.41368 14.6462C4.40282 14.6345 4.39197 14.6113 4.38111 14.5764V14.4718V14.4369C4.33768 14.3672 4.31596 14.3265 4.31596 14.3149C4.31596 14.2335 4.29425 14.1696 4.25081 14.1231C4.25081 14.1115 4.24539 14.1056 4.23453 14.1056L4.20195 14.0708V14.001C4.20195 13.9662 4.19653 13.9371 4.18567 13.9138L4.12052 13.8441L4.18567 13.8267V13.8092C4.18567 13.8092 4.17481 13.8034 4.15309 13.7918H4.13681C4.12595 13.7918 4.12052 13.786 4.12052 13.7744L4.05537 13.7395L4.08795 13.6697L3.99023 13.4256C3.96851 13.414 3.95765 13.4024 3.95765 13.3908C3.95765 13.3791 3.95223 13.3675 3.94137 13.3559V13.3036C3.94137 13.3036 3.93051 13.2978 3.90879 13.2862H3.89251L3.85993 13.2513C3.82736 13.228 3.80565 13.1873 3.79479 13.1292V13.0769C3.76222 13.0769 3.74593 13.0653 3.74593 13.0421C3.71335 13.0421 3.69707 13.0246 3.69707 12.9897C3.69707 12.9665 3.7025 12.9491 3.71336 12.9374C3.72421 12.9374 3.72964 12.9316 3.72964 12.92C3.70793 12.8968 3.69164 12.8793 3.68078 12.8677C3.66992 12.8561 3.67535 12.827 3.69707 12.7805C3.67535 12.7805 3.66449 12.7631 3.66449 12.7282H3.64821C3.60478 12.705 3.58306 12.6643 3.58306 12.6062C3.56135 12.5945 3.55049 12.5655 3.55049 12.519L3.5342 12.5015V12.4667L3.55049 12.4318C3.55049 12.4085 3.54506 12.3911 3.5342 12.3795C3.5342 12.3679 3.53963 12.3446 3.55049 12.3097C3.51792 12.2749 3.50163 12.2284 3.50163 12.1703C3.47991 12.1703 3.46906 12.147 3.46906 12.1005L3.45277 12.0656V12.0133H3.40391V11.9785C3.40391 11.9436 3.38762 11.9262 3.35505 11.9262C3.33333 11.8797 3.31705 11.8564 3.30619 11.8564C3.29533 11.8564 3.28447 11.8506 3.27362 11.839C3.27362 11.8273 3.26276 11.8215 3.24104 11.8215L3.20847 11.8041C3.1759 11.8041 3.15961 11.7867 3.15961 11.7518C3.14875 11.7518 3.13246 11.7344 3.11075 11.6995H3.07818H3.0456H3.01303C2.93702 11.6762 2.89359 11.6414 2.88274 11.5949C2.86102 11.5716 2.84473 11.56 2.83388 11.56C2.82302 11.56 2.81216 11.5484 2.8013 11.5251L2.76873 11.4903L2.75244 11.4728H2.73616V11.4379H2.70358H2.6873C2.6873 11.4379 2.67644 11.4263 2.65472 11.4031C2.65472 11.3915 2.64929 11.3856 2.63844 11.3856L2.60586 11.3333C2.56243 11.3333 2.54072 11.3159 2.54072 11.281V11.2636C2.519 11.2636 2.50814 11.2462 2.50814 11.2113C2.49729 11.2113 2.49186 11.2055 2.49186 11.1938C2.49186 11.1706 2.481 11.159 2.45928 11.159V11.1241C2.42671 11.1125 2.40499 11.1009 2.39414 11.0892C2.39414 11.0776 2.38328 11.0718 2.36156 11.0718C2.36156 11.0369 2.34528 11.0195 2.3127 11.0195V10.9846C2.3127 11.0079 2.30185 11.0195 2.28013 11.0195C2.25841 11.0195 2.24213 11.0079 2.23127 10.9846C2.22041 10.9846 2.20413 10.9614 2.18241 10.9149V10.8974C2.16069 10.9091 2.14984 10.9207 2.14984 10.9323C2.14984 10.9439 2.13898 10.9497 2.11726 10.9497C2.10641 10.973 2.09012 10.9846 2.0684 10.9846C2.05755 10.9846 2.05212 10.9962 2.05212 11.0195V11.0544C2.05212 11.1009 2.03583 11.159 2.00326 11.2287L2.03583 11.281L1.9544 11.4031V11.4379L1.88925 11.4903V11.5949C1.88925 11.653 1.87296 11.6821 1.84039 11.6821C1.84039 11.6937 1.83496 11.6995 1.8241 11.6995H1.80782V11.7518L1.79153 11.8041H1.74267L1.7101 11.8215C1.72096 11.8215 1.73181 11.8273 1.74267 11.839V11.8564C1.74267 11.9262 1.73181 11.9668 1.7101 11.9785V12.0133C1.73181 12.025 1.73724 12.0366 1.72638 12.0482C1.71553 12.0598 1.7101 12.0773 1.7101 12.1005C1.7101 12.1238 1.70467 12.1412 1.69381 12.1528C1.69381 12.1644 1.69381 12.1761 1.69381 12.1877V12.2226C1.69381 12.2691 1.67752 12.2981 1.64495 12.3097C1.64495 12.3446 1.63409 12.3679 1.61238 12.3795C1.59066 12.3911 1.56895 12.4085 1.54723 12.4318C1.53637 12.455 1.52552 12.4783 1.51466 12.5015C1.51466 12.5132 1.49837 12.5306 1.4658 12.5538V12.5887L1.44951 12.6585V12.6759V12.6933C1.44951 12.7166 1.43322 12.7282 1.40065 12.7282V12.7631L1.38436 12.8851L1.27036 12.92V12.9374H1.23779L1.27036 13.0072L1.18892 13.0421H1.15635V13.0769C1.14549 13.0769 1.14007 13.0827 1.14007 13.0944L1.10749 13.1292C1.10749 13.1757 1.08578 13.199 1.04235 13.199V13.2164C1.04235 13.2164 1.03149 13.228 1.00977 13.2513V13.2862L1.27036 13.4256H0.993485H0.960912C0.960912 13.4954 0.939197 13.5303 0.895766 13.5303L0.879479 13.5651V13.6174V13.6349C0.879479 13.6581 0.884908 13.6697 0.895766 13.6697L0.944625 13.7046L0.895766 13.7744C0.895766 13.786 0.912052 13.8034 0.944625 13.8267H0.993485L0.960912 13.9138V13.9487C0.960912 13.972 0.955483 13.9836 0.944625 13.9836L0.960912 14.001L0.993485 14.0359L1.00977 14.0708L0.993485 14.1231H1.00977L0.960912 14.1754V14.2626C0.993485 14.3207 0.988056 14.3788 0.944625 14.4369V14.4718L0.960912 14.4892L0.944625 14.5241V14.5415C0.977199 14.5415 0.998914 14.5648 1.00977 14.6113C1.00977 14.6462 1.00434 14.6752 0.993485 14.6985V14.7333V14.7508C1.02606 14.7856 1.04235 14.8263 1.04235 14.8728C1.0532 14.8961 1.05863 14.9251 1.05863 14.96C1.08035 14.9716 1.08578 14.9832 1.07492 14.9949C1.06406 15.0181 1.0532 15.0414 1.04235 15.0646L1.00977 15.0821V15.1169L0.993485 15.1692V15.2215V15.239V15.2913V15.361H1.04235V15.4308V15.5005V15.5528C1.0532 15.5528 1.05863 15.5703 1.05863 15.6051H1.10749C1.16178 15.6051 1.19435 15.6458 1.20521 15.7272C1.20521 15.7621 1.19978 15.7911 1.18892 15.8144L1.20521 15.8667V15.9887L1.18892 16.3026V16.2677V16.3026L1.15635 16.3374V16.4072L1.14007 16.4246H1.10749V16.4595L1.05863 16.4769V16.5118L1.10749 16.5815L1.05863 16.6164C1.05863 16.6164 1.0532 16.6222 1.04235 16.6338V16.6687C1.04235 16.6803 1.03692 16.6862 1.02606 16.6862C1.0152 16.6862 1.00977 16.6978 1.00977 16.721L0.846906 17L0.879479 16.6687C0.879479 16.6455 0.879479 16.6338 0.879479 16.6338C0.890337 16.6338 0.895766 16.628 0.895766 16.6164V16.599C0.895766 16.5874 0.890337 16.5757 0.879479 16.5641C0.879479 16.5641 0.879479 16.5583 0.879479 16.5467C0.857763 16.4885 0.863192 16.4421 0.895766 16.4072V16.3549L0.879479 16.3374L0.895766 16.3026L0.879479 16.2677L0.944625 16.2154C0.901194 16.1456 0.901194 16.0875 0.944625 16.041V15.9887C0.901194 15.9771 0.879479 15.9422 0.879479 15.8841V15.8667H0.814332C0.738328 15.8899 0.694897 15.8725 0.684039 15.8144C0.640608 15.7446 0.62975 15.6865 0.651466 15.64C0.673181 15.6168 0.684039 15.5935 0.684039 15.5703C0.716612 15.5354 0.732899 15.5121 0.732899 15.5005V15.4482V15.3959H0.700326C0.689468 15.3726 0.684039 15.3494 0.684039 15.3262C0.694897 15.3029 0.700326 15.2855 0.700326 15.2738V15.239V15.2215L0.732899 15.1867L0.700326 15.1692L0.651466 15.0646L0.732899 15.0297V15.0123V14.96C0.732899 14.9368 0.72747 14.9193 0.716612 14.9077C0.705755 14.9077 0.700326 14.8961 0.700326 14.8728L0.684039 14.8554V14.8031L0.537459 14.8205L0.553746 14.6985V14.6113C0.510315 14.6113 0.488599 14.588 0.488599 14.5415L0.407166 14.4718L0.504886 14.4369V14.3846L0.488599 14.3672C0.488599 14.3091 0.494028 14.2742 0.504886 14.2626H0.537459C0.537459 14.2277 0.542888 14.1986 0.553746 14.1754C0.553746 14.1638 0.548317 14.1579 0.537459 14.1579C0.537459 14.1231 0.542888 14.094 0.553746 14.0708V14.0359L0.504886 13.9836L0.553746 13.9138H0.602606V13.8964V13.8441L0.553746 13.8267C0.542888 13.8267 0.537459 13.8209 0.537459 13.8092V13.7918C0.515744 13.7802 0.504886 13.7511 0.504886 13.7046L0.488599 13.6174V13.5826L0.504886 13.5651C0.494028 13.5535 0.488599 13.5419 0.488599 13.5303C0.488599 13.5303 0.48317 13.5244 0.472313 13.5128C0.461455 13.5012 0.456026 13.4896 0.456026 13.4779C0.456026 13.4779 0.445168 13.4721 0.423453 13.4605H0.407166V13.3733L0.358306 13.3036L0.456026 13.2862V13.2164L0.407166 13.199H0.39088L0.358306 13.1467V13.0944V13.0769V13.0072L0.19544 13.0769L0.293159 12.92V12.8851C0.271444 12.8851 0.260586 12.8677 0.260586 12.8328V12.7631V12.7282C0.238871 12.7166 0.228013 12.6933 0.228013 12.6585L0.19544 12.5887V12.519V12.4667C0.173724 12.4434 0.168295 12.4318 0.179153 12.4318C0.190011 12.4318 0.19544 12.4202 0.19544 12.3969C0.184582 12.3969 0.179153 12.3911 0.179153 12.3795C0.179153 12.3795 0.184582 12.3679 0.19544 12.3446C0.19544 12.3214 0.206297 12.3097 0.228013 12.3097V12.2923L0.114006 12.3097L0.19544 12.1354V12.1179C0.19544 12.1179 0.206297 12.1121 0.228013 12.1005H0.19544V12.0656L0.0488598 11.9262H0.14658V11.8913H0.162866C0.152009 11.8797 0.14658 11.8622 0.14658 11.839V11.8215C0.14658 11.8099 0.141151 11.7983 0.130293 11.7867C0.119435 11.775 0.114006 11.7634 0.114006 11.7518L0.0325734 11.6821L0.0488598 11.6123V11.56V11.5251L0.0325734 11.4903L0.0488598 11.4728C0.0380022 11.4263 0.0325734 11.3798 0.0325734 11.3333V11.2636V11.2462V11.2287C0.0325734 11.2171 0.0325734 11.1997 0.0325734 11.1764C0.0325734 11.1415 0.0380022 11.1183 0.0488598 11.1067C0.0488598 11.0718 0.043431 11.0427 0.0325734 11.0195V10.9846L0 10.8974L0.0977198 10.8626L0.0488598 10.8451H0.0977198L0.0325734 10.7928L0.114006 10.7056L0.162866 10.5836H0.19544L0.14658 10.4615H0.162866L0.228013 10.4267V10.4092V10.3744V10.3221C0.217155 10.3221 0.211726 10.3162 0.211726 10.3046C0.211726 10.293 0.217155 10.2756 0.228013 10.2523C0.228013 10.2407 0.222584 10.2291 0.211726 10.2174H0.19544C0.19544 10.1826 0.206297 10.1593 0.228013 10.1477C0.206297 10.1128 0.19544 10.0896 0.19544 10.0779C0.184582 10.0779 0.179153 10.0721 0.179153 10.0605C0.168295 10.0489 0.162866 10.0315 0.162866 10.0082V9.99077C0.162866 9.99077 0.162866 9.97915 0.162866 9.9559C0.162866 9.93265 0.157437 9.92103 0.14658 9.92103V9.78154H0.114006V9.72923C0.114006 9.71761 0.114006 9.70017 0.114006 9.67692C0.124864 9.65367 0.152009 9.61299 0.19544 9.55487L0.114006 9.41538H0.19544C0.217155 9.41538 0.228013 9.40957 0.228013 9.39795V9.38051C0.184582 9.33402 0.162866 9.29333 0.162866 9.25846C0.152009 9.25846 0.14658 9.23521 0.14658 9.18872L0 9.04923H0.114006C0.135722 9.02598 0.14658 9.00855 0.14658 8.99692C0.14658 8.9853 0.152009 8.97368 0.162866 8.96205C0.162866 8.88068 0.184582 8.82838 0.228013 8.80513L0.260586 8.75282C0.260586 8.72957 0.271444 8.71214 0.293159 8.70051V8.64821H0.309446C0.298588 8.63658 0.293159 8.61915 0.293159 8.5959V8.56103V8.54359C0.293159 8.52034 0.287731 8.49709 0.276873 8.47385C0.266015 8.43897 0.260586 8.40991 0.260586 8.38667C0.282302 8.38667 0.293159 8.38085 0.293159 8.36923C0.293159 8.35761 0.298588 8.35179 0.309446 8.35179C0.298588 8.34017 0.293159 8.32855 0.293159 8.31692C0.304017 8.29367 0.309446 8.27624 0.309446 8.26462V8.24718C0.309446 8.23556 0.304017 8.22974 0.293159 8.22974C0.293159 8.22974 0.293159 8.22393 0.293159 8.21231C0.228013 8.13094 0.217155 8.06701 0.260586 8.02051C0.260586 7.9159 0.271444 7.85778 0.293159 7.84615V7.77641L0.260586 7.74154L0.342019 7.56718L0.293159 7.51487L0.309446 7.48V7.41026L0.293159 7.37538L0.342019 7.32308V7.27077V7.2359C0.320304 7.21265 0.309446 7.18359 0.309446 7.14872L0.260586 7.0441L0.342019 7.02667L0.162866 6.74769L0.342019 6.86974L0.39088 6.81744V6.74769C0.380022 6.74769 0.374593 6.74188 0.374593 6.73026C0.363735 6.71863 0.358306 6.7012 0.358306 6.67795L0.39088 6.66051L0.342019 6.57333H0.456026V6.5559C0.456026 6.49778 0.466884 6.46291 0.488599 6.45128V6.3641L0.504886 6.32923V6.25949H0.488599C0.466884 6.22462 0.456026 6.18393 0.456026 6.13744V6.12V5.96308L0.504886 5.98051L0.342019 5.92821L0.488599 5.85846C0.477742 5.84684 0.472313 5.83521 0.472313 5.82359C0.461455 5.81197 0.456026 5.78872 0.456026 5.75385L0.407166 5.70154H0.488599C0.488599 5.70154 0.494028 5.69573 0.504886 5.6841V5.66667L0.537459 5.64923H0.553746C0.542888 5.61436 0.537459 5.57949 0.537459 5.54462C0.537459 5.52137 0.537459 5.49812 0.537459 5.47487C0.537459 5.44 0.542888 5.41094 0.553746 5.38769C0.542888 5.36444 0.537459 5.32376 0.537459 5.26564L0.456026 5.23077L0.504886 5.16103V5.07385H0.553746L0.537459 5.02154V4.96923V4.9518L0.488599 4.84718L0.537459 4.86462V4.81231V4.79487V4.76L0.504886 4.69026L0.553746 4.65538L0.602606 4.60308H0.553746V4.58564V4.53333L0.537459 4.5159L0.553746 4.46359C0.553746 4.44034 0.559175 4.42872 0.570032 4.42872C0.591748 4.41709 0.602606 4.39966 0.602606 4.37641H0.553746L0.602606 4.30667L0.553746 4.25436L0.651466 4.21949C0.62975 4.18462 0.618893 4.14393 0.618893 4.09744L0.553746 3.90564L0.537459 3.88821H0.553746L0.537459 3.8359L0.602606 3.88821L0.651466 3.8359C0.673181 3.8359 0.684039 3.83009 0.684039 3.81846H0.700326V3.78359V3.76615V3.73128L0.732899 3.69641C0.754615 3.68479 0.781759 3.67897 0.814332 3.67897V3.62667V3.60923L0.846906 3.57436C0.82519 3.57436 0.819761 3.57436 0.830619 3.57436C0.841477 3.57436 0.846906 3.56855 0.846906 3.55692V3.52205V3.46974C0.879479 3.42325 0.912052 3.4 0.944625 3.4C0.92291 3.4 0.912052 3.39419 0.912052 3.38256C0.912052 3.37094 0.92291 3.35932 0.944625 3.34769V3.33026C0.944625 3.30701 0.950054 3.29538 0.960912 3.29538C0.939196 3.28376 0.950054 3.2547 0.993485 3.20821L1.00977 3.19077L0.814332 3.20821L0.960912 3.06872C0.982628 3.04547 0.993485 3.02803 0.993485 3.01641V2.99897L1.00977 2.98154C1.00977 2.95829 1.0152 2.94086 1.02606 2.92923C1.03692 2.91761 1.04235 2.90017 1.04235 2.87692V2.85949H1.00977L0.993485 2.82462L1.00977 2.75487L1.04235 2.72C1.03149 2.72 1.02606 2.70838 1.02606 2.68513C1.02606 2.6735 1.03149 2.66188 1.04235 2.65026V2.61539L1.00977 2.58051L0.960912 2.54564L1.00977 2.45846V2.38872L0.993485 2.37128C0.97177 2.34803 0.960912 2.32479 0.960912 2.30154V2.24923V2.17949L0.944625 2.24923L0.895766 2.12718V2.09231L0.879479 1.97026C0.836048 1.90051 0.814332 1.84239 0.814332 1.7959C0.803474 1.7959 0.798045 1.79009 0.798045 1.77846V1.76103C0.798045 1.72615 0.77633 1.69709 0.732899 1.67385H0.700326C0.689468 1.6506 0.684039 1.63316 0.684039 1.62154C0.684039 1.59829 0.673181 1.57504 0.651466 1.5518C0.62975 1.5518 0.618893 1.5518 0.618893 1.5518C0.618893 1.54017 0.613464 1.53436 0.602606 1.53436C0.559175 1.47624 0.537459 1.4065 0.537459 1.32513V1.30769C0.515744 1.2612 0.510315 1.2147 0.521173 1.16821C0.53203 1.12171 0.542888 1.08684 0.553746 1.06359L0.602606 1.04615C0.570032 1.02291 0.553746 0.988035 0.553746 0.941539C0.542888 0.91829 0.53203 0.900854 0.521173 0.889231C0.510315 0.877607 0.504886 0.860171 0.504886 0.836924C0.526601 0.802052 0.521173 0.755556 0.488599 0.697436C0.466884 0.685812 0.456026 0.639317 0.456026 0.557949C0.43431 0.511453 0.418024 0.470769 0.407166 0.435898C0.396308 0.401026 0.380022 0.360342 0.358306 0.313846C0.347448 0.278974 0.342019 0.249914 0.342019 0.226667C0.342019 0.191795 0.331162 0.151111 0.309446 0.104616V0.0348724L0.456026 0L0.488599 0.104616C0.488599 0.127864 0.488599 0.145299 0.488599 0.156923C0.499457 0.168547 0.504886 0.185983 0.504886 0.209231C0.504886 0.232479 0.510315 0.249914 0.521173 0.261538C0.53203 0.261538 0.537459 0.273162 0.537459 0.296411C0.548317 0.319658 0.559175 0.35453 0.570032 0.401026C0.591748 0.435898 0.602606 0.488205 0.602606 0.557949C0.613464 0.569573 0.618893 0.581197 0.618893 0.592821C0.618893 0.604445 0.62975 0.621881 0.651466 0.645128C0.673181 0.668376 0.684039 0.697436 0.684039 0.732308C0.684039 0.755556 0.684039 0.772992 0.684039 0.784616V0.836924C0.716612 0.871795 0.732899 0.883419 0.732899 0.871795V0.906666V0.941539V0.993847C0.765472 1.05197 0.765472 1.09265 0.732899 1.1159L0.700326 1.15077L0.684039 1.22051C0.694897 1.24376 0.700326 1.27282 0.700326 1.30769C0.700326 1.35419 0.711183 1.38325 0.732899 1.39487C0.732899 1.41812 0.738328 1.42974 0.749186 1.42974C0.760043 1.42974 0.77633 1.44137 0.798045 1.46462C0.798045 1.51111 0.814332 1.53436 0.846906 1.53436C0.901194 1.56923 0.933768 1.60991 0.944625 1.65641C0.955483 1.70291 0.97177 1.75521 0.993485 1.81333L1.00977 1.84821V1.90051H1.04235C1.04235 1.91214 1.04235 1.91795 1.04235 1.91795C1.0532 1.91795 1.05863 1.92957 1.05863 1.95282C1.10206 1.97607 1.12378 2.00513 1.12378 2.04C1.13464 2.07487 1.14007 2.10393 1.14007 2.12718V2.16205C1.14007 2.1853 1.15635 2.21436 1.18892 2.24923C1.2215 2.30735 1.22693 2.35385 1.20521 2.38872V2.44103L1.30293 2.45846L1.23779 2.54564V2.58051C1.23779 2.60376 1.22693 2.62701 1.20521 2.65026C1.20521 2.66188 1.21607 2.66769 1.23779 2.66769V2.70256C1.23779 2.72581 1.24321 2.75487 1.25407 2.78974C1.26493 2.82462 1.2595 2.85368 1.23779 2.87692V2.91179C1.23779 2.92342 1.22693 2.94667 1.20521 2.98154C1.20521 3.01641 1.19978 3.04547 1.18892 3.06872C1.19978 3.08034 1.20521 3.09778 1.20521 3.12103C1.20521 3.14427 1.20521 3.16752 1.20521 3.19077C1.20521 3.22564 1.19978 3.2547 1.18892 3.27795L1.20521 3.36513L1.14007 3.45231C1.14007 3.48718 1.11292 3.52205 1.05863 3.55692C1.05863 3.55692 1.0532 3.56273 1.04235 3.57436C1.04235 3.59761 1.03692 3.62085 1.02606 3.6441C1.0152 3.66735 1.00977 3.68479 1.00977 3.69641H0.993485V3.73128L1.04235 3.78359L0.993485 3.81846C0.97177 3.83009 0.960912 3.84752 0.960912 3.87077C0.960912 3.88239 0.955483 3.89402 0.944625 3.90564L0.895766 3.94051L0.944625 4.04513H0.895766C0.895766 4.04513 0.906623 4.05094 0.928339 4.06256H0.944625C0.955483 4.08581 0.960912 4.11487 0.960912 4.14974V4.16718V4.21949V4.25436L0.895766 4.30667C0.917481 4.31829 0.92291 4.33573 0.912052 4.35897C0.901194 4.3706 0.895766 4.39385 0.895766 4.42872C0.884908 4.42872 0.879479 4.44034 0.879479 4.46359C0.944625 4.48684 0.950054 4.52752 0.895766 4.58564V4.60308V4.62051C0.895766 4.63214 0.890337 4.64376 0.879479 4.65538V4.69026V4.70769C0.879479 4.71932 0.868621 4.73675 0.846906 4.76V4.79487V4.81231C0.846906 4.83556 0.836048 4.85299 0.814332 4.86462C0.814332 4.88786 0.819761 4.9053 0.830619 4.91692C0.841477 4.91692 0.846906 4.92855 0.846906 4.9518C0.868621 4.96342 0.879479 4.99829 0.879479 5.05641L0.895766 5.07385C0.928339 5.10872 0.944625 5.14359 0.944625 5.17846C0.944625 5.21333 0.928339 5.23077 0.895766 5.23077V5.26564V5.44V5.42256V5.44L0.846906 5.49231C0.868621 5.51556 0.87405 5.53299 0.863192 5.54462C0.852334 5.55624 0.846906 5.57368 0.846906 5.59692V5.71897C0.82519 5.74222 0.814332 5.75966 0.814332 5.77128H0.879479L0.798045 5.92821C0.808903 5.95145 0.814332 5.99214 0.814332 6.05026L0.798045 6.08513C0.798045 6.10838 0.798045 6.12 0.798045 6.12C0.808903 6.12 0.814332 6.12581 0.814332 6.13744V6.24205C0.836048 6.25368 0.841477 6.27111 0.830619 6.29436C0.819761 6.31761 0.814332 6.34085 0.814332 6.3641C0.814332 6.38735 0.808903 6.4106 0.798045 6.43385C0.798045 6.44547 0.798045 6.45709 0.798045 6.46872V6.5559C0.77633 6.56752 0.765472 6.58496 0.765472 6.60821V6.62564C0.765472 6.63727 0.760043 6.64889 0.749186 6.66051L0.732899 6.67795C0.711183 6.71282 0.700326 6.73607 0.700326 6.74769V6.81744C0.711183 6.81744 0.732899 6.83487 0.765472 6.86974V6.90462L0.846906 7.02667H0.732899V7.09641C0.732899 7.10803 0.72747 7.11385 0.716612 7.11385C0.705755 7.11385 0.700326 7.12547 0.700326 7.14872L0.684039 7.16615C0.694897 7.1894 0.700326 7.22427 0.700326 7.27077C0.700326 7.30564 0.694897 7.3347 0.684039 7.35795V7.44513C0.694897 7.51487 0.694897 7.5788 0.684039 7.63692L0.700326 7.65436L0.684039 7.68923V7.7241V7.77641C0.684039 7.81128 0.684039 7.84034 0.684039 7.86359C0.684039 7.87521 0.673181 7.89846 0.651466 7.93333C0.651466 7.97983 0.640608 8.00308 0.618893 8.00308V8.02051H0.651466V8.05538V8.10769C0.651466 8.15419 0.662323 8.17744 0.684039 8.17744C0.694897 8.22393 0.684039 8.28205 0.651466 8.35179C0.662323 8.36342 0.667752 8.38085 0.667752 8.4041C0.667752 8.41573 0.662323 8.42735 0.651466 8.43897C0.651466 8.4506 0.646037 8.46222 0.635179 8.47385H0.618893C0.640608 8.48547 0.651466 8.50291 0.651466 8.52615C0.651466 8.5494 0.651466 8.57265 0.651466 8.5959V8.63077C0.673181 8.63077 0.67861 8.63658 0.667752 8.64821C0.656895 8.65983 0.651466 8.67726 0.651466 8.70051C0.651466 8.77026 0.635179 8.81094 0.602606 8.82256V8.87487V8.90974C0.570032 8.92137 0.548317 8.9388 0.537459 8.96205V8.97949C0.570032 9.00274 0.586319 9.02598 0.586319 9.04923C0.597177 9.06085 0.608035 9.0841 0.618893 9.11897V9.13641L0.651466 9.17128L0.537459 9.24103V9.25846H0.504886C0.526601 9.28171 0.537459 9.32239 0.537459 9.38051V9.41538C0.537459 9.41538 0.542888 9.42701 0.553746 9.45026V9.46769C0.586319 9.49094 0.602606 9.53744 0.602606 9.60718V9.62462C0.58089 9.64786 0.564604 9.67111 0.553746 9.69436C0.542888 9.70598 0.526601 9.71761 0.504886 9.72923C0.504886 9.78735 0.515744 9.81641 0.537459 9.81641V9.83385C0.548317 9.85709 0.548317 9.87453 0.537459 9.88615C0.537459 9.88615 0.537459 9.89778 0.537459 9.92103V9.9559C0.548317 9.97915 0.553746 10.0198 0.553746 10.0779V10.1477C0.553746 10.1593 0.559175 10.1709 0.570032 10.1826C0.591748 10.1942 0.602606 10.2058 0.602606 10.2174C0.602606 10.2407 0.608035 10.2523 0.618893 10.2523L0.651466 10.3569L0.602606 10.3744C0.613464 10.3976 0.618893 10.4267 0.618893 10.4615C0.618893 10.508 0.613464 10.5313 0.602606 10.5313V10.5487C0.602606 10.5603 0.586319 10.5662 0.553746 10.5662L0.602606 10.5836V10.6185L0.700326 10.7056L0.537459 10.7405V10.7754C0.537459 10.8568 0.526601 10.9032 0.504886 10.9149L0.488599 10.9497V11.0718L0.504886 11.1067L0.456026 11.159V11.2113V11.2287C0.456026 11.252 0.445168 11.2636 0.423453 11.2636C0.412595 11.2636 0.407166 11.2694 0.407166 11.281L0.456026 11.4379L0.407166 11.4728H0.39088L0.407166 11.4903L0.39088 11.5251C0.401737 11.5484 0.423453 11.5716 0.456026 11.5949L0.488599 11.6472V11.6821H0.504886L0.537459 11.7518V11.7692C0.537459 11.7809 0.537459 11.7867 0.537459 11.7867C0.548317 11.7867 0.553746 11.7925 0.553746 11.8041C0.618892 11.8274 0.651466 11.8855 0.651466 11.9785V12.0133L0.765472 12.0656L0.618893 12.1354V12.1703V12.1877L0.602606 12.2923V12.3097C0.602606 12.3214 0.608035 12.333 0.618893 12.3446V12.4667V12.5015L0.651466 12.519V12.5887C0.651466 12.6003 0.656895 12.612 0.667752 12.6236C0.67861 12.6236 0.684039 12.6352 0.684039 12.6585H0.732899V12.7108C0.732899 12.7224 0.738328 12.7282 0.749186 12.7282C0.760043 12.7282 0.765472 12.7398 0.765472 12.7631C0.765472 12.7747 0.770901 12.7863 0.781759 12.7979C0.792617 12.8096 0.798045 12.8328 0.798045 12.8677C0.808903 12.8793 0.814332 12.8968 0.814332 12.92H0.846906C0.868621 12.92 0.879479 12.9142 0.879479 12.9026V12.8851V12.8677H0.895766V12.8503C0.895766 12.8386 0.912052 12.8154 0.944625 12.7805H0.993485C0.993485 12.7456 0.998914 12.7224 1.00977 12.7108V12.6585L1.05863 12.6062L1.10749 12.5887V12.5538C1.10749 12.5306 1.11292 12.5132 1.12378 12.5015C1.13464 12.4783 1.14549 12.455 1.15635 12.4318V12.3969C1.17807 12.3853 1.18892 12.3562 1.18892 12.3097H1.20521V12.2923C1.23779 12.2342 1.27036 12.1935 1.30293 12.1703L1.27036 12.1354L1.3355 12.0133V11.9785V11.9262V11.8215L1.30293 11.8041L1.35179 11.7692V11.6995C1.35179 11.6995 1.36265 11.6937 1.38436 11.6821V11.6123H1.40065V11.5949C1.43322 11.5949 1.44951 11.5832 1.44951 11.56V11.4903C1.46037 11.4903 1.4658 11.4844 1.4658 11.4728C1.48751 11.4728 1.49837 11.467 1.49837 11.4554V11.4379V11.4031H1.53094L1.61238 11.281L1.64495 11.2636L1.66124 11.2462C1.66124 11.2462 1.6721 11.2403 1.69381 11.2287C1.65038 11.2055 1.65038 11.1648 1.69381 11.1067L1.7101 11.0544C1.7101 11.0079 1.72096 10.9846 1.74267 10.9846H1.79153V10.9149C1.79153 10.8684 1.79696 10.8277 1.80782 10.7928L1.7101 10.7754L1.84039 10.7056L1.80782 10.6882L1.84039 10.6359C1.84039 10.6243 1.84582 10.6185 1.85668 10.6185C1.85668 10.5952 1.86211 10.5836 1.87296 10.5836C1.88382 10.5836 1.88925 10.5778 1.88925 10.5662C1.88925 10.5429 1.88925 10.5138 1.88925 10.479C1.90011 10.4441 1.90554 10.4209 1.90554 10.4092V10.3918H1.92182C1.92182 10.3918 1.93268 10.386 1.9544 10.3744V10.3569V10.3046L1.98697 10.2523L1.9544 10.2V10.1651H1.93811C1.92725 10.1651 1.9164 10.1593 1.90554 10.1477V10.0954L1.85668 10.0779L1.88925 10.0431L1.80782 9.99077L1.88925 9.92103C1.88925 9.83966 1.92182 9.76991 1.98697 9.71179V9.65949C1.98697 9.63624 1.9924 9.6188 2.00326 9.60718H1.98697V9.52C1.98697 9.50838 1.9924 9.50256 2.00326 9.50256V9.41538C2.00326 9.40376 1.99783 9.39214 1.98697 9.38051C1.96526 9.35727 1.9544 9.31658 1.9544 9.25846V9.24103V9.18872L1.7101 9.24103L1.90554 9.0841L1.88925 9.04923L1.9544 8.97949L1.88925 8.90974H1.9544V8.87487C1.92182 8.87487 1.90554 8.85162 1.90554 8.80513C1.87296 8.78188 1.85668 8.74701 1.85668 8.70051V8.5959L1.9544 8.63077L1.98697 8.56103V8.47385V8.43897C1.98697 8.38085 1.9924 8.32855 2.00326 8.28205V8.22974L1.9544 8.21231L1.98697 8.17744L2.03583 8.10769C2.01411 8.07282 2.01954 8.03795 2.05212 8.00308L2.10098 7.95077C2.10098 7.9159 2.10641 7.89846 2.11726 7.89846L2.14984 7.77641H2.18241V7.74154L2.1987 7.7241C2.25299 7.66598 2.29099 7.66598 2.3127 7.7241H2.34528L2.36156 7.68923V7.65436V7.63692C2.38328 7.60205 2.39414 7.56718 2.39414 7.53231V7.48L2.41042 7.46256C2.43214 7.43932 2.443 7.42188 2.443 7.41026L2.41042 7.37538C2.39957 7.36376 2.39414 7.34632 2.39414 7.32308C2.39414 7.31145 2.39957 7.29983 2.41042 7.28821C2.43214 7.27658 2.443 7.25915 2.443 7.2359H2.45928V7.20103V7.14872V7.09641C2.45928 7.07316 2.45385 7.05573 2.443 7.0441C2.443 7.02085 2.44843 6.99179 2.45928 6.95692C2.45928 6.95692 2.45385 6.95111 2.443 6.93949V6.90462V6.83487L2.49186 6.81744V6.74769L2.443 6.73026L2.50814 6.66051C2.50814 6.60239 2.52443 6.56752 2.557 6.5559L2.45928 6.50359L2.50814 6.41641L2.45928 6.39897L2.49186 6.32923V6.31179C2.49186 6.31179 2.49729 6.30598 2.50814 6.29436L2.443 6.24205L2.49186 6.20718V6.18974V6.13744V6.12H2.39414L2.54072 6.03282L2.50814 5.98051L2.54072 5.96308V5.92821C2.54072 5.89333 2.56243 5.87009 2.60586 5.85846C2.60586 5.80034 2.61672 5.76547 2.63844 5.75385V5.70154H2.60586L2.65472 5.59692V5.56205V5.54462L2.6873 5.50974L2.73616 5.44V5.42256L2.70358 5.38769L2.6873 5.33538L2.70358 5.30051H2.71987C2.71987 5.30051 2.7253 5.28889 2.73616 5.26564L2.70358 5.21333L2.65472 5.17846L2.6873 5.12615V5.07385H2.70358L2.6873 5.05641V5.02154C2.6873 5.00991 2.67644 5.0041 2.65472 5.0041L2.63844 4.9518V4.89949V4.86462C2.61672 4.85299 2.60586 4.81812 2.60586 4.76V4.72513H2.557V4.65538C2.54615 4.63214 2.53529 4.6147 2.52443 4.60308C2.51357 4.57983 2.50814 4.55077 2.50814 4.5159C2.49729 4.49265 2.48643 4.4694 2.47557 4.44615C2.46471 4.42291 2.45928 4.39385 2.45928 4.35897C2.44843 4.35897 2.443 4.35316 2.443 4.34154V4.3241V4.30667C2.38871 4.30667 2.36156 4.27761 2.36156 4.21949V3.99282C2.36156 3.96957 2.37242 3.95214 2.39414 3.94051L2.50814 3.8359L2.54072 4.14974V4.16718C2.55157 4.20205 2.557 4.23692 2.557 4.2718C2.58958 4.29504 2.60586 4.31248 2.60586 4.3241C2.62758 4.34735 2.63844 4.38222 2.63844 4.42872C2.64929 4.46359 2.66558 4.49265 2.6873 4.5159C2.69815 4.52752 2.70358 4.54496 2.70358 4.56821C2.70358 4.59145 2.70358 4.6147 2.70358 4.63795C2.7253 4.6612 2.73616 4.67282 2.73616 4.67282V4.69026C2.73616 4.7135 2.74159 4.72513 2.75244 4.72513C2.7633 4.72513 2.76873 4.73675 2.76873 4.76V4.79487L2.8013 4.81231C2.8013 4.83556 2.80673 4.85299 2.81759 4.86462C2.83931 4.88786 2.85016 4.91111 2.85016 4.93436C2.85016 4.94598 2.86102 4.95761 2.88274 4.96923C2.88274 4.99248 2.88274 5.01573 2.88274 5.03897C2.89359 5.06222 2.89359 5.09128 2.88274 5.12615V5.14359C2.88274 5.15521 2.88274 5.16684 2.88274 5.17846C2.89359 5.19009 2.89902 5.20171 2.89902 5.21333L2.94788 5.23077L2.89902 5.26564L2.94788 5.30051V5.35282V5.45744V5.49231V5.50974V5.56205C2.94788 5.62017 2.9316 5.65504 2.89902 5.66667L2.96417 5.70154H2.89902V5.71897V5.75385C2.89902 5.76547 2.89359 5.77709 2.88274 5.78872C2.88274 5.78872 2.88274 5.79453 2.88274 5.80615C2.86102 5.80615 2.83931 5.82359 2.81759 5.85846L2.88274 5.91077L2.8013 5.96308V5.98051L2.89902 6.08513L2.81759 6.13744H2.8013V6.18974V6.20718V6.24205V6.25949V6.32923H2.85016L2.8013 6.3641L2.85016 6.41641L2.81759 6.46872C2.83931 6.49197 2.84473 6.51521 2.83388 6.53846C2.82302 6.55009 2.81759 6.56171 2.81759 6.57333C2.81759 6.59658 2.81216 6.61983 2.8013 6.64308C2.8013 6.6547 2.8013 6.66632 2.8013 6.67795V6.81744V6.83487L2.88274 6.86974L2.85016 6.90462V6.93949L2.81759 7.02667L2.88274 7.11385L2.8013 7.16615H2.78502C2.77416 7.16615 2.76873 7.17778 2.76873 7.20103V7.2359L2.85016 7.32308L2.76873 7.35795C2.76873 7.36957 2.77416 7.38701 2.78502 7.41026C2.79587 7.42188 2.79044 7.44513 2.76873 7.48V7.49744C2.76873 7.50906 2.77959 7.51487 2.8013 7.51487V7.53231V7.63692L2.88274 7.68923L2.8013 7.74154C2.75787 7.78803 2.73616 7.82291 2.73616 7.84615C2.7253 7.84615 2.70901 7.87521 2.6873 7.93333V7.95077C2.70901 8.00889 2.70901 8.04957 2.6873 8.07282C2.6873 8.09607 2.68187 8.1135 2.67101 8.12513C2.66015 8.13675 2.64929 8.15419 2.63844 8.17744C2.61672 8.17744 2.60586 8.18906 2.60586 8.21231C2.56243 8.2588 2.54072 8.28205 2.54072 8.28205V8.33436V8.43897L2.50814 8.47385C2.47557 8.48547 2.45928 8.50872 2.45928 8.54359C2.45928 8.61333 2.45385 8.66564 2.443 8.70051V8.75282V8.80513C2.45385 8.81675 2.45928 8.84 2.45928 8.87487C2.47014 8.90974 2.46471 8.9388 2.443 8.96205V8.97949L2.39414 9.04923H2.36156C2.36156 9.07248 2.36699 9.0841 2.37785 9.0841C2.38871 9.0841 2.39414 9.09573 2.39414 9.11897C2.39414 9.16547 2.38328 9.20615 2.36156 9.24103V9.25846C2.36156 9.29333 2.35613 9.32239 2.34528 9.34564V9.38051C2.36699 9.41538 2.36699 9.44444 2.34528 9.46769V9.50256V9.55487V9.65949V9.78154V9.86872V9.88615L2.3127 9.99077L2.36156 10.0082L2.29642 10.0954C2.29642 10.1303 2.30185 10.1477 2.3127 10.1477C2.3127 10.2174 2.30727 10.2756 2.29642 10.3221C2.26384 10.3453 2.24756 10.3744 2.24756 10.4092V10.4267C2.24756 10.4499 2.24756 10.4615 2.24756 10.4615C2.24756 10.4848 2.25299 10.5022 2.26384 10.5138C2.28556 10.5138 2.29642 10.5197 2.29642 10.5313L2.3127 10.5662C2.33442 10.5778 2.34528 10.5894 2.34528 10.601C2.35613 10.6126 2.37242 10.6185 2.39414 10.6185V10.6359C2.44843 10.6359 2.48643 10.6708 2.50814 10.7405C2.519 10.7405 2.55157 10.7754 2.60586 10.8451C2.62758 10.8568 2.63844 10.8684 2.63844 10.88C2.63844 10.8916 2.64387 10.8974 2.65472 10.8974V10.9149C2.66558 10.9149 2.67644 10.9207 2.6873 10.9323V10.9497C2.69815 10.973 2.70901 10.9904 2.71987 11.0021C2.73073 11.0137 2.73616 11.0311 2.73616 11.0544H2.76873H2.8013C2.85559 11.0776 2.88274 11.1125 2.88274 11.159H2.89902H2.96417V11.2636C2.98588 11.2636 3.00217 11.2694 3.01303 11.281C3.03474 11.281 3.05103 11.2868 3.06189 11.2985C3.07275 11.3101 3.08903 11.3159 3.11075 11.3159V11.3333C3.14332 11.3333 3.15961 11.3508 3.15961 11.3856C3.18132 11.3856 3.19761 11.3915 3.20847 11.4031C3.21933 11.4031 3.24647 11.4031 3.2899 11.4031V11.4379H3.33876V11.4728H3.35505C3.37676 11.4844 3.39848 11.5019 3.4202 11.5251C3.44191 11.5368 3.4582 11.56 3.46906 11.5949V11.6123H3.50163C3.50163 11.6356 3.50706 11.653 3.51792 11.6646C3.52877 11.6762 3.5342 11.6879 3.5342 11.6995C3.54506 11.7227 3.55592 11.7402 3.56678 11.7518C3.57763 11.7634 3.58306 11.7809 3.58306 11.8041H3.61564V11.8215C3.65907 11.8448 3.68078 11.868 3.68078 11.8913C3.69164 11.9145 3.69707 11.9378 3.69707 11.961L3.72964 11.9785V12.0656C3.7405 12.0889 3.74593 12.1121 3.74593 12.1354C3.74593 12.1586 3.75136 12.1703 3.76221 12.1703C3.78393 12.1703 3.79479 12.1761 3.79479 12.1877C3.79479 12.1877 3.80022 12.1993 3.81107 12.2226V12.24L3.79479 12.2923H3.81107V12.3097H3.82736C3.82736 12.3097 3.83279 12.3214 3.84365 12.3446H3.85993C3.88165 12.3795 3.89251 12.4202 3.89251 12.4667V12.5015L3.85993 12.519V12.5538V12.6062V12.6585C3.88165 12.6701 3.89251 12.6817 3.89251 12.6933C3.90337 12.705 3.91965 12.7166 3.94137 12.7282V12.7805L3.95765 12.8328C3.99023 12.8328 4.00651 12.8444 4.00651 12.8677V12.8851V12.9374C4.02823 12.9839 4.03909 13.0072 4.03909 13.0072V13.0421V13.0769V13.0944L4.05537 13.1292H4.15309L4.12052 13.199C4.16395 13.199 4.18567 13.2164 4.18567 13.2513C4.18567 13.2745 4.18567 13.292 4.18567 13.3036C4.19653 13.3152 4.20195 13.3326 4.20195 13.3559V13.3733V13.4256C4.22367 13.4489 4.23453 13.4838 4.23453 13.5303H4.20195C4.20195 13.5535 4.20738 13.5651 4.21824 13.5651C4.2291 13.5651 4.23996 13.5709 4.25081 13.5826V13.6174C4.31596 13.6407 4.34853 13.693 4.34853 13.7744C4.34853 13.8092 4.35939 13.8267 4.38111 13.8267L4.39739 13.8441L4.38111 13.9487C4.38111 13.972 4.39197 13.9836 4.41368 13.9836C4.42454 13.9952 4.4354 14.001 4.44625 14.001V14.0359C4.44625 14.0475 4.44625 14.0533 4.44625 14.0533C4.45711 14.065 4.46254 14.0766 4.46254 14.0882V14.1056V14.1231V14.1579C4.48426 14.1812 4.49511 14.2103 4.49511 14.2451C4.49511 14.28 4.50054 14.3091 4.5114 14.3323C4.53312 14.3556 4.54397 14.4021 4.54397 14.4718C4.54397 14.5183 4.56569 14.5532 4.60912 14.5764C4.60912 14.5997 4.61455 14.6171 4.62541 14.6287C4.63626 14.6403 4.64169 14.652 4.64169 14.6636V14.681C4.64169 14.6926 4.64712 14.6985 4.65798 14.6985C4.6797 14.7566 4.69598 14.8031 4.70684 14.8379C4.72856 14.8728 4.73941 14.9193 4.73941 14.9774V15.0123C4.73941 15.0588 4.73941 15.0821 4.73941 15.0821C4.75027 15.1285 4.76113 15.1576 4.77199 15.1692C4.7937 15.1925 4.80456 15.2157 4.80456 15.239V15.3436C4.82628 15.3552 4.83713 15.3843 4.83713 15.4308V15.5005C4.83713 15.5005 4.84256 15.5063 4.85342 15.5179C4.85342 15.5412 4.85885 15.5528 4.86971 15.5528C4.88056 15.5644 4.88599 15.5819 4.88599 15.6051C4.88599 15.6284 4.88599 15.6458 4.88599 15.6574C4.89685 15.6691 4.90228 15.6865 4.90228 15.7097C4.924 15.733 4.93485 15.7504 4.93485 15.7621C4.94571 15.7737 4.95657 15.7911 4.96743 15.8144L5 15.9364Z" fill="black"/>
</svg>
