<svg width="15" height="17" viewBox="0 0 15 17" fill="none" xmlns="http://www.w3.org/2000/svg">
<path d="M13.9593 16.3985L13.8696 16.4339L14.1029 16.6816L13.2596 16.5401H13.116H12.9725H12.8289H12.7392L12.5419 16.6108H12.4701H12.3266L12.3086 16.6816H12.2368H12.1292H11.9856L11.9139 16.6108H11.8421H11.8242L11.6806 16.6816H11.6089H11.4653L11.3218 16.6993H11.2679L10.9988 16.7523L10.7835 16.7877L10.4785 16.7523H10.4426H10.2093H10.1914L9.77871 16.5401L9.63517 16.3455L9.36603 16.2924L9.15072 16.3455H9.07895L9.15072 16.5401L8.52273 16.5047L8.3433 16.4339L8.28947 16.5047H7.94856L7.84091 16.4339L7.6256 16.3985L7.51794 16.204L7.42823 16.1332L7.28469 16.0447L7.21292 15.9917H7.15909H7.10526L7.46411 16.2747L6.15431 16.1332L5.83134 15.9917H5.74163H5.66986L5.58014 15.9386H5.4366V15.9032L5.36483 15.9386H5.32895L5.02392 15.9032L4.95215 15.8325L4.86244 15.7971L4.53947 15.9032V15.9386H4.52153L4.30622 16.0447L4.10885 16.204L3.98325 16.2747L2.69139 17L3.57057 15.7263L3.6244 15.7086L3.67823 15.6379L3.96531 15.4964V15.4256L4.12679 15.3902L4.19856 15.3548L4.37799 15.1779H4.44976L4.39593 15.1602V14.9303L4.30622 14.8241L4.19856 14.6119L4.12679 14.4703V14.3465V14.1165V14.0635V13.975L4.10885 13.8158V13.7451L4.03708 13.4974L3.96531 13.2674L3.89354 13.232V13.179V13.1082L3.73206 12.949L3.6244 12.8429V12.7721L3.57057 12.666L3.53469 12.2237L3.40909 12.0645L3.39115 11.9584L3.31938 11.7284L3.39115 11.41V11.1623L3.40909 10.9147L3.48086 10.7555H3.40909V10.7024V10.6139V10.5432L3.39115 10.4547V10.2071V10.1363V10.0656V10.0479L3.48086 9.72945V9.641L3.6244 9.41103L3.67823 9.34027L3.80383 9.14568L3.82177 9.09261L3.89354 8.9334L3.96531 8.88033V8.79188H3.98325L4.03708 8.68574L4.10885 8.52654L4.12679 8.43809V8.31426V8.29657V8.22581L3.98325 8.03122L3.96531 7.97815L3.89354 7.90739L3.82177 7.8897L3.67823 7.73049L3.57057 7.67742L3.48086 7.57128L3.26555 7.41207L3.24761 7.359L3.06818 7.1821V7.11134L2.99641 7.07596H2.97847L2.67344 6.68678L2.60167 6.61602V6.56296H2.56579L2.45813 6.70447L2.40431 6.56296L2.27871 6.68678L2.11723 6.36837L1.88397 6.40375V6.1384V6.06764V5.99688L1.77632 5.71384L1.72249 5.66077V5.59001L1.70455 5.50156L1.63278 5.44849L1.54306 5.36004V5.30697H1.47129L1.36364 5.18314V5.16545H1.32775L1.47129 5.74922L0.645933 5.04162L0.502392 4.79396L0.412679 4.59938L0.48445 4.54631V4.47555L0.412679 4.3871L0.089713 4.63476L0.215311 3.92716L0.143541 3.83871L0 3.43184V3.34339L0.0717703 3.27263L0.089713 3.02497V2.72425L0.215311 2.84807V2.72425L0.269139 2.6358L0.305024 2.15817V2.14048L0.48445 2.15817L0.574163 2.01665H0.627991V1.96358L0.645933 1.89282L0.717703 1.82206V1.68054L0.753589 1.41519V1.34443L0.825359 0.972945L0.717703 0.919875L0.574163 0L1.13038 0.265348L1.36364 0.477628L1.43541 0.530697L1.47129 0.619147V0.707597V0.778355L1.54306 1.11446L1.47129 1.41519V1.60978L1.43541 1.82206V1.96358L1.36364 2.01665V2.29969H1.27392L1.2201 2.31738V2.44121L1.13038 2.56504L0.986842 2.795V2.86576L0.915072 2.95421V3.20187H0.861244L0.825359 3.34339V3.41415L0.861244 3.43184L1.13038 3.07804L1.20215 3.90947L1.27392 3.92716L1.47129 4.06868L1.54306 4.13944L1.61483 4.31634L1.70455 4.3871L1.77632 4.47555L1.99163 4.75858L2.04545 4.79396L2.189 5.02393L2.35048 5.16545V5.18314L2.45813 5.39542L2.49402 5.44849L2.60167 5.59001V5.66077H2.67344L2.69139 5.71384L2.9067 5.85536L3.24761 6.15609L3.31938 6.20916L3.39115 6.29761V6.36837L3.40909 6.40375L3.48086 6.47451L3.57057 6.56296L3.73206 6.70447L4.10885 6.96982L4.30622 7.25286L4.39593 7.32362V7.359L4.52153 7.48283L4.61124 7.57128L4.75478 7.76587L4.80861 7.8897L4.91627 8.03122L5.02392 8.11967L5.09569 8.22581L5.16746 8.38502L5.25718 8.61498V8.68574L5.32895 8.72112L5.36483 8.88033V8.9334L5.4366 9.23413V9.2872L5.36483 9.49948V9.55255L5.25718 9.80021L5.09569 10.4547L4.95215 10.0656L4.75478 9.95942L4.61124 9.641L4.64713 9.49948L4.70096 9.34027V9.2872V9.18106V9.14568V9.09261L4.64713 9.02185V9.09261L4.61124 9.14568L4.53947 9.23413L4.52153 9.2872L4.39593 9.55255L4.37799 9.641L4.19856 9.83559V9.90635V9.95942L4.12679 10.3486L4.19856 10.5432V10.7024V10.8439L4.12679 11.18V11.2508V11.41V11.4631V11.5692L4.10885 11.7284L4.19856 11.8876L4.23445 12.2945V12.3652L4.30622 12.4537L4.37799 12.5245L4.61124 12.9313L4.64713 13.179H4.70096L4.75478 13.2674V13.3913L4.86244 13.4974V13.5682L4.91627 13.6743V13.7451L5.02392 13.8158L5.11364 14.2227L5.25718 15.1602H5.58014H5.61603L5.66986 15.0895L5.74163 15.1779H5.75957L6.24402 15.231H6.29785H6.33373L6.38756 15.0895L6.71053 15.1779H6.74641L6.87201 15.231L7.01555 15.3018L7.15909 15.3548H7.21292L7.28469 15.3018L7.3744 15.3548L7.71531 15.4256L7.93062 15.6379L8.28947 15.7263L8.43301 15.6379L8.64832 15.5848H8.70215H8.84569H8.91746L7.71531 14.2227L9.41986 15.3548L9.3122 14.9303L9.90431 15.6379L10.1914 15.7086L10.3888 16.0447L10.6041 16.1155H10.622H10.6938H10.7835L10.6938 16.0447L11.6089 15.9032L11.9139 15.9386L12.0215 15.9032L11.6806 15.3548L12.3266 15.3902L12.8289 15.5671L13.3852 15.7971H13.5467H13.6722H13.7978H14.5873L14.1746 16.204L15 16.6108L13.9593 16.3985Z" fill="black"/>
</svg>
