<svg width="17" height="10" viewBox="0 0 17 10" fill="none" xmlns="http://www.w3.org/2000/svg">
<path d="M16.8274 9.87973C16.8734 9.89118 16.908 9.90836 16.931 9.93127C16.954 9.95418 16.977 9.97709 17 10H16.9655C16.8964 9.94273 16.8389 9.90836 16.7929 9.89691C16.7584 9.88545 16.6951 9.87973 16.603 9.87973C16.58 9.811 16.5398 9.77091 16.4822 9.75945C16.4247 9.70218 16.3729 9.63918 16.3269 9.57045C16.2809 9.49026 16.2291 9.42154 16.1716 9.36426C16.1716 9.35281 16.1601 9.3299 16.1371 9.29553C16.1025 9.27262 16.0795 9.24399 16.068 9.20962C16.068 9.17526 16.0565 9.12944 16.0335 9.07217C16.0335 9.06071 16.0278 9.0378 16.0162 9.00344C16.0162 8.96907 15.999 8.94616 15.9645 8.93471C15.9645 8.87743 15.9587 8.84307 15.9472 8.83162C15.9472 8.80871 15.9357 8.76861 15.9127 8.71134H15.8609C15.8609 8.65407 15.8552 8.60825 15.8437 8.57388C15.8321 8.52806 15.8149 8.48797 15.7919 8.45361C15.7689 8.4307 15.7516 8.41352 15.7401 8.40206C15.7401 8.39061 15.7286 8.3677 15.7056 8.33333C15.6365 8.28751 15.602 8.23597 15.602 8.17869C15.5445 8.17869 15.51 8.17297 15.4985 8.16151C15.487 8.1386 15.464 8.11569 15.4294 8.09278C15.4294 8.05842 15.4122 8.0126 15.3777 7.95533C15.3431 7.95533 15.3201 7.9496 15.3086 7.93814C15.3086 7.91524 15.3029 7.90378 15.2914 7.90378C15.1763 7.90378 15.1073 7.86369 15.0843 7.78351C15.0382 7.77205 15.0037 7.74914 14.9807 7.71478C14.9577 7.66896 14.9289 7.62314 14.8944 7.57732V7.54296L14.8772 7.49141V7.45704V7.4055C14.8311 7.4055 14.8024 7.39977 14.7909 7.38832C14.7794 7.37686 14.7736 7.36541 14.7736 7.35395C14.7621 7.31959 14.7448 7.30241 14.7218 7.30241C14.7103 7.29095 14.7046 7.27377 14.7046 7.25086C14.6585 7.19359 14.6183 7.16495 14.5838 7.16495V7.13058C14.5838 7.08477 14.5723 7.06186 14.5492 7.06186C14.5377 7.0504 14.532 7.03322 14.532 7.01031C14.509 7.03322 14.4802 7.04467 14.4457 7.04467C14.4112 7.04467 14.3824 7.04467 14.3594 7.04467C14.3019 7.04467 14.2386 7.03895 14.1695 7.02749C14.112 7.01604 14.043 7.01031 13.9624 7.01031H13.7898C13.7438 7.03322 13.692 7.04467 13.6345 7.04467C13.5885 7.04467 13.5367 7.0504 13.4792 7.06186L13.4274 7.04467C13.4159 7.02176 13.3929 7.01031 13.3584 7.01031C13.3239 7.01031 13.3008 7.01031 13.2893 7.01031H13.1685C13.0765 7.05613 12.9844 7.05613 12.8924 7.01031C12.8809 6.9874 12.8579 6.97594 12.8234 6.97594C12.7888 6.96449 12.7658 6.94731 12.7543 6.9244V6.83849C12.7773 6.88431 12.8003 6.91294 12.8234 6.9244C12.8579 6.9244 12.8809 6.93585 12.8924 6.95876C12.9154 7.00458 12.9442 7.02749 12.9787 7.02749C13.0132 7.01604 13.042 7.01031 13.065 7.01031C13.1225 6.9874 13.18 6.97594 13.2376 6.97594C13.3066 6.96449 13.3699 6.95876 13.4274 6.95876C13.4849 6.98167 13.5252 6.99885 13.5482 7.01031C13.5827 7.01031 13.6173 7.01031 13.6518 7.01031C13.6863 7.01031 13.7093 6.99313 13.7208 6.95876H13.9107H14.1178H14.1868L14.2386 6.9244C14.2961 6.9244 14.3306 6.93013 14.3421 6.94158C14.3651 6.95304 14.4054 6.95876 14.4629 6.95876C14.4629 6.90149 14.4399 6.8614 14.3939 6.83849C14.3594 6.80412 14.3479 6.76403 14.3594 6.71821C14.2788 6.64948 14.2386 6.58648 14.2386 6.52921C14.2156 6.51775 14.1983 6.5063 14.1868 6.49484C14.1868 6.47194 14.181 6.46048 14.1695 6.46048C14.1465 6.46048 14.1178 6.45475 14.0832 6.4433C14.0602 6.42039 14.0372 6.40893 14.0142 6.40893C13.9912 6.43184 13.9739 6.43757 13.9624 6.42612C13.9509 6.41466 13.9337 6.40321 13.9107 6.39175C13.9107 6.40321 13.8934 6.41466 13.8589 6.42612C13.8359 6.42612 13.8129 6.43757 13.7898 6.46048C13.7553 6.43757 13.7208 6.43184 13.6863 6.4433C13.6518 6.45475 13.6173 6.46048 13.5827 6.46048C13.5597 6.46048 13.531 6.47194 13.4964 6.49484C13.4734 6.5063 13.4447 6.51775 13.4102 6.52921H13.2893C13.2893 6.44903 13.3124 6.40893 13.3584 6.40893C13.3929 6.40893 13.4159 6.38603 13.4274 6.34021C13.3814 6.34021 13.3411 6.32302 13.3066 6.28866H13.2893C13.2318 6.31157 13.1915 6.32302 13.1685 6.32302C13.157 6.32302 13.1225 6.31157 13.065 6.28866C13.042 6.28866 13.0132 6.28293 12.9787 6.27148C12.9442 6.26002 12.9096 6.26575 12.8751 6.28866C12.8636 6.30011 12.8521 6.30584 12.8406 6.30584C12.7946 6.30584 12.7716 6.30011 12.7716 6.28866H12.7543C12.7198 6.31157 12.691 6.32875 12.668 6.34021C12.645 6.35166 12.622 6.36884 12.599 6.39175V6.46048C12.6795 6.48339 12.7371 6.50057 12.7716 6.51203C12.8176 6.52348 12.8751 6.52921 12.9442 6.52921C12.9212 6.52921 12.8866 6.54066 12.8406 6.56357C12.8061 6.58648 12.7773 6.59794 12.7543 6.59794H12.6853C12.6853 6.62085 12.6738 6.6323 12.6508 6.6323C12.5932 6.6323 12.5587 6.64376 12.5472 6.66667C12.5357 6.67812 12.5415 6.72394 12.5645 6.80412H12.4782C12.4321 6.74685 12.3919 6.74685 12.3574 6.80412C12.3343 6.74685 12.3459 6.71821 12.3919 6.71821C12.3689 6.67239 12.3286 6.64376 12.2711 6.6323C12.2711 6.64376 12.2596 6.64949 12.2365 6.64949H12.1675C12.1445 6.63803 12.11 6.6323 12.064 6.6323C12.0179 6.6323 11.9834 6.6323 11.9604 6.6323C11.9374 6.60939 11.9086 6.59794 11.8741 6.59794C11.8511 6.58648 11.8338 6.56357 11.8223 6.52921C11.7993 6.51775 11.7763 6.5063 11.7533 6.49484C11.7303 6.47194 11.713 6.46048 11.7015 6.46048C11.69 6.46048 11.6843 6.45475 11.6843 6.4433C11.6613 6.42039 11.644 6.40893 11.6325 6.40893C11.6095 6.43184 11.598 6.43757 11.598 6.42612C11.598 6.41466 11.5922 6.40321 11.5807 6.39175H11.5117C11.5117 6.39175 11.5059 6.3803 11.4944 6.35739V6.34021H11.4772C11.4772 6.28293 11.4599 6.26002 11.4254 6.27148C11.4024 6.28293 11.3794 6.28866 11.3563 6.28866C11.2988 6.28866 11.2816 6.26575 11.3046 6.21993C11.2125 6.19702 11.1665 6.11111 11.1665 5.9622C11.109 5.92784 11.0802 5.90493 11.0802 5.89347C11.0917 5.87056 11.0975 5.8362 11.0975 5.79038C11.0975 5.76747 11.0917 5.75029 11.0802 5.73883C11.0687 5.71592 11.0629 5.69301 11.0629 5.6701C11.086 5.63574 11.109 5.6071 11.132 5.58419C11.155 5.54983 11.1665 5.50974 11.1665 5.46392V5.41237C11.178 5.37801 11.1838 5.33792 11.1838 5.2921C11.1953 5.24628 11.224 5.20619 11.2701 5.17182C11.2931 5.11455 11.3046 5.08018 11.3046 5.06873C11.3046 5.04582 11.2931 5.00573 11.2701 4.94845C11.2701 4.90263 11.2816 4.87972 11.3046 4.87972C11.3046 4.84536 11.3046 4.81672 11.3046 4.79381C11.3046 4.75945 11.2931 4.71363 11.2701 4.65636C11.2701 4.6449 11.2528 4.62199 11.2183 4.58763C11.1838 4.58763 11.109 4.54181 10.9939 4.45017C10.9824 4.42726 10.9651 4.40435 10.9421 4.38144C10.9191 4.35853 10.8731 4.36999 10.8041 4.41581H10.7523C10.7178 4.40435 10.6775 4.40435 10.6315 4.41581C10.597 4.41581 10.5739 4.41581 10.5624 4.41581C10.5394 4.43872 10.5107 4.44444 10.4761 4.43299C10.4416 4.42153 10.4129 4.42726 10.3898 4.45017H10.3553C10.3438 4.45017 10.3381 4.43872 10.3381 4.41581C10.292 4.41581 10.269 4.42726 10.269 4.45017C10.269 4.49599 10.2575 4.5189 10.2345 4.5189C10.223 4.53036 10.2173 4.53036 10.2173 4.5189C10.1712 4.53036 10.1482 4.50745 10.1482 4.45017C10.0217 4.55326 9.93536 4.5819 9.88934 4.53608C9.83181 4.53608 9.78003 4.54181 9.73401 4.55326C9.68799 4.55326 9.63621 4.56472 9.57868 4.58763C9.56717 4.58763 9.54416 4.59336 9.50964 4.60481C9.48663 4.60481 9.47513 4.61627 9.47513 4.63917H9.40609H9.26802H9.09543H9.04365C9.02064 4.67354 8.99188 4.68499 8.95736 4.67354C8.92284 4.66208 8.88832 4.65636 8.85381 4.65636H8.62944C8.61794 4.66781 8.60643 4.67354 8.59492 4.67354C8.58342 4.67354 8.57767 4.66781 8.57767 4.65636C8.57767 4.65636 8.55465 4.65636 8.50863 4.65636C8.48562 4.65636 8.45685 4.65636 8.42234 4.65636C8.38782 4.65636 8.35905 4.65063 8.33604 4.63917L8.31878 4.65636L8.24975 4.63917C8.22673 4.65063 8.18646 4.65636 8.12893 4.65636C8.09442 4.63345 8.04839 4.63345 7.99086 4.65636H7.95635C7.93333 4.65636 7.92183 4.65063 7.92183 4.63917C7.8643 4.63917 7.82978 4.63917 7.81827 4.63917C7.81827 4.63917 7.81252 4.6449 7.80102 4.65636C7.778 4.65636 7.75499 4.66781 7.73198 4.69072C7.70897 4.70218 7.69171 4.7079 7.6802 4.7079C7.62267 4.7079 7.57665 4.70218 7.54213 4.69072C7.50761 4.66781 7.47885 4.65636 7.45584 4.65636C7.39831 4.6449 7.33502 4.62772 7.26599 4.60481C7.19695 4.5819 7.13367 4.55899 7.07614 4.53608C7.01861 4.53608 6.97834 4.53036 6.95533 4.5189C6.95533 4.45017 6.96684 4.41008 6.98985 4.39863C6.96684 4.34135 6.94958 4.30699 6.93807 4.29553C6.92657 4.28408 6.87479 4.2669 6.78274 4.24399V4.29553C6.78274 4.31844 6.78849 4.3299 6.8 4.3299H6.83452C6.83452 4.35281 6.82301 4.37572 6.8 4.39863L6.78274 4.41581H6.62741V4.3299H6.54112V4.36426C6.54112 4.38717 6.52961 4.39863 6.5066 4.39863L6.54112 4.41581C6.55262 4.41581 6.58139 4.42726 6.62741 4.45017H6.73096C6.63892 4.53035 6.54112 4.53035 6.43756 4.45017C6.43756 4.43872 6.41455 4.46163 6.36853 4.5189C6.36853 4.53036 6.37428 4.53036 6.38579 4.5189C6.4088 4.5189 6.4203 4.49599 6.4203 4.45017H6.43756V4.5189H6.4203C6.30524 4.54181 6.24772 4.58763 6.24772 4.65636V4.7079C6.19019 4.7079 6.16717 4.71936 6.17868 4.74227C6.20169 4.76518 6.2247 4.78809 6.24772 4.811H6.2132C6.2132 4.84536 6.19594 4.87972 6.16142 4.91409C6.13841 4.94845 6.1154 4.98282 6.09239 5.01718C6.09239 5.04009 6.08088 5.05727 6.05787 5.06873C6.03486 5.08018 6.02335 5.09737 6.02335 5.12027H5.98883C5.95431 5.14318 5.9198 5.16609 5.88528 5.189C5.86227 5.20046 5.82775 5.21764 5.78173 5.24055V5.34364C5.74721 5.34364 5.68968 5.36655 5.60914 5.41237V5.34364C5.58613 5.3551 5.57462 5.37801 5.57462 5.41237C5.57462 5.44674 5.56887 5.46392 5.55736 5.46392C5.55736 5.47537 5.56311 5.4811 5.57462 5.4811C5.56311 5.4811 5.54585 5.49255 5.52284 5.51546C5.49983 5.53837 5.47682 5.54983 5.45381 5.54983C5.47682 5.57274 5.46531 5.58419 5.41929 5.58419C5.38477 5.58419 5.37327 5.58992 5.38477 5.60137C5.47682 5.58992 5.5286 5.58992 5.5401 5.60137C5.55161 5.60137 5.56311 5.62428 5.57462 5.6701C5.62064 5.6701 5.66091 5.68156 5.69543 5.70447C5.74146 5.72738 5.78173 5.72738 5.81624 5.70447H5.86802C5.92555 5.70447 5.98308 5.70447 6.04061 5.70447C6.10964 5.70447 6.16717 5.69301 6.2132 5.6701C6.23621 5.69301 6.24772 5.71592 6.24772 5.73883C6.25922 5.75029 6.27648 5.75601 6.29949 5.75601V5.79038H6.31675C6.39729 5.79038 6.43756 5.82474 6.43756 5.89347C6.48359 5.88202 6.51811 5.87629 6.54112 5.87629C6.54112 5.88774 6.53536 5.90493 6.52386 5.92783C6.51235 5.95074 6.5066 5.97365 6.5066 5.99656H6.55838V6.04811C6.59289 6.04811 6.62166 6.04238 6.64467 6.03093C6.66768 6.01947 6.69645 6.0252 6.73096 6.04811V6.09966C6.78849 6.07675 6.81726 6.07102 6.81726 6.08247C6.82876 6.08247 6.83452 6.11684 6.83452 6.18557V6.21993C6.88054 6.19702 6.92081 6.19129 6.95533 6.20275C6.98985 6.2142 7.03012 6.21993 7.07614 6.21993V6.23711H7.14518C7.15668 6.23711 7.17394 6.2543 7.19695 6.28866C7.23147 6.31157 7.25448 6.33448 7.26599 6.35739C7.289 6.3803 7.31201 6.39175 7.33503 6.39175C7.36954 6.39175 7.39256 6.41466 7.40406 6.46048L7.45584 6.51203C7.42132 6.51203 7.40406 6.51775 7.40406 6.52921C7.46159 6.52921 7.51337 6.55212 7.55939 6.59794H7.57665C7.59966 6.62085 7.62843 6.6323 7.66294 6.6323C7.69746 6.6323 7.74349 6.63803 7.80102 6.64949V6.68385C7.80102 6.70676 7.80677 6.71821 7.81827 6.71821C7.81827 6.76403 7.83553 6.79267 7.87005 6.80412C7.91607 6.80412 7.95635 6.80412 7.99086 6.80412H8.12893C8.15195 6.82703 8.1692 6.83849 8.18071 6.83849C8.20372 6.83849 8.22673 6.84994 8.24975 6.87285V6.9244C8.30728 6.90149 8.35905 6.90149 8.40508 6.9244C8.4511 6.94731 8.50288 6.95876 8.56041 6.95876C8.57191 6.98167 8.59492 6.99885 8.62944 7.01031C8.66396 7.01031 8.69848 7.01031 8.73299 7.01031C8.75601 7.03322 8.77902 7.04467 8.80203 7.04467C8.83655 7.04467 8.85956 7.0504 8.87107 7.06186C8.90558 7.10767 8.94585 7.13058 8.99188 7.13058C9.01489 7.09622 9.0379 7.09049 9.06091 7.1134C9.08393 7.12486 9.09543 7.14204 9.09543 7.16495H9.16447C9.14145 7.18786 9.10118 7.18786 9.04365 7.16495C8.96311 7.16495 8.86531 7.13058 8.75025 7.06186C8.73875 7.0504 8.68122 7.04467 8.57767 7.04467C8.56616 7.04467 8.53739 7.04467 8.49137 7.04467C8.45685 7.04467 8.41658 7.03322 8.37056 7.01031C8.33604 6.97594 8.267 6.95876 8.16345 6.95876C8.14044 6.95876 8.11743 6.95304 8.09442 6.94158C8.08291 6.93013 8.06565 6.9244 8.04264 6.9244C8.01963 6.9244 7.99086 6.91867 7.95635 6.90722C7.92183 6.88431 7.89306 6.87285 7.87005 6.87285H7.81827C7.78376 6.83849 7.74349 6.81558 7.69746 6.80412C7.66294 6.79267 7.61692 6.77549 7.55939 6.75258C7.50186 6.72967 7.45584 6.70676 7.42132 6.68385C7.3868 6.66094 7.34078 6.64376 7.28325 6.6323C7.29475 6.6323 7.26599 6.59221 7.19695 6.51203C7.19695 6.45475 7.1912 6.42612 7.1797 6.42612C7.16819 6.41466 7.13367 6.40893 7.07614 6.40893C7.01861 6.40893 6.98985 6.38603 6.98985 6.34021H6.92081C6.8978 6.36312 6.87479 6.36884 6.85178 6.35739C6.84027 6.33448 6.83452 6.31157 6.83452 6.28866C6.81151 6.27721 6.79425 6.26575 6.78274 6.2543C6.78274 6.24284 6.77699 6.23711 6.76548 6.23711H6.74822C6.73672 6.27148 6.73096 6.30584 6.73096 6.34021C6.73096 6.28293 6.70795 6.2543 6.66193 6.2543C6.62741 6.24284 6.58714 6.23139 6.54112 6.21993C6.51811 6.21993 6.48934 6.2142 6.45482 6.20275C6.4203 6.17984 6.39154 6.1512 6.36853 6.11684C6.3225 6.11684 6.29949 6.09393 6.29949 6.04811V5.99656C6.26497 5.99656 6.24772 5.9622 6.24772 5.89347C6.19019 5.92783 6.14416 5.95074 6.10964 5.9622C6.08663 5.9622 6.04636 5.9622 5.98883 5.9622C5.94281 5.92784 5.90829 5.92211 5.88528 5.94502C5.86227 5.95647 5.82775 5.9622 5.78173 5.9622C5.75871 5.9622 5.72995 5.93929 5.69543 5.89347C5.64941 5.89347 5.61489 5.89347 5.59188 5.89347C5.56887 5.88202 5.53435 5.88202 5.48832 5.89347H5.45381C5.37327 5.89347 5.30423 5.88774 5.2467 5.87629C5.18917 5.88774 5.13739 5.91638 5.09137 5.9622C5.05685 5.99656 5.01083 6.0252 4.9533 6.04811H4.91878V6.09966C4.88426 6.11111 4.86125 6.12829 4.84975 6.1512C4.83824 6.17411 4.83249 6.19702 4.83249 6.21993C4.83249 6.26575 4.79797 6.28866 4.72893 6.28866C4.69442 6.26575 4.65415 6.24857 4.60812 6.23711C4.5736 6.22566 4.55059 6.20848 4.53909 6.18557C4.51607 6.18557 4.49306 6.17411 4.47005 6.1512C4.44704 6.12829 4.43553 6.11111 4.43553 6.09966C4.3665 6.09966 4.32047 6.06529 4.29746 5.99656C4.20541 5.91638 4.13063 5.90493 4.0731 5.9622C4.05008 5.92784 4.03283 5.8992 4.02132 5.87629C4.00981 5.84192 3.9753 5.81329 3.91777 5.79038C3.89475 5.79038 3.86599 5.79611 3.83147 5.80756C3.79695 5.80756 3.76819 5.8362 3.74518 5.89347C3.71066 5.88202 3.68765 5.87056 3.67614 5.85911C3.67614 5.8362 3.67039 5.82474 3.65888 5.82474L3.67614 5.79038C3.64162 5.74456 3.5956 5.69874 3.53807 5.65292C3.48054 5.6071 3.42301 5.57274 3.36548 5.54983H3.31371C3.27919 5.51546 3.24467 5.49828 3.21015 5.49828C3.17563 5.48683 3.14687 5.4811 3.12386 5.4811H3.0203C2.91675 5.53837 2.81895 5.53837 2.7269 5.4811H2.70964V5.54983C2.67513 5.57274 2.65212 5.57847 2.64061 5.56701C2.64061 5.55556 2.6291 5.54983 2.60609 5.54983C2.56007 5.51546 2.52555 5.50974 2.50254 5.53265C2.47953 5.5441 2.44501 5.56128 2.39898 5.58419C2.34146 5.58419 2.31269 5.58992 2.31269 5.60137C2.30118 5.60137 2.28393 5.6071 2.26091 5.61856C2.2379 5.61856 2.2264 5.63574 2.2264 5.6701C2.16887 5.69301 2.1286 5.70447 2.10558 5.70447C2.09408 5.70447 2.05956 5.70447 2.00203 5.70447H1.96751C1.9445 5.75029 1.92149 5.76174 1.89848 5.73883C1.88697 5.71592 1.86971 5.70447 1.8467 5.70447C1.82369 5.75029 1.79492 5.77892 1.76041 5.79038C1.72589 5.79038 1.69712 5.79038 1.67411 5.79038H1.53604H1.12183C1.09882 5.79038 1.08156 5.79611 1.07005 5.80756C1.05854 5.80756 1.04704 5.80756 1.03553 5.80756L1.01827 5.82474C1.01827 5.85911 1.00677 5.8992 0.983756 5.94502C0.960745 5.99084 0.943486 6.04238 0.93198 6.09966C0.93198 6.11111 0.920474 6.13975 0.897462 6.18557C0.920474 6.20848 0.943486 6.2543 0.966498 6.32302C1.00102 6.3803 1.02978 6.42612 1.05279 6.46048C1.02978 6.46048 1.01827 6.48339 1.01827 6.52921C0.983756 6.58648 0.972251 6.62658 0.983756 6.64949C1.00677 6.66094 1.01827 6.6953 1.01827 6.75258V7.06186V7.13058C1.0758 7.15349 1.09306 7.17068 1.07005 7.18213C1.05854 7.19358 1.04129 7.21649 1.01827 7.25086C0.983756 7.30813 0.960745 7.36541 0.949239 7.42268C0.937733 7.47995 0.920474 7.5315 0.897462 7.57732V7.61168C0.920474 7.63459 0.926227 7.66896 0.914721 7.71478C0.903215 7.7606 0.897462 7.79496 0.897462 7.81787C0.897462 7.85223 0.885956 7.87514 0.862944 7.8866C0.839932 7.8866 0.828426 7.89233 0.828426 7.90378C0.828426 7.92669 0.822674 7.9496 0.811168 7.97251C0.811168 7.99542 0.816921 8.01833 0.828426 8.04124C0.828426 8.0756 0.822674 8.10424 0.811168 8.12715C0.811168 8.18442 0.816921 8.21879 0.828426 8.23024C0.897462 8.32188 0.937733 8.41924 0.949239 8.52234C0.983756 8.53379 1.00102 8.5567 1.00102 8.59107C1.01252 8.61397 1.02978 8.63688 1.05279 8.65979C1.08731 8.70561 1.11032 8.7457 1.12183 8.78007C1.13333 8.80298 1.15059 8.81443 1.1736 8.81443L1.22538 8.83162C1.2599 8.92325 1.31168 8.99771 1.38071 9.05498C1.3577 9.06644 1.34619 9.10653 1.34619 9.17526V9.20962C1.34619 9.23253 1.3577 9.24399 1.38071 9.24399C1.38071 9.2669 1.38646 9.28981 1.39797 9.31271C1.42098 9.33562 1.43249 9.35281 1.43249 9.36426C1.40948 9.36426 1.38646 9.35281 1.36345 9.3299C1.34044 9.30699 1.30592 9.29553 1.2599 9.29553V9.19244C1.23689 9.18099 1.19662 9.17526 1.13909 9.17526C1.13909 9.09507 1.13333 9.05498 1.12183 9.05498L1.05279 9.00344C1.05279 8.96907 1.03553 8.93471 1.00102 8.90034C0.966497 8.85452 0.943486 8.82589 0.93198 8.81443C0.908968 8.81443 0.897462 8.80298 0.897462 8.78007C0.897462 8.75716 0.897462 8.73425 0.897462 8.71134C0.851438 8.71134 0.822674 8.69416 0.811168 8.65979C0.811168 8.57961 0.793909 8.53379 0.759391 8.52234C0.713367 8.46506 0.690355 8.42497 0.690355 8.40206C0.667344 8.34479 0.650085 8.29897 0.638579 8.26461C0.638579 8.21879 0.627073 8.17297 0.604061 8.12715V8.09278C0.604061 8.02406 0.609814 7.96678 0.62132 7.92096C0.632826 7.87514 0.638579 7.8236 0.638579 7.76632C0.650085 7.76632 0.655838 7.75487 0.655838 7.73196C0.655838 7.7205 0.650085 7.70905 0.638579 7.69759C0.638579 7.5945 0.678849 7.54296 0.759391 7.54296V7.49141V7.37113C0.782403 7.35968 0.793909 7.3425 0.793909 7.31959C0.805415 7.29668 0.811168 7.27377 0.811168 7.25086C0.811168 7.20504 0.799662 7.17068 0.77665 7.14777C0.765144 7.12486 0.759391 7.09049 0.759391 7.04467C0.770897 7.04467 0.77665 7.03895 0.77665 7.02749L0.759391 7.01031C0.759391 6.96449 0.747885 6.91867 0.724873 6.87285C0.713367 6.81558 0.707614 6.76403 0.707614 6.71821C0.707614 6.68385 0.71912 6.66667 0.742132 6.66667C0.765144 6.65521 0.788156 6.64376 0.811168 6.6323C0.753638 6.57503 0.71912 6.52921 0.707614 6.49484C0.707614 6.46048 0.707614 6.42612 0.707614 6.39175V6.34021C0.696108 6.28293 0.690355 6.24857 0.690355 6.23711C0.690355 6.2142 0.690355 6.17411 0.690355 6.11684V6.04811V5.99656C0.667344 5.93929 0.655838 5.91065 0.655838 5.91065C0.655838 5.8992 0.667344 5.88774 0.690355 5.87629L0.707614 5.82474C0.696108 5.80183 0.678849 5.7732 0.655838 5.73883C0.644332 5.70447 0.627073 5.65865 0.604061 5.60137V5.58419V5.41237C0.661591 5.41237 0.673096 5.39519 0.638579 5.36082L0.62132 5.34364H0.604061H0.535025C0.523519 5.32073 0.517766 5.30355 0.517766 5.2921C0.529272 5.28064 0.558037 5.26346 0.604061 5.24055C0.558037 5.20619 0.529272 5.18328 0.517766 5.17182C0.517766 5.16037 0.523519 5.126 0.535025 5.06873C0.569543 5.05727 0.581049 5.03436 0.569543 5C0.558037 4.96564 0.569543 4.94273 0.604061 4.93127V4.811V4.75945C0.558037 4.73654 0.535025 4.7079 0.535025 4.67354C0.535025 4.63918 0.535025 4.61054 0.535025 4.58763H0.483249C0.506261 4.55326 0.546531 4.53036 0.604061 4.5189C0.569543 4.48454 0.546531 4.46163 0.535025 4.45017C0.535025 4.42726 0.535025 4.41008 0.535025 4.39863C0.512014 4.34135 0.506261 4.29553 0.517766 4.26117C0.529272 4.2268 0.535025 4.19817 0.535025 4.17526V4.0378V3.40206C0.512014 3.25315 0.471743 3.10424 0.414213 2.95533C0.379695 2.85223 0.350931 2.74914 0.327919 2.64605C0.304907 2.54296 0.293401 2.42841 0.293401 2.30241C0.293401 2.21077 0.276142 2.12486 0.241624 2.04467C0.218613 1.96449 0.195601 1.89003 0.172589 1.82131C0.126565 1.77549 0.126565 1.70103 0.172589 1.59794C0.172589 1.56357 0.15533 1.52348 0.120812 1.47766V1.37457C0.120812 1.32875 0.120812 1.29439 0.120812 1.27148C0.132318 1.24857 0.149577 1.2142 0.172589 1.16838C0.172589 1.14547 0.166836 1.12257 0.15533 1.09966C0.143824 1.07675 0.149577 1.06529 0.172589 1.06529C0.172589 1.05384 0.15533 1.03665 0.120812 1.01374C0.0978003 0.945017 0.0978003 0.876288 0.120812 0.80756V0.756013C0.109306 0.69874 0.0978003 0.658648 0.0862943 0.635739C0.0862943 0.601374 0.0747885 0.561283 0.0517768 0.515463C0.0517768 0.481099 0.0345178 0.446735 0 0.412371C0.0575296 0.332187 0.0575296 0.252004 0 0.171821C0.0230119 0.19473 0.0460238 0.211912 0.0690357 0.223367C0.0920474 0.223367 0.103553 0.229095 0.103553 0.24055C0.103553 0.320733 0.103553 0.383734 0.103553 0.429553C0.115059 0.475372 0.138071 0.532646 0.172589 0.601374C0.172589 0.635739 0.207107 0.652921 0.276142 0.652921C0.287648 0.67583 0.299154 0.693012 0.31066 0.704466C0.322166 0.715922 0.316413 0.750286 0.293401 0.80756V0.824742H0.345178C0.379695 0.824742 0.414213 0.830469 0.448731 0.841924C0.494755 0.841924 0.546531 0.853379 0.604061 0.876289C0.569543 0.899198 0.56379 0.91638 0.586802 0.927834C0.609814 0.939289 0.592555 0.945016 0.535025 0.945016H0.517766C0.506261 0.945016 0.500508 0.945016 0.500508 0.945016C0.500508 0.933562 0.494755 0.927834 0.483249 0.927834V0.945016C0.448731 0.945016 0.437225 0.956471 0.448731 0.979381C0.471743 1.00229 0.483249 1.0252 0.483249 1.04811V1.13402C0.483249 1.15693 0.471743 1.17411 0.448731 1.18557C0.425719 1.19702 0.414213 1.23139 0.414213 1.28866C0.460237 1.32302 0.483249 1.35166 0.483249 1.37457H0.517766C0.494755 1.42039 0.477496 1.45475 0.46599 1.47766C0.46599 1.48912 0.448731 1.51203 0.414213 1.54639L0.483249 1.58076C0.483249 1.59221 0.483249 1.60939 0.483249 1.6323C0.483249 1.65521 0.494755 1.66667 0.517766 1.66667V1.70103C0.494755 1.70103 0.483249 1.71249 0.483249 1.73539C0.483249 1.7583 0.483249 1.77549 0.483249 1.78694C0.62132 1.82131 0.690355 1.78121 0.690355 1.66667H0.811168C0.753638 1.76976 0.696108 1.82131 0.638579 1.82131C0.615567 1.85567 0.604061 1.90149 0.604061 1.95876C0.627073 1.93585 0.644332 1.9244 0.655838 1.9244C0.678849 1.91294 0.696108 1.89576 0.707614 1.87285C0.730626 1.87285 0.747885 1.87858 0.759391 1.89003C0.770897 1.90149 0.788156 1.90722 0.811168 1.90722C0.822674 1.95304 0.822674 1.99885 0.811168 2.04467C0.788156 2.04467 0.77665 2.05613 0.77665 2.07904C0.77665 2.09049 0.788156 2.10195 0.811168 2.1134V2.18213C0.788156 2.20504 0.788156 2.2394 0.811168 2.28522C0.834179 2.33104 0.862944 2.37686 0.897462 2.42268H0.93198V2.45704H0.897462C0.851438 2.45704 0.828426 2.47423 0.828426 2.50859C0.839932 2.50859 0.816921 2.53723 0.759391 2.5945H0.949239C0.937733 2.60596 0.897462 2.62314 0.828426 2.64605C0.862944 2.68041 0.880203 2.70905 0.880203 2.73196C0.891709 2.75487 0.908968 2.78923 0.93198 2.83505C0.943486 2.83505 0.960745 2.83505 0.983756 2.83505C1.00677 2.83505 1.02978 2.82932 1.05279 2.81787C1.05279 2.8866 1.01827 2.96105 0.949239 3.04124C0.983756 3.04124 1.01827 3.04696 1.05279 3.05842C1.09882 3.06987 1.12758 3.0756 1.13909 3.0756C1.13909 3.10997 1.16785 3.12715 1.22538 3.12715H1.34619V3.19588H1.38071V3.28179C1.38071 3.32761 1.39797 3.35052 1.43249 3.35052C1.4555 3.35052 1.49002 3.32761 1.53604 3.28179C1.53604 3.32761 1.51303 3.35624 1.46701 3.3677C1.44399 3.3677 1.43249 3.37342 1.43249 3.38488C1.43249 3.38488 1.43249 3.41352 1.43249 3.47079C1.4555 3.47079 1.49002 3.44788 1.53604 3.40206V3.47079C1.53604 3.48224 1.54179 3.48797 1.5533 3.48797V3.52234C1.5533 3.53379 1.54755 3.54525 1.53604 3.5567C1.53604 3.56816 1.53604 3.57961 1.53604 3.59107C1.54755 3.59107 1.5533 3.58534 1.5533 3.57388C1.5533 3.55097 1.56481 3.53952 1.58782 3.53952C1.58782 3.56243 1.59932 3.58534 1.62234 3.60825C1.64535 3.6197 1.66261 3.63688 1.67411 3.65979H1.72589C1.7489 3.63688 1.75465 3.6197 1.74315 3.60825C1.74315 3.58534 1.75465 3.56243 1.77766 3.53952C1.77766 3.56243 1.77766 3.57961 1.77766 3.59107C1.78917 3.59107 1.79492 3.59679 1.79492 3.60825C1.84095 3.63116 1.86396 3.62543 1.86396 3.59107C1.86396 3.5567 1.88122 3.53952 1.91574 3.53952C1.89272 3.53952 1.88122 3.55097 1.88122 3.57388V3.59107L1.91574 3.60825C1.96176 3.59679 1.99052 3.59679 2.00203 3.60825C2.01354 3.60825 2.03655 3.60825 2.07107 3.60825C2.07107 3.64261 2.05956 3.65979 2.03655 3.65979H2.00203H2.12284C2.11134 3.6827 2.11134 3.69989 2.12284 3.71134C2.14585 3.72279 2.20338 3.7457 2.29543 3.78007C2.30694 3.76861 2.31269 3.75143 2.31269 3.72852C2.31269 3.70561 2.3242 3.6827 2.34721 3.65979V3.78007C2.37022 3.78007 2.39323 3.78007 2.41624 3.78007C2.43926 3.76861 2.46227 3.76861 2.48528 3.78007C2.50829 3.78007 2.5313 3.78007 2.55431 3.78007C2.57733 3.76861 2.57733 3.7457 2.55431 3.71134H2.7269H2.70964C2.69814 3.71134 2.68663 3.71707 2.67513 3.72852C2.67513 3.73998 2.66362 3.75143 2.64061 3.76289C2.64061 3.77434 2.65212 3.78007 2.67513 3.78007C2.69814 3.78007 2.7154 3.78007 2.7269 3.78007C2.78443 3.76861 2.81895 3.75143 2.83046 3.72852C2.85347 3.70561 2.89374 3.6827 2.95127 3.65979V3.59107C2.96278 3.60252 2.98579 3.60825 3.0203 3.60825C3.04332 3.60825 3.05482 3.64261 3.05482 3.71134C3.10085 3.68843 3.12386 3.65979 3.12386 3.62543C3.12386 3.59107 3.12961 3.54525 3.14112 3.48797H3.0203C3.04332 3.47652 3.05482 3.47079 3.05482 3.47079C3.05482 3.47079 3.09509 3.47652 3.17563 3.48797C3.22166 3.47652 3.24467 3.44788 3.24467 3.40206H3.31371C3.34822 3.44788 3.36548 3.4937 3.36548 3.53952V3.59107L3.38274 3.60825C3.38274 3.64261 3.4 3.65979 3.43452 3.65979C3.50355 3.65979 3.53807 3.63688 3.53807 3.59107C3.54958 3.53379 3.56684 3.49943 3.58985 3.48797C3.61286 3.46506 3.64162 3.43643 3.67614 3.40206H3.7797V3.47079C3.66464 3.48224 3.60711 3.54525 3.60711 3.65979H3.74518V3.71134C3.81421 3.83734 3.94078 3.87171 4.12487 3.81443C4.1709 3.81443 4.20541 3.83734 4.22843 3.88316H4.29746C4.30897 3.89462 4.32047 3.88889 4.33198 3.86598C4.35499 3.84307 4.38376 3.85452 4.41827 3.90034C4.42978 3.90034 4.45279 3.90607 4.48731 3.91753C4.52183 3.91753 4.54484 3.92898 4.55634 3.95189H4.71167C4.74619 3.95189 4.77496 3.96334 4.79797 3.98625C4.82098 3.99771 4.83824 4.00344 4.84975 4.00344H5.03959C5.08562 4.00344 5.11438 3.99771 5.12589 3.98625C5.1489 3.96334 5.18917 3.95189 5.2467 3.95189H5.33299C5.3445 3.98625 5.36751 4.00344 5.40203 4.00344H5.45381C5.51134 3.98053 5.54585 3.9748 5.55736 3.98625C5.56887 3.99771 5.58613 4.00344 5.60914 4.00344C5.60914 4.02635 5.6264 4.0378 5.66091 4.0378C5.69543 4.0378 5.7242 4.0378 5.74721 4.0378H5.86802C5.94856 4.0378 6.00034 4.02635 6.02335 4.00344C6.02335 3.96907 6.03486 3.95189 6.05787 3.95189H6.09239C6.1154 3.95189 6.14992 3.94044 6.19594 3.91753C6.24196 3.89462 6.28223 3.88889 6.31675 3.90034H6.43756C6.5066 3.88889 6.54112 3.86025 6.54112 3.81443C6.55262 3.81443 6.55838 3.80871 6.55838 3.79725C6.56988 3.7858 6.59289 3.78007 6.62741 3.78007C6.68494 3.78007 6.71946 3.77434 6.73096 3.76289C6.74247 3.75143 6.75973 3.73425 6.78274 3.71134C6.80575 3.71134 6.81726 3.69989 6.81726 3.67698C6.82876 3.65407 6.84602 3.63116 6.86904 3.60825C6.90355 3.60825 6.93232 3.60252 6.95533 3.59107C7.00135 3.53379 7.03587 3.49943 7.05888 3.48797C7.08189 3.46506 7.11641 3.43643 7.16244 3.40206L7.19695 3.3677C7.23147 3.35624 7.25448 3.33906 7.26599 3.31615C7.289 3.29324 7.31201 3.27033 7.33503 3.24742C7.38105 3.16724 7.42132 3.10997 7.45584 3.0756C7.51337 3.05269 7.54789 3.02405 7.55939 2.98969C7.5709 2.95533 7.58816 2.91523 7.61117 2.86942C7.65719 2.84651 7.69171 2.8236 7.71472 2.80069C7.74924 2.76632 7.78376 2.73769 7.81827 2.71478C7.81827 2.66896 7.82978 2.63459 7.85279 2.61168C7.8758 2.58877 7.89882 2.56586 7.92183 2.54295C7.95634 2.52005 7.97936 2.48568 7.99086 2.43986C8.00237 2.39404 8.01963 2.35968 8.04264 2.33677C8.07716 2.33677 8.10017 2.33104 8.11168 2.31959C8.12318 2.31959 8.12893 2.31386 8.12893 2.30241C8.15195 2.25659 8.16345 2.22795 8.16345 2.21649C8.10592 2.22795 8.05415 2.26231 8.00812 2.31959C7.9736 2.36541 7.91032 2.38832 7.81827 2.38832V2.4055C7.81827 2.41695 7.83553 2.42268 7.87005 2.42268V2.50859C7.85854 2.50859 7.84704 2.51432 7.83553 2.52577H7.81827V2.54295H7.80102C7.78951 2.54295 7.77225 2.5315 7.74924 2.50859V2.49141C7.74924 2.4685 7.73198 2.45704 7.69746 2.45704C7.62843 2.45704 7.5824 2.51432 7.55939 2.62887C7.49035 2.62887 7.43858 2.61741 7.40406 2.5945C7.42707 2.65178 7.41557 2.69187 7.36954 2.71478C7.33503 2.72623 7.30626 2.7606 7.28325 2.81787H7.26599C7.2775 2.82932 7.30051 2.83505 7.33503 2.83505C7.31201 2.85796 7.289 2.87514 7.26599 2.8866C7.25448 2.8866 7.23147 2.90378 7.19695 2.93814V2.95533C7.19695 2.95533 7.18545 2.9496 7.16244 2.93814C7.15093 2.9496 7.15093 2.97251 7.16244 3.00687C7.17394 3.02978 7.16819 3.05269 7.14518 3.0756C7.11066 3.0756 7.09915 3.09278 7.11066 3.12715C7.12217 3.15006 7.09915 3.16151 7.04162 3.16151C7.06464 3.18442 7.07614 3.21306 7.07614 3.24742H7.04162V3.16151V3.04124C7.06464 3.01833 7.07614 2.96105 7.07614 2.86942C7.07614 2.84651 7.08765 2.83505 7.11066 2.83505H7.14518C7.14518 2.78923 7.16244 2.74914 7.19695 2.71478C7.18545 2.70332 7.18545 2.69187 7.19695 2.68041C7.19695 2.6575 7.21997 2.64605 7.26599 2.64605C7.31201 2.64605 7.33503 2.64032 7.33503 2.62887C7.33503 2.60596 7.34078 2.5945 7.35228 2.5945C7.3753 2.58305 7.3868 2.56586 7.3868 2.54295C7.3868 2.48568 7.40981 2.45704 7.45584 2.45704C7.47885 2.45704 7.50186 2.45132 7.52487 2.43986C7.54788 2.42841 7.56514 2.42268 7.57665 2.42268V2.33677L7.61117 2.30241H7.6802C7.6802 2.24513 7.70321 2.21649 7.74924 2.21649V2.18213C7.78376 2.13631 7.80102 2.07331 7.80102 1.99313C7.81252 1.97022 7.81827 1.95303 7.81827 1.94158C7.82978 1.91867 7.8643 1.90722 7.92183 1.90722C7.96785 1.90722 7.99086 1.86712 7.99086 1.78694C7.99086 1.77549 7.99662 1.76976 8.00812 1.76976C8.03113 1.7583 8.04264 1.73539 8.04264 1.70103L8.09442 1.66667C8.12893 1.55212 8.20372 1.46621 8.31878 1.40893V1.37457C8.34179 1.32875 8.37056 1.28293 8.40508 1.23711C8.43959 1.17984 8.47411 1.12257 8.50863 1.06529C8.52014 1.06529 8.53739 1.05384 8.56041 1.03093L8.57767 1.01374C8.60068 1.01374 8.61218 1.01947 8.61218 1.03093C8.62369 1.04238 8.64095 1.05384 8.66396 1.06529C8.61794 1.09966 8.58342 1.12257 8.56041 1.13402C8.5489 1.13402 8.53164 1.14547 8.50863 1.16838C8.50863 1.17984 8.51438 1.19129 8.52589 1.20275C8.5489 1.20275 8.56616 1.21993 8.57767 1.25429C8.57767 1.19702 8.62944 1.16838 8.73299 1.16838C8.73299 1.16838 8.75025 1.13402 8.78477 1.06529C8.78477 1.11111 8.79628 1.13402 8.81929 1.13402C8.8308 1.14547 8.8423 1.14547 8.85381 1.13402H8.87107V1.1512C8.87107 1.17411 8.88832 1.18557 8.92284 1.18557V1.16838H8.9401C8.96311 1.16838 8.97462 1.15693 8.97462 1.13402H8.92284C8.98037 1.13402 9.01489 1.12829 9.0264 1.11684C9.0379 1.10538 9.04365 1.07102 9.04365 1.01374C9.07817 1.01374 9.11269 0.990835 9.14721 0.945016C9.14721 0.933562 9.14721 0.91638 9.14721 0.893471C9.15871 0.870561 9.16447 0.847651 9.16447 0.824742V0.80756C9.18748 0.80756 9.20474 0.801832 9.21624 0.790377C9.22775 0.767468 9.24501 0.756013 9.26802 0.756013C9.34856 0.65292 9.4176 0.601374 9.47513 0.601374C9.49814 0.56701 9.5154 0.5441 9.5269 0.532645C9.54992 0.509736 9.56717 0.486827 9.57868 0.463917C9.57868 0.441007 9.58443 0.429553 9.59594 0.429553C9.61895 0.418098 9.63046 0.406644 9.63046 0.395189V0.343642C9.66497 0.343642 9.69949 0.337915 9.73401 0.32646C9.78003 0.30355 9.8088 0.292096 9.8203 0.292096C9.87783 0.315005 9.92386 0.320733 9.95838 0.309277C10.0044 0.286368 10.0504 0.257731 10.0964 0.223367C10.0964 0.234822 10.1022 0.246277 10.1137 0.257732C10.1367 0.257732 10.1482 0.269186 10.1482 0.292096V0.32646C10.1482 0.337915 10.131 0.343642 10.0964 0.343642C10.0964 0.366552 10.0849 0.389461 10.0619 0.412371C10.0504 0.423826 10.0447 0.441007 10.0447 0.463917V0.635739C10.0447 0.647193 10.0389 0.658648 10.0274 0.670103C10.0159 0.670103 10.0102 0.681557 10.0102 0.704466C9.99865 0.715922 9.99289 0.727377 9.99289 0.738831C9.98139 0.750286 9.96413 0.756013 9.94112 0.756013C9.94112 0.778922 9.95838 0.796105 9.99289 0.80756C10.0274 0.80756 10.0332 0.813287 10.0102 0.824742V0.927834H10.0274L10.0447 0.945016C10.0447 0.979381 10.0389 1.00802 10.0274 1.03093C10.0159 1.05384 10.0102 1.0882 10.0102 1.13402H10.1482C10.1482 1.15693 10.1482 1.18557 10.1482 1.21993C10.1482 1.24284 10.154 1.26575 10.1655 1.28866C10.1885 1.33448 10.2 1.37457 10.2 1.40893C10.2115 1.4433 10.2173 1.46621 10.2173 1.47766L10.1655 1.54639C10.2115 1.54639 10.2633 1.58648 10.3208 1.66667C10.3323 1.68958 10.3381 1.70676 10.3381 1.71821C10.3381 1.72967 10.3381 1.76403 10.3381 1.82131C10.3381 1.7984 10.3323 1.78121 10.3208 1.76976L10.269 1.78694C10.269 1.80985 10.2748 1.82703 10.2863 1.83849C10.3093 1.83849 10.3208 1.84994 10.3208 1.87285V1.89003C10.3208 1.90149 10.3036 1.90722 10.269 1.90722H10.3898C10.4244 1.88431 10.4704 1.88431 10.5279 1.90722H10.5452V1.9244C10.5452 1.93585 10.5509 1.94731 10.5624 1.95876C10.5739 1.93585 10.5797 1.90722 10.5797 1.87285C10.5797 1.83849 10.5797 1.80985 10.5797 1.78694C10.5797 1.74112 10.5797 1.71249 10.5797 1.70103C10.5912 1.67812 10.6257 1.63803 10.6832 1.58076C10.6602 1.58076 10.6545 1.57503 10.666 1.56357C10.6775 1.54066 10.6832 1.51203 10.6832 1.47766C10.6832 1.47766 10.689 1.47194 10.7005 1.46048H10.735V1.34021C10.735 1.3173 10.7235 1.29439 10.7005 1.27148C10.689 1.24857 10.6832 1.21993 10.6832 1.18557C10.6832 1.17411 10.6832 1.1512 10.6832 1.11684C10.6948 1.08247 10.7178 1.05956 10.7523 1.04811C10.7408 1.11684 10.7408 1.19129 10.7523 1.27148C10.7638 1.34021 10.7983 1.40321 10.8558 1.46048V1.47766H10.8041C10.8271 1.51203 10.8386 1.54639 10.8386 1.58076C10.8501 1.60367 10.8616 1.6323 10.8731 1.66667L10.8558 1.70103V1.76976C10.8673 1.76976 10.8846 1.7583 10.9076 1.73539C10.9306 1.71249 10.9536 1.70103 10.9766 1.70103V1.66667L10.9939 1.59794C11.0514 1.59794 11.086 1.59794 11.0975 1.59794C11.109 1.58648 11.132 1.5693 11.1665 1.54639C11.178 1.48912 11.2125 1.46048 11.2701 1.46048C11.2931 1.42612 11.3218 1.39748 11.3563 1.37457C11.3563 1.35166 11.3679 1.34021 11.3909 1.34021C11.4369 1.29439 11.4772 1.2543 11.5117 1.21993C11.5577 1.17411 11.5865 1.12257 11.598 1.06529H11.6152C11.6497 1.06529 11.6785 1.05956 11.7015 1.04811C11.713 1.0252 11.713 0.996563 11.7015 0.962199C11.7015 0.927835 11.6785 0.899198 11.6325 0.876289C11.6095 0.819014 11.6037 0.76174 11.6152 0.704466C11.6267 0.647193 11.6325 0.589919 11.6325 0.532645V0.412371C11.667 0.412371 11.6843 0.429553 11.6843 0.463917C11.6958 0.498281 11.7015 0.521191 11.7015 0.532645V0.756013C11.7015 0.790378 11.7073 0.83047 11.7188 0.876289C11.7303 0.910652 11.7648 0.933562 11.8223 0.945016H11.8396V1.01374C11.8396 0.967926 11.8569 0.945016 11.8914 0.945016V1.06529C11.9144 1.12257 11.9144 1.15693 11.8914 1.16838C11.8799 1.16838 11.8626 1.17411 11.8396 1.18557C11.8971 1.26575 11.9259 1.3173 11.9259 1.34021H12.1157C12.1387 1.34021 12.156 1.32302 12.1675 1.28866C12.202 1.33448 12.2308 1.36884 12.2538 1.39175C12.2768 1.41466 12.3056 1.4433 12.3401 1.47766C12.3401 1.47766 12.3459 1.47194 12.3574 1.46048C12.3574 1.47194 12.3516 1.48339 12.3401 1.49484C12.3401 1.49484 12.3401 1.50057 12.3401 1.51203V1.54639C12.3631 1.60367 12.3976 1.63803 12.4437 1.64948C12.4897 1.66094 12.5415 1.66667 12.599 1.66667C12.5645 1.76976 12.5817 1.82131 12.6508 1.82131V1.87285C12.6738 1.89576 12.6853 1.87858 12.6853 1.82131C12.7428 1.82131 12.7716 1.87858 12.7716 1.99313H12.8061H12.8751C12.8751 2.01604 12.8751 2.03322 12.8751 2.04467C12.8866 2.05613 12.8924 2.07331 12.8924 2.09622V2.1134C12.9154 2.1134 12.9384 2.12486 12.9614 2.14777C12.9844 2.15922 12.9959 2.14777 12.9959 2.1134C13.0074 2.1134 13.0305 2.13631 13.065 2.18213C13.088 2.20504 13.111 2.21649 13.134 2.21649C13.157 2.21649 13.1743 2.21649 13.1858 2.21649C13.2433 2.21649 13.2778 2.22222 13.2893 2.23368C13.3124 2.23368 13.3526 2.25659 13.4102 2.30241H13.4792C13.4447 2.32531 13.4044 2.33677 13.3584 2.33677C13.3239 2.33677 13.3008 2.32531 13.2893 2.30241C13.2203 2.23368 13.18 2.23368 13.1685 2.30241H13.065L13.0132 2.25086C13.0017 2.25086 12.9959 2.24513 12.9959 2.23368C12.9384 2.21077 12.8981 2.21077 12.8751 2.23368C12.8176 2.26804 12.7831 2.2795 12.7716 2.26804C12.7601 2.24513 12.7313 2.22795 12.6853 2.21649C12.6853 2.19358 12.6738 2.15922 12.6508 2.1134C12.6277 2.17068 12.6047 2.21077 12.5817 2.23368C12.5702 2.24513 12.553 2.26804 12.5299 2.30241V2.26804C12.5299 2.24513 12.5127 2.23368 12.4782 2.23368V2.30241C12.5357 2.34822 12.5357 2.38832 12.4782 2.42268C12.4552 2.44559 12.4437 2.47423 12.4437 2.50859C12.4206 2.55441 12.4034 2.60596 12.3919 2.66323C12.3804 2.70905 12.3631 2.7606 12.3401 2.81787V2.83505C12.2711 2.9496 12.2078 3.01833 12.1503 3.04124C12.0927 3.08706 12.0582 3.12715 12.0467 3.16151C12.0467 3.18442 12.0352 3.22451 12.0122 3.28179H11.9259C11.9489 3.32761 11.9431 3.37342 11.9086 3.41924C11.8856 3.45361 11.8626 3.47652 11.8396 3.48797C11.8396 3.54525 11.7993 3.58534 11.7188 3.60825L11.7706 3.65979L11.7188 3.71134C11.7073 3.71134 11.6958 3.72279 11.6843 3.7457C11.6843 3.75716 11.667 3.76861 11.6325 3.78007C11.6095 3.80298 11.5922 3.82589 11.5807 3.8488C11.5692 3.87171 11.5462 3.88316 11.5117 3.88316C11.4657 3.91753 11.4254 3.95762 11.3909 4.00344C11.3563 4.0378 11.3161 4.07789 11.2701 4.12371C11.3161 4.12371 11.3333 4.14089 11.3218 4.17526C11.3218 4.19817 11.3448 4.22108 11.3909 4.24399H11.4254C11.4599 4.24399 11.4599 4.26117 11.4254 4.29553C11.4484 4.31844 11.4599 4.34135 11.4599 4.36426C11.4714 4.38717 11.4887 4.39863 11.5117 4.39863C11.5117 4.41008 11.5232 4.42726 11.5462 4.45017C11.5692 4.46163 11.5807 4.48454 11.5807 4.5189C11.5807 4.55326 11.5865 4.58763 11.598 4.62199C11.621 4.65636 11.621 4.70218 11.598 4.75945C11.5865 4.80527 11.5865 4.84536 11.598 4.87972C11.598 4.90263 11.6037 4.92554 11.6152 4.94845C11.6382 4.95991 11.667 4.99427 11.7015 5.05155C11.713 5.05155 11.7188 5.07446 11.7188 5.12027C11.7073 5.15464 11.713 5.189 11.736 5.22337C11.7706 5.25773 11.8051 5.26346 11.8396 5.24055C11.8971 5.24055 11.9374 5.25773 11.9604 5.2921C11.9834 5.31501 12.0064 5.33219 12.0294 5.34364C12.0525 5.34364 12.0812 5.34937 12.1157 5.36082H12.1503C12.1618 5.4181 12.1848 5.45246 12.2193 5.46392C12.2653 5.46392 12.3113 5.46964 12.3574 5.4811C12.3574 5.50401 12.3631 5.51546 12.3746 5.51546C12.3861 5.52692 12.4091 5.51546 12.4437 5.4811H12.4782C12.5587 5.57274 12.6565 5.59565 12.7716 5.54983H12.8751C12.9096 5.51546 12.9269 5.4811 12.9269 5.44673C12.9384 5.41237 12.9442 5.37801 12.9442 5.34364C13.0822 5.34364 13.1628 5.26919 13.1858 5.12027C13.2088 5.08591 13.2433 5.06873 13.2893 5.06873C13.3239 5.05727 13.3469 5.03436 13.3584 5C13.3699 4.95418 13.3871 4.91409 13.4102 4.87972C13.4102 4.84536 13.4159 4.80527 13.4274 4.75945C13.4389 4.71363 13.4562 4.67927 13.4792 4.65636C13.4792 4.62199 13.4849 4.59336 13.4964 4.57045C13.508 4.53608 13.5022 4.49599 13.4792 4.45017V4.41581C13.4562 4.40435 13.4504 4.38717 13.4619 4.36426C13.4734 4.3299 13.4792 4.28981 13.4792 4.24399C13.5482 4.19817 13.5827 4.15235 13.5827 4.10653C13.5942 4.01489 13.5942 3.94043 13.5827 3.88316V3.81443C13.5942 3.79152 13.6115 3.75143 13.6345 3.69416C13.6575 3.62543 13.6805 3.57388 13.7036 3.53952C13.7151 3.51661 13.7323 3.50515 13.7553 3.50515C13.7783 3.4937 13.8014 3.48224 13.8244 3.47079C13.8244 3.44788 13.8244 3.43643 13.8244 3.43643C13.8359 3.42497 13.8416 3.41352 13.8416 3.40206V3.3677C13.8416 3.35624 13.8416 3.33906 13.8416 3.31615C13.8531 3.29324 13.8761 3.28179 13.9107 3.28179C13.9337 3.28179 13.9567 3.25888 13.9797 3.21306C14.0142 3.16724 14.043 3.12142 14.066 3.0756C14.089 3.0756 14.1063 3.06987 14.1178 3.05842C14.1293 3.04696 14.1465 3.02978 14.1695 3.00687H14.1178C14.0948 2.97251 14.0775 2.93242 14.066 2.8866C14.0545 2.84078 14.02 2.79496 13.9624 2.74914V2.71478C13.9624 2.60023 13.9164 2.54295 13.8244 2.54295C13.7668 2.52005 13.7266 2.50859 13.7036 2.50859C13.692 2.49714 13.6748 2.47995 13.6518 2.45704C13.6863 2.45704 13.7036 2.45132 13.7036 2.43986V2.42268V2.4055C13.7036 2.39404 13.6978 2.38832 13.6863 2.38832C13.6748 2.37686 13.6633 2.35968 13.6518 2.33677H13.7898C13.8244 2.33677 13.8416 2.35395 13.8416 2.38832C13.8992 2.44559 13.9394 2.45704 13.9624 2.42268C14.02 2.42268 14.0545 2.43413 14.066 2.45704C14.0775 2.4685 14.0948 2.48568 14.1178 2.50859H14.135C14.158 2.50859 14.1695 2.49141 14.1695 2.45704V2.54295C14.1695 2.61168 14.1753 2.66896 14.1868 2.71478C14.1868 2.73769 14.1926 2.7606 14.2041 2.7835C14.2271 2.80641 14.2386 2.8236 14.2386 2.83505C14.2386 2.85796 14.2386 2.88087 14.2386 2.90378C14.2386 2.92669 14.2501 2.94387 14.2731 2.95533L14.3421 3.00687C14.3421 3.02978 14.3191 3.05269 14.2731 3.0756C14.2156 3.0756 14.1868 3.10424 14.1868 3.16151C14.1523 3.18442 14.1178 3.21306 14.0832 3.24742C14.0602 3.28179 14.0372 3.31615 14.0142 3.35052C13.9567 3.35052 13.9394 3.3677 13.9624 3.40206C13.9624 3.43643 13.9567 3.46506 13.9452 3.48797C13.9452 3.49943 13.9452 3.51661 13.9452 3.53952C13.9222 3.53952 13.8992 3.55097 13.8761 3.57388C13.8531 3.58534 13.8359 3.59107 13.8244 3.59107C13.8359 3.64834 13.8186 3.69416 13.7726 3.72852C13.7266 3.76289 13.6863 3.79152 13.6518 3.81443C13.7093 3.87171 13.7266 3.94616 13.7036 4.0378V4.20962V4.2268C13.7036 4.26117 13.7093 4.28408 13.7208 4.29553C13.7208 4.31844 13.7208 4.34135 13.7208 4.36426C13.7208 4.38717 13.7151 4.40435 13.7036 4.41581V4.45017V4.5189C13.7036 4.53036 13.692 4.55326 13.669 4.58763C13.646 4.62199 13.623 4.6449 13.6 4.65636V4.69072C13.6 4.70218 13.5942 4.7079 13.5827 4.7079C13.5827 4.73081 13.5885 4.748 13.6 4.75945C13.623 4.7709 13.623 4.78809 13.6 4.811C13.5885 4.82245 13.5827 4.86254 13.5827 4.93127C13.5827 4.93127 13.5885 4.95991 13.6 5.01718C13.5425 5.04009 13.5022 5.06873 13.4792 5.10309C13.4677 5.126 13.4504 5.15464 13.4274 5.189V5.2921C13.4504 5.31501 13.4562 5.33219 13.4447 5.34364C13.4332 5.3551 13.4217 5.36082 13.4102 5.36082C13.3871 5.4181 13.3699 5.45819 13.3584 5.4811C13.3584 5.49255 13.3584 5.51546 13.3584 5.54983C13.3814 5.57274 13.4102 5.60137 13.4447 5.63574C13.4792 5.65865 13.5252 5.6701 13.5827 5.6701C13.6518 5.60137 13.7208 5.61283 13.7898 5.70447C13.8129 5.72738 13.8301 5.75029 13.8416 5.7732C13.8531 5.78465 13.8876 5.77892 13.9452 5.75601C13.9567 5.77892 13.9624 5.80756 13.9624 5.84192C13.9739 5.86483 14.0085 5.87629 14.066 5.87629H14.0832C14.0832 5.87629 14.0775 5.88202 14.066 5.89347H14.1178C14.1523 5.93929 14.1753 5.93929 14.1868 5.89347V5.92783C14.1868 5.9622 14.2041 5.98511 14.2386 5.99656H14.2731C14.2731 6.05384 14.2846 6.09393 14.3076 6.11684C14.3306 6.12829 14.3479 6.16266 14.3594 6.21993H14.3421C14.3536 6.23139 14.3651 6.24284 14.3766 6.2543C14.3997 6.2543 14.4284 6.26575 14.4629 6.28866L14.3939 6.34021C14.4284 6.36312 14.4514 6.3803 14.4629 6.39175C14.486 6.39175 14.509 6.39748 14.532 6.40893C14.532 6.43184 14.5377 6.45475 14.5492 6.47766C14.5607 6.50057 14.555 6.51775 14.532 6.52921C14.555 6.58648 14.578 6.62658 14.601 6.64949C14.6355 6.66094 14.6528 6.6953 14.6528 6.75258C14.6298 6.77549 14.624 6.79267 14.6355 6.80412C14.6585 6.80412 14.6816 6.81558 14.7046 6.83849C14.7506 6.8614 14.7679 6.90149 14.7563 6.95876C14.7563 6.93585 14.7679 6.9244 14.7909 6.9244H14.8254C14.8484 6.94731 14.8599 6.97022 14.8599 6.99313C14.8714 7.00458 14.8829 7.01031 14.8944 7.01031L14.9635 7.04467C14.9865 7.10195 14.998 7.18213 14.998 7.28522V7.35395C15.044 7.35395 15.067 7.35968 15.067 7.37113C15.0785 7.37113 15.0958 7.38259 15.1188 7.4055C15.0958 7.4055 15.0843 7.41695 15.0843 7.43986V7.45704V7.54296C15.1073 7.56587 15.1188 7.58305 15.1188 7.5945C15.1303 7.5945 15.1475 7.61741 15.1706 7.66323C15.2051 7.61741 15.2338 7.60596 15.2569 7.62887C15.2914 7.65178 15.3316 7.67469 15.3777 7.69759C15.3777 7.73196 15.3834 7.74341 15.3949 7.73196C15.4064 7.70905 15.4179 7.69759 15.4294 7.69759C15.487 7.69759 15.533 7.71478 15.5675 7.74914C15.602 7.77205 15.6308 7.79496 15.6538 7.81787C15.6308 7.8866 15.6596 7.96105 15.7401 8.04124C15.7976 8.09851 15.8264 8.14433 15.8264 8.17869C15.8494 8.2016 15.8667 8.23024 15.8782 8.26461C15.9012 8.29897 15.9242 8.34479 15.9472 8.40206C15.9472 8.41352 15.9472 8.41924 15.9472 8.41924C15.9587 8.41924 15.9645 8.4307 15.9645 8.45361C15.976 8.45361 15.9932 8.46506 16.0162 8.48797C16.0162 8.49943 16.022 8.51088 16.0335 8.52234L15.999 8.53952H16.0335C16.0565 8.56243 16.068 8.59106 16.068 8.62543C16.0795 8.65979 16.1025 8.68843 16.1371 8.71134C16.1601 8.73425 16.1716 8.75716 16.1716 8.78007C16.1716 8.80298 16.1773 8.82016 16.1888 8.83162C16.1773 8.83162 16.1716 8.84307 16.1716 8.86598V8.90034V8.93471C16.1716 8.99198 16.1716 9.04353 16.1716 9.08935C16.1831 9.12371 16.2118 9.15808 16.2579 9.19244C16.2579 9.24971 16.2636 9.28408 16.2751 9.29553C16.2981 9.30699 16.3212 9.32417 16.3442 9.34708C16.3672 9.41581 16.4074 9.46163 16.465 9.48454C16.465 9.55326 16.4937 9.59336 16.5513 9.60481C16.5513 9.66209 16.5628 9.69645 16.5858 9.7079C16.6088 9.71936 16.6376 9.73654 16.6721 9.75945C16.6951 9.77091 16.7181 9.78809 16.7411 9.811C16.7756 9.83391 16.8044 9.85682 16.8274 9.87973ZM0.396954 1.13402C0.362436 1.13402 0.327919 1.14547 0.293401 1.16838C0.316413 1.14547 0.333672 1.13975 0.345178 1.1512C0.356684 1.16266 0.373942 1.15693 0.396954 1.13402ZM0.362436 1.70103C0.385448 1.70103 0.396954 1.68958 0.396954 1.66667H0.345178V1.70103H0.362436ZM0.396954 1.34021C0.327919 1.38602 0.327919 1.40893 0.396954 1.40893V1.42612V1.40893C0.396954 1.40893 0.402707 1.39748 0.414213 1.37457H0.396954V1.34021ZM0.448731 1.95876C0.471743 1.95876 0.483249 1.94158 0.483249 1.90722H0.414213L0.396954 1.95876H0.414213H0.448731ZM2.95127 4.93127C2.92826 4.874 2.911 4.84536 2.89949 4.84536C2.88799 4.84536 2.86497 4.85682 2.83046 4.87972C2.87648 4.87972 2.91675 4.89691 2.95127 4.93127ZM2.12284 4.41581C2.11134 4.41581 2.09408 4.40435 2.07107 4.38144C2.05956 4.35853 2.03655 4.36999 2.00203 4.41581C2.05956 4.43872 2.08832 4.45017 2.08832 4.45017C2.09983 4.45017 2.11134 4.43872 2.12284 4.41581ZM1.5533 3.65979C1.5533 3.69416 1.56481 3.71134 1.58782 3.71134V3.69416C1.58782 3.67125 1.57631 3.65979 1.5533 3.65979ZM1.2599 4.0378H1.31168V4.00344H1.2599V4.0378ZM0.811168 2.33677C0.811168 2.37113 0.799662 2.38832 0.77665 2.38832H0.759391L0.811168 2.42268L0.828426 2.38832H0.811168V2.33677ZM0.690355 2.5945C0.690355 2.56014 0.661591 2.54295 0.604061 2.54295C0.604061 2.57732 0.609814 2.5945 0.62132 2.5945H0.638579H0.690355ZM0.690355 2.04467C0.701861 2.04467 0.724873 2.02749 0.759391 1.99313C0.713367 1.97022 0.690355 1.97594 0.690355 2.01031C0.678849 2.02176 0.678849 2.03322 0.690355 2.04467ZM0.793909 6.27148C0.770897 6.24857 0.742132 6.23711 0.707614 6.23711C0.742132 6.27148 0.77665 6.28866 0.811168 6.28866L0.793909 6.27148ZM0.811168 2.86942C0.811168 2.91523 0.839932 2.96105 0.897462 3.00687C0.851438 2.97251 0.828426 2.91523 0.828426 2.83505L0.811168 2.86942ZM0.93198 5.6701H0.897462L0.93198 5.70447V5.6701ZM2.76142 5.36082C2.80745 5.38373 2.85347 5.38946 2.89949 5.37801C2.94552 5.36655 2.99729 5.3551 3.05482 5.34364C3.03181 5.34364 3.0203 5.33792 3.0203 5.32646V5.2921C2.98579 5.2921 2.95127 5.27491 2.91675 5.24055C2.89374 5.20619 2.87073 5.189 2.84772 5.189C2.77868 5.17755 2.73266 5.13173 2.70964 5.05155C2.59459 5.01718 2.5198 4.95991 2.48528 4.87972C2.43926 4.85682 2.40474 4.84536 2.38173 4.84536C2.35871 4.83391 2.3357 4.82245 2.31269 4.811C2.30118 4.79954 2.29543 4.77663 2.29543 4.74227V4.7079C2.26091 4.7079 2.23215 4.70218 2.20914 4.69072C2.18613 4.66781 2.15736 4.65636 2.12284 4.65636C2.12284 4.6449 2.10558 4.63917 2.07107 4.63917C2.01354 4.63917 1.97327 4.62199 1.95025 4.58763C1.92724 4.55326 1.90423 4.53608 1.88122 4.53608C1.8467 4.4559 1.79492 4.41581 1.72589 4.41581C1.65685 4.36999 1.58206 4.3299 1.50152 4.29553C1.43249 4.26117 1.3692 4.23253 1.31168 4.20962H1.2599C1.17936 4.20962 1.13909 4.18098 1.13909 4.12371C1.12758 4.11226 1.10457 4.09507 1.07005 4.07216C1.04704 4.04926 1.00677 4.02635 0.949239 4.00344V4.0378C0.937733 4.10653 0.926227 4.18099 0.914721 4.26117C0.903215 4.3299 0.897462 4.3929 0.897462 4.45017C0.920474 4.48454 0.926227 4.5189 0.914721 4.55326C0.903215 4.57617 0.908968 4.58763 0.93198 4.58763C0.943486 4.62199 0.949239 4.66208 0.949239 4.7079C0.949239 4.75372 0.949239 4.79381 0.949239 4.82818C0.949239 4.88545 0.943486 4.92554 0.93198 4.94845C0.93198 4.95991 0.93198 4.98282 0.93198 5.01718H0.828426C0.828426 5.04009 0.851438 5.05155 0.897462 5.05155C0.805415 5.17755 0.805415 5.28064 0.897462 5.36082L0.828426 5.41237C0.862944 5.43528 0.891709 5.45246 0.914721 5.46392C0.937733 5.46392 0.97225 5.46964 1.01827 5.4811C1.01827 5.56128 1.05854 5.60137 1.13909 5.60137C1.1621 5.60137 1.17936 5.61283 1.19086 5.63574C1.21387 5.65865 1.23689 5.68156 1.2599 5.70447C1.34044 5.70447 1.40948 5.69301 1.46701 5.6701C1.52453 5.61283 1.5533 5.61283 1.5533 5.6701H1.77766L1.79492 5.60137C1.84095 5.6701 1.88122 5.66438 1.91574 5.58419H1.96751C2.08257 5.58419 2.19188 5.54983 2.29543 5.4811C2.45651 5.40092 2.61184 5.36082 2.76142 5.36082ZM3.14112 5.12027C3.16413 5.12027 3.16988 5.12027 3.15838 5.12027C3.14687 5.10882 3.14112 5.09164 3.14112 5.06873H3.12386C3.12386 5.10309 3.12961 5.12027 3.14112 5.12027ZM3.24467 3.53952C3.24467 3.6197 3.28494 3.67698 3.36548 3.71134C3.36548 3.68843 3.35398 3.67125 3.33096 3.65979C3.31946 3.64834 3.31371 3.63116 3.31371 3.60825L3.36548 3.59107C3.29645 3.52234 3.25618 3.50515 3.24467 3.53952ZM3.38274 5.34364C3.40575 5.37801 3.42301 5.39519 3.43452 5.39519C3.44602 5.39519 3.48054 5.37801 3.53807 5.34364H3.38274ZM4.97056 4.17526L5.03959 4.12371H4.97056V4.17526ZM3.55533 4.53608C3.57834 4.55899 3.60135 4.56472 3.62437 4.55326C3.64738 4.54181 3.66464 4.53608 3.67614 4.53608C3.67614 4.53608 3.63587 4.53608 3.55533 4.53608ZM3.74518 4.39863C3.7797 4.29553 3.7912 4.23253 3.7797 4.20962C3.75668 4.20962 3.73942 4.21535 3.72792 4.2268C3.72792 4.23826 3.71066 4.24399 3.67614 4.24399C3.72217 4.24399 3.74518 4.29553 3.74518 4.39863ZM3.79695 5.58419L3.7797 5.54983V5.58419V5.60137L3.79695 5.58419ZM3.79695 4.41581L3.7797 4.45017L3.79695 4.5189V4.41581ZM3.7797 4.3299C3.7912 4.36426 3.81421 4.38717 3.84873 4.39863C3.88325 4.39863 3.90626 4.39863 3.91777 4.39863V4.29553C3.90626 4.29553 3.88325 4.30126 3.84873 4.31271C3.81421 4.32417 3.7912 4.3299 3.7797 4.3299ZM4.0731 5.60137C4.0846 5.60137 4.09036 5.59565 4.09036 5.58419C4.09036 5.58419 4.0846 5.57274 4.0731 5.54983C4.00406 5.54983 3.95228 5.56128 3.91777 5.58419H4.02132C4.02132 5.59565 4.03858 5.60137 4.0731 5.60137ZM3.91777 4.75945C3.95228 4.75945 3.9868 4.74227 4.02132 4.7079H3.91777V4.75945ZM4.0731 5.4811C4.10761 5.4811 4.12487 5.47537 4.12487 5.46392H4.02132C4.02132 5.47537 4.02707 5.4811 4.03858 5.4811H4.0731ZM4.14213 5.60137V5.58419C4.14213 5.59565 4.13638 5.6071 4.12487 5.61856C4.12487 5.61856 4.12487 5.63574 4.12487 5.6701H4.14213V5.60137ZM4.34924 5.87629C4.34924 5.81901 4.33773 5.80183 4.31472 5.82474L4.34924 5.87629ZM4.48731 5.54983C4.48731 5.50401 4.4643 5.4811 4.41827 5.4811C4.42978 5.51546 4.43553 5.5441 4.43553 5.56701C4.43553 5.57847 4.45279 5.58419 4.48731 5.58419V5.54983ZM5.38477 4.45017C5.41929 4.42726 5.44805 4.41581 5.47107 4.41581C5.49408 4.41581 5.52284 4.41008 5.55736 4.39863C5.52284 4.39863 5.49983 4.38717 5.48832 4.36426C5.48832 4.34135 5.47682 4.3299 5.45381 4.3299L5.48832 4.29553V4.24399H5.38477C5.37327 4.24399 5.35601 4.26117 5.33299 4.29553C5.28697 4.29553 5.26396 4.2898 5.26396 4.27835C5.25245 4.2669 5.25245 4.25544 5.26396 4.24399C5.21794 4.24399 5.17767 4.23253 5.14315 4.20962C5.13164 4.18671 5.11438 4.18098 5.09137 4.19244C5.07986 4.20389 5.06261 4.20962 5.03959 4.20962C4.98206 4.24399 4.9533 4.30699 4.9533 4.39863H4.72893C4.71743 4.39863 4.68866 4.38717 4.64264 4.36426C4.60812 4.34135 4.57936 4.31844 4.55634 4.29553C4.52183 4.29553 4.48731 4.29553 4.45279 4.29553C4.42978 4.28408 4.39526 4.2669 4.34924 4.24399C4.32623 4.22108 4.25719 4.20962 4.14213 4.20962C4.14213 4.23253 4.11912 4.24399 4.0731 4.24399C4.00406 4.24399 3.96954 4.27262 3.96954 4.3299C3.96954 4.38717 3.94653 4.41581 3.90051 4.41581C3.90051 4.43872 3.90051 4.46163 3.90051 4.48454C3.91201 4.50745 3.91777 4.52463 3.91777 4.53608C3.91777 4.55899 3.91777 4.5819 3.91777 4.60481C3.92927 4.61627 3.96379 4.61054 4.02132 4.58763H4.0731C4.10761 4.63345 4.14788 4.63345 4.19391 4.58763C4.21692 4.58763 4.25144 4.60481 4.29746 4.63917C4.29746 4.65063 4.28596 4.66208 4.26294 4.67354C4.23993 4.67354 4.22843 4.68499 4.22843 4.7079C4.23993 4.7079 4.25719 4.71936 4.2802 4.74227C4.2802 4.75372 4.28596 4.75945 4.29746 4.75945C4.32047 4.73654 4.33773 4.71363 4.34924 4.69072C4.37225 4.65636 4.41827 4.63917 4.48731 4.63917L4.43553 4.65636L4.53909 4.75945V4.74227C4.53909 4.74227 4.54484 4.73081 4.55634 4.7079V4.811C4.59086 4.77663 4.64264 4.75945 4.71167 4.75945C4.72318 4.73654 4.74619 4.73081 4.78071 4.74227C4.81523 4.75372 4.83824 4.75945 4.84975 4.75945V4.79381C4.84975 4.80527 4.84399 4.81672 4.83249 4.82818C4.87851 4.81672 4.91303 4.811 4.93604 4.811C4.95905 4.79954 4.99357 4.78236 5.03959 4.75945C4.99357 4.72509 4.96481 4.7079 4.9533 4.7079C5.06836 4.59336 5.12589 4.57617 5.12589 4.65636C5.17191 4.6449 5.21794 4.6449 5.26396 4.65636C5.26396 4.67927 5.27547 4.69645 5.29848 4.7079C5.32149 4.71936 5.33299 4.73654 5.33299 4.75945C5.35601 4.70218 5.36751 4.65636 5.36751 4.62199C5.37902 4.58763 5.40778 4.55899 5.45381 4.53608C5.40778 4.52463 5.38477 4.49599 5.38477 4.45017ZM5.60914 4.53608C5.66667 4.53608 5.68393 4.50745 5.66091 4.45017H5.57462V4.5189C5.57462 4.53036 5.56887 4.54181 5.55736 4.55326C5.55736 4.55326 5.55736 4.56472 5.55736 4.58763H5.57462C5.57462 4.55326 5.58613 4.53608 5.60914 4.53608ZM5.69543 4.29553C5.67242 4.24971 5.67242 4.2268 5.69543 4.2268C5.72995 4.21535 5.75871 4.19817 5.78173 4.17526H5.69543L5.64365 4.2268C5.63215 4.23826 5.62064 4.24399 5.60914 4.24399C5.60914 4.2669 5.61489 4.28408 5.6264 4.29553C5.64941 4.29553 5.66091 4.30699 5.66091 4.3299C5.64941 4.34135 5.6379 4.34708 5.6264 4.34708C5.61489 4.35853 5.60914 4.37572 5.60914 4.39863H5.57462H5.59188L5.60914 4.41581C5.63215 4.40435 5.65516 4.40435 5.67817 4.41581C5.70118 4.41581 5.7242 4.41008 5.74721 4.39863C5.74721 4.36426 5.75296 4.34708 5.76447 4.34708C5.77597 4.33562 5.78173 4.31844 5.78173 4.29553H5.69543ZM5.86802 4.24399C5.89103 4.2669 5.91404 4.27262 5.93706 4.26117C5.97157 4.24971 6.00034 4.23253 6.02335 4.20962L6.09239 4.24399C6.1154 4.22108 6.12115 4.20962 6.10964 4.20962C6.09814 4.20962 6.09239 4.19817 6.09239 4.17526H5.98883H5.95431C5.9313 4.17526 5.9198 4.18671 5.9198 4.20962C5.88528 4.20962 5.86802 4.22108 5.86802 4.24399ZM6.2132 4.45017C6.25922 4.42726 6.28223 4.40435 6.28223 4.38144C6.29374 4.35853 6.29949 4.30126 6.29949 4.20962C6.29949 4.23253 6.27073 4.24399 6.2132 4.24399C6.23621 4.28981 6.24772 4.31271 6.24772 4.31271V4.3299C6.19019 4.3299 6.15567 4.33562 6.14416 4.34708C6.14416 4.35853 6.14416 4.3929 6.14416 4.45017H6.09239C6.02335 4.5189 5.98883 4.54754 5.98883 4.53608H6.09239C6.1269 4.53608 6.14416 4.53036 6.14416 4.5189L6.2132 4.45017ZM12.2365 2.74914V2.71478C12.179 2.71478 12.1387 2.72623 12.1157 2.74914H12.2365ZM10.3208 2.62887C10.2978 2.64032 10.2805 2.65178 10.269 2.66323C10.2575 2.66323 10.2403 2.69187 10.2173 2.74914H10.3208V2.62887ZM10.269 2.54295H10.2173H10.269ZM10.2173 2.42268C10.1827 2.42268 10.1655 2.43413 10.1655 2.45704C10.2 2.45704 10.2173 2.45132 10.2173 2.43986V2.42268ZM10.1655 2.38832C10.154 2.35395 10.131 2.35395 10.0964 2.38832H10.1655ZM10.0447 1.82131V1.87285V1.82131ZM9.69949 0.756013C9.65347 0.801832 9.63046 0.864833 9.63046 0.945016C9.67648 0.933562 9.69949 0.910652 9.69949 0.876289V0.756013ZM9.80305 0.927834C9.78003 0.939289 9.75702 0.945016 9.73401 0.945016C9.711 0.945016 9.69374 0.945016 9.68223 0.945016C9.69374 0.979381 9.711 0.996563 9.73401 0.996563C9.75702 0.996563 9.78003 0.973653 9.80305 0.927834ZM9.47513 0.756013C9.47513 0.767468 9.48088 0.778922 9.49239 0.790377C9.5154 0.813287 9.53841 0.824742 9.56142 0.824742C9.5269 0.778923 9.49814 0.738831 9.47513 0.704466V0.756013ZM9.40609 0.945016C9.40609 0.990835 9.4291 1.0252 9.47513 1.04811C9.49814 1.0252 9.50964 1.00229 9.50964 0.979381C9.50964 0.956471 9.49814 0.945016 9.47513 0.945016H9.40609ZM8.62944 1.99313C8.56041 2.06186 8.49712 2.10195 8.43959 2.1134C8.40508 2.1134 8.38206 2.12486 8.37056 2.14777C8.37056 2.17068 8.37056 2.19358 8.37056 2.21649V2.30241C8.34755 2.32531 8.33604 2.35395 8.33604 2.38832C8.33604 2.41123 8.33604 2.43413 8.33604 2.45704H8.50863C8.52014 2.47995 8.53164 2.49714 8.54315 2.50859C8.55465 2.50859 8.56041 2.52005 8.56041 2.54295V2.5945V2.61168C8.56041 2.61168 8.56616 2.60596 8.57767 2.5945H8.85381C8.88832 2.5945 8.91709 2.60596 8.9401 2.62887C8.97462 2.64032 9.00914 2.64032 9.04365 2.62887C9.06667 2.67468 9.08968 2.69187 9.11269 2.68041C9.1357 2.6575 9.15296 2.64605 9.16447 2.64605V2.71478C9.222 2.63459 9.26227 2.63459 9.28528 2.71478C9.34281 2.71478 9.40034 2.7205 9.45787 2.73196C9.5154 2.74341 9.57293 2.73769 9.63046 2.71478C9.63046 2.73769 9.64772 2.77205 9.68223 2.81787C9.69374 2.7606 9.711 2.74914 9.73401 2.7835C9.75702 2.80641 9.78003 2.81787 9.80305 2.81787C9.81455 2.7606 9.83181 2.74341 9.85482 2.76632C9.87783 2.78923 9.90085 2.7835 9.92386 2.74914V2.81787C9.93536 2.81787 9.95262 2.80641 9.97563 2.7835C9.99865 2.7606 10.0217 2.74914 10.0447 2.74914H10.0964C10.0964 2.69187 10.0849 2.6575 10.0619 2.64605C10.0504 2.63459 10.0332 2.61741 10.0102 2.5945C9.97563 2.57159 9.95262 2.54868 9.94112 2.52577C9.94112 2.50286 9.93536 2.47995 9.92386 2.45704C9.92386 2.41123 9.91235 2.37113 9.88934 2.33677C9.88934 2.2795 9.87783 2.24513 9.85482 2.23368C9.83181 2.22222 9.8203 2.20504 9.8203 2.18213C9.8203 2.13631 9.81455 2.09622 9.80305 2.06186C9.80305 2.01604 9.79154 1.98167 9.76853 1.95876L9.69949 1.90722C9.74552 1.88431 9.78003 1.85567 9.80305 1.82131H9.69949H9.68223C9.64772 1.78694 9.60745 1.76976 9.56142 1.76976C9.56142 1.73539 9.57293 1.71821 9.59594 1.71821C9.61895 1.70676 9.63046 1.68958 9.63046 1.66667C9.58443 1.66667 9.56142 1.64376 9.56142 1.59794C9.50389 1.59794 9.47513 1.59221 9.47513 1.58076H9.35431C9.3198 1.52348 9.28528 1.49484 9.25076 1.49484C9.21624 1.48339 9.18173 1.47766 9.14721 1.47766C9.1242 1.47766 9.10694 1.48339 9.09543 1.49484C9.09543 1.49484 9.09543 1.52348 9.09543 1.58076L9.14721 1.54639C9.14721 1.5693 9.14721 1.58648 9.14721 1.59794C9.14721 1.59794 9.12995 1.59794 9.09543 1.59794H9.04365C9.00914 1.64376 8.98613 1.66667 8.97462 1.66667C8.95161 1.68958 8.93435 1.71249 8.92284 1.73539C8.92284 1.7583 8.92284 1.77549 8.92284 1.78694L8.97462 1.76976C8.97462 1.80412 8.9401 1.82131 8.87107 1.82131H8.78477C8.76176 1.84422 8.73299 1.86712 8.69848 1.89003C8.67547 1.91294 8.65245 1.94731 8.62944 1.99313ZM9.76853 2.95533V3.00687C9.76853 2.97251 9.78003 2.95533 9.80305 2.95533H9.76853ZM8.37056 1.34021C8.37056 1.35166 8.36481 1.35739 8.3533 1.35739C8.34179 1.36884 8.33029 1.37457 8.31878 1.37457L8.33604 1.39175V1.40893C8.35905 1.38602 8.38206 1.37457 8.40508 1.37457C8.42809 1.37457 8.44535 1.36312 8.45685 1.34021C8.44535 1.34021 8.43384 1.33448 8.42234 1.32302C8.42234 1.31157 8.40508 1.3173 8.37056 1.34021ZM7.49036 3.16151C7.46734 3.1386 7.44433 3.12715 7.42132 3.12715C7.40981 3.12715 7.40406 3.1386 7.40406 3.16151H7.49036ZM6.78274 4.29553V4.39863L6.74822 4.3299C6.73672 4.3299 6.73096 4.32417 6.73096 4.31271V4.29553H6.78274ZM9.16447 4.53608C9.18748 4.52463 9.21049 4.5189 9.2335 4.5189C9.25651 4.50745 9.26802 4.48454 9.26802 4.45017C9.21049 4.45017 9.17597 4.4559 9.16447 4.46735C9.16447 4.46735 9.16447 4.49026 9.16447 4.53608ZM10.8558 4.24399C10.8673 4.22108 10.8846 4.20389 10.9076 4.19244C10.9306 4.16953 10.9421 4.14089 10.9421 4.10653C10.9421 4.04926 10.9364 4.00344 10.9249 3.96907C10.9249 3.92325 10.9019 3.89462 10.8558 3.88316C10.8328 3.8488 10.8156 3.82589 10.8041 3.81443C10.7926 3.79152 10.7753 3.77434 10.7523 3.76289C10.7408 3.72852 10.735 3.69416 10.735 3.65979C10.735 3.60252 10.6832 3.54525 10.5797 3.48797C10.5682 3.47652 10.5624 3.45361 10.5624 3.41924C10.5624 3.38488 10.5509 3.36197 10.5279 3.35052C10.5624 3.35052 10.5797 3.32761 10.5797 3.28179V3.2646L10.5624 3.24742L10.5279 3.28179C10.4819 3.25888 10.4359 3.2417 10.3898 3.23024C10.3438 3.20733 10.3036 3.19588 10.269 3.19588C10.269 3.17297 10.2575 3.16151 10.2345 3.16151C10.223 3.16151 10.2173 3.15006 10.2173 3.12715C10.1367 3.12715 10.0964 3.10997 10.0964 3.0756C10.0504 3.0756 10.0217 3.08133 10.0102 3.09278C9.99865 3.10424 9.97563 3.09851 9.94112 3.0756C9.88359 3.05269 9.83756 3.03551 9.80305 3.02405C9.76853 3.0126 9.72826 3.00687 9.68223 3.00687C9.6247 3.00687 9.56717 3.00115 9.50964 2.98969C9.46362 2.96678 9.41184 2.95533 9.35431 2.95533C9.3198 2.95533 9.29103 2.95533 9.26802 2.95533C9.25651 2.94387 9.23926 2.94387 9.21624 2.95533H9.16447C9.15296 2.90951 9.1357 2.89232 9.11269 2.90378C9.08968 2.91523 9.04941 2.90378 8.99188 2.86942H8.85381C8.81929 2.86942 8.79052 2.86369 8.76751 2.85223C8.75601 2.84078 8.7445 2.83505 8.73299 2.83505C8.67546 2.86942 8.62369 2.86942 8.57767 2.83505H8.56041C8.5489 2.84651 8.53739 2.85223 8.52589 2.85223H8.50863V2.83505C8.48562 2.78923 8.46261 2.7606 8.43959 2.74914C8.42809 2.72623 8.39357 2.71478 8.33604 2.71478C8.32453 2.71478 8.31878 2.70332 8.31878 2.68041V2.64605H8.23249C8.22098 2.64605 8.21523 2.64032 8.21523 2.62887C8.1577 2.62887 8.12893 2.61741 8.12893 2.5945C8.10592 2.61741 8.08291 2.63459 8.0599 2.64605C8.04839 2.6575 8.04264 2.68041 8.04264 2.71478C8.01963 2.71478 8.00237 2.70905 7.99086 2.69759C7.97936 2.67468 7.9621 2.69187 7.93909 2.74914C7.93909 2.72623 7.93333 2.70332 7.92183 2.68041C7.92183 2.6575 7.92183 2.64032 7.92183 2.62887V2.64605C7.89882 2.68041 7.88156 2.70905 7.87005 2.73196C7.85854 2.75487 7.83553 2.7835 7.80102 2.81787C7.78951 2.82932 7.778 2.83505 7.7665 2.83505C7.75499 2.84651 7.74924 2.85796 7.74924 2.86942C7.71472 2.91523 7.6802 2.96105 7.64569 3.00687C7.62267 3.04124 7.59966 3.08133 7.57665 3.12715H7.55939C7.52487 3.15006 7.51912 3.16724 7.54213 3.17869C7.56514 3.17869 7.57665 3.2016 7.57665 3.24742H7.49036C7.46734 3.27033 7.45008 3.28179 7.43858 3.28179H7.40406C7.39256 3.28179 7.3753 3.29324 7.35228 3.31615C7.32927 3.33906 7.30626 3.35052 7.28325 3.35052C7.26024 3.40779 7.21421 3.47079 7.14518 3.53952C7.07614 3.59679 7.04162 3.67125 7.04162 3.76289C7.04162 3.79725 7.02437 3.83734 6.98985 3.88316C6.95533 3.88316 6.91506 3.90607 6.86904 3.95189C6.81151 3.95189 6.78274 3.98053 6.78274 4.0378L6.74822 4.10653C6.73672 4.11798 6.73096 4.11798 6.73096 4.10653C6.74247 4.11798 6.77699 4.11798 6.83452 4.10653V4.17526C6.88054 4.19817 6.90931 4.2268 6.92081 4.26117C6.94382 4.28408 6.96684 4.29553 6.98985 4.29553C7.07039 4.31844 7.11641 4.34708 7.12792 4.38144C7.15093 4.41581 7.17394 4.46163 7.19695 4.5189C7.24298 4.53036 7.289 4.53608 7.33503 4.53608C7.39255 4.55899 7.45008 4.57617 7.50761 4.58763C7.56514 4.58763 7.62267 4.58763 7.6802 4.58763C7.69171 4.58763 7.69746 4.5819 7.69746 4.57045C7.70897 4.54754 7.72623 4.53608 7.74924 4.53608L7.80102 4.5189C7.81252 4.5189 7.83553 4.52463 7.87005 4.53608V4.45017C7.92758 4.54181 7.96785 4.58763 7.99086 4.58763C8.01387 4.56472 8.03113 4.55899 8.04264 4.57045C8.05415 4.5819 8.0714 4.58763 8.09442 4.58763C8.12893 4.55326 8.14619 4.53608 8.14619 4.53608H8.16345C8.267 4.53608 8.32453 4.53036 8.33604 4.5189C8.39357 4.5189 8.42809 4.5189 8.43959 4.5189C8.46261 4.50745 8.50288 4.48454 8.56041 4.45017C8.56041 4.42726 8.56616 4.41581 8.57767 4.41581C8.60068 4.41581 8.62944 4.42153 8.66396 4.43299C8.70998 4.44444 8.73875 4.45017 8.75025 4.45017L8.78477 4.5189C8.8423 4.46163 8.87107 4.43872 8.87107 4.45017C8.9286 4.45017 8.97462 4.44444 9.00914 4.43299C9.04365 4.42153 9.08968 4.41581 9.14721 4.41581H9.50964V4.39863C9.52115 4.41008 9.53266 4.41581 9.54416 4.41581H9.57868C9.63621 4.46163 9.67648 4.46163 9.69949 4.41581H9.80305C9.81455 4.40435 9.83756 4.39863 9.87208 4.39863C9.9066 4.38717 9.92961 4.36426 9.94112 4.3299C10.0102 4.3299 10.0619 4.35281 10.0964 4.39863C10.108 4.37572 10.1137 4.36426 10.1137 4.36426C10.1252 4.36426 10.1367 4.35853 10.1482 4.34708C10.1597 4.34708 10.1655 4.34135 10.1655 4.3299C10.2345 4.3299 10.2863 4.31844 10.3208 4.29553C10.3208 4.31844 10.3438 4.3299 10.3898 4.3299C10.3898 4.30699 10.3956 4.29553 10.4071 4.29553C10.4301 4.29553 10.4474 4.30699 10.4589 4.3299C10.5164 4.3299 10.5797 4.3299 10.6487 4.3299C10.7293 4.31844 10.7983 4.28981 10.8558 4.24399ZM10.9766 3.0756C11.0112 3.0756 11.0514 3.05269 11.0975 3.00687C11.132 3.00687 11.1492 3.00115 11.1492 2.98969C11.1607 2.96678 11.1723 2.95533 11.1838 2.95533C11.2528 2.8866 11.3333 2.84078 11.4254 2.81787V2.74914C11.4484 2.69187 11.4714 2.6575 11.4944 2.64605C11.5174 2.63459 11.5519 2.61741 11.598 2.5945C11.713 2.5945 11.7936 2.57732 11.8396 2.54295H11.9259V2.5945C11.9489 2.54868 11.9662 2.51432 11.9777 2.49141C12.0007 2.4685 12.0237 2.44559 12.0467 2.42268H12.1157C12.1387 2.39977 12.1503 2.38832 12.1503 2.38832H12.1675C12.202 2.36541 12.2365 2.35968 12.2711 2.37113C12.3171 2.37113 12.3459 2.35968 12.3574 2.33677C12.3804 2.2795 12.4091 2.24513 12.4437 2.23368C12.4782 2.21077 12.5184 2.17068 12.5645 2.1134C12.5875 2.10195 12.599 2.09049 12.599 2.07904C12.599 2.05613 12.5875 2.04467 12.5645 2.04467C12.5299 1.97594 12.4897 1.90149 12.4437 1.82131C12.3976 1.7984 12.3631 1.77549 12.3401 1.75258C12.3286 1.71821 12.2941 1.68958 12.2365 1.66667L12.1503 1.58076C12.1503 1.53494 12.1157 1.47766 12.0467 1.40893C12.0237 1.40893 12.0064 1.40321 11.9949 1.39175C11.9719 1.3803 11.9489 1.36312 11.9259 1.34021C11.8799 1.34021 11.8511 1.32302 11.8396 1.28866C11.8396 1.2543 11.8338 1.21993 11.8223 1.18557H11.7188C11.7073 1.18557 11.7015 1.17984 11.7015 1.16838V1.13402C11.667 1.15693 11.6325 1.19129 11.598 1.23711C11.575 1.28293 11.5462 1.3173 11.5117 1.34021V1.37457C11.5117 1.48912 11.4714 1.54639 11.3909 1.54639C11.3679 1.54639 11.3448 1.55212 11.3218 1.56357C11.3103 1.57503 11.2931 1.58648 11.2701 1.59794C11.247 1.59794 11.224 1.62085 11.201 1.66667C11.1895 1.70103 11.178 1.73539 11.1665 1.76976C11.1665 1.78121 11.155 1.78694 11.132 1.78694C11.109 1.78694 11.086 1.7984 11.0629 1.82131C11.086 1.82131 11.0975 1.83276 11.0975 1.85567V1.87285C11.086 1.88431 11.0745 1.89576 11.0629 1.90722C11.0514 1.90722 11.0399 1.91294 11.0284 1.9244L10.9939 1.95876C10.9939 1.98167 10.9882 1.99313 10.9766 1.99313C10.9536 2.01604 10.9364 2.04467 10.9249 2.07904C10.9249 2.10195 10.9076 2.13631 10.8731 2.18213C10.8271 2.18213 10.7868 2.19931 10.7523 2.23368C10.7293 2.21077 10.6948 2.21077 10.6487 2.23368V2.30241C10.5912 2.32531 10.5682 2.36541 10.5797 2.42268V2.45704C10.5682 2.50286 10.5912 2.54868 10.6487 2.5945C10.6487 2.61741 10.6372 2.62887 10.6142 2.62887C10.5912 2.62887 10.5797 2.63459 10.5797 2.64605C10.5567 2.7606 10.5797 2.8236 10.6487 2.83505C10.6717 2.85796 10.689 2.88087 10.7005 2.90378C10.7235 2.92669 10.7408 2.94387 10.7523 2.95533V3.04124C10.7523 3.01833 10.7695 3.00687 10.8041 3.00687V3.0756C10.8271 3.05269 10.8386 3.05842 10.8386 3.09278C10.8501 3.11569 10.8616 3.12715 10.8731 3.12715H10.9421C10.9536 3.12715 10.9651 3.13287 10.9766 3.14433V3.16151V3.12715V3.0756ZM11.1665 3.59107C11.1665 3.62543 11.1665 3.64834 11.1665 3.65979C11.178 3.67125 11.1953 3.68843 11.2183 3.71134L11.2701 3.76289C11.3046 3.70561 11.3448 3.70561 11.3909 3.76289C11.4139 3.76289 11.4369 3.76289 11.4599 3.76289C11.4944 3.75143 11.5117 3.73425 11.5117 3.71134C11.5462 3.68843 11.575 3.65979 11.598 3.62543C11.6325 3.59107 11.667 3.56243 11.7015 3.53952V3.48797H11.7188C11.7188 3.44215 11.7303 3.40779 11.7533 3.38488C11.7763 3.35052 11.7993 3.31615 11.8223 3.28179C11.8223 3.25888 11.8223 3.2417 11.8223 3.23024C11.8338 3.20733 11.8396 3.18442 11.8396 3.16151V3.0756C11.8281 3.05269 11.8223 3.02978 11.8223 3.00687C11.8223 2.97251 11.8223 2.9496 11.8223 2.93814C11.7878 2.93814 11.7706 2.94387 11.7706 2.95533H11.7015V3.0756H11.5807C11.5462 3.0756 11.5117 3.08133 11.4772 3.09278C11.4426 3.09278 11.4139 3.10424 11.3909 3.12715L11.3563 3.16151C11.3333 3.18442 11.3046 3.20733 11.2701 3.23024C11.2355 3.25315 11.2068 3.29324 11.1838 3.35052C11.1838 3.35052 11.178 3.35624 11.1665 3.3677C11.132 3.3677 11.1147 3.37342 11.1147 3.38488C11.1147 3.38488 11.132 3.41352 11.1665 3.47079H11.0629C11.1205 3.48224 11.1492 3.49943 11.1492 3.52234C11.1607 3.54525 11.1665 3.56816 11.1665 3.59107ZM11.2701 3.76289H11.2183V3.78007L11.2701 3.76289ZM11.4254 5.189C11.4599 5.189 11.4772 5.18328 11.4772 5.17182L11.4254 5.189ZM11.3563 4.53608H11.3046H11.3563C11.3563 4.54754 11.3621 4.55326 11.3736 4.55326L11.3909 4.53608L11.3563 4.5189V4.53608ZM11.3046 5.89347V5.99656V5.89347ZM11.4772 5.34364C11.4772 5.27491 11.4484 5.24055 11.3909 5.24055C11.3679 5.26346 11.3506 5.28637 11.3391 5.30928C11.3391 5.33219 11.3276 5.34937 11.3046 5.36082C11.3046 5.4181 11.2988 5.45819 11.2873 5.4811C11.2758 5.49255 11.2701 5.51546 11.2701 5.54983C11.2355 5.57274 11.2183 5.61283 11.2183 5.6701C11.2183 5.69301 11.2125 5.70447 11.201 5.70447C11.1895 5.70447 11.1953 5.70447 11.2183 5.70447C11.2413 5.75029 11.247 5.78465 11.2355 5.80756C11.224 5.83047 11.2183 5.85338 11.2183 5.87629C11.2298 5.88774 11.2528 5.89347 11.2873 5.89347H11.3046C11.3276 5.88202 11.3391 5.87056 11.3391 5.85911C11.3506 5.8362 11.3679 5.82474 11.3909 5.82474H11.4254C11.4024 5.80183 11.3794 5.79038 11.3563 5.79038C11.3909 5.76747 11.4024 5.73883 11.3909 5.70447C11.3794 5.6701 11.3909 5.63574 11.4254 5.60137C11.3909 5.5441 11.4081 5.4811 11.4772 5.41237V5.34364ZM11.598 5.60137V5.58419C11.5865 5.58419 11.575 5.58992 11.5635 5.60137C11.5635 5.60137 11.5462 5.60137 11.5117 5.60137H11.5807H11.598ZM11.5807 5.17182C11.5922 5.18328 11.6095 5.189 11.6325 5.189C11.6095 5.189 11.5922 5.18328 11.5807 5.17182ZM11.8223 5.99656L11.7706 5.9622V5.99656H11.7878C11.8108 5.99656 11.8223 6.01375 11.8223 6.04811V5.99656ZM11.8396 5.46392V5.44673C11.8396 5.43528 11.8338 5.42383 11.8223 5.41237V5.46392H11.8396ZM11.8914 5.4811C11.9144 5.46964 11.9259 5.45819 11.9259 5.44673C11.9259 5.42383 11.9144 5.41237 11.8914 5.41237V5.4811ZM11.9259 5.75601C11.9604 5.80183 12.0007 5.80183 12.0467 5.75601C12.0237 5.75601 12.0064 5.75029 11.9949 5.73883C11.9949 5.71592 11.9834 5.70447 11.9604 5.70447L11.9259 5.75601ZM12.1675 6.64949C12.2135 6.63803 12.2135 6.62085 12.1675 6.59794V6.6323V6.64949ZM12.3401 5.82474C12.3401 5.87056 12.3574 5.89347 12.3919 5.89347C12.3689 5.88202 12.3516 5.85911 12.3401 5.82474ZM12.8061 6.09966V6.04811C12.7831 6.04811 12.7716 6.06529 12.7716 6.09966H12.8061ZM12.8061 5.70447C12.7831 5.70447 12.7716 5.69874 12.7716 5.68729C12.7716 5.67583 12.7658 5.6701 12.7543 5.6701C12.7543 5.69301 12.7543 5.71019 12.7543 5.72165C12.7658 5.72165 12.7716 5.7331 12.7716 5.75601L12.8061 5.70447ZM13.1685 6.04811C13.18 6.01375 13.1858 5.98511 13.1858 5.9622C13.1743 5.98511 13.1455 5.99656 13.0995 5.99656L13.1685 6.04811ZM13.1858 5.70447C13.2088 5.70447 13.2203 5.69874 13.2203 5.68729C13.2318 5.67583 13.2548 5.6701 13.2893 5.6701C13.2318 5.63574 13.1973 5.63001 13.1858 5.65292C13.1858 5.66438 13.1858 5.68156 13.1858 5.70447ZM13.4792 6.04811C13.5137 6.08247 13.5482 6.09966 13.5827 6.09966C13.5482 6.09966 13.531 6.09393 13.531 6.08247V6.04811H13.4792ZM13.7898 5.87629H13.7208V5.82474H13.7036V5.87629H13.7208H13.7898ZM14.1695 6.23711H14.1178V6.27148C14.1178 6.28293 14.135 6.28866 14.1695 6.28866V6.23711ZM14.2386 6.40893C14.2731 6.38602 14.2731 6.34593 14.2386 6.28866H14.1868V6.34021C14.1868 6.37457 14.2041 6.39748 14.2386 6.40893ZM14.3594 6.51203C14.3594 6.52348 14.3709 6.55212 14.3939 6.59794C14.3709 6.55212 14.3594 6.52348 14.3594 6.51203ZM14.532 6.83849C14.532 6.81558 14.5377 6.80412 14.5492 6.80412H14.5838H14.532V6.83849ZM14.601 6.9244C14.6355 6.9244 14.6528 6.89576 14.6528 6.83849C14.5953 6.83849 14.578 6.86712 14.601 6.9244ZM15.2914 7.78351C15.2914 7.77205 15.2741 7.76632 15.2396 7.76632V7.78351H15.2914ZM15.3086 7.81787V7.78351C15.3086 7.79496 15.3029 7.80641 15.2914 7.81787H15.3086ZM15.4294 7.90378C15.464 7.90378 15.4812 7.90378 15.4812 7.90378C15.4927 7.89233 15.51 7.8866 15.533 7.8866C15.51 7.84078 15.4755 7.81787 15.4294 7.81787L15.4122 7.8866L15.4294 7.90378ZM15.533 8.00687C15.533 8.06415 15.5618 8.09278 15.6193 8.09278C15.6078 8.05842 15.579 8.02978 15.533 8.00687ZM11.5117 0.24055V0.223367V0.0343638C11.5577 0.0343638 11.5807 0.0229092 11.5807 0C11.5807 0.0572737 11.5865 0.103092 11.598 0.137456C11.6095 0.171821 11.644 0.200458 11.7015 0.223367C11.644 0.234822 11.6095 0.246277 11.598 0.257732C11.5865 0.257732 11.5865 0.286369 11.598 0.343642V0.412371C11.5865 0.412371 11.575 0.412371 11.5635 0.412371C11.5635 0.400916 11.5577 0.395189 11.5462 0.395189H11.5117V0.24055ZM13.5827 2.23368C13.5942 2.23368 13.6173 2.25659 13.6518 2.30241V2.33677C13.6403 2.33677 13.6288 2.33104 13.6173 2.31959C13.6058 2.31959 13.5942 2.31386 13.5827 2.30241C13.5827 2.31386 13.5827 2.32531 13.5827 2.33677C13.5942 2.33677 13.6 2.3425 13.6 2.35395V2.38832C13.6 2.41123 13.6058 2.42268 13.6173 2.42268C13.6403 2.42268 13.6518 2.43413 13.6518 2.45704C13.6288 2.43413 13.6 2.41695 13.5655 2.4055C13.531 2.38259 13.5022 2.34822 13.4792 2.30241C13.5022 2.30241 13.5195 2.29095 13.531 2.26804C13.5425 2.24513 13.5597 2.23368 13.5827 2.23368ZM12.9959 6.51203C13.042 6.51203 13.0765 6.51775 13.0995 6.52921C13.042 6.52921 13.0074 6.52348 12.9959 6.51203ZM0.535025 1.04811C0.523519 1.0252 0.512014 1.01374 0.500508 1.01374C0.489002 1.00229 0.483249 0.979381 0.483249 0.945016H0.535025V1.04811ZM0.604061 1.70103C0.604061 1.74685 0.592555 1.76976 0.569543 1.76976C0.558037 1.78121 0.546531 1.78121 0.535025 1.76976V1.70103C0.546531 1.68958 0.558037 1.68385 0.569543 1.68385C0.592555 1.68385 0.604061 1.68958 0.604061 1.70103ZM0.517766 1.70103H0.535025H0.517766ZM3.43452 3.53952C3.43452 3.58534 3.42301 3.60825 3.4 3.60825C3.38849 3.6197 3.38274 3.6197 3.38274 3.60825C3.38274 3.59679 3.38849 3.59107 3.4 3.59107C3.42301 3.57961 3.43452 3.56243 3.43452 3.53952ZM3.26193 3.3677H3.24467C3.25618 3.3677 3.26193 3.3677 3.26193 3.3677C3.27344 3.35624 3.29069 3.35052 3.31371 3.35052V3.3677H3.26193ZM0.897462 1.59794C0.851438 1.59794 0.828426 1.62085 0.828426 1.66667V1.59794V1.58076C0.816921 1.59221 0.816921 1.59794 0.828426 1.59794H0.897462Z" fill="black"/>
</svg>
