<svg width="12" height="28" viewBox="0 0 12 28" fill="none" xmlns="http://www.w3.org/2000/svg">
<path d="M11.9482 27.9488C11.9827 27.9488 12 27.9601 12 27.9829V28C11.9424 28 11.8964 27.9886 11.8619 27.9658C11.8273 27.9431 11.7871 27.9089 11.741 27.8633C11.7065 27.8292 11.6892 27.7722 11.6892 27.6925L11.5856 27.59C11.5741 27.5444 11.5568 27.4989 11.5338 27.4533C11.5108 27.4192 11.4878 27.3736 11.4647 27.3167C11.4417 27.3167 11.4302 27.3053 11.4302 27.2825V27.2483C11.4647 27.2028 11.4647 27.1572 11.4302 27.1117V27.0092C11.3727 27.0092 11.3381 26.9921 11.3266 26.9579C11.3266 26.9351 11.3151 26.9123 11.2921 26.8896C11.2921 26.8326 11.3036 26.8042 11.3266 26.8042C11.3496 26.7814 11.3612 26.7472 11.3612 26.7016C11.3727 26.6675 11.3784 26.639 11.3784 26.6162C11.3554 26.5935 11.3324 26.5707 11.3094 26.5479C11.2863 26.5365 11.2633 26.5194 11.2403 26.4966C11.2748 26.4625 11.2921 26.434 11.2921 26.4112C11.2921 26.3998 11.2748 26.3771 11.2403 26.3429C11.1827 26.3429 11.1827 26.3144 11.2403 26.2575C11.2403 26.2005 11.223 26.1721 11.1885 26.1721V26.0696C11.1885 26.0696 11.1827 26.0639 11.1712 26.0525C11.1367 26.0525 11.1194 26.024 11.1194 25.9671C11.1194 25.9329 11.1079 25.9158 11.0849 25.9158H11.0676H11.0158V25.9671C10.9928 25.9671 10.9755 25.9557 10.964 25.9329C10.964 25.9215 10.9525 25.9158 10.9295 25.9158V25.8475C10.895 25.893 10.8777 25.9443 10.8777 26.0012C10.8432 26.0012 10.8259 25.9898 10.8259 25.9671C10.8259 25.8987 10.8144 25.8646 10.7914 25.8646C10.7683 25.8646 10.7511 25.8702 10.7396 25.8816C10.7281 25.893 10.705 25.8873 10.6705 25.8646V25.9158C10.682 25.9158 10.6878 25.9215 10.6878 25.9329C10.6993 25.9557 10.7165 25.9784 10.7396 26.0012C10.705 26.0012 10.6878 26.0183 10.6878 26.0525V26.0696C10.6878 26.0923 10.705 26.1094 10.7396 26.1208C10.7741 26.1208 10.7914 26.1322 10.7914 26.155V26.1721V26.2575L10.7568 26.2233C10.7453 26.2119 10.7396 26.1948 10.7396 26.1721H10.6878C10.6878 26.1948 10.6935 26.2233 10.705 26.2575C10.7281 26.2916 10.7396 26.3201 10.7396 26.3429C10.7396 26.3657 10.7396 26.3828 10.7396 26.3941C10.7511 26.4169 10.7683 26.4511 10.7914 26.4966H10.7396C10.7165 26.5194 10.705 26.5308 10.705 26.5308C10.7165 26.5422 10.7108 26.5479 10.6878 26.5479C10.6878 26.5593 10.682 26.5593 10.6705 26.5479H10.6187C10.6417 26.5251 10.6417 26.5023 10.6187 26.4796C10.6072 26.4568 10.5899 26.4454 10.5669 26.4454C10.5439 26.4454 10.5266 26.4397 10.5151 26.4283C10.5151 26.4169 10.5036 26.4112 10.4806 26.4112C10.446 26.3998 10.4058 26.3884 10.3597 26.3771C10.3252 26.3657 10.2906 26.3714 10.2561 26.3941C10.2101 26.3941 10.1813 26.3771 10.1698 26.3429C10.1698 26.3429 10.1755 26.3372 10.1871 26.3258V26.3087C10.1871 26.2859 10.1813 26.2803 10.1698 26.2916C10.1698 26.3144 10.1698 26.303 10.1698 26.2575C10.1698 26.2233 10.1986 26.2062 10.2561 26.2062V26.0696V26.0525H10.2734C10.2964 26.0525 10.3079 26.0354 10.3079 26.0012C10.3079 25.9784 10.3022 25.9671 10.2906 25.9671C10.2791 25.9671 10.2446 25.9671 10.1871 25.9671C10.141 25.9329 10.0892 25.9443 10.0317 26.0012C9.99712 26.0468 9.9741 26.0468 9.96259 26.0012V25.9671C9.96259 25.9215 9.92806 25.8646 9.85899 25.7962C9.83597 25.7962 9.82446 25.819 9.82446 25.8646V25.8987C9.82446 25.9101 9.83597 25.9158 9.85899 25.9158V26.0012H9.77266C9.77266 25.9784 9.76691 25.9557 9.7554 25.9329C9.7554 25.9101 9.7554 25.8873 9.7554 25.8646V25.7962C9.73237 25.7621 9.73813 25.7279 9.77266 25.6937C9.76115 25.6709 9.74964 25.6482 9.73813 25.6254C9.72662 25.6026 9.73237 25.5798 9.7554 25.557C9.76691 25.557 9.77266 25.54 9.77266 25.5058C9.78417 25.483 9.81295 25.4716 9.85899 25.4716C9.83597 25.4716 9.82446 25.4375 9.82446 25.3691H9.85899C9.89353 25.3691 9.91079 25.3634 9.91079 25.352V25.2495H9.96259C9.9741 25.2268 9.96835 25.204 9.94532 25.1812C9.93381 25.1584 9.93957 25.1357 9.96259 25.1129H10.0317V25.0104C10.0547 25.0104 10.0835 25.0275 10.118 25.0616V25.0104H10.3252C10.3252 24.9534 10.3252 24.925 10.3252 24.925V24.8737V24.7541C10.3252 24.6972 10.3022 24.6687 10.2561 24.6687C10.2446 24.6801 10.2388 24.6915 10.2388 24.7029C10.2273 24.7143 10.2101 24.72 10.1871 24.72C10.1755 24.72 10.164 24.7029 10.1525 24.6687C10.1525 24.6345 10.1237 24.6175 10.0662 24.6175C10.0662 24.6744 10.0374 24.6744 9.97986 24.6175H9.96259L9.91079 24.6004C9.91079 24.5776 9.91655 24.5605 9.92806 24.5491C9.93957 24.5491 9.93381 24.5377 9.91079 24.5149H9.87626H9.85899V24.5491H9.82446C9.78993 24.5833 9.76691 24.5833 9.7554 24.5491V24.5149C9.78993 24.5036 9.80144 24.4751 9.78993 24.4295C9.77842 24.384 9.77266 24.3441 9.77266 24.3099C9.77266 24.2416 9.73813 24.2416 9.66907 24.3099C9.64604 24.3099 9.62878 24.3156 9.61727 24.327C9.61727 24.3498 9.60576 24.3669 9.58273 24.3783H9.47914L9.46187 24.3612L9.41007 24.3099C9.41007 24.2758 9.41583 24.2587 9.42734 24.2587H9.46187H9.47914C9.47914 24.2359 9.47338 24.2245 9.46187 24.2245C9.42734 24.1904 9.39281 24.1733 9.35827 24.1733C9.39281 24.1391 9.41583 24.122 9.42734 24.122H9.46187H9.53094C9.50791 24.0879 9.47914 24.0537 9.4446 24.0195C9.41007 23.9967 9.3813 23.9626 9.35827 23.917V23.9512C9.35827 23.9626 9.34676 23.9683 9.32374 23.9683H9.27194V23.917C9.23741 23.8829 9.23741 23.8487 9.27194 23.8145H9.22014C9.20863 23.7917 9.19137 23.7576 9.16835 23.712C9.15684 23.6779 9.15108 23.6494 9.15108 23.6266V23.6095C9.11655 23.5526 9.11655 23.507 9.15108 23.4729C9.12806 23.4501 9.0705 23.4159 8.97842 23.3703V23.4216C8.96691 23.3988 8.96115 23.376 8.96115 23.3533C8.97266 23.3419 8.97842 23.3248 8.97842 23.302H9.11655C9.11655 23.2678 9.11079 23.2508 9.09928 23.2508C9.04173 23.2508 9.00719 23.2451 8.99568 23.2337C8.98417 23.2223 8.97266 23.1881 8.96115 23.1312C8.96115 23.1653 8.94964 23.1824 8.92662 23.1824H8.90935H8.87482C8.86331 23.1824 8.85755 23.1653 8.85755 23.1312V23.1141C8.96115 23.0571 8.96115 22.9774 8.85755 22.8749C8.8 22.8749 8.77122 22.8521 8.77122 22.8066C8.77122 22.7724 8.75396 22.7553 8.71942 22.7553C8.70791 22.7326 8.66763 22.687 8.59856 22.6187C8.59856 22.5959 8.59281 22.5788 8.5813 22.5674C8.56978 22.556 8.56403 22.5389 8.56403 22.5162C8.54101 22.5162 8.52374 22.5105 8.51223 22.4991C8.50072 22.4877 8.48345 22.482 8.46043 22.482C8.43741 22.482 8.42014 22.4991 8.40863 22.5333C8.40863 22.5674 8.40863 22.5959 8.40863 22.6187C8.35108 22.5845 8.3223 22.5674 8.3223 22.5674C8.3223 22.5446 8.32806 22.5389 8.33957 22.5503C8.36259 22.5617 8.38561 22.5674 8.40863 22.5674L8.35684 22.5162V22.3624C8.35684 22.3738 8.34532 22.3795 8.3223 22.3795H8.30504L8.3223 22.3624C8.4259 22.3055 8.45468 22.2428 8.40863 22.1745C8.40863 22.1517 8.39712 22.1289 8.3741 22.1062C8.36259 22.0948 8.35684 22.0663 8.35684 22.0207C8.33381 21.9866 8.3223 21.9353 8.3223 21.867H8.2705C8.24748 21.867 8.23022 21.8499 8.21871 21.8157C8.21871 21.793 8.21295 21.7816 8.20144 21.7816V21.662H8.14964C8.12662 21.6392 8.12662 21.6221 8.14964 21.6107C8.18417 21.5993 8.20144 21.5823 8.20144 21.5595L8.14964 21.5253C8.1036 21.5253 8.07482 21.5196 8.06331 21.5082C8.06331 21.5082 8.07482 21.4798 8.09784 21.4228H8.08058C8.06907 21.4228 8.06331 21.4114 8.06331 21.3887V21.3203H8.02878C8.00576 21.3203 7.98273 21.3089 7.95971 21.2862H7.94245V21.2349H7.83885V21.1666V21.0641C7.79281 21.0413 7.76978 21.0242 7.76978 21.0128C7.75827 21.0014 7.75827 20.99 7.76978 20.9786C7.80432 20.9445 7.82734 20.9217 7.83885 20.9103C7.85036 20.9103 7.88489 20.916 7.94245 20.9274C7.95396 20.9274 7.95396 20.9217 7.94245 20.9103C7.90791 20.8761 7.89065 20.8363 7.89065 20.7907C7.89065 20.7793 7.87914 20.7623 7.85612 20.7395C7.8446 20.7281 7.83885 20.711 7.83885 20.6882V20.6199C7.83885 20.5743 7.81583 20.5288 7.76978 20.4832C7.73525 20.4491 7.71223 20.4263 7.70072 20.4149L7.59712 20.3124H7.45899V20.3636H7.44173C7.40719 20.3636 7.38993 20.375 7.38993 20.3978V20.4149C7.33237 20.4377 7.3036 20.4775 7.3036 20.5345V20.5686V20.6711V20.7224C7.3036 20.7338 7.30935 20.7452 7.32086 20.7566C7.33238 20.7679 7.3554 20.7736 7.38993 20.7736L7.33813 20.7907C7.31511 20.8363 7.31511 20.8761 7.33813 20.9103H7.38993H7.3554C7.34389 20.9103 7.33813 20.916 7.33813 20.9274L7.38993 20.9786C7.42446 21.0128 7.44748 21.0299 7.45899 21.0299C7.45899 21.0413 7.45324 21.0527 7.44173 21.0641H7.38993C7.34389 21.0413 7.32086 21.0299 7.32086 21.0299H7.3036C7.29209 21.0413 7.28058 21.047 7.26907 21.047H7.2518V21.0299C7.24029 21.0299 7.23453 21.0185 7.23453 20.9957V20.9786H7.2518C7.2518 20.9559 7.24604 20.9388 7.23453 20.9274C7.22302 20.9274 7.22878 20.9274 7.2518 20.9274V20.9103V20.7736C7.21727 20.7395 7.2 20.711 7.2 20.6882V20.6711C7.17698 20.6484 7.17122 20.6256 7.18273 20.6028C7.19425 20.58 7.2 20.5573 7.2 20.5345V20.432C7.2 20.4206 7.18849 20.4035 7.16547 20.3807C7.15396 20.3579 7.1482 20.3352 7.1482 20.3124C7.11367 20.3124 7.0964 20.3067 7.0964 20.2953V20.2782C7.06187 20.2213 7.01583 20.1757 6.95827 20.1416V20.0903C6.94676 20.0561 6.90648 20.0049 6.83741 19.9365H6.80288C6.77986 19.9365 6.74532 19.9138 6.69928 19.8682C6.68777 19.8682 6.67626 19.8796 6.66475 19.9024C6.66475 19.9252 6.65324 19.9309 6.63022 19.9195V19.8682H6.59568C6.57266 19.8682 6.56115 19.8511 6.56115 19.817L6.63022 19.7828L6.56115 19.7315C6.6072 19.6974 6.64748 19.6803 6.68202 19.6803C6.68202 19.6689 6.67626 19.6518 6.66475 19.629C6.65324 19.6063 6.66475 19.5949 6.69928 19.5949L6.68202 19.5436C6.65899 19.5322 6.64173 19.5152 6.63022 19.4924C6.61871 19.481 6.59568 19.4753 6.56115 19.4753H6.54389V19.424L6.50935 19.3728C6.50935 19.3386 6.52086 19.3101 6.54389 19.2874C6.52086 19.2874 6.50935 19.2532 6.50935 19.1849C6.50935 19.1393 6.49209 19.1165 6.45755 19.1165C6.44604 19.1165 6.44029 19.1108 6.44029 19.0995V19.0653C6.4518 19.0197 6.44604 18.9913 6.42302 18.9799C6.4 18.9685 6.38849 18.9514 6.38849 18.9286V18.8944C6.38849 18.8603 6.37122 18.8432 6.33669 18.8432C6.31367 18.8432 6.29065 18.8318 6.26763 18.809C6.24461 18.7976 6.22158 18.7863 6.19856 18.7749V18.7407C6.23309 18.7065 6.25036 18.6496 6.25036 18.5699V18.5357C6.25036 18.4674 6.23309 18.4332 6.19856 18.4332H6.1813H6.1295V18.399C6.1295 18.3762 6.11799 18.3649 6.09496 18.3649C6.08345 18.3649 6.0777 18.3762 6.0777 18.399V18.4332C6.06619 18.4446 6.06043 18.456 6.06043 18.4674C6.04892 18.4787 6.04317 18.5015 6.04317 18.5357C6.04317 18.5129 6.03166 18.5015 6.00863 18.5015C5.99712 18.5129 5.99137 18.5072 5.99137 18.4844V18.399C6.0259 18.399 6.04317 18.3649 6.04317 18.2965H5.95684V18.3478H5.90504V18.399C5.89353 18.399 5.88777 18.3933 5.88777 18.3819C5.88777 18.3706 5.87626 18.3762 5.85324 18.399H5.80144C5.76691 18.399 5.74964 18.3933 5.74964 18.3819V18.3478V18.2965C5.73813 18.2851 5.72086 18.2737 5.69784 18.2624C5.68633 18.2624 5.68058 18.251 5.68058 18.2282C5.68058 18.1826 5.68633 18.1542 5.69784 18.1428C5.72086 18.1428 5.73813 18.1371 5.74964 18.1257C5.73813 18.1257 5.72662 18.12 5.71511 18.1086C5.7036 18.1086 5.69209 18.1029 5.68058 18.0915H5.69784C5.72086 18.0915 5.73237 18.0744 5.73237 18.0403H5.68058C5.68058 18.0061 5.66331 17.9833 5.62878 17.9719C5.68633 17.9719 5.73237 17.9605 5.76691 17.9378C5.80144 17.9264 5.83022 17.9207 5.85324 17.9207V17.784C5.83022 17.784 5.80719 17.7897 5.78417 17.8011C5.76115 17.8239 5.74389 17.8353 5.73237 17.8353C5.73237 17.7669 5.73237 17.7328 5.73237 17.7328V17.6986C5.73237 17.6758 5.72086 17.6587 5.69784 17.6473C5.67482 17.636 5.6518 17.6189 5.62878 17.5961C5.60576 17.5847 5.59425 17.5505 5.59425 17.4936C5.57122 17.4822 5.5482 17.4651 5.52518 17.4423C5.50216 17.4196 5.50791 17.3854 5.54245 17.3398C5.4964 17.2943 5.47338 17.2601 5.47338 17.2373H5.40432C5.41583 17.2373 5.42158 17.2203 5.42158 17.1861C5.41007 17.1747 5.40432 17.1633 5.40432 17.1519V17.0836C5.45036 17.0494 5.47338 17.0039 5.47338 16.9469C5.40432 16.89 5.41007 16.8387 5.49065 16.7932C5.47914 16.7704 5.46187 16.7533 5.43885 16.7419C5.41583 16.7419 5.40432 16.7362 5.40432 16.7248C5.36978 16.7248 5.35252 16.685 5.35252 16.6052C5.34101 16.6052 5.31799 16.6223 5.28345 16.6565C5.28345 16.6109 5.27194 16.5882 5.24892 16.5882V16.5711C5.24892 16.5597 5.24317 16.5483 5.23166 16.5369C5.24317 16.5141 5.24892 16.48 5.24892 16.4344C5.24892 16.4002 5.24892 16.3718 5.24892 16.349H5.28345V16.2465C5.26043 16.2465 5.2259 16.2237 5.17986 16.1782C5.17986 16.1554 5.16835 16.1326 5.14532 16.1098C5.13381 16.087 5.11655 16.0643 5.09353 16.0415V15.9561V15.9048C5.09353 15.882 5.07626 15.865 5.04173 15.8536C5.00719 15.8422 4.98993 15.8194 4.98993 15.7852C4.98993 15.7738 4.98417 15.7625 4.97266 15.7511L4.92086 15.6998V15.5973V15.4948C4.92086 15.472 4.9036 15.4606 4.86907 15.4606L4.98993 15.3411C4.97842 15.2841 4.96115 15.2443 4.93813 15.2215C4.91511 15.1987 4.89209 15.1759 4.86907 15.1531C4.86907 15.119 4.85755 15.0962 4.83453 15.0848C4.83453 15.062 4.82302 15.0449 4.8 15.0336C4.78849 15.0222 4.78273 15.0051 4.78273 14.9823H4.73094C4.70791 14.9595 4.69065 14.9424 4.67914 14.9311C4.66763 14.9197 4.67338 14.8969 4.6964 14.8627H4.66187C4.65036 14.8627 4.6446 14.857 4.6446 14.8456C4.67914 14.8456 4.6964 14.8286 4.6964 14.7944H4.66187C4.63885 14.7944 4.62734 14.7773 4.62734 14.7431L4.59281 14.709C4.56978 14.652 4.55252 14.6065 4.54101 14.5723C4.54101 14.5381 4.54101 14.4983 4.54101 14.4527C4.49496 14.4527 4.45468 14.4641 4.42014 14.4869C4.45468 14.4869 4.47194 14.504 4.47194 14.5381V14.6065H4.42014V14.5894C4.3741 14.6008 4.32806 14.6008 4.28201 14.5894C4.23597 14.5894 4.18993 14.5894 4.14389 14.5894C4.14389 14.5324 4.12662 14.5097 4.09209 14.521C4.06907 14.5324 4.04604 14.5381 4.02302 14.5381C4.02302 14.4812 4.04029 14.4356 4.07482 14.4015C4.08633 14.3559 4.10935 14.3331 4.14389 14.3331H4.19568V14.2477H4.23022C4.23022 14.2363 4.22446 14.2249 4.21295 14.2135H4.19568C4.21871 14.1908 4.23597 14.168 4.24748 14.1452C4.2705 14.1338 4.28201 14.1167 4.28201 14.094C4.33957 14.094 4.36835 14.0769 4.36835 14.0427V14.0085H4.33381V13.9573V13.9231C4.33381 13.9345 4.31655 13.9231 4.28201 13.889C4.25899 13.832 4.24173 13.7808 4.23022 13.7352C4.21871 13.701 4.23597 13.6726 4.28201 13.6498V13.5985C4.28201 13.5758 4.2705 13.5587 4.24748 13.5473C4.23597 13.5473 4.23022 13.5359 4.23022 13.5131V13.4106C4.31079 13.4106 4.32806 13.3878 4.28201 13.3423C4.28201 13.3195 4.28777 13.3024 4.29928 13.291C4.31079 13.291 4.30504 13.2796 4.28201 13.2569C4.28201 13.2341 4.2705 13.217 4.24748 13.2056C4.23597 13.1942 4.21871 13.1714 4.19568 13.1373C4.16115 13.1373 4.14389 13.1145 4.14389 13.0689H4.10935C4.08633 13.0689 4.07482 13.0632 4.07482 13.0519C4.10935 13.0291 4.13237 13.0006 4.14389 12.9664C4.1554 12.9323 4.17266 12.9095 4.19568 12.8981C4.12662 12.8298 4.06907 12.7956 4.02302 12.7956C4.06907 12.7159 4.0518 12.6646 3.97122 12.6419V12.5906C3.97122 12.5109 3.93669 12.4938 3.86763 12.5394C3.86763 12.5507 3.86187 12.5621 3.85036 12.5735V12.5906H3.83309C3.81007 12.6134 3.7813 12.6191 3.74676 12.6077C3.72374 12.5849 3.71223 12.5507 3.71223 12.5052L3.66043 12.4539C3.69496 12.4539 3.71223 12.4482 3.71223 12.4369V12.4198C3.65468 12.4084 3.61439 12.3856 3.59137 12.3514C3.57986 12.3173 3.55684 12.3002 3.5223 12.3002V12.266V12.2148H3.4705C3.4705 12.1692 3.50504 12.1464 3.5741 12.1464C3.58561 12.1464 3.59137 12.1293 3.59137 12.0952H3.5741C3.58561 12.0724 3.60288 12.061 3.6259 12.061C3.66043 12.0496 3.68921 12.0325 3.71223 12.0098C3.6777 11.9756 3.63741 11.9585 3.59137 11.9585C3.57986 11.9585 3.56259 11.9585 3.53957 11.9585C3.51655 11.9471 3.48201 11.93 3.43597 11.9073H3.38417C3.34964 11.8845 3.33237 11.8389 3.33237 11.7706V11.651C3.29784 11.651 3.28058 11.6453 3.28058 11.6339V11.5998V11.4631C3.31511 11.4631 3.33237 11.4802 3.33237 11.5143C3.36691 11.5371 3.41295 11.5485 3.4705 11.5485C3.50504 11.5485 3.53957 11.5371 3.5741 11.5143L3.53957 11.4802C3.52806 11.4688 3.5223 11.446 3.5223 11.4118H3.53957C3.56259 11.4118 3.5741 11.4061 3.5741 11.3948L3.53957 11.3606C3.52806 11.3492 3.5223 11.3207 3.5223 11.2752H3.66043V11.3093C3.66043 11.3321 3.6777 11.3435 3.71223 11.3435C3.71223 11.3207 3.70648 11.3036 3.69496 11.2923C3.68345 11.2923 3.67194 11.2866 3.66043 11.2752H3.7813C3.7813 11.2296 3.76403 11.2068 3.7295 11.2068C3.76403 11.2068 3.7813 11.2011 3.7813 11.1898V11.1556H3.83309V11.1385C3.83309 11.1157 3.81583 11.1043 3.7813 11.1043C3.75827 11.1043 3.74101 11.0986 3.7295 11.0872C3.71799 11.0759 3.71223 11.0645 3.71223 11.0531V11.0189C3.71223 10.9961 3.70072 10.9904 3.6777 11.0018C3.65468 11.0132 3.6259 11.0189 3.59137 11.0189C3.6259 10.962 3.63166 10.9278 3.60863 10.9164C3.58561 10.8936 3.55684 10.8709 3.5223 10.8481V10.7627C3.5223 10.6943 3.50504 10.6602 3.4705 10.6602C3.4705 10.6032 3.48777 10.5747 3.5223 10.5747V10.5235C3.48777 10.5235 3.4705 10.5178 3.4705 10.5064V10.4722C3.4705 10.4381 3.45899 10.421 3.43597 10.421C3.43597 10.4096 3.44173 10.3982 3.45324 10.3868C3.46475 10.364 3.45899 10.3527 3.43597 10.3527C3.40144 10.3527 3.38417 10.347 3.38417 10.3356V10.3014C3.36115 10.2558 3.33237 10.2274 3.29784 10.216C3.27482 10.1932 3.2518 10.1704 3.22878 10.1477H3.21151C3.22302 10.0679 3.18849 10.0053 3.10791 9.95973C3.10791 9.93695 3.09065 9.92556 3.05612 9.92556C3.03309 9.91418 3.02158 9.89709 3.02158 9.87431C2.99856 9.86292 3.01583 9.82876 3.07338 9.77181V9.70348C3.0964 9.70348 3.0964 9.68639 3.07338 9.65223C3.06187 9.61806 3.0446 9.60098 3.02158 9.60098C2.98705 9.63514 2.94101 9.65223 2.88345 9.65223C2.91799 9.61806 2.94101 9.60098 2.95252 9.60098H2.96978C2.94676 9.5782 2.92374 9.55542 2.90072 9.53264C2.88921 9.50986 2.88345 9.48709 2.88345 9.46431V9.43014C2.86043 9.41875 2.84892 9.40736 2.84892 9.39597C2.84892 9.38458 2.84317 9.37889 2.83165 9.37889H2.81439C2.79137 9.37889 2.7741 9.3732 2.76259 9.36181C2.75108 9.33903 2.73381 9.32764 2.71079 9.32764H2.67626L2.65899 9.37889C2.63597 9.40167 2.61295 9.43014 2.58993 9.46431C2.56691 9.49847 2.54388 9.51556 2.52086 9.51556V9.56681V9.60098V9.65223H2.57266C2.59568 9.65223 2.61295 9.66362 2.62446 9.68639C2.63597 9.69778 2.63022 9.70917 2.60719 9.72056C2.60719 9.7889 2.57842 9.83445 2.52086 9.85723V9.87431V9.95973C2.54388 9.98251 2.54964 10.0053 2.53813 10.0281C2.53813 10.0508 2.54964 10.0622 2.57266 10.0622V10.0793L2.52086 10.1477V10.1989C2.48633 10.2103 2.46906 10.2445 2.46906 10.3014C2.48058 10.3014 2.48633 10.3128 2.48633 10.3356C2.48633 10.347 2.48058 10.3527 2.46906 10.3527C2.46906 10.4324 2.48633 10.4893 2.52086 10.5235H2.57266H2.52086H2.46906L2.4518 10.5064C2.42878 10.4836 2.38849 10.4722 2.33094 10.4722V10.421C2.31942 10.4438 2.2964 10.4665 2.26187 10.4893C2.22734 10.5121 2.19856 10.5235 2.17554 10.5235V10.6602V10.6943C2.17554 10.7057 2.15827 10.7114 2.12374 10.7114V10.7968V10.8481C2.11223 10.8595 2.10648 10.8709 2.10648 10.8822C2.08345 10.905 2.06619 10.9164 2.05468 10.9164C2.03165 10.9164 2.02014 10.9164 2.02014 10.9164C2.02014 10.905 2.01439 10.8993 2.00288 10.8993V10.9164V11.0189H2.02014C2.02014 11.0759 2.03741 11.1043 2.07194 11.1043V11.1556H2.02014H2.00288C2.00288 11.2239 2.00863 11.2581 2.02014 11.2581V11.241C2.02014 11.2182 2.03165 11.2068 2.05468 11.2068H2.07194C2.10648 11.2068 2.12374 11.2239 2.12374 11.2581C2.12374 11.2695 2.11223 11.2809 2.08921 11.2923C2.06619 11.2923 2.05468 11.3093 2.05468 11.3435C2.06619 11.3777 2.08921 11.3948 2.12374 11.3948V11.4118V11.446C2.12374 11.4574 2.10648 11.4631 2.07194 11.4631C2.10648 11.4973 2.10648 11.5257 2.07194 11.5485C2.07194 11.5485 2.06043 11.5599 2.03741 11.5827L2.02014 11.5998C2.02014 11.6453 2.01439 11.6852 2.00288 11.7193C2.00288 11.7421 1.99712 11.7592 1.98561 11.7706C1.98561 11.7706 1.95683 11.7706 1.89928 11.7706C1.89928 11.8617 1.88777 11.9243 1.86475 11.9585V12.0439V12.0952C1.86475 12.118 1.85899 12.135 1.84748 12.1464C1.83597 12.1464 1.84173 12.1521 1.86475 12.1635V12.3002C1.86475 12.323 1.85324 12.3344 1.83022 12.3344C1.81871 12.323 1.81295 12.3287 1.81295 12.3514C1.85899 12.3514 1.88777 12.3628 1.89928 12.3856C1.91079 12.4084 1.92806 12.4198 1.95108 12.4198C1.92806 12.4425 1.91079 12.4653 1.89928 12.4881C1.89928 12.4995 1.88777 12.5052 1.86475 12.5052C1.88777 12.528 1.90504 12.545 1.91655 12.5564C1.93957 12.5564 1.95108 12.5678 1.95108 12.5906C1.92806 12.6134 1.91079 12.6248 1.89928 12.6248C1.89928 12.6248 1.89353 12.6305 1.88201 12.6419L1.86475 12.6589C1.89928 12.7159 1.89928 12.7614 1.86475 12.7956C1.86475 12.8298 1.87626 12.8469 1.89928 12.8469C1.87626 12.881 1.84748 12.8981 1.81295 12.8981H1.89928C1.87626 12.9095 1.86475 12.9323 1.86475 12.9664H1.76115L1.81295 13.0177C1.81295 13.0405 1.80144 13.0576 1.77842 13.0689C1.76691 13.0803 1.74964 13.1088 1.72662 13.1544C1.74964 13.1544 1.76115 13.1885 1.76115 13.2569C1.76115 13.3138 1.77842 13.3594 1.81295 13.3935V13.4106L1.76115 13.4619V13.5131C1.81871 13.5359 1.84748 13.5587 1.84748 13.5815C1.85899 13.6042 1.86475 13.6327 1.86475 13.6669V13.701C1.89928 13.758 1.92806 13.7865 1.95108 13.7865C1.95108 13.8548 1.96835 13.889 2.00288 13.889C2.00288 13.9003 1.98561 13.9231 1.95108 13.9573C1.91655 13.9573 1.89928 13.9858 1.89928 14.0427C1.88777 14.0541 1.88201 14.0655 1.88201 14.0769V14.094H1.89928C1.9223 14.1167 1.94532 14.1224 1.96835 14.111C1.99137 14.111 2.00288 14.1224 2.00288 14.1452L1.95108 14.1623V14.1965C1.95108 14.2192 1.96835 14.2363 2.00288 14.2477H2.02014V14.299H2.05468C2.05468 14.299 2.06619 14.2933 2.08921 14.2819L2.12374 14.2477H2.17554C2.10648 14.316 2.07194 14.3502 2.07194 14.3502C2.09496 14.3502 2.11223 14.3559 2.12374 14.3673C2.13525 14.3787 2.16403 14.373 2.21007 14.3502C2.18705 14.3844 2.15827 14.4015 2.12374 14.4015C2.0777 14.4015 2.05468 14.447 2.05468 14.5381H2.07194C2.07194 14.5381 2.08921 14.5211 2.12374 14.4869C2.12374 14.5097 2.11223 14.5324 2.08921 14.5552C2.0777 14.578 2.07194 14.5951 2.07194 14.6065C2.14101 14.6065 2.18705 14.6236 2.21007 14.6577C2.17554 14.7147 2.14676 14.7431 2.12374 14.7431V14.7944C2.12374 14.8286 2.11223 14.8513 2.08921 14.8627C2.06619 14.8855 2.05468 14.9254 2.05468 14.9823C2.06619 14.9823 2.08345 14.9766 2.10648 14.9652C2.1295 14.9652 2.16403 14.9538 2.21007 14.9311V15.0336C2.2446 15.0222 2.27914 15.0165 2.31367 15.0165C2.32518 15.0165 2.33094 15.0222 2.33094 15.0336C2.36547 15.0336 2.38273 15.0449 2.38273 15.0677V15.0848C2.35971 15.0962 2.35971 15.1133 2.38273 15.1361C2.41727 15.1588 2.41727 15.1816 2.38273 15.2044V15.2386V15.2898C2.35971 15.324 2.34245 15.3638 2.33094 15.4094C2.33094 15.455 2.33094 15.5005 2.33094 15.5461C2.33094 15.5802 2.32518 15.5973 2.31367 15.5973C2.31367 15.6543 2.33669 15.6998 2.38273 15.734V15.7852C2.33669 15.8308 2.33669 15.8536 2.38273 15.8536V15.9902V16.1269H2.33094C2.31942 16.1611 2.31367 16.2009 2.31367 16.2465V16.2636C2.31367 16.275 2.31367 16.2864 2.31367 16.2977C2.32518 16.3091 2.33094 16.3205 2.33094 16.3319L2.38273 16.349H2.3482C2.33669 16.349 2.33094 16.3661 2.33094 16.4002C2.33094 16.4344 2.33669 16.4572 2.3482 16.4686C2.35971 16.48 2.37122 16.4857 2.38273 16.4857C2.38273 16.5084 2.37122 16.5255 2.3482 16.5369C2.33669 16.5483 2.33094 16.5654 2.33094 16.5882V16.5711C2.33094 16.5597 2.32518 16.5483 2.31367 16.5369V16.6052H2.26187L2.31367 16.6565C2.31367 16.6907 2.31367 16.7077 2.31367 16.7077C2.32518 16.7191 2.33094 16.7305 2.33094 16.7419C2.35396 16.7647 2.37698 16.7875 2.4 16.8103C2.42302 16.833 2.41727 16.8558 2.38273 16.8786C2.35971 16.9128 2.3482 16.9412 2.3482 16.964C2.35971 16.9868 2.39425 17.0266 2.4518 17.0836C2.35971 17.0836 2.31367 17.1064 2.31367 17.1519C2.32518 17.1861 2.37122 17.2316 2.4518 17.2886C2.46331 17.3114 2.48058 17.3341 2.5036 17.3569C2.52662 17.3797 2.54964 17.4025 2.57266 17.4253L2.53813 17.4594C2.52662 17.4708 2.52086 17.4822 2.52086 17.4936C2.50935 17.4936 2.49784 17.4993 2.48633 17.5107H2.46906V17.5278V17.7328C2.41151 17.71 2.40576 17.6815 2.4518 17.6473V17.5961C2.44029 17.5961 2.42878 17.5904 2.41727 17.579C2.39424 17.5562 2.38273 17.5392 2.38273 17.5278C2.3482 17.4936 2.32518 17.4822 2.31367 17.4936C2.27914 17.448 2.23309 17.3968 2.17554 17.3398C2.14101 17.3398 2.10648 17.3228 2.07194 17.2886C2.10648 17.2886 2.12374 17.2829 2.12374 17.2715V17.2373H2.07194C2.10648 17.2373 2.12374 17.2089 2.12374 17.1519C2.14676 17.1519 2.15827 17.1405 2.15827 17.1178C2.16978 17.1064 2.18705 17.1007 2.21007 17.1007C2.23309 17.0893 2.25612 17.0779 2.27914 17.0665C2.30216 17.0665 2.31367 17.038 2.31367 16.9811C2.33669 16.9811 2.33669 16.9526 2.31367 16.8957C2.31367 16.8615 2.2964 16.8444 2.26187 16.8444C2.23885 16.7875 2.22734 16.7533 2.22734 16.7419C2.22734 16.7419 2.23885 16.7362 2.26187 16.7248H2.21007H2.17554C2.14101 16.6907 2.12374 16.6622 2.12374 16.6394V16.6052C2.10072 16.5939 2.08921 16.5768 2.08921 16.554C2.10072 16.5312 2.09496 16.5084 2.07194 16.4857C2.10648 16.4857 2.12374 16.4572 2.12374 16.4002V16.3319C2.15827 16.2977 2.17554 16.2636 2.17554 16.2294V16.1269C2.17554 16.1041 2.1813 16.0814 2.19281 16.0586C2.20432 16.0358 2.19856 16.013 2.17554 15.9902H2.14101C2.1295 15.9902 2.12374 15.9788 2.12374 15.9561V15.939C2.12374 15.9162 2.14101 15.9048 2.17554 15.9048C2.19856 15.9048 2.21007 15.882 2.21007 15.8365C2.21007 15.8023 2.1813 15.7852 2.12374 15.7852C2.12374 15.7511 2.1295 15.7283 2.14101 15.7169C2.15252 15.7055 2.16403 15.6998 2.17554 15.6998C2.19856 15.6998 2.20432 15.6884 2.19281 15.6657C2.1813 15.6543 2.18705 15.6486 2.21007 15.6486C2.21007 15.6258 2.20432 15.6087 2.19281 15.5973C2.1813 15.5859 2.17554 15.5688 2.17554 15.5461H2.21007C2.21007 15.5233 2.20432 15.5005 2.19281 15.4777C2.1813 15.455 2.17554 15.4322 2.17554 15.4094L2.21007 15.3581C2.29065 15.3354 2.30791 15.2955 2.26187 15.2386V15.2215H2.2446C2.23309 15.2215 2.22158 15.2158 2.21007 15.2044C2.1295 15.2044 2.0777 15.1645 2.05468 15.0848H2.02014C2.02014 15.0165 1.99712 14.9823 1.95108 14.9823V14.9481C1.95108 14.9254 1.96835 14.8969 2.00288 14.8627V14.7431C2.00288 14.7204 1.99712 14.709 1.98561 14.709C1.9741 14.709 1.97986 14.709 2.00288 14.709C2.00288 14.652 1.99137 14.6122 1.96835 14.5894C1.95683 14.578 1.95108 14.5609 1.95108 14.5381C1.92806 14.5381 1.90504 14.5495 1.88201 14.5723L1.86475 14.5894V14.6577H1.76115C1.76115 14.6008 1.73237 14.5438 1.67482 14.4869V14.4527H1.62302C1.65755 14.4185 1.65755 14.3844 1.62302 14.3502C1.61151 14.3502 1.60576 14.3445 1.60576 14.3331C1.60576 14.2876 1.6 14.2534 1.58849 14.2306C1.58849 14.2079 1.55971 14.1851 1.50216 14.1623C1.50216 14.1737 1.47338 14.1509 1.41583 14.094V14.0427C1.40432 14.0199 1.38705 13.9915 1.36403 13.9573C1.38705 13.9573 1.39856 13.9402 1.39856 13.906C1.41007 13.906 1.41583 13.8833 1.41583 13.8377V13.7865C1.3813 13.7865 1.36403 13.7751 1.36403 13.7523C1.3295 13.7523 1.31223 13.7466 1.31223 13.7352V13.701C1.34676 13.6669 1.37554 13.6327 1.39856 13.5985C1.41007 13.5302 1.43309 13.479 1.46763 13.4448C1.50216 13.4106 1.5482 13.3764 1.60576 13.3423H1.62302C1.62302 13.2967 1.61151 13.2739 1.58849 13.2739C1.56547 13.2853 1.55396 13.2796 1.55396 13.2569C1.55396 13.2341 1.55971 13.2113 1.57122 13.1885C1.59424 13.1658 1.60576 13.1487 1.60576 13.1373C1.60576 13.0917 1.62878 13.0632 1.67482 13.0519C1.73237 13.0519 1.73237 13.0234 1.67482 12.9664C1.6518 12.9664 1.63453 12.9551 1.62302 12.9323C1.62302 12.9209 1.61727 12.9152 1.60576 12.9152C1.60576 12.8582 1.61727 12.8013 1.64029 12.7444C1.67482 12.676 1.7036 12.6248 1.72662 12.5906C1.69209 12.5906 1.67482 12.5621 1.67482 12.5052V12.4539C1.67482 12.4312 1.68058 12.4198 1.69209 12.4198C1.71511 12.4198 1.72662 12.4141 1.72662 12.4027L1.67482 12.3514C1.67482 12.3287 1.68058 12.3116 1.69209 12.3002C1.7036 12.2774 1.69784 12.266 1.67482 12.266C1.67482 12.2318 1.68058 12.2148 1.69209 12.2148H1.72662C1.7036 12.1806 1.68058 12.1521 1.65755 12.1293C1.64604 12.0952 1.6518 12.0553 1.67482 12.0098C1.69784 11.987 1.7036 11.9642 1.69209 11.9414C1.69209 11.9186 1.7036 11.8959 1.72662 11.8731C1.72662 11.8503 1.71511 11.8332 1.69209 11.8218C1.68058 11.8105 1.67482 11.7934 1.67482 11.7706C1.73237 11.7706 1.77842 11.7535 1.81295 11.7193V11.7706C1.84748 11.7592 1.86475 11.7364 1.86475 11.7023V11.6681C1.86475 11.6567 1.8705 11.6396 1.88201 11.6168C1.89353 11.5941 1.89928 11.5713 1.89928 11.5485C1.89928 11.5257 1.90504 11.5143 1.91655 11.5143C1.93957 11.5029 1.95108 11.4859 1.95108 11.4631V11.4118C1.95108 11.3663 1.96835 11.3435 2.00288 11.3435C2.00288 11.2979 1.98561 11.2695 1.95108 11.2581V11.2752H1.89928C1.87626 11.2752 1.85899 11.2581 1.84748 11.2239L1.81295 11.1556V11.0531L1.83022 11.036C1.85324 11.0132 1.86475 10.9904 1.86475 10.9677V10.9164C1.83022 10.905 1.79568 10.8993 1.76115 10.8993V10.7114C1.76115 10.6886 1.77266 10.6772 1.79568 10.6772C1.81871 10.6659 1.84173 10.6488 1.86475 10.626C1.88777 10.6488 1.91655 10.6488 1.95108 10.626C1.98561 10.5918 2.00863 10.5747 2.02014 10.5747V10.626V10.6602C2.05468 10.626 2.07194 10.5975 2.07194 10.5747C2.07194 10.5406 2.0777 10.5235 2.08921 10.5235H2.12374C2.15827 10.4893 2.18705 10.4722 2.21007 10.4722C2.21007 10.4495 2.20432 10.4381 2.19281 10.4381C2.1813 10.4267 2.17554 10.4153 2.17554 10.4039C2.17554 10.3697 2.1813 10.347 2.19281 10.3356C2.19281 10.3242 2.19856 10.3128 2.21007 10.3014C2.23309 10.2786 2.25036 10.2615 2.26187 10.2502C2.27338 10.2274 2.2964 10.2103 2.33094 10.1989V10.1477L2.38273 10.0793C2.35971 10.0679 2.34245 10.0451 2.33094 10.011C2.33094 9.97682 2.32518 9.94834 2.31367 9.92556C2.29065 9.92556 2.27914 9.91987 2.27914 9.90848C2.27914 9.8857 2.29065 9.86862 2.31367 9.85723L2.33094 9.82306L2.31367 9.77181H2.2964V9.75473C2.2964 9.75473 2.30216 9.74334 2.31367 9.72056C2.32518 9.68639 2.33094 9.65792 2.33094 9.63514C2.34245 9.60098 2.35971 9.56112 2.38273 9.51556C2.42878 9.51556 2.45755 9.49847 2.46906 9.46431C2.45755 9.46431 2.44604 9.45861 2.43453 9.44722C2.43453 9.43584 2.41727 9.43014 2.38273 9.43014C2.31367 9.43014 2.31367 9.39597 2.38273 9.32764V9.31056C2.41727 9.265 2.42878 9.24222 2.41727 9.24222C2.41727 9.23083 2.38849 9.22514 2.33094 9.22514C2.35396 9.21375 2.37122 9.19666 2.38273 9.17389C2.39424 9.15111 2.41727 9.12833 2.4518 9.10555C2.4518 9.08277 2.43453 9.0543 2.4 9.02013C2.37698 8.98597 2.35396 8.96888 2.33094 8.96888V9.00305C2.33094 9.01444 2.32518 9.02013 2.31367 9.02013C2.31367 8.99736 2.30216 8.98597 2.27914 8.98597C2.26763 8.97458 2.26187 8.96319 2.26187 8.9518V8.88347C2.2964 8.88347 2.31367 8.87777 2.31367 8.86638V8.83222C2.27914 8.82083 2.26187 8.78096 2.26187 8.71263C2.25036 8.71263 2.23885 8.70694 2.22734 8.69555C2.21583 8.69555 2.20432 8.69555 2.19281 8.69555C2.19281 8.68416 2.18705 8.67846 2.17554 8.67846C2.14101 8.66707 2.12374 8.64999 2.12374 8.62721V8.61013C2.12374 8.58735 2.11223 8.56457 2.08921 8.54179C2.0777 8.51902 2.06619 8.49624 2.05468 8.47346C2.05468 8.43929 2.04892 8.41082 2.03741 8.38804C2.0259 8.36526 2.01439 8.34249 2.00288 8.31971L2.02014 8.26846C2.00863 8.24568 1.99712 8.2286 1.98561 8.21721C1.98561 8.20582 1.9741 8.17734 1.95108 8.13179V8.08054C1.8705 8.08054 1.80719 8.05776 1.76115 8.0122H1.72662H1.60576H1.55396C1.53094 8.0122 1.51367 8.00651 1.50216 7.99512C1.50216 7.98373 1.49065 7.97804 1.46763 7.97804C1.4446 7.96665 1.42158 7.92678 1.39856 7.85845C1.41007 7.83567 1.43309 7.82428 1.46763 7.82428C1.49065 7.79012 1.53669 7.77303 1.60576 7.77303C1.60576 7.73887 1.61151 7.72178 1.62302 7.72178C1.61151 7.72178 1.6 7.71609 1.58849 7.7047C1.58849 7.69331 1.57698 7.68761 1.55396 7.68761C1.4964 7.68761 1.45036 7.699 1.41583 7.72178V7.68761H1.39856H1.31223C1.31223 7.65345 1.28921 7.61928 1.24317 7.58511L1.26043 7.56803H1.1741C1.11655 7.51108 1.09928 7.46553 1.1223 7.43136C1.14532 7.43136 1.16259 7.42567 1.1741 7.41428C1.18561 7.3915 1.20863 7.38011 1.24317 7.38011C1.24317 7.38011 1.24892 7.37442 1.26043 7.36303V7.32886H1.31223C1.28921 7.27191 1.27194 7.24914 1.26043 7.26052C1.24892 7.26052 1.24317 7.24914 1.24317 7.22636V7.20927C1.1741 7.15233 1.12806 7.08969 1.10504 7.02135C1.11655 7.02135 1.13381 7.02705 1.15683 7.03844C1.17986 7.04983 1.20863 7.04413 1.24317 7.02135C1.20863 6.99858 1.18561 6.9758 1.1741 6.95302C1.16259 6.93024 1.14532 6.90746 1.1223 6.88469C1.11079 6.88469 1.10504 6.87899 1.10504 6.8676V6.83344H1.00144L0.966907 6.81635C1.01295 6.75941 1.04173 6.73093 1.05324 6.73093C1.06475 6.73093 1.08777 6.74232 1.1223 6.7651C1.1223 6.74232 1.11655 6.72524 1.10504 6.71385C1.10504 6.70246 1.10504 6.68538 1.10504 6.6626C1.11655 6.62843 1.16259 6.61135 1.24317 6.61135V6.57718V6.52593V6.50885C1.24317 6.50885 1.24892 6.49746 1.26043 6.47468L1.24317 6.44051L1.26043 6.38926C1.23741 6.30954 1.25468 6.2412 1.31223 6.18426C1.34676 6.18426 1.36403 6.16718 1.36403 6.13301C1.38705 6.13301 1.39856 6.13301 1.39856 6.13301C1.39856 6.12162 1.38705 6.11592 1.36403 6.11592H1.31223C1.2777 6.08176 1.25468 6.04759 1.24317 6.01342C1.25468 6.01342 1.2777 6.01912 1.31223 6.03051H1.36403L1.39856 6.01342H1.31223V5.87675H1.2777C1.26619 5.87675 1.26043 5.85967 1.26043 5.8255C1.26043 5.79134 1.29496 5.77425 1.36403 5.77425V5.74009C1.3295 5.70592 1.3295 5.67175 1.36403 5.63758H1.34676C1.33525 5.63758 1.32374 5.63189 1.31223 5.6205C1.28921 5.59772 1.26619 5.57494 1.24317 5.55217C1.23165 5.52939 1.20863 5.50661 1.1741 5.48383C1.23165 5.43828 1.23165 5.40411 1.1741 5.38133C1.13957 5.38133 1.11655 5.39272 1.10504 5.4155V5.43258V5.44966C1.10504 5.46105 1.11079 5.47244 1.1223 5.48383C1.11079 5.50661 1.09928 5.50661 1.08777 5.48383C1.08777 5.46105 1.07626 5.46105 1.05324 5.48383V5.43258C1.05324 5.39841 1.0705 5.38133 1.10504 5.38133H1.1223V5.27883C1.07626 5.27883 1.05324 5.26744 1.05324 5.24466C1.05324 5.17633 1.02446 5.14216 0.966907 5.14216V5.12508C0.966907 5.09091 0.94964 5.07383 0.915108 5.07383V5.12508C0.93813 5.13647 0.943885 5.15355 0.932374 5.17633C0.932374 5.19911 0.943885 5.22188 0.966907 5.24466V5.19341C0.932374 5.22758 0.897842 5.25605 0.863309 5.27883L0.846043 5.24466C0.811511 5.24466 0.794245 5.22758 0.794245 5.19341L0.846043 5.14216V5.12508C0.823022 5.13647 0.805755 5.14216 0.794245 5.14216C0.794245 5.13077 0.782734 5.12508 0.759712 5.12508H0.638849C0.638849 5.1023 0.633094 5.08521 0.621583 5.07383C0.610072 5.06244 0.604317 5.04535 0.604317 5.02257C0.627338 5.02257 0.638849 5.03966 0.638849 5.07383C0.65036 5.10799 0.667626 5.12508 0.690647 5.12508C0.736691 5.12508 0.759712 5.10799 0.759712 5.07383C0.748202 5.03966 0.696403 4.9941 0.604317 4.93716C0.627338 4.97132 0.638849 4.9998 0.638849 5.02257C0.581295 4.96563 0.552518 4.92007 0.552518 4.88591H0.535252C0.523741 4.88591 0.51223 4.88021 0.50072 4.86882H0.36259C0.36259 4.82327 0.379856 4.80618 0.414389 4.81757C0.448921 4.81757 0.477698 4.81757 0.50072 4.81757C0.50072 4.76063 0.471943 4.70368 0.414389 4.64674C0.448921 4.64674 0.466187 4.64104 0.466187 4.62965H0.414389H0.36259V4.64674C0.316547 4.64674 0.293525 4.66382 0.293525 4.69799H0.345324C0.322302 4.69799 0.305036 4.70938 0.293525 4.73215C0.282014 4.74354 0.264748 4.74924 0.241727 4.74924C0.276259 4.77202 0.293525 4.79479 0.293525 4.81757C0.282014 4.81757 0.270504 4.81188 0.258993 4.80049L0.207194 4.74924C0.230216 4.69229 0.235971 4.66382 0.224461 4.66382C0.224461 4.65243 0.201439 4.64674 0.155396 4.64674C0.155396 4.66951 0.161151 4.6866 0.172662 4.69799C0.184173 4.70938 0.178417 4.72646 0.155396 4.74924H0.13813C0.161151 4.6809 0.14964 4.64674 0.103597 4.64674H0.13813V4.62965V4.5784V4.52715H0.103597V4.5784V4.49298C0.103597 4.45882 0.109353 4.44173 0.120863 4.44173H0.13813C0.115108 4.41895 0.0978418 4.40187 0.086331 4.39048C0.086331 4.3677 0.0748202 4.34493 0.0517987 4.32215L0 4.3734C0 4.33923 0.0172662 4.30506 0.0517987 4.2709C0.086331 4.30506 0.115108 4.33923 0.13813 4.3734C0.13813 4.29368 0.161151 4.23104 0.207194 4.18548C0.172662 4.18548 0.155396 4.1684 0.155396 4.13423H0.13813L0.155396 4.08298C0.155396 4.0602 0.14964 4.04881 0.13813 4.04881C0.13813 4.03742 0.13813 4.02034 0.13813 3.99756L0.155396 3.94631H0.13813L0.103597 3.99756C0.103597 3.97478 0.0920864 3.9577 0.0690648 3.94631C0.057554 3.93492 0.0517987 3.91784 0.0517987 3.89506C0.0172662 3.88367 0 3.84381 0 3.77547C0 3.75269 0.0345324 3.70714 0.103597 3.6388C0.103597 3.62742 0.109353 3.62172 0.120863 3.62172C0.132374 3.61033 0.13813 3.58755 0.13813 3.55339V3.5363H0.207194V3.50214C0.207194 3.46797 0.21295 3.45089 0.224461 3.45089H0.241727C0.264748 3.45089 0.282014 3.44519 0.293525 3.4338C0.305036 3.41102 0.322302 3.39963 0.345324 3.39963C0.345324 3.38825 0.339568 3.38255 0.328058 3.38255C0.316547 3.38255 0.322302 3.38255 0.345324 3.38255L0.36259 3.3313L0.345324 3.28005H0.293525C0.316547 3.28005 0.333813 3.27435 0.345324 3.26296C0.368345 3.25158 0.391367 3.24588 0.414389 3.24588V3.19463C0.448921 3.19463 0.466187 3.17185 0.466187 3.1263C0.466187 3.09213 0.471943 3.07505 0.483453 3.07505H0.50072L0.552518 3.02379C0.564029 3.02379 0.57554 3.0181 0.58705 3.00671C0.610072 2.98393 0.627338 2.96116 0.638849 2.93838C0.627338 2.93838 0.621583 2.93268 0.621583 2.92129C0.621583 2.9099 0.627338 2.89852 0.638849 2.88713C0.638849 2.83018 0.644604 2.79032 0.656115 2.76754C0.679137 2.74476 0.690647 2.7049 0.690647 2.64796H0.742446C0.753957 2.63657 0.759712 2.59671 0.759712 2.52837V2.4942C0.782734 2.43726 0.8 2.3974 0.811511 2.37462C0.834532 2.35184 0.846043 2.32906 0.846043 2.30628H0.863309V2.2892C0.851799 2.26642 0.834532 2.24364 0.811511 2.22087C0.8 2.19809 0.794245 2.16962 0.794245 2.13545C0.794245 2.10128 0.811511 2.07281 0.846043 2.05003H0.863309C0.886331 2.02725 0.909353 2.01017 0.932374 1.99878C0.955396 1.98739 0.966907 1.97031 0.966907 1.94753C0.932374 1.93614 0.915108 1.91336 0.915108 1.87919H1.05324C1.05324 1.85642 1.04173 1.84503 1.01871 1.84503C1.00719 1.83364 1.00144 1.81655 1.00144 1.79378H1.05324H1.0705C1.09353 1.79378 1.10504 1.77669 1.10504 1.74253H1.00144C1.03597 1.74253 1.05324 1.73683 1.05324 1.72544V1.69127C1.05324 1.6685 1.02446 1.65711 0.966907 1.65711H1.05324V1.50336H1.01871C1.00719 1.50336 1.00144 1.48627 1.00144 1.4521H1.05324C1.05324 1.44072 1.03597 1.41794 1.00144 1.38377C1.04748 1.38377 1.08777 1.3553 1.1223 1.29835H1.05324H1.01871C1.00719 1.29835 1.00144 1.28127 1.00144 1.2471C1.02446 1.22432 1.04748 1.19585 1.0705 1.16168C1.10504 1.11613 1.13957 1.08196 1.1741 1.05918H1.20863C1.23165 1.05918 1.24317 1.05349 1.24317 1.0421C1.24317 1.0421 1.24892 1.0364 1.26043 1.02502V0.990848C1.26043 0.956681 1.2777 0.939597 1.31223 0.939597C1.34676 0.90543 1.36403 0.871263 1.36403 0.837095V0.802928C1.38705 0.768761 1.39856 0.7289 1.39856 0.683344V0.632093L1.36403 0.683344C1.34101 0.683344 1.31799 0.677649 1.29496 0.666259C1.27194 0.643482 1.25468 0.632093 1.24317 0.632093C1.32374 0.632093 1.36403 0.609315 1.36403 0.563758C1.38705 0.563758 1.39856 0.558064 1.39856 0.546675C1.41007 0.523896 1.41583 0.512507 1.41583 0.512507C1.42734 0.512507 1.45612 0.523896 1.50216 0.546675C1.50216 0.512507 1.51942 0.47834 1.55396 0.444173H1.46763V0.358755H1.43309C1.42158 0.358755 1.41583 0.35306 1.41583 0.341671C1.43885 0.341671 1.46763 0.335977 1.50216 0.324588C1.5482 0.313199 1.58273 0.307505 1.60576 0.307505C1.60576 0.250559 1.62302 0.216392 1.65755 0.205002C1.7036 0.182225 1.72662 0.142363 1.72662 0.0854179V0.0512501V0.0341667C1.72662 0.0113889 1.73813 0 1.76115 0V0.0512501V0.187919C1.73813 0.187919 1.72086 0.193614 1.70935 0.205002C1.70935 0.205002 1.69784 0.205002 1.67482 0.205002V0.307505C1.67482 0.330283 1.68058 0.347366 1.69209 0.358755C1.7036 0.370144 1.68058 0.387228 1.62302 0.410006H1.72662C1.72662 0.432784 1.70935 0.461256 1.67482 0.495424V0.444173H1.62302C1.65755 0.444173 1.67482 0.455562 1.67482 0.47834V0.495424C1.62878 0.495424 1.60576 0.506813 1.60576 0.529592C1.59424 0.54098 1.59424 0.552369 1.60576 0.563758C1.58273 0.620703 1.56547 0.654871 1.55396 0.666259C1.54245 0.677649 1.52518 0.689038 1.50216 0.700427C1.47914 0.700427 1.46763 0.734594 1.46763 0.802928V0.939597V0.990848C1.43309 0.990848 1.41007 1.00793 1.39856 1.0421H1.3813C1.36978 1.0421 1.36403 1.04779 1.36403 1.05918H1.39856V1.11043H1.36403V1.16168H1.31223V1.19585H1.36403H1.31223H1.24317C1.20863 1.19585 1.17986 1.20724 1.15683 1.23002C1.14532 1.2528 1.15108 1.27557 1.1741 1.29835C1.1741 1.32113 1.18561 1.33252 1.20863 1.33252H1.26043H1.31223C1.2777 1.36669 1.2777 1.40085 1.31223 1.43502C1.26619 1.44641 1.24317 1.4521 1.24317 1.4521V1.55461L1.2259 1.57169C1.21439 1.58308 1.19712 1.58877 1.1741 1.58877C1.20863 1.60016 1.23165 1.61725 1.24317 1.64002C1.26619 1.65141 1.28921 1.65711 1.31223 1.65711C1.33525 1.67989 1.34101 1.70266 1.3295 1.72544C1.3295 1.73683 1.35252 1.74253 1.39856 1.74253C1.35252 1.7653 1.32374 1.79378 1.31223 1.82794C1.30072 1.86211 1.2777 1.87919 1.24317 1.87919C1.24317 1.91336 1.24892 1.93614 1.26043 1.94753C1.24892 1.94753 1.24317 1.96461 1.24317 1.99878C1.20863 1.99878 1.18561 2.01017 1.1741 2.03295C1.16259 2.04434 1.14532 2.05003 1.1223 2.05003C1.11079 2.03864 1.09928 2.03295 1.08777 2.03295C1.07626 2.03295 1.06475 2.03864 1.05324 2.05003C0.995684 2.0842 0.966907 2.11267 0.966907 2.13545C0.966907 2.16962 0.966907 2.19239 0.966907 2.20378C0.978417 2.21517 1.00719 2.23226 1.05324 2.25503V2.2892C1.05324 2.30059 1.02446 2.33476 0.966907 2.3917C0.943885 2.41448 0.932374 2.43156 0.932374 2.44295C0.932374 2.45434 0.955396 2.47143 1.00144 2.4942C0.978417 2.51698 0.955396 2.53407 0.932374 2.54545C0.920864 2.54545 0.915108 2.55684 0.915108 2.57962C0.880576 2.57962 0.863309 2.59101 0.863309 2.61379V2.63087C0.863309 2.67643 0.840288 2.71629 0.794245 2.75046C0.794245 2.77324 0.805756 2.77893 0.828777 2.76754C0.851799 2.75615 0.863309 2.76185 0.863309 2.78462C0.851799 2.81879 0.828777 2.85296 0.794245 2.88713L0.828777 2.92129C0.840288 2.93268 0.851799 2.93838 0.863309 2.93838L0.915108 2.98963L0.966907 3.02379C0.966907 3.05796 0.955396 3.07505 0.932374 3.07505H0.915108V3.1263C0.857554 3.13769 0.823022 3.14907 0.811511 3.16046C0.8 3.16046 0.794245 3.17185 0.794245 3.19463C0.759712 3.19463 0.72518 3.21171 0.690647 3.24588L0.638849 3.28005C0.592806 3.34838 0.546763 3.38255 0.50072 3.38255C0.50072 3.37116 0.471943 3.39394 0.414389 3.45089C0.368345 3.48505 0.351079 3.51352 0.36259 3.5363C0.351079 3.54769 0.339568 3.55908 0.328058 3.57047C0.316547 3.57047 0.322302 3.58755 0.345324 3.62172C0.322302 3.63311 0.316547 3.65019 0.328058 3.67297C0.351079 3.69575 0.356835 3.72992 0.345324 3.77547V3.80964C0.345324 3.82103 0.328058 3.84381 0.293525 3.87797C0.339568 3.87797 0.36259 3.88367 0.36259 3.89506L0.397122 3.92923C0.408633 3.94061 0.431655 3.94631 0.466187 3.94631V4.03173V4.08298C0.431655 4.11714 0.414389 4.1684 0.414389 4.23673C0.391367 4.25951 0.374101 4.28798 0.36259 4.32215C0.36259 4.35631 0.36259 4.37909 0.36259 4.39048C0.351079 4.37909 0.345324 4.35631 0.345324 4.32215H0.293525V4.3734H0.241727C0.241727 4.38479 0.247482 4.39618 0.258993 4.40757C0.270504 4.40757 0.264748 4.41895 0.241727 4.44173V4.49298H0.293525C0.328058 4.45882 0.351079 4.44173 0.36259 4.44173C0.36259 4.4759 0.368345 4.49298 0.379856 4.49298H0.414389H0.638849C0.638849 4.51576 0.638849 4.54423 0.638849 4.5784C0.65036 4.61257 0.667626 4.62965 0.690647 4.62965C0.759712 4.62965 0.794245 4.61257 0.794245 4.5784C0.840288 4.63535 0.863309 4.70368 0.863309 4.7834C0.920863 4.7834 0.961151 4.7891 0.984173 4.80049C1.00719 4.81188 1.04748 4.81757 1.10504 4.81757V4.88591C1.11655 4.88591 1.1223 4.92007 1.1223 4.98841C1.1223 5.01119 1.09928 5.02257 1.05324 5.02257C1.08777 5.05674 1.12806 5.07383 1.1741 5.07383V5.02257H1.24317V5.07383H1.1741C1.22014 5.10799 1.24892 5.12508 1.26043 5.12508C1.29496 5.12508 1.31223 5.13077 1.31223 5.14216H1.2777C1.26619 5.14216 1.26043 5.15924 1.26043 5.19341C1.28345 5.21619 1.31223 5.23897 1.34676 5.26174C1.3813 5.28452 1.39856 5.32438 1.39856 5.38133C1.41007 5.4155 1.46187 5.43258 1.55396 5.43258V5.56925H1.62302V5.518C1.62302 5.49522 1.62878 5.48383 1.64029 5.48383H1.67482C1.70935 5.48383 1.73813 5.49522 1.76115 5.518H1.67482V5.56925H1.72662V5.63758C1.66906 5.61481 1.62878 5.63189 1.60576 5.68883C1.59424 5.70022 1.58849 5.71161 1.58849 5.723C1.58849 5.75717 1.59424 5.77425 1.60576 5.77425C1.5482 5.8312 1.51367 5.87106 1.50216 5.89384C1.49065 5.90523 1.50791 5.94509 1.55396 6.01342C1.6 5.97926 1.64029 5.97926 1.67482 6.01342C1.6518 6.02481 1.62878 6.0362 1.60576 6.04759C1.59424 6.05898 1.57698 6.06467 1.55396 6.06467C1.6 6.11023 1.64029 6.13301 1.67482 6.13301V6.18426C1.62878 6.22982 1.61151 6.27537 1.62302 6.32093C1.61151 6.32093 1.61151 6.34371 1.62302 6.38926H1.65755C1.66906 6.38926 1.67482 6.39496 1.67482 6.40635C1.68633 6.41773 1.7036 6.42912 1.72662 6.44051H1.76115C1.83022 6.48607 1.86475 6.46899 1.86475 6.38926C1.88777 6.38926 1.89928 6.36648 1.89928 6.32093H1.95108C1.95108 6.33232 1.93957 6.3494 1.91655 6.37218C1.90504 6.39496 1.89928 6.41773 1.89928 6.44051H2.00288C1.97986 6.44051 1.95108 6.44051 1.91655 6.44051C1.88201 6.44051 1.86475 6.4519 1.86475 6.47468C1.86475 6.50885 1.87626 6.52593 1.89928 6.52593H1.81295V6.57718L1.86475 6.61135C1.85324 6.62274 1.84173 6.62843 1.83022 6.62843H1.81295V6.61135C1.76691 6.57718 1.72086 6.57718 1.67482 6.61135V6.6626H1.72662C1.72662 6.68538 1.7036 6.70246 1.65755 6.71385C1.61151 6.71385 1.55971 6.71385 1.50216 6.71385V6.81635V6.83344H1.46763C1.39856 6.90177 1.39856 6.96441 1.46763 7.02135H1.41583V7.08969C1.45036 7.08969 1.46763 7.12955 1.46763 7.20927H1.55396C1.53094 7.22066 1.52518 7.23205 1.53669 7.24344C1.5482 7.24344 1.55396 7.25483 1.55396 7.27761C1.55396 7.34594 1.52518 7.38011 1.46763 7.38011H1.41583L1.39856 7.43136C1.39856 7.45414 1.40432 7.46553 1.41583 7.46553C1.42734 7.47692 1.43885 7.48261 1.45036 7.48261C1.47338 7.48261 1.49065 7.47692 1.50216 7.46553C1.50216 7.44275 1.50791 7.43136 1.51942 7.43136H1.55396L1.50216 7.38011C1.55971 7.38011 1.58849 7.3858 1.58849 7.39719C1.6 7.39719 1.60576 7.40858 1.60576 7.43136C1.60576 7.43136 1.61727 7.43706 1.64029 7.44844C1.6518 7.45983 1.66331 7.46553 1.67482 7.46553C1.70935 7.46553 1.72662 7.4997 1.72662 7.56803V7.58511H1.76115V7.63636C1.76115 7.69331 1.77842 7.73887 1.81295 7.77303C1.81295 7.88692 1.85899 7.9154 1.95108 7.85845C1.99712 7.85845 2.02014 7.89262 2.02014 7.96095C2.02014 7.97234 2.0259 7.97804 2.03741 7.97804C2.04892 7.97804 2.05468 7.98942 2.05468 8.0122C2.06619 8.0122 2.0777 8.0179 2.08921 8.02929C2.11223 8.04068 2.12374 8.03498 2.12374 8.0122H2.21007C2.21007 8.04637 2.19856 8.06345 2.17554 8.06345V8.13179C2.21007 8.17734 2.21007 8.2229 2.17554 8.26846C2.17554 8.30262 2.18705 8.3311 2.21007 8.35387C2.2446 8.35387 2.27914 8.37096 2.31367 8.40513C2.31367 8.43929 2.31367 8.47915 2.31367 8.52471C2.32518 8.57027 2.33094 8.60443 2.33094 8.62721H2.38273L2.4518 8.67846C2.4518 8.70124 2.4518 8.71833 2.4518 8.72971C2.46331 8.72971 2.46906 8.7411 2.46906 8.76388C2.45755 8.79805 2.45755 8.83791 2.46906 8.88347C2.48058 8.92902 2.51511 8.9575 2.57266 8.96888C2.59568 8.96888 2.62446 8.98597 2.65899 9.02013C2.6705 9.02013 2.68201 9.03152 2.69353 9.0543C2.71655 9.06569 2.75683 9.08277 2.81439 9.10555H2.83165C2.86619 9.13972 2.88345 9.17958 2.88345 9.22514V9.2593H2.93525C2.95827 9.28208 2.96978 9.30486 2.96978 9.32764C2.9813 9.33903 2.99856 9.35611 3.02158 9.37889L3.05612 9.41306C3.06763 9.42445 3.08489 9.43014 3.10791 9.43014C3.17698 9.43014 3.21151 9.45861 3.21151 9.51556C3.22302 9.53834 3.23453 9.55542 3.24604 9.56681C3.26907 9.56681 3.28058 9.5782 3.28058 9.60098L3.33237 9.65223C3.33237 9.67501 3.33813 9.69209 3.34964 9.70348C3.37266 9.71487 3.38417 9.73765 3.38417 9.77181V9.82306C3.36115 9.84584 3.34964 9.86292 3.34964 9.87431C3.34964 9.8857 3.37842 9.90279 3.43597 9.92556H3.4705C3.49353 9.94834 3.51655 9.96543 3.53957 9.97682C3.56259 9.97682 3.57986 9.9882 3.59137 10.011C3.57986 10.011 3.5741 10.0224 3.5741 10.0451V10.0622C3.58561 10.0736 3.59137 10.1192 3.59137 10.1989C3.59137 10.2103 3.63166 10.216 3.71223 10.216V10.3527C3.72374 10.3868 3.74676 10.4039 3.7813 10.4039C3.80432 10.4153 3.81583 10.4267 3.81583 10.4381C3.81583 10.4381 3.80432 10.4665 3.7813 10.5235C3.75827 10.5235 3.74676 10.5292 3.74676 10.5406C3.74676 10.5406 3.77554 10.552 3.83309 10.5747C3.85612 10.5975 3.87338 10.6203 3.88489 10.6431C3.90791 10.6659 3.91943 10.6886 3.91943 10.7114C3.95396 10.7114 3.97122 10.7399 3.97122 10.7968C3.97122 10.8196 3.97698 10.8424 3.98849 10.8652C4 10.8879 3.99425 10.905 3.97122 10.9164L4.02302 10.9677V11.0531C4.01151 11.0531 4.00576 11.0645 4.00576 11.0872C4.00576 11.0986 4.01151 11.1043 4.02302 11.1043C4.05755 11.1043 4.07482 11.1157 4.07482 11.1385V11.1556C4.06331 11.167 4.0518 11.1727 4.04029 11.1727C3.99425 11.1727 3.97122 11.167 3.97122 11.1556C3.97122 11.1897 3.98849 11.2068 4.02302 11.2068C3.98849 11.241 3.95396 11.2581 3.91943 11.2581H3.86763C3.86763 11.2353 3.86187 11.2296 3.85036 11.241C3.83885 11.2524 3.8446 11.2581 3.86763 11.2581C3.86763 11.2695 3.88489 11.2752 3.91943 11.2752C3.91943 11.3549 3.90216 11.3948 3.86763 11.3948C3.86763 11.4175 3.83885 11.4574 3.7813 11.5143C3.80432 11.5371 3.81583 11.5599 3.81583 11.5827C3.82734 11.5941 3.8446 11.5998 3.86763 11.5998C3.90216 11.6339 3.90216 11.6567 3.86763 11.6681C3.86763 11.6909 3.86187 11.708 3.85036 11.7193C3.85036 11.7193 3.85036 11.725 3.85036 11.7364C3.83885 11.7478 3.83309 11.7592 3.83309 11.7706C3.81007 11.7706 3.79281 11.782 3.7813 11.8048C3.76978 11.8275 3.75252 11.8503 3.7295 11.8731C3.74101 11.8731 3.75252 11.8788 3.76403 11.8902C3.77554 11.8902 3.78705 11.8902 3.79856 11.8902C3.81007 11.9016 3.82158 11.9073 3.83309 11.9073C3.83309 11.93 3.82734 11.9471 3.81583 11.9585C3.80432 11.9699 3.81007 11.987 3.83309 12.0098H3.86763V12.0952C3.87914 12.0838 3.90216 12.0781 3.93669 12.0781C3.9482 12.0781 3.95971 12.0838 3.97122 12.0952C4.01727 12.1407 4.07482 12.1635 4.14389 12.1635H4.16115C4.18417 12.1635 4.19568 12.1806 4.19568 12.2148C4.13813 12.3173 4.09784 12.397 4.07482 12.4539C4.12086 12.4539 4.14389 12.4824 4.14389 12.5394C4.16691 12.5394 4.17266 12.5507 4.16115 12.5735C4.16115 12.5963 4.17266 12.6191 4.19568 12.6419C4.24173 12.6419 4.27626 12.6532 4.29928 12.676C4.3223 12.6988 4.34532 12.7102 4.36835 12.7102C4.36835 12.7557 4.3741 12.7842 4.38561 12.7956C4.40863 12.807 4.42014 12.8241 4.42014 12.8469H4.48921C4.48921 12.881 4.46619 12.8981 4.42014 12.8981C4.39712 12.9095 4.37986 12.9266 4.36835 12.9494C4.36835 12.9721 4.35684 12.9949 4.33381 13.0177C4.44892 13.0633 4.4777 13.1259 4.42014 13.2056C4.43166 13.2056 4.43741 13.2113 4.43741 13.2227C4.43741 13.2455 4.43166 13.2683 4.42014 13.291C4.45468 13.291 4.4777 13.3024 4.48921 13.3252C4.50072 13.3594 4.53525 13.3651 4.59281 13.3423V13.4106C4.55827 13.4448 4.54101 13.479 4.54101 13.5131V13.5473C4.50648 13.5815 4.48921 13.6156 4.48921 13.6498V13.6669L4.54101 13.7865H4.59281C4.59281 13.8662 4.60432 13.9231 4.62734 13.9573L4.6446 14.0085C4.69065 14.0085 4.71943 14.0142 4.73094 14.0256C4.74245 14.0484 4.75971 14.0712 4.78273 14.094C4.78273 14.1167 4.78849 14.1338 4.8 14.1452C4.82302 14.168 4.84604 14.1908 4.86907 14.2135C4.86907 14.1908 4.87482 14.1737 4.88633 14.1623C4.90935 14.1623 4.92086 14.1566 4.92086 14.1452H4.98993C4.97842 14.1566 4.96115 14.168 4.93813 14.1794C4.91511 14.2022 4.89209 14.2135 4.86907 14.2135C4.84604 14.2363 4.82878 14.2477 4.81727 14.2477C4.80576 14.2591 4.81151 14.2762 4.83453 14.299C4.83453 14.3445 4.86331 14.3958 4.92086 14.4527C4.92086 14.4527 4.93237 14.4584 4.9554 14.4698H4.97266V14.4869C4.94964 14.5438 4.94964 14.5723 4.97266 14.5723C4.99568 14.5837 5.01871 14.5951 5.04173 14.6065C5.07626 14.652 5.1223 14.7147 5.17986 14.7944C5.14532 14.8286 5.12806 14.8513 5.12806 14.8627H5.24892L5.28345 14.9311C5.31799 14.9311 5.33525 14.9424 5.33525 14.9652V14.9823H5.35252C5.37554 15.0051 5.39856 15.0279 5.42158 15.0506C5.45612 15.0734 5.47914 15.0905 5.49065 15.1019C5.52518 15.1361 5.57122 15.1531 5.62878 15.1531C5.62878 15.1873 5.64604 15.2158 5.68058 15.2386H5.73237C5.73237 15.2955 5.74964 15.3183 5.78417 15.3069C5.83022 15.3069 5.86475 15.3183 5.88777 15.3411C5.91079 15.4208 5.89928 15.4891 5.85324 15.5461L5.80144 15.5973C5.82446 15.6543 5.84173 15.6941 5.85324 15.7169C5.87626 15.7397 5.88777 15.7795 5.88777 15.8365C5.89928 15.8479 5.90504 15.8707 5.90504 15.9048C5.90504 15.939 5.90504 15.9675 5.90504 15.9902V16.0244C5.90504 16.0586 5.9223 16.0814 5.95684 16.0927C5.95684 16.1155 5.96259 16.1269 5.9741 16.1269C5.98561 16.1383 5.99137 16.1554 5.99137 16.1782V16.2465L6.04317 16.2807V16.4002C6.10072 16.4002 6.1295 16.4287 6.1295 16.4857V16.5369C6.15252 16.5369 6.16978 16.5312 6.1813 16.5198C6.19281 16.5084 6.19856 16.4971 6.19856 16.4857L6.25036 16.5369C6.28489 16.5369 6.30216 16.5483 6.30216 16.5711V16.5882C6.32518 16.5996 6.35396 16.6052 6.38849 16.6052H6.45755L6.50935 16.6565C6.54389 16.6109 6.58417 16.5939 6.63022 16.6052V16.6565C6.63022 16.7021 6.61871 16.7248 6.59568 16.7248C6.58417 16.7362 6.57266 16.7362 6.56115 16.7248V16.7932C6.59568 16.8159 6.62446 16.8273 6.64748 16.8273C6.6705 16.8387 6.68202 16.8558 6.68202 16.8786C6.69353 16.8558 6.70504 16.8387 6.71655 16.8273C6.73957 16.8273 6.75108 16.8159 6.75108 16.7932C6.79712 16.8387 6.77986 16.8729 6.69928 16.8957C6.7223 16.9184 6.74532 16.9184 6.76835 16.8957C6.80288 16.8843 6.84317 16.8786 6.88921 16.8786C6.88921 16.89 6.89496 16.8957 6.90648 16.8957C6.9295 16.9071 6.94101 16.9355 6.94101 16.9811L6.95827 16.9469C6.95827 16.9697 6.96403 16.9811 6.97554 16.9811H7.01007C7.01007 16.9925 7.02158 16.9982 7.0446 16.9982H7.06187V16.9811H7.1482V17.0836C7.1482 17.0494 7.11942 17.0323 7.06187 17.0323L7.0964 17.0836C7.05036 17.0836 7.00432 17.1064 6.95827 17.1519C6.95827 17.1861 6.95252 17.2032 6.94101 17.2032C6.95252 17.169 6.95252 17.1348 6.94101 17.1007C6.89496 17.0893 6.84892 17.0494 6.80288 16.9811C6.77986 16.9583 6.75684 16.9526 6.73381 16.964C6.71079 16.9754 6.69353 16.9811 6.68202 16.9811C6.68202 17.0494 6.64173 17.0836 6.56115 17.0836L6.54389 17.1007C6.54389 17.1121 6.56115 17.1348 6.59568 17.169L6.63022 17.2032C6.67626 17.2373 6.69928 17.2658 6.69928 17.2886C6.73381 17.2886 6.75108 17.3 6.75108 17.3228V17.3398H6.83741H6.88921C6.88921 17.3626 6.87194 17.374 6.83741 17.374C6.81439 17.3854 6.81439 17.4025 6.83741 17.4253C6.87194 17.4253 6.88921 17.4082 6.88921 17.374C6.93525 17.431 6.91799 17.4708 6.83741 17.4936C6.83741 17.5164 6.84892 17.5278 6.87194 17.5278C6.90648 17.5392 6.91223 17.5619 6.88921 17.5961C6.96979 17.5733 7.01007 17.5904 7.01007 17.6473H7.0964C7.0964 17.6815 7.13094 17.6986 7.2 17.6986H7.3036C7.3036 17.7214 7.28633 17.7328 7.2518 17.7328C7.2518 17.7669 7.25755 17.784 7.26907 17.784H7.3036C7.39568 17.784 7.44173 17.8011 7.44173 17.8353H7.51079C7.47626 17.858 7.45899 17.8751 7.45899 17.8865V17.9207V17.9719C7.45899 17.9719 7.47626 17.9719 7.51079 17.9719V17.8694H7.56259C7.59712 17.9264 7.64317 17.9264 7.70072 17.8694C7.71223 17.8467 7.73525 17.8182 7.76978 17.784V17.7328C7.81583 17.71 7.85612 17.71 7.89065 17.7328C7.91367 17.71 7.93094 17.7043 7.94245 17.7157C7.95396 17.7271 7.95971 17.7214 7.95971 17.6986V17.5961H7.97698C8 17.5961 8.01151 17.5904 8.01151 17.579C8.04604 17.5904 8.06331 17.6132 8.06331 17.6473H8.14964V17.784C8.18417 17.784 8.20144 17.7783 8.20144 17.7669V17.7328H8.2705V17.6986C8.33957 17.6986 8.36835 17.6758 8.35684 17.6303C8.34532 17.5847 8.36259 17.5505 8.40863 17.5278C8.42014 17.5164 8.4259 17.505 8.4259 17.4936L8.40863 17.4765H8.51223V17.374C8.51223 17.3512 8.50072 17.3341 8.4777 17.3228C8.46619 17.3228 8.46043 17.3114 8.46043 17.2886V17.2373V17.0836L8.51223 17.0323H8.46043C8.46043 16.9982 8.4777 16.9697 8.51223 16.9469C8.4777 16.9128 8.46043 16.89 8.46043 16.8786C8.48345 16.8558 8.49496 16.8387 8.49496 16.8273C8.49496 16.8273 8.48345 16.7989 8.46043 16.7419V16.6565C8.46043 16.6565 8.46619 16.6451 8.4777 16.6223V16.6052H8.46043V16.5369C8.46043 16.5711 8.4777 16.5882 8.51223 16.5882C8.51223 16.5996 8.51799 16.6052 8.5295 16.6052H8.56403C8.58705 16.5939 8.59281 16.5825 8.5813 16.5711C8.5813 16.5711 8.55827 16.5597 8.51223 16.5369C8.54676 16.5027 8.57554 16.4857 8.59856 16.4857C8.62158 16.5426 8.63885 16.5711 8.65036 16.5711C8.66187 16.5825 8.67914 16.5882 8.70216 16.5882C8.70216 16.5426 8.66763 16.4971 8.59856 16.4515V16.4002C8.63309 16.3661 8.69065 16.349 8.77122 16.349C8.71367 16.292 8.6964 16.2351 8.71942 16.1782C8.74245 16.1554 8.75971 16.1326 8.77122 16.1098C8.79424 16.087 8.79424 16.0472 8.77122 15.9902V15.9048H8.82302C8.84604 15.9048 8.85755 15.8934 8.85755 15.8707C8.86907 15.8593 8.88633 15.8536 8.90935 15.8536C8.90935 15.808 8.9554 15.7852 9.04748 15.7852C9.00144 15.7511 8.97266 15.734 8.96115 15.734C8.97266 15.7112 8.97842 15.6827 8.97842 15.6486C8.98993 15.6144 9.01295 15.5973 9.04748 15.5973C8.98993 15.5973 8.96115 15.5802 8.96115 15.5461C8.97266 15.5688 8.98993 15.5745 9.01295 15.5631C9.04748 15.5518 9.07626 15.5461 9.09928 15.5461C9.09928 15.4891 9.10504 15.4436 9.11655 15.4094C9.15108 15.4094 9.18561 15.4379 9.22014 15.4948C9.25468 15.4948 9.2777 15.4891 9.28921 15.4777C9.30072 15.4777 9.31223 15.472 9.32374 15.4606C9.34676 15.4265 9.39281 15.4094 9.46187 15.4094C9.47338 15.3866 9.48489 15.3638 9.4964 15.3411C9.50791 15.3297 9.50216 15.3126 9.47914 15.2898C9.46763 15.2556 9.4446 15.2386 9.41007 15.2386C9.41007 15.2158 9.39856 15.2044 9.37554 15.2044H9.35827V15.1019H9.46187V15.0165C9.46187 15.0051 9.46763 14.9937 9.47914 14.9823H9.53094C9.53094 14.9595 9.53669 14.9311 9.5482 14.8969C9.55971 14.8741 9.55396 14.857 9.53094 14.8456C9.53094 14.7545 9.51367 14.6919 9.47914 14.6577C9.47914 14.6236 9.47338 14.5894 9.46187 14.5552C9.46187 14.5324 9.46187 14.5097 9.46187 14.4869C9.40432 14.4869 9.35827 14.4584 9.32374 14.4015H9.41007C9.45612 14.3559 9.47914 14.3331 9.47914 14.3331C9.47914 14.3104 9.48489 14.299 9.4964 14.299H9.53094C9.50791 14.2534 9.50791 14.2192 9.53094 14.1965C9.56547 14.1737 9.59424 14.1566 9.61727 14.1452L9.58273 14.094C9.55971 14.094 9.54245 14.0826 9.53094 14.0598C9.51942 14.0484 9.50216 14.0313 9.47914 14.0085V13.9573L9.46187 13.906C9.46187 13.8947 9.46763 13.8719 9.47914 13.8377C9.39856 13.7808 9.34676 13.7352 9.32374 13.701L9.35827 13.6669C9.33525 13.6555 9.3295 13.6384 9.34101 13.6156C9.35252 13.5928 9.34676 13.5701 9.32374 13.5473C9.31223 13.5473 9.30648 13.5416 9.30648 13.5302L9.32374 13.5131V13.4106C9.32374 13.3992 9.3295 13.3764 9.34101 13.3423C9.36403 13.3081 9.38705 13.2796 9.41007 13.2569C9.38705 13.2569 9.36978 13.2512 9.35827 13.2398C9.35827 13.2398 9.34676 13.2113 9.32374 13.1544H9.35827C9.35827 13.143 9.35252 13.1316 9.34101 13.1202C9.3295 13.1202 9.32374 13.1031 9.32374 13.0689L9.35827 13.0519L9.37554 13.0348C9.39856 13.012 9.41007 12.9892 9.41007 12.9664C9.36403 12.9209 9.3813 12.8981 9.46187 12.8981C9.47338 12.8753 9.47914 12.8526 9.47914 12.8298C9.49065 12.807 9.50791 12.7842 9.53094 12.7614C9.53094 12.7045 9.53094 12.676 9.53094 12.676C9.54245 12.6646 9.57122 12.6589 9.61727 12.6589V12.5906C9.61727 12.5564 9.58849 12.5109 9.53094 12.4539C9.53094 12.4198 9.51367 12.4027 9.47914 12.4027C9.47914 12.3685 9.48489 12.3514 9.4964 12.3514H9.53094C9.56547 12.3514 9.58273 12.323 9.58273 12.266H9.6V12.2489C9.6 12.2489 9.60576 12.2375 9.61727 12.2148V12.1635C9.59424 12.1521 9.59424 12.1293 9.61727 12.0952C9.60576 12.0838 9.6 12.0724 9.6 12.061C9.58849 12.0496 9.58273 12.0325 9.58273 12.0098H9.53094V11.9585C9.53094 11.9016 9.55971 11.8731 9.61727 11.8731C9.67482 11.8503 9.69209 11.8275 9.66907 11.8048C9.65755 11.7706 9.64029 11.7421 9.61727 11.7193C9.59424 11.7193 9.58273 11.7023 9.58273 11.6681C9.52518 11.5884 9.46763 11.5485 9.41007 11.5485C9.36403 11.5257 9.33525 11.5143 9.32374 11.5143C9.32374 11.5029 9.32374 11.4688 9.32374 11.4118V11.3948H9.22014L9.20288 11.3435C9.21439 11.2638 9.25468 11.2638 9.32374 11.3435C9.34676 11.2979 9.37554 11.2695 9.41007 11.2581V11.2068C9.38705 11.2068 9.36403 11.2011 9.34101 11.1898C9.31799 11.167 9.29496 11.1556 9.27194 11.1556L9.22014 11.2068H9.11655C9.11655 11.1727 9.12806 11.1556 9.15108 11.1556C9.18561 11.1556 9.20288 11.1385 9.20288 11.1043C9.16835 11.0702 9.15108 11.0417 9.15108 11.0189H9.16835C9.19137 11.0189 9.20288 11.0018 9.20288 10.9677L9.22014 10.9164C9.22014 10.9164 9.21439 10.9107 9.20288 10.8993H9.11655C9.10504 10.9107 9.08777 10.9221 9.06475 10.9335C9.05324 10.9335 9.04748 10.9449 9.04748 10.9677C9.00144 10.9335 8.98993 10.905 9.01295 10.8822C9.01295 10.8709 9.02446 10.8595 9.04748 10.8481C9.08201 10.8139 9.10504 10.7968 9.11655 10.7968C9.13957 10.774 9.15108 10.7456 9.15108 10.7114C9.1741 10.7114 9.18561 10.7057 9.18561 10.6943C9.19712 10.6715 9.20863 10.6602 9.22014 10.6602H9.32374C9.30072 10.6146 9.27194 10.5804 9.23741 10.5577C9.20288 10.5235 9.1741 10.4779 9.15108 10.421V10.4039C9.1741 10.4039 9.18561 10.3982 9.18561 10.3868C9.19712 10.364 9.20863 10.3527 9.22014 10.3527C9.22014 10.3185 9.2259 10.3014 9.23741 10.3014H9.27194C9.3295 10.3014 9.35827 10.29 9.35827 10.2672C9.35827 10.2217 9.34676 10.1989 9.32374 10.1989C9.32374 10.1761 9.30648 10.159 9.27194 10.1477C9.24892 10.1363 9.24892 10.1078 9.27194 10.0622H9.32374V10.011C9.28921 9.97682 9.27194 9.92556 9.27194 9.85723V9.77181V9.72056C9.27194 9.70917 9.25468 9.68639 9.22014 9.65223C9.20863 9.65223 9.20288 9.62375 9.20288 9.56681C9.21439 9.56681 9.22014 9.54973 9.22014 9.51556V9.46431V9.43014C9.20863 9.39597 9.20863 9.36181 9.22014 9.32764C9.24317 9.31625 9.26043 9.30486 9.27194 9.29347C9.28345 9.27069 9.30072 9.2593 9.32374 9.2593C9.26619 9.23653 9.24317 9.21375 9.25468 9.19097C9.2777 9.1568 9.30072 9.12833 9.32374 9.10555L9.35827 9.07139C9.42734 9.07139 9.42734 9.03722 9.35827 8.96888V8.88347C9.42734 8.88347 9.46187 8.86069 9.46187 8.81513H9.41007C9.46763 8.81513 9.52518 8.76958 9.58273 8.67846C9.5482 8.6443 9.51367 8.62721 9.47914 8.62721C9.46763 8.61582 9.4446 8.59874 9.41007 8.57596C9.43309 8.55318 9.4446 8.53041 9.4446 8.50763C9.45612 8.47346 9.46763 8.43929 9.47914 8.40513V8.31971C9.45612 8.26276 9.45612 8.21721 9.47914 8.18304C9.46763 8.14887 9.46187 8.1147 9.46187 8.08054V8.06345C9.47338 8.06345 9.47914 8.04637 9.47914 8.0122V7.96095V7.92678C9.47914 7.9154 9.47338 7.9097 9.46187 7.9097C9.46187 7.89831 9.46763 7.88123 9.47914 7.85845C9.46763 7.83567 9.45612 7.82428 9.4446 7.82428C9.43309 7.81289 9.43885 7.79581 9.46187 7.77303C9.40432 7.75025 9.3813 7.72748 9.39281 7.7047C9.40432 7.68192 9.41007 7.65914 9.41007 7.63636C9.41007 7.6022 9.42734 7.58511 9.46187 7.58511C9.50791 7.58511 9.53094 7.61928 9.53094 7.68761C9.56547 7.68761 9.58273 7.71609 9.58273 7.77303C9.55971 7.77303 9.55396 7.78442 9.56547 7.8072C9.57698 7.81859 9.58273 7.83567 9.58273 7.85845C9.60576 7.85845 9.61727 7.85276 9.61727 7.84137V7.82428L9.66907 7.85845H9.61727V7.9097V7.94387C9.61727 7.95526 9.63453 7.96095 9.66907 7.96095C9.6 7.98373 9.58273 8.0179 9.61727 8.06345C9.61727 8.07484 9.61151 8.08623 9.6 8.09762C9.58849 8.09762 9.58273 8.10901 9.58273 8.13179C9.58273 8.15457 9.58849 8.17734 9.6 8.20012C9.61151 8.2229 9.61727 8.24568 9.61727 8.26846V8.40513C9.61727 8.45068 9.6518 8.47346 9.72086 8.47346V8.67846V8.76388V8.81513C9.72086 8.82652 9.70935 8.8436 9.68633 8.86638C9.67482 8.88916 9.66907 8.91763 9.66907 8.9518C9.66907 8.96319 9.67482 8.97458 9.68633 8.98597C9.70935 8.98597 9.72086 8.99736 9.72086 9.02013C9.72086 9.07708 9.68633 9.10555 9.61727 9.10555H9.58273C9.55971 9.10555 9.54245 9.11694 9.53094 9.13972C9.51942 9.1625 9.50216 9.18528 9.47914 9.20805L9.46187 9.22514C9.46187 9.29347 9.4446 9.34472 9.41007 9.37889C9.4446 9.41306 9.46187 9.48709 9.46187 9.60098C9.46187 9.62375 9.45612 9.64653 9.4446 9.66931C9.43309 9.69209 9.4446 9.70917 9.47914 9.72056C9.46763 9.77751 9.45036 9.81737 9.42734 9.84015C9.40432 9.86293 9.3813 9.8914 9.35827 9.92556C9.3813 9.92556 9.39856 9.93126 9.41007 9.94265C9.42158 9.95404 9.43885 9.95973 9.46187 9.95973C9.46187 10.0395 9.46187 10.0793 9.46187 10.0793V10.1477C9.46187 10.1818 9.46763 10.1989 9.47914 10.1989C9.5482 10.1989 9.59424 10.2046 9.61727 10.216C9.61727 10.2388 9.62302 10.2558 9.63453 10.2672C9.65755 10.2672 9.66907 10.2786 9.66907 10.3014V10.3527C9.63453 10.3527 9.61727 10.364 9.61727 10.3868V10.4039H9.6C9.58849 10.4039 9.57698 10.4096 9.56547 10.421C9.55396 10.421 9.54245 10.421 9.53094 10.421H9.4964C9.47338 10.421 9.46187 10.4381 9.46187 10.4722H9.41007H9.35827C9.35827 10.5064 9.37554 10.5235 9.41007 10.5235H9.46187C9.46187 10.5918 9.48489 10.6374 9.53094 10.6602C9.53094 10.6829 9.52518 10.7171 9.51367 10.7627C9.51367 10.7968 9.50216 10.8253 9.47914 10.8481V10.9164H9.58273V11.0189C9.60576 10.9961 9.63453 10.9847 9.66907 10.9847C9.7036 10.9734 9.73237 10.9677 9.7554 10.9677V10.9506C9.7554 10.9278 9.76115 10.9164 9.77266 10.9164H9.85899C9.92806 10.9164 9.96835 10.9335 9.97986 10.9677C9.97986 11.0018 9.99712 11.0303 10.0317 11.0531C10.0317 11.0872 10.0144 11.1214 9.97986 11.1556H9.91079C9.85324 11.1556 9.80144 11.1727 9.7554 11.2068C9.76691 11.2068 9.77266 11.2182 9.77266 11.241C9.78417 11.2524 9.80144 11.2581 9.82446 11.2581C9.77842 11.2695 9.7554 11.2695 9.7554 11.2581C9.7554 11.2581 9.74964 11.2467 9.73813 11.2239V11.2068H9.72086C9.68633 11.2068 9.66907 11.2182 9.66907 11.241V11.2581C9.66907 11.2695 9.66331 11.2979 9.6518 11.3435C9.64029 11.3777 9.66331 11.4004 9.72086 11.4118L9.66907 11.4631L9.7036 11.4973C9.71511 11.5086 9.73237 11.5143 9.7554 11.5143H9.82446C9.82446 11.5941 9.85324 11.6453 9.91079 11.6681C9.87626 11.6681 9.85899 11.6795 9.85899 11.7023V11.7193C9.89353 11.7535 9.89353 11.7877 9.85899 11.8218C9.89353 11.856 9.91079 11.8845 9.91079 11.9073C9.95683 11.9528 9.97986 11.987 9.97986 12.0098H9.96259C9.90504 12.0439 9.85899 12.0895 9.82446 12.1464L9.84173 12.1635C9.86475 12.1863 9.88777 12.2034 9.91079 12.2148V12.266C9.88777 12.2888 9.8705 12.2945 9.85899 12.2831C9.85899 12.2717 9.84748 12.266 9.82446 12.266C9.78993 12.2888 9.77266 12.3116 9.77266 12.3344C9.77266 12.3571 9.77266 12.3799 9.77266 12.4027C9.76115 12.4027 9.7554 12.4084 9.7554 12.4198C9.7554 12.4198 9.74389 12.4198 9.72086 12.4198C9.66331 12.4653 9.66331 12.5052 9.72086 12.5394V12.7102C9.72086 12.7671 9.73237 12.8127 9.7554 12.8469C9.73237 12.8469 9.72086 12.8639 9.72086 12.8981C9.7554 12.8981 9.78993 12.9038 9.82446 12.9152C9.80144 12.9152 9.78417 12.9323 9.77266 12.9664C9.76115 13.0006 9.7554 13.0291 9.7554 13.0519H9.66907V13.1373C9.61151 13.1373 9.59424 13.143 9.61727 13.1544H9.6C9.58849 13.1544 9.58273 13.1714 9.58273 13.2056C9.55971 13.2056 9.54245 13.2227 9.53094 13.2569C9.53094 13.291 9.53094 13.3195 9.53094 13.3423V13.4619V13.5473C9.56547 13.5815 9.58273 13.6213 9.58273 13.6669C9.52518 13.7124 9.48489 13.7523 9.46187 13.7865C9.48489 13.8548 9.53669 13.889 9.61727 13.889V13.906L9.66907 13.9573H9.61727V14.0085C9.62878 14.0199 9.64029 14.0256 9.6518 14.0256C9.66331 14.037 9.68633 14.0427 9.72086 14.0427V14.1623L9.66907 14.2135C9.69209 14.2363 9.7036 14.2534 9.7036 14.2648C9.7036 14.2876 9.69209 14.299 9.66907 14.299C9.63453 14.3217 9.63453 14.3388 9.66907 14.3502C9.69209 14.373 9.7036 14.4015 9.7036 14.4356C9.71511 14.4812 9.73237 14.5154 9.7554 14.5381V14.5894C9.73237 14.6008 9.72086 14.6406 9.72086 14.709V14.8627C9.69784 14.9197 9.68058 14.9652 9.66907 14.9994C9.66907 15.0336 9.66907 15.0677 9.66907 15.1019V15.2386V15.2898C9.62302 15.2898 9.6 15.3012 9.6 15.324C9.61151 15.3581 9.60576 15.3866 9.58273 15.4094C9.5482 15.4436 9.55971 15.472 9.61727 15.4948L9.66907 15.5461C9.64604 15.5461 9.62302 15.5518 9.6 15.5631C9.58849 15.5859 9.59424 15.5973 9.61727 15.5973V15.6486C9.61727 15.6713 9.61151 15.6827 9.6 15.6827C9.58849 15.6941 9.58273 15.7112 9.58273 15.734H9.66907H9.68633C9.70935 15.734 9.72086 15.7511 9.72086 15.7852C9.70935 15.7852 9.7036 15.7966 9.7036 15.8194C9.7036 15.8308 9.70935 15.8365 9.72086 15.8365L9.7554 15.8536C9.73237 15.8877 9.7036 15.9048 9.66907 15.9048C9.7036 15.939 9.73237 15.9561 9.7554 15.9561L9.66907 16.0415C9.66907 16.0073 9.65755 15.9902 9.63453 15.9902H9.61727C9.59424 16.013 9.57122 16.0358 9.5482 16.0586C9.53669 16.0814 9.53094 16.1041 9.53094 16.1269C9.53094 16.1497 9.53669 16.1725 9.5482 16.1952C9.57122 16.218 9.58273 16.2351 9.58273 16.2465V16.2636C9.58273 16.275 9.56547 16.2807 9.53094 16.2807C9.50791 16.3148 9.49065 16.349 9.47914 16.3832C9.46763 16.4173 9.46763 16.4686 9.47914 16.5369C9.46763 16.5483 9.46187 16.5597 9.46187 16.5711V16.6052V16.6223C9.46187 16.6337 9.46763 16.6451 9.47914 16.6565V16.7419C9.4446 16.7647 9.41583 16.7818 9.39281 16.7932C9.36978 16.8046 9.35827 16.833 9.35827 16.8786H9.27194C9.26043 16.8786 9.24892 16.8729 9.23741 16.8615C9.2259 16.8615 9.21439 16.8558 9.20288 16.8444V16.7248V16.6565C9.17986 16.6565 9.16835 16.6451 9.16835 16.6223C9.16835 16.6109 9.17986 16.6052 9.20288 16.6052C9.14532 16.5825 9.11655 16.5597 9.11655 16.5369C9.10504 16.5369 9.09928 16.554 9.09928 16.5882C9.06475 16.5882 9.04748 16.5939 9.04748 16.6052C9.05899 16.628 9.0705 16.6451 9.08202 16.6565C9.09353 16.6679 9.09928 16.6793 9.09928 16.6907V16.7248V16.7419C8.98417 16.7875 8.96691 16.833 9.04748 16.8786H9.01295C9.00144 16.8786 8.98993 16.8843 8.97842 16.8957C8.96691 16.9298 8.96691 16.9583 8.97842 16.9811C8.98993 16.9811 9.00719 16.9925 9.03022 17.0153C9.03022 17.0266 9.03597 17.0323 9.04748 17.0323H9.09928C9.09928 17.0665 9.08201 17.0836 9.04748 17.0836H9.11655V17.1519H9.15108V17.2886C9.12806 17.2886 9.11655 17.3171 9.11655 17.374C9.11655 17.3854 9.11079 17.3968 9.09928 17.4082V17.4253C9.01871 17.4253 8.97842 17.3968 8.97842 17.3398C8.96691 17.3512 8.96115 17.3569 8.96115 17.3569C8.96115 17.3683 8.9554 17.3797 8.94389 17.3911L8.90935 17.4253C8.90935 17.448 8.91511 17.4651 8.92662 17.4765C8.94964 17.4879 8.96115 17.505 8.96115 17.5278V17.579C8.96115 17.5904 8.91511 17.5961 8.82302 17.5961H8.71942C8.73094 17.6189 8.74245 17.6303 8.75396 17.6303C8.76547 17.6417 8.77122 17.653 8.77122 17.6644V17.6986H8.70216C8.71367 17.7442 8.71367 17.7783 8.70216 17.8011C8.70216 17.8353 8.70791 17.8751 8.71942 17.9207V17.9719C8.70791 17.9833 8.68489 17.989 8.65036 17.989C8.61583 17.989 8.58705 17.989 8.56403 17.989L8.59856 17.9719V17.9207C8.51799 17.8751 8.45468 17.8922 8.40863 17.9719V17.989H8.46043V18.0232C8.46043 18.0346 8.4777 18.0403 8.51223 18.0403V18.0915C8.50072 18.1029 8.48921 18.1086 8.4777 18.1086C8.46619 18.1086 8.46043 18.1143 8.46043 18.1257V18.1428C8.46043 18.1655 8.46619 18.1826 8.4777 18.194C8.48921 18.2168 8.48345 18.2282 8.46043 18.2282V18.3478C8.44892 18.3592 8.44317 18.3706 8.44317 18.3819C8.44317 18.4161 8.44892 18.4332 8.46043 18.4332V18.5357V18.5528C8.46043 18.5642 8.44317 18.5699 8.40863 18.5699L8.35684 18.6211H8.3223V18.6724L8.35684 18.6894V18.7407V18.8432V18.8774C8.35684 18.8888 8.34532 18.8944 8.3223 18.8944L8.46043 19.0311V18.9799C8.46043 18.9913 8.46619 19.0026 8.4777 19.014C8.50072 19.0368 8.51223 19.0539 8.51223 19.0653H8.46043C8.48345 19.0881 8.50648 19.1051 8.5295 19.1165C8.55252 19.1279 8.56403 19.145 8.56403 19.1678V19.1849V19.2361C8.50648 19.2817 8.47194 19.3101 8.46043 19.3215C8.46043 19.3329 8.46043 19.3671 8.46043 19.424H8.40863H8.35684H8.3223C8.25324 19.424 8.21295 19.4411 8.20144 19.4753C8.20144 19.4411 8.18993 19.424 8.16691 19.424H8.14964V19.4582C8.14964 19.4924 8.16691 19.5152 8.20144 19.5265C8.20144 19.4924 8.2072 19.4753 8.21871 19.4753C8.2072 19.4981 8.17842 19.5152 8.13238 19.5265C8.08633 19.5379 8.07482 19.5607 8.09784 19.5949H8.01151C7.98849 19.5949 7.97122 19.6063 7.95971 19.629C7.95971 19.6518 7.95971 19.6689 7.95971 19.6803C7.99425 19.6803 7.99425 19.6974 7.95971 19.7315V19.817V19.8682C7.99425 19.8682 8.01151 19.8796 8.01151 19.9024V19.9195C8.03453 19.9309 8.04029 19.9365 8.02878 19.9365C8.01727 19.9479 8.01151 19.965 8.01151 19.9878C8.01151 20.022 7.99425 20.039 7.95971 20.039C7.95971 20.0846 7.99425 20.1302 8.06331 20.1757H8.09784C8.13237 20.1757 8.16691 20.1928 8.20144 20.227C8.16691 20.227 8.13237 20.2441 8.09784 20.2782C8.12086 20.2782 8.13813 20.2839 8.14964 20.2953C8.16115 20.3067 8.17842 20.3124 8.20144 20.3124C8.16691 20.3466 8.13237 20.3466 8.09784 20.3124H8.06331C8.02878 20.3466 8.02878 20.3807 8.06331 20.4149V20.3636L8.09784 20.4149V20.5345C8.07482 20.5345 8.06907 20.5516 8.08058 20.5857C8.09209 20.6199 8.09784 20.6484 8.09784 20.6711C8.13237 20.6825 8.16691 20.6882 8.20144 20.6882V20.7907C8.23597 20.8249 8.24748 20.8591 8.23597 20.8932C8.22446 20.9274 8.21871 20.973 8.21871 21.0299C8.21871 20.9957 8.19568 20.9786 8.14964 20.9786L8.20144 21.0299V21.0641H8.21871H8.3223V21.2349H8.33957C8.35108 21.2349 8.35684 21.2406 8.35684 21.252C8.36835 21.2634 8.38561 21.2748 8.40863 21.2862C8.44317 21.2862 8.46043 21.3203 8.46043 21.3887C8.51799 21.4228 8.56403 21.4684 8.59856 21.5253C8.62158 21.5253 8.6446 21.531 8.66763 21.5424C8.69065 21.5538 8.70791 21.5595 8.71942 21.5595C8.75396 21.5595 8.77122 21.5937 8.77122 21.662C8.77122 21.6962 8.77698 21.7246 8.78849 21.7474C8.81151 21.7816 8.82302 21.8214 8.82302 21.867V21.9353C8.88058 21.9353 8.90935 21.9467 8.90935 21.9695L8.87482 22.0037C8.86331 22.015 8.85755 22.0321 8.85755 22.0549H8.87482C8.89784 22.0549 8.90935 22.072 8.90935 22.1062C8.96691 22.1631 8.98417 22.2485 8.96115 22.3624C8.93813 22.3624 8.92662 22.3624 8.92662 22.3624C8.92662 22.3738 8.93813 22.3795 8.96115 22.3795V22.4308C8.93813 22.4763 8.93237 22.5105 8.94389 22.5333C8.9554 22.5674 8.96115 22.5959 8.96115 22.6187C8.96115 22.687 8.98993 22.7212 9.04748 22.7212C9.0705 22.7212 9.08777 22.7269 9.09928 22.7383C9.11079 22.7496 9.12806 22.7553 9.15108 22.7553C9.15108 22.7781 9.15684 22.8009 9.16835 22.8237C9.19137 22.8465 9.20863 22.8635 9.22014 22.8749H9.23741C9.26043 22.8749 9.27194 22.892 9.27194 22.9262V22.9603C9.27194 22.9717 9.28921 22.9774 9.32374 22.9774V23.0628L9.35827 23.1141V23.1312C9.41583 23.1881 9.45612 23.228 9.47914 23.2508C9.50216 23.2735 9.50216 23.3134 9.47914 23.3703C9.50216 23.3703 9.51942 23.376 9.53094 23.3874C9.54245 23.4102 9.55971 23.4216 9.58273 23.4216C9.60576 23.4444 9.62302 23.4672 9.63453 23.4899C9.65755 23.5127 9.66907 23.5355 9.66907 23.5583C9.66907 23.5924 9.66907 23.6152 9.66907 23.6266C9.68058 23.638 9.70935 23.6722 9.7554 23.7291V23.6779H9.77266L9.85899 23.7633H9.91079C9.94532 23.786 9.96835 23.8088 9.97986 23.8316C9.99137 23.8544 10.0086 23.8658 10.0317 23.8658C10.0317 23.8886 10.0201 23.9113 9.99712 23.9341C9.98561 23.9569 9.97986 23.9797 9.97986 24.0024C10.0144 24.0366 10.0432 24.0537 10.0662 24.0537C10.0892 24.0765 10.095 24.1049 10.0835 24.1391C10.0719 24.1733 10.0662 24.2018 10.0662 24.2245H10.1698V24.2416C10.1698 24.253 10.1755 24.2587 10.1871 24.2587H10.3079C10.377 24.3043 10.4173 24.3043 10.4288 24.2587C10.4863 24.2815 10.5151 24.3043 10.5151 24.327C10.5266 24.3612 10.5324 24.4011 10.5324 24.4466C10.5554 24.4808 10.5669 24.5093 10.5669 24.532C10.5784 24.5548 10.5957 24.5833 10.6187 24.6175C10.6417 24.6175 10.659 24.6288 10.6705 24.6516C10.6935 24.6744 10.7338 24.6972 10.7914 24.72L10.8259 24.7541C10.8259 24.7769 10.8317 24.794 10.8432 24.8054C10.8662 24.8168 10.8777 24.8338 10.8777 24.8566C10.9468 24.868 11.0101 24.9193 11.0676 25.0104C11.0906 25.0104 11.0906 25.0275 11.0676 25.0616C11.0561 25.0958 11.0734 25.1243 11.1194 25.147C11.177 25.147 11.177 25.1186 11.1194 25.0616C11.154 25.0844 11.1885 25.1186 11.223 25.1641C11.2691 25.2211 11.3036 25.2894 11.3266 25.3691H11.2921L11.2403 25.352C11.2173 25.3407 11.2058 25.3293 11.2058 25.3179C11.2058 25.3065 11.2 25.3008 11.1885 25.3008H11.1712V25.352C11.1482 25.3862 11.1424 25.4147 11.154 25.4375C11.177 25.4602 11.2058 25.4716 11.2403 25.4716H11.2921H11.3784V25.6425H11.3266C11.3266 25.6766 11.3439 25.6937 11.3784 25.6937C11.3784 25.7507 11.3842 25.7962 11.3957 25.8304C11.4187 25.8646 11.4302 25.9101 11.4302 25.9671V26.0696C11.4302 26.1265 11.436 26.1664 11.4475 26.1891C11.459 26.2119 11.4647 26.2518 11.4647 26.3087C11.4878 26.3543 11.4993 26.3941 11.4993 26.4283C11.5108 26.4625 11.5165 26.508 11.5165 26.565C11.5165 26.6219 11.5223 26.6675 11.5338 26.7016C11.5568 26.7472 11.5741 26.7928 11.5856 26.8383C11.6201 26.8725 11.6374 26.9067 11.6374 26.9408V27.1117C11.6374 27.18 11.6489 27.2426 11.6719 27.2996C11.695 27.3565 11.718 27.4078 11.741 27.4533C11.741 27.4875 11.7583 27.5217 11.7928 27.5558V27.59C11.8388 27.6469 11.8676 27.6868 11.8791 27.7096C11.8906 27.7437 11.9079 27.7779 11.9309 27.8121C11.9309 27.8349 11.9309 27.8576 11.9309 27.8804C11.9424 27.9032 11.9482 27.926 11.9482 27.9488ZM9.53094 10.2672C9.50791 10.2672 9.49065 10.2615 9.47914 10.2502C9.46763 10.2388 9.46187 10.2445 9.46187 10.2672C9.46187 10.3242 9.46763 10.3697 9.47914 10.4039C9.47914 10.3697 9.48489 10.3527 9.4964 10.3527H9.53094V10.2672ZM1.81295 12.5052C1.81295 12.471 1.79568 12.4539 1.76115 12.4539V12.5052H1.81295ZM3.83309 12.5906C3.83309 12.5678 3.83885 12.5564 3.85036 12.5564C3.86187 12.545 3.86763 12.528 3.86763 12.5052H3.83309V12.5906ZM3.86763 12.5052C3.90216 12.5052 3.91943 12.4881 3.91943 12.4539C3.91943 12.4881 3.90216 12.5052 3.86763 12.5052ZM5.54245 17.2373C5.50791 17.2373 5.49065 17.2544 5.49065 17.2886H5.54245V17.2373ZM7.3036 20.9103C7.3036 20.9559 7.28633 20.9786 7.2518 20.9786C7.2518 21.0014 7.25755 21.0071 7.26907 20.9957C7.29209 20.9843 7.31511 20.9786 7.33813 20.9786C7.31511 20.9786 7.3036 20.9559 7.3036 20.9103ZM9.72086 12.5394C9.72086 12.5166 9.7036 12.4881 9.66907 12.4539L9.7554 12.5394H9.72086ZM3.4705 12.266H3.43597V12.2148C3.45899 12.2148 3.4705 12.2262 3.4705 12.2489C3.48201 12.2603 3.49928 12.266 3.5223 12.266H3.4705ZM7.2 20.432V20.4832C7.18849 20.4832 7.18273 20.4775 7.18273 20.4661C7.18273 20.4434 7.18849 20.432 7.2 20.432Z" fill="black"/>
</svg>
