<svg width="13" height="14" viewBox="0 0 13 14" fill="none" xmlns="http://www.w3.org/2000/svg">
<path d="M13 7.67979H12.9665C12.9442 7.70429 12.9274 7.72266 12.9162 7.73491C12.9162 7.73491 12.9051 7.73491 12.8827 7.73491H12.9162V7.84514V7.93701L12.8827 7.97375H12.799C12.799 7.99825 12.7934 8.01662 12.7822 8.02887C12.7822 8.04112 12.7822 8.05337 12.7822 8.06562L12.7655 8.08399H12.732V8.10236C12.6873 8.10236 12.6649 8.09624 12.6649 8.08399C12.6649 8.09624 12.6649 8.12074 12.6649 8.15748C12.6649 8.19423 12.6538 8.2126 12.6314 8.2126V8.24934V8.30446L12.5644 8.24934V8.30446L12.6649 8.34121H12.5644C12.5533 8.34121 12.5477 8.3657 12.5477 8.4147C12.5477 8.45144 12.5309 8.46982 12.4974 8.46982H12.4639H12.4304V8.54331V8.56168V8.6168C12.3634 8.6168 12.3187 8.65354 12.2964 8.72703H12.3131V8.80053C12.302 8.80053 12.2964 8.80665 12.2964 8.8189L12.2461 8.91076H12.2294C12.2182 8.91076 12.2126 8.91689 12.2126 8.92913H12.2461L12.2126 9.021C12.2126 9.04549 12.2182 9.05774 12.2294 9.05774C12.2405 9.05774 12.235 9.06387 12.2126 9.07612V9.14961L12.1121 9.07612V9.14961H12.0786H12.0283V9.16798V9.25984H12.0116L11.9613 9.31496V9.38845V9.4252H11.8943V9.51706L11.7771 9.55381L11.7436 9.51706V9.55381V9.6273C11.7659 9.6273 11.7771 9.64567 11.7771 9.68241C11.7771 9.76815 11.7659 9.81102 11.7436 9.81102C11.7436 9.86002 11.7212 9.88451 11.6765 9.88451L11.6598 9.92126V10.0131V10.1417L11.5928 10.1234V10.1417C11.6486 10.2275 11.6486 10.2703 11.5928 10.2703C11.5928 10.2948 11.5872 10.3132 11.576 10.3255C11.5649 10.3377 11.5593 10.3561 11.5593 10.3806V10.399H11.5258V10.5092H11.5593V10.6011H11.5258V10.6378V10.7297L11.442 10.8399H11.4085L11.3415 10.8583H11.3247V10.895V10.9685V11.0053V11.0787V11.1155L11.2745 11.2073C11.2298 11.2196 11.1907 11.2502 11.1572 11.2992H11.1237V11.336V11.3911H11.1572V11.4462L11.1237 11.4646V11.5932H11.0902L11.0232 11.7034C11.1125 11.7279 11.1349 11.8014 11.0902 11.9239C11.079 11.9361 11.0735 11.9484 11.0735 11.9606C11.0623 11.9729 11.0567 11.9851 11.0567 11.9974C11.0567 12.0096 11.0455 12.0219 11.0232 12.0341C10.9897 12.0341 10.9729 12.0525 10.9729 12.0892V12.1627H10.9227C10.8892 12.175 10.8501 12.1811 10.8054 12.1811V12.273V12.3648C10.7496 12.3648 10.7161 12.3771 10.7049 12.4016C10.6937 12.4138 10.6826 12.4322 10.6714 12.4567V12.4934C10.6714 12.5057 10.6602 12.5118 10.6379 12.5118H10.6714L10.6379 12.5486H10.6714H10.6379C10.6379 12.5976 10.61 12.622 10.5541 12.622H10.4536V12.6588H10.3866H10.3363L10.2358 12.7139C10.2358 12.7752 10.2023 12.8058 10.1353 12.8058C10.1353 12.8303 10.1297 12.8486 10.1186 12.8609C10.1186 12.8731 10.1186 12.8854 10.1186 12.8976V12.916C10.0739 12.9528 10.046 12.9834 10.0348 13.0079C10.0348 13.0201 10.0236 13.0262 10.0013 13.0262C9.99012 13.0507 9.98454 13.0691 9.98454 13.0814C9.9622 13.1059 9.94545 13.1181 9.93428 13.1181V13.1732H9.80026H9.76675H9.69974L9.66624 13.1916C9.66624 13.2283 9.65507 13.2467 9.63273 13.2467H9.59923V13.2835H9.49871C9.49871 13.259 9.49313 13.2467 9.48196 13.2467V13.3753H9.36469V13.4121H9.31443C9.26976 13.4121 9.24184 13.3998 9.23067 13.3753H9.18041C9.15808 13.3753 9.14132 13.3753 9.13015 13.3753C9.13015 13.3631 9.10782 13.3325 9.06314 13.2835V13.3753H9.01289C9.00172 13.3753 8.99613 13.3876 8.99613 13.4121H8.92912H8.82861C8.80627 13.3876 8.77835 13.3753 8.74485 13.3753H8.66108H8.59407V13.4121H8.56057H8.49356H8.46005L8.39304 13.4856C8.3707 13.4978 8.35395 13.5101 8.34278 13.5223C8.34278 13.5223 8.32045 13.5346 8.27577 13.5591V13.5958C8.27577 13.608 8.27019 13.6203 8.25902 13.6325C8.25902 13.657 8.24785 13.6815 8.22551 13.706C8.21435 13.7305 8.18643 13.7428 8.14175 13.7428L8.10825 13.7795H8.05799H8.04124H7.95747H7.90722H7.8067H7.72294H7.68943H7.60567C7.561 13.8653 7.52191 13.8653 7.4884 13.7795H7.40464H7.38789H7.23711C7.19244 13.8285 7.1701 13.8408 7.1701 13.8163C7.15893 13.8163 7.15893 13.804 7.1701 13.7795H7.15335V13.853C7.09751 13.8775 7.05283 13.8898 7.01933 13.8898C6.96349 13.8898 6.92998 13.8898 6.91881 13.8898C6.91881 13.902 6.91881 13.9265 6.91881 13.9633C6.89648 13.9878 6.86297 14 6.8183 14H6.76804H6.70103H6.65077H6.58376V13.9633H6.60051H6.58376H6.46649H6.41624V13.8898H6.36598L6.31572 13.9633V13.8898V13.9633L6.1817 13.8898H6.13144H6.08118V13.9633H6.01417L5.96392 13.8898C5.95275 13.8898 5.93041 13.8959 5.89691 13.9081C5.87457 13.9326 5.8634 13.9265 5.8634 13.8898L5.8299 13.853L5.72938 13.8898V13.853H5.52835H5.47809L5.42783 13.7795H5.39433C5.39433 13.7918 5.38874 13.7979 5.37758 13.7979C5.37758 13.8101 5.37758 13.8224 5.37758 13.8346V13.853C5.3329 13.8163 5.30498 13.7979 5.29381 13.7979C5.29381 13.7979 5.28265 13.8163 5.26031 13.853H5.1933V13.7795L5.15979 13.853L5.09278 13.7795H5.04253H4.99227C4.99227 13.7183 4.96993 13.6693 4.92526 13.6325C4.86942 13.6325 4.83591 13.6142 4.82474 13.5774C4.81357 13.5284 4.80799 13.4978 4.80799 13.4856H4.74098V13.4488C4.74098 13.4366 4.73539 13.4243 4.72423 13.4121C4.71306 13.4243 4.70189 13.4304 4.69072 13.4304C4.67955 13.4427 4.66838 13.4488 4.65722 13.4488C4.64605 13.4488 4.64046 13.4611 4.64046 13.4856V13.5039H4.57345C4.56228 13.5039 4.5567 13.4978 4.5567 13.4856H4.50644V13.4121H4.48969V13.3753H4.42268H4.38917H4.32216C4.32216 13.3508 4.31658 13.3386 4.30541 13.3386C4.30541 13.3263 4.30541 13.3141 4.30541 13.3018L4.28866 13.2835L4.22165 13.2467H4.17139H4.10438V13.2835L4.08763 13.1916V13.2283C4.08763 13.2406 4.07088 13.2467 4.03737 13.2467H3.98711L3.81959 13.1732H3.76933H3.75258H3.63531H3.6018L3.55155 13.0262V13.1181L3.53479 13.0262H3.46778C3.43428 13.0262 3.41753 13.014 3.41753 12.9895H3.40077C3.40077 12.9405 3.38402 12.916 3.35051 12.916H3.2835L3.21649 12.8976V12.8609C3.21649 12.8241 3.19974 12.8058 3.16624 12.8058L3.09923 12.7874V12.7139V12.7874H3.06572H3.01546C2.99313 12.7874 2.96521 12.7874 2.9317 12.7874C2.90936 12.7752 2.8982 12.7507 2.8982 12.7139C2.8982 12.7139 2.8982 12.7078 2.8982 12.6955V12.6588L2.88144 12.622L2.84794 12.5486H2.76417H2.73067V12.5118H2.66366C2.66366 12.5118 2.65808 12.4996 2.64691 12.4751V12.4567H2.63015L2.56314 12.4199H2.46263H2.41237V12.3648V12.4199H2.37887V12.3648C2.34536 12.3648 2.32861 12.3342 2.32861 12.273V12.2178H2.31186H2.21134C2.21134 12.1934 2.21692 12.175 2.22809 12.1627C2.23926 12.1505 2.27277 12.126 2.32861 12.0892C2.32861 12.0525 2.32302 12.0341 2.31186 12.0341C2.31186 12.0586 2.2951 12.0709 2.2616 12.0709C2.22809 12.0709 2.21134 12.0586 2.21134 12.0341H2.19459L2.12758 11.979L2.09407 11.9239H2.06057L1.9768 11.8504H2.06057V11.832L1.9768 11.7218C1.96564 11.7095 1.96005 11.6912 1.96005 11.6667L1.9768 11.6115C1.96564 11.6115 1.96005 11.6054 1.96005 11.5932H1.90979C1.90979 11.5319 1.90421 11.4952 1.89304 11.4829C1.89304 11.4707 1.88187 11.4646 1.85954 11.4646V11.4462V11.3911C1.85954 11.4523 1.82045 11.4523 1.74227 11.3911C1.69759 11.3911 1.66967 11.3727 1.6585 11.336C1.63617 11.336 1.60825 11.3237 1.57474 11.2992H1.50773C1.44072 11.2992 1.40722 11.2747 1.40722 11.2257C1.36254 11.2257 1.34021 11.2196 1.34021 11.2073H1.32345C1.32345 11.1461 1.30112 11.1155 1.25644 11.1155H1.22294C1.22294 11.091 1.21735 11.0787 1.20619 11.0787C1.20619 11.0787 1.17826 11.0787 1.12242 11.0787V11.0053V10.895C1.10009 10.895 1.08892 10.8828 1.08892 10.8583H1.00515C1.00515 10.8583 0.993986 10.8521 0.971649 10.8399H0.921392V10.7848C0.921392 10.748 0.910223 10.7297 0.887886 10.7297L0.971649 10.6929C0.938144 10.6929 0.921392 10.6745 0.921392 10.6378V10.6011C0.910223 10.5888 0.904639 10.5766 0.904639 10.5643C0.904639 10.5398 0.910223 10.5214 0.921392 10.5092V10.399V10.3806C0.899055 10.3928 0.86555 10.399 0.820876 10.399C0.798539 10.3867 0.776203 10.3806 0.753866 10.3806C0.742698 10.3683 0.737113 10.3316 0.737113 10.2703C0.737113 10.2581 0.748282 10.252 0.770618 10.252L0.737113 10.1417L0.770618 10.1234V10.0682V10.0131V9.92126V9.88451H0.820876H0.887886L0.820876 9.86614V9.81102H0.887886V9.75591L0.820876 9.81102V9.75591V9.6273C0.798539 9.6273 0.781787 9.61505 0.770618 9.59055C0.770618 9.56605 0.75945 9.55381 0.737113 9.55381V9.51706V9.4252H0.770618L0.737113 9.38845V9.31496V9.25984V9.16798V9.14961V9.07612C0.714777 9.07612 0.698024 9.07612 0.686856 9.07612C0.686856 9.06387 0.675687 9.05774 0.65335 9.05774L0.569588 9.021H0.686856V8.98425C0.686856 8.94751 0.675687 8.92913 0.65335 8.92913C0.65335 8.91689 0.636598 8.91076 0.603093 8.91076C0.580756 8.89851 0.569588 8.86789 0.569588 8.8189C0.569588 8.80665 0.580756 8.80053 0.603093 8.80053C0.636598 8.78828 0.65335 8.76378 0.65335 8.72703L0.569588 8.80053L0.65335 8.67192V8.56168V8.54331V8.46982V8.4147V8.24934L0.569588 8.2126V8.10236V8.08399C0.536082 8.08399 0.536082 8.04724 0.569588 7.97375H0.536082V7.93701V7.86352L0.485825 7.84514H0.469072L0.536082 7.73491L0.485825 7.71654H0.536082L0.569588 7.67979H0.536082L0.485825 7.56955H0.469072V7.49606H0.485825C0.474656 7.49606 0.469072 7.48994 0.469072 7.47769C0.457904 7.46544 0.45232 7.45319 0.45232 7.44094C0.45232 7.4287 0.446735 7.41645 0.435567 7.4042C0.435567 7.3797 0.446735 7.35521 0.469072 7.33071C0.435567 7.33071 0.418814 7.32458 0.418814 7.31234V7.27559V7.23885H0.335052V7.14698V7.09186H0.469072V7.03675V7C0.469072 6.98775 0.463488 6.9755 0.45232 6.96325C0.441151 6.95101 0.429983 6.93263 0.418814 6.90814C0.362972 6.90814 0.329467 6.90201 0.318299 6.88976C0.307131 6.87752 0.301546 6.84077 0.301546 6.77953H0.335052V6.76115H0.234536V6.77953H0.201031V6.76115V6.72441V6.66929C0.189863 6.66929 0.178694 6.66317 0.167526 6.65092C0.156357 6.63867 0.150773 6.61417 0.150773 6.57743C0.128436 6.54068 0.128436 6.49781 0.150773 6.44882V6.3937C0.150773 6.34471 0.139605 6.30796 0.117268 6.28346V6.26509C0.0837629 6.26509 0.0614261 6.24672 0.0502577 6.20997C0.0390893 6.19773 0.0335051 6.17935 0.0335051 6.15486L0 6.13648V6.06299V6.00787V5.91601V5.89764V5.7874V5.75066C0 5.71391 0.0111684 5.69554 0.0335051 5.69554V5.65879L0 5.5853H0.0335051V5.45669V5.41995C0.0781786 5.39545 0.089347 5.37095 0.0670103 5.34646C0.0446735 5.30971 0.0335051 5.26072 0.0335051 5.19948C0.0111684 5.19948 0 5.19335 0 5.1811L0.0335051 5.12598H0.0670103C0.100515 5.12598 0.117268 5.14436 0.117268 5.1811V5.19948C0.139605 5.19948 0.150773 5.21172 0.150773 5.23622V5.27297C0.184278 5.27297 0.201031 5.28521 0.201031 5.30971V5.32808V5.3832C0.201031 5.4077 0.212199 5.4322 0.234536 5.45669H0.335052V5.41995H0.418814L0.469072 5.3832L0.335052 5.27297L0.469072 5.32808L0.485825 5.27297V5.19948H0.536082H0.569588H0.65335C0.65335 5.15048 0.664519 5.12598 0.686856 5.12598L0.737113 5.07087V4.94226H0.770618V4.92388V4.88714C0.770618 4.86264 0.787371 4.85039 0.820876 4.85039H0.887886V4.83202C0.887886 4.83202 0.899055 4.8259 0.921392 4.81365H0.887886V4.74016H0.820876L0.887886 4.68504V4.5748L0.921392 4.50131V4.48294V4.42782H1.08892L1.18943 4.50131C1.23411 4.50131 1.25644 4.45844 1.25644 4.3727H1.22294V4.31759V4.22572L1.25644 4.20735H1.32345V4.13386V4.11549V4.07874V3.98688V3.93176V3.87664L1.25644 3.93176L1.32345 3.83989V3.78478L1.34021 3.72966H1.32345C1.32345 3.69291 1.30112 3.67454 1.25644 3.67454C1.25644 3.68679 1.25086 3.69904 1.23969 3.71129V3.72966H1.22294H1.18943L1.08892 3.78478C1.04424 3.78478 1.01074 3.78478 0.988402 3.78478C0.966065 3.77253 0.943728 3.73578 0.921392 3.67454C0.921392 3.68679 0.915807 3.69904 0.904639 3.71129V3.72966H0.887886V3.78478H0.820876H0.770618L0.737113 3.83989C0.725945 3.85214 0.714777 3.85827 0.703608 3.85827C0.69244 3.87052 0.675687 3.87664 0.65335 3.87664V3.98688V4.07874H0.569588H0.536082C0.513746 4.10324 0.496993 4.12161 0.485825 4.13386C0.474656 4.14611 0.469072 4.1706 0.469072 4.20735H0.418814H0.301546C0.301546 4.2196 0.295962 4.23185 0.284794 4.24409C0.284794 4.24409 0.268041 4.26859 0.234536 4.31759V4.3727L0.201031 4.42782C0.201031 4.45232 0.189863 4.48294 0.167526 4.51969C0.156357 4.55643 0.139605 4.5748 0.117268 4.5748C0.117268 4.5993 0.111684 4.60542 0.100515 4.59318C0.100515 4.58093 0.0781786 4.5748 0.0335051 4.5748V4.50131H0.117268V4.48294C0.139605 4.48294 0.150773 4.44619 0.150773 4.3727V4.31759V4.22572H0.117268H0.150773C0.184278 4.22572 0.201031 4.1951 0.201031 4.13386V4.11549H0.234536C0.223368 4.11549 0.223368 4.10936 0.234536 4.09711H0.251289C0.262457 4.09711 0.268041 4.09711 0.268041 4.09711C0.27921 4.08486 0.290378 4.07874 0.301546 4.07874V3.98688V3.93176H0.335052L0.418814 3.98688V3.93176H0.435567C0.457904 3.93176 0.469072 3.91339 0.469072 3.87664V3.83989V3.78478H0.536082L0.569588 3.72966H0.65335C0.65335 3.69291 0.664519 3.67454 0.686856 3.67454V3.61942L0.737113 3.67454L0.770618 3.61942H0.753866C0.753866 3.61942 0.75945 3.6133 0.770618 3.60105C0.770618 3.53981 0.787371 3.49694 0.820876 3.47244H0.887886V3.39895H0.921392H0.887886V3.36221H0.921392C0.921392 3.32546 0.949313 3.30709 1.00515 3.30709V3.27034L1.08892 3.1601L1.12242 3.14173C1.1671 3.11724 1.2006 3.10499 1.22294 3.10499V3.0315C1.22294 3.007 1.22852 2.99475 1.23969 2.99475H1.25644V2.92126V2.90289H1.32345V2.79265C1.32345 2.7804 1.32904 2.77428 1.34021 2.77428V2.64567L1.40722 2.70079V2.64567H1.34021H1.32345L1.34021 2.60892C1.32904 2.57218 1.32345 2.54768 1.32345 2.53543L1.25644 2.4252H1.32345H1.34021H1.40722L1.45747 2.33333V2.38845L1.50773 2.33333V2.29659H1.57474L1.50773 2.16798H1.57474C1.59708 2.21697 1.60825 2.22922 1.60825 2.20472C1.61942 2.18023 1.63617 2.16798 1.6585 2.16798H1.74227V2.14961H1.80928C1.80928 2.08836 1.82603 2.05774 1.85954 2.05774L1.90979 2.021H1.96005H2.06057C2.06057 1.98425 2.0829 1.96588 2.12758 1.96588V1.91076L2.19459 1.96588C2.19459 1.92913 2.20017 1.91076 2.21134 1.91076C2.21134 1.87402 2.21134 1.84952 2.21134 1.83727C2.22251 1.82502 2.25601 1.8189 2.31186 1.8189C2.32302 1.8189 2.34536 1.80665 2.37887 1.78215L2.32861 1.72703H2.37887L2.41237 1.63517H2.46263C2.46263 1.59843 2.49055 1.58005 2.54639 1.58005H2.56314V1.56168V1.46982H2.63015C2.63015 1.46982 2.63574 1.46369 2.64691 1.45144H2.66366C2.70833 1.45144 2.73067 1.42695 2.73067 1.37795C2.75301 1.37795 2.76417 1.37183 2.76417 1.35958C2.76417 1.34733 2.76417 1.35346 2.76417 1.37795L2.84794 1.34121C2.87027 1.34121 2.88144 1.31671 2.88144 1.26772H2.8982H2.9317C2.96521 1.26772 2.98196 1.24934 2.98196 1.2126V1.19423H3.01546V1.15748C3.01546 1.13298 3.03222 1.12073 3.06572 1.12073V1.06562V1.0105H3.09923H3.16624C3.19974 0.986001 3.23883 0.973753 3.2835 0.973753H3.30026L3.40077 0.826772C3.41194 0.814523 3.43428 0.808398 3.46778 0.808398C3.51246 0.79615 3.53479 0.777778 3.53479 0.753281V0.716535L3.55155 0.587927V0.624672H3.6018C3.61297 0.624672 3.61856 0.630796 3.61856 0.643045C3.62972 0.655293 3.64648 0.667542 3.66881 0.67979C3.67998 0.692038 3.69673 0.704287 3.71907 0.716535H3.75258V0.753281H3.76933C3.76933 0.728784 3.77491 0.716535 3.78608 0.716535H3.81959H3.8866C3.89777 0.716535 3.90893 0.710411 3.9201 0.698163C3.94244 0.673666 3.95361 0.649169 3.95361 0.624672H3.98711H4.08763H4.10438V0.587927C4.11555 0.587927 4.1323 0.575678 4.15464 0.551181C4.15464 0.538932 4.16022 0.526684 4.17139 0.514436C4.2049 0.514436 4.22165 0.526684 4.22165 0.551181V0.587927H4.28866H4.32216V0.514436H4.38917H4.42268H4.48969C4.48969 0.489939 4.49527 0.477691 4.50644 0.477691C4.50644 0.440945 4.55112 0.440945 4.64046 0.477691V0.440945C4.65163 0.440945 4.65722 0.428696 4.65722 0.4042C4.66838 0.379702 4.69072 0.367454 4.72423 0.367454V0.349081C4.72423 0.349081 4.72981 0.342957 4.74098 0.330709H4.80799L4.85825 0.257218V0.330709V0.367454L4.80799 0.440945C4.80799 0.440945 4.81916 0.447069 4.84149 0.459317H4.85825V0.477691V0.514436C4.82474 0.56343 4.78007 0.600175 4.72423 0.624672L4.65722 0.716535L4.64046 0.624672C4.64046 0.673666 4.62371 0.704287 4.59021 0.716535C4.5567 0.716535 4.52878 0.716535 4.50644 0.716535C4.49527 0.741032 4.43385 0.753281 4.32216 0.753281H4.28866L4.22165 0.808398L4.28866 0.716535H4.22165V0.753281H4.17139C4.12672 0.753281 4.10438 0.765529 4.10438 0.790026C4.09321 0.802274 4.09321 0.808398 4.10438 0.808398C4.10438 0.820647 4.08204 0.826772 4.03737 0.826772H3.98711H3.95361C3.95361 0.83902 3.94244 0.845144 3.9201 0.845144C3.90893 0.845144 3.89777 0.83902 3.8866 0.826772H3.85309C3.83076 0.826772 3.81959 0.83902 3.81959 0.863517H3.76933V0.826772H3.75258C3.75258 0.851269 3.74141 0.863517 3.71907 0.863517C3.71907 0.924759 3.71349 0.961504 3.70232 0.973753C3.70232 0.973753 3.67998 0.973753 3.63531 0.973753L3.6018 1.0105H3.53479H3.41753L3.40077 1.06562C3.37844 1.06562 3.3561 1.07786 3.33376 1.10236C3.31143 1.11461 3.29467 1.12073 3.2835 1.12073V1.19423L3.21649 1.2126H3.16624L3.09923 1.26772C3.09923 1.30446 3.09364 1.32896 3.08247 1.34121C3.07131 1.34121 3.06572 1.35346 3.06572 1.37795H3.01546C3.0043 1.3902 2.99313 1.39633 2.98196 1.39633C2.97079 1.40857 2.95962 1.4147 2.94845 1.4147C2.93728 1.4147 2.92053 1.42695 2.8982 1.45144L2.88144 1.46982C2.88144 1.51881 2.87586 1.54943 2.86469 1.56168C2.85352 1.56168 2.84794 1.5678 2.84794 1.58005L2.76417 1.63517V1.72703V1.76378C2.76417 1.77603 2.75301 1.7944 2.73067 1.8189H2.66366H2.56314L2.63015 1.83727H2.66366L2.56314 1.91076V1.96588H2.54639L2.56314 2.021L2.54639 2.05774C2.52405 2.05774 2.5073 2.06387 2.49613 2.07612C2.49613 2.08836 2.49055 2.10061 2.47938 2.11286C2.46821 2.12511 2.46263 2.13736 2.46263 2.14961L2.41237 2.16798H2.32861H2.31186H2.21134L2.19459 2.25984H2.12758H2.09407V2.33333H2.12758V2.38845H2.19459H2.12758V2.4252V2.48031C2.12758 2.51706 2.11641 2.53543 2.09407 2.53543L1.96005 2.60892C1.92655 2.60892 1.89304 2.62117 1.85954 2.64567L1.80928 2.70079V2.64567V2.60892C1.83161 2.60892 1.84278 2.6028 1.84278 2.59055C1.84278 2.56605 1.83161 2.54768 1.80928 2.53543H1.74227L1.67526 2.55381V2.60892H1.74227V2.70079V2.77428H1.80928H1.74227C1.74227 2.78653 1.71993 2.79265 1.67526 2.79265V2.90289C1.67526 2.91514 1.66967 2.92126 1.6585 2.92126H1.67526L1.6585 2.99475L1.625 3.0315H1.57474V3.10499V3.14173H1.625V3.1601L1.57474 3.27034C1.56357 3.29484 1.55799 3.31321 1.55799 3.32546C1.53565 3.34996 1.5189 3.36221 1.50773 3.36221H1.57474V3.47244C1.60825 3.47244 1.625 3.48469 1.625 3.50919V3.61942V3.72966C1.6585 3.77865 1.64175 3.82765 1.57474 3.87664C1.53007 3.91339 1.50773 3.98075 1.50773 4.07874H1.57474V4.11549L1.625 4.13386C1.625 4.09711 1.64175 4.07874 1.67526 4.07874H1.74227V4.11549C1.7311 4.11549 1.7311 4.10936 1.74227 4.09711H1.75902C1.77019 4.09711 1.77577 4.09711 1.77577 4.09711C1.78694 4.08486 1.79811 4.07874 1.80928 4.07874H1.85954L1.90979 3.98688V3.93176V3.91339C1.90979 3.88889 1.89304 3.87664 1.85954 3.87664V3.83989L1.80928 3.78478L1.90979 3.83989C1.9433 3.83989 1.96005 3.82152 1.96005 3.78478H1.9768L1.96005 3.67454H1.9768V3.61942C2.03265 3.61942 2.06057 3.6133 2.06057 3.60105H2.09407L2.11082 3.58268C2.11082 3.57043 2.11082 3.5643 2.11082 3.5643C2.12199 3.55206 2.12758 3.53368 2.12758 3.50919H2.09407L2.12758 3.47244H2.19459C2.19459 3.4357 2.19459 3.41732 2.19459 3.41732C2.20576 3.40507 2.21134 3.3867 2.21134 3.36221H2.31186L2.21134 3.30709H2.31186V3.27034H2.32861H2.31186V3.1601C2.31186 3.14786 2.31744 3.12948 2.32861 3.10499V3.0315V2.99475H2.37887V2.92126H2.41237V2.90289C2.43471 2.90289 2.44588 2.90289 2.44588 2.90289C2.45704 2.89064 2.46263 2.85389 2.46263 2.79265C2.46263 2.7804 2.4738 2.77428 2.49613 2.77428C2.52964 2.77428 2.55198 2.7804 2.56314 2.79265V2.77428C2.59665 2.77428 2.6134 2.76203 2.6134 2.73753C2.62457 2.71304 2.64132 2.70079 2.66366 2.70079H2.73067C2.73067 2.66404 2.73625 2.64567 2.74742 2.64567H2.76417H2.84794C2.84794 2.62117 2.85911 2.60892 2.88144 2.60892C2.88144 2.63342 2.88703 2.63955 2.8982 2.6273C2.90936 2.61505 2.93728 2.60892 2.98196 2.60892H3.01546L3.09923 2.55381H3.21649C3.13832 2.55381 3.09923 2.54768 3.09923 2.53543V2.4252H3.16624C3.17741 2.44969 3.18857 2.46807 3.19974 2.48031C3.21091 2.48031 3.21649 2.47419 3.21649 2.46194V2.4252L3.2835 2.38845H3.30026H3.35051V2.37008C3.35051 2.34558 3.36727 2.33333 3.40077 2.33333V2.29659V2.25984H3.41753H3.53479V2.14961H3.55155H3.6018C3.6018 2.11286 3.60739 2.08836 3.61856 2.07612C3.61856 2.06387 3.62414 2.05774 3.63531 2.05774C3.63531 2.03325 3.66323 2.021 3.71907 2.021H3.76933H3.81959C3.84192 2.021 3.85868 2.01487 3.86984 2.00263C3.86984 1.99038 3.87543 1.97813 3.8866 1.96588L3.81959 1.83727H3.8866V1.8189V1.78215H3.98711H4.03737L4.08763 1.72703V1.58005L4.22165 1.63517V1.72703L4.28866 1.63517V1.72703V1.63517H4.32216H4.38917V1.58005L4.42268 1.56168V1.58005H4.48969H4.50644H4.5567V1.56168L4.64046 1.58005L4.72423 1.56168V1.46982L4.74098 1.56168V1.46982H4.80799H4.85825V1.56168C4.85825 1.50044 4.88058 1.46982 4.92526 1.46982C4.92526 1.45757 4.94201 1.45144 4.97552 1.45144C4.97552 1.46369 4.9811 1.46982 4.99227 1.46982H5.04253H5.09278H5.15979H5.21005C5.24356 1.46982 5.26031 1.46369 5.26031 1.45144H5.29381H5.37758V1.37795H5.39433H5.42783V1.34121L5.47809 1.37795H5.52835V1.34121V1.26772C5.58419 1.26772 5.61211 1.29221 5.61211 1.34121V1.26772L5.62887 1.2126H5.71263H5.72938H5.76289H5.8299C5.8299 1.2126 5.84106 1.2126 5.8634 1.2126H5.96392V1.19423V1.12073V1.06562V1.12073L5.94716 1.06562V1.0105V1.06562C5.89132 1.06562 5.8634 1.04724 5.8634 1.0105H5.8299H5.76289H5.72938H5.71263H5.61211H5.52835V0.973753H5.47809C5.45576 0.973753 5.439 0.973753 5.42783 0.973753C5.42783 0.961504 5.41667 0.924759 5.39433 0.863517H5.37758H5.39433V0.826772H5.47809C5.47809 0.851269 5.52835 0.863517 5.62887 0.863517H5.71263H5.72938H5.76289H5.8634H5.96392V0.826772H6.01417C6.01417 0.851269 6.03651 0.851269 6.08118 0.826772C6.13703 0.826772 6.16495 0.83902 6.16495 0.863517C6.16495 0.924759 6.16495 0.961504 6.16495 0.973753C6.16495 0.973753 6.17053 0.973753 6.1817 0.973753H6.24871H6.31572C6.33806 0.99825 6.36039 1.0105 6.38273 1.0105H6.41624C6.41624 0.998251 6.42182 0.992126 6.43299 0.992126C6.45533 0.992126 6.46649 0.998251 6.46649 1.0105H6.58376V0.973753H6.60051V1.0105L6.70103 1.06562L6.76804 1.0105H6.8183V1.02887C6.8183 1.04112 6.82388 1.05337 6.83505 1.06562H6.91881V1.12073H7.01933H6.91881C6.97466 1.12073 7.00816 1.11461 7.01933 1.10236C7.04167 1.07786 7.05842 1.06562 7.06959 1.06562L7.1701 1.0105V1.06562H7.23711C7.25945 1.04112 7.28179 1.035 7.30412 1.04724C7.33763 1.05949 7.36555 1.06562 7.38789 1.06562H7.40464V1.12073C7.40464 1.16973 7.41581 1.19423 7.43814 1.19423C7.44931 1.20647 7.46606 1.20647 7.4884 1.19423C7.4884 1.14523 7.49957 1.14523 7.52191 1.19423V1.12073H7.57216C7.5945 1.16973 7.60567 1.19423 7.60567 1.19423V1.2126L7.68943 1.19423V1.2126H7.78995L7.8067 1.19423H7.85696H7.90722H7.95747H8.04124L8.05799 1.2126V1.26772V1.2126H8.10825V1.26772L8.14175 1.34121H8.22551L8.25902 1.26772H8.27577V1.2126V1.26772C8.33161 1.26772 8.35954 1.29221 8.35954 1.34121H8.39304H8.42655C8.44888 1.34121 8.46005 1.35346 8.46005 1.37795H8.56057V1.45144C8.5829 1.40245 8.61641 1.40245 8.66108 1.45144V1.37795H8.67783C8.689 1.3902 8.70017 1.39633 8.71134 1.39633C8.73368 1.42082 8.74485 1.4392 8.74485 1.45144V1.46982H8.7951V1.56168L8.82861 1.46982V1.45144L8.89562 1.46982V1.58005L8.92912 1.56168L9.01289 1.45144L8.99613 1.56168H9.01289V1.58005V1.63517L9.06314 1.58005H9.14691H9.18041V1.56168H9.23067V1.63517L9.31443 1.58005H9.36469V1.56168V1.46982V1.45144H9.58247H9.59923C9.58806 1.4392 9.58806 1.42695 9.59923 1.4147C9.59923 1.3902 9.62156 1.3657 9.66624 1.34121H9.58247L9.49871 1.26772L9.48196 1.2126H9.4317H9.36469V1.19423V1.12073H9.24742L9.23067 1.06562H9.18041L9.14691 1.0105H9.06314V0.973753V0.918635C9.06314 0.88189 9.04639 0.863517 9.01289 0.863517C9.00172 0.863517 8.99055 0.857393 8.97938 0.845144C8.97938 0.832896 8.96263 0.820647 8.92912 0.808398C8.90679 0.783902 8.89003 0.777778 8.87887 0.790026C8.87887 0.802274 8.86211 0.808398 8.82861 0.808398H8.81185C8.77835 0.808398 8.75601 0.790026 8.74485 0.753281H8.59407H8.56057C8.51589 0.753281 8.49356 0.741032 8.49356 0.716535C8.48239 0.716535 8.4768 0.710411 8.4768 0.698163C8.46564 0.685914 8.46005 0.661417 8.46005 0.624672H8.35954C8.30369 0.624672 8.27019 0.612423 8.25902 0.587927C8.23668 0.587927 8.20876 0.575678 8.17526 0.551181C8.15292 0.526684 8.13058 0.514436 8.10825 0.514436V0.477691H8.05799V0.496063C8.05799 0.508311 8.0524 0.514436 8.04124 0.514436H7.90722H7.85696C7.82345 0.514436 7.8067 0.502187 7.8067 0.477691V0.367454C7.79553 0.416448 7.76761 0.440945 7.72294 0.440945C7.7006 0.440945 7.68943 0.453193 7.68943 0.477691H7.60567L7.57216 0.367454H7.53866C7.52749 0.367454 7.51074 0.355205 7.4884 0.330709C7.44373 0.330709 7.41581 0.31846 7.40464 0.293963C7.40464 0.269466 7.39905 0.257218 7.38789 0.257218H7.37113C7.35997 0.257218 7.35438 0.251094 7.35438 0.238845H7.23711H7.27062H7.23711V0.146982H7.1701H7.01933H6.91881H6.88531C6.87414 0.171479 6.86297 0.189851 6.8518 0.202099L6.8183 0.238845H6.70103C6.66753 0.238845 6.63402 0.24497 6.60051 0.257218H6.48325H6.46649C6.41065 0.257218 6.36598 0.269466 6.33247 0.293963C6.31014 0.31846 6.28222 0.342957 6.24871 0.367454H6.1817H6.16495C6.16495 0.379702 6.15936 0.391951 6.1482 0.4042C6.1482 0.4042 6.1482 0.410324 6.1482 0.422572V0.440945C6.13703 0.453193 6.13144 0.453193 6.13144 0.440945H6.08118L6.01417 0.477691V0.440945H5.96392V0.477691L5.8634 0.440945V0.367454H5.8299V0.440945H5.76289C5.74055 0.440945 5.7238 0.453193 5.71263 0.477691H5.61211V0.514436H5.52835V0.477691C5.49484 0.502187 5.46134 0.502187 5.42783 0.477691C5.42783 0.489939 5.42225 0.502187 5.41108 0.514436H5.39433H5.37758L5.39433 0.477691H5.37758V0.440945C5.3329 0.440945 5.32173 0.428696 5.34407 0.4042L5.37758 0.367454H5.39433H5.42783L5.39433 0.330709V0.257218L5.47809 0.238845V0.146982H5.52835V0.238845C5.58419 0.238845 5.61211 0.24497 5.61211 0.257218H5.62887C5.68471 0.24497 5.71821 0.208224 5.72938 0.146982H5.76289V0.110236V0.146982C5.81873 0.122485 5.88015 0.122485 5.94716 0.146982H5.96392C5.96392 0.208224 5.98067 0.238845 6.01417 0.238845C6.01417 0.189851 6.02534 0.165354 6.04768 0.165354C6.07002 0.165354 6.08118 0.189851 6.08118 0.238845H6.13144H6.16495V0.146982L6.1817 0.238845C6.21521 0.189851 6.23196 0.165354 6.23196 0.165354C6.23196 0.153106 6.21521 0.146982 6.1817 0.146982V0.110236C6.22637 0.110236 6.24871 0.0857389 6.24871 0.0367449H6.31572C6.34923 0.0122483 6.38273 0 6.41624 0H6.46649H6.48325H6.60051V0.0367449H6.70103V0H6.76804H6.8183H6.83505L6.88531 0.0367449L7.01933 0L6.91881 0.0367449H7.05283C7.10868 0.0367449 7.15893 0.0489936 7.20361 0.073491C7.24828 0.0979876 7.29854 0.122485 7.35438 0.146982L7.38789 0.110236H7.40464V0.146982H7.4884H7.52191V0.238845C7.55541 0.238845 7.58333 0.24497 7.60567 0.257218H7.68943H7.72294H7.78995H7.85696C7.85696 0.293963 7.86254 0.306212 7.87371 0.293963C7.88488 0.293963 7.89605 0.281714 7.90722 0.257218H7.95747L8.04124 0.330709H8.05799C8.10266 0.330709 8.14175 0.336833 8.17526 0.349081C8.21993 0.349081 8.25344 0.379702 8.27577 0.440945C8.28694 0.453193 8.30369 0.459317 8.32603 0.459317C8.35954 0.459317 8.38187 0.453193 8.39304 0.440945H8.46005L8.39304 0.477691V0.514436H8.42655C8.44888 0.514436 8.46005 0.502187 8.46005 0.477691H8.49356H8.56057V0.440945V0.477691L8.59407 0.514436C8.59407 0.502187 8.60524 0.496063 8.62758 0.496063C8.63875 0.496063 8.64991 0.502187 8.66108 0.514436L8.67783 0.477691H8.74485V0.514436H8.7951H8.82861H8.89562H8.92912C8.9738 0.514436 8.99613 0.538933 8.99613 0.587927C8.99613 0.587927 9.00172 0.600175 9.01289 0.624672L9.06314 0.716535H9.14691H9.23067H9.24742V0.753281H9.31443L9.36469 0.808398V0.863517C9.3982 0.863517 9.42053 0.88189 9.4317 0.918635C9.44287 0.95538 9.45962 0.973753 9.48196 0.973753L9.49871 1.0105H9.58247C9.58247 1.0105 9.58806 1.02275 9.59923 1.04724V1.06562V1.12073C9.6439 1.16973 9.69974 1.19423 9.76675 1.19423C9.76675 1.14523 9.80584 1.12073 9.88402 1.12073L9.90077 1.06562V1.12073C9.92311 1.18198 9.95661 1.2126 10.0013 1.2126V1.26772V1.34121L10.0348 1.37795H10.0013V1.45144L10.0348 1.46982H10.1186C10.1297 1.46982 10.1353 1.50044 10.1353 1.56168H10.3028L10.2191 1.58005V1.63517L10.1353 1.72703H10.2358V1.78215C10.2358 1.80665 10.247 1.8189 10.2693 1.8189H10.3028H10.3363C10.3698 1.83115 10.4089 1.83727 10.4536 1.83727V1.85564C10.4536 1.86789 10.4536 1.87402 10.4536 1.87402C10.4648 1.87402 10.4704 1.88626 10.4704 1.91076H10.5541L10.5876 1.96588L10.5541 2.14961V2.16798H10.5876V2.25984C10.6435 2.25984 10.6714 2.27209 10.6714 2.29659V2.33333L10.6379 2.38845V2.4252C10.6379 2.48644 10.6379 2.51706 10.6379 2.51706C10.6379 2.51706 10.6491 2.48644 10.6714 2.4252H10.6881V2.53543C10.677 2.54768 10.677 2.55381 10.6881 2.55381H10.8054V2.60892H10.8222H10.8724V2.64567H10.9729L10.9227 2.70079H10.9729H11.0232L11.0902 2.77428V2.79265C11.1125 2.85389 11.1181 2.89676 11.107 2.92126C11.107 2.93351 11.079 2.95801 11.0232 2.99475C11.0902 3.0315 11.1237 3.08049 11.1237 3.14173L11.1572 3.10499V3.14173V3.1601H11.2075L11.2745 3.30709H11.3247V3.36221C11.3359 3.36221 11.3415 3.36833 11.3415 3.38058C11.3527 3.39283 11.375 3.39895 11.4085 3.39895C11.4308 3.39895 11.4532 3.40507 11.4755 3.41732C11.509 3.41732 11.5258 3.44794 11.5258 3.50919V3.5643C11.5258 3.5888 11.5369 3.60105 11.5593 3.60105L11.5928 3.61942H11.6263C11.6486 3.61942 11.6598 3.6378 11.6598 3.67454H11.6765L11.6598 3.72966V3.78478V3.83989V3.87664C11.6598 3.91339 11.6654 3.95013 11.6765 3.98688V4.07874H11.7436L11.6765 4.11549V4.13386V4.20735H11.7436V4.22572H11.6765H11.7436H11.7771H11.8608L11.7771 4.31759C11.7547 4.35433 11.7436 4.40945 11.7436 4.48294V4.50131C11.7436 4.55031 11.7547 4.58705 11.7771 4.61155C11.8552 4.61155 11.8943 4.5748 11.8943 4.50131H11.9613L12.0116 4.5748C12.0228 4.5748 12.0339 4.58093 12.0451 4.59318C12.0674 4.59318 12.0786 4.6238 12.0786 4.68504V4.74016H12.1121H12.2126L12.1121 4.81365V4.85039V4.92388V4.94226H12.0786C12.0898 4.95451 12.0954 4.96675 12.0954 4.979H12.0786V5.03412C12.0786 5.05862 12.0619 5.07087 12.0283 5.07087V5.1811H12.0786H12.1121V5.12598V5.1811C12.168 5.19335 12.1791 5.2056 12.1456 5.21785C12.1233 5.21785 12.1121 5.23622 12.1121 5.27297H12.0786L12.2126 5.32808H12.1121V5.3832V5.41995H12.2126V5.45669V5.54856L12.2461 5.5853C12.2461 5.6343 12.235 5.67104 12.2126 5.69554C12.168 5.69554 12.14 5.68941 12.1289 5.67717C12.1177 5.67717 12.1121 5.67104 12.1121 5.65879C12.0898 5.65879 12.0786 5.67104 12.0786 5.69554H12.1121C12.1233 5.69554 12.14 5.70166 12.1624 5.71391C12.1847 5.72616 12.2126 5.73841 12.2461 5.75066L12.2126 5.89764V5.91601H12.1121C12.168 5.94051 12.1959 5.95276 12.1959 5.95276C12.1959 5.95276 12.168 5.95276 12.1121 5.95276V6.00787V6.06299V6.13648H12.2126V6.15486V6.26509V6.15486L12.2964 6.32021V6.33858C12.2964 6.35083 12.2964 6.35696 12.2964 6.35696C12.3076 6.35696 12.3131 6.3692 12.3131 6.3937C12.3466 6.3937 12.3634 6.41207 12.3634 6.44882H12.4304H12.4639V6.50394H12.4304V6.52231H12.5477H12.5644V6.57743L12.5477 6.66929V6.72441H12.5644V6.76115C12.5533 6.7734 12.5533 6.77953 12.5644 6.77953H12.6314H12.732C12.732 6.86527 12.7096 6.90814 12.6649 6.90814V6.96325V7.03675H12.6314L12.6649 7.09186C12.7096 7.09186 12.732 7.11024 12.732 7.14698H12.7655V7.09186L12.799 7.22047V7.23885L12.8827 7.27559H12.9162V7.33071V7.42257C12.9497 7.42257 12.9665 7.44707 12.9665 7.49606C12.9665 7.54506 12.9777 7.56955 13 7.56955V7.58793V7.67979ZM11.8608 8.08399L11.8943 8.04724V7.97375C11.8943 7.94926 11.9055 7.92476 11.9278 7.90026C11.9502 7.87577 11.9613 7.85739 11.9613 7.84514V7.67979V7.58793C11.9613 7.57568 11.9781 7.56955 12.0116 7.56955C12.0004 7.55731 11.9948 7.54506 11.9948 7.53281C11.9948 7.50831 12.0004 7.49606 12.0116 7.49606V7.27559V6.90814C12.0228 6.83465 12.0228 6.75503 12.0116 6.66929C12.0116 6.58355 12.0116 6.51006 12.0116 6.44882V6.32021V6.26509V6.15486V6.13648C12.0116 6.09974 12.0004 6.06912 11.9781 6.04462C11.9669 6.00787 11.9613 5.97725 11.9613 5.95276V5.89764V5.7874C11.9613 5.73841 11.9502 5.70166 11.9278 5.67717C11.9055 5.65267 11.8943 5.62205 11.8943 5.5853C11.8943 5.52406 11.8887 5.47507 11.8776 5.43832C11.8664 5.38933 11.8608 5.35258 11.8608 5.32808C11.8162 5.26684 11.7882 5.22397 11.7771 5.19948C11.7771 5.17498 11.7771 5.15048 11.7771 5.12598C11.7547 5.12598 11.7436 5.07699 11.7436 4.979V4.94226L11.6765 4.92388C11.6319 4.76465 11.5928 4.64829 11.5593 4.5748C11.5369 4.48906 11.4979 4.40332 11.442 4.31759C11.3862 4.12161 11.308 3.95626 11.2075 3.82152C11.107 3.67454 10.9953 3.53368 10.8724 3.39895C10.7719 3.26422 10.6714 3.15398 10.5709 3.06824C10.4815 2.9825 10.3922 2.89064 10.3028 2.79265C10.2582 2.7804 10.2079 2.74978 10.1521 2.70079C10.0962 2.65179 10.0236 2.6028 9.93428 2.55381C9.93428 2.54156 9.92311 2.53543 9.90077 2.53543V2.4252H9.88402C9.77234 2.36395 9.66624 2.30271 9.56572 2.24147C9.47637 2.18023 9.37027 2.11898 9.24742 2.05774L9.06314 1.96588C9.02964 1.96588 9.01289 1.95976 9.01289 1.94751V1.91076C8.92354 1.87402 8.83419 1.84952 8.74485 1.83727C8.66667 1.82502 8.5829 1.80665 8.49356 1.78215C8.31486 1.70866 8.14175 1.65967 7.97423 1.63517C7.81787 1.59843 7.6671 1.58005 7.52191 1.58005H7.4884H7.38789H7.23711C7.19244 1.5678 7.1366 1.56168 7.06959 1.56168H6.76804H6.60051H6.48325H6.41624C6.38273 1.57393 6.30455 1.58005 6.1817 1.58005C6.12586 1.58005 6.06443 1.58618 5.99742 1.59843C5.93041 1.59843 5.85223 1.61067 5.76289 1.63517C5.68471 1.63517 5.60094 1.65354 5.5116 1.69029C5.43342 1.72703 5.34966 1.75766 5.26031 1.78215C5.14862 1.80665 5.04253 1.83115 4.94201 1.85564C4.85266 1.86789 4.75773 1.90464 4.65722 1.96588H4.64046L4.5567 2.021H4.5232C4.51203 2.021 4.50644 2.03325 4.50644 2.05774H4.48969C4.45619 2.10674 4.42826 2.13736 4.40593 2.14961C4.39476 2.14961 4.38917 2.15573 4.38917 2.16798H4.28866L4.22165 2.25984C4.15464 2.29659 4.08763 2.33333 4.02062 2.37008C3.95361 2.40682 3.8866 2.46194 3.81959 2.53543C3.73024 2.59668 3.65206 2.68241 3.58505 2.79265C3.51804 2.89064 3.42311 2.97025 3.30026 3.0315C3.1774 3.14173 3.07131 3.33158 2.98196 3.60105C2.92612 3.6378 2.88703 3.68067 2.86469 3.72966C2.84235 3.77865 2.80885 3.8154 2.76417 3.83989C2.74184 3.88889 2.7195 3.93176 2.69716 3.9685C2.67483 3.993 2.66366 4.02975 2.66366 4.07874C2.60782 4.15223 2.55756 4.23797 2.51289 4.33596C2.46821 4.4217 2.42354 4.50131 2.37887 4.5748C2.35653 4.66054 2.31744 4.75241 2.2616 4.85039C2.21692 4.94838 2.17225 5.05862 2.12758 5.1811V5.19948V5.27297L2.09407 5.32808V5.3832V5.45669C2.07174 5.45669 2.06057 5.47507 2.06057 5.51181V5.54856V5.5853V5.65879C2.03823 5.65879 2.02148 5.66492 2.01031 5.67717C2.01031 5.67717 2.00472 5.67717 1.99356 5.67717L1.9768 5.69554V5.7874V5.89764V5.91601V5.93438C1.9768 5.94663 1.97122 5.95276 1.96005 5.95276V6.00787V6.06299V6.15486V6.26509L1.9433 6.28346C1.9433 6.30796 1.94888 6.32021 1.96005 6.32021V6.35696C1.96005 6.38145 1.9433 6.41207 1.90979 6.44882V6.52231V6.72441V6.77953V6.88976V6.96325V7.14698V7.27559V7.42257C1.90979 7.44707 1.91538 7.47769 1.92655 7.51444C1.94888 7.55118 1.96005 7.57568 1.96005 7.58793V7.73491V7.84514C1.97122 7.85739 1.9768 7.88801 1.9768 7.93701V8.04724L2.06057 8.08399V8.2126L2.09407 8.30446V8.4147H2.12758V8.46982C2.12758 8.53106 2.14991 8.56168 2.19459 8.56168V8.67192V8.72703H2.21134C2.21134 8.76378 2.22809 8.7944 2.2616 8.8189C2.2951 8.83115 2.31186 8.86177 2.31186 8.91076C2.31186 8.91076 2.31744 8.91689 2.32861 8.92913V9.021V9.05774L2.37887 9.07612C2.42354 9.1741 2.46821 9.27822 2.51289 9.38845C2.55756 9.48644 2.60782 9.56606 2.66366 9.6273V9.68241C2.69716 9.71916 2.71392 9.74978 2.71392 9.77428C2.72509 9.79878 2.74184 9.81102 2.76417 9.81102V9.86614L2.88144 9.88451C2.88144 9.90901 2.88703 9.95188 2.8982 10.0131C2.90936 10.0621 2.93728 10.0989 2.98196 10.1234C3.06014 10.2581 3.16065 10.3867 3.2835 10.5092C3.33935 10.5704 3.40077 10.6439 3.46778 10.7297C3.54596 10.8154 3.62972 10.8705 3.71907 10.895L3.75258 10.9685L3.76933 11.0053C3.80283 11.0053 3.81959 11.0297 3.81959 11.0787H3.8866C3.99828 11.1522 4.10438 11.2257 4.2049 11.2992C4.31658 11.3727 4.4171 11.4278 4.50644 11.4646C4.61813 11.5258 4.71306 11.5748 4.79124 11.6115C4.86942 11.6483 4.95318 11.6789 5.04253 11.7034C5.05369 11.7157 5.08161 11.7218 5.12629 11.7218H5.15979H5.1933C5.2268 11.7218 5.24356 11.7402 5.24356 11.7769C5.25472 11.8136 5.27148 11.832 5.29381 11.832C5.34966 11.832 5.38875 11.8381 5.41108 11.8504C5.43342 11.8626 5.47251 11.8871 5.52835 11.9239C5.58419 11.9239 5.63445 11.9361 5.67912 11.9606C5.7238 11.9729 5.77405 11.979 5.8299 11.979H5.8634H5.96392H5.99742C6.00859 11.979 6.01976 11.9851 6.03093 11.9974C6.0421 12.0096 6.05885 12.0219 6.08118 12.0341H6.1817H6.41624H6.46649H6.48325H6.5335C6.56701 12.0341 6.58376 12.0525 6.58376 12.0892L6.60051 12.0341H6.65077H6.83505H7.38789C7.54424 12.0096 7.67826 11.9913 7.78995 11.979C7.90163 11.9668 8.00773 11.9484 8.10825 11.9239C8.13058 11.9239 8.14175 11.9178 8.14175 11.9055C8.15292 11.881 8.18084 11.8871 8.22551 11.9239V11.8504H8.27577C8.33161 11.8381 8.37629 11.832 8.40979 11.832C8.45447 11.8198 8.50472 11.783 8.56057 11.7218H8.59407H8.66108C8.67225 11.7095 8.70017 11.7034 8.74485 11.7034H8.77835C8.78952 11.7034 8.80627 11.6912 8.82861 11.6667C8.91795 11.6422 8.99613 11.6177 9.06314 11.5932C9.13015 11.5687 9.186 11.5258 9.23067 11.4646C9.40936 11.3788 9.57131 11.287 9.71649 11.189C9.87285 11.0787 10.0125 10.9624 10.1353 10.8399H10.2191H10.2358V10.7297C10.2805 10.7052 10.3028 10.6745 10.3028 10.6378C10.3922 10.5766 10.4759 10.5153 10.5541 10.4541C10.6323 10.3928 10.7161 10.3316 10.8054 10.2703C10.8389 10.1969 10.8836 10.1172 10.9394 10.0315C11.0064 9.94576 11.0679 9.87227 11.1237 9.81102C11.1684 9.71304 11.2131 9.63342 11.2577 9.57218C11.3136 9.49869 11.3638 9.41295 11.4085 9.31496L11.442 9.25984V9.16798C11.4867 9.15573 11.509 9.13736 11.509 9.11286C11.5202 9.08836 11.5258 9.06999 11.5258 9.05774C11.5481 8.9965 11.5649 8.95363 11.576 8.92913C11.5984 8.90464 11.6263 8.86177 11.6598 8.80053C11.671 8.73928 11.6877 8.68416 11.7101 8.63517C11.7324 8.57393 11.7436 8.51881 11.7436 8.46982C11.7659 8.44532 11.7771 8.42082 11.7771 8.39633C11.7771 8.35958 11.7771 8.32896 11.7771 8.30446V8.24934C11.8106 8.24934 11.8329 8.24322 11.8441 8.23097C11.8552 8.23097 11.8608 8.22485 11.8608 8.2126V8.08399ZM11.5258 3.61942H11.5593H11.5258ZM2.84794 2.64567V2.70079V2.64567H2.76417H2.84794Z" fill="black"/>
</svg>
