<svg width="4" height="22" viewBox="0 0 4 22" fill="none" xmlns="http://www.w3.org/2000/svg">
<path d="M3.94286 8.81038L3.86667 8.845C3.86667 8.89116 3.84762 8.93155 3.80952 8.96617C3.80952 8.98925 3.80317 9.00079 3.79048 9.00079V9.22581C3.79048 9.26042 3.77143 9.29504 3.73333 9.32966V9.3989C3.75873 9.3989 3.77143 9.40467 3.77143 9.41621C3.77143 9.42775 3.75873 9.43352 3.73333 9.43352V9.46814V9.52006L3.80952 9.5893L3.73333 9.62392C3.73333 9.67008 3.75238 9.71046 3.79048 9.74508C3.79048 9.82586 3.77143 9.86625 3.73333 9.86625L3.86667 9.91817L3.69524 9.98741L3.73333 10.0566L3.65714 10.0393H3.61905C3.61905 10.0509 3.6 10.074 3.5619 10.1086L3.52381 10.1432C3.49841 10.1778 3.46667 10.2009 3.42857 10.2124L3.40952 10.2644V10.3163V10.3336L3.29524 10.3855V10.4375H3.27619C3.27619 10.449 3.25714 10.4721 3.21905 10.5067V10.5586H3.1619V10.5759V10.6279L3.08571 10.6625H3.04762H2.91429C2.87619 10.6625 2.85079 10.674 2.8381 10.6971L2.85714 10.7317L2.91429 10.7836H2.85714L3.08571 10.974L2.78095 10.8529C2.73016 10.899 2.70476 10.9221 2.70476 10.9221H2.64762V10.974L2.57143 11.026H2.51429L2.47619 11.0433L2.4381 11.0952C2.4 11.0952 2.36825 11.1125 2.34286 11.1471L2.30476 11.1644C2.27936 11.1991 2.24127 11.2164 2.19048 11.2164L2.20952 11.3375H2.19048V11.3721H2.13333L2.19048 11.4414L2.07619 11.4933C2.07619 11.5049 2.06984 11.5106 2.05714 11.5106V11.5625V11.6318L2.07619 11.6837L2.05714 11.7356V11.7529L1.94286 11.8568L2.13333 11.8049L1.94286 12.0126V12.0299L2 12.0818H1.94286V12.1511V12.203L2.07619 12.2722L2 12.3761C2.0381 12.3876 2.05714 12.4222 2.05714 12.4799V12.5146V12.5492C2.06984 12.5838 2.07619 12.6126 2.07619 12.6357L2.13333 12.6703L2.20952 12.7223V12.7915V12.8434C2.27302 12.9127 2.27302 12.9588 2.20952 12.9819C2.20952 13.005 2.21587 13.0223 2.22857 13.0338C2.24127 13.0569 2.23492 13.0685 2.20952 13.0685V13.1031C2.20952 13.1608 2.20317 13.1896 2.19048 13.1896V13.2242C2.20317 13.2473 2.20952 13.2762 2.20952 13.3108V13.3281V13.38C2.20952 13.4031 2.20317 13.4146 2.19048 13.4146C2.19048 13.4262 2.19048 13.4377 2.19048 13.4493V13.4839C2.19048 13.4954 2.17143 13.5185 2.13333 13.5531L2.34286 13.6916H2.13333V13.7435C2.13333 13.8012 2.11429 13.8358 2.07619 13.8474C2.07619 13.8704 2.08254 13.8935 2.09524 13.9166C2.12063 13.9397 2.13333 13.957 2.13333 13.9685V14.0205V14.0897C2.17143 14.0897 2.19048 14.1243 2.19048 14.1935L2.20952 14.332L2.19048 14.2974C2.19048 14.3205 2.17143 14.3436 2.13333 14.3666L2.47619 14.4878L2.05714 14.5397V14.557V14.6609L2.07619 14.7301L2.05714 14.7994C2.01905 14.834 1.98095 14.8513 1.94286 14.8513V14.8859V14.9725C1.94286 15.0186 1.93651 15.0417 1.92381 15.0417V15.0763L1.94286 15.1456L1.73333 15.3186V15.3706V15.3879V15.4398C1.73333 15.5206 1.70794 15.5725 1.65714 15.5956V15.6475C1.63175 15.6591 1.60635 15.6648 1.58095 15.6648C1.56825 15.6764 1.54921 15.6937 1.52381 15.7168C1.52381 15.7514 1.51111 15.7745 1.48571 15.786V15.8379V15.8899H1.52381L1.48571 15.9591L1.5619 16.011L1.52381 16.0283V16.0803V16.1149C1.52381 16.1379 1.53016 16.1495 1.54286 16.1495C1.55556 16.1495 1.5619 16.161 1.5619 16.1841C1.6254 16.1841 1.65714 16.213 1.65714 16.2707L1.67619 16.288C1.67619 16.2995 1.67619 16.311 1.67619 16.3226C1.68889 16.3341 1.69524 16.3457 1.69524 16.3572L1.73333 16.3745C1.77143 16.4091 1.79048 16.4495 1.79048 16.4957V16.5476H1.80952V16.6168V16.6688V16.7034H1.92381L1.86667 16.738V16.7726C1.86667 16.7842 1.88571 16.7899 1.92381 16.7899V16.8245V16.8592C1.93651 16.8822 1.93651 16.9169 1.92381 16.963C1.92381 16.963 1.93016 16.9746 1.94286 16.9976V17.0149V17.0842C1.98095 17.1188 2 17.1592 2 17.2053L2.05714 17.3265V17.3784V17.4823V17.5515V17.5862L2.13333 17.6035L2.07619 17.7246L2.26667 17.7073L2.13333 17.8285V17.8458V17.8977L2.34286 17.9323L2.20952 18.0535V18.0708C2.20952 18.0939 2.22857 18.1112 2.26667 18.1227L2.4381 18.0881L2.26667 18.192L2.30476 18.2439L2.34286 18.3131H2.26667H2.30476L2.26667 18.3651V18.4343H2.28571V18.4516C2.28571 18.4632 2.27937 18.4747 2.26667 18.4862L2.38095 18.6074L2.26667 18.642V18.6766V18.7112V18.7632C2.26667 18.7747 2.24762 18.7805 2.20952 18.7805L2.30476 18.8324L2.20952 18.9536L2.26667 19.0055V19.0228V19.1267L2.30476 19.144L2.51429 19.1959L2.34286 19.2825V19.2998V19.4209V19.4729V19.5248V19.5421L2.4381 19.6459L2.30476 19.6633V19.7152V19.7498C2.30476 19.7613 2.29841 19.7729 2.28571 19.7844H2.26667V19.819C2.29206 19.8537 2.30476 19.8825 2.30476 19.9056C2.33016 19.9287 2.33651 19.946 2.32381 19.9575C2.31111 19.9806 2.30476 19.9979 2.30476 20.0094H2.34286V20.1133V20.1306V20.1825H2.4381L2.34286 20.3383V20.3729L2.30476 20.4249C2.34286 20.4595 2.34286 20.4941 2.30476 20.5287L2.4381 20.598L2.26667 20.7018C2.29206 20.7018 2.30476 20.7076 2.30476 20.7191H2.34286V20.823L2.4381 20.8403V20.8922H2.47619L2.30476 20.9614L2.34286 21.048V21.0999C2.34286 21.1115 2.33016 21.1345 2.30476 21.1692L2.34286 21.2384C2.34286 21.2499 2.34921 21.2615 2.3619 21.273C2.3619 21.2846 2.3619 21.2961 2.3619 21.3076C2.3746 21.3192 2.38095 21.3307 2.38095 21.3422V21.4115V21.4634L2.4381 21.4115V21.5327H2.59048L2.4381 21.6365V21.7231V21.7577V21.8096L2.34286 22L2.13333 21.9308L2.19048 21.8269V21.8096L2.05714 21.8788L2.19048 21.6884L2 21.6365L2.13333 21.6019H2.07619L2.13333 21.4634V21.4115H2.05714V21.3596L1.94286 21.3422V21.2903C1.94286 21.2672 1.94921 21.2499 1.9619 21.2384C1.9746 21.2269 1.9873 21.2211 2 21.2211L1.94286 21.1692L2 21.1172L1.94286 21.0999L2 21.048V21.0134V20.9614V20.9441V20.8922V20.8403L1.94286 20.823V20.771V20.7191V20.598V20.5806V20.546C1.94286 20.5345 1.9619 20.5172 2 20.4941V20.4249L1.92381 20.4595L1.94286 20.4249H1.86667L1.94286 20.2518H2C2 20.2402 1.99365 20.2345 1.98095 20.2345C1.96825 20.2345 1.9746 20.2345 2 20.2345L1.92381 20.1306L1.94286 20.1133V20.0094L1.86667 19.9921L1.92381 19.9056L1.80952 19.871L1.86667 19.7844C1.86667 19.7613 1.87302 19.744 1.88571 19.7325C1.89841 19.721 1.91111 19.7152 1.92381 19.7152V19.6979C1.92381 19.6748 1.93016 19.6633 1.94286 19.6633V19.6459V19.5421H1.9619C1.9619 19.5421 1.9746 19.5363 2 19.5248V19.4729V19.4555C2 19.4325 2.01905 19.4209 2.05714 19.4209V19.4036C2.01905 19.4036 2 19.3863 2 19.3517H1.86667L1.92381 19.2998L1.86667 19.2825V19.2305L1.79048 19.1959L1.80952 19.144L1.79048 19.1267H1.86667V19.0228V19.0055V18.9536L1.80952 18.9017L1.92381 18.8324V18.7632V18.7112L1.73333 18.6074L1.86667 18.5555L1.92381 18.5208V18.4862V18.4343H1.90476L1.92381 18.417V18.3651V18.3131L1.86667 18.2439V18.192V18.1747H1.61905L1.79048 18.0016L1.73333 17.8977V17.7766V17.7246C1.70794 17.7131 1.69524 17.69 1.69524 17.6554C1.69524 17.6208 1.69524 17.5977 1.69524 17.5862V17.4823V17.465C1.66984 17.4304 1.65714 17.3842 1.65714 17.3265V17.2573L1.61905 17.1361H1.69524V17.0669C1.68254 17.0553 1.67619 17.0438 1.67619 17.0323C1.67619 17.0092 1.68254 16.9861 1.69524 16.963C1.66984 16.9515 1.65714 16.9284 1.65714 16.8938C1.65714 16.8707 1.64444 16.8476 1.61905 16.8245V16.7899C1.58095 16.7553 1.5619 16.7265 1.5619 16.7034C1.5619 16.6572 1.53651 16.6226 1.48571 16.5995C1.48571 16.5764 1.47302 16.5534 1.44762 16.5303C1.43492 16.5072 1.42857 16.4899 1.42857 16.4784V16.4264V16.3745C1.42857 16.3745 1.42222 16.3687 1.40952 16.3572C1.38413 16.3457 1.36508 16.3341 1.35238 16.3226C1.35238 16.311 1.34603 16.3053 1.33333 16.3053H1.29524C1.28254 16.2822 1.25714 16.2707 1.21905 16.2707C1.16825 16.2476 1.11111 16.2072 1.04762 16.1495C1.00952 16.1379 0.990476 16.1149 0.990476 16.0803V16.0283H1.00952C1.00952 16.0283 1.02222 16.0226 1.04762 16.011V15.9591C1.00952 15.9591 0.990476 15.9533 0.990476 15.9418V15.9072V15.8379L1.04762 15.786L1.08571 15.7687H1.04762L1.14286 15.6475C1.14286 15.636 1.14286 15.6244 1.14286 15.6129C1.15556 15.6014 1.1619 15.5898 1.1619 15.5783V15.561V15.509H1.27619V15.4398H1.29524V15.3706H1.35238C1.35238 15.336 1.35873 15.3186 1.37143 15.3186H1.40952V15.2667L1.42857 15.2494C1.46667 15.2148 1.48571 15.1917 1.48571 15.1802V15.1456V15.1282V15.0763C1.48571 15.0532 1.49206 15.0359 1.50476 15.0244C1.51746 15.0129 1.52381 14.9955 1.52381 14.9725C1.54921 14.9378 1.5619 14.909 1.5619 14.8859C1.5619 14.8628 1.58095 14.834 1.61905 14.7994V14.7821C1.61905 14.759 1.60635 14.7417 1.58095 14.7301C1.56825 14.7186 1.5619 14.7013 1.5619 14.6782V14.6609V14.557V14.5397C1.5619 14.5397 1.58095 14.5224 1.61905 14.4878H1.65714C1.65714 14.4647 1.64444 14.4532 1.61905 14.4532V14.3666L1.65714 14.332H1.67619C1.67619 14.332 1.68254 14.3205 1.69524 14.2974V14.2109V14.1935H1.65714L1.61905 14.1416L1.27619 14.2109L1.65714 13.9512C1.65714 13.9166 1.66984 13.882 1.69524 13.8474H1.65714V13.6916V13.5704L1.69524 13.5531L1.65714 13.4319H1.69524C1.68254 13.4204 1.67619 13.3973 1.67619 13.3627C1.67619 13.3512 1.68254 13.3396 1.69524 13.3281V13.3108L1.48571 13.1896L1.73333 13.155V13.1031L1.79048 13.0685V13.0338H1.80952H1.79048V12.9819C1.72698 12.9704 1.69524 12.93 1.69524 12.8607V12.8434V12.7915V12.7396V12.7223C1.68254 12.7223 1.66349 12.7107 1.6381 12.6876C1.6254 12.6761 1.61905 12.6588 1.61905 12.6357C1.61905 12.578 1.63175 12.5261 1.65714 12.4799V12.4453V12.3934V12.3761C1.63175 12.3761 1.61905 12.3588 1.61905 12.3242V12.2722C1.58095 12.2607 1.54921 12.2376 1.52381 12.203L1.42857 12.2549L1.52381 12.1338V12.0299L1.5619 12.0126V11.926V11.8568L1.61905 11.8049V11.6837L1.65714 11.6318V11.5625V11.5106L1.67619 11.4933C1.67619 11.4818 1.67619 11.476 1.67619 11.476C1.68889 11.476 1.69524 11.4645 1.69524 11.4414V11.4068C1.72063 11.4068 1.73333 11.3837 1.73333 11.3375V11.2856H1.69524V11.2164V11.1471L1.35238 11.1644L1.65714 10.9221V10.9048V10.8529V10.8183H1.61905V10.7836L1.48571 10.7317L1.65714 10.6971V10.6625H1.61905L1.69524 10.5586L1.61905 10.4548L1.5619 10.4375L1.61905 10.3855L1.52381 10.2644H1.69524H1.79048L1.5619 10.1951L1.73333 10.0566C1.73333 10.0451 1.75238 10.022 1.79048 9.98741H1.80952V9.93548L1.86667 9.91817L1.79048 9.86625H1.86667L1.80952 9.79701L1.92381 9.74508V9.62392C1.88571 9.60084 1.86667 9.56622 1.86667 9.52006H1.69524L1.73333 9.3989L1.69524 9.32966L1.79048 9.27773L1.69524 9.2085L1.73333 9.10464V9.08733V9.0354V8.96617L1.69524 8.91424L1.61905 8.81038H1.69524C1.66984 8.81038 1.65714 8.80462 1.65714 8.79308V8.75846L1.48571 8.68922L1.5619 8.63729L1.48571 8.51613C1.46032 8.51613 1.44127 8.51613 1.42857 8.51613C1.42857 8.50459 1.42222 8.49882 1.40952 8.49882V8.44689V8.39496C1.40952 8.39496 1.41587 8.38919 1.42857 8.37766L1.48571 8.32573V8.29111C1.43492 8.31419 1.41587 8.32573 1.42857 8.32573H1.40952C1.40952 8.36035 1.39683 8.37766 1.37143 8.37766H1.35238C1.31429 8.38919 1.26984 8.39496 1.21905 8.39496H1.1619H0.952381L0.838095 8.37766H0.780952V8.32573V8.29111L0.438095 8.39496L0.571429 8.29111H0.514286H0.438095L0.304762 8.37766L0.266667 8.32573L0.057143 8.56806L0.133333 8.29111L0 8.23918L0.133333 8.16994C0.133333 8.13533 0.152381 8.11802 0.190476 8.11802L0.133333 8.10071H0.190476V8.04878H0.209524C0.209524 8.01416 0.215873 7.99685 0.228571 7.99685H0.266667L0.304762 7.92762L0.380952 7.97954H0.438095H0.476191H0.514286H0.571429V7.92762L0.514286 7.87569H0.704762V7.85838V7.80645V7.77183V7.7026C0.692063 7.7026 0.685714 7.69683 0.685714 7.68529C0.685714 7.67375 0.692063 7.66221 0.704762 7.65067V7.46027L0.780952 7.5295V7.51219C0.780952 7.48912 0.787302 7.47181 0.8 7.46027C0.825397 7.44873 0.838095 7.43142 0.838095 7.40834V7.39103L0.780952 7.26987H0.838095L0.723809 7.18332H0.914286L0.952381 7.1487H0.990476V7.09677V7.02754V6.94099V6.92368V6.87175L0.704762 6.94099L0.838095 6.75059L0.438095 6.62943H0.780952L0.704762 6.50826L0.780952 6.56019L0.838095 6.47364V6.42172C0.838095 6.41018 0.844444 6.40441 0.857143 6.40441V6.35248L0.952381 6.30055V6.23131V6.214C0.952381 6.19093 0.939682 6.17939 0.914286 6.17939V6.16208L0.857143 6.11015V6.04091C0.895238 6.04091 0.914286 6.0236 0.914286 5.98898V5.95437L0.952381 5.88513H0.857143L0.990476 5.76397V5.69473V5.6428L0.952381 5.59087V5.4524L0.914286 5.36585H0.990476H0.857143L0.990476 5.24469C1.01587 5.24469 1.02857 5.23892 1.02857 5.22738C1.04127 5.21584 1.06032 5.21007 1.08571 5.21007H1.04762L1.08571 5.17545L1.1619 5.12352V5.10622L1.14286 5.00236H1.1619L1.21905 4.98505V4.93312H0.952381L1.27619 4.76003L1.04762 4.58694L1.29524 4.53501L1.42857 4.41385L1.48571 4.53501L1.73333 4.41385L1.61905 4.60425L1.5619 4.69079H1.58095C1.60635 4.69079 1.61905 4.7081 1.61905 4.74272L1.86667 4.8812L1.69524 4.86389C1.72063 4.87543 1.73333 4.8985 1.73333 4.93312C1.79683 4.93312 1.86032 4.99082 1.92381 5.10622L2 5.05429V4.98505V4.93312V4.86389V4.76003V4.69079V4.60425V4.58694V4.53501L1.94286 4.46577V4.41385L1.86667 4.46577L1.92381 4.29268V4.25806C1.92381 4.2696 1.90476 4.25806 1.86667 4.22345C1.84127 4.22345 1.82222 4.21768 1.80952 4.20614C1.80952 4.18306 1.80317 4.17152 1.79048 4.17152H1.73333L1.52381 4.24076L1.69524 3.98112L1.73333 3.89457V3.87726C1.73333 3.80802 1.75873 3.77341 1.80952 3.77341C1.80952 3.76187 1.82857 3.7561 1.86667 3.7561H1.92381V3.70417C1.93651 3.70417 1.94286 3.6984 1.94286 3.68686C1.95556 3.66378 1.9746 3.65224 2 3.65224C1.9746 3.6407 1.96825 3.62916 1.98095 3.61762C1.99365 3.59454 2 3.57147 2 3.54839L1.94286 3.51377L2.07619 3.42722L2.09524 3.40991C2.12063 3.38683 2.13333 3.36953 2.13333 3.35799V3.30606C2.13333 3.2599 2.15238 3.23682 2.19048 3.23682V3.18489C2.19048 3.13874 2.19683 3.09835 2.20952 3.06373V3.04642V2.99449V2.94256L2.26667 2.92525C2.26667 2.83294 2.27936 2.7637 2.30476 2.71755C2.27936 2.68293 2.27936 2.65985 2.30476 2.64831V2.59638V2.52714V2.47522L2.26667 2.40598H2.30476V2.31943V2.28481V2.2502C2.27936 2.22712 2.27302 2.21558 2.28571 2.21558C2.29841 2.20404 2.30476 2.18673 2.30476 2.16365V2.12903C2.30476 2.08287 2.31746 2.04249 2.34286 2.00787H2.30476V1.95594V1.93863V1.83478C2.27936 1.82324 2.26667 1.78862 2.26667 1.73092V1.6963L2.20952 1.60976L2.26667 1.54052V1.48859V1.47128C2.22857 1.47128 2.20952 1.45397 2.20952 1.41936V1.36743V1.35012C2.19683 1.3155 2.19048 1.27511 2.19048 1.22895V1.17703V1.1251C2.19048 1.11356 2.19048 1.10202 2.19048 1.09048C2.20317 1.0674 2.20952 1.04432 2.20952 1.02124V0.969315H2.26667V0.952006V0.830841V0.588513C2.26667 0.565434 2.27302 0.542355 2.28571 0.519276C2.29841 0.484658 2.29206 0.455809 2.26667 0.43273V0.311566C2.29206 0.265408 2.29206 0.22502 2.26667 0.190401V0.121164V0.103855C2.26667 0.0807763 2.27936 0.069237 2.30476 0.069237L2.34286 0L2.38095 0.017309C2.39365 0.0519276 2.41905 0.069237 2.45714 0.069237H2.47619C2.50159 0.126934 2.51429 0.173092 2.51429 0.20771C2.51429 0.242328 2.51429 0.276947 2.51429 0.311566V0.43273V0.536586V0.605822C2.48889 0.64044 2.47619 0.675059 2.47619 0.709678H2.51429V0.778914V0.900078C2.51429 0.934697 2.50159 0.957776 2.47619 0.969315V1.05586V1.1251V1.15972C2.47619 1.1828 2.46349 1.20587 2.4381 1.22895C2.46349 1.24049 2.47619 1.2578 2.47619 1.28088C2.47619 1.30396 2.48889 1.33281 2.51429 1.36743V1.41936V1.47128V1.48859H2.53333C2.55873 1.48859 2.57143 1.5059 2.57143 1.54052V1.60976V1.64437C2.58413 1.70207 2.59048 1.75977 2.59048 1.81747V1.83478L2.64762 1.93863L2.59048 1.95594H2.64762V2.0598C2.64762 2.10595 2.62857 2.14057 2.59048 2.16365V2.2502V2.28481V2.35405V2.40598L2.64762 2.42329L2.59048 2.47522V2.52714C2.59048 2.53868 2.59683 2.55599 2.60952 2.57907C2.62222 2.60215 2.61587 2.62523 2.59048 2.64831L2.64762 2.66562V2.71755V2.76947V2.78678H2.59048V2.87333C2.59048 2.9541 2.58413 3.0118 2.57143 3.04642V3.06373L2.53333 3.09835C2.52063 3.10989 2.51429 3.13297 2.51429 3.16758V3.23682V3.27144C2.51429 3.28298 2.50159 3.28875 2.47619 3.28875C2.50159 3.30029 2.50794 3.3176 2.49524 3.34068C2.48254 3.35222 2.47619 3.36953 2.47619 3.3926V3.42722C2.47619 3.48492 2.46349 3.52531 2.4381 3.54839C2.4381 3.59454 2.4254 3.62916 2.4 3.65224C2.3873 3.66378 2.36825 3.68109 2.34286 3.70417H2.30476L2.26667 3.7561C2.25397 3.7561 2.24127 3.76187 2.22857 3.77341H2.20952C2.20952 3.79649 2.20317 3.8138 2.19048 3.82533C2.19048 3.83687 2.19048 3.85418 2.19048 3.87726H2.13333V3.89457L2.19048 3.9465V4.01574H2.17143V4.03304C2.17143 4.05612 2.17778 4.06766 2.19048 4.06766V4.10228C2.20317 4.12536 2.20952 4.14844 2.20952 4.17152C2.22222 4.18306 2.24127 4.20037 2.26667 4.22345V4.24076L2.38095 4.17152L2.30476 4.34461V4.41385V4.46577H2.34286V4.53501L2.4381 4.58694L2.34286 4.65618V4.74272L2.38095 4.76003L2.34286 4.81196C2.36825 4.85812 2.38095 4.88697 2.38095 4.8985V4.93312C2.38095 4.9562 2.3746 4.97928 2.3619 5.00236C2.34921 5.0139 2.34286 5.03121 2.34286 5.05429V5.10622C2.35556 5.11775 2.3619 5.12929 2.3619 5.14083C2.3619 5.17545 2.35556 5.19853 2.34286 5.21007L2.4381 5.27931H2.38095V5.33123L2.4381 5.40047H2.47619L2.51429 5.46971V5.52164V5.57356L2.57143 5.59087C2.58413 5.59087 2.59683 5.60241 2.60952 5.62549C2.63492 5.67165 2.64762 5.71781 2.64762 5.76397L2.70476 5.79858V5.76397L2.72381 5.79858C2.8127 5.82166 2.85714 5.87359 2.85714 5.95437H2.91429V5.98898L2.97143 6.04091C2.97143 6.05245 2.97778 6.05822 2.99048 6.05822V6.11015L3.04762 6.16208V6.17939L3.21905 6.04091L3.14286 6.30055V6.35248C3.14286 6.37556 3.14286 6.3871 3.14286 6.3871C3.15556 6.3871 3.1619 6.39287 3.1619 6.40441V6.42172C3.1619 6.44479 3.16825 6.46787 3.18095 6.49095C3.20635 6.51403 3.21905 6.54288 3.21905 6.5775C3.21905 6.61212 3.2381 6.64673 3.27619 6.68135V6.69866L3.29524 6.75059V6.80252L3.35238 6.81983V6.87175L3.40952 6.92368H3.48571L3.40952 6.99292C3.42222 6.99292 3.42857 7.00446 3.42857 7.02754V7.06216L3.48571 7.09677V7.1487V7.18332V7.20063C3.48571 7.21217 3.49841 7.21794 3.52381 7.21794V7.28717C3.52381 7.34487 3.55556 7.38526 3.61905 7.40834V7.51219V7.5295C3.64444 7.5295 3.65714 7.55835 3.65714 7.61605H3.67619C3.68889 7.61605 3.70794 7.62759 3.73333 7.65067L3.92381 7.85838L3.65714 7.80645V7.87569C3.68254 7.87569 3.69524 7.88723 3.69524 7.91031V7.92762L3.73333 7.99685L4 7.87569L3.73333 8.22187V8.23918V8.29111C3.77143 8.31419 3.79048 8.34881 3.79048 8.39496V8.44689L3.80952 8.49882V8.63729V8.74115L3.94286 8.81038ZM1.27619 8.11802L1.1619 8.16994C1.14921 8.16994 1.14286 8.18725 1.14286 8.22187C1.15556 8.18725 1.18095 8.16994 1.21905 8.16994H1.27619V8.11802ZM1.40952 7.92762C1.40952 7.90454 1.39683 7.893 1.37143 7.893C1.35873 7.88146 1.35238 7.86992 1.35238 7.85838H1.29524L1.27619 7.87569C1.2381 7.87569 1.21905 7.893 1.21905 7.92762L1.27619 7.99685L1.35238 8.04878L1.40952 7.99685L1.42857 7.97954V7.92762H1.40952ZM3.40952 8.74115V8.68922V8.74115ZM2.51429 6.40441V6.42172L2.64762 6.28324V6.23131H2.59048L2.57143 6.28324L2.51429 6.30055V6.40441ZM1.94286 5.10622L1.92381 5.12352V5.10622H1.94286ZM1.79048 5.46971L1.86667 5.52164V5.46971L1.80952 5.4524L1.79048 5.46971ZM1.69524 5.4524L1.73333 5.46971L1.69524 5.4524ZM1.61905 5.4524H1.65714H1.61905ZM1.52381 6.11015V6.17939L1.61905 6.16208L1.65714 6.11015L1.61905 6.05822L1.5619 6.04091V5.98898C1.5619 6.0236 1.54921 6.04091 1.52381 6.04091V6.11015ZM1.79048 8.42958C1.79048 8.4065 1.79683 8.39496 1.80952 8.39496L1.69524 8.44689C1.69524 8.45843 1.68889 8.46997 1.67619 8.48151V8.49882H1.65714V8.51613L1.61905 8.61998H1.65714C1.68254 8.61998 1.69524 8.60267 1.69524 8.56806H1.73333L1.79048 8.51613V8.44689V8.42958ZM1.92381 8.22187C1.92381 8.18725 1.91111 8.16994 1.88571 8.16994H1.86667V8.15264C1.86667 8.12956 1.88571 8.11802 1.92381 8.11802L1.86667 8.10071V8.11802V8.22187L1.80952 8.29111C1.79683 8.29111 1.79048 8.30265 1.79048 8.32573H1.80952C1.80952 8.30265 1.81587 8.29111 1.82857 8.29111H1.86667C1.86667 8.24495 1.88571 8.22187 1.92381 8.22187ZM2.07619 7.26987V7.25256C2.07619 7.22948 2.09524 7.21794 2.13333 7.21794V7.1487V7.02754C2.13333 7.00446 2.13333 6.98138 2.13333 6.9583C2.14603 6.92368 2.16508 6.89483 2.19048 6.87175L2.13333 6.81983V6.80252L2 6.69866L2.13333 6.62943L2.05714 6.5775L2.07619 6.56019L1.94286 6.47364L2.05714 6.42172C2.01905 6.42172 2 6.39864 2 6.35248C1.9619 6.31786 1.94286 6.27747 1.94286 6.23131V6.16208H1.92381L1.86667 6.17939H1.80952H1.79048L1.61905 6.30055V6.40441H1.5619C1.5619 6.41595 1.54921 6.43902 1.52381 6.47364V6.50826C1.54921 6.50826 1.5619 6.5198 1.5619 6.54288V6.56019V6.69866C1.5619 6.73328 1.56825 6.75636 1.58095 6.7679L1.61905 6.80252V6.81983C1.64444 6.86598 1.65714 6.88906 1.65714 6.88906V6.92368C1.65714 6.93522 1.65079 6.9583 1.6381 6.99292C1.6381 7.016 1.6127 7.03908 1.5619 7.06216L1.61905 7.09677V7.21794V7.26987L1.79048 7.3391L1.61905 7.39103V7.40834L1.73333 7.39103L1.61905 7.58143L1.65714 7.61605V7.65067L1.69524 7.7026H1.73333C1.73333 7.66798 1.73968 7.65067 1.75238 7.65067H1.79048V7.61605H1.80952C1.80952 7.59297 1.81587 7.57566 1.82857 7.56412L1.86667 7.5295H1.92381V7.51219H1.94286C1.94286 7.44296 1.9619 7.40257 2 7.39103V7.3391L2.07619 7.26987ZM3.42857 8.87962L3.35238 8.74115H3.1619L3.35238 8.56806L3.40952 8.49882V8.44689V8.39496H3.35238V8.32573L3.29524 8.29111L3.35238 8.23918V8.22187V8.16994V8.10071H3.1619L3.29524 7.92762V7.87569V7.85838V7.80645V7.73721V7.7026C3.28254 7.66798 3.27619 7.62759 3.27619 7.58143C3.2381 7.54681 3.21905 7.52373 3.21905 7.51219L3.1619 7.46027L3.14286 7.40834L2.8381 7.46027L3.08571 7.28717L3.04762 7.26987L2.8381 7.28717L2.91429 7.18332L2.8381 7.1487L2.99048 7.06216L2.95238 7.02754H2.91429V6.92368V6.87175V6.81983V6.80252L2.8381 6.69866L2.85714 6.68135V6.5775H2.8381V6.56019L2.78095 6.50826V6.47364V6.40441L2.51429 6.42172V6.47364V6.50826V6.56019L2.64762 6.62943H2.57143V6.68135C2.58413 6.69289 2.59048 6.73328 2.59048 6.80252V6.81983H2.64762V6.87175V6.92368L2.72381 7.02754L2.64762 7.06216L2.70476 7.09677L2.51429 7.1487C2.51429 7.19486 2.50159 7.23525 2.47619 7.26987L2.4381 7.28717V7.3391C2.4381 7.38526 2.41905 7.42565 2.38095 7.46027V7.51219L2.34286 7.5295C2.34286 7.61028 2.31746 7.65067 2.26667 7.65067C2.26667 7.67375 2.25397 7.69106 2.22857 7.7026C2.21587 7.7026 2.20317 7.71414 2.19048 7.73721C2.19048 7.76029 2.17778 7.77183 2.15238 7.77183C2.13968 7.77183 2.13333 7.78337 2.13333 7.80645C2.19683 7.88723 2.21587 7.968 2.19048 8.04878V8.10071L2.20952 8.04878L2.19048 8.16994V8.23918V8.29111L2.20952 8.37766L2.13333 8.32573V8.37766L2.07619 8.39496H2.13333V8.49882L2.07619 8.51613C2.07619 8.58537 2.06984 8.62575 2.05714 8.63729V8.74115V8.75846C2.05714 8.77 2.05714 8.78154 2.05714 8.79308C2.06984 8.79308 2.07619 8.79885 2.07619 8.81038V8.845L2.09524 8.86231C2.12063 8.88539 2.13333 8.9027 2.13333 8.91424H2.07619C2.11429 8.94886 2.13333 8.97771 2.13333 9.00079V9.08733V9.10464V9.15657V9.22581C2.17143 9.26042 2.19048 9.30081 2.19048 9.34697V9.3989V9.43352V9.52006V9.5893V9.62392V9.67585C2.20317 9.68738 2.20952 9.72777 2.20952 9.79701V9.81432L2.4381 9.86625L2.20952 9.98741V10.0393V10.0566H2.19048L2.26667 10.1432L2.20952 10.1951C2.19683 10.2067 2.19048 10.2297 2.19048 10.2644V10.299C2.19048 10.3105 2.17143 10.3163 2.13333 10.3163V10.3855L2.20952 10.4375L2.07619 10.5067L2.05714 10.5586V10.5759L2.13333 10.6625V10.6971L2.07619 10.7317L2.20952 10.8183H2.13333H2.20952H2.26667C2.29206 10.7952 2.31746 10.7836 2.34286 10.7836V10.6625V10.6971L2.38095 10.6625H2.4381V10.5586L2.51429 10.6279V10.5759L2.57143 10.5586V10.5067H2.59048C2.59048 10.4836 2.62857 10.4605 2.70476 10.4375H2.78095H2.8381H2.85714V10.3855V10.3336L2.95238 10.3163C2.97778 10.2817 2.99048 10.247 2.99048 10.2124C2.99048 10.2009 2.98413 10.1894 2.97143 10.1778C2.97143 10.1547 2.99683 10.1317 3.04762 10.1086C3.04762 10.0855 3.05397 10.0682 3.06667 10.0566C3.07936 10.0336 3.08571 10.0105 3.08571 9.98741C3.11111 9.98741 3.12381 9.98164 3.12381 9.9701C3.13651 9.94702 3.14921 9.93548 3.1619 9.93548V9.91817H3.21905V9.86625L3.29524 9.79701H3.27619L3.29524 9.74508L3.27619 9.69315L3.35238 9.62392L3.40952 9.5893L3.35238 9.52006L3.40952 9.46814V9.43352V9.3989C3.37143 9.36428 3.35238 9.32389 3.35238 9.27773H3.40952C3.35873 9.24312 3.35873 9.20273 3.40952 9.15657V9.10464L3.35238 9.0354L3.42857 9.00079V8.91424V8.87962ZM3.65714 9.34697H3.73333H3.65714Z" fill="black"/>
</svg>
