<svg width="9" height="16" viewBox="0 0 9 16" fill="none" xmlns="http://www.w3.org/2000/svg">
<path d="M9 13.0164L8.91668 13.1148H8.86669C8.86669 13.1257 8.86113 13.1311 8.85002 13.1311C8.85002 13.1639 8.8278 13.1803 8.78337 13.1803C8.78337 13.2022 8.7667 13.2131 8.73338 13.2131V13.2623C8.73338 13.2842 8.72782 13.3005 8.71671 13.3115C8.7056 13.3224 8.70005 13.3388 8.70005 13.3607C8.66672 13.3825 8.65005 13.4044 8.65005 13.4262L8.60006 13.4754V13.5082C8.60006 13.5191 8.59451 13.5246 8.5834 13.5246C8.5834 13.5355 8.5834 13.5464 8.5834 13.5574H8.55007C8.53896 13.5574 8.53341 13.5738 8.53341 13.6066C8.51119 13.6066 8.47786 13.612 8.43342 13.623C8.38898 13.7213 8.33344 13.7705 8.26678 13.7705V13.8197H8.23345H8.18346C8.12791 13.8962 8.08347 13.9344 8.05015 13.9344C8.02793 13.9563 8.00571 13.9672 7.98349 13.9672C7.96127 13.9781 7.93905 13.9945 7.91683 14.0164C7.91683 14.0492 7.90572 14.071 7.88351 14.082C7.8724 14.0929 7.85573 14.1093 7.83351 14.1311C7.83351 14.1421 7.82796 14.1475 7.81685 14.1475C7.81685 14.1803 7.77797 14.1967 7.7002 14.1967L7.66687 14.2295C7.64465 14.2295 7.61688 14.235 7.58355 14.2459C7.55022 14.2678 7.51134 14.2787 7.4669 14.2787H7.31693H7.30026C7.28915 14.2787 7.26693 14.2951 7.23361 14.3279H7.20028H7.06697H6.98364C6.96143 14.3497 6.93365 14.3716 6.90032 14.3934C6.87811 14.4262 6.84478 14.4426 6.80034 14.4426L6.78368 14.4918C6.75035 14.5246 6.70036 14.541 6.6337 14.541C6.6337 14.5956 6.60037 14.623 6.53371 14.623V14.6393V14.7377C6.58926 14.7596 6.62259 14.7869 6.6337 14.8197C6.64481 14.8634 6.66147 14.8907 6.68369 14.9016C6.68369 14.9235 6.67814 14.9617 6.66703 15.0164C6.66703 15.082 6.63925 15.1475 6.58371 15.2131V15.2459V15.4098V16L6.28375 15.4426V15.4262C6.28375 15.4262 6.27264 15.4208 6.25042 15.4098V15.377C6.25042 15.3224 6.23931 15.2787 6.2171 15.2459V15.0328V15V14.9508C6.18377 14.9508 6.1671 14.929 6.1671 14.8852C6.14489 14.8852 6.12822 14.8743 6.11711 14.8525C6.106 14.8306 6.08934 14.8087 6.06712 14.7869C6.06712 14.7213 6.08378 14.6721 6.11711 14.6393V14.623C6.09489 14.6011 6.07823 14.5792 6.06712 14.5574C6.06712 14.5355 6.05601 14.5137 6.03379 14.4918V14.4754C6.03379 14.4536 6.02268 14.4426 6.00046 14.4426H5.9838C5.97269 14.4426 5.96714 14.4262 5.96714 14.3934C5.9227 14.3934 5.90048 14.388 5.90048 14.377C5.88937 14.377 5.88937 14.3716 5.90048 14.3607C5.84493 14.3607 5.80049 14.3497 5.76717 14.3279C5.72273 14.3279 5.68385 14.3115 5.65052 14.2787L5.61719 14.2295V14.1967C5.52831 14.1967 5.48388 14.1749 5.48388 14.1311H5.43388L5.40056 14.082C5.32279 14.0273 5.26724 13.9781 5.23391 13.9344H5.18392V13.918C5.18392 13.8962 5.16726 13.8852 5.13393 13.8852H5.1006C5.08949 13.8852 5.07838 13.8798 5.06727 13.8689C5.05616 13.8689 5.04505 13.8689 5.03395 13.8689C5.03395 13.8689 5.02839 13.8579 5.01728 13.8361V13.8197H5.00062C4.9784 13.8197 4.95062 13.8087 4.9173 13.7869C4.88397 13.776 4.85064 13.7596 4.81731 13.7377V13.6721C4.79509 13.6721 4.77843 13.6612 4.76732 13.6393C4.76732 13.6284 4.75621 13.623 4.73399 13.623C4.72288 13.612 4.70066 13.6011 4.66734 13.5902C4.63401 13.5902 4.61734 13.5792 4.61734 13.5574C4.51736 13.5574 4.46181 13.5464 4.4507 13.5246L4.40071 13.5574C4.36738 13.6011 4.28962 13.623 4.16741 13.623H4.10076H4.01744C3.99522 13.6448 3.96744 13.6503 3.93412 13.6393C3.90079 13.6284 3.87301 13.623 3.85079 13.623H3.8008H3.68415C3.62861 13.6776 3.58417 13.6776 3.55084 13.623C3.51751 13.623 3.50085 13.6339 3.50085 13.6557V13.6721H3.43419H3.36754C3.3231 13.7268 3.26755 13.7486 3.2009 13.7377C3.14535 13.7377 3.10647 13.7377 3.08425 13.7377H3.01759L2.98426 13.6721L2.93427 13.623C2.92316 13.623 2.9065 13.6175 2.88428 13.6066C2.86206 13.6066 2.83984 13.6066 2.81762 13.6066L2.80096 13.5902C2.77874 13.5683 2.75652 13.5574 2.7343 13.5574C2.70097 13.5792 2.66209 13.5902 2.61765 13.5902C2.57321 13.5902 2.53989 13.5792 2.51767 13.5574C2.46212 13.5574 2.40657 13.541 2.35103 13.5082C2.30659 13.4754 2.27326 13.4372 2.25104 13.3934C2.23993 13.3934 2.22882 13.388 2.21771 13.377C2.2066 13.3661 2.20105 13.3443 2.20105 13.3115H2.16772C2.13439 13.2787 2.11773 13.2623 2.11773 13.2623H2.10107C2.07885 13.2623 2.06218 13.2514 2.05107 13.2295C2.03996 13.2186 2.0233 13.2131 2.00108 13.2131C1.9011 13.2131 1.82888 13.1803 1.78445 13.1148C1.76223 13.1148 1.75112 13.1093 1.75112 13.0984V13.0656C1.7289 13.0656 1.71224 13.0546 1.70113 13.0328C1.69002 13.0219 1.67335 13.0164 1.65113 13.0164H1.51782C1.4956 12.9945 1.46783 12.9617 1.4345 12.918C1.40117 12.8743 1.37895 12.8361 1.36784 12.8033C1.35674 12.8033 1.34563 12.7978 1.33452 12.7869C1.32341 12.7869 1.3123 12.7814 1.30119 12.7705C1.30119 12.7705 1.29563 12.7705 1.28452 12.7705C1.21787 12.7158 1.16788 12.6612 1.13455 12.6066C1.079 12.5956 1.03456 12.5738 1.00123 12.541C0.979016 12.5082 0.967906 12.4809 0.967906 12.459C0.912359 12.4372 0.879031 12.4153 0.867922 12.3934C0.867922 12.3716 0.862367 12.3443 0.851258 12.3115L0.817929 12.2787C0.80682 12.2678 0.801265 12.2404 0.801265 12.1967C0.756828 12.1749 0.729054 12.153 0.717945 12.1311C0.706835 12.1093 0.690171 12.0984 0.667952 12.0984V12.0492C0.667952 12.0273 0.656843 12.0055 0.634624 11.9836L0.61796 11.9672C0.606851 11.9672 0.595741 11.9563 0.584632 11.9344C0.584632 11.9016 0.573523 11.8743 0.551304 11.8525C0.484647 11.8525 0.451319 11.8197 0.451319 11.7541C0.406882 11.6557 0.406882 11.6011 0.451319 11.5902C0.4291 11.5574 0.406882 11.5301 0.384663 11.5082C0.362444 11.4863 0.351335 11.4645 0.351335 11.4426C0.340225 11.388 0.334671 11.3224 0.334671 11.2459C0.334671 11.2131 0.34578 11.1858 0.367999 11.1639C0.401327 11.1421 0.4291 11.1202 0.451319 11.0984V11.082L0.484647 11.0328C0.451319 10.9781 0.423546 10.9508 0.401327 10.9508V10.9016C0.367999 10.8689 0.340225 10.8415 0.318006 10.8197C0.295788 10.7869 0.273569 10.7596 0.25135 10.7377V10.6885C0.229131 10.6667 0.212467 10.6393 0.201358 10.6066C0.190248 10.5738 0.16803 10.5301 0.134701 10.4754C0.112483 10.4536 0.101373 10.4262 0.101373 10.3934C0.101373 10.3497 0.101373 10.3115 0.101373 10.2787V10.082V10.0164V9.93443C0.0791544 9.87978 0.068045 9.82514 0.068045 9.77049C0.068045 9.71585 0.112483 9.64481 0.201358 9.55738C0.201358 9.51366 0.201358 9.46994 0.201358 9.42623C0.212467 9.38251 0.229131 9.34973 0.25135 9.32787H0.284678C0.240241 9.24044 0.240241 9.17486 0.284678 9.13115C0.284678 9.0765 0.301342 9.03279 0.334671 9C0.334671 8.94536 0.340225 8.91803 0.351335 8.91803C0.395772 8.81967 0.462429 8.74863 0.551304 8.70492C0.584632 8.70492 0.601296 8.69945 0.601296 8.68852V8.65574H0.61796L0.667952 8.60656C0.701281 8.60656 0.717945 8.60109 0.717945 8.59016V8.57377C0.695726 8.55191 0.679062 8.52459 0.667952 8.4918C0.667952 8.45902 0.667952 8.43169 0.667952 8.40984V8.36066C0.645734 8.3388 0.62907 8.3224 0.61796 8.31148C0.61796 8.28962 0.612406 8.26776 0.601296 8.2459C0.601296 8.21311 0.584632 8.18033 0.551304 8.14754C0.495757 8.0929 0.467983 8.04372 0.467983 8C0.479093 7.95628 0.484647 7.9235 0.484647 7.90164V7.7377C0.462429 7.71585 0.451319 7.68852 0.451319 7.65574C0.451319 7.61202 0.451319 7.57923 0.451319 7.55738C0.451319 7.52459 0.44021 7.49727 0.417991 7.47541C0.406882 7.44262 0.401327 7.40437 0.401327 7.36066C0.367999 7.31694 0.34578 7.26776 0.334671 7.21311C0.334671 7.15847 0.334671 7.12022 0.334671 7.09836V7.04918V6.78689V6.68852C0.334671 6.66667 0.329116 6.63934 0.318006 6.60656C0.318006 6.56284 0.306897 6.53005 0.284678 6.5082V6.42623C0.284678 6.37158 0.273569 6.32787 0.25135 6.29508V6.27869C0.229131 6.22404 0.212467 6.18579 0.201358 6.16393C0.190248 6.13115 0.16803 6.08743 0.134701 6.03279V5.96721C0.112483 5.93443 0.101373 5.88525 0.101373 5.81967C0.101373 5.74317 0.0902638 5.69399 0.068045 5.67213C-0.00972078 5.5847 -0.0208301 5.46995 0.034717 5.32787V5.11475C-0.0097207 5.07104 -0.0097207 5.01639 0.034717 4.95082V4.86885H0.068045C0.068045 4.78142 0.0902638 4.7377 0.134701 4.7377V4.68852C0.16803 4.66667 0.190248 4.64481 0.201358 4.62295C0.212467 4.60109 0.229131 4.57923 0.25135 4.55738C0.25135 4.53552 0.256905 4.52459 0.268014 4.52459H0.284678C0.284678 4.42623 0.323561 4.35519 0.401327 4.31147C0.401327 4.27869 0.406882 4.26229 0.417991 4.26229H0.451319V4.14754H0.484647C0.562413 4.02732 0.606851 3.95628 0.61796 3.93443C0.651288 3.91257 0.684616 3.88525 0.717945 3.85246V3.80328C0.740164 3.77049 0.751273 3.74863 0.751273 3.7377C0.762382 3.71585 0.795711 3.69399 0.851258 3.67213C0.851258 3.5847 0.879031 3.54098 0.934578 3.54098C0.956797 3.54098 0.973461 3.53552 0.98457 3.52459C0.99568 3.52459 1.00679 3.51913 1.0179 3.5082C1.05123 3.5082 1.06789 3.50273 1.06789 3.4918V3.47541C1.09011 3.47541 1.10677 3.46995 1.11788 3.45902C1.12899 3.45902 1.13455 3.45355 1.13455 3.44262C1.15677 3.39891 1.18454 3.36066 1.21787 3.32787V3.29508C1.27341 3.25137 1.30674 3.22951 1.31785 3.22951C1.31785 3.20765 1.32341 3.19126 1.33452 3.18033C1.35674 3.1694 1.3734 3.153 1.38451 3.13115C1.40673 3.13115 1.42339 3.12568 1.4345 3.11475C1.44561 3.0929 1.46227 3.06557 1.48449 3.03279C1.50671 3 1.53449 2.97814 1.56781 2.96721H1.63447C1.65669 2.87978 1.70668 2.83607 1.78445 2.83607C1.83999 2.78142 1.88443 2.7541 1.91776 2.7541C1.95109 2.74317 1.99553 2.7377 2.05107 2.7377H2.10107H2.20105H2.23438C2.2566 2.7377 2.27882 2.73224 2.30103 2.72131C2.35658 2.68852 2.40102 2.67213 2.43435 2.67213C2.46768 2.6612 2.50656 2.65574 2.551 2.65574C2.60654 2.65574 2.63987 2.66667 2.65098 2.68852C2.6732 2.71038 2.70097 2.72131 2.7343 2.72131C2.78985 2.73224 2.85095 2.7377 2.91761 2.7377C2.92871 2.7377 2.93427 2.73224 2.93427 2.72131C2.95649 2.72131 2.9676 2.71038 2.9676 2.68852C2.97871 2.66667 2.99537 2.65574 3.01759 2.65574V2.62295V2.57377C3.03981 2.57377 3.05647 2.56831 3.06758 2.55738C3.06758 2.54645 3.07314 2.53552 3.08425 2.52459L3.11757 2.4918C3.13979 2.46995 3.15646 2.45902 3.16757 2.45902C3.16757 2.43716 3.17312 2.42623 3.18423 2.42623C3.19534 2.4153 3.2009 2.39891 3.2009 2.37705C3.22311 2.37705 3.23422 2.36612 3.23422 2.34426C3.24533 2.3224 3.262 2.30055 3.28422 2.27869C3.28422 2.2459 3.30088 2.22404 3.33421 2.21311C3.33421 2.19126 3.33421 2.15847 3.33421 2.11475C3.33421 2.07104 3.34532 2.02186 3.36754 1.96721V1.95082V1.7377V1.65574V1.55738C3.34532 1.50273 3.33421 1.43716 3.33421 1.36066H3.28422V1.09836V1.01639H3.13424L3.33421 0.803278L3.28422 0.491803L3.43419 0.606557L3.95078 0L3.68415 0.803278V0.852459L3.8008 0.967212L3.63416 1.01639V1.14754C3.63416 1.22404 3.65083 1.27869 3.68415 1.31148C3.68415 1.33333 3.68415 1.36066 3.68415 1.39344C3.69526 1.4153 3.70082 1.44262 3.70082 1.47541C3.68971 1.49727 3.68415 1.51913 3.68415 1.54098C3.69526 1.56284 3.70082 1.60109 3.70082 1.65574V1.70492C3.74526 1.80328 3.74526 1.91257 3.70082 2.03279V2.16393V2.22951C3.70082 2.27322 3.6786 2.3224 3.63416 2.37705V2.40984C3.63416 2.40984 3.6175 2.42623 3.58417 2.45902V2.4918C3.56195 2.51366 3.54529 2.53552 3.53418 2.55738C3.53418 2.57923 3.52307 2.60109 3.50085 2.62295H3.58417H3.68415H3.70082H3.90079H4.01744H4.05076C4.17297 2.62295 4.26184 2.63388 4.31739 2.65574C4.36183 2.68852 4.39516 2.71038 4.41737 2.72131C4.4507 2.72131 4.48958 2.72131 4.53402 2.72131C4.50069 2.68852 4.48959 2.6612 4.50069 2.63934C4.52291 2.61749 4.53402 2.59563 4.53402 2.57377H4.58401C4.58401 2.51913 4.62845 2.45355 4.71733 2.37705L5.40056 1.77049L4.93396 2.57377V2.72131C4.93396 2.76503 4.9173 2.78688 4.88397 2.78688V2.83607C4.90619 2.87978 4.9173 2.91257 4.9173 2.93443C4.92841 2.95628 4.94507 2.97268 4.96729 2.98361C5.02284 3.00546 5.06727 3.04918 5.1006 3.11475C5.13393 3.1694 5.1617 3.20765 5.18392 3.22951V3.2459V3.29508V3.31147C5.18392 3.3224 5.20059 3.32787 5.23391 3.32787V3.37705C5.23391 3.40984 5.23947 3.43716 5.25058 3.45902C5.26169 3.46995 5.26724 3.48634 5.26724 3.5082V3.54098H5.30057C5.36723 3.60656 5.43388 3.63934 5.50054 3.63934C5.52276 3.63934 5.53942 3.64481 5.55053 3.65574C5.56164 3.66667 5.58386 3.67213 5.61719 3.67213C5.63941 3.67213 5.66163 3.68306 5.68385 3.70492C5.70606 3.71585 5.72828 3.72678 5.7505 3.7377C5.7505 3.7377 5.75606 3.73224 5.76717 3.72131V3.63934V3.54098L5.96714 2.83607L6.06712 3.54098V3.59016V3.63934V3.7377V3.80328C6.06712 3.84699 6.05601 3.87978 6.03379 3.90164V4.09836V4.14754C6.03379 4.21311 6.0449 4.26776 6.06712 4.31147V4.34426V4.39344C6.08934 4.4153 6.106 4.43716 6.11711 4.45902C6.12822 4.48087 6.14489 4.50273 6.1671 4.52459V4.55738V4.60656C6.18932 4.65027 6.20043 4.68306 6.20043 4.70492C6.21154 4.72678 6.22821 4.74317 6.25042 4.7541C6.27264 4.8306 6.29486 4.89617 6.31708 4.95082C6.3393 5.00546 6.36152 5.06011 6.38374 5.11475V5.21311V5.27869V5.32787V5.40984C6.38374 5.43169 6.38929 5.45355 6.4004 5.47541C6.41151 5.48634 6.40596 5.50273 6.38374 5.52459C6.45039 5.57923 6.48928 5.62842 6.50039 5.67213C6.5115 5.70492 6.51705 5.7377 6.51705 5.77049H6.53371C6.55593 5.82514 6.57815 5.86885 6.60037 5.90164C6.62259 5.9235 6.6337 5.96175 6.6337 6.01639C6.66703 6.02732 6.68369 6.06557 6.68369 6.13115V6.27869V6.29508C6.68369 6.31694 6.68925 6.34973 6.70035 6.39344C6.72257 6.42623 6.73368 6.45355 6.73368 6.47541V6.57377V6.63934V6.68852C6.73368 6.74317 6.75035 6.77596 6.78368 6.78689V6.88525H6.80034C6.867 6.8306 6.92254 6.81967 6.96698 6.85246C7.01142 6.87432 7.04475 6.88525 7.06697 6.88525L7.20028 7.03279H7.31693H7.20028L7.50023 7.22951L6.93365 7.18033H6.88366C6.86144 7.21311 6.83367 7.22951 6.80034 7.22951V7.27869H6.78368V7.29508H6.73368V7.36066V7.39344V7.42623C6.73368 7.43716 6.71702 7.45902 6.68369 7.4918V7.52459V7.63934C6.68369 7.70492 6.66703 7.7377 6.6337 7.7377V7.78688C6.61148 7.78688 6.59482 7.79235 6.58371 7.80328C6.5726 7.80328 6.55593 7.80328 6.53371 7.80328C6.5226 7.82514 6.5115 7.85246 6.50039 7.88525C6.50039 7.9071 6.48928 7.93989 6.46706 7.98361C6.46706 8.03825 6.45595 8.06557 6.43373 8.06557V8.11475C6.42262 8.12568 6.41151 8.13115 6.4004 8.13115C6.38929 8.14208 6.36707 8.14754 6.33374 8.14754C6.33374 8.21311 6.31708 8.26776 6.28375 8.31148L6.2171 8.40984L6.1671 8.45902C6.14489 8.50273 6.11156 8.54098 6.06712 8.57377C6.03379 8.60656 6.00046 8.65027 5.96714 8.70492L5.90048 8.7541H5.85049V8.80328V8.81967C5.85049 8.84153 5.86715 8.85792 5.90048 8.86885V8.95082V9.06557C5.93381 9.06557 5.93936 9.0765 5.91714 9.09836C5.90603 9.12022 5.90048 9.14208 5.90048 9.16393V9.21311C5.90048 9.2459 5.91159 9.26229 5.93381 9.26229H5.96714C5.98935 9.30601 6.00046 9.39344 6.00046 9.52459V9.55738L6.03379 9.59016V9.62295C6.05601 9.65574 6.06712 9.69945 6.06712 9.7541L6.11711 9.83607V9.88525C6.11711 9.97268 6.12267 10.0492 6.13378 10.1148C6.15599 10.1803 6.1671 10.2568 6.1671 10.3443V10.3607C6.1671 10.3716 6.15044 10.3934 6.11711 10.4262V10.5246V10.6066V10.6393C6.11711 10.694 6.106 10.7377 6.08378 10.7705C6.07267 10.8033 6.06712 10.8251 6.06712 10.8361V10.9016H6.03379V10.9836C6.01157 11.0164 6.00046 11.071 6.00046 11.1475V11.2951V11.3279C6.00046 11.3825 5.96713 11.4481 5.90048 11.5246C5.90048 11.5574 5.88937 11.5847 5.86715 11.6066C5.85604 11.6175 5.85049 11.6339 5.85049 11.6557C5.85049 11.7541 5.81716 11.8361 5.7505 11.9016V11.9672C5.7505 11.9781 5.74495 11.9945 5.73384 12.0164C5.71162 12.0601 5.68385 12.0874 5.65052 12.0984V12.1148C5.6283 12.1585 5.60052 12.1967 5.5672 12.2295C5.54498 12.2514 5.5172 12.2787 5.48388 12.3115H5.43388C5.43388 12.3443 5.42277 12.3716 5.40056 12.3934C5.38945 12.4153 5.37278 12.4536 5.35056 12.5082C5.33945 12.5082 5.32834 12.5137 5.31723 12.5246H5.30057V12.541C5.25613 12.6284 5.21725 12.6885 5.18392 12.7213V12.7705C5.12838 12.8142 5.08394 12.8361 5.05061 12.8361C5.01728 12.847 4.98951 12.8579 4.96729 12.8689C4.94507 12.8689 4.93396 12.8798 4.93396 12.9016V12.918C4.93396 12.9508 4.92285 12.9672 4.90063 12.9672H4.88397V13.0164C4.90619 13.0383 4.9173 13.0601 4.9173 13.082C4.92841 13.1148 4.94507 13.1475 4.96729 13.1803V13.2131C4.9784 13.2131 5.01728 13.2459 5.08394 13.3115C5.10616 13.3333 5.12282 13.3497 5.13393 13.3607C5.14504 13.3825 5.1617 13.3934 5.18392 13.3934V13.4098C5.18392 13.4208 5.20059 13.4262 5.23391 13.4262C5.26724 13.4481 5.29502 13.4699 5.31723 13.4918C5.35056 13.5137 5.37834 13.5355 5.40056 13.5574C5.44499 13.5792 5.48388 13.5956 5.5172 13.6066C5.55053 13.6284 5.58386 13.6503 5.61719 13.6721C5.69495 13.7377 5.74495 13.7705 5.76717 13.7705H5.78383C5.80605 13.7705 5.81716 13.7869 5.81716 13.8197C5.89492 13.7978 5.95603 13.7978 6.00046 13.8197C6.05601 13.8525 6.09489 13.8743 6.11711 13.8852C6.16155 13.8852 6.20599 13.918 6.25042 13.9836L6.28375 14.0164H6.33374C6.38929 14.071 6.42262 14.1093 6.43373 14.1311C6.45595 14.153 6.46706 14.1858 6.46706 14.2295C6.50039 14.2077 6.5226 14.1967 6.53371 14.1967C6.57815 14.153 6.62814 14.1311 6.68369 14.1311C6.71702 14.1311 6.73368 14.1257 6.73368 14.1148V14.082C6.81145 13.9727 6.91143 13.9399 7.03364 13.9836H7.06697H7.15029H7.20028C7.2225 13.9508 7.27249 13.9344 7.35026 13.9344H7.4669H7.50023C7.54467 13.9344 7.58355 13.918 7.61688 13.8852C7.61688 13.8743 7.63354 13.8579 7.66687 13.8361C7.7002 13.8142 7.73353 13.7923 7.76686 13.7705H7.81685C7.81685 13.7596 7.83907 13.7268 7.88351 13.6721C7.90572 13.6721 7.91683 13.6557 7.91683 13.623C7.91683 13.612 7.92794 13.6011 7.95016 13.5902C7.97238 13.5902 7.9946 13.5792 8.01682 13.5574H8.03348C8.03348 13.5574 8.03904 13.5464 8.05015 13.5246H8.08347C8.08347 13.4918 8.08903 13.4754 8.10014 13.4754H8.13347C8.15569 13.4317 8.17235 13.4044 8.18346 13.3934C8.19457 13.3934 8.21123 13.3825 8.23345 13.3607H8.26678C8.27789 13.3607 8.289 13.3552 8.30011 13.3443C8.32233 13.3224 8.33344 13.3115 8.33344 13.3115V13.2623L8.50008 13.0656L8.53341 13.0164L8.5834 12.9672C8.57229 12.9563 8.57229 12.9454 8.5834 12.9344C8.5834 12.9344 8.60562 12.9126 8.65005 12.8689C8.65005 12.8579 8.67783 12.8525 8.73338 12.8525L8.86669 12.7705L9 13.0164ZM3.96744 13.2623C3.96744 13.2295 3.99522 13.2131 4.05076 13.2131L4.10076 13.1803L3.90079 13.2131L4.05076 13.1311C4.05076 13.1202 4.03965 13.1148 4.01744 13.1148C3.99522 13.0601 3.96744 13.0055 3.93412 12.9508C3.9119 12.9071 3.90079 12.8579 3.90079 12.8033C3.90079 12.7814 3.89523 12.7486 3.88412 12.7049C3.88412 12.6721 3.87301 12.6393 3.85079 12.6066C3.85079 12.5738 3.83969 12.5355 3.81747 12.4918C3.80636 12.459 3.8008 12.4208 3.8008 12.377C3.8008 12.3552 3.78414 12.3443 3.75081 12.3443C3.72859 12.3224 3.71193 12.306 3.70082 12.2951C3.68971 12.2951 3.68415 12.2787 3.68415 12.2459C3.62861 12.2459 3.57861 12.2404 3.53418 12.2295C3.50085 12.2076 3.47308 12.1858 3.45086 12.1639L3.43419 12.1148H3.36754L3.33421 12.0984C3.26755 12.0984 3.22311 12.082 3.2009 12.0492C3.17868 12.0273 3.16201 12.0164 3.1509 12.0164C3.13979 12.0055 3.13424 11.9891 3.13424 11.9672C3.10091 11.9235 3.08425 11.8798 3.08425 11.8361C3.03981 11.8033 2.98982 11.7596 2.93427 11.7049C2.92316 11.7049 2.91761 11.6721 2.91761 11.6066H2.86761H2.85095C2.83984 11.6066 2.82873 11.6011 2.81762 11.5902L2.78429 11.5574C2.76207 11.5355 2.74541 11.5246 2.7343 11.5246C2.70097 11.5027 2.67875 11.4754 2.66764 11.4426C2.66764 11.4098 2.66764 11.3825 2.66764 11.3607V11.3279C2.65653 11.3279 2.65098 11.3224 2.65098 11.3115V11.2459C2.62876 11.2131 2.60654 11.1858 2.58432 11.1639C2.5621 11.1421 2.551 11.1202 2.551 11.0984C2.52878 11.0984 2.51767 11.0601 2.51767 10.9836C2.49545 10.9399 2.47323 10.9016 2.45101 10.8689C2.42879 10.8361 2.41768 10.7923 2.41768 10.7377V10.6393C2.40657 10.6175 2.40102 10.5956 2.40102 10.5738H2.35103C2.32881 10.5519 2.29548 10.5191 2.25104 10.4754C2.21771 10.4317 2.20105 10.3989 2.20105 10.377C2.15661 10.3333 2.12328 10.3115 2.10107 10.3115C2.10107 10.2896 2.06774 10.2787 2.00108 10.2787C1.94553 10.2787 1.9011 10.2568 1.86777 10.2131C1.83444 10.1694 1.80667 10.1202 1.78445 10.0656V10.0164C1.76223 10.0164 1.74556 10.0109 1.73445 10C1.73445 9.97814 1.72335 9.95628 1.70113 9.93443L1.65113 9.88525C1.64002 9.88525 1.63447 9.87978 1.63447 9.86885V9.83607C1.5567 9.83607 1.50671 9.79781 1.48449 9.72131C1.41784 9.65574 1.38451 9.60109 1.38451 9.55738H1.36784C1.23453 9.52459 1.16788 9.47541 1.16788 9.40984C1.14566 9.40984 1.13455 9.38251 1.13455 9.32787L1.06789 9.26229C1.06789 9.22951 1.05123 9.21311 1.0179 9.21311C0.962351 9.15847 0.934578 9.08743 0.934578 9H0.867922H0.851258H0.801265V9.03279C0.801265 9.04372 0.784601 9.04918 0.751273 9.04918H0.717945C0.740164 9.10382 0.723499 9.15847 0.667952 9.21311C0.667952 9.23497 0.673507 9.26229 0.684616 9.29508C0.695726 9.32787 0.673507 9.36612 0.61796 9.40984C0.61796 9.44262 0.612406 9.46994 0.601296 9.4918C0.601296 9.51366 0.601296 9.53552 0.601296 9.55738V9.57377C0.601296 9.57377 0.584632 9.59016 0.551304 9.62295V9.67213V9.72131V9.7541V9.81967C0.551304 9.8306 0.540194 9.84699 0.517976 9.86885C0.495757 9.89071 0.473538 9.9235 0.451319 9.96721V10.0164C0.473538 10.0492 0.484647 10.0984 0.484647 10.1639C0.484647 10.2186 0.484647 10.2678 0.484647 10.3115V10.3443V10.377V10.4262C0.484647 10.459 0.506866 10.4754 0.551304 10.4754C0.551304 10.541 0.567968 10.5847 0.601296 10.6066H0.61796C0.61796 10.6284 0.634624 10.6393 0.667952 10.6393C0.667952 10.6612 0.684616 10.6885 0.717945 10.7213C0.751273 10.7432 0.779046 10.776 0.801265 10.8197H0.851258C0.862367 10.8306 0.879031 10.8634 0.90125 10.918C0.923469 10.9727 0.934578 11.0273 0.934578 11.082C0.934578 11.1148 0.917914 11.1421 0.884586 11.1639C0.862367 11.1858 0.834593 11.2131 0.801265 11.2459C0.801265 11.2787 0.784601 11.2951 0.751273 11.2951V11.3279H0.734609C0.734609 11.3279 0.740164 11.3388 0.751273 11.3607L0.801265 11.3934V11.4426L0.934578 11.5246L0.801265 11.6066C0.945687 11.6612 1.0179 11.7432 1.0179 11.8525C1.0179 11.8743 1.02345 11.8907 1.03456 11.9016C1.05678 11.9126 1.06789 11.9344 1.06789 11.9672C1.10122 11.9672 1.13455 12.0109 1.16788 12.0984V12.1148C1.17898 12.1366 1.19009 12.153 1.2012 12.1639C1.21231 12.1639 1.21787 12.1694 1.21787 12.1803V12.1967L1.28452 12.2459C1.32896 12.2787 1.35674 12.3005 1.36784 12.3115C1.39006 12.3333 1.41228 12.3552 1.4345 12.377L1.45116 12.3934C1.47338 12.4153 1.48449 12.4372 1.48449 12.459C1.6067 12.459 1.69557 12.5082 1.75112 12.6066C1.77334 12.6066 1.80111 12.612 1.83444 12.623C1.87888 12.6339 1.91776 12.6667 1.95109 12.7213C1.95109 12.7432 1.98442 12.7869 2.05107 12.8525C2.07329 12.8525 2.0844 12.8525 2.0844 12.8525C2.09551 12.8634 2.11217 12.8689 2.13439 12.8689C2.13439 12.8907 2.13995 12.9071 2.15106 12.918C2.16217 12.929 2.17883 12.9454 2.20105 12.9672H2.25104C2.30659 12.9891 2.35103 13.0055 2.38435 13.0164C2.41768 13.0273 2.44546 13.0601 2.46767 13.1148C2.46767 13.1257 2.47323 13.1311 2.48434 13.1311C2.50656 13.1421 2.52878 13.1585 2.551 13.1803C2.60654 13.1585 2.65098 13.153 2.68431 13.1639C2.71764 13.1749 2.74541 13.1913 2.76763 13.2131H2.81762H2.86761H2.91761H2.98426L3.13424 13.2623V13.3115C3.17868 13.3115 3.212 13.3279 3.23422 13.3607C3.26755 13.3279 3.30088 13.3115 3.33421 13.3115C3.37865 13.2459 3.43419 13.2459 3.50085 13.3115H3.55084C3.59528 13.2568 3.63972 13.2295 3.68415 13.2295C3.7397 13.2295 3.77858 13.2404 3.8008 13.2623C3.82302 13.2404 3.84524 13.235 3.86746 13.2459C3.90079 13.2568 3.92856 13.2623 3.95078 13.2623H3.96744ZM0.551304 5.96721C0.595741 6.02186 0.61796 6.13115 0.61796 6.29508V6.34426H0.667952L0.717945 6.29508C0.717945 6.28415 0.729054 6.25683 0.751273 6.21311C0.729054 6.18033 0.717945 6.13661 0.717945 6.08197C0.740164 6.03825 0.740164 6.01639 0.717945 6.01639C0.695726 5.96175 0.684616 5.9071 0.684616 5.85246C0.684616 5.79781 0.695726 5.76503 0.717945 5.7541C0.740164 5.69945 0.751273 5.63934 0.751273 5.57377C0.751273 5.55191 0.756828 5.54098 0.767937 5.54098C0.790156 5.53005 0.801265 5.51366 0.801265 5.4918V5.27869H0.851258V5.21311V5.11475L0.967906 4.90164L1.10122 5.06557C1.13455 5.10929 1.14566 5.15301 1.13455 5.19672C1.13455 5.24044 1.13455 5.26776 1.13455 5.27869V5.40984L1.4345 5.4918L1.13455 5.62295L1.21787 5.7541L1.06789 5.70492V5.86885V5.91803V6.13115V6.21311C1.09011 6.26776 1.10122 6.3224 1.10122 6.37705V6.47541V6.5082V6.54098H1.13455L1.16788 6.57377C1.19009 6.60656 1.22342 6.62841 1.26786 6.63934C1.3123 6.65027 1.34563 6.66667 1.36784 6.68852C1.37895 6.71038 1.41784 6.72131 1.48449 6.72131C1.50671 6.72131 1.51782 6.71038 1.51782 6.68852C1.54004 6.66667 1.5567 6.63934 1.56781 6.60656C1.57892 6.56284 1.60114 6.53005 1.63447 6.5082C1.63447 6.43169 1.65669 6.37705 1.70113 6.34426C1.70113 6.30055 1.71779 6.25683 1.75112 6.21311C1.75112 6.1694 1.75667 6.12568 1.76778 6.08197C1.77889 6.03825 1.81778 6 1.88443 5.96721V5.95082C1.88443 5.92896 1.88999 5.91803 1.9011 5.91803V5.86885C1.9011 5.80328 1.91776 5.76503 1.95109 5.7541C1.92887 5.71038 1.91776 5.65574 1.91776 5.59016C1.91776 5.52459 1.94553 5.46448 2.00108 5.40984V5.32787V5.27869V5.26229C2.00108 5.18579 1.98442 5.13661 1.95109 5.11475V5.06557C1.91776 5.04372 1.9011 5.01093 1.9011 4.96721C1.9011 4.9235 1.9011 4.89071 1.9011 4.86885V4.80328C1.9011 4.77049 1.89554 4.7377 1.88443 4.70492C1.88443 4.6612 1.86777 4.61202 1.83444 4.55738V4.54098C1.83444 4.54098 1.81778 4.52459 1.78445 4.4918V4.44262L1.70113 4.31147L1.95109 4.14754L2.05107 4.31147H2.10107L2.16772 4.26229L2.05107 4.14754L2.30103 4.2459L2.40102 4.19672L2.35103 4.26229L2.51767 4.31147H2.551H2.60099H2.65098H2.7343C2.7343 4.2459 2.7954 4.19126 2.91761 4.14754L2.93427 4.09836C2.98982 4.04372 3.06758 4.00546 3.16757 3.98361C3.18979 3.98361 3.212 3.98361 3.23422 3.98361C3.26755 3.98361 3.28422 3.98907 3.28422 4C3.33976 3.98907 3.38975 3.98361 3.43419 3.98361V3.93443C3.4453 3.93443 3.46197 3.92896 3.48419 3.91803C3.5064 3.9071 3.52862 3.90164 3.55084 3.90164C3.57306 3.90164 3.58417 3.88525 3.58417 3.85246H3.63416V3.80328H3.68415C3.68415 3.75956 3.70637 3.73224 3.75081 3.72131V3.70492C3.75081 3.68306 3.76747 3.67213 3.8008 3.67213H3.85079C3.85079 3.62841 3.86746 3.60656 3.90079 3.60656C3.94522 3.59563 3.98411 3.59016 4.01744 3.59016C4.06187 3.56831 4.08965 3.55191 4.10076 3.54098C4.11187 3.53005 4.14519 3.5082 4.20074 3.47541V3.45902C4.20074 3.45902 4.21185 3.45355 4.23407 3.44262V3.37705H4.2674V3.32787C4.30073 3.32787 4.31739 3.3224 4.31739 3.31147V3.29508C4.35072 3.2623 4.37849 3.24044 4.40071 3.22951H4.4507C4.4507 3.16393 4.45626 3.13115 4.46737 3.13115C4.48958 3.13115 4.50625 3.12568 4.51736 3.11475L4.53402 3.09836L4.50069 3.06557C4.48959 3.06557 4.48403 3.06557 4.48403 3.06557C4.48403 3.05464 4.47848 3.04918 4.46737 3.04918C4.45626 3.04918 4.4507 3.04372 4.4507 3.03279L4.40071 2.98361H4.23407L4.20074 2.96721H4.10076H4.05076H3.96744C3.93412 2.96721 3.90079 2.97268 3.86746 2.98361C3.84524 2.98361 3.80636 2.98361 3.75081 2.98361C3.70637 2.98361 3.66749 2.97814 3.63416 2.96721H3.55084H3.50085H3.43419H3.36754H3.28422C3.262 2.97814 3.23978 2.98907 3.21756 3C3.20645 3 3.18979 3.01093 3.16757 3.03279C3.14535 3.03279 3.11202 3.04372 3.06758 3.06557C3.02314 3.08743 2.97315 3.09836 2.91761 3.09836C2.89539 3.12022 2.86761 3.14208 2.83429 3.16393C2.81207 3.17486 2.78985 3.18033 2.76763 3.18033C2.76763 3.21311 2.7343 3.22951 2.66764 3.22951V3.2459H2.65098L2.16772 3.54098L2.41768 3.09836C2.41768 3.05464 2.42324 3.02732 2.43435 3.01639L2.46767 2.98361C2.41213 3.00546 2.35658 3.02732 2.30103 3.04918C2.24549 3.07104 2.18994 3.06557 2.13439 3.03279C2.11217 3.03279 2.08996 3.03825 2.06774 3.04918C2.04552 3.04918 2.00663 3.06557 1.95109 3.09836C1.93998 3.10929 1.92887 3.11475 1.91776 3.11475C1.90665 3.12568 1.87888 3.13115 1.83444 3.13115C1.83444 3.153 1.82333 3.1694 1.80111 3.18033C1.79 3.19126 1.78445 3.20765 1.78445 3.22951V3.2459H1.75112C1.75112 3.27869 1.74001 3.29508 1.71779 3.29508H1.70113L1.65113 3.32787C1.64002 3.34973 1.61225 3.37705 1.56781 3.40984C1.53449 3.44262 1.51782 3.47541 1.51782 3.5082H1.48449C1.48449 3.53005 1.47894 3.55738 1.46783 3.59016C1.46783 3.62295 1.44006 3.65027 1.38451 3.67213L1.75112 3.93443H1.28452C1.2512 3.93443 1.21787 3.93443 1.18454 3.93443C1.15121 3.93443 1.12344 3.9235 1.10122 3.90164C1.079 3.9235 1.05678 3.94536 1.03456 3.96721C1.01234 3.97814 0.990125 3.98907 0.967906 4L0.934578 4.09836C0.879031 4.14208 0.851258 4.19126 0.851258 4.2459V4.26229C0.829039 4.28415 0.80682 4.30601 0.784601 4.32787C0.762382 4.34973 0.740164 4.38798 0.717945 4.44262L0.667952 4.4918C0.667952 4.51366 0.656843 4.53552 0.634624 4.55738C0.623515 4.56831 0.61796 4.5847 0.61796 4.60656V4.63934C0.61796 4.65027 0.612406 4.65574 0.601296 4.65574V4.68852C0.567968 4.72131 0.551304 4.7377 0.551304 4.7377V4.7541V4.90164L0.451319 4.95082C0.395772 4.97268 0.362444 4.98907 0.351335 5C0.351335 5.01093 0.351335 5.03279 0.351335 5.06557C0.384663 5.09836 0.384663 5.12568 0.351335 5.14754V5.32787C0.340225 5.32787 0.334671 5.33333 0.334671 5.34426V5.36066V5.45902C0.34578 5.48087 0.356889 5.50273 0.367999 5.52459C0.390218 5.53552 0.401327 5.55191 0.401327 5.57377C0.401327 5.63934 0.417991 5.68306 0.451319 5.70492V5.77049V5.81967C0.451319 5.91803 0.484647 5.96721 0.551304 5.96721ZM4.78398 3.29508L4.73399 3.32787C4.72288 3.32787 4.71733 3.3388 4.71733 3.36066V3.37705C4.69511 3.39891 4.67844 3.4153 4.66734 3.42623C4.66734 3.43716 4.66178 3.44809 4.65067 3.45902C4.63956 3.46995 4.62845 3.47541 4.61734 3.47541L4.58401 3.5082C4.58401 3.53005 4.57291 3.54645 4.55069 3.55738C4.52847 3.55738 4.50069 3.56831 4.46737 3.59016H4.4507V3.63934C4.42848 3.68306 4.39516 3.73224 4.35072 3.78689C4.30628 3.84153 4.24518 3.87978 4.16741 3.90164C4.12297 3.9235 4.07298 3.93443 4.01744 3.93443H3.96744C3.96744 3.96721 3.96189 3.98361 3.95078 3.98361L3.90079 4L3.85079 4.04918C3.85079 4.07104 3.83969 4.08743 3.81747 4.09836C3.79525 4.10929 3.77303 4.12568 3.75081 4.14754C3.75081 4.18033 3.71193 4.19672 3.63416 4.19672V4.22951C3.63416 4.24044 3.6175 4.2459 3.58417 4.2459C3.53973 4.27869 3.50085 4.30055 3.46752 4.31147C3.43419 4.31147 3.38976 4.31147 3.33421 4.31147H3.23422H3.2009C3.2009 4.3224 3.19534 4.32787 3.18423 4.32787C3.17312 4.3388 3.15646 4.34426 3.13424 4.34426C3.13424 4.40984 3.09536 4.44262 3.01759 4.44262C3.05092 4.44262 3.07869 4.45355 3.10091 4.47541C3.11202 4.48634 3.12313 4.4918 3.13424 4.4918C3.15646 4.51366 3.17312 4.52459 3.18423 4.52459C3.19534 4.52459 3.2009 4.53552 3.2009 4.55738H3.28422C3.30643 4.55738 3.32865 4.56831 3.35087 4.59016C3.37309 4.61202 3.40086 4.63388 3.43419 4.65574L3.75081 5.11475L3.28422 4.90164L3.23422 5.01639L2.93427 4.95082L2.98426 4.80328L2.81762 4.7541L2.91761 4.7377L2.86761 4.68852C2.83428 4.68852 2.80096 4.6776 2.76763 4.65574H2.7343L2.81762 5.26229L2.46767 4.60656C2.44546 4.60656 2.42324 4.60109 2.40102 4.59016C2.38991 4.56831 2.37325 4.54645 2.35103 4.52459L2.30103 4.4918H2.25104V4.5082C2.25104 4.5082 2.23438 4.52459 2.20105 4.55738V4.60656H2.21771C2.23993 4.60656 2.25104 4.62295 2.25104 4.65574V4.68852C2.26215 4.71038 2.27326 4.73224 2.28437 4.7541C2.29548 4.76503 2.30103 4.78142 2.30103 4.80328V4.86885C2.30103 4.9235 2.3177 4.96721 2.35103 5L2.46767 5.01639L2.40102 5.21311L2.35103 5.26229V5.36066H2.41768H2.65098L2.551 5.57377H2.66764V5.67213L2.65098 5.70492L2.60099 5.91803L2.51767 5.86885L2.30103 6.08197V6.01639V6.03279V6.16393C2.34547 6.26229 2.34547 6.34973 2.30103 6.42623C2.30103 6.48087 2.3177 6.5082 2.35103 6.5082V6.54098C2.35103 6.56284 2.36769 6.57377 2.40102 6.57377H2.41768H2.46767H2.51767H3.45086L2.551 6.88525H2.51767C2.53989 6.9071 2.551 6.92896 2.551 6.95082C2.5621 6.97268 2.57877 6.98361 2.60099 6.98361C2.62321 7.03825 2.63432 7.0929 2.63432 7.14754C2.64543 7.19126 2.65653 7.24044 2.66764 7.29508C2.7343 7.36066 2.76763 7.43716 2.76763 7.52459H2.81762C2.81762 7.54645 2.82318 7.56831 2.83429 7.59016C2.8565 7.60109 2.86761 7.61749 2.86761 7.63934C2.92316 7.63934 2.97315 7.68852 3.01759 7.78688H3.08425H3.2009H3.23422L3.33421 7.7377L3.43419 8.04918L3.28422 8.06557H3.2009C3.16757 8.15301 3.10647 8.19672 3.01759 8.19672C3.01759 8.22951 3.00648 8.2459 2.98426 8.2459V8.27869V8.31148V8.40984V8.45902C3.00648 8.4918 3.01759 8.51913 3.01759 8.54098C3.01759 8.56284 3.03981 8.57377 3.08425 8.57377V8.60656V8.63934C3.08425 8.65027 3.10091 8.65574 3.13424 8.65574V8.70492C3.15646 8.74863 3.17312 8.77596 3.18423 8.78689C3.19534 8.79781 3.2009 8.80874 3.2009 8.81967V8.86885C3.24533 8.89071 3.26755 8.9235 3.26755 8.96721C3.27866 9 3.28422 9.02732 3.28422 9.04918H3.33421C3.33421 9.06011 3.33976 9.07104 3.35087 9.08197C3.36198 9.08197 3.36754 9.09836 3.36754 9.13115C3.45641 9.13115 3.50085 9.19672 3.50085 9.32787C3.58972 9.32787 3.63416 9.37705 3.63416 9.47541C3.65638 9.47541 3.67304 9.48634 3.68415 9.5082C3.70637 9.51913 3.72859 9.53552 3.75081 9.55738C3.81747 9.55738 3.85079 9.54645 3.85079 9.52459H3.86746C3.88968 9.52459 3.90079 9.5082 3.90079 9.47541L4.01744 9.36066L4.10076 9.40984C4.13408 9.38798 4.16186 9.37705 4.18408 9.37705C4.2174 9.36612 4.24518 9.36066 4.2674 9.36066C4.33405 9.36066 4.37849 9.34973 4.40071 9.32787V9.29508C4.42293 9.27322 4.44515 9.2459 4.46737 9.21311C4.48958 9.18033 4.52847 9.153 4.58401 9.13115C4.58401 9.09836 4.58957 9.0765 4.60068 9.06557C4.6229 9.04372 4.64512 9.02186 4.66734 9L4.71733 8.95082V8.91803C4.72844 8.86339 4.73955 8.8306 4.75066 8.81967C4.77287 8.79781 4.79509 8.77596 4.81731 8.7541L4.88397 8.70492L4.93396 8.65574V8.60656C4.95618 8.60656 4.96729 8.60109 4.96729 8.59016V8.57377C4.98951 8.57377 5.00062 8.56831 5.00062 8.55738V8.54098C5.00062 8.51913 5.00617 8.5082 5.01728 8.5082C5.02839 8.49727 5.03395 8.48087 5.03395 8.45902L5.08394 8.40984C5.08394 8.37705 5.1006 8.36066 5.13393 8.36066C5.1006 8.36066 5.08394 8.35519 5.08394 8.34426V8.31148H5.03395V8.27869C5.03395 8.25683 5.02839 8.2459 5.01728 8.2459C5.00617 8.23497 5.00062 8.21858 5.00062 8.19672C4.9784 8.16393 4.95618 8.13661 4.93396 8.11475L4.88397 8.06557C4.83953 8.05464 4.78954 8 4.73399 7.90164C4.73399 7.86885 4.72844 7.83607 4.71733 7.80328V7.78688C4.69511 7.78688 4.67844 7.78142 4.66734 7.77049C4.65623 7.74863 4.63956 7.7377 4.61734 7.7377L4.4507 7.78688L4.46737 7.52459C4.46737 7.50273 4.46181 7.4918 4.4507 7.4918C4.4507 7.48087 4.4507 7.46448 4.4507 7.44262C4.42848 7.46448 4.40626 7.48634 4.38405 7.5082C4.36183 7.51913 4.32294 7.52459 4.2674 7.52459C4.2674 7.53552 4.26184 7.54645 4.25073 7.55738H4.23407L3.23422 8.19672L4.05076 7.36066C4.07298 7.31694 4.0952 7.28962 4.11742 7.27869C4.15075 7.26776 4.17852 7.25137 4.20074 7.22951V7.18033C4.22296 7.18033 4.23407 7.17486 4.23407 7.16393V7.13115C4.23407 7.10929 4.21185 7.08197 4.16741 7.04918C4.08965 7.04918 4.05076 7.04372 4.05076 7.03279C4.05076 7.03279 4.04521 7.02186 4.0341 7V6.98361H4.01744C3.98411 6.93989 3.94522 6.87432 3.90079 6.78689H3.85079L3.75081 6.77049V6.7541C3.75081 6.73224 3.73415 6.72131 3.70082 6.72131L3.33421 6.54098L3.16757 6.5082L3.2009 6.47541L2.93427 6.34426L3.23422 6.42623L3.28422 6.34426C3.31754 6.30055 3.36754 6.27869 3.43419 6.27869C3.46752 6.2459 3.49529 6.24044 3.51751 6.26229C3.53973 6.27322 3.56195 6.28415 3.58417 6.29508H3.63416C3.66749 6.29508 3.68415 6.31148 3.68415 6.34426C3.71748 6.34426 3.75637 6.35519 3.8008 6.37705C3.84524 6.38798 3.87857 6.42076 3.90079 6.47541H3.91745C3.93967 6.47541 3.95078 6.48634 3.95078 6.5082H3.96744V6.54098C4.01188 6.54098 4.05632 6.54645 4.10076 6.55738C4.1563 6.56831 4.20074 6.61202 4.23407 6.68852C4.23407 6.71038 4.24518 6.72131 4.2674 6.72131V6.77049H4.31739L4.36738 6.72131C4.42293 6.69945 4.50625 6.68852 4.61734 6.68852H4.66734H4.71733H4.78398C4.8062 6.66667 4.82842 6.65027 4.85064 6.63934C4.88397 6.62841 4.91174 6.60656 4.93396 6.57377V6.03279L5.18392 6.37705C5.23947 6.43169 5.26724 6.48634 5.26724 6.54098V6.68852V6.77049C5.26724 6.84699 5.26724 6.91803 5.26724 6.98361C5.26724 7.04918 5.27835 7.11475 5.30057 7.18033C5.3339 7.18033 5.35056 7.19126 5.35056 7.21311V7.22951V7.29508L5.30057 7.36066V7.39344L5.26724 7.44262C5.26724 7.48634 5.26169 7.52459 5.25058 7.55738C5.23947 7.59016 5.23391 7.61749 5.23391 7.63934V7.85246H5.18392L5.23391 7.90164C5.25613 7.9235 5.27835 7.94535 5.30057 7.96721C5.3339 7.98907 5.35056 8.02186 5.35056 8.06557C5.35056 8.08743 5.35056 8.10929 5.35056 8.13115C5.36167 8.15301 5.38945 8.17486 5.43388 8.19672C5.4561 8.21858 5.46721 8.24044 5.46721 8.26229C5.47832 8.27322 5.48943 8.28962 5.50054 8.31148C5.50054 8.34426 5.50609 8.36612 5.5172 8.37705L5.55053 8.40984L5.61719 8.45902V8.5082C5.63941 8.47541 5.66718 8.45902 5.70051 8.45902L5.7505 8.40984C5.7505 8.38798 5.7505 8.37158 5.7505 8.36066C5.76161 8.34973 5.76717 8.33333 5.76717 8.31148L5.81716 8.27869C5.83938 8.25683 5.8616 8.23497 5.88381 8.21311C5.90603 8.19126 5.94492 8.15847 6.00046 8.11475C6.00046 8.04918 6.01157 8.00546 6.03379 7.98361C6.06712 7.95082 6.09489 7.9235 6.11711 7.90164C6.16155 7.81421 6.20599 7.74863 6.25042 7.70492V7.63934V7.59016C6.27264 7.59016 6.28375 7.5847 6.28375 7.57377V7.55738V7.52459C6.28375 7.50273 6.28931 7.4918 6.30042 7.4918H6.33374C6.33374 7.43716 6.34485 7.38251 6.36707 7.32787C6.38929 7.27322 6.41151 7.20765 6.43373 7.13115C6.43373 7.0765 6.44484 7.04372 6.46706 7.03279V6.88525C6.44484 6.86339 6.43373 6.84153 6.43373 6.81967V6.78689V6.68852V6.63934V6.57377V6.5082L6.38374 6.47541C6.38374 6.42076 6.37263 6.37158 6.35041 6.32787C6.3393 6.27322 6.33374 6.21858 6.33374 6.16393L6.2171 6.01639H6.1671H6.11711L6.06712 6.03279H6.03379L6.00046 6.08197C5.97824 6.08197 5.96158 6.0929 5.95047 6.11475C5.93936 6.12568 5.90603 6.14208 5.85049 6.16393L5.76717 6.29508L5.7505 6.21311L5.35056 6.37705L5.55053 6.01639L5.43388 5.86885H5.7505C5.77272 5.80328 5.79494 5.77049 5.81716 5.77049C5.83938 5.77049 5.8616 5.77049 5.88381 5.77049C5.90603 5.75956 5.93381 5.7541 5.96714 5.7541L6.00046 5.70492H6.11711C6.06156 5.6612 6.0449 5.60109 6.06712 5.52459C6.06712 5.50273 6.06156 5.48634 6.05046 5.47541C6.03935 5.45355 6.03379 5.43169 6.03379 5.40984V5.32787V5.27869C6.03379 5.2459 6.01157 5.17486 5.96714 5.06557C5.96714 5.02186 5.94492 4.98361 5.90048 4.95082C5.87826 4.9071 5.8616 4.86339 5.85049 4.81967C5.85049 4.77596 5.83938 4.74863 5.81716 4.7377V4.65574V4.60656H5.76717C5.75606 4.56284 5.73939 4.51913 5.71717 4.47541C5.70606 4.43169 5.70051 4.37705 5.70051 4.31147C5.67829 4.27869 5.66163 4.24044 5.65052 4.19672C5.65052 4.15301 5.65052 4.10382 5.65052 4.04918H5.61719L5.55053 4C5.52831 4 5.51165 4 5.50054 4C5.50054 3.98907 5.49499 3.98361 5.48388 3.98361C5.46166 3.98361 5.43944 3.97814 5.41722 3.96721C5.395 3.94536 5.37278 3.93443 5.35056 3.93443C5.32834 3.93443 5.30613 3.92896 5.28391 3.91803C5.2728 3.9071 5.25613 3.90164 5.23391 3.90164L5.18392 3.85246H5.13393V3.80328C5.06727 3.80328 5.02284 3.78142 5.00062 3.7377C5.00062 3.72678 4.99506 3.71585 4.98395 3.70492C4.97284 3.68306 4.96729 3.6612 4.96729 3.63934C4.96729 3.61749 4.96173 3.59563 4.95063 3.57377C4.93952 3.55191 4.93396 3.53005 4.93396 3.5082V3.47541C4.90063 3.47541 4.88397 3.46995 4.88397 3.45902V3.44262C4.88397 3.40984 4.87286 3.38251 4.85064 3.36066C4.82842 3.3388 4.81731 3.31694 4.81731 3.29508H4.78398ZM0.717945 6.83607C0.762382 6.90164 0.762382 6.97268 0.717945 7.04918V7.09836V7.22951C0.740164 7.26229 0.751273 7.28415 0.751273 7.29508C0.751273 7.36066 0.767937 7.39344 0.801265 7.39344V7.4918H0.851258V7.59016C0.862367 7.62295 0.867922 7.6612 0.867922 7.70492V7.7377C0.912359 7.77049 0.934578 7.82514 0.934578 7.90164C0.956797 7.94535 0.973461 7.98361 0.98457 8.01639C1.00679 8.04918 1.0179 8.08197 1.0179 8.11475V8.19672C1.05123 8.22951 1.06789 8.26776 1.06789 8.31148V8.36066V8.40984C1.09011 8.43169 1.10122 8.45902 1.10122 8.4918C1.10122 8.52459 1.10122 8.55191 1.10122 8.57377C1.12344 8.59563 1.13455 8.61202 1.13455 8.62295V8.65574C1.15677 8.69945 1.16788 8.72131 1.16788 8.72131V8.7541V8.78689C1.16788 8.79781 1.18454 8.80328 1.21787 8.80328V8.91803C1.28452 8.95082 1.31785 8.97814 1.31785 9H1.33452C1.35674 9 1.36784 9.01639 1.36784 9.04918L1.38451 9.06557C1.40673 9.09836 1.42339 9.12568 1.4345 9.14754C1.44561 9.1694 1.46227 9.19126 1.48449 9.21311L1.51782 9.26229L1.56781 9.29508C1.62336 9.29508 1.68446 9.31694 1.75112 9.36066C1.77334 9.40437 1.78445 9.43716 1.78445 9.45902V9.52459C1.81778 9.54645 1.8511 9.55738 1.88443 9.55738C1.89554 9.57923 1.9122 9.60109 1.93442 9.62295C1.95664 9.63388 1.97886 9.65027 2.00108 9.67213H2.01774C2.03996 9.67213 2.05107 9.68852 2.05107 9.72131C2.06218 9.72131 2.07329 9.72678 2.0844 9.73771C2.09551 9.73771 2.10662 9.73771 2.11773 9.73771L2.13439 9.7541C2.15661 9.7541 2.17328 9.76503 2.18439 9.78689C2.2066 9.80874 2.22882 9.82514 2.25104 9.83607C2.28437 9.83607 2.30103 9.86885 2.30103 9.93443C2.30103 9.95628 2.3177 9.96721 2.35103 9.96721H2.40102V9.93443C2.40102 9.81421 2.38435 9.74317 2.35103 9.72131C2.35103 9.69945 2.33992 9.68306 2.3177 9.67213C2.30659 9.6612 2.30103 9.64481 2.30103 9.62295C2.26771 9.57923 2.25104 9.4918 2.25104 9.36066C2.28437 9.3388 2.30103 9.30601 2.30103 9.26229V9.21311C2.23438 9.19126 2.18994 9.1694 2.16772 9.14754C2.1455 9.12568 2.12328 9.0929 2.10107 9.04918C2.03441 8.98361 1.98442 8.95082 1.95109 8.95082L1.9011 8.91803C1.9011 8.89617 1.87888 8.86339 1.83444 8.81967C1.81222 8.81967 1.79556 8.81421 1.78445 8.80328C1.76223 8.78142 1.75112 8.74863 1.75112 8.70492L1.73445 8.68852C1.71224 8.66667 1.68446 8.65574 1.65113 8.65574C1.6067 8.63388 1.56781 8.60656 1.53449 8.57377C1.50116 8.54098 1.48449 8.50273 1.48449 8.45902C1.41784 8.45902 1.38451 8.42623 1.38451 8.36066C1.3734 8.36066 1.36229 8.35519 1.35118 8.34426C1.35118 8.3224 1.34007 8.30055 1.31785 8.27869C1.29563 8.25683 1.26786 8.23497 1.23453 8.21311C1.21231 8.18033 1.19009 8.13115 1.16788 8.06557C1.14566 8.05464 1.12344 8.03825 1.10122 8.01639C1.079 7.98361 1.06789 7.94535 1.06789 7.90164C1.03456 7.86885 1.0179 7.81421 1.0179 7.7377C0.98457 7.71585 0.967906 7.66667 0.967906 7.59016C0.945687 7.54645 0.934578 7.46995 0.934578 7.36066V7.29508C0.89014 7.28415 0.867922 7.26229 0.867922 7.22951C0.867922 7.20765 0.862367 7.18033 0.851258 7.14754C0.851258 7.10382 0.851258 7.07104 0.851258 7.04918V6.91803V6.88525C0.851258 6.85246 0.834593 6.83607 0.801265 6.83607V6.72131C0.756828 6.76503 0.729054 6.78689 0.717945 6.78689V6.83607ZM1.75112 7.7377C1.69557 7.6612 1.66224 7.60656 1.65113 7.57377C1.64002 7.53005 1.64002 7.48634 1.65113 7.44262C1.64002 7.42076 1.62336 7.39891 1.60114 7.37705C1.57892 7.35519 1.56781 7.3224 1.56781 7.27869C1.53449 7.27869 1.50671 7.26229 1.48449 7.22951L1.4345 7.18033C1.40117 7.15847 1.36229 7.13661 1.31785 7.11475C1.28452 7.0929 1.2512 7.06557 1.21787 7.03279H1.18454C1.17343 7.03279 1.16788 7.01639 1.16788 6.98361V7.04918L1.21787 7.09836V7.18033C1.26231 7.21311 1.28452 7.25137 1.28452 7.29508C1.28452 7.36066 1.29563 7.40984 1.31785 7.44262C1.31785 7.47541 1.33452 7.50273 1.36784 7.52459V7.59016V7.70492H1.38451L1.36784 7.7377V7.78688C1.37895 7.78688 1.38451 7.79235 1.38451 7.80328C1.47338 7.84699 1.51782 7.92896 1.51782 8.04918L1.56781 8.06557C1.61225 8.09836 1.63447 8.12568 1.63447 8.14754V8.16393C1.63447 8.17486 1.64002 8.18579 1.65113 8.19672C1.74001 8.24044 1.78445 8.27869 1.78445 8.31148L1.88443 8.40984V8.42623C1.88443 8.43716 1.88999 8.44809 1.9011 8.45902C1.93442 8.45902 1.96775 8.47541 2.00108 8.5082V8.45902V8.40984C1.96775 8.40984 1.95109 8.37705 1.95109 8.31148C1.91776 8.27869 1.88999 8.2459 1.86777 8.21311C1.85666 8.18033 1.86221 8.13115 1.88443 8.06557V8.04918C1.81778 7.96175 1.78445 7.91257 1.78445 7.90164C1.76223 7.84699 1.75112 7.81421 1.75112 7.80328C1.75112 7.78142 1.75112 7.75956 1.75112 7.7377ZM2.30103 7.59016C2.30103 7.56831 2.28992 7.54645 2.26771 7.52459C2.2566 7.4918 2.25104 7.46448 2.25104 7.44262V7.39344H2.20105C2.20105 7.4153 2.19549 7.43169 2.18439 7.44262C2.17328 7.45355 2.16772 7.46995 2.16772 7.4918V7.59016C2.16772 7.60109 2.17328 7.61202 2.18439 7.62295C2.18439 7.63388 2.18439 7.64481 2.18439 7.65574C2.19549 7.66667 2.20105 7.68306 2.20105 7.70492C2.23438 7.72678 2.25104 7.75956 2.25104 7.80328C2.25104 7.82514 2.2566 7.84153 2.26771 7.85246C2.28992 7.86339 2.30103 7.87978 2.30103 7.90164C2.32325 7.9235 2.33436 7.95628 2.33436 8C2.34547 8.04372 2.35103 8.08197 2.35103 8.11475L2.40102 8.14754V8.16393C2.40102 8.17486 2.40657 8.18579 2.41768 8.19672C2.45101 8.19672 2.46767 8.18033 2.46767 8.14754C2.46767 8.12568 2.48434 8.11475 2.51767 8.11475V8.04918C2.48434 8.00546 2.46767 7.9235 2.46767 7.80328H2.43435C2.42324 7.80328 2.41768 7.79781 2.41768 7.78688C2.40657 7.76503 2.38991 7.74317 2.36769 7.72131C2.34547 7.68852 2.32325 7.64481 2.30103 7.59016ZM2.13439 7.04918C2.11217 7.03825 2.09551 7.02186 2.0844 7C2.0844 6.97814 2.07329 6.95082 2.05107 6.91803C2.00663 6.91803 1.95664 6.89071 1.9011 6.83607V6.78689H1.88443C1.88443 6.8306 1.8511 6.87432 1.78445 6.91803C1.81778 6.96175 1.8511 6.98361 1.88443 6.98361C1.89554 7.00546 1.9122 7.02732 1.93442 7.04918C1.95664 7.06011 1.97886 7.0765 2.00108 7.09836V7.13115V7.09836H2.05107C2.06218 7.09836 2.07329 7.0929 2.0844 7.08197C2.10662 7.06011 2.12328 7.04918 2.13439 7.04918ZM3.75081 11.8525C3.80636 11.8525 3.84524 11.8634 3.86746 11.8852C3.90079 11.8962 3.92856 11.9016 3.95078 11.9016V11.8525V11.8361C3.95078 11.8033 3.93967 11.7869 3.91745 11.7869H3.90079C3.90079 11.765 3.88968 11.7432 3.86746 11.7213C3.85635 11.6995 3.85079 11.6776 3.85079 11.6557C3.82858 11.623 3.81191 11.5847 3.8008 11.541C3.78969 11.4973 3.77303 11.4481 3.75081 11.3934C3.75081 11.3497 3.73415 11.3169 3.70082 11.2951C3.70082 11.1639 3.69526 11.0929 3.68415 11.082V10.9836V10.9508V10.8197H3.63416C3.57861 10.765 3.55084 10.7213 3.55084 10.6885C3.51751 10.6885 3.50085 10.6831 3.50085 10.6721V10.6393C3.48974 10.6393 3.47863 10.6339 3.46752 10.623C3.4453 10.6011 3.43419 10.5847 3.43419 10.5738C3.43419 10.4973 3.42308 10.4372 3.40086 10.3934C3.37865 10.3497 3.35643 10.3115 3.33421 10.2787V10.1311V10.1148C3.33421 10.0929 3.31754 10.082 3.28422 10.082V10.0164V9.96721C3.25089 9.94535 3.23422 9.91803 3.23422 9.88525C3.212 9.88525 3.2009 9.86885 3.2009 9.83607C3.12313 9.83607 3.08425 9.8306 3.08425 9.81967L2.98426 9.72131C2.95093 9.69945 2.91761 9.6776 2.88428 9.65574C2.86206 9.63388 2.83984 9.61202 2.81762 9.59016C2.7954 9.59016 2.77874 9.5847 2.76763 9.57377C2.76763 9.56284 2.75652 9.55738 2.7343 9.55738C2.7343 9.53552 2.72319 9.52459 2.70097 9.52459H2.66764V9.59016C2.66764 9.61202 2.67875 9.63388 2.70097 9.65574C2.72319 9.6776 2.7343 9.69945 2.7343 9.72131V9.93443V9.96721V10.0164V10.082V10.1311C2.75652 10.1858 2.76763 10.224 2.76763 10.2459C2.76763 10.2678 2.76763 10.2896 2.76763 10.3115V10.3443C2.78985 10.3661 2.80651 10.3934 2.81762 10.4262C2.82873 10.459 2.84539 10.4754 2.86761 10.4754V10.5246V10.5738C2.90094 10.5956 2.91761 10.6339 2.91761 10.6885C2.95093 10.7541 2.9676 10.8087 2.9676 10.8525C2.97871 10.8962 2.98426 10.9399 2.98426 10.9836C2.98426 11.0055 2.98982 11.0328 3.00093 11.0656C3.01204 11.0874 3.01759 11.1148 3.01759 11.1475L3.08425 11.1803L3.13424 11.2459C3.13424 11.2678 3.13979 11.2842 3.1509 11.2951C3.16201 11.2951 3.16757 11.306 3.16757 11.3279C3.18979 11.3497 3.20645 11.377 3.21756 11.4098C3.23978 11.4426 3.262 11.4699 3.28422 11.4918H3.30088C3.3231 11.4918 3.33421 11.5027 3.33421 11.5246C3.35643 11.5246 3.37865 11.541 3.40086 11.5738C3.43419 11.5956 3.45086 11.623 3.45086 11.6557C3.48418 11.6557 3.50085 11.6667 3.50085 11.6885V11.7049C3.50085 11.7377 3.5064 11.7541 3.51751 11.7541H3.55084V11.7869C3.57306 11.7869 3.60083 11.7923 3.63416 11.8033C3.66749 11.8033 3.68971 11.8197 3.70082 11.8525H3.75081ZM4.93396 7.4918C4.87841 7.43716 4.87841 7.37158 4.93396 7.29508V7.27869V7.22951C4.93396 7.20765 4.94507 7.17486 4.96729 7.13115V7.09836V7.03279L4.93396 6.98361C4.93396 7.01639 4.89508 7.03279 4.81731 7.03279H4.73399H4.71733H4.61734H4.58401V7.04918H4.61734L4.66734 7.09836C4.70066 7.13115 4.71733 7.14754 4.71733 7.14754V7.18033C4.78398 7.27869 4.81731 7.36612 4.81731 7.44262C4.86175 7.47541 4.90063 7.4918 4.93396 7.4918ZM4.88397 12.5902C4.92841 12.5464 4.95618 12.5027 4.96729 12.459C4.98951 12.4153 5.01173 12.377 5.03395 12.3443C5.03395 12.3224 5.04505 12.306 5.06727 12.2951C5.08949 12.2951 5.11171 12.2787 5.13393 12.2459V12.1639H5.18392C5.18392 12.1093 5.22281 12.0546 5.30057 12H5.31723C5.33945 12 5.35056 11.9891 5.35056 11.9672V11.9344C5.35056 11.9126 5.36723 11.8852 5.40056 11.8525C5.40056 11.8415 5.40611 11.8361 5.41722 11.8361C5.42833 11.8251 5.43388 11.8087 5.43388 11.7869V11.7541L5.48388 11.7049C5.48388 11.6831 5.48388 11.6557 5.48388 11.623C5.49499 11.5902 5.50054 11.5574 5.50054 11.5246L5.55053 11.4918C5.55053 11.4699 5.56164 11.4426 5.58386 11.4098C5.60608 11.377 5.6283 11.3497 5.65052 11.3279V11.2951V11.0984C5.60608 11.0765 5.60608 11.0109 5.65052 10.9016C5.68385 10.9016 5.70051 10.8907 5.70051 10.8689V10.8361V10.8197C5.73384 10.7869 5.7505 10.765 5.7505 10.7541V10.7377V10.6885V10.6393V10.6066V10.5738V10.5246C5.7505 10.4044 5.75606 10.3224 5.76717 10.2787V10.1311V9.96721V9.93443C5.75606 9.90164 5.7505 9.86885 5.7505 9.83607L5.70051 9.81967V9.72131C5.70051 9.68852 5.6894 9.67213 5.66718 9.67213H5.65052C5.6283 9.62841 5.60608 9.59016 5.58386 9.55738C5.57275 9.52459 5.58386 9.49727 5.61719 9.47541C5.61719 9.43169 5.59497 9.39344 5.55053 9.36066V9.32787C5.5172 9.30601 5.50054 9.25137 5.50054 9.16393V9.04918C5.50054 9.03825 5.49499 9.02732 5.48388 9.01639C5.48388 9.00546 5.48388 8.99454 5.48388 8.98361V8.95082V8.86885C5.48388 8.83607 5.46721 8.81967 5.43388 8.81967C5.43388 8.76503 5.40611 8.71038 5.35056 8.65574C5.30613 8.74317 5.25058 8.81421 5.18392 8.86885C5.12838 8.91257 5.08949 8.95628 5.06727 9C5.04505 9.03279 5.02284 9.05465 5.00062 9.06557C4.9784 9.06557 4.96729 9.08743 4.96729 9.13115L4.93396 9.16393C4.93396 9.21858 4.89508 9.26229 4.81731 9.29508V9.32787L4.73399 9.40984L4.71733 9.42623V9.47541C4.66178 9.57377 4.60068 9.62295 4.53402 9.62295C4.48958 9.64481 4.44515 9.6612 4.40071 9.67213C4.36738 9.67213 4.33961 9.67213 4.31739 9.67213H4.2674C4.24518 9.72678 4.17297 9.7541 4.05076 9.7541V9.81967H4.01744C3.98411 9.84153 3.96744 9.85246 3.96744 9.85246V9.88525C3.96744 9.92896 3.96189 9.97268 3.95078 10.0164C3.95078 10.0492 3.95078 10.071 3.95078 10.082C3.91745 10.1148 3.90079 10.1639 3.90079 10.2295C3.93412 10.2295 3.95078 10.2404 3.95078 10.2623V10.2787V10.3443C3.96189 10.388 3.973 10.4262 3.98411 10.459C4.00633 10.4809 4.02855 10.5191 4.05076 10.5738V10.6393C4.07298 10.694 4.08965 10.7322 4.10076 10.7541C4.11187 10.776 4.13408 10.7978 4.16741 10.8197V10.8361V11.0328V11.082H4.20074V11.0984C4.20074 11.1202 4.2063 11.1421 4.2174 11.1639C4.22851 11.1858 4.23407 11.2131 4.23407 11.2459C4.23407 11.3005 4.24518 11.3388 4.2674 11.3607C4.2674 11.4481 4.28406 11.5027 4.31739 11.5246V11.5574C4.31739 11.5902 4.33405 11.6066 4.36738 11.6066V11.6557C4.36738 11.6667 4.37294 11.6776 4.38405 11.6885C4.38405 11.6995 4.38405 11.7104 4.38405 11.7213C4.39515 11.7322 4.40071 11.7432 4.40071 11.7541V11.7705C4.40071 11.8033 4.41737 11.8251 4.4507 11.8361C4.46181 11.847 4.47848 11.8634 4.50069 11.8852C4.52291 11.9071 4.53402 11.9454 4.53402 12C4.50069 12.0219 4.47848 12.0492 4.46737 12.082C4.45626 12.1038 4.43404 12.1148 4.40071 12.1148C4.40071 12.1366 4.39515 12.153 4.38405 12.1639C4.37294 12.1639 4.36738 12.1749 4.36738 12.1967V12.2459C4.36738 12.2787 4.37294 12.3115 4.38405 12.3443C4.39515 12.377 4.40071 12.4153 4.40071 12.459C4.40071 12.5137 4.41737 12.5628 4.4507 12.6066C4.4507 12.6503 4.45626 12.6885 4.46737 12.7213V12.7705L4.53402 12.8033C4.53402 12.7814 4.53958 12.765 4.55069 12.7541C4.57291 12.7541 4.59512 12.7432 4.61734 12.7213C4.65067 12.6885 4.68955 12.6721 4.73399 12.6721L4.78398 12.6066C4.8062 12.6066 4.81731 12.6011 4.81731 12.5902C4.82842 12.5902 4.85064 12.5902 4.88397 12.5902Z" fill="black"/>
</svg>
