<svg width="17" height="14" viewBox="0 0 17 14" fill="none" xmlns="http://www.w3.org/2000/svg">
<path d="M17 10.4959L16.8793 10.3813C16.8793 10.3595 16.8736 10.354 16.8621 10.3649C16.8506 10.3758 16.8276 10.3813 16.7931 10.3813H16.7414L16.7069 10.3485C16.6609 10.3485 16.6322 10.3431 16.6207 10.3322C16.6207 10.3103 16.6092 10.2994 16.5862 10.2994V10.2667C16.5402 10.2448 16.5287 10.2339 16.5517 10.2339H16.5862V10.1848H16.5172H16.5H16.4655V10.152C16.454 10.163 16.4425 10.1684 16.431 10.1684C16.4195 10.1793 16.408 10.1848 16.3966 10.1848H16.3793V10.152C16.3563 10.152 16.3333 10.1411 16.3103 10.1193H16.2586H16.1379C16.1149 10.1193 16.092 10.1138 16.069 10.1029C16.0575 10.0811 16.0402 10.0702 16.0172 10.0702C16.0172 10.0593 16.0115 10.0483 16 10.0374H15.9828C15.9598 10.0156 15.9368 10.0047 15.9138 10.0047C15.8793 9.97193 15.8621 9.94464 15.8621 9.92281C15.8621 9.91189 15.8563 9.90097 15.8448 9.89006H15.8276H15.7069H15.6207C15.5977 9.86823 15.5862 9.85185 15.5862 9.84094C15.5862 9.8191 15.5747 9.8191 15.5517 9.84094H15.5C15.4655 9.80819 15.4368 9.80819 15.4138 9.84094H15.3103H15.2931L15.2241 9.95555L15.1897 9.89006H15.1724C15.1379 9.89006 15.1149 9.89552 15.1034 9.90643C15.1034 9.91735 15.092 9.91189 15.069 9.89006V9.92281C15.069 9.97739 15.0517 10.0047 15.0172 10.0047C15.0172 10.0265 15.0057 10.0483 14.9828 10.0702C14.9598 10.0811 14.9425 10.0975 14.931 10.1193V10.152V10.1848C14.908 10.2394 14.8966 10.3049 14.8966 10.3813V10.4632V10.4959V10.5287H14.8276H14.8103L14.7759 10.5942V10.6105V10.6433H14.6724V10.7251L14.6552 10.7579H14.6207L14.5862 10.7906C14.5747 10.8016 14.5632 10.807 14.5517 10.807C14.5402 10.807 14.5345 10.8125 14.5345 10.8234C14.5345 10.8343 14.5287 10.8398 14.5172 10.8398C14.5057 10.8398 14.5 10.8507 14.5 10.8725C14.4425 10.9271 14.4138 10.9544 14.4138 10.9544V10.9871H14.3793C14.3448 10.9871 14.3218 10.9981 14.3103 11.0199C14.3103 11.0417 14.3046 11.0526 14.2931 11.0526H14.2586C14.2586 11.0526 14.2414 11.0526 14.2069 11.0526H14.1897C14.1782 11.0526 14.1724 11.0308 14.1724 10.9871L14.1379 10.8398H14.0517H14.0172H13.9828V10.8234C13.9713 10.8234 13.9598 10.8179 13.9483 10.807C13.9253 10.7852 13.908 10.7579 13.8966 10.7251H13.931V10.7088H13.8966L13.8621 10.8234L13.8103 10.7251C13.7759 10.6487 13.7126 10.6105 13.6207 10.6105V10.6433V10.7088C13.6322 10.7088 13.6437 10.7142 13.6552 10.7251V10.7579H13.7069L13.6552 10.8725H13.6207C13.5977 10.8725 13.5805 10.8671 13.569 10.8561C13.569 10.8452 13.5575 10.8398 13.5345 10.8398L13.5 10.8234L13.5345 10.7579L13.5 10.7088L13.4655 10.8234V10.7251L13.4138 10.7088V10.6433V10.6269C13.4138 10.6269 13.4023 10.6214 13.3793 10.6105V10.6433V10.7088L13.2931 10.7579L13.2241 10.7088H13.2069H13.1724C13.1609 10.7088 13.1494 10.7142 13.1379 10.7251C13.0575 10.7251 13.0172 10.7197 13.0172 10.7088C12.9943 10.6651 12.9425 10.6433 12.8621 10.6433C12.8276 10.6433 12.7874 10.6324 12.7414 10.6105H12.7241H12.6897L12.7241 10.5287H12.6207H12.6034H12.5H12.4828C12.4828 10.5505 12.477 10.5614 12.4655 10.5614C12.454 10.5723 12.4368 10.5614 12.4138 10.5287C12.3678 10.5942 12.3276 10.5942 12.2931 10.5287H12.2414L12.2069 10.5942H12.1724C12.1724 10.5505 12.1322 10.5287 12.0517 10.5287H12H11.931L11.8966 10.5942V10.5287H11.7759L11.7241 10.5942C11.6782 10.5942 11.6552 10.5996 11.6552 10.6105H11.5345H11.5172H11.4483H11.431C11.408 10.6105 11.3966 10.6051 11.3966 10.5942H11.3276H11.2759H11.2931C11.2931 10.6051 11.2874 10.6105 11.2759 10.6105C11.2759 10.6324 11.2586 10.6433 11.2241 10.6433C11.1897 10.6433 11.1667 10.6433 11.1552 10.6433V10.6105H11.1207L11.1724 10.7251L11.0517 10.7088L11 10.7251L11.0172 10.8234H11H10.931H10.8966H10.8103H10.7759V10.7251L10.6897 10.7579L10.7586 10.7088V10.6433C10.6897 10.6433 10.6552 10.6324 10.6552 10.6105C10.6552 10.6105 10.6494 10.6051 10.6379 10.5942C10.6149 10.5942 10.592 10.5832 10.569 10.5614C10.546 10.5287 10.5345 10.4959 10.5345 10.4632L10.5172 10.414C10.4943 10.3922 10.4713 10.3758 10.4483 10.3649C10.4253 10.3431 10.4138 10.3212 10.4138 10.2994C10.4023 10.2994 10.3966 10.294 10.3966 10.283V10.2667C10.3966 10.2557 10.3908 10.2448 10.3793 10.2339H10.3621V10.1848L10.2931 10.152H10.3621C10.3621 10.0975 10.3391 10.0593 10.2931 10.0374L10.3621 10.0047V9.95555H10.3276C10.3046 9.95555 10.2931 9.94464 10.2931 9.92281C10.2931 9.90098 10.2874 9.87914 10.2759 9.85731C10.2759 9.83548 10.2816 9.80819 10.2931 9.77544C10.3391 9.74269 10.3391 9.72632 10.2931 9.72632V9.69357V9.64444L10.2759 9.57895C10.2759 9.55711 10.2701 9.53528 10.2586 9.51345C10.2471 9.4807 10.2414 9.45341 10.2414 9.43158V9.41521H10.2069V9.34971H10.1552V9.31696C10.1897 9.31696 10.2069 9.3115 10.2069 9.30058V9.23509V9.20234H10.1552V9.18596C10.1782 9.15322 10.1897 9.12593 10.1897 9.10409C10.2011 9.08226 10.2184 9.07135 10.2414 9.07135C10.2644 9.07135 10.2759 9.06043 10.2759 9.0386V9.00585C10.2759 8.98402 10.2644 8.96764 10.2414 8.95673C10.2184 8.95673 10.2011 8.94581 10.1897 8.92398C10.1897 8.90214 10.1782 8.88031 10.1552 8.85848H10.1207C10.0977 8.84756 10.0862 8.82027 10.0862 8.77661V8.74386C10.0862 8.68928 10.069 8.65107 10.0345 8.62924C10 8.68382 9.97701 8.70565 9.96552 8.69474C9.95402 8.6729 9.93678 8.65107 9.91379 8.62924L9.87931 8.61287C9.85632 8.61287 9.84483 8.60195 9.84483 8.58012V8.54737C9.82184 8.54737 9.81034 8.54191 9.81034 8.53099V8.51462H9.75862V8.49825H9.81034H9.84483C9.84483 8.45458 9.85632 8.43275 9.87931 8.43275C9.85632 8.43275 9.83908 8.42729 9.82759 8.41637C9.81609 8.40546 9.81034 8.41092 9.81034 8.43275H9.75862C9.71264 8.41092 9.68966 8.39454 9.68966 8.38363C9.64368 8.38363 9.61494 8.37271 9.60345 8.35088C9.60345 8.32905 9.59195 8.30721 9.56896 8.28538L9.51724 8.31813C9.49425 8.2963 9.48276 8.25809 9.48276 8.20351C9.45977 8.18168 9.44828 8.1653 9.44828 8.15439H9.39655H9.36207L9.32759 8.05614H9.2069L9.24138 7.97427C9.24138 7.91969 9.22414 7.90877 9.18966 7.94152H9.12069C9.12069 7.96335 9.1092 7.97427 9.08621 7.97427C9.08621 8.01793 9.08046 8.03977 9.06897 8.03977C9.06897 8.05068 9.05747 8.05614 9.03448 8.05614H9H8.94828L8.93103 8.03977H8.91379C8.87931 8.03977 8.85632 8.04522 8.84483 8.05614C8.84483 8.05614 8.83908 8.05614 8.82759 8.05614C8.77011 8.05614 8.72989 8.0616 8.7069 8.07251C8.6954 8.08343 8.66092 8.08889 8.60345 8.08889H8.58621H8.55172V7.97427H8.48276C8.43678 7.94152 8.39081 7.94152 8.34483 7.97427H8.27586H8.31035L8.27586 8.03977C8.21839 8.03977 8.17816 8.01793 8.15517 7.97427H8.10345H8.06897C8.03448 8.02885 7.98276 8.05068 7.91379 8.03977L7.87931 7.97427H7.7931V7.94152H7.75862H7.7069C7.7069 7.96335 7.6954 7.97427 7.67241 7.97427V8.03977V7.94152L7.63793 7.97427V7.94152L7.62069 7.92515H7.55172V7.94152L7.51724 7.8924V7.92515H7.5V8.03977C7.5 8.11618 7.48851 8.17622 7.46552 8.21988C7.45402 8.24172 7.44253 8.25809 7.43103 8.26901V8.31813V8.38363H7.5V8.43275H7.51724C7.57471 8.4655 7.61494 8.48733 7.63793 8.49825C7.66092 8.50916 7.68391 8.52554 7.7069 8.54737V8.58012C7.7069 8.60195 7.72414 8.61287 7.75862 8.61287C7.75862 8.62378 7.76437 8.64016 7.77586 8.66199C7.78736 8.6729 7.78161 8.69474 7.75862 8.72749L8 8.77661L7.94828 8.8421H7.91379C7.85632 8.8421 7.82759 8.84756 7.82759 8.85848C7.82759 8.8694 7.82184 8.88031 7.81034 8.89123H7.7931C7.77012 8.89123 7.75862 8.90214 7.75862 8.92398V8.95673H7.7069C7.68391 8.90214 7.66667 8.87485 7.65517 8.87485C7.65517 8.86394 7.64368 8.8694 7.62069 8.89123H7.55172L7.51724 8.95673H7.5V9.00585C7.43103 9.00585 7.39655 8.99493 7.39655 8.9731H7.36207H7.31035L7.39655 8.89123L7.31035 8.85848H7.27586C7.27586 8.88031 7.26437 8.89123 7.24138 8.89123C7.24138 8.8694 7.22414 8.85848 7.18966 8.85848L7 8.8421L6.7931 8.85848C6.77011 8.84756 6.71839 8.8421 6.63793 8.8421C6.61494 8.8421 6.58621 8.83119 6.55172 8.80936C6.51724 8.78752 6.48851 8.76569 6.46552 8.74386H6.39655V8.72749C6.37356 8.72749 6.35057 8.71111 6.32759 8.67836C6.3046 8.6347 6.28161 8.59103 6.25862 8.54737L6.22414 8.61287L6.10345 8.49825C6.02299 8.50916 5.93104 8.50916 5.82759 8.49825V8.43275L5.89655 8.38363C5.87356 8.38363 5.85632 8.38908 5.84483 8.4C5.83333 8.4 5.81609 8.4 5.7931 8.4C5.7931 8.42183 5.78161 8.43275 5.75862 8.43275H5.74138C5.74138 8.47641 5.72989 8.49825 5.7069 8.49825H5.67241H5.7069H5.67241V8.43275C5.63793 8.41092 5.6092 8.39454 5.58621 8.38363C5.52874 8.38363 5.48851 8.38908 5.46552 8.4C5.44253 8.4 5.43103 8.40546 5.43103 8.41637C5.43103 8.42729 5.42529 8.42183 5.41379 8.4C5.36782 8.4 5.34483 8.39454 5.34483 8.38363H5.31035V8.31813L5.2931 8.28538H5.22414H5.18966C5.17816 8.28538 5.17241 8.27992 5.17241 8.26901H5.10345V8.23626C5.10345 8.21443 5.09195 8.20351 5.06897 8.20351H4.93103C4.90805 8.20351 4.88506 8.19805 4.86207 8.18713C4.83908 8.17622 4.82184 8.17076 4.81034 8.17076H4.77586C4.74138 8.15984 4.7069 8.14893 4.67241 8.13801C4.64943 8.11618 4.61494 8.12164 4.56897 8.15439H4.53448L4.41379 8.17076V8.15439V8.08889H4.44828H4.41379H4.32759H4.2931H4.25862V8.20351C4.25862 8.24717 4.24713 8.26901 4.22414 8.26901C4.21264 8.27992 4.2069 8.27992 4.2069 8.26901C4.2069 8.34542 4.1954 8.38908 4.17241 8.4V8.43275L4.2069 8.49825C4.27586 8.49825 4.2931 8.53645 4.25862 8.61287V8.62924C4.25862 8.65107 4.24138 8.68382 4.2069 8.72749C4.24138 8.7384 4.24138 8.75478 4.2069 8.77661V8.8421V8.89123V9.00585V9.07135C4.13793 9.07135 4.10345 9.10955 4.10345 9.18596C4.10345 9.19688 4.08621 9.21326 4.05172 9.23509V9.30058V9.34971V9.43158C4.05172 9.4425 4.04598 9.45341 4.03448 9.46433C4.03448 9.47524 4.03448 9.48616 4.03448 9.49708C4.02299 9.51891 4.01724 9.53528 4.01724 9.5462C4.01724 9.56803 4.00575 9.57895 3.98276 9.57895C3.98276 9.62261 3.96552 9.64444 3.93103 9.64444C3.93103 9.65536 3.92529 9.66082 3.91379 9.66082C3.9023 9.66082 3.89655 9.67173 3.89655 9.69357V9.72632H3.86207V9.77544L3.74138 9.89006C3.74138 9.90097 3.73563 9.91189 3.72414 9.92281C3.72414 9.92281 3.72414 9.92826 3.72414 9.93918V9.95555C3.68966 9.97739 3.66667 9.99922 3.65517 10.0211C3.65517 10.032 3.64368 10.0374 3.62069 10.0374C3.62069 10.0593 3.6092 10.0866 3.58621 10.1193L3.74138 10.152L3.72414 10.1848H3.65517C3.6092 10.2175 3.58621 10.2448 3.58621 10.2667C3.58621 10.2885 3.58621 10.3158 3.58621 10.3485C3.5977 10.3704 3.58046 10.3813 3.53448 10.3813V10.414H3.5C3.58046 10.4577 3.59195 10.4959 3.53448 10.5287V10.5942C3.51149 10.5942 3.5 10.6105 3.5 10.6433C3.52299 10.6433 3.52874 10.6596 3.51724 10.6924C3.50575 10.7142 3.48851 10.7251 3.46552 10.7251C3.46552 10.7797 3.45977 10.8125 3.44828 10.8234C3.44828 10.8343 3.43678 10.8507 3.41379 10.8725L3.37931 10.8398L3.22414 10.8725V10.938C3.22414 10.9489 3.21839 10.9544 3.2069 10.9544C3.2069 10.9544 3.2069 10.9653 3.2069 10.9871C3.2069 11.0199 3.1954 11.0526 3.17241 11.0854C3.14943 11.1072 3.13793 11.14 3.13793 11.1836C3.11494 11.2928 3.0977 11.391 3.08621 11.4784C3.07471 11.5548 3.04023 11.6312 2.98276 11.7076L2.96552 11.7567H2.89655C2.87356 11.7786 2.83908 11.8004 2.7931 11.8222C2.75862 11.8331 2.73563 11.8495 2.72414 11.8713C2.68966 11.9368 2.68966 12.0133 2.72414 12.1006C2.72414 12.1224 2.72414 12.1497 2.72414 12.1825C2.72414 12.2043 2.71264 12.2261 2.68966 12.248V12.3626C2.65517 12.4062 2.63218 12.4444 2.62069 12.4772C2.62069 12.5099 2.62069 12.5481 2.62069 12.5918V12.7064C2.65517 12.761 2.66092 12.7992 2.63793 12.8211C2.61494 12.8538 2.59195 12.892 2.56897 12.9357L2.36207 13.1322C2.36207 13.154 2.33908 13.1867 2.2931 13.2304H2.24138C2.21839 13.2522 2.18966 13.2686 2.15517 13.2795C2.13218 13.3014 2.1092 13.3123 2.08621 13.3123H2.05172H2C2 13.3232 1.99425 13.3341 1.98276 13.345H1.96552L1.93103 13.3942H1.89655L1.77586 13.2795H1.53448C1.53448 13.3559 1.52874 13.3942 1.51724 13.3942C1.47126 13.416 1.43678 13.4378 1.41379 13.4596C1.4023 13.5142 1.39655 13.5797 1.39655 13.6561L1.41379 13.6889V13.738L1.27586 14L1.17241 13.9673H1.2069V13.8854L1.17241 13.8526V13.8854V13.738H1.15517C1.1092 13.738 1.08621 13.7326 1.08621 13.7216C1.07471 13.7107 1.07471 13.6998 1.08621 13.6889V13.6561C1.06322 13.5906 1.06322 13.5251 1.08621 13.4596C1.12069 13.4378 1.13793 13.4214 1.13793 13.4105C1.14943 13.3996 1.16092 13.3942 1.17241 13.3942V13.345V13.3123C1.1954 13.2577 1.2069 13.1813 1.2069 13.083L1.27586 13.0175L1.44828 12.9357V12.9684V13.0503V13.083V13.0503L1.51724 13.0175L1.53448 13.0503L1.56897 13.0175C1.62644 13.0175 1.65517 13.0394 1.65517 13.083C1.70115 13.083 1.74138 13.0721 1.77586 13.0503H1.84483L1.77586 13.1322H1.81034H1.84483L1.89655 13.083H1.93103V13.0503C1.93103 12.9957 1.95402 12.9684 2 12.9684L1.96552 12.9029H2H2.01724C2.04023 12.9029 2.05172 12.8865 2.05172 12.8538C2.0977 12.8538 2.13793 12.8429 2.17241 12.8211C2.1954 12.8211 2.21264 12.8047 2.22414 12.7719C2.24713 12.7501 2.28161 12.7283 2.32759 12.7064V12.6737V12.6409C2.32759 12.63 2.33908 12.6136 2.36207 12.5918L2.37931 12.5754C2.3908 12.5754 2.39655 12.57 2.39655 12.5591C2.40805 12.5591 2.42529 12.5591 2.44828 12.5591V12.5099H2.32759V12.4772C2.32759 12.4226 2.33908 12.3844 2.36207 12.3626C2.33908 12.3626 2.32759 12.3517 2.32759 12.3298V12.2807V12.2643C2.32759 12.2643 2.31609 12.2589 2.2931 12.248C2.21264 12.248 2.17241 12.2097 2.17241 12.1333V12.0515V12.0187H2.2069V11.986H2.17241C2.13793 11.986 2.12069 11.9805 2.12069 11.9696V11.9368V11.9041C2.12069 11.8823 2.12644 11.8713 2.13793 11.8713H2.17241H2.2069L2.24138 11.7895V11.7567H2.2931H2.31034V11.7404C2.31034 11.7404 2.31609 11.7294 2.32759 11.7076C2.35057 11.7076 2.37356 11.7021 2.39655 11.6912C2.43103 11.6803 2.45977 11.6749 2.48276 11.6749H2.5C2.5 11.653 2.51149 11.6421 2.53448 11.6421H2.56897H2.62069V11.593L2.60345 11.5602L2.62069 11.5275C2.62069 11.4947 2.61494 11.4784 2.60345 11.4784L2.56897 11.4456L2.74138 11.4129C2.72989 11.3692 2.71839 11.3474 2.7069 11.3474C2.7069 11.3365 2.67816 11.3201 2.62069 11.2982L2.60345 11.2819L2.62069 11.2164H2.68966L2.62069 11.1673H2.72414V10.9544H2.81034C2.81034 10.878 2.78736 10.8343 2.74138 10.8234V10.7579C2.74138 10.7361 2.75287 10.7251 2.77586 10.7251H2.81034C2.83333 10.7251 2.85057 10.6979 2.86207 10.6433V10.6105H2.89655V10.5942C2.90805 10.6051 2.91954 10.6051 2.93103 10.5942C2.95402 10.5942 2.96552 10.5723 2.96552 10.5287V10.4632H2.89655L2.96552 10.414C2.97701 10.3922 2.98276 10.3704 2.98276 10.3485C2.98276 10.3158 2.99425 10.2994 3.01724 10.2994V10.2667L2.96552 10.2339H2.98276C3.00575 10.2339 3.01724 10.2285 3.01724 10.2175C3.02874 10.1957 3.05172 10.1848 3.08621 10.1848C3.08621 10.1411 3.09195 10.1193 3.10345 10.1193V10.0374H3.2069L3.13793 10.0047L3.2069 9.95555C3.2069 9.92281 3.2069 9.89552 3.2069 9.87368C3.21839 9.85185 3.22414 9.83002 3.22414 9.80819C3.21264 9.74269 3.23563 9.69357 3.2931 9.66082V9.64444L3.25862 9.66082H3.22414H3.2069L3.22414 9.64444V9.5462V9.52983C3.22414 9.52983 3.23563 9.50799 3.25862 9.46433V9.43158H3.2931H3.37931H3.36207C3.35057 9.43158 3.34483 9.42612 3.34483 9.41521C3.28736 9.41521 3.25862 9.39337 3.25862 9.34971L3.22414 9.30058L3.34483 9.31696C3.31034 9.31696 3.28161 9.3115 3.25862 9.30058H3.22414H3.25862C3.25862 9.23509 3.27012 9.20234 3.2931 9.20234H3.25862V9.18596V9.12047C3.28161 9.09864 3.31034 9.09864 3.34483 9.12047H3.36207C3.36207 9.12047 3.36782 9.10955 3.37931 9.08772C3.43678 9.06589 3.46552 9.06589 3.46552 9.08772H3.5C3.52299 9.08772 3.53448 9.09318 3.53448 9.10409C3.53448 9.11501 3.53448 9.10955 3.53448 9.08772V9.07135H3.5V9.00585V8.9731H3.46552H3.41379L3.37931 8.95673H3.34483L3.41379 8.85848V8.8421H3.37931L3.53448 8.66199H3.62069L3.65517 8.62924V8.66199H3.72414L3.77586 8.72749L3.81034 8.66199V8.61287V8.54737V8.51462L3.74138 8.49825L3.72414 8.51462H3.62069L3.72414 8.38363L3.74138 8.4L3.77586 8.43275C3.77586 8.41092 3.78161 8.39454 3.7931 8.38363C3.8046 8.37271 3.79885 8.35088 3.77586 8.31813L3.74138 8.38363L3.72414 8.28538V8.26901C3.71264 8.27992 3.70115 8.27992 3.68966 8.26901C3.66667 8.26901 3.64368 8.24717 3.62069 8.20351V8.17076C3.64368 8.15984 3.64368 8.15439 3.62069 8.15439V8.05614L3.65517 8.08889H3.72414V8.03977L3.74138 7.94152H3.77586H3.81034V7.92515C3.81034 7.90331 3.8046 7.8924 3.7931 7.8924C3.78161 7.88148 3.77586 7.85965 3.77586 7.8269C3.74138 7.81598 3.72414 7.77778 3.72414 7.71228C3.72414 7.70136 3.72414 7.69045 3.72414 7.67953C3.73563 7.6577 3.74138 7.62495 3.74138 7.58129V7.54854C3.74138 7.51579 3.73563 7.49941 3.72414 7.49941C3.72414 7.4885 3.72414 7.47758 3.72414 7.46667C3.64368 7.46667 3.58046 7.43392 3.53448 7.36842V7.35205L3.5 7.3193V7.23743V7.20468V7.13918C3.52299 7.13918 3.55172 7.13372 3.58621 7.12281V7.02456L3.46552 7.00819L3.5 6.97544C3.5 6.92086 3.48851 6.89357 3.46552 6.89357C3.45402 6.88265 3.43678 6.87719 3.41379 6.87719V6.90994H3.37931C3.3908 6.93177 3.39655 6.95906 3.39655 6.99181C3.39655 7.00273 3.3908 7.00819 3.37931 7.00819C3.36782 7.00819 3.35632 7.01365 3.34483 7.02456V7.09006V7.12281L3.25862 7.13918V7.12281C3.23563 7.12281 3.22414 7.11189 3.22414 7.09006V7.02456H3.25862H3.22414C3.22414 7.03548 3.21839 7.04639 3.2069 7.05731C3.18391 7.07914 3.16092 7.09006 3.13793 7.09006V7.12281V7.13918L3.10345 7.20468L3.08621 7.13918C3.04023 7.12826 3.00575 7.12826 2.98276 7.13918C2.97126 7.17193 2.95402 7.19922 2.93103 7.22105C2.90805 7.23197 2.88506 7.24289 2.86207 7.2538C2.85057 7.28655 2.83908 7.31384 2.82759 7.33567C2.81609 7.3575 2.81034 7.39025 2.81034 7.43392V7.48304C2.76437 7.48304 2.74138 7.49396 2.74138 7.51579C2.72989 7.52671 2.72989 7.53762 2.74138 7.54854V7.58129H2.72414H2.62069C2.6092 7.58129 2.59195 7.60858 2.56897 7.66316C2.5 7.69591 2.5 7.71228 2.56897 7.71228C2.56897 7.75595 2.57471 7.78324 2.58621 7.79415C2.58621 7.80507 2.59195 7.81053 2.60345 7.81053V7.8269V7.8924H2.56897C2.59195 7.91423 2.60345 7.91423 2.60345 7.8924L2.62069 7.8269L2.5 8.49825H2.48276C2.47126 8.49825 2.43678 8.53645 2.37931 8.61287H2.5V8.66199H2.44828V8.72749L2.37931 8.74386C2.36782 8.74386 2.36207 8.74932 2.36207 8.76023V8.77661C2.36207 8.78753 2.35632 8.79844 2.34483 8.80936C2.34483 8.80936 2.34483 8.81481 2.34483 8.82573V8.8421C2.33333 8.85302 2.32759 8.85302 2.32759 8.8421V8.85848C2.27011 8.85848 2.24138 8.89123 2.24138 8.95673C2.21839 8.95673 2.1954 8.96218 2.17241 8.9731C2.17241 8.99493 2.16092 9.01676 2.13793 9.0386C2.11494 9.06043 2.08621 9.07135 2.05172 9.07135V9.00585L2.08621 8.95673H2.05172L2 8.9731H1.96552C1.94253 8.99493 1.91954 9.02768 1.89655 9.07135V9.08772H1.84483C1.84483 9.09864 1.83908 9.10955 1.82759 9.12047H1.81034C1.78736 9.12047 1.77586 9.10955 1.77586 9.08772H1.72414V9.07135H1.68966V9.12047L1.77586 9.18596H1.72414C1.68966 9.19688 1.64943 9.17505 1.60345 9.12047C1.60345 9.17505 1.58046 9.20234 1.53448 9.20234H1.51724L1.41379 9.23509L1.51724 9.18596L1.53448 9.12047L1.56897 9.08772C1.56897 9.01131 1.6092 8.9731 1.68966 8.9731V8.95673H1.72414H1.77586C1.77586 8.93489 1.78161 8.91852 1.7931 8.9076L1.81034 8.89123C1.81034 8.8694 1.81609 8.85848 1.82759 8.85848H1.84483C1.86782 8.85848 1.88506 8.85848 1.89655 8.85848C1.91954 8.84756 1.94253 8.84756 1.96552 8.85848V8.8421V8.77661H2.05172H2.08621L2.05172 8.72749H2.08621H2.12069V8.74386H2.17241L2.2069 8.77661L2.24138 8.74386V8.66199V8.62924V8.54737V8.51462L2.2069 8.49825C2.2069 8.42183 2.23563 8.38363 2.2931 8.38363C2.31609 8.35088 2.33333 8.32359 2.34483 8.30175C2.35632 8.27992 2.36782 8.24717 2.37931 8.20351V8.17076H2.44828V8.15439C2.4023 8.11072 2.37931 8.07251 2.37931 8.03977V7.94152C2.37931 7.9306 2.37356 7.91423 2.36207 7.8924C2.36207 7.84873 2.35057 7.82144 2.32759 7.81053V7.71228H2.36207C2.37356 7.71228 2.37931 7.70682 2.37931 7.69591L2.2931 7.71228L2.32759 7.69591C2.36207 7.59766 2.44253 7.54854 2.56897 7.54854C2.59195 7.54854 2.6092 7.53762 2.62069 7.51579C2.63218 7.48304 2.65517 7.45575 2.68966 7.43392V7.36842V7.35205C2.64368 7.33021 2.62069 7.29747 2.62069 7.2538V7.13918H2.60345L2.62069 7.12281L2.60345 7.09006L2.62069 7.02456H2.68966H2.72414C2.72414 6.94815 2.72989 6.89903 2.74138 6.87719H2.81034V6.86082L2.86207 6.87719L2.84483 6.76257L2.86207 6.79532C2.86207 6.83899 2.86782 6.86082 2.87931 6.86082C2.87931 6.87174 2.88506 6.87174 2.89655 6.86082H2.93103C2.94253 6.86082 2.95402 6.86628 2.96552 6.87719C2.97701 6.87719 2.99425 6.88811 3.01724 6.90994H3.08621H3.10345V6.87719C3.10345 6.86628 3.11494 6.83899 3.13793 6.79532V6.7462L3.2069 6.79532C3.2069 6.77349 3.21264 6.75711 3.22414 6.7462H3.2931C3.2931 6.71345 3.28736 6.69708 3.27586 6.69708C3.26437 6.68616 3.25862 6.66979 3.25862 6.64795C3.25862 6.63704 3.27012 6.63158 3.2931 6.63158C3.2931 6.60975 3.29885 6.59337 3.31034 6.58246C3.32184 6.58246 3.33333 6.577 3.34483 6.56608V6.53333V6.45146C3.36782 6.45146 3.37931 6.446 3.37931 6.43509V6.41871L3.41379 6.40234L3.46552 6.33684C3.46552 6.31501 3.45402 6.30409 3.43103 6.30409C3.41954 6.30409 3.41379 6.29864 3.41379 6.28772V6.22222C3.41379 6.20039 3.43103 6.18947 3.46552 6.18947C3.48851 6.18947 3.5 6.18402 3.5 6.1731V6.07485V6.05848V6.02573H3.53448L3.5 5.96023L3.53448 5.91111C3.51149 5.87836 3.48851 5.86199 3.46552 5.86199C3.45402 5.85107 3.43678 5.84016 3.41379 5.82924C3.3908 5.80741 3.37356 5.79649 3.36207 5.79649C3.35057 5.78558 3.35632 5.75828 3.37931 5.71462V5.68187C3.4023 5.63821 3.43103 5.61092 3.46552 5.6H3.48276C3.48276 5.6 3.48851 5.58908 3.5 5.56725V5.5345C3.5 5.51267 3.48851 5.50175 3.46552 5.50175C3.43103 5.49084 3.36207 5.48538 3.25862 5.48538C3.25862 5.47446 3.25287 5.46355 3.24138 5.45263H3.22414H3.2069L3.13793 5.48538L3.10345 5.33801H3.13793L3.2069 5.27251H3.13793L3.12069 5.30526C3.1092 5.31618 3.10345 5.30526 3.10345 5.27251H3.08621C3.08621 5.23977 3.10345 5.22339 3.13793 5.22339V5.15789C3.18391 5.14698 3.21264 5.14152 3.22414 5.14152C3.24713 5.11969 3.27012 5.10877 3.2931 5.10877V5.04327V5.0269C3.32759 5.0269 3.34483 5.02144 3.34483 5.01053V4.99415V4.92866C3.34483 4.91774 3.32759 4.91228 3.2931 4.91228H3.27586C3.26437 4.91228 3.25862 4.91228 3.25862 4.91228H3.22414L3.25862 4.81403H3.2931H3.34483C3.34483 4.81403 3.35632 4.80858 3.37931 4.79766V4.76491C3.4023 4.71033 3.44253 4.68304 3.5 4.68304V4.5848H3.41379L3.37931 4.56842L3.41379 4.53567V4.47018C3.44828 4.47018 3.44828 4.46472 3.41379 4.4538H3.37931H3.34483H3.2931L3.25862 4.42105V4.3883C3.23563 4.3883 3.22414 4.38285 3.22414 4.37193V4.33918V4.30643C3.18966 4.30643 3.16667 4.30097 3.15517 4.29006C3.14368 4.29006 3.13793 4.2846 3.13793 4.27368V4.22456V4.19181V4.04444V3.99532V3.96257V3.8807H3.10345H3.08621V3.84795V3.81521H3.13793H3.22414H3.25862L3.22414 3.70058H3.2069V3.65146C3.2069 3.62963 3.18391 3.61871 3.13793 3.61871L3.12069 3.60234C3.1092 3.60234 3.0977 3.59688 3.08621 3.58597H3.01724H2.98276L3.13793 3.50409V3.47134H3.2069C3.21839 3.42768 3.24713 3.40585 3.2931 3.40585C3.2931 3.40585 3.29885 3.39493 3.31034 3.3731C3.32184 3.36218 3.33333 3.35673 3.34483 3.35673C3.36782 3.31306 3.37931 3.27485 3.37931 3.24211C3.37931 3.19844 3.36782 3.17661 3.34483 3.17661V3.16023C3.36782 3.1384 3.37931 3.11657 3.37931 3.09474C3.37931 3.0729 3.37931 3.05653 3.37931 3.04561C3.32184 2.99103 3.32184 2.95283 3.37931 2.93099C3.32184 2.93099 3.2931 2.89825 3.2931 2.83275L3.25862 2.81637L3.2931 2.78363H3.22414C3.21264 2.80546 3.1954 2.81637 3.17241 2.81637C3.14943 2.81637 3.12644 2.82183 3.10345 2.83275H2.98276C3.00575 2.81092 3.01149 2.78908 3 2.76725C2.98851 2.7345 2.97701 2.71813 2.96552 2.71813L2.89655 2.78363C2.88506 2.79454 2.87931 2.79454 2.87931 2.78363C2.86782 2.78363 2.86207 2.76179 2.86207 2.71813V2.70175H2.84483V2.63626H2.82759C2.81609 2.63626 2.81034 2.61988 2.81034 2.58714C2.77586 2.58714 2.75287 2.58168 2.74138 2.57076C2.74138 2.55984 2.73563 2.5653 2.72414 2.58714C2.70115 2.58714 2.67816 2.58714 2.65517 2.58714C2.63218 2.58714 2.62069 2.57622 2.62069 2.55439H2.60345V2.52164C2.61494 2.48889 2.61494 2.47251 2.60345 2.47251C2.60345 2.45068 2.5977 2.43977 2.58621 2.43977C2.57471 2.43977 2.56897 2.45068 2.56897 2.47251H2.5V2.43977L2.48276 2.40702C2.44828 2.43977 2.39655 2.42339 2.32759 2.3579H2.31034C2.29885 2.3579 2.2931 2.34698 2.2931 2.32515H2.24138L2.2069 2.2924L2.24138 2.24328H2.2069C2.2069 2.22144 2.1954 2.21053 2.17241 2.21053C2.17241 2.15595 2.15517 2.12866 2.12069 2.12866C2.12069 2.11774 2.0977 2.07953 2.05172 2.01404H2.01724C2.00575 2.01404 2 2.00312 2 1.98129C2 1.95945 1.98851 1.94854 1.96552 1.94854H1.93103C1.90805 1.92671 1.89655 1.90487 1.89655 1.88304V1.86667C1.86207 1.86667 1.84483 1.86121 1.84483 1.85029V1.83392H1.81034L1.89655 1.7193C1.85057 1.69747 1.81609 1.68655 1.7931 1.68655C1.77012 1.67563 1.74713 1.67018 1.72414 1.67018V1.63743C1.70115 1.6156 1.68391 1.60468 1.67241 1.60468C1.67241 1.59376 1.64943 1.57739 1.60345 1.55556C1.55747 1.51189 1.50575 1.50098 1.44828 1.52281H1.39655L1.32759 1.49006H1.2931V1.40819H1.27586V1.44094C1.22989 1.44094 1.20115 1.43548 1.18966 1.42456C1.17816 1.42456 1.17241 1.4191 1.17241 1.40819C1.16092 1.40819 1.14368 1.41365 1.12069 1.42456C1.0977 1.43548 1.08621 1.43002 1.08621 1.40819C1.06322 1.38636 1.04598 1.37544 1.03448 1.37544H0.931034H0.913793V1.32632H0.87931C0.844828 1.32632 0.821839 1.33177 0.810345 1.34269C0.798851 1.35361 0.781609 1.34815 0.758621 1.32632C0.689655 1.29357 0.649425 1.27173 0.637931 1.26082H0.551724H0.534483C0.522988 1.26082 0.517241 1.24444 0.517241 1.2117V1.17895C0.448276 1.20078 0.37931 1.18986 0.310345 1.1462C0.275862 1.10253 0.241379 1.06433 0.206897 1.03158C0.172414 0.99883 0.143678 0.97154 0.12069 0.949708L0 0.835088H0.0344827H0.0862068H0.12069C0.12069 0.85692 0.149425 0.884211 0.206897 0.91696C0.229885 0.938792 0.241379 0.955166 0.241379 0.966082C0.241379 0.976998 0.252874 0.982456 0.275862 0.982456V1.03158C0.333333 1.00975 0.373563 1.00975 0.396552 1.03158C0.431034 1.0425 0.45977 1.06433 0.482759 1.09708L0.517241 1.06433C0.597701 1.06433 0.649425 1.09162 0.672414 1.1462C0.672414 1.16803 0.678161 1.17895 0.689655 1.17895H0.758621C0.758621 1.20078 0.764368 1.2117 0.775862 1.2117H0.793104H0.810345H0.931034H1H1.03448C1.05747 1.2117 1.08621 1.21715 1.12069 1.22807C1.15517 1.22807 1.18391 1.2499 1.2069 1.29357H1.24138C1.25287 1.29357 1.27011 1.28265 1.2931 1.26082L1.27586 1.09708V1.1462H1.2931C1.31609 1.1462 1.32759 1.15712 1.32759 1.17895H1.41379C1.41379 1.20078 1.41954 1.2117 1.43103 1.2117H1.44828V1.26082L1.51724 1.2117V1.26082H1.53448V1.32632H1.51724L1.53448 1.37544C1.53448 1.39727 1.54023 1.40819 1.55172 1.40819H1.56897L1.60345 1.32632H1.72414L1.68966 1.37544H1.67241C1.66092 1.37544 1.65517 1.38636 1.65517 1.40819H1.68966H1.72414C1.75862 1.43002 1.77586 1.45731 1.77586 1.49006L1.81034 1.52281C1.82184 1.52281 1.82759 1.52827 1.82759 1.53918C1.83908 1.53918 1.85057 1.53918 1.86207 1.53918C1.87356 1.5501 1.88506 1.55556 1.89655 1.55556L1.93103 1.52281V1.49006C2.01149 1.49006 2.05172 1.52827 2.05172 1.60468H2C2.01149 1.6156 2.02299 1.62651 2.03448 1.63743C2.04598 1.63743 2.05747 1.64289 2.06897 1.6538L2.08621 1.67018C2.0977 1.69201 2.11494 1.71384 2.13793 1.73567C2.14943 1.74659 2.16092 1.75205 2.17241 1.75205C2.17241 1.77388 2.17816 1.79025 2.18966 1.80117C2.20115 1.80117 2.2069 1.81209 2.2069 1.83392C2.2069 1.80117 2.21839 1.7848 2.24138 1.7848V1.75205C2.21839 1.75205 2.2069 1.74113 2.2069 1.7193H2.24138C2.33333 1.7193 2.4023 1.73021 2.44828 1.75205H2.48276H2.5V1.67018H2.56897H2.60345V1.7193C2.61494 1.7193 2.62069 1.72476 2.62069 1.73567C2.63218 1.74659 2.65517 1.74113 2.68966 1.7193V1.75205C2.68966 1.77388 2.6954 1.7848 2.7069 1.7848H2.72414C2.78161 1.80663 2.81609 1.82846 2.82759 1.85029C2.83908 1.87212 2.84483 1.90487 2.84483 1.94854V1.98129H2.86207V2.01404V2.06316C2.88506 2.08499 2.89655 2.10682 2.89655 2.12866C2.93103 2.17232 2.95402 2.20507 2.96552 2.2269C2.97701 2.24873 2.99425 2.27057 3.01724 2.2924L3.08621 2.32515L2.98276 2.3579C2.98276 2.39064 2.99425 2.41793 3.01724 2.43977H3.08621V2.52164C3.08621 2.52164 3.09195 2.53255 3.10345 2.55439H3.13793V2.58714H3.2069C3.21839 2.60897 3.24713 2.59805 3.2931 2.55439H3.34483C3.3908 2.55439 3.41379 2.5271 3.41379 2.47251C3.44828 2.47251 3.47701 2.4616 3.5 2.43977C3.52299 2.43977 3.53448 2.43431 3.53448 2.42339C3.54598 2.40156 3.56322 2.37973 3.58621 2.3579L3.77586 2.24328V2.21053C3.77586 2.18869 3.78736 2.1614 3.81034 2.12866V2.11228C3.81034 2.10136 3.82759 2.08499 3.86207 2.06316C3.88506 2.06316 3.89655 2.0577 3.89655 2.04678C3.89655 2.02495 3.90805 2.01404 3.93103 2.01404C3.97701 1.98129 4.01724 1.98129 4.05172 2.01404V1.94854V1.89942C4.02874 1.87758 4.02874 1.85575 4.05172 1.83392V1.7848H4.10345V1.75205H4.13793V1.7193V1.67018V1.55556V1.53918C4.13793 1.53918 4.14943 1.53372 4.17241 1.52281C4.1954 1.50098 4.2069 1.4846 4.2069 1.47368C4.21839 1.45185 4.23563 1.43002 4.25862 1.40819L4.2931 1.37544L4.32759 1.32632V1.29357C4.32759 1.27174 4.33333 1.26082 4.34483 1.26082C4.36782 1.2499 4.37931 1.23353 4.37931 1.2117V1.17895C4.36782 1.17895 4.36207 1.17349 4.36207 1.16257L4.37931 1.1462C4.34483 1.11345 4.32759 1.08616 4.32759 1.06433H4.34483C4.36782 1.06433 4.37931 1.05341 4.37931 1.03158V0.982456C4.34483 0.982456 4.32759 0.960624 4.32759 0.91696V0.884211H4.25862L4.2069 0.835088L4.17241 0.802339C4.17241 0.747759 4.16092 0.709552 4.13793 0.68772L4.05172 0.720468H4.01724C3.91379 0.720468 3.84483 0.709552 3.81034 0.68772H3.65517H3.58621L3.53448 0.654971H3.51724C3.50575 0.654971 3.5 0.665887 3.5 0.68772H3.48276C3.45977 0.68772 3.43678 0.676804 3.41379 0.654971C3.3908 0.654971 3.36782 0.638597 3.34483 0.605848C3.27586 0.649513 3.2069 0.649513 3.13793 0.605848H3.10345C3.09195 0.584016 3.06322 0.562184 3.01724 0.540352H2.86207C2.85057 0.540352 2.83333 0.534893 2.81034 0.523977C2.79885 0.502145 2.77586 0.491229 2.74138 0.491229L2.72414 0.458479H2.68966L2.72414 0.376608V0.425731H2.68966H2.56897V0.376608L2.5 0.425731C2.48851 0.425731 2.46552 0.425731 2.43103 0.425731C2.39655 0.414815 2.37356 0.398441 2.36207 0.376608C2.36207 0.365692 2.35632 0.354776 2.34483 0.34386H2.32759C2.24713 0.34386 2.1954 0.354776 2.17241 0.376608H2.05172C2.01724 0.376608 1.98851 0.392983 1.96552 0.425731H1.93103C1.90805 0.425731 1.88506 0.431189 1.86207 0.442105C1.85057 0.453021 1.83333 0.458479 1.81034 0.458479C1.75287 0.458479 1.72414 0.447563 1.72414 0.425731C1.70115 0.403899 1.67816 0.392983 1.65517 0.392983C1.64368 0.382067 1.62644 0.365692 1.60345 0.34386C1.58046 0.34386 1.56897 0.332944 1.56897 0.311112H1.51724H1.44828H1.39655H1.36207C1.33908 0.311112 1.32759 0.322028 1.32759 0.34386C1.3046 0.34386 1.27011 0.34386 1.22414 0.34386C1.18966 0.332944 1.16667 0.305654 1.15517 0.261989C1.12069 0.261989 1.09195 0.256531 1.06897 0.245615C1.05747 0.234698 1.05172 0.240156 1.05172 0.261989C1.04023 0.261989 1.02299 0.251072 1 0.22924C0.896552 0.196492 0.816092 0.158285 0.758621 0.11462L0.689655 0.0818713L0.672414 0.0327491V0L0.758621 0.0327491C0.758621 0.0436651 0.764368 0.0545812 0.775862 0.0654972C0.787356 0.0764132 0.798851 0.0818713 0.810345 0.0818713H0.87931C0.902299 0.103704 0.91954 0.11462 0.931034 0.11462C0.977011 0.136452 1.01149 0.163743 1.03448 0.196492L1.05172 0.147368L1.08621 0.196492H1.15517C1.16667 0.196492 1.18391 0.207408 1.2069 0.22924C1.25287 0.251072 1.2931 0.261989 1.32759 0.261989C1.37356 0.240156 1.43678 0.22924 1.51724 0.22924H1.56897H1.68966H1.77586H1.81034C1.86782 0.174659 1.89655 0.174659 1.89655 0.22924C1.94253 0.22924 1.96552 0.218324 1.96552 0.196492H2V0.147368L2.05172 0.11462H2.08621C2.1092 0.11462 2.12644 0.120078 2.13793 0.130994C2.16092 0.14191 2.18391 0.147368 2.2069 0.147368H2.32759H2.37931H2.44828L2.32759 0.22924L2.36207 0.261989L2.44828 0.196492V0.22924H2.48276V0.261989H2.5C2.55747 0.305654 2.62069 0.305654 2.68966 0.261989H2.72414H2.74138L2.81034 0.22924C2.83333 0.251072 2.84483 0.278363 2.84483 0.311112C2.85632 0.332944 2.86207 0.354776 2.86207 0.376608V0.425731L2.89655 0.376608C2.94253 0.409357 2.97126 0.425731 2.98276 0.425731C2.98276 0.447563 2.97701 0.469396 2.96552 0.491229L2.98276 0.458479H3.01724H3.10345H3.22414L3.13793 0.491229V0.540352V0.491229C3.1954 0.491229 3.22414 0.480312 3.22414 0.458479H3.25862H3.2931L3.34483 0.491229V0.523977C3.34483 0.534893 3.35632 0.540352 3.37931 0.540352C3.4023 0.540352 3.43103 0.523977 3.46552 0.491229H3.5H3.53448C3.59195 0.469396 3.63218 0.48577 3.65517 0.540352H3.72414L3.74138 0.491229L3.77586 0.540352L3.81034 0.491229L3.86207 0.540352C3.87356 0.540352 3.88506 0.54581 3.89655 0.556726V0.5731L3.93103 0.605848H3.98276V0.5731C4.00575 0.551268 4.01724 0.534893 4.01724 0.523977C4.02874 0.502145 4.05747 0.491229 4.10345 0.491229V0.523977C4.10345 0.534893 4.11494 0.540352 4.13793 0.540352H4.17241L4.13793 0.5731H4.25862H4.32759C4.35057 0.551268 4.36782 0.534893 4.37931 0.523977C4.3908 0.513061 4.41379 0.518519 4.44828 0.540352H4.53448H4.56897V0.5731V0.540352C4.58046 0.540352 4.6092 0.523977 4.65517 0.491229C4.65517 0.469396 4.66092 0.453021 4.67241 0.442105C4.67241 0.431189 4.67816 0.425731 4.68966 0.425731C4.68966 0.37115 4.71839 0.332944 4.77586 0.311112H4.81034L4.82759 0.261989L4.89655 0.311112V0.34386H4.86207C4.83908 0.34386 4.82759 0.354776 4.82759 0.376608C4.81609 0.376608 4.81034 0.387525 4.81034 0.409357C4.81034 0.420273 4.79885 0.436647 4.77586 0.458479C4.72989 0.480312 4.7069 0.529435 4.7069 0.605848H4.68966V0.654971H4.65517C4.58621 0.68772 4.53448 0.68772 4.5 0.654971C4.44253 0.654971 4.4023 0.665887 4.37931 0.68772L4.41379 0.720468C4.47126 0.720468 4.52299 0.736843 4.56897 0.769591C4.56897 0.846004 4.57471 0.895127 4.58621 0.91696C4.63218 0.938792 4.65517 0.949708 4.65517 0.949708H4.68966C4.70115 0.97154 4.72989 0.97154 4.77586 0.949708C4.78736 0.949708 4.79885 0.94425 4.81034 0.933334L4.82759 0.91696C4.85057 0.91696 4.86782 0.911502 4.87931 0.900585L4.89655 0.884211L4.94828 0.949708L5.05172 0.884211L5.06897 0.949708H5.10345H5.18966H5.34483H5.41379H5.46552C5.48851 0.927876 5.50575 0.91696 5.51724 0.91696C5.54023 0.91696 5.56322 0.906044 5.58621 0.884211C5.65517 0.840546 5.72414 0.840546 5.7931 0.884211C5.81609 0.906044 5.86782 0.91696 5.94828 0.91696C5.97126 0.938792 6.02299 0.949708 6.10345 0.949708C6.12644 0.97154 6.14368 0.993372 6.15517 1.01521C6.17816 1.02612 6.20115 1.03158 6.22414 1.03158C6.28161 1.03158 6.32184 1.0425 6.34483 1.06433C6.36782 1.08616 6.37931 1.08616 6.37931 1.06433H6.39655L6.46552 1.09708C6.48851 1.09708 6.50575 1.10799 6.51724 1.12982C6.52874 1.14074 6.55172 1.1462 6.58621 1.1462C6.5977 1.16803 6.64943 1.18986 6.74138 1.2117H6.75862V1.29357H6.74138H6.7069C6.66092 1.27174 6.63218 1.26082 6.62069 1.26082V1.2117H6.58621C6.55172 1.2117 6.52874 1.21715 6.51724 1.22807C6.51724 1.23899 6.51724 1.23353 6.51724 1.2117C6.55172 1.25536 6.56897 1.28811 6.56897 1.30994C6.58046 1.33177 6.5977 1.35361 6.62069 1.37544L6.58621 1.40819C6.55172 1.43002 6.52874 1.45731 6.51724 1.49006C6.50575 1.51189 6.5 1.53372 6.5 1.55556V1.60468L6.46552 1.67018C6.46552 1.68109 6.47126 1.69201 6.48276 1.70292C6.48276 1.71384 6.48276 1.72476 6.48276 1.73567C6.49425 1.73567 6.5 1.74113 6.5 1.75205H6.46552V1.83392L6.39655 1.75205C6.38506 1.77388 6.36782 1.7848 6.34483 1.7848H6.31035L6.25862 1.83392H6.22414V1.86667C6.20115 1.8885 6.18966 1.92671 6.18966 1.98129C6.18966 2.00312 6.17241 2.03041 6.13793 2.06316C6.11494 2.08499 6.10345 2.10682 6.10345 2.12866C6.08046 2.12866 6.06897 2.14503 6.06897 2.17778C6.09195 2.14503 6.11494 2.11774 6.13793 2.09591H6.18966C6.21264 2.11774 6.22989 2.12866 6.24138 2.12866H6.25862C6.27012 2.15049 6.28161 2.1614 6.2931 2.1614C6.31609 2.15049 6.33333 2.14503 6.34483 2.14503C6.35632 2.14503 6.36782 2.13957 6.37931 2.12866C6.3908 2.10682 6.41379 2.09591 6.44828 2.09591C6.48276 2.09591 6.50575 2.09591 6.51724 2.09591L6.58621 2.06316C6.6092 2.06316 6.62069 2.07407 6.62069 2.09591V2.06316L6.7069 2.01404C6.72989 2.01404 6.74138 2.02495 6.74138 2.04678V2.06316C6.74138 2.08499 6.74713 2.09591 6.75862 2.09591L6.74138 2.06316L6.75862 2.01404H6.7931V2.06316C6.83908 2.06316 6.86782 2.07407 6.87931 2.09591H6.91379C6.91379 2.07407 6.92529 2.06316 6.94828 2.06316C6.97126 2.06316 6.98851 2.06316 7 2.06316C7 2.07407 7.00575 2.07953 7.01724 2.07953L7.03448 2.06316L7.10345 2.01404L7.12069 2.06316L7.15517 2.01404L7.18966 2.06316V2.01404L7.27586 2.06316C7.28736 2.06316 7.2931 2.06862 7.2931 2.07953C7.3046 2.07953 7.31609 2.07953 7.32759 2.07953C7.33908 2.09045 7.35057 2.09591 7.36207 2.09591C7.37356 2.09591 7.38506 2.10136 7.39655 2.11228V2.12866H7.41379V2.14503C7.41379 2.15595 7.41954 2.16686 7.43103 2.17778L7.5 2.21053C7.51149 2.18869 7.52299 2.18324 7.53448 2.19415C7.55747 2.20507 7.58621 2.21053 7.62069 2.21053C7.64368 2.25419 7.66092 2.27602 7.67241 2.27602C7.68391 2.27602 7.71264 2.26511 7.75862 2.24328L7.7931 2.21053H7.82759C7.85057 2.21053 7.86207 2.20507 7.86207 2.19415C7.87356 2.18324 7.8908 2.17778 7.91379 2.17778H8V2.12866V2.17778V2.21053L8.01724 2.2269C8.01724 2.23782 8.01149 2.24328 8 2.24328V2.32515C8.01149 2.32515 8.02299 2.3306 8.03448 2.34152V2.3579V2.40702C8.01149 2.40702 8 2.41793 8 2.43977L8.03448 2.47251C8.01149 2.5271 7.99425 2.55984 7.98276 2.57076C7.97126 2.58168 7.93678 2.58714 7.87931 2.58714C7.87931 2.60897 7.85057 2.64717 7.7931 2.70175C7.78161 2.70175 7.77586 2.70721 7.77586 2.71813C7.77586 2.73996 7.78161 2.76179 7.7931 2.78363C7.7931 2.81637 7.8046 2.83275 7.82759 2.83275L7.87931 2.89825C7.87931 2.93099 7.8908 2.9692 7.91379 3.01287C7.91379 3.0347 7.91954 3.05107 7.93104 3.06199C7.94253 3.06199 7.93678 3.08382 7.91379 3.12749C7.93678 3.14932 7.94828 3.16569 7.94828 3.17661L7.91379 3.24211V3.27485C7.92529 3.27485 7.93678 3.28031 7.94828 3.29123C7.94828 3.30214 7.94253 3.31306 7.93104 3.32398C7.93104 3.32398 7.93104 3.32943 7.93104 3.34035V3.35673C7.91954 3.36764 7.91379 3.36764 7.91379 3.35673C7.9023 3.35673 7.8908 3.36218 7.87931 3.3731V3.38947C7.9023 3.40039 7.90805 3.42222 7.89655 3.45497C7.88506 3.48772 7.87931 3.51501 7.87931 3.53684V3.58597V3.61871L7.7931 3.58597V3.61871H7.75862H7.7069C7.68391 3.61871 7.66667 3.61326 7.65517 3.60234C7.64368 3.59142 7.63218 3.58597 7.62069 3.58597H7.55172V3.61871L7.62069 3.65146V3.70058V3.73333C7.62069 3.78791 7.62644 3.82612 7.63793 3.84795L7.67241 3.8807C7.66092 3.8807 7.65517 3.89162 7.65517 3.91345C7.65517 3.92437 7.66092 3.92982 7.67241 3.92982C7.67241 3.95166 7.68391 3.97349 7.7069 3.99532V4.04444H7.75862L7.67241 4.10994L7.75862 4.15906V4.14269C7.75862 4.12086 7.77012 4.10994 7.7931 4.10994H7.82759H7.87931L7.82759 4.15906C7.82759 4.1809 7.84483 4.20273 7.87931 4.22456V4.27368C7.8908 4.27368 7.93103 4.29552 8 4.33918C8 4.37193 7.98276 4.3883 7.94828 4.3883C7.91379 4.46472 7.93103 4.52476 8 4.56842H8.03448V4.5848C8.03448 4.62846 8.04023 4.65575 8.05172 4.66667C8.05172 4.67758 8.05747 4.68304 8.06897 4.68304L8.10345 4.69942C8.13793 4.74308 8.16667 4.76491 8.18966 4.76491L8.27586 4.81403C8.27586 4.87953 8.25862 4.91228 8.22414 4.91228L8.18966 4.92866V4.99415V5.01053C8.18966 5.03236 8.17816 5.04327 8.15517 5.04327C8.15517 5.07602 8.14943 5.10331 8.13793 5.12515C8.12644 5.13606 8.13218 5.14698 8.15517 5.15789C8.15517 5.20156 8.13793 5.23431 8.10345 5.25614V5.27251V5.33801C8.14943 5.37076 8.14943 5.38713 8.10345 5.38713V5.45263L8.12069 5.46901L8.15517 5.50175L8.18966 5.56725V5.6V5.61637L8.15517 5.68187H8.17241C8.17241 5.68187 8.17816 5.69279 8.18966 5.71462C8.24713 5.71462 8.28736 5.72008 8.31035 5.73099V5.82924V5.91111C8.31035 5.93294 8.32184 5.93294 8.34483 5.91111V5.82924V5.84561C8.39081 5.84561 8.41379 5.86199 8.41379 5.89474C8.42529 5.92749 8.43104 5.94932 8.43104 5.96023V6.05848C8.43104 6.0694 8.43678 6.08577 8.44828 6.1076C8.45977 6.12943 8.46552 6.15127 8.46552 6.1731C8.46552 6.16218 8.44253 6.20039 8.39655 6.28772C8.36207 6.28772 8.34483 6.29318 8.34483 6.30409C8.34483 6.31501 8.33908 6.32593 8.32759 6.33684H8.31035V6.40234H8.27586L8.22414 6.33684V6.40234V6.41871V6.45146H8.18966C8.18966 6.48421 8.18391 6.50604 8.17241 6.51696C8.16092 6.52788 8.15517 6.54425 8.15517 6.56608C8.13218 6.56608 8.11494 6.577 8.10345 6.59883C8.10345 6.62066 8.09195 6.63158 8.06897 6.63158C8.04598 6.66433 8.00575 6.6807 7.94828 6.6807H7.91379V6.7462L7.94828 6.76257L7.7931 6.7462H7.81034L7.82759 6.76257C7.8046 6.83899 7.75287 6.87719 7.67241 6.87719H7.63793L7.67241 6.90994L7.63793 6.97544H7.67241C7.6954 6.97544 7.7069 6.98635 7.7069 7.00819C7.7069 7.05185 7.70115 7.09006 7.68966 7.12281C7.67816 7.14464 7.66092 7.17193 7.63793 7.20468C7.62644 7.20468 7.62069 7.22105 7.62069 7.2538C7.58621 7.2538 7.56322 7.26472 7.55172 7.28655C7.55172 7.30838 7.55172 7.33021 7.55172 7.35205C7.62069 7.36296 7.64368 7.40663 7.62069 7.48304V7.54854C7.63218 7.57037 7.63793 7.60858 7.63793 7.66316V7.69591C7.63793 7.69591 7.64943 7.69591 7.67241 7.69591V7.67953C7.67241 7.67953 7.68391 7.67407 7.7069 7.66316H7.75862H7.7931V7.69591C7.85057 7.69591 7.87931 7.68499 7.87931 7.66316C7.9023 7.63041 7.91954 7.61404 7.93104 7.61404C7.95402 7.60312 7.97701 7.5922 8 7.58129C8 7.57037 8.00575 7.56491 8.01724 7.56491C8.04023 7.56491 8.05747 7.57037 8.06897 7.58129H8.10345L8.15517 7.54854L8.18966 7.59766H8.27586V7.66316C8.29885 7.66316 8.31609 7.66862 8.32759 7.67953C8.35057 7.69045 8.37356 7.69591 8.39655 7.69591L8.43104 7.59766H8.46552C8.47701 7.63041 8.49425 7.65224 8.51724 7.66316C8.54023 7.66316 8.56322 7.66316 8.58621 7.66316C8.58621 7.66316 8.59195 7.67407 8.60345 7.69591H8.67241C8.7069 7.69591 8.72414 7.7232 8.72414 7.77778L8.84483 7.69591H8.91379C8.91379 7.61949 8.94253 7.58129 9 7.58129C9.03448 7.5922 9.06322 7.60312 9.08621 7.61404C9.12069 7.61404 9.16092 7.63041 9.2069 7.66316C9.22989 7.68499 9.25287 7.70136 9.27586 7.71228C9.29885 7.71228 9.31609 7.71228 9.32759 7.71228C9.35057 7.71228 9.37356 7.73411 9.39655 7.77778L9.44828 7.71228H9.48276C9.50575 7.75595 9.52299 7.77778 9.53448 7.77778C9.54598 7.78869 9.55747 7.78869 9.56896 7.77778C9.59195 7.77778 9.61494 7.78869 9.63793 7.81053C9.67241 7.82144 9.71264 7.8269 9.75862 7.8269C9.78161 7.81598 9.79885 7.81598 9.81034 7.8269C9.83333 7.8269 9.85632 7.8269 9.87931 7.8269L9.91379 7.8924H9.96552V7.92515V7.94152C10 7.9961 10.0287 8.03431 10.0517 8.05614C10.0747 8.06706 10.0862 8.0998 10.0862 8.15439L10.1034 8.13801C10.1034 8.1271 10.1034 8.11618 10.1034 8.10526C10.1149 8.09435 10.1207 8.07797 10.1207 8.05614H10.1552C10.2126 8.05614 10.2414 8.06706 10.2414 8.08889H10.2759H10.2931C10.2931 8.13255 10.3161 8.15439 10.3621 8.15439H10.3966L10.5172 8.08889L10.4828 8.15439C10.4368 8.1653 10.408 8.17076 10.3966 8.17076C10.3736 8.19259 10.3391 8.20351 10.2931 8.20351V8.28538H10.3966L10.3621 8.4L10.2414 8.38363V8.4H10.2069V8.49825V8.43275H10.2414C10.2414 8.44366 10.2471 8.44912 10.2586 8.44912C10.2586 8.46004 10.2586 8.4655 10.2586 8.4655C10.2701 8.4655 10.2759 8.47641 10.2759 8.49825C10.2529 8.50916 10.2471 8.51462 10.2586 8.51462C10.2701 8.51462 10.2759 8.52554 10.2759 8.54737H10.2931C10.2931 8.58012 10.3046 8.60195 10.3276 8.61287C10.3506 8.61287 10.3621 8.61832 10.3621 8.62924C10.3736 8.62924 10.3851 8.6347 10.3966 8.64561V8.66199C10.454 8.66199 10.4828 8.68928 10.4828 8.74386V8.77661H10.5172C10.5287 8.80936 10.546 8.83119 10.569 8.8421C10.592 8.85302 10.6034 8.8694 10.6034 8.89123L10.5345 8.95673L10.6034 9.07135L10.5345 9.20234H10.4828C10.5057 9.22417 10.5172 9.25146 10.5172 9.28421C10.5172 9.30604 10.5172 9.32788 10.5172 9.34971C10.5172 9.39337 10.523 9.41521 10.5345 9.41521V9.43158H10.5172C10.5172 9.45341 10.523 9.48616 10.5345 9.52983H10.6034V9.5462H10.6379H10.6552L10.6897 9.57895H10.7586L10.6379 9.64444C10.6379 9.67719 10.6552 9.69357 10.6897 9.69357H10.7586L10.7759 9.72632H10.7586H10.6552H10.6034L10.6379 9.77544V9.80819C10.6149 9.80819 10.6034 9.83548 10.6034 9.89006L10.6379 9.92281V9.93918C10.6379 9.9501 10.6379 9.96101 10.6379 9.97193C10.6494 9.98285 10.6552 9.99376 10.6552 10.0047V10.0374H10.6379V10.0702C10.6379 10.0702 10.6437 10.0811 10.6552 10.1029V10.1193H10.6897C10.6897 10.1411 10.7011 10.152 10.7241 10.152H10.7586C10.7701 10.1739 10.7874 10.1848 10.8103 10.1848L10.8793 10.2339C10.9023 10.2121 10.9253 10.2121 10.9483 10.2339C10.9828 10.2448 11 10.2667 11 10.2994C11.0115 10.2994 11.0172 10.3158 11.0172 10.3485H11.1207H11.1724C11.1724 10.3704 11.1782 10.3813 11.1897 10.3813H11.2069C11.2644 10.3595 11.3046 10.3595 11.3276 10.3813H11.3966H11.4138V10.414H11.3966V10.4632H11.4138C11.4138 10.4413 11.4195 10.4304 11.431 10.4304C11.4425 10.4195 11.4483 10.4031 11.4483 10.3813L11.5172 10.3485L11.5345 10.3813L11.5172 10.3485L11.569 10.2994V10.2667L11.6034 10.2994H11.6552C11.6782 10.2994 11.6897 10.3158 11.6897 10.3485H11.7241V10.3322C11.7241 10.3103 11.7414 10.2994 11.7759 10.2994L11.8103 10.2667C11.8103 10.2885 11.8161 10.2994 11.8276 10.2994H11.8448C11.9023 10.354 11.954 10.3704 12 10.3485H12.0517L12.1207 10.2667L12.2931 10.2994V10.2667H12.4138C12.4253 10.2667 12.4368 10.2721 12.4483 10.283V10.2994C12.4713 10.3322 12.4885 10.3322 12.5 10.2994C12.5345 10.2994 12.5575 10.294 12.569 10.283C12.592 10.2721 12.6092 10.2776 12.6207 10.2994H12.6552C12.6782 10.2994 12.6897 10.3158 12.6897 10.3485C12.7241 10.294 12.7414 10.2667 12.7414 10.2667C12.8103 10.2667 12.8506 10.2776 12.8621 10.2994H12.8793V10.3158C12.8793 10.3267 12.8851 10.3376 12.8966 10.3485H12.9655C12.977 10.3813 13.0172 10.3813 13.0862 10.3485H13.1034H13.1379L13.2069 10.3813L13.2241 10.3485V10.414H13.3448H13.4138C13.4713 10.414 13.5 10.4031 13.5 10.3813H13.5345C13.5345 10.3595 13.5402 10.3431 13.5517 10.3322C13.5747 10.3103 13.5862 10.2885 13.5862 10.2667H13.6552C13.6552 10.2885 13.6609 10.3103 13.6724 10.3322C13.6839 10.3431 13.6782 10.3595 13.6552 10.3813V10.3485L13.7069 10.2994C13.7529 10.2994 13.7759 10.3267 13.7759 10.3813V10.414L13.8103 10.4632C13.8678 10.4632 13.8966 10.4741 13.8966 10.4959C13.9195 10.5177 13.9598 10.5287 14.0172 10.5287C14.0517 10.4959 14.092 10.4959 14.1379 10.5287C14.1609 10.5723 14.1724 10.5996 14.1724 10.6105C14.1839 10.6324 14.2126 10.6433 14.2586 10.6433C14.2816 10.6433 14.2931 10.6378 14.2931 10.6269V10.6105L14.3103 10.6433C14.3563 10.6433 14.3793 10.6651 14.3793 10.7088L14.5 10.6105V10.5942V10.5287H14.5345C14.5345 10.5287 14.5402 10.5177 14.5517 10.4959V10.4632L14.5 10.3813H14.6552C14.6552 10.3376 14.6552 10.3158 14.6552 10.3158C14.6667 10.3049 14.6839 10.2885 14.7069 10.2667H14.7414C14.7644 10.2667 14.7759 10.2558 14.7759 10.2339H14.7414C14.7184 10.2339 14.7069 10.2175 14.7069 10.1848C14.6839 10.1848 14.6724 10.1793 14.6724 10.1684C14.6724 10.1575 14.6667 10.152 14.6552 10.152C14.6552 10.1302 14.6552 10.1084 14.6552 10.0865C14.6552 10.0538 14.6609 10.0374 14.6724 10.0374C14.6609 10.0374 14.6552 10.032 14.6552 10.0211V10.0047C14.6322 10.0047 14.6092 10.0047 14.5862 10.0047C14.5632 9.99376 14.5517 9.96647 14.5517 9.92281H14.6207H14.6552H14.7069H14.8276H14.8966V9.89006C14.8621 9.89006 14.8506 9.89006 14.8621 9.89006C14.8851 9.87914 14.8966 9.86277 14.8966 9.84094V9.80819L15.0172 9.77544L15.069 9.64444C15.0575 9.60078 15.0517 9.56257 15.0517 9.52983H14.9483C14.9368 9.54074 14.931 9.54074 14.931 9.52983V9.46433V9.44795C14.931 9.44795 14.9195 9.4425 14.8966 9.43158H14.8276H14.8103V9.41521C14.7874 9.41521 14.7759 9.40429 14.7759 9.38246V9.34971H14.7069H14.6207L14.5517 9.31696C14.5402 9.31696 14.5345 9.3115 14.5345 9.30058L14.5 9.23509H14.5345H14.5517H14.6207L14.6724 9.20234L14.6207 9.30058H14.7069C14.7069 9.26784 14.7184 9.25146 14.7414 9.25146C14.7644 9.25146 14.7759 9.26784 14.7759 9.30058C14.7989 9.30058 14.8161 9.30604 14.8276 9.31696C14.8966 9.31696 14.931 9.32788 14.931 9.34971C14.9425 9.38246 14.9598 9.40429 14.9828 9.41521C15.0057 9.41521 15.0287 9.41521 15.0517 9.41521C15.0517 9.42612 15.0575 9.43158 15.069 9.43158H15.1034H15.1724H15.1897V9.41521L15.2931 9.52983C15.3046 9.54074 15.3448 9.5462 15.4138 9.5462C15.4368 9.52437 15.4655 9.52437 15.5 9.5462L15.5517 9.57895C15.5517 9.58986 15.5575 9.59532 15.569 9.59532C15.569 9.60624 15.569 9.6117 15.569 9.6117C15.5805 9.6117 15.5862 9.62261 15.5862 9.64444H15.6724C15.6954 9.60078 15.7184 9.57895 15.7414 9.57895V9.5462L15.7931 9.57895C15.8161 9.57895 15.8276 9.58986 15.8276 9.6117C15.8276 9.62261 15.8391 9.6117 15.8621 9.57895H15.9483V9.5462H15.9828C16.0517 9.62261 16.1322 9.66082 16.2241 9.66082C16.2356 9.66082 16.2471 9.66628 16.2586 9.67719V9.69357V9.70994C16.2586 9.72086 16.2471 9.72632 16.2241 9.72632C16.2471 9.72632 16.2586 9.73723 16.2586 9.75906V9.77544V9.74269C16.2586 9.73177 16.2759 9.7154 16.3103 9.69357H16.3448C16.3448 9.7154 16.3563 9.74269 16.3793 9.77544C16.3793 9.80819 16.408 9.84639 16.4655 9.89006L16.5 9.92281V9.95555C16.5115 9.95555 16.5172 9.97193 16.5172 10.0047C16.5402 10.0156 16.5632 10.032 16.5862 10.0538C16.5977 10.0647 16.6092 10.0702 16.6207 10.0702H16.6379C16.6609 10.0702 16.6839 10.0811 16.7069 10.1029C16.7184 10.1138 16.7299 10.1193 16.7414 10.1193L16.7586 10.1357V10.152L16.7931 10.1848C16.7931 10.2066 16.8046 10.223 16.8276 10.2339C16.8506 10.2339 16.8621 10.2448 16.8621 10.2667L16.8793 10.2994L16.9138 10.3485L17 10.4959ZM7.7069 3.50409H7.67241H7.7069ZM7.67241 3.38947H7.68966C7.68966 3.38947 7.6954 3.37856 7.7069 3.35673L7.67241 3.38947ZM1.81034 0.327486C1.81034 0.327486 1.79885 0.322028 1.77586 0.311112C1.77586 0.332944 1.78161 0.34386 1.7931 0.34386H1.81034V0.327486ZM2.24138 0.261989C2.24138 0.240156 2.21839 0.22924 2.17241 0.22924C2.11494 0.22924 2.07471 0.240156 2.05172 0.261989V0.311112C2.00575 0.289279 1.97701 0.278363 1.96552 0.278363C1.96552 0.278363 1.95402 0.289279 1.93103 0.311112V0.34386C1.95402 0.34386 1.96552 0.338402 1.96552 0.327486V0.311112H2.08621C2.1092 0.278363 2.14943 0.261989 2.2069 0.261989H2.24138ZM2.84483 0.425731H2.86207H2.84483ZM1.44828 1.29357H1.41379L1.44828 1.32632V1.29357ZM2.17241 1.86667L2.12069 1.83392V1.86667H2.2069H2.17241ZM2.72414 2.32515C2.72414 2.30331 2.72414 2.2924 2.72414 2.2924C2.73563 2.28148 2.74138 2.26511 2.74138 2.24328V2.21053C2.74138 2.18869 2.73563 2.17232 2.72414 2.1614C2.72414 2.13957 2.72414 2.11774 2.72414 2.09591C2.70115 2.09591 2.68966 2.09045 2.68966 2.07953V2.06316C2.68966 2.03041 2.66667 2.01404 2.62069 2.01404C2.6092 2.02495 2.60345 2.02495 2.60345 2.01404V1.94854H2.62069L2.60345 1.89942H2.56897H2.5C2.46552 1.89942 2.42529 1.8885 2.37931 1.86667L2.24138 2.01404L2.2931 2.06316C2.2931 2.08499 2.29885 2.10136 2.31034 2.11228C2.31034 2.1232 2.31609 2.12866 2.32759 2.12866C2.35057 2.12866 2.37356 2.13957 2.39655 2.1614C2.43103 2.17232 2.44828 2.18869 2.44828 2.21053H2.5V2.17778H2.56897V2.24328C2.60345 2.27602 2.62069 2.30331 2.62069 2.32515C2.64368 2.32515 2.65517 2.3306 2.65517 2.34152C2.65517 2.34152 2.66092 2.34152 2.67241 2.34152C2.67241 2.35244 2.67816 2.3579 2.68966 2.3579H2.72414V2.32515ZM2.74138 2.47251H2.81034H2.74138ZM3.34483 3.53684H3.2931H3.34483ZM3.34483 5.37076L3.2931 5.33801V5.37076H3.34483ZM3.41379 6.7462C3.42529 6.75711 3.44828 6.76257 3.48276 6.76257H3.5V6.7462H3.46552H3.41379ZM3.46552 8.85848H3.5H3.46552ZM1.27586 13.8035V13.7708L1.2069 13.8526L1.27586 13.8035ZM1.27586 13.345H1.2069C1.2069 13.3778 1.21839 13.3942 1.24138 13.3942H1.27586V13.345ZM2 13.2304V13.1977V13.2304ZM3.2931 10.4632C3.2931 10.4632 3.28736 10.4522 3.27586 10.4304V10.414H3.25862C3.23563 10.4468 3.22414 10.4741 3.22414 10.4959L3.2931 10.4632ZM3.2931 9.77544V9.80819L3.34483 9.77544H3.2931ZM3.37931 9.69357V9.66082V9.69357ZM3.5 9.5462V9.52983L3.46552 9.5462H3.5ZM3.58621 9.20234H3.53448H3.5H3.46552H3.5H3.46552L3.5 9.23509V9.30058V9.23509C3.52299 9.23509 3.53448 9.22417 3.53448 9.20234H3.58621ZM3.65517 9.00585H3.62069L3.65517 9.07135V9.00585ZM7.87931 5.15789C7.87931 5.14698 7.86207 5.14152 7.82759 5.14152C7.86207 5.15244 7.87931 5.17973 7.87931 5.22339V5.15789ZM7.7069 4.99415V5.0269V4.99415ZM7.55172 4.42105V4.4538C7.5977 4.4538 7.62644 4.45926 7.63793 4.47018V4.53567V4.47018C7.63793 4.47018 7.64368 4.46472 7.65517 4.4538H7.67241L7.62069 4.42105H7.55172ZM7.18966 2.32515H7.27586L7.31035 2.3579V2.40702H7.39655C7.37356 2.37427 7.36207 2.34698 7.36207 2.32515V2.2924H7.31035H7.27586H7.25862C7.24713 2.2924 7.24138 2.30331 7.24138 2.32515H7.18966ZM6.10345 1.98129C6.08046 1.98129 6.08046 1.9922 6.10345 2.01404V1.98129ZM6.25862 1.75205H6.31035H6.25862ZM6.39655 1.44094C6.41954 1.44094 6.43678 1.43548 6.44828 1.42456L6.46552 1.40819V1.37544L6.39655 1.44094ZM6.39655 1.17895V1.2117V1.17895ZM6.10345 1.26082C6.04598 1.26082 6.01724 1.27174 6.01724 1.29357L5.94828 1.32632L5.86207 1.26082C5.83908 1.28265 5.81609 1.29357 5.7931 1.29357C5.7931 1.3154 5.79885 1.33177 5.81034 1.34269C5.82184 1.34269 5.82759 1.35361 5.82759 1.37544H5.86207V1.40819V1.44094C5.86207 1.47368 5.85057 1.49006 5.82759 1.49006C5.87356 1.53372 5.87356 1.55556 5.82759 1.55556V1.60468V1.63743C5.83908 1.63743 5.85057 1.64289 5.86207 1.6538V1.67018H5.89655H5.94828V1.63743C5.94828 1.6156 5.94828 1.59376 5.94828 1.57193C5.95977 1.53918 5.98276 1.52281 6.01724 1.52281C6.05172 1.55556 6.06897 1.57193 6.06897 1.57193V1.60468H6.13793C6.17241 1.57193 6.18966 1.54464 6.18966 1.52281L6.13793 1.40819H6.22414L6.25862 1.52281H6.34483H6.37931C6.37931 1.50098 6.38506 1.47368 6.39655 1.44094L6.31035 1.40819L6.34483 1.32632L6.25862 1.29357L6.18966 1.32632V1.29357H6.13793L6.10345 1.26082ZM6.01724 1.86667C6.05172 1.86667 6.06897 1.86121 6.06897 1.85029V1.83392C5.98851 1.83392 5.94828 1.85575 5.94828 1.89942C5.97126 1.93216 5.99425 1.94854 6.01724 1.94854V1.86667ZM5.89655 1.09708C5.86207 1.09708 5.83333 1.09162 5.81034 1.0807C5.78736 1.06979 5.76437 1.06433 5.74138 1.06433H5.7931C5.7931 1.08616 5.79885 1.10253 5.81034 1.11345C5.82184 1.11345 5.81609 1.12437 5.7931 1.1462C5.86207 1.1462 5.91379 1.15712 5.94828 1.17895C5.95977 1.16803 5.97701 1.16257 6 1.16257C6.01149 1.16257 6.01724 1.16803 6.01724 1.17895C6.04023 1.15712 6.05747 1.14074 6.06897 1.12982C6.09195 1.10799 6.11494 1.09708 6.13793 1.09708H6.10345C6.04598 1.09708 6.00575 1.08616 5.98276 1.06433L5.94828 1.1462V1.09708H5.89655ZM5.74138 1.03158V1.06433V1.03158H5.7069H5.74138ZM5.01724 1.09708L5.05172 1.1462L5.06897 1.06433C5.05747 1.0425 5.04023 1.0425 5.01724 1.06433V1.09708ZM4.89655 1.17895C4.89655 1.20078 4.9023 1.2117 4.91379 1.2117C4.92529 1.2117 4.93103 1.20078 4.93103 1.17895L4.89655 1.03158C4.89655 1.05341 4.88506 1.06433 4.86207 1.06433C4.85057 1.06433 4.86207 1.07524 4.89655 1.09708V1.1462L4.87931 1.16257C4.86782 1.17349 4.85057 1.17895 4.82759 1.17895H4.89655ZM4.44828 0.982456C4.44828 1.00429 4.45402 1.02066 4.46552 1.03158C4.48851 1.03158 4.5 1.0425 4.5 1.06433L4.53448 1.09708L4.5 1.06433L4.53448 1.03158L4.5 0.982456H4.44828ZM3.58621 2.70175C3.57471 2.70175 3.56322 2.70721 3.55172 2.71813H3.53448C3.56897 2.71813 3.58621 2.72904 3.58621 2.75088V2.78363C3.63218 2.78363 3.65517 2.76179 3.65517 2.71813C3.70115 2.71813 3.72989 2.73996 3.74138 2.78363L3.77586 2.81637V2.83275V2.89825C3.79885 2.89825 3.81034 2.91462 3.81034 2.94737V3.01287L3.89655 3.04561C3.91954 2.99103 3.93103 2.96374 3.93103 2.96374C3.94253 2.95283 3.97126 2.94737 4.01724 2.94737H4.05172C4.07471 3.00195 4.08621 3.04016 4.08621 3.06199C4.0977 3.08382 4.10345 3.12203 4.10345 3.17661H4.05172L4.10345 3.24211L4.17241 3.17661V3.24211H4.2069V3.17661V3.12749C4.2069 3.1384 4.21264 3.1384 4.22414 3.12749C4.24713 3.12749 4.25862 3.10565 4.25862 3.06199L4.2931 3.04561C4.31609 3.04561 4.33333 3.04016 4.34483 3.02924C4.35632 3.02924 4.36782 3.02378 4.37931 3.01287C4.37931 3.00195 4.38506 2.99103 4.39655 2.98012C4.41954 2.95828 4.43678 2.94737 4.44828 2.94737L4.5 2.93099V2.83275L4.44828 2.81637H4.41379L4.44828 2.71813L4.43104 2.70175H4.41379V2.63626L4.44828 2.58714C4.48276 2.5653 4.52299 2.55439 4.56897 2.55439L4.65517 2.52164V2.55439C4.67816 2.53255 4.6954 2.52164 4.7069 2.52164C4.71839 2.52164 4.72989 2.51618 4.74138 2.50526C4.76437 2.48343 4.78736 2.47251 4.81034 2.47251L4.82759 2.43977H4.89655V2.40702L4.93103 2.3579L4.94828 2.52164C5.00575 2.49981 5.04598 2.48343 5.06897 2.47251C5.10345 2.45068 5.13793 2.42885 5.17241 2.40702C5.17241 2.38519 5.17241 2.37427 5.17241 2.37427C5.18391 2.36335 5.18966 2.34698 5.18966 2.32515H5.22414C5.23563 2.31423 5.24713 2.30877 5.25862 2.30877C5.28161 2.30877 5.2931 2.31423 5.2931 2.32515C5.32759 2.32515 5.34483 2.31423 5.34483 2.2924L5.41379 2.24328L5.46552 2.32515C5.46552 2.30331 5.47701 2.2924 5.5 2.2924C5.5 2.25965 5.51724 2.24328 5.55172 2.24328V2.21053H5.5C5.45402 2.21053 5.42529 2.19961 5.41379 2.17778V2.12866L5.43103 2.09591C5.45402 2.07407 5.47126 2.06316 5.48276 2.06316H5.5H5.55172H5.58621V1.98129H5.62069H5.67241H5.7069C5.72989 1.95945 5.74138 1.92125 5.74138 1.86667L5.7069 1.83392H5.67241L5.62069 1.86667L5.46552 1.7193L5.55172 1.63743H5.62069V1.60468C5.5977 1.58285 5.56897 1.57193 5.53448 1.57193C5.51149 1.57193 5.48851 1.58285 5.46552 1.60468V1.63743L5.43103 1.60468C5.41954 1.58285 5.4023 1.56647 5.37931 1.55556C5.35632 1.54464 5.34483 1.52281 5.34483 1.49006C5.34483 1.45731 5.33333 1.43002 5.31035 1.40819V1.44094H5.2931C5.25862 1.4191 5.23563 1.39727 5.22414 1.37544C5.22414 1.34269 5.22414 1.3154 5.22414 1.29357V1.2117H5.18966C5.17816 1.23353 5.16092 1.2499 5.13793 1.26082C5.11494 1.26082 5.09195 1.26082 5.06897 1.26082H5.05172C5.02874 1.28265 4.99425 1.29357 4.94828 1.29357H4.93103C4.90805 1.29357 4.88506 1.29357 4.86207 1.29357C4.83908 1.29357 4.82759 1.30448 4.82759 1.32632H4.81034H4.7069L4.68966 1.37544H4.65517H4.58621V1.39181C4.58621 1.40273 4.58046 1.40819 4.56897 1.40819L4.53448 1.44094V1.40819C4.53448 1.35361 4.54598 1.3154 4.56897 1.29357V1.26082L4.53448 1.29357L4.44828 1.37544C4.44828 1.45185 4.42529 1.51189 4.37931 1.55556C4.4023 1.5883 4.4023 1.62651 4.37931 1.67018V1.7193V1.75205V1.89942V1.94854L4.32759 1.89942V1.86667L4.2931 1.83392V1.7848H4.25862C4.28161 1.82846 4.2931 1.85029 4.2931 1.85029V1.86667H4.25862V1.89942L4.41379 1.98129H4.32759C4.3046 1.98129 4.2931 1.98675 4.2931 1.99766C4.2931 2.00858 4.28161 2.01404 4.25862 2.01404V2.06316C4.25862 2.10682 4.22989 2.12866 4.17241 2.12866H4.13793H4.17241H4.13793L4.10345 2.17778C4.10345 2.19961 4.08621 2.21053 4.05172 2.21053H4.01724H4.05172V2.24328C4.05172 2.27602 4.02874 2.31423 3.98276 2.3579C3.94828 2.39064 3.94828 2.40702 3.98276 2.40702H4.01724L4.05172 2.52164C3.99425 2.55439 3.95402 2.57076 3.93103 2.57076C3.91954 2.57076 3.89655 2.55439 3.86207 2.52164C3.81609 2.49981 3.78736 2.48889 3.77586 2.48889C3.77586 2.48889 3.76437 2.49981 3.74138 2.52164V2.55439C3.72989 2.57622 3.71264 2.59805 3.68966 2.61988C3.66667 2.64172 3.64368 2.66901 3.62069 2.70175H3.58621ZM4.13793 3.73333V3.81521V3.76608V3.73333ZM3.89655 3.24211H3.86207V3.16023V3.17661V3.20936C3.86207 3.23119 3.87356 3.24211 3.89655 3.24211ZM3.46552 3.84795C3.46552 3.82612 3.47126 3.81521 3.48276 3.81521C3.49425 3.80429 3.48851 3.78791 3.46552 3.76608C3.48851 3.79883 3.48851 3.82612 3.46552 3.84795ZM3.53448 3.70058H3.5V3.65146C3.5 3.56413 3.55172 3.5423 3.65517 3.58597L3.62069 3.53684L3.65517 3.50409L3.58621 3.40585H3.53448C3.53448 3.44951 3.52299 3.48226 3.5 3.50409C3.47701 3.50409 3.45977 3.51501 3.44828 3.53684C3.43678 3.54776 3.44253 3.57505 3.46552 3.61871V3.70058V3.73333L3.53448 3.70058ZM3.72414 4.22456V4.27368V4.30643V4.33918V4.3883V4.42105C3.72414 4.39922 3.73563 4.3883 3.75862 4.3883H3.77586C3.79885 4.41014 3.82759 4.42105 3.86207 4.42105L3.89655 4.4538V4.47018C3.87356 4.47018 3.86207 4.48109 3.86207 4.50292V4.53567L3.93103 4.56842V4.5848C3.90805 4.5848 3.89655 4.60663 3.89655 4.65029L3.93103 4.68304L4.01724 4.5848V4.76491V4.69942H4.10345H4.13793L4.10345 4.68304L4.13793 4.53567L3.98276 4.5848V4.56842C3.98276 4.54659 3.99425 4.53567 4.01724 4.53567V4.47018H4.05172V4.4538V4.42105C4.08621 4.39922 4.10345 4.37193 4.10345 4.33918L4.13793 4.30643H4.17241V4.29006C4.17241 4.29006 4.16092 4.2846 4.13793 4.27368V4.22456C4.13793 4.20273 4.12644 4.1809 4.10345 4.15906C4.10345 4.13723 4.09195 4.12632 4.06897 4.12632C4.05747 4.1154 4.05172 4.09903 4.05172 4.07719C4.05172 4.04444 4.02874 4.00624 3.98276 3.96257H3.93103V4.04444L3.74138 3.84795L3.81034 3.8807H3.89655H3.98276H4V3.89708C4 3.90799 4.00575 3.91891 4.01724 3.92982H4.05172H4.01724L4.05172 3.8807C4.05172 3.85887 4.01149 3.84795 3.93103 3.84795C3.90805 3.82612 3.89655 3.79883 3.89655 3.76608C3.89655 3.74425 3.9023 3.73333 3.91379 3.73333C3.92529 3.73333 3.93103 3.72242 3.93103 3.70058H3.98276C3.92529 3.70058 3.89655 3.68421 3.89655 3.65146C3.89655 3.64055 3.8908 3.62963 3.87931 3.61871H3.86207C3.83908 3.61871 3.82184 3.61326 3.81034 3.60234C3.81034 3.59142 3.79885 3.58597 3.77586 3.58597V3.61871H3.75862C3.74713 3.61871 3.74138 3.62963 3.74138 3.65146V3.70058H3.72414V3.65146V3.70058C3.72414 3.72242 3.70115 3.74425 3.65517 3.76608L3.72414 3.8807H3.65517C3.63218 3.8807 3.62069 3.89708 3.62069 3.92982L3.58621 3.96257C3.57471 3.96257 3.56322 3.95712 3.55172 3.9462H3.53448V3.96257C3.53448 3.97349 3.52874 3.98441 3.51724 3.99532H3.5L3.58621 4.07719H3.53448C3.51149 4.09903 3.5 4.12632 3.5 4.15906V4.19181V4.22456H3.72414ZM3.62069 5.79649L3.58621 5.73099V5.79649H3.62069ZM3.65517 7.09006C3.63218 7.09006 3.62069 7.10098 3.62069 7.12281H3.65517V7.09006ZM3.65517 6.6807L3.72414 6.64795L3.65517 6.6807L3.62069 6.64795V6.6807H3.65517ZM3.74138 7.3193C3.72989 7.3193 3.72414 7.30838 3.72414 7.28655V7.2538V7.35205L3.74138 7.3193ZM3.77586 7.36842L3.72414 7.35205V7.36842V7.3848C3.72414 7.39571 3.72414 7.40117 3.72414 7.40117C3.73563 7.40117 3.74138 7.41209 3.74138 7.43392L3.77586 7.36842ZM3.74138 6.7462V6.76257V6.7462ZM3.81034 5.14152V5.10877C3.78736 5.05419 3.75862 5.0269 3.72414 5.0269H3.65517C3.62069 5.0269 3.58046 5.05419 3.53448 5.10877C3.53448 5.14152 3.55172 5.17973 3.58621 5.22339H3.62069V5.25614V5.22339H3.65517H3.72414C3.72414 5.19064 3.72414 5.17427 3.72414 5.17427C3.73563 5.16335 3.75287 5.15244 3.77586 5.14152H3.81034ZM3.81034 5.27251H3.86207V5.33801L3.81034 5.37076C3.81034 5.39259 3.81609 5.40897 3.82759 5.41988L3.86207 5.45263C3.88506 5.47446 3.90805 5.48538 3.93103 5.48538C3.93103 5.4963 3.94828 5.50175 3.98276 5.50175H4.05172C4.08621 5.50175 4.10345 5.51267 4.10345 5.5345V5.56725V5.50175C4.04598 5.50175 4.04598 5.48538 4.10345 5.45263H4.13793L4.17241 5.38713C4.18391 5.38713 4.20115 5.39805 4.22414 5.41988L4.25862 5.45263H4.2931C4.27011 5.40897 4.25862 5.37076 4.25862 5.33801C4.23563 5.33801 4.21839 5.3271 4.2069 5.30526C4.2069 5.28343 4.2069 5.26706 4.2069 5.25614C4.2069 5.23431 4.21264 5.22339 4.22414 5.22339C4.24713 5.21248 4.27011 5.19064 4.2931 5.15789V5.14152C4.27011 5.14152 4.24138 5.1306 4.2069 5.10877C4.1954 5.09786 4.17816 5.0924 4.15517 5.0924L4.13793 5.10877C4.11494 5.1306 4.07471 5.14152 4.01724 5.14152L3.98276 5.10877V5.04327L3.93103 5.0269V5.14152L3.89655 5.15789C3.87356 5.15789 3.85632 5.16881 3.84483 5.19064C3.84483 5.21248 3.83333 5.22339 3.81034 5.22339V5.25614V5.27251ZM3.98276 7.3193L4.01724 7.2538C3.99425 7.29747 3.98276 7.30838 3.98276 7.28655V7.2538L3.93103 7.3193V7.33567C3.93103 7.34659 3.94828 7.35205 3.98276 7.35205V7.3193ZM3.98276 7.58129C3.98276 7.57037 3.97126 7.56491 3.94828 7.56491C3.93678 7.56491 3.93103 7.57037 3.93103 7.58129H3.98276ZM3.81034 6.86082C3.84483 6.81715 3.86207 6.78441 3.86207 6.76257L3.82759 6.79532C3.81609 6.80624 3.81034 6.82807 3.81034 6.86082ZM3.81034 9.43158V9.41521V9.43158ZM3.81034 7.09006V7.02456V7.09006ZM3.86207 6.89357H3.84483C3.83333 6.89357 3.82184 6.88811 3.81034 6.87719V6.90994L3.86207 6.97544V6.90994V6.89357ZM3.89655 8.26901H3.86207H3.89655ZM4.01724 8.03977V7.97427V8.03977C3.95977 8.03977 3.91954 8.04522 3.89655 8.05614V8.08889C3.87356 8.08889 3.86207 8.11072 3.86207 8.15439L3.89655 8.20351C3.89655 8.18168 3.9023 8.17076 3.91379 8.17076H3.93103C3.98851 8.14893 4.01724 8.11072 4.01724 8.05614V8.03977ZM4.37931 7.59766H4.41379H4.37931ZM4.44828 8.08889H4.5H4.44828ZM6.13793 8.20351H6.18966H6.13793ZM6.25862 8.26901H6.31035H6.25862ZM6.25862 8.18713C6.25862 8.19805 6.27586 8.20351 6.31035 8.20351V8.18713H6.2931C6.28161 8.18713 6.27012 8.18168 6.25862 8.17076V8.18713ZM6.63793 8.72749L6.39655 8.54737V8.61287C6.44253 8.61287 6.46552 8.61832 6.46552 8.62924C6.48851 8.65107 6.51149 8.6729 6.53448 8.69474C6.56897 8.71657 6.5977 8.72749 6.62069 8.72749H6.63793ZM6.74138 8.61287V8.54737H6.7069V8.61287H6.74138ZM6.98276 8.8421L6.91379 8.72749H6.87931C6.87931 8.76023 6.8908 8.77661 6.91379 8.77661L6.98276 8.8421ZM6.91379 8.28538V8.31813V8.28538ZM7.12069 8.51462V8.43275C7.07471 8.43275 7.04023 8.43821 7.01724 8.44912C6.99425 8.44912 6.95977 8.4655 6.91379 8.49825H6.98276C6.98276 8.50916 7 8.51462 7.03448 8.51462H7.10345H7.12069ZM7.27586 8.54737V8.51462V8.49825V8.54737ZM7.36207 7.77778V7.71228V7.77778ZM7.55172 6.64795V6.63158V6.56608C7.48276 6.52242 7.48276 6.46784 7.55172 6.40234L7.62069 6.41871C7.62069 6.44055 7.62644 6.45146 7.63793 6.45146C7.66092 6.45146 7.67816 6.446 7.68966 6.43509C7.71264 6.42417 7.73563 6.41871 7.75862 6.41871H7.7931L7.82759 6.30409L7.87931 6.33684C7.87931 6.31501 7.8908 6.30409 7.91379 6.30409C7.93678 6.29318 7.94828 6.2768 7.94828 6.25497C7.94828 6.23314 7.94828 6.21131 7.94828 6.18947V6.1731H8V6.07485H8.03448V6.05848C8.05747 6.05848 8.05747 6.04756 8.03448 6.02573C8.01149 6.02573 7.98851 6.01481 7.96552 5.99298C7.95402 5.97115 7.94828 5.95478 7.94828 5.94386C7.92529 5.92203 7.91379 5.9002 7.91379 5.87836C7.91379 5.85653 7.92529 5.84016 7.94828 5.82924L7.91379 5.79649V5.73099H7.87931C7.84483 5.72008 7.82759 5.7037 7.82759 5.68187C7.78161 5.63821 7.75862 5.57817 7.75862 5.50175C7.75862 5.49084 7.74138 5.48538 7.7069 5.48538C7.68391 5.46355 7.67241 5.4308 7.67241 5.38713L7.63793 5.37076V5.33801C7.62644 5.29435 7.62069 5.23431 7.62069 5.15789H7.5L7.55172 5.10877V5.04327C7.52874 5.03236 7.51149 5.0269 7.5 5.0269C7.5 5.01598 7.5 4.98324 7.5 4.92866V4.91228C7.46552 4.89045 7.43678 4.87953 7.41379 4.87953C7.4023 4.86862 7.38506 4.84678 7.36207 4.81403C7.36207 4.80312 7.35057 4.79766 7.32759 4.79766C7.31609 4.79766 7.31035 4.78675 7.31035 4.76491L7.36207 4.69942L7.31035 4.68304H7.36207C7.32759 4.66121 7.31035 4.623 7.31035 4.56842V4.53567C7.28736 4.53567 7.26437 4.51384 7.24138 4.47018C7.24138 4.45926 7.22989 4.4538 7.2069 4.4538C7.1954 4.4538 7.17816 4.44289 7.15517 4.42105C7.12069 4.42105 7.10345 4.38285 7.10345 4.30643V4.27368C7.10345 4.19727 7.1092 4.14269 7.12069 4.10994C7.14368 4.06628 7.18391 4.04444 7.24138 4.04444C7.2069 4.0117 7.18966 3.97349 7.18966 3.92982C7.22414 3.89708 7.24138 3.85887 7.24138 3.81521C7.26437 3.78246 7.27586 3.74425 7.27586 3.70058V3.65146V3.61871C7.27586 3.5423 7.3046 3.49318 7.36207 3.47134C7.36207 3.44951 7.36782 3.43314 7.37931 3.42222L7.39655 3.40585H7.43103L7.5 3.38947C7.5 3.36764 7.50575 3.33489 7.51724 3.29123L7.55172 3.27485C7.55172 3.25302 7.55172 3.23119 7.55172 3.20936C7.56322 3.18752 7.59195 3.17115 7.63793 3.16023V3.12749V3.01287H7.62069H7.55172L7.51724 3.04561V2.94737L7.5 3.01287V2.94737C7.46552 2.93645 7.44253 2.93099 7.43103 2.93099C7.43103 2.92008 7.43103 2.88733 7.43103 2.83275C7.40805 2.83275 7.38506 2.85458 7.36207 2.89825C7.3046 2.89825 7.26437 2.87096 7.24138 2.81637V2.78363V2.66901L7.27586 2.70175L7.31035 2.71813L7.36207 2.78363C7.38506 2.78363 7.40805 2.76179 7.43103 2.71813L7.39655 2.70175H7.36207C7.32759 2.67992 7.31035 2.65809 7.31035 2.63626V2.58714L7.27586 2.55439V2.52164C7.25287 2.48889 7.22414 2.47251 7.18966 2.47251L7.15517 2.3579H7.12069L7.10345 2.24328H7.03448L7 2.3579L6.98276 2.32515C6.98276 2.30331 6.97126 2.2924 6.94828 2.2924C6.92529 2.28148 6.91379 2.26511 6.91379 2.24328H6.87931C6.86782 2.27602 6.82184 2.2924 6.74138 2.2924C6.71839 2.2924 6.6954 2.29786 6.67241 2.30877C6.64943 2.31969 6.63218 2.31423 6.62069 2.2924L6.58621 2.3579L6.51724 2.2924L6.5 2.32515H6.46552C6.40805 2.34698 6.36782 2.34698 6.34483 2.32515H6.31035L6.34483 2.3579H6.31035C6.27586 2.39064 6.25287 2.40702 6.24138 2.40702H6.22414C6.16667 2.40702 6.13793 2.41793 6.13793 2.43977H6.10345H6.01724C5.98276 2.4616 5.95977 2.47251 5.94828 2.47251C5.93678 2.4616 5.90805 2.43977 5.86207 2.40702C5.83908 2.37427 5.79885 2.3579 5.74138 2.3579H5.7931V2.40702C5.75862 2.45068 5.71839 2.47251 5.67241 2.47251L5.7069 2.52164H5.67241H5.62069C5.5977 2.54347 5.55747 2.55439 5.5 2.55439H5.46552H5.41379C5.41379 2.57622 5.4023 2.59805 5.37931 2.61988C5.35632 2.6308 5.33333 2.63626 5.31035 2.63626C5.29885 2.65809 5.28161 2.66901 5.25862 2.66901C5.23563 2.66901 5.21264 2.65809 5.18966 2.63626L5.17241 2.66901C5.16092 2.67992 5.14943 2.68538 5.13793 2.68538C5.10345 2.68538 5.08046 2.67992 5.06897 2.66901V2.70175H5.05172H5.01724H4.94828H4.93103C4.90805 2.71267 4.85632 2.71813 4.77586 2.71813C4.77586 2.77271 4.76437 2.80546 4.74138 2.81637C4.71839 2.81637 4.70115 2.82183 4.68966 2.83275C4.66667 2.83275 4.64368 2.84912 4.62069 2.88187C4.5977 2.9037 4.58621 2.92554 4.58621 2.94737V3.01287L4.65517 3.04561H4.58621C4.57471 3.04561 4.56897 3.05107 4.56897 3.06199C4.54598 3.06199 4.53448 3.0729 4.53448 3.09474C4.53448 3.11657 4.52299 3.12749 4.5 3.12749C4.46552 3.14932 4.44828 3.16569 4.44828 3.17661L4.37931 3.27485H4.32759C4.32759 3.32944 4.31609 3.36764 4.2931 3.38947L4.37931 3.47134L4.2931 3.61871V3.73333L4.37931 3.76608V3.81521H4.32759V3.84795C4.3046 3.84795 4.2931 3.85887 4.2931 3.8807C4.3046 3.8807 4.31035 3.89708 4.31035 3.92982C4.31035 3.94074 4.3046 3.95166 4.2931 3.96257V4.07719V4.10994V4.30643C4.2931 4.3501 4.29885 4.38285 4.31035 4.40468C4.32184 4.41559 4.32759 4.43197 4.32759 4.4538C4.35057 4.46472 4.36207 4.48109 4.36207 4.50292C4.36207 4.52476 4.35057 4.54659 4.32759 4.56842V4.65029V4.68304C4.35057 4.68304 4.36207 4.6885 4.36207 4.69942C4.36207 4.69942 4.35057 4.69942 4.32759 4.69942L4.41379 4.81403V4.87953C4.42529 4.87953 4.43678 4.88499 4.44828 4.89591V4.91228C4.44828 4.9232 4.44828 4.93957 4.44828 4.9614C4.45977 4.98324 4.47701 5.00507 4.5 5.0269C4.53448 5.07057 4.55172 5.10331 4.55172 5.12515C4.56322 5.14698 4.56897 5.17973 4.56897 5.22339L4.5 5.27251C4.47701 5.27251 4.45977 5.28343 4.44828 5.30526C4.44828 5.3271 4.44828 5.34893 4.44828 5.37076V5.38713V5.45263C4.44828 5.47446 4.44253 5.48538 4.43104 5.48538C4.41954 5.48538 4.41379 5.49084 4.41379 5.50175C4.41379 5.56725 4.38506 5.6 4.32759 5.6C4.24713 5.6 4.2069 5.63821 4.2069 5.71462L4.17241 5.73099C4.17241 5.73099 4.16092 5.72554 4.13793 5.71462H4.10345C4.08046 5.72554 4.05747 5.73645 4.03448 5.74737C4.02299 5.74737 4.01724 5.76374 4.01724 5.79649L3.98276 5.82924C3.98276 5.86199 4.00575 5.9002 4.05172 5.94386H4.13793L4.15517 5.96023C4.15517 5.97115 4.15517 5.98207 4.15517 5.99298C4.16667 5.99298 4.17241 6.0039 4.17241 6.02573H4.2069L4.17241 6.05848L4.13793 6.07485H4.05172V6.14035H4.10345L4.13793 6.1731L4.10345 6.18947L4.05172 6.22222C4.02874 6.26589 4.01724 6.30409 4.01724 6.33684C4.01724 6.38051 4.02874 6.40234 4.05172 6.40234V6.51696V6.53333C4.06322 6.53333 4.07471 6.53879 4.08621 6.54971C4.0977 6.54971 4.1092 6.54971 4.12069 6.54971L4.13793 6.56608L4.17241 6.63158L4.13793 6.6807C4.13793 6.71345 4.13218 6.7462 4.12069 6.77895C4.1092 6.80078 4.10345 6.82807 4.10345 6.86082V6.87719V6.90994C4.10345 6.94269 4.1092 6.97544 4.12069 7.00819C4.13218 7.03002 4.14943 7.05731 4.17241 7.09006C4.17241 7.10098 4.21264 7.13918 4.2931 7.20468C4.2931 7.22651 4.28161 7.24289 4.25862 7.2538V7.3193V7.35205C4.21264 7.35205 4.21264 7.37934 4.25862 7.43392V7.46667V7.48304C4.23563 7.48304 4.22414 7.49396 4.22414 7.51579C4.22414 7.53762 4.23563 7.54854 4.25862 7.54854V7.58129V7.59766L4.2069 7.58129L4.17241 7.66316L4.2069 7.59766H4.25862V7.63041C4.25862 7.65224 4.27011 7.66316 4.2931 7.66316L4.25862 7.58129L4.2931 7.54854C4.2931 7.52671 4.29885 7.51033 4.31035 7.49941L4.32759 7.48304H4.34483H4.37931H4.41379C4.47126 7.48304 4.51149 7.50487 4.53448 7.54854H4.56897V7.48304L4.58621 7.54854V7.58129H4.65517C4.68966 7.58129 4.7069 7.58674 4.7069 7.59766V7.66316C4.6954 7.66316 4.68966 7.66862 4.68966 7.67953C4.68966 7.69045 4.67816 7.69591 4.65517 7.69591C4.62069 7.70682 4.6092 7.71774 4.62069 7.72865C4.64368 7.72865 4.65517 7.74503 4.65517 7.77778C4.65517 7.79961 4.66092 7.81053 4.67241 7.81053H4.7069H4.74138C4.76437 7.81053 4.77586 7.79961 4.77586 7.77778V7.69591L4.82759 7.58129V7.66316C4.82759 7.69591 4.85057 7.71228 4.89655 7.71228V7.77778C4.97701 7.77778 5.01724 7.81598 5.01724 7.8924C5.04023 7.84873 5.06897 7.8269 5.10345 7.8269H5.17241L5.22414 7.8924H5.2931C5.3046 7.92515 5.32184 7.93606 5.34483 7.92515H5.41379C5.41379 7.92515 5.41954 7.91969 5.43103 7.90877V7.8924H5.46552L5.55172 7.92515H5.58621C5.62069 7.8924 5.67241 7.8924 5.74138 7.92515L5.7931 7.94152L5.67241 7.97427V8.03977H5.74138V7.97427V7.94152L5.94828 8.03977V8.08889L6.01724 8.15439L6.10345 8.05614H6.13793C6.1954 8.05614 6.23563 8.06706 6.25862 8.08889H6.31035C6.33333 8.12164 6.35057 8.14347 6.36207 8.15439C6.37356 8.1653 6.38506 8.18168 6.39655 8.20351H6.46552C6.5 8.26901 6.51724 8.30721 6.51724 8.31813H6.63793L6.7069 8.4L6.75862 8.38363C6.78161 8.38363 6.7931 8.37271 6.7931 8.35088C6.8046 8.32905 6.83333 8.30721 6.87931 8.28538C6.86782 8.28538 6.86207 8.28538 6.86207 8.28538C6.86207 8.27446 6.86782 8.26901 6.87931 8.26901L7 8.20351L7.03448 8.26901C7.06897 8.23626 7.08621 8.21988 7.08621 8.21988C7.08621 8.20897 7.06897 8.19259 7.03448 8.17076H7.06897C7.09195 8.17076 7.10345 8.1653 7.10345 8.15439H7.12069V8.17076H7.15517V8.15439L7.18966 8.08889H7.24138C7.24138 8.05614 7.25287 8.03977 7.27586 8.03977H7.31035L7.27586 7.97427L7.12069 8.03977H7.15517V7.97427V7.92515C7.15517 7.90331 7.15517 7.88148 7.15517 7.85965C7.15517 7.8269 7.16667 7.79961 7.18966 7.77778V7.66316C7.21264 7.66316 7.22414 7.66862 7.22414 7.67953C7.23563 7.69045 7.25287 7.69591 7.27586 7.69591V7.66316V7.63041C7.27586 7.61949 7.28736 7.60312 7.31035 7.58129V7.54854H7.27586H7.24138H7.18966V7.48304L7.15517 7.46667V7.36842H7.18966L7.12069 7.3193V7.2538C7.12069 7.2538 7.12644 7.24834 7.13793 7.23743H7.15517V7.20468V7.13918H7.17241C7.17241 7.13918 7.17816 7.13372 7.18966 7.12281C7.22414 7.12281 7.24138 7.11189 7.24138 7.09006V7.02456C7.32184 7.02456 7.36207 7.00819 7.36207 6.97544C7.36207 6.92086 7.36782 6.88811 7.37931 6.87719C7.3908 6.86628 7.39655 6.83899 7.39655 6.79532H7.43103H7.5L7.51724 6.76257C7.54023 6.76257 7.54598 6.75711 7.53448 6.7462C7.52299 6.73528 7.51724 6.71345 7.51724 6.6807C7.51724 6.65887 7.52874 6.64795 7.55172 6.64795ZM7.24138 7.23743V7.2538H7.31035V7.23743H7.24138ZM7.27586 7.77778V7.71228V7.77778ZM7.39655 4.42105C7.39655 4.41014 7.3908 4.39922 7.37931 4.3883H7.36207V4.33918H7.27586L7.39655 4.42105ZM9.44828 8.08889V8.05614V8.07251C9.44828 8.08343 9.45977 8.08889 9.48276 8.08889H9.44828ZM9.56896 8.20351L9.60345 8.26901V8.20351H9.56896ZM9.60345 8.03977C9.62644 8.03977 9.63793 8.02885 9.63793 8.00702V7.97427H9.60345L9.44828 7.94152L9.60345 8.03977ZM9.72414 8.17076L9.7069 8.15439H9.68966C9.67816 8.15439 9.66667 8.15984 9.65517 8.17076H9.63793V8.20351V8.17076H9.68966H9.72414ZM10.2069 8.28538H10.2414V8.26901H10.2069H10.1552L10.2069 8.28538ZM10.4138 9.69357H10.4828H10.4138ZM10.4828 9.89006L10.4138 9.80819V9.84094C10.4138 9.87368 10.4368 9.90098 10.4828 9.92281V9.89006ZM12.8448 10.3813L12.8103 10.3485L12.7241 10.3813H12.8448ZM13.7414 10.4959H13.7069V10.4632V10.414L13.6552 10.4632H13.7069V10.4959H13.7414ZM14.0517 10.7251H14.0172H14.0517ZM14.3793 10.938V10.9544V10.938ZM14.8103 10.152V10.1193H14.7759L14.8103 10.152ZM15.2241 9.57895V9.5462H15.1897L15.2241 9.57895ZM15.2241 9.80819C15.2241 9.78635 15.2471 9.77544 15.2931 9.77544H15.1897L15.2241 9.80819ZM15.8621 9.77544V9.72632C15.8391 9.72632 15.8276 9.74269 15.8276 9.77544H15.8621Z" fill="black"/>
</svg>
