<svg width="3" height="15" viewBox="0 0 3 15" fill="none" xmlns="http://www.w3.org/2000/svg">
<path d="M2.95408 3.70412V3.75417V3.80423V3.88765V3.95439H2.90816V4.00445L2.87755 4.0545L2.90816 4.10456L2.84694 4.13793C2.84694 4.1713 2.83673 4.18799 2.81633 4.18799C2.81633 4.19911 2.78571 4.23804 2.72449 4.30478H2.67857C2.67857 4.33815 2.65306 4.35484 2.60204 4.35484C2.60204 4.38821 2.59184 4.40489 2.57143 4.40489H2.55612H2.54082V4.43826V4.48832L2.4949 4.55506L2.44898 4.60512L2.40306 4.65517V4.70523L2.37245 4.78865H2.28061H2.23469H2.17347V4.70523C2.14286 4.67186 2.12755 4.63849 2.12755 4.60512C2.12755 4.57175 2.14286 4.55506 2.17347 4.55506V4.53838H2.12755L2.17347 4.43826V4.40489V4.35484L2.21939 4.30478H2.23469C2.23469 4.27141 2.2398 4.25473 2.25 4.25473H2.28061C2.28061 4.23248 2.28571 4.2158 2.29592 4.20467C2.30612 4.19355 2.31633 4.18799 2.32653 4.18799C2.32653 4.15462 2.34184 4.13793 2.37245 4.13793C2.37245 4.11568 2.39796 4.10456 2.44898 4.10456H2.4949H2.54082L2.4949 4.0545L2.54082 4.00445H2.55612V3.92102V3.88765L2.4949 3.80423H2.54082H2.4949L2.55612 3.75417V3.70412H2.54082V3.62069V3.58732C2.54082 3.5762 2.54592 3.56507 2.55612 3.55395V3.50389C2.54592 3.47052 2.54082 3.43715 2.54082 3.40378V3.37041L2.4949 3.40378V3.2703H2.32653L2.40306 3.20356L2.44898 3.1535L2.28061 3.22024L2.32653 3.1535H2.09694L2.37245 2.96997L2.28061 2.88654L2.32653 2.85317V2.80311V2.76974V2.66963H2.28061V2.58621V2.50278H2.32653L2.28061 2.46941V2.41936H2.23469V2.3693L2.21939 2.46941L2.17347 2.28587H2.12755C2.12755 2.26363 2.12245 2.2525 2.11224 2.2525C2.10204 2.24138 2.09694 2.23026 2.09694 2.21913C2.06633 2.21913 2.05102 2.20245 2.05102 2.16908C1.9898 2.16908 1.95918 2.13571 1.95918 2.06897C1.94898 2.04672 1.93367 2.02447 1.91327 2.00223C1.90306 1.97998 1.89796 1.95773 1.89796 1.93548L1.85204 1.88543H1.82143V1.86874L1.77551 1.81869V1.76863H1.72959V1.73526C1.69898 1.73526 1.68367 1.71858 1.68367 1.68521V1.73526V1.76863C1.68367 1.79088 1.67857 1.81313 1.66837 1.83537C1.65816 1.85762 1.65306 1.87431 1.65306 1.88543L1.68367 1.93548L1.65306 1.98554V2.11902V2.16908C1.65306 2.1802 1.64796 2.19132 1.63776 2.20245C1.61735 2.22469 1.60204 2.23582 1.59184 2.23582L1.54592 2.28587V2.31924L1.5 2.3693V2.41936V2.46941C1.53061 2.50278 1.54592 2.51947 1.54592 2.51947V2.55284C1.54592 2.57508 1.55102 2.59177 1.56122 2.60289C1.57143 2.61402 1.58163 2.61958 1.59184 2.61958V2.66963L1.56122 2.703C1.55102 2.71413 1.54592 2.73637 1.54592 2.76974V2.80311V2.85317H1.62245L1.45408 2.96997C1.45408 3.00334 1.42857 3.02002 1.37755 3.02002C1.34694 3.05339 1.33163 3.07008 1.33163 3.07008H1.31633H1.27041V3.10345C1.25 3.10345 1.22959 3.11457 1.20918 3.13682C1.19898 3.14794 1.18878 3.1535 1.17857 3.1535C1.15816 3.198 1.14796 3.21468 1.14796 3.20356V3.22024V3.32036H1.17857L1.22449 3.40378L1.27041 3.45384H1.22449V3.55395L1.31633 3.40378V3.65406L1.45408 3.70412L1.37755 3.80423V3.88765V3.92102H1.39286C1.39286 3.92102 1.39796 3.93215 1.40816 3.95439V4.00445V4.0545L1.45408 4.22136V4.25473H1.5L1.59184 4.35484V4.40489L1.65306 4.35484V4.43826V4.48832L1.72959 4.53838L1.68367 4.55506V4.60512L1.65306 4.65517C1.67347 4.65517 1.68367 4.6663 1.68367 4.68854V4.70523V4.72191C1.68367 4.73304 1.69898 4.7386 1.72959 4.7386L1.77551 4.78865L1.85204 4.83871L1.82143 4.90545L1.85204 4.95551H1.82143L1.89796 5.00556L1.77551 5.13904V5.20578V5.25584C1.80612 5.27809 1.82143 5.3059 1.82143 5.33927V5.38932C1.84184 5.38932 1.85204 5.40044 1.85204 5.42269V5.43938V5.48943L1.94388 5.5228L1.89796 5.55617L1.94388 5.58954V5.6396L2.05102 5.77308H1.95918C1.9898 5.80645 2.0051 5.83982 2.0051 5.87319C2.03571 5.90656 2.05102 5.91769 2.05102 5.90656V5.93993V5.98999V6.04004L2.09694 6.07341V6.12347H2.12755V6.17353H2.21939L2.17347 6.24027L2.23469 6.37375V6.4238H2.28061L2.32653 6.47386L2.37245 6.52392L2.44898 6.5406L2.54082 6.64071C2.56122 6.67408 2.56122 6.71858 2.54082 6.77419L2.4949 6.97442V7.12458V7.15795H2.54082V7.20801C2.58163 7.20801 2.60204 7.21357 2.60204 7.22469H2.64796L2.67857 7.32481L2.64796 7.40823C2.64796 7.4416 2.61735 7.45829 2.55612 7.45829V7.50834L2.44898 7.57508C2.44898 7.60845 2.43367 7.64182 2.40306 7.67519V7.75862H2.37245H2.40306L2.37245 7.80868V7.85873L2.44898 7.87542L2.37245 7.97553C2.37245 8.03115 2.35714 8.07564 2.32653 8.10901H2.44898L2.32653 8.22581L2.44898 8.19244L2.28061 8.4594C2.28061 8.48165 2.28571 8.49277 2.29592 8.49277H2.32653C2.32653 8.51502 2.33163 8.52614 2.34184 8.52614C2.36224 8.52614 2.37245 8.53726 2.37245 8.55951V8.60957C2.39286 8.64294 2.41837 8.67631 2.44898 8.70968H2.4949V8.75973V8.84316L2.44898 8.9099C2.44898 8.93215 2.45408 8.95439 2.46429 8.97664C2.47449 8.99889 2.46939 9.02113 2.44898 9.04338V9.09344C2.42857 9.09344 2.41327 9.10456 2.40306 9.12681C2.40306 9.14905 2.39286 9.1713 2.37245 9.19355V9.21023C2.39286 9.25473 2.40306 9.27697 2.40306 9.27697V9.31034V9.34372C2.40306 9.36596 2.40816 9.38265 2.41837 9.39377C2.43878 9.40489 2.44898 9.42158 2.44898 9.44383L2.4949 9.51057H2.54082V9.64405V9.6941V9.79422C2.54082 9.80534 2.54082 9.81646 2.54082 9.82759C2.55102 9.82759 2.55612 9.83315 2.55612 9.84427V9.86096V9.91101V9.94438L2.54082 9.99444L2.55612 10.0445L2.4949 10.0945V10.178V10.1947V10.2948V10.3448V10.3949V10.4283H2.44898V10.5284L2.54082 10.545L2.44898 10.5951L2.40306 10.6452C2.38265 10.6452 2.37245 10.6563 2.37245 10.6785L2.32653 10.7286V10.9455L2.21939 10.7786H2.17347L2.05102 10.5951V10.6452L2.0051 10.6785V10.7286L2.12755 10.8954H2.09694C2.09694 10.9177 2.10204 10.9344 2.11224 10.9455C2.12245 10.9455 2.11735 10.9566 2.09694 10.9789V11.0289V11.129C2.10714 11.129 2.11735 11.1346 2.12755 11.1457V11.1624V11.1958C2.12755 11.2069 2.13265 11.218 2.14286 11.2291C2.16327 11.2514 2.17347 11.2681 2.17347 11.2792C2.17347 11.3793 2.15816 11.4405 2.12755 11.4627V11.4961C2.12755 11.5072 2.11735 11.5128 2.09694 11.5128L2.12755 11.5795H2.05102V11.6796V11.7297L2.0051 11.7631V11.8131V11.8298V11.8799L2.09694 12.1135L2.05102 12.0634V12.1635H2.12755L2.09694 12.2303H2.05102V12.2803L2.09694 12.3637L2.05102 12.4972H2.0051C2.05612 12.5417 2.05612 12.5806 2.0051 12.614V12.7141V12.7642H2.05102V12.7976L2.12755 12.881L2.17347 12.9143C2.17347 12.9366 2.17857 12.9588 2.18878 12.9811C2.20918 13.0145 2.21939 13.0423 2.21939 13.0645L2.28061 13.0979L2.21939 13.1813C2.21939 13.2036 2.20408 13.2314 2.17347 13.2647H2.23469V13.3148C2.29592 13.3815 2.32653 13.426 2.32653 13.4483V13.4983L2.28061 13.515V13.5651C2.29082 13.5873 2.30102 13.5984 2.31122 13.5984C2.32143 13.6096 2.32653 13.6207 2.32653 13.6318V13.6652V13.7486V13.8487L2.37245 13.9155L2.40306 13.9488C2.46429 14.0156 2.46429 14.0489 2.40306 14.0489L2.44898 14.099V14.2158C2.44898 14.2269 2.43878 14.2436 2.41837 14.2659C2.40816 14.277 2.40306 14.2881 2.40306 14.2992C2.40306 14.3215 2.39796 14.3437 2.38775 14.366C2.37755 14.3882 2.37245 14.4105 2.37245 14.4327V14.5161C2.34184 14.5161 2.32653 14.5273 2.32653 14.5495V14.5996C2.32653 14.6218 2.31633 14.644 2.29592 14.6663C2.28571 14.6885 2.28061 14.7108 2.28061 14.733V14.7831V14.8331L2.23469 15L2.12755 14.8498C2.08673 14.8387 2.05612 14.8109 2.03571 14.7664C2.02551 14.733 2.03061 14.6941 2.05102 14.6496V14.5161V14.4327V14.3993L2.0051 14.4327L1.95918 14.2992V14.2158C1.95918 14.1824 1.96429 14.1657 1.97449 14.1657H2.0051V14.1324V14.0489L1.95918 13.9989V13.9488V13.9155C1.95918 13.8821 1.95408 13.8487 1.94388 13.8153C1.94388 13.7931 1.94388 13.7709 1.94388 13.7486C1.91327 13.7486 1.89796 13.7208 1.89796 13.6652H1.85204C1.83163 13.6318 1.82143 13.5984 1.82143 13.5651L1.72959 13.515L1.77551 13.4483V13.3648H1.79082C1.81122 13.3648 1.82143 13.3482 1.82143 13.3148H1.77551V13.2147V13.1813L1.72959 13.1479H1.68367L1.62245 13.1813V13.0145L1.59184 12.9644V12.9143V12.881L1.54592 12.8309L1.5 12.7976V12.7141H1.54592H1.5H1.45408L1.40816 12.614C1.38776 12.5918 1.36735 12.5695 1.34694 12.5473C1.33673 12.5362 1.33163 12.5195 1.33163 12.4972L1.31633 12.4138L1.22449 12.4638L1.31633 12.2803C1.28571 12.2803 1.27041 12.2469 1.27041 12.1802L1.17857 12.2303L1.14796 12.1135V12.0801C1.14796 12.0801 1.13265 12.0634 1.10204 12.03V11.98H1.05612L0.94898 11.7631L0.994898 11.8131V11.7631V11.7297H0.94898L0.872449 11.6296V11.5795V11.5462V11.5128H0.826531V11.3793V11.2458C0.826531 11.2236 0.816327 11.2069 0.795918 11.1958C0.785714 11.1735 0.780612 11.1513 0.780612 11.129V11.0289V11.0122C0.780612 10.99 0.765306 10.9789 0.734694 10.9789V10.9455V10.8954C0.72449 10.8509 0.704082 10.8287 0.673469 10.8287V10.7286H0.627551V10.6452C0.607143 10.6118 0.596939 10.5784 0.596939 10.545V10.5284L0.55102 10.4283C0.540816 10.4283 0.530612 10.4227 0.520408 10.4116C0.510204 10.4004 0.505102 10.3782 0.505102 10.3448V10.2447H0.459184L0.505102 10.1947C0.464286 10.139 0.464286 10.089 0.505102 10.0445H0.55102C0.530612 10.0222 0.510204 10.0056 0.489796 9.99444C0.469388 9.98331 0.459184 9.96663 0.459184 9.94438L0.397959 9.86096H0.428571C0.408163 9.83871 0.397959 9.82202 0.397959 9.8109V9.79422V9.74416L0.352041 9.6941V9.74416L0.27551 9.79422L0.229592 9.6941L0.153061 9.79422V9.64405V9.56062V9.51057L0 9.49388L0.107143 9.39377V9.34372L0.183673 9.26029V9.21023H0.27551V9.19355C0.27551 9.19355 0.290816 9.17686 0.321429 9.14349H0.27551L0.321429 9.09344V9.04338L0.290816 9.01001C0.280612 8.99889 0.27551 8.96552 0.27551 8.9099V8.85984V8.84316V8.65962C0.244898 8.65962 0.229592 8.64294 0.229592 8.60957L0.107143 8.52614L0.27551 8.4594H0.321429C0.372449 8.4594 0.408163 8.47052 0.428571 8.49277H0.55102V8.65962H0.596939C0.596939 8.68187 0.602041 8.69855 0.612245 8.70968C0.622449 8.7208 0.627551 8.74861 0.627551 8.7931V8.85984L0.673469 9.01001L0.734694 9.09344L0.780612 9.14349L0.826531 9.21023H0.719388H0.673469V9.26029V9.31034H0.719388V9.44383V9.49388C0.729592 9.49388 0.734694 9.49944 0.734694 9.51057V9.56062H0.780612V9.61068L1.0102 9.49388L0.872449 9.79422L0.903061 9.82759V9.86096H0.94898L1.05612 10.0945H0.994898V10.1279L1.0102 10.178L0.994898 10.2447V10.2948V10.3448V10.3949C1.01531 10.3949 1.05102 10.4227 1.10204 10.4783V10.5117C1.10204 10.5339 1.08673 10.545 1.05612 10.545V10.5951L1.10204 10.6452V10.6785L1.14796 10.7286C1.14796 10.7397 1.15306 10.7508 1.16327 10.762C1.16327 10.7731 1.16327 10.7842 1.16327 10.7953C1.17347 10.8065 1.17857 10.8176 1.17857 10.8287L1.22449 10.7786L1.17857 10.8454V10.8954L1.14796 11.0289L1.17857 11.079C1.17857 11.1123 1.19388 11.1402 1.22449 11.1624L1.31633 11.1958V11.2458H1.45408L1.33163 11.3793V11.4294L1.37755 11.4627V11.5462C1.39796 11.5462 1.40816 11.5573 1.40816 11.5795C1.43878 11.5795 1.45408 11.5962 1.45408 11.6296H1.5C1.5 11.663 1.51531 11.6796 1.54592 11.6796L1.59184 11.7297V11.7631C1.61225 11.7964 1.62245 11.8187 1.62245 11.8298V11.8799C1.62245 11.9132 1.62755 11.9299 1.63776 11.9299H1.65306V11.8799V11.8298L1.62245 11.7631H1.65306V11.7297V11.6796C1.65306 11.6685 1.65816 11.6574 1.66837 11.6463C1.66837 11.6351 1.66837 11.6296 1.66837 11.6296C1.67857 11.6185 1.68367 11.6018 1.68367 11.5795V11.3793L1.82143 11.4627V11.4294L1.85204 11.3793C1.85204 11.3459 1.86735 11.3293 1.89796 11.3293V11.2792C1.89796 11.257 1.88265 11.2458 1.85204 11.2458V11.1958L1.77551 11.2458L1.82143 11.1624H1.72959L1.77551 11.079V11.0289L1.72959 10.9455V10.8954H1.68367V10.8454V10.8287V10.7286V10.5951H1.65306L1.68367 10.5284V10.4783V10.4283L1.59184 10.3949L1.65306 10.3448L1.68367 10.2948V10.2447H1.62245L1.65306 10.1279V10.0945V10.0445L1.40816 9.99444L1.68367 9.86096C1.67347 9.86096 1.66837 9.85539 1.66837 9.84427C1.65816 9.83315 1.65306 9.81646 1.65306 9.79422L1.62245 9.6941L1.68367 9.64405C1.67347 9.63293 1.66837 9.61624 1.66837 9.59399C1.66837 9.58287 1.67347 9.57175 1.68367 9.56062C1.68367 9.52725 1.68878 9.51057 1.69898 9.51057H1.72959V9.49388V9.44383L1.77551 9.39377V9.31034L1.82143 9.26029V9.21023C1.82143 9.16574 1.83163 9.14349 1.85204 9.14349C1.83163 9.12125 1.82653 9.10456 1.83673 9.09344C1.84694 9.08231 1.85204 9.06563 1.85204 9.04338L1.94388 8.95996V8.9099L1.82143 8.84316L1.94388 8.7931L1.62245 8.60957H1.85204C1.82143 8.55395 1.82143 8.52614 1.85204 8.52614V8.49277V8.4594L1.82143 8.40934L1.85204 8.35929L1.82143 8.19244H1.85204L1.82143 8.15907L1.85204 8.10901V8.0089V7.99221C1.85204 7.99221 1.84184 7.98665 1.82143 7.97553V7.92547L1.72959 7.87542L1.82143 7.70856C1.79082 7.70856 1.77551 7.68076 1.77551 7.62514L1.72959 7.57508V7.52503L1.68367 7.45829L1.65306 7.40823L1.68367 7.20801L1.65306 7.15795L1.82143 7.07453V7.02447L1.85204 6.97442L1.89796 6.85762H1.85204H1.89796V6.82425L1.85204 6.85762V6.72414V6.67408H1.82143C1.82143 6.65184 1.80612 6.64071 1.77551 6.64071V6.52392V6.47386H1.72959C1.69898 6.44049 1.68367 6.40712 1.68367 6.37375H1.65306V6.29032V6.17353V6.12347L1.62245 6.07341L1.65306 6.04004H1.62245V5.98999C1.60204 5.98999 1.59184 5.98443 1.59184 5.9733V5.93993H1.56122C1.55102 5.93993 1.54592 5.92325 1.54592 5.88988L1.45408 5.82314H1.5L1.45408 5.77308L1.40816 5.73971V5.6396H1.37755V5.58954V5.55617L1.33163 5.5228V5.48943L1.05612 5.58954L1.31633 5.38932V5.33927H1.33163V5.20578C1.32143 5.19466 1.31633 5.15573 1.31633 5.08899L1.33163 5.03893V5.00556V4.95551V4.90545V4.83871H1.31633V4.78865C1.29592 4.78865 1.27551 4.77753 1.2551 4.75528C1.2449 4.73304 1.25 4.69967 1.27041 4.65517V4.55506H1.22449V4.53838L1.0102 4.35484L1.05612 4.30478V4.25473V4.22136L1.0102 4.18799H1.05612L1.0102 4.13793L1.05612 4.10456C1.05612 4.07119 1.07143 4.03782 1.10204 4.00445C1.07143 4.00445 1.05612 3.97664 1.05612 3.92102L0.872449 3.95439L0.994898 3.85428C0.964286 3.85428 0.94898 3.82091 0.94898 3.75417V3.65406C0.918367 3.64294 0.903061 3.62625 0.903061 3.604V3.57063L0.826531 3.45384L0.94898 3.40378H0.903061C0.903061 3.38154 0.897959 3.35929 0.887755 3.33704C0.877551 3.31479 0.882653 3.29255 0.903061 3.2703C0.882653 3.2703 0.872449 3.26474 0.872449 3.25362V3.22024V3.20356V3.10345H0.94898V3.07008C0.969388 3.01446 0.984694 2.96997 0.994898 2.9366C1.01531 2.90323 1.05102 2.87542 1.10204 2.85317L1.14796 2.80311L1.17857 2.76974H1.22449C1.22449 2.73637 1.22959 2.71413 1.2398 2.703L1.27041 2.66963C1.2398 2.63626 1.22449 2.59733 1.22449 2.55284V2.50278V2.46941C1.22449 2.43604 1.2398 2.40267 1.27041 2.3693L1.22449 2.41936H1.31633H1.27041L1.22449 2.31924V2.28587L1.31633 2.21913V2.11902C1.31633 2.05228 1.33673 2.01891 1.37755 2.01891H1.40816V1.98554H1.37755V1.93548C1.34694 1.90211 1.33163 1.8465 1.33163 1.76863L1.22449 1.51835L1.37755 1.58509V1.56841C1.37755 1.50167 1.38776 1.4683 1.40816 1.4683C1.40816 1.44605 1.41327 1.42937 1.42347 1.41824L1.45408 1.38487V1.33482V1.25139V1.23471H1.43878C1.42857 1.23471 1.41837 1.22914 1.40816 1.21802C1.40816 1.18465 1.39796 1.16797 1.37755 1.16797L1.31633 0.984427H1.33163H1.31633L1.33163 0.951057V0.901001V0.867631C1.32143 0.812014 1.31633 0.750835 1.31633 0.684093C1.29592 0.661847 1.28061 0.645162 1.27041 0.634039C1.2602 0.611791 1.2449 0.600668 1.22449 0.600668L1.17857 0.583983L0.826531 0.600668L1.14796 0.38376L1.0102 0.183538L1.10204 0.233594V0.183538V0.233594H1.14796L1.40816 0L1.37755 0.233594H1.40816C1.40816 0.244717 1.41327 0.25584 1.42347 0.266964C1.44388 0.266964 1.45408 0.278087 1.45408 0.300334C1.51531 0.367075 1.54592 0.411569 1.54592 0.433816H1.59184L1.65306 0.533927V0.600668V0.650724V0.684093L1.82143 0.483872L1.72959 0.83426V0.901001V0.951057L1.95918 1.08454L1.85204 1.13459L1.94388 1.16797H1.85204V1.21802V1.25139H1.89796L1.94388 1.33482V1.38487H1.95918V1.43493C2.0102 1.45718 2.03571 1.47942 2.03571 1.50167C2.04592 1.52392 2.05102 1.54616 2.05102 1.56841L2.09694 1.58509H2.05102C2.06122 1.60734 2.07143 1.62403 2.08163 1.63515C2.09184 1.63515 2.09694 1.64071 2.09694 1.65184V1.68521L2.12755 1.73526L2.17347 1.76863V1.802C2.17347 1.81313 2.18878 1.81869 2.21939 1.81869L2.23469 1.86874V1.88543H2.28061L2.32653 1.93548V1.98554H2.37245C2.34184 1.95217 2.32653 1.89655 2.32653 1.81869V1.63515C2.32653 1.60178 2.34184 1.57953 2.37245 1.56841L2.4949 1.38487L2.54082 1.58509L2.55612 1.63515L2.60204 1.68521C2.60204 1.71858 2.60714 1.73526 2.61735 1.73526H2.64796C2.65816 1.73526 2.66837 1.74082 2.67857 1.75195V1.76863L2.72449 1.81869V1.88543H2.67857L2.77041 1.93548L2.67857 1.98554V2.01891L2.95408 2.58621L2.72449 2.3693C2.77551 2.42492 2.77551 2.46941 2.72449 2.50278L2.67857 2.58621L2.72449 2.55284V2.66963H2.77041L2.72449 2.71969L2.77041 2.76974H2.84694L2.90816 2.71969L2.87755 2.85317L2.90816 2.88654L2.84694 2.91991L2.81633 2.96997H2.84694H2.95408L2.87755 3.02002L2.95408 3.10345H2.84694L2.87755 3.20356V3.2703V3.32036C2.89796 3.32036 2.90816 3.33148 2.90816 3.35373V3.37041V3.45384L2.95408 3.50389V3.62069L3 3.65406L2.95408 3.70412ZM2.09694 10.0445C2.09694 9.97775 2.10714 9.93326 2.12755 9.91101V9.89433C2.12755 9.87208 2.14286 9.86096 2.17347 9.86096V9.82759L2.12755 9.79422V9.74416H2.09694V9.6941H2.05102C2.08163 9.72747 2.09694 9.77197 2.09694 9.82759V9.86096L2.05102 9.91101V9.94438V9.99444L2.09694 10.0945V10.0445ZM2.0051 9.61068L2.05102 9.64405V9.61068H2.0051ZM2.12755 10.3448L2.09694 10.3949V10.5284L2.05102 10.4783V10.5284V10.5951H2.12755V10.545V10.4783L2.09694 10.4283L2.12755 10.3949V10.3448ZM2.17347 10.2447C2.14286 10.2447 2.12755 10.2392 2.12755 10.228V10.1947C2.11735 10.1947 2.11224 10.1891 2.11224 10.178C2.10204 10.1669 2.09694 10.1502 2.09694 10.1279H2.05102C2.05102 10.1613 2.03571 10.1835 2.0051 10.1947L2.12755 10.2447L2.09694 10.2948H2.17347V10.2447Z" fill="black"/>
</svg>
