<svg width="13" height="15" viewBox="0 0 13 15" fill="none" xmlns="http://www.w3.org/2000/svg">
<path d="M12.8454 1.05107L12.9485 1.14014L12.7939 1.24703L12.7767 1.30048V1.2114L12.7252 1.17577C12.6794 1.15202 12.6508 1.11639 12.6394 1.06888C12.6394 1.02138 12.6394 0.991686 12.6394 0.97981V0.926365V0.908551L12.605 0.819477C12.605 0.795725 12.5936 0.771972 12.5707 0.748218C12.5592 0.712589 12.5535 0.67696 12.5535 0.64133H12.4848H12.4676C12.4333 0.653207 12.4047 0.671022 12.3818 0.694775C12.3703 0.706651 12.3531 0.718528 12.3302 0.730404C12.3188 0.754157 12.2959 0.766033 12.2616 0.766033C12.2387 0.766033 12.2215 0.766033 12.21 0.766033V0.819477L12.1413 0.766033C12.1299 0.801663 12.1013 0.819477 12.0555 0.819477H11.9868C11.9868 0.84323 11.9753 0.855106 11.9524 0.855106H11.9181C11.9066 0.855106 11.8895 0.866983 11.8666 0.890737L11.8494 0.908551C11.8036 0.920427 11.7578 0.926365 11.712 0.926365C11.6662 0.926365 11.6262 0.926365 11.5918 0.926365V0.97981L11.4029 0.908551L11.2827 0.926365V0.908551C11.2598 0.872921 11.2255 0.855106 11.1797 0.855106C11.1224 0.831354 11.0652 0.819477 11.0079 0.819477C10.9621 0.819477 10.9221 0.819477 10.8877 0.819477H10.6301H10.5271C10.4469 0.819477 10.4011 0.801663 10.3897 0.766033H10.2867H10.1836C10.1607 0.766033 10.1264 0.766033 10.0806 0.766033C10.0462 0.766033 10.0062 0.754157 9.96037 0.730404C9.90313 0.730404 9.84016 0.730404 9.77147 0.730404C9.70277 0.730404 9.63981 0.724466 9.58256 0.712589L9.53104 0.730404H9.46235H9.41083C9.31924 0.730404 9.25055 0.706651 9.20475 0.659145H9.15324C9.11889 0.706651 9.0731 0.730404 9.01585 0.730404C8.99295 0.754157 8.96433 0.766033 8.92999 0.766033C8.89564 0.766033 8.87274 0.766033 8.86129 0.766033H8.80977C8.79833 0.813539 8.78688 0.849169 8.77543 0.872922C8.77543 0.896675 8.75826 0.914489 8.72391 0.926365L8.32893 1.3361L8.53501 0.766033H8.44914H8.36328C8.34038 0.766033 8.31176 0.77791 8.27741 0.801663C8.25451 0.813539 8.23162 0.819477 8.20872 0.819477H8.1572C8.14575 0.84323 8.11713 0.855106 8.07133 0.855106L8.01981 0.908551V0.855106C7.97402 0.855106 7.93967 0.84323 7.91678 0.819477C7.87098 0.84323 7.82519 0.855106 7.77939 0.855106C7.74505 0.855106 7.7107 0.855106 7.67635 0.855106C7.63056 0.855106 7.60194 0.84323 7.59049 0.819477L7.5218 0.855106H7.4531L7.36724 0.926365V0.855106L7.09247 0.908551H6.95509H6.86922H6.80053L6.78336 0.926365H6.66314H6.56011H6.49141H6.45707L6.35403 1.06888V1.17577C6.33113 1.2114 6.31396 1.24703 6.30251 1.28266C6.30251 1.30641 6.27961 1.34204 6.23382 1.38955C6.25672 1.42518 6.26244 1.44893 6.25099 1.46081C6.23954 1.47268 6.22809 1.4905 6.21664 1.51425V1.54988V1.60333V1.65677C6.1823 1.66865 6.16513 1.69834 6.16513 1.74584V1.8171L6.21664 1.88836L6.13078 1.95962C6.15368 1.98337 6.1594 2.00713 6.14795 2.03088C6.1365 2.04276 6.13078 2.06057 6.13078 2.08432C6.18802 2.08432 6.22237 2.06651 6.23382 2.03088H6.35403L6.45707 1.99525L6.69749 2.24466L6.45707 2.31591H6.35403C6.33113 2.33967 6.29106 2.35154 6.23382 2.35154C6.23382 2.36342 6.22809 2.36936 6.21664 2.36936C6.2052 2.38124 6.18802 2.38717 6.16513 2.38717H6.13078C6.08498 2.41093 6.06781 2.4228 6.07926 2.4228H6.06209C6.06209 2.45843 6.04491 2.47625 6.01057 2.47625V2.58313V2.63658V2.65439V2.72565C5.99912 2.74941 5.9934 2.7791 5.9934 2.81473V2.83254V3.06413C5.98195 3.06413 5.9705 3.07007 5.95905 3.08195C5.9476 3.09382 5.94188 3.11164 5.94188 3.13539V3.17102L6.13078 3.56294L5.94188 3.40261V3.45606C5.94188 3.46793 5.9476 3.48575 5.95905 3.5095C5.9705 3.53325 5.96477 3.55107 5.94188 3.56294V3.65202V3.68765V3.72328C5.99912 3.75891 5.99912 3.81829 5.94188 3.90143V3.95487C5.95332 3.96675 5.95905 3.97862 5.95905 3.9905C5.95905 4.01425 5.95332 4.03207 5.94188 4.04394C5.94188 4.0677 5.94188 4.09145 5.94188 4.1152C5.95332 4.12708 5.9705 4.15677 5.9934 4.20428V4.31116C5.9934 4.32304 5.98195 4.34086 5.95905 4.36461L5.94188 4.38242C5.95332 4.40618 5.95905 4.43587 5.95905 4.4715C5.95905 4.48337 5.95332 4.49525 5.94188 4.50713V4.56057V4.63183C5.98767 4.71496 5.98767 4.79216 5.94188 4.86342V4.98812C5.90753 5.02375 5.89036 5.07126 5.89036 5.13064C5.89036 5.16627 5.88463 5.19002 5.87318 5.2019C5.86173 5.21378 5.85601 5.23159 5.85601 5.25534V5.46912V5.48694V5.54038C5.83311 5.55226 5.82166 5.57601 5.82166 5.61164H5.85601V5.62945C5.85601 5.72447 5.84456 5.78385 5.82166 5.8076C5.82166 5.85511 5.80449 5.90261 5.77015 5.95012C5.77015 5.962 5.76442 5.97387 5.75297 5.98575C5.75297 5.99762 5.75297 6.01544 5.75297 6.03919C5.75297 6.07482 5.75297 6.11639 5.75297 6.1639C5.75297 6.2114 5.74725 6.25297 5.7358 6.2886V6.30641C5.7358 6.3658 5.7129 6.4133 5.66711 6.44893V6.52019V6.55582V6.57363C5.66711 6.58551 5.66138 6.59145 5.64993 6.59145V6.64489L5.66711 6.69834V6.73397L5.64993 6.78741C5.64993 6.79929 5.63849 6.82898 5.61559 6.87648C5.60414 6.91211 5.58697 6.94774 5.56407 6.98337V7.03682V7.05463C5.52972 7.1734 5.48393 7.27435 5.42668 7.35748V7.3753C5.42668 7.38717 5.42096 7.39311 5.40951 7.39311L5.56407 7.51781L5.42668 7.55344L5.35799 7.64252C5.35799 7.66627 5.35227 7.69002 5.34082 7.71378C5.34082 7.72565 5.34082 7.74347 5.34082 7.76722V7.80285L5.40951 7.89192L5.2893 7.96318C5.2893 7.99881 5.28358 8.01663 5.27213 8.01663C5.21488 8.11164 5.18626 8.21259 5.18626 8.31948V8.37292L5.13474 8.39074C5.15764 8.41449 5.16336 8.43824 5.15192 8.462C5.14047 8.47387 5.13474 8.49169 5.13474 8.51544V8.56888C5.13474 8.61639 5.11184 8.6639 5.06605 8.7114C5.04315 8.7114 5.0317 8.72328 5.0317 8.74703V8.76485V8.80047C5.0317 8.81235 5.02598 8.82423 5.01453 8.8361C5.00308 8.84798 4.99163 8.8658 4.98018 8.88955C4.98018 8.90142 4.96874 8.9133 4.94584 8.92518L5.13474 8.99644L5.0317 9.0677L4.85997 9.29929V9.35273L4.80845 9.60214H4.72259V9.61995C4.72259 9.63183 4.71114 9.64964 4.68824 9.6734V9.69121C4.68824 9.72684 4.68252 9.75059 4.67107 9.76247C4.65962 9.76247 4.6539 9.76841 4.6539 9.78028C4.67679 9.78028 4.68824 9.79216 4.68824 9.81592C4.68824 9.83967 4.67679 9.86342 4.6539 9.88717C4.6539 9.97031 4.62527 10.0238 4.56803 10.0475V10.101C4.55658 10.1128 4.55086 10.1425 4.55086 10.19C4.50506 10.2375 4.48217 10.2732 4.48217 10.2969C4.48217 10.38 4.43637 10.4513 4.34478 10.5107V10.5285C4.34478 10.5998 4.33333 10.6354 4.31044 10.6354V10.671V10.7067L4.27609 10.7779L4.22457 10.7957C4.21312 10.8195 4.2074 10.8373 4.2074 10.8492C4.2074 10.861 4.20167 10.8729 4.19022 10.8848L4.15588 10.9204C4.15588 10.9323 4.15015 10.9382 4.13871 10.9382L4.08719 11.0095C4.08719 11.0808 4.05856 11.1164 4.00132 11.1164C3.97842 11.1401 3.95553 11.152 3.93263 11.152V11.1876L3.89828 11.4727L3.7609 11.348C3.74945 11.3599 3.738 11.3777 3.72655 11.4014C3.72655 11.4133 3.7151 11.4192 3.69221 11.4192C3.69221 11.4905 3.65786 11.5499 3.58917 11.5974C3.56627 11.5974 3.55482 11.6211 3.55482 11.6686C3.55482 11.6805 3.5491 11.6924 3.53765 11.7043C3.53765 11.7043 3.53765 11.7102 3.53765 11.7221C3.5262 11.734 3.52048 11.7458 3.52048 11.7577V11.829C3.52048 11.8409 3.52048 11.8646 3.52048 11.9002C3.52048 11.9359 3.53192 11.9656 3.55482 11.9893L3.67503 12.0428L3.58917 12.114L3.62351 12.1853L3.58917 12.2031V12.2565C3.58917 12.2803 3.59489 12.2981 3.60634 12.31C3.61779 12.3219 3.62351 12.3397 3.62351 12.3634H3.69221L3.62351 12.5238C3.62351 12.5594 3.61206 12.5831 3.58917 12.595C3.58917 12.6425 3.57772 12.6663 3.55482 12.6663C3.55482 12.6781 3.54337 12.7019 3.52048 12.7375L3.48613 12.7732C3.48613 12.7732 3.47468 12.785 3.45178 12.8088C3.44033 12.8207 3.43461 12.8325 3.43461 12.8444H3.48613L3.33157 12.9513H3.28005L3.33157 13.0048L3.28005 13.0226L3.21136 13.1116C3.19991 13.1591 3.18274 13.1888 3.15984 13.2007C3.13694 13.2126 3.11405 13.2304 3.09115 13.2542H3.0568C3.0568 13.266 3.05108 13.2838 3.03963 13.3076C3.02818 13.3195 3.02246 13.3314 3.02246 13.3432L3.0568 13.4145H3.02246L2.95376 13.6817L2.8679 13.5036C2.8679 13.5273 2.86218 13.5451 2.85073 13.557C2.83928 13.5808 2.83355 13.6045 2.83355 13.6283H2.79921C2.77631 13.6639 2.74769 13.7055 2.71334 13.753C2.679 13.8005 2.62175 13.8361 2.54161 13.8599C2.51871 13.8836 2.49582 13.9074 2.47292 13.9311C2.46147 13.9667 2.43285 13.9964 2.38705 14.0202C2.38705 14.0677 2.36988 14.1033 2.33553 14.1271C2.31264 14.1508 2.28974 14.1686 2.26684 14.1805C2.2096 14.2399 2.15808 14.2874 2.11229 14.323C2.06649 14.3587 2.01497 14.3765 1.95773 14.3765C1.93483 14.4121 1.91193 14.4359 1.88904 14.4477L1.82034 14.519L1.76882 14.5012C1.76882 14.5131 1.7631 14.519 1.75165 14.519V14.5903C1.71731 14.6021 1.68868 14.614 1.66579 14.6259C1.65434 14.6496 1.63716 14.6675 1.61427 14.6793L1.16777 15L1.42536 14.5012C1.42536 14.4656 1.43681 14.4418 1.45971 14.4299C1.45971 14.4181 1.46543 14.4062 1.47688 14.3943C1.49978 14.3705 1.52268 14.3527 1.54557 14.3409C1.54557 14.329 1.5513 14.3171 1.56275 14.3052C1.58565 14.2815 1.59709 14.2637 1.59709 14.2518C1.60854 14.2399 1.61427 14.2162 1.61427 14.1805C1.64861 14.1805 1.66579 14.1746 1.66579 14.1627L1.68296 14.0558L1.76882 14.1093C1.80317 14.1093 1.82034 14.0914 1.82034 14.0558H1.83752V14.0202L1.92338 13.9846L1.83752 13.9489L2.12946 13.753C2.17525 13.6817 2.2325 13.6283 2.30119 13.5926H2.33553C2.33553 13.557 2.34126 13.5392 2.35271 13.5392H2.38705C2.38705 13.5154 2.39278 13.5036 2.40423 13.5036V13.4857L2.49009 13.4323C2.49009 13.4204 2.49582 13.4026 2.50727 13.3789C2.53016 13.3551 2.54161 13.3373 2.54161 13.3254L2.49009 13.2007H2.55878L2.54161 13.1651H2.62748C2.66182 13.1413 2.679 13.1176 2.679 13.0938C2.69044 13.0701 2.70762 13.0463 2.73052 13.0226C2.75341 13.0226 2.76486 13.0226 2.76486 13.0226C2.76486 13.0107 2.77631 13.0048 2.79921 13.0048L2.83355 12.9335H2.88507L2.83355 12.8444H2.88507C2.91942 12.8207 2.94232 12.8088 2.95376 12.8088C2.97666 12.7969 2.99956 12.785 3.02246 12.7732V12.6841C3.04535 12.6722 3.08542 12.6663 3.14267 12.6663V12.595L3.19419 12.5772V12.5238V12.3278V12.2922V12.2031V12.114C3.18274 12.114 3.15984 12.0962 3.1255 12.0606L3.09115 12.0249V11.9893V11.9537C3.04535 11.8943 3.04535 11.8527 3.09115 11.829C3.03391 11.7696 3.01101 11.7162 3.02246 11.6686C3.03391 11.6211 3.0568 11.5677 3.09115 11.5083V11.4727H3.19419V11.4192H3.21136C3.23426 11.4192 3.25143 11.4133 3.26288 11.4014C3.28578 11.3777 3.30867 11.3658 3.33157 11.3658L3.34874 11.348C3.36019 11.348 3.37164 11.342 3.38309 11.3302C3.40599 11.3064 3.42316 11.2945 3.43461 11.2945L3.41744 11.2589H3.48613V11.1876V11.152C3.50903 11.1164 3.52048 11.0867 3.52048 11.0629C3.52048 11.0392 3.53192 11.0214 3.55482 11.0095V10.9382H3.58917C3.61206 10.9026 3.62924 10.8789 3.64069 10.867C3.66358 10.8432 3.68076 10.8195 3.69221 10.7957C3.7151 10.7957 3.72655 10.7957 3.72655 10.7957C3.738 10.7838 3.74945 10.7779 3.7609 10.7779L3.69221 10.7067L3.86394 10.5998C3.86394 10.576 3.86966 10.5641 3.88111 10.5641H3.89828C3.89828 10.5404 3.90401 10.5166 3.91546 10.4929C3.9269 10.4572 3.93263 10.4335 3.93263 10.4216C3.95553 10.4216 3.96697 10.4097 3.96697 10.386C3.97842 10.3504 4.00705 10.3325 4.05284 10.3325C4.07574 10.3088 4.10436 10.285 4.13871 10.2613L4.15588 10.101L4.2074 10.1188V10.0475V9.99406C4.2074 9.98219 4.21312 9.97031 4.22457 9.95843V9.94062C4.22457 9.88124 4.24174 9.83967 4.27609 9.81592L4.2074 9.76247L4.27609 9.6734V9.54869H4.31044C4.31044 9.50119 4.31616 9.4715 4.32761 9.45962C4.32761 9.44774 4.33333 9.43587 4.34478 9.42399L4.3963 9.35273H4.41347V9.28147V9.24584C4.41347 9.22209 4.43065 9.21021 4.46499 9.21021L4.3963 9.12114L4.46499 8.99644L4.55086 8.80047H4.56803L4.6539 8.60451H4.61955C4.55086 8.58076 4.48789 8.58076 4.43065 8.60451C4.38485 8.61639 4.31616 8.64014 4.22457 8.67577C4.15588 8.7114 4.09863 8.75297 4.05284 8.80047H3.96697C3.94408 8.8361 3.90973 8.85392 3.86394 8.85392C3.77235 8.80641 3.69221 8.80641 3.62351 8.85392C3.57772 8.85392 3.54337 8.85986 3.52048 8.87173H3.26288H3.0568C3.03391 8.87173 3.00528 8.87767 2.97094 8.88955C2.94804 8.88955 2.91369 8.90143 2.8679 8.92518H2.73052H2.69617H2.66182C2.65037 8.92518 2.63893 8.93112 2.62748 8.94299H2.55878L2.54161 9.42399L2.33553 9.04988H2.12946V8.7114H2.2325H2.26684C2.28974 8.7114 2.30691 8.70546 2.31836 8.69359C2.34126 8.68171 2.36416 8.67577 2.38705 8.67577H2.47292C2.50727 8.65202 2.54161 8.64014 2.57596 8.64014C2.6103 8.64014 2.65037 8.62827 2.69617 8.60451H2.76486C2.78776 8.58076 2.80493 8.57482 2.81638 8.5867C2.82783 8.59857 2.845 8.60451 2.8679 8.60451H2.88507C2.95376 8.60451 3.02246 8.60451 3.09115 8.60451C3.17129 8.60451 3.23426 8.59264 3.28005 8.56888H3.33157H3.34874H3.41744C3.41744 8.53325 3.45178 8.51544 3.52048 8.51544H3.62351C3.65786 8.51544 3.69793 8.5095 3.74373 8.49762C3.80097 8.48575 3.85249 8.49169 3.89828 8.51544L3.91546 8.49762C3.93835 8.47387 3.95553 8.462 3.96697 8.462H3.98415C3.98415 8.462 3.98987 8.45606 4.00132 8.44418C4.02422 8.44418 4.04139 8.43824 4.05284 8.42637C4.06429 8.40261 4.09291 8.39074 4.13871 8.39074L3.89828 8.31948L4.31044 8.28385H4.34478C4.40203 8.24822 4.46499 8.2304 4.53369 8.2304C4.61383 8.21853 4.69397 8.21259 4.77411 8.21259H4.80845V8.12352C4.80845 8.11164 4.81418 8.09382 4.82563 8.07007C4.84852 8.04632 4.8657 8.0285 4.87715 8.01663C4.87715 7.99287 4.88287 7.981 4.89432 7.981C4.91722 7.96912 4.92867 7.95724 4.92867 7.94537C4.92867 7.90974 4.92867 7.88005 4.92867 7.85629C4.94011 7.82067 4.94584 7.79097 4.94584 7.76722V7.73159L4.92867 7.64252L4.94584 7.55344L4.92867 7.53563L4.94584 7.51781L5.01453 7.46437C5.02598 7.44062 5.0317 7.40499 5.0317 7.35748C5.0317 7.2981 5.04315 7.25059 5.06605 7.21496H5.1004V7.19715L5.06605 7.05463L5.18626 7.03682C5.18626 7.01306 5.18626 6.98337 5.18626 6.94774C5.18626 6.91211 5.19199 6.86461 5.20343 6.80523V6.78741V6.69834V6.64489H5.18626L5.27213 6.46675V6.44893H5.2893V6.39549C5.27785 6.39549 5.2664 6.38955 5.25495 6.37767C5.25495 6.35392 5.23778 6.33017 5.20343 6.30641H5.18626C5.11757 6.30641 5.06605 6.28266 5.0317 6.23515C5.0317 6.22328 5.02598 6.21734 5.01453 6.21734C4.96874 6.15796 4.92867 6.11045 4.89432 6.07482C4.87142 6.03919 4.8428 6.00356 4.80845 5.96793C4.78556 5.96793 4.76266 5.95606 4.73976 5.9323C4.72831 5.89667 4.71114 5.87292 4.68824 5.86105C4.6539 5.77791 4.60238 5.70071 4.53369 5.62945C4.47644 5.54632 4.41347 5.46912 4.34478 5.39786C4.32188 5.39786 4.31044 5.39192 4.31044 5.38005C4.28754 5.38005 4.27609 5.36223 4.27609 5.3266L4.15588 5.25534L4.2074 5.13064C4.1616 5.11877 4.13871 5.05938 4.13871 4.95249V4.82779C4.10436 4.80404 4.08719 4.76841 4.08719 4.7209V4.64964C4.06429 4.64964 4.05284 4.62589 4.05284 4.57839C4.01849 4.56651 3.98987 4.54276 3.96697 4.50713V4.38242C3.94408 4.34679 3.93263 4.31116 3.93263 4.27553C3.93263 4.2399 3.92118 4.19834 3.89828 4.15083V4.1152L3.86394 4.00831L3.89828 3.95487V3.88361C3.87539 3.84798 3.86394 3.78266 3.86394 3.68765C3.88683 3.68765 3.89256 3.68765 3.88111 3.68765C3.86966 3.68765 3.86394 3.67577 3.86394 3.65202C3.86394 3.62827 3.86394 3.60451 3.86394 3.58076C3.86394 3.54513 3.87539 3.5095 3.89828 3.47387L3.93263 3.45606L4.05284 3.33135L4.13871 3.40261C4.17305 3.43824 4.19022 3.47387 4.19022 3.5095C4.20167 3.53325 4.2074 3.55107 4.2074 3.56294C4.1845 3.61045 4.17878 3.65202 4.19022 3.68765C4.20167 3.72328 4.2074 3.77078 4.2074 3.83017V4.00831C4.2074 4.03207 4.2074 4.05582 4.2074 4.07957C4.21885 4.10333 4.22457 4.12708 4.22457 4.15083C4.22457 4.19834 4.23029 4.2399 4.24174 4.27553C4.26464 4.29929 4.27609 4.32898 4.27609 4.36461L4.31044 4.38242C4.33333 4.41805 4.34478 4.44774 4.34478 4.4715C4.34478 4.4715 4.35623 4.47743 4.37913 4.48931H4.3963V4.50713L4.55086 4.64964L4.41347 4.7209L4.46499 4.73872V4.82779V4.95249C4.47644 5 4.48217 5.04157 4.48217 5.0772C4.49361 5.10095 4.51651 5.11877 4.55086 5.13064V5.16627C4.55086 5.2019 4.55658 5.21971 4.56803 5.21971L4.61955 5.25534C4.64245 5.25534 4.67679 5.2791 4.72259 5.3266C4.80273 5.37411 4.85425 5.44537 4.87715 5.54038V5.55819L5.01453 5.61164L4.94584 5.70071C4.94584 5.72447 4.94584 5.74228 4.94584 5.75416C4.95729 5.75416 4.98591 5.77197 5.0317 5.8076H5.04888V5.82542C5.04888 5.83729 5.0546 5.84917 5.06605 5.86105L5.13474 5.87886C5.15764 5.87886 5.19199 5.89074 5.23778 5.91449C5.28358 5.93824 5.31792 5.962 5.34082 5.98575C5.34082 5.98575 5.34654 5.99762 5.35799 6.02138V6.03919V5.95012L5.40951 5.87886C5.40951 5.83135 5.41524 5.79572 5.42668 5.77197V5.73634V5.62945C5.41524 5.58195 5.42096 5.54038 5.44386 5.50475C5.4782 5.46912 5.50683 5.43349 5.52972 5.39786V5.3266V5.29097V5.21971V5.2019C5.50683 5.16627 5.5011 5.14252 5.51255 5.13064C5.524 5.10689 5.52972 5.0772 5.52972 5.04157H5.49538L5.52972 4.86342V4.79216V4.73872V4.7209C5.52972 4.7209 5.54117 4.69715 5.56407 4.64964V4.63183V4.56057L5.52972 4.50713V4.4715V4.45368C5.52972 4.45368 5.54117 4.42993 5.56407 4.38242V4.36461C5.56407 4.34086 5.56979 4.32898 5.58124 4.32898C5.59269 4.3171 5.59841 4.30523 5.59841 4.29335V4.20428V4.1152V3.90143V3.88361V3.81235C5.56407 3.76485 5.5469 3.71734 5.5469 3.66983C5.55834 3.62233 5.57552 3.5867 5.59841 3.56294V3.45606V3.40261V3.2601C5.57552 3.22447 5.54117 3.1829 5.49538 3.13539C5.44958 3.09976 5.42668 3.05226 5.42668 2.99287C5.38089 2.99287 5.35799 2.97506 5.35799 2.93943C5.3122 2.93943 5.2893 2.92755 5.2893 2.9038H5.27213H5.13474L5.0317 2.97506L5.01453 2.86817C4.96874 2.86817 4.94584 2.86223 4.94584 2.85036C4.93439 2.85036 4.93439 2.84442 4.94584 2.83254V2.79691H4.92867H4.87715L4.77411 2.72565V2.65439C4.77411 2.64252 4.74549 2.63658 4.68824 2.63658C4.66535 2.60095 4.64245 2.58313 4.61955 2.58313C4.59665 2.58313 4.57948 2.59501 4.56803 2.61876C4.56803 2.63064 4.56231 2.63658 4.55086 2.63658C4.55086 2.64846 4.52796 2.65439 4.48217 2.65439V2.70784C4.48217 2.7791 4.45927 2.83254 4.41347 2.86817C4.39058 2.88005 4.3734 2.88599 4.36195 2.88599C4.32761 2.88599 4.29899 2.88005 4.27609 2.86817H4.13871L4.2074 2.70784V2.65439C4.2074 2.64252 4.2074 2.6247 4.2074 2.60095C4.21885 2.56532 4.22457 2.52969 4.22457 2.49406C4.24747 2.48219 4.26464 2.47031 4.27609 2.45843C4.29899 2.43468 4.32188 2.41093 4.34478 2.38717H4.31044V2.35154C4.25319 2.29216 4.22457 2.25059 4.22457 2.22684L4.2074 2.20903L4.22457 2.15558L4.2074 2.13777C4.17305 2.10214 4.15588 2.06651 4.15588 2.03088C4.12153 2.00713 4.08719 1.98931 4.05284 1.97743C4.01849 1.95368 3.98987 1.92399 3.96697 1.88836V1.83492H3.9498C3.93835 1.83492 3.93263 1.82898 3.93263 1.8171L3.89828 1.74584L3.86394 1.8171L3.74373 1.65677C3.69793 1.56176 3.67503 1.50237 3.67503 1.47862V1.46081V1.38955V1.30048C3.64069 1.26485 3.62351 1.22328 3.62351 1.17577L3.58917 1.14014H3.62351V0.997625C3.60062 1.03325 3.56627 1.05107 3.52048 1.05107H3.48613H3.33157C3.26288 1.06295 3.19991 1.06295 3.14267 1.05107L3.09115 1.06888L3.07398 1.0867C3.06253 1.09857 3.0568 1.11639 3.0568 1.14014H2.88507C2.86218 1.1639 2.83355 1.17577 2.79921 1.17577C2.77631 1.17577 2.75341 1.17577 2.73052 1.17577H2.69617C2.60458 1.17577 2.55306 1.18765 2.54161 1.2114H2.47292L2.40423 1.24703C2.35843 1.24703 2.32409 1.26485 2.30119 1.30048H2.07794C2.06649 1.27672 2.04359 1.26485 2.00925 1.26485C1.9749 1.25297 1.94628 1.24703 1.92338 1.24703C1.90048 1.24703 1.87759 1.24109 1.85469 1.22922C1.84324 1.21734 1.83179 1.2114 1.82034 1.2114H1.68296C1.68296 1.18765 1.66006 1.17577 1.61427 1.17577C1.53413 1.19953 1.46543 1.19953 1.40819 1.17577C1.3624 1.14014 1.32232 1.10451 1.28798 1.06888L1.27081 1.05107H1.25363C1.19639 0.991687 1.16777 0.950119 1.16777 0.926365L1.13342 0.908551C1.13342 0.872921 1.12197 0.84323 1.09908 0.819477H1.03038L1.01321 0.97981L0.944518 0.766033H0.78996C0.732717 0.74228 0.675473 0.730404 0.61823 0.730404C0.572435 0.718528 0.532365 0.712589 0.498018 0.712589C0.463672 0.700713 0.435051 0.67696 0.412153 0.64133H0.377807L0.326288 0.659145C0.303391 0.659145 0.274769 0.67696 0.240423 0.712589H0.0858652C0.0744165 0.700713 0.0686921 0.694775 0.0686921 0.694775C0.0686921 0.682898 0.0629678 0.671021 0.0515191 0.659145C0.0400704 0.647269 0.0286217 0.64133 0.017173 0.64133C-0.00572434 0.558195 -0.00572434 0.50475 0.017173 0.480998C0.017173 0.33848 0.0858652 0.255344 0.22325 0.231592L0.240423 0.178147L0.291942 0.160333L0.532365 0V0.249406V0.302851V0.33848H0.549538C0.538089 0.350356 0.538089 0.362233 0.549538 0.37411C0.549538 0.385986 0.572435 0.391924 0.61823 0.391924C0.61823 0.380048 0.629678 0.37411 0.652576 0.37411C0.664025 0.37411 0.675473 0.380048 0.686922 0.391924H0.704095C0.726992 0.356295 0.755614 0.356295 0.78996 0.391924L0.875826 0.302851L0.961691 0.391924H1.01321L1.13342 0.427553C1.19066 0.427553 1.24218 0.469121 1.28798 0.552257C1.34522 0.564133 1.38529 0.587886 1.40819 0.623516C1.44254 0.659145 1.47116 0.694774 1.49406 0.730404C1.5284 0.754157 1.54557 0.783848 1.54557 0.819477C1.60282 0.819477 1.65434 0.825416 1.70013 0.837292C1.75738 0.837292 1.80317 0.861045 1.83752 0.908551C1.89476 0.908551 1.96345 0.908551 2.04359 0.908551C2.12373 0.896675 2.19815 0.87886 2.26684 0.855106H2.33553C2.35843 0.831354 2.38705 0.813539 2.4214 0.801663C2.46719 0.789787 2.50727 0.795725 2.54161 0.819477V0.766033L2.55878 0.819477H2.6103C2.69044 0.771971 2.76486 0.771971 2.83355 0.819477H2.8679C2.91369 0.795725 2.94232 0.783848 2.95376 0.783848C2.97666 0.771971 2.99956 0.766033 3.02246 0.766033C3.04535 0.74228 3.07398 0.730404 3.10832 0.730404C3.14267 0.730404 3.17129 0.730404 3.19419 0.730404H3.21136L3.26288 0.64133L3.33157 0.730404H3.43461H3.52048L3.55482 0.659145H3.67503L3.69221 0.712589H3.7609C3.7838 0.712589 3.80097 0.706651 3.81242 0.694775C3.82387 0.671022 3.84104 0.659145 3.86394 0.659145H3.93263H3.9498V0.676959C3.9498 0.688836 3.95553 0.700713 3.96697 0.712589H4.05284C4.07574 0.67696 4.11008 0.665083 4.15588 0.676959C4.20167 0.676959 4.24174 0.688836 4.27609 0.712589C4.32188 0.67696 4.38485 0.659145 4.46499 0.659145H4.48217C4.53941 0.647269 4.6081 0.64133 4.68824 0.64133L4.80845 0.498812V0.64133H4.85997V0.659145C4.90577 0.647269 4.94584 0.64133 4.98018 0.64133C5.02598 0.64133 5.06605 0.64133 5.1004 0.64133C5.12329 0.593824 5.15764 0.570071 5.20343 0.570071H5.35799H5.56407H5.64993H5.7358H5.75297C5.76442 0.558195 5.79304 0.552257 5.83884 0.552257C5.88463 0.552257 5.93615 0.552257 5.9934 0.552257H6.13078L6.06209 0.570071H6.07926H6.09643C6.11933 0.570071 6.13078 0.564133 6.13078 0.552257H6.16513H6.28534C6.31968 0.528503 6.3483 0.522565 6.3712 0.534442C6.40555 0.546319 6.43989 0.552257 6.47424 0.552257H6.54293H6.6288H6.66314L6.69749 0.498812H6.73184H6.78336C6.82915 0.486936 6.86922 0.486936 6.90357 0.498812C6.93791 0.498812 6.97226 0.498812 7.0066 0.498812V0.552257C7.0066 0.516627 7.02378 0.498812 7.05812 0.498812H7.09247H7.19551L7.21268 0.480998L7.35007 0.498812L7.41876 0.391924L7.4531 0.427553L7.48745 0.178147L7.60766 0.480998H7.72787H7.81374H7.88243C7.95112 0.480998 7.99692 0.486936 8.01981 0.498812H8.07133C8.08278 0.486936 8.1114 0.480998 8.1572 0.480998H8.20872C8.24306 0.480998 8.26596 0.47506 8.27741 0.463183C8.28886 0.451306 8.29458 0.43943 8.29458 0.427553H8.32893H8.44914H8.6037H8.72391L8.74108 0.391924C8.82122 0.391924 8.86129 0.403801 8.86129 0.427553V0.391924H8.87847H8.96433C8.98723 0.368171 9.0044 0.356294 9.01585 0.356294C9.03875 0.344418 9.0502 0.326603 9.0502 0.302851H9.08454L9.428 0.0890735L9.34214 0.33848H9.46235H9.58256C9.59401 0.362233 9.61118 0.380048 9.63408 0.391924C9.65698 0.391924 9.67415 0.391924 9.6856 0.391924C9.7085 0.391924 9.73712 0.385986 9.77147 0.37411C9.80581 0.362233 9.84588 0.368171 9.89168 0.391924H10.0634H10.1321C10.1435 0.415677 10.1836 0.427553 10.2523 0.427553H10.3897C10.4355 0.427553 10.487 0.433491 10.5443 0.445368C10.6015 0.445368 10.6473 0.457244 10.6816 0.480998H10.8534H10.8705H10.9564H11.0938C11.1167 0.480998 11.1396 0.480998 11.1625 0.480998C11.1854 0.480998 11.1968 0.486936 11.1968 0.498812H11.2483H11.2827H11.3514L11.6605 0.480998L11.6777 0.498812H11.7464H11.7635C11.775 0.498812 11.7807 0.498812 11.7807 0.498812C11.7807 0.486936 11.7864 0.480998 11.7979 0.480998H11.8494H11.8838C11.8838 0.445368 11.8895 0.427553 11.9009 0.427553H11.9181H11.9868H12.0727L12.1242 0.391924L12.2787 0.33848C12.3131 0.33848 12.3474 0.326603 12.3818 0.302851C12.3932 0.302851 12.4161 0.296913 12.4505 0.285036C12.4848 0.261283 12.5134 0.249406 12.5363 0.249406L12.5535 0.231592C12.5878 0.231592 12.6165 0.213777 12.6394 0.178147H12.7767L12.7939 0.249406V0.302851C12.8168 0.326603 12.8283 0.350356 12.8283 0.37411C12.8397 0.385986 12.8512 0.403801 12.8626 0.427553C12.8626 0.451307 12.8741 0.480998 12.897 0.516627C12.9199 0.54038 12.9313 0.558195 12.9313 0.570071C12.897 0.617577 12.8855 0.659145 12.897 0.694775C12.9199 0.718528 12.9313 0.74228 12.9313 0.766033H12.9485C12.9485 0.789786 12.9485 0.819477 12.9485 0.855106C12.9599 0.890736 12.9771 0.914489 13 0.926365V0.997625L12.8454 1.05107ZM5.82166 1.8171C5.84456 1.78147 5.85601 1.73991 5.85601 1.6924C5.85601 1.64489 5.86746 1.58551 5.89036 1.51425C5.89036 1.4905 5.89036 1.46675 5.89036 1.44299C5.90181 1.41924 5.91898 1.40143 5.94188 1.38955L5.89036 1.3361L5.94188 1.30048C5.97622 1.26485 5.9934 1.22328 5.9934 1.17577H5.85601L6.06209 0.97981V0.926365H5.94188H5.82166H5.66711L5.56407 0.97981L5.52972 0.908551H5.49538H5.42668L4.55086 1.40736L5.01453 0.97981H4.77411L4.72259 0.997625H4.68824H4.61955H4.48217H4.34478C4.32188 1.02138 4.29326 1.03325 4.25892 1.03325C4.23602 1.03325 4.21885 1.02138 4.2074 0.997625H4.08719H3.93263V1.06888L3.96697 1.24703C3.98987 1.29454 4.00132 1.31829 4.00132 1.31829V1.3361V1.38955L4.08719 1.40736V1.47862C4.12153 1.50237 4.13871 1.53207 4.13871 1.5677C4.15015 1.60333 4.15588 1.63302 4.15588 1.65677C4.20167 1.65677 4.22457 1.68646 4.22457 1.74584V1.72803V1.74584H4.27609H4.3963L4.41347 1.8171V1.83492C4.43637 1.87055 4.46499 1.90618 4.49934 1.94181C4.53369 1.96556 4.55086 1.99525 4.55086 2.03088C4.55086 2.06651 4.55658 2.10214 4.56803 2.13777H4.77411L4.68824 2.24466C4.68824 2.25653 4.69397 2.26841 4.70542 2.28029C4.72831 2.30404 4.75121 2.31591 4.77411 2.31591H4.80845C4.8428 2.33967 4.87715 2.36342 4.91149 2.38717C4.94584 2.39905 4.98591 2.42874 5.0317 2.47625C5.0546 2.48812 5.07177 2.50594 5.08322 2.52969C5.09467 2.55344 5.11184 2.57126 5.13474 2.58313C5.15764 2.57126 5.18626 2.56532 5.22061 2.56532C5.25495 2.56532 5.27785 2.56532 5.2893 2.56532H5.42668C5.49538 2.58907 5.54117 2.61283 5.56407 2.63658L5.40951 2.35154L5.66711 2.49406C5.70145 2.45843 5.71863 2.43468 5.71863 2.4228C5.73007 2.39905 5.7358 2.3753 5.7358 2.35154C5.7358 2.32779 5.7358 2.30404 5.7358 2.28029C5.7358 2.24466 5.74152 2.22684 5.75297 2.22684V2.20903H5.77015V2.08432C5.77015 1.96556 5.78732 1.88242 5.82166 1.83492V1.8171Z" fill="black"/>
</svg>
