<svg width="17" height="13" viewBox="0 0 17 13" fill="none" xmlns="http://www.w3.org/2000/svg">
<path d="M11.1416 0.176391V0.246947C11.1656 0.293985 11.2016 0.335142 11.2495 0.37042C11.3094 0.405698 11.3573 0.452736 11.3932 0.511533V0.635007C11.3932 0.658525 11.3753 0.670285 11.3393 0.670285V0.75848C11.3393 0.781999 11.3393 0.799638 11.3393 0.811398C11.3513 0.823157 11.3872 0.858435 11.4471 0.917232C11.4232 0.917232 11.4112 0.934871 11.4112 0.970149C11.4232 1.00543 11.3992 1.02307 11.3393 1.02307V0.970149L11.3214 1.02307L11.3393 0.970149V1.02307C11.3273 1.04659 11.2794 1.08774 11.1956 1.14654C11.1956 1.17006 11.2075 1.18182 11.2315 1.18182H11.2674C11.2075 1.2171 11.1596 1.25237 11.1237 1.28765C11.0997 1.31117 11.0758 1.34057 11.0518 1.37585C11.0159 1.37585 10.9979 1.38761 10.9979 1.41113V1.42876V1.64043V1.76391C11.0937 1.85798 11.1117 1.9403 11.0518 2.01086V2.06377V2.27544V2.346V2.39891H10.9979V2.346H10.9799V2.39891V2.45183C10.9919 2.47535 10.9919 2.49887 10.9799 2.52239C10.9799 2.54591 10.9799 2.5753 10.9799 2.61058C10.9799 2.6929 10.9859 2.73406 10.9979 2.73406V2.78697C10.9979 2.82225 10.9919 2.83989 10.9799 2.83989L10.9979 2.87517V2.83989C11.0218 2.86341 11.0278 2.88693 11.0159 2.91045C11.0039 2.93397 10.9979 2.95749 10.9979 2.981L10.9799 3.01628V3.0692C10.944 3.10448 10.926 3.13976 10.926 3.17503H10.8541C10.8302 3.19855 10.8122 3.22795 10.8002 3.26323C10.7882 3.28675 10.7703 3.30439 10.7463 3.31615C10.7463 3.37494 10.7343 3.4161 10.7104 3.43962C10.6984 3.46314 10.6684 3.5043 10.6205 3.56309V3.63365V3.89824C10.6205 3.92175 10.6145 3.94527 10.6025 3.96879C10.5906 3.99231 10.5846 4.01583 10.5846 4.03935C10.5366 4.07463 10.4947 4.1099 10.4588 4.14518V4.37449V4.40977C10.4588 4.42153 10.4767 4.42741 10.5127 4.42741V4.48033C10.5606 4.5156 10.5846 4.55676 10.5846 4.6038H10.5127C10.5127 4.65084 10.5366 4.67436 10.5846 4.67436C10.5846 4.70963 10.5726 4.72727 10.5486 4.72727H10.5127C10.5846 4.76255 10.5846 4.81547 10.5127 4.88602V5.06241V5.15061C10.5606 5.18589 10.5846 5.21529 10.5846 5.23881H10.5127V5.34464C10.5007 5.3564 10.5007 5.36816 10.5127 5.37992C10.5127 5.39168 10.5366 5.39756 10.5846 5.39756V5.45047L10.6205 5.50339H10.5846C10.5127 5.50339 10.4528 5.52691 10.4049 5.57395C10.3929 5.58571 10.3869 5.59747 10.3869 5.60923C10.3869 5.65626 10.3929 5.67978 10.4049 5.67978C10.3689 5.71506 10.3689 5.7327 10.4049 5.7327V5.78562C10.3809 5.78562 10.3689 5.79738 10.3689 5.8209C10.3689 5.83265 10.3809 5.83853 10.4049 5.83853C10.3809 5.85029 10.3689 5.86793 10.3689 5.89145C10.3809 5.91497 10.3749 5.93849 10.351 5.96201L10.4049 6.03256V6.15604C10.3809 6.15604 10.3689 6.15604 10.3689 6.15604C10.3809 6.15604 10.3749 6.1678 10.351 6.19132L10.4049 6.24423C10.4408 6.24423 10.4588 6.25599 10.4588 6.27951V6.29715V6.36771V6.49118L10.4947 6.52646C10.5067 6.53822 10.5366 6.5441 10.5846 6.5441V6.49118V6.5441H10.7104C10.7343 6.56762 10.7643 6.57938 10.8002 6.57938C10.8242 6.55586 10.8481 6.5441 10.8721 6.5441C10.908 6.5441 10.926 6.55586 10.926 6.57938C10.9619 6.55586 10.9859 6.52646 10.9979 6.49118V6.5441C11.0698 6.47354 11.1057 6.47354 11.1057 6.5441H11.1956V6.57938C11.1716 6.60289 11.1476 6.62641 11.1237 6.64993C11.0997 6.67345 11.0578 6.66757 10.9979 6.63229C10.9979 6.64405 10.9919 6.64993 10.9799 6.64993C10.9679 6.66169 10.956 6.66757 10.944 6.66757C10.944 6.66757 10.938 6.67933 10.926 6.70285H10.8002C10.7643 6.73813 10.7403 6.75577 10.7283 6.75577H10.7104C10.6864 6.79104 10.6445 6.80868 10.5846 6.80868H10.5127C10.5127 6.82044 10.5007 6.8322 10.4767 6.84396C10.4648 6.84396 10.4588 6.85572 10.4588 6.87924C10.4228 6.91452 10.4228 6.94392 10.4588 6.96744V7.09091V7.10855C10.4827 7.10855 10.5007 7.12619 10.5127 7.16147C10.5247 7.18498 10.5486 7.18498 10.5846 7.16147V7.21438H10.7104C10.7343 7.21438 10.7463 7.23202 10.7463 7.2673C10.7822 7.30258 10.8421 7.32022 10.926 7.32022V7.37313C10.926 7.30258 10.944 7.2673 10.9799 7.2673H11.0518C11.0877 7.2673 11.1057 7.27906 11.1057 7.30258V7.32022C11.0817 7.34374 11.0578 7.36137 11.0338 7.37313C11.0099 7.38489 10.9919 7.40253 10.9799 7.42605C10.956 7.44957 10.938 7.46721 10.926 7.47897C10.914 7.49073 10.8901 7.49661 10.8541 7.49661L10.8002 7.54952C10.7643 7.5848 10.7463 7.62008 10.7463 7.65536C10.7223 7.69064 10.7044 7.72004 10.6924 7.74355C10.6804 7.75531 10.6744 7.79059 10.6744 7.84939C10.6505 7.87291 10.6325 7.88467 10.6205 7.88467C10.6085 7.88467 10.5726 7.88467 10.5127 7.88467L10.5846 7.93758C10.5366 7.97286 10.5127 8.01402 10.5127 8.06106C10.5127 8.07282 10.5007 8.08458 10.4767 8.09634C10.4648 8.09634 10.4588 8.1081 10.4588 8.13161C10.4348 8.15513 10.4168 8.18453 10.4049 8.21981C10.3929 8.24333 10.3749 8.27861 10.351 8.32564V8.41384C10.339 8.44912 10.333 8.4844 10.333 8.51967V8.66079V8.69607C10.333 8.73134 10.321 8.75486 10.297 8.76662C10.2851 8.76662 10.2791 8.77838 10.2791 8.8019V8.83718C10.2791 8.84894 10.2611 8.85482 10.2252 8.85482H10.2791V8.90773C10.315 8.94301 10.3569 8.96065 10.4049 8.96065C10.4767 8.89009 10.5127 8.89009 10.5127 8.96065H10.5846H10.7104V8.90773H10.7463C10.8062 8.96653 10.8541 9.01945 10.8901 9.06649C10.926 9.10176 10.9619 9.13116 10.9979 9.15468C11.0099 9.16644 11.0218 9.17232 11.0338 9.17232H11.0518V9.18996V9.24288L11.1057 9.29579C11.0817 9.30755 11.0758 9.31931 11.0877 9.33107C11.0997 9.33107 11.1057 9.34283 11.1057 9.36635C11.1297 9.41339 11.1416 9.44279 11.1416 9.45455V9.48982C11.1416 9.5251 11.1596 9.5545 11.1956 9.57802C11.1836 9.58978 11.1836 9.60154 11.1956 9.6133C11.1956 9.62506 11.2195 9.63094 11.2674 9.63094C11.2674 9.65445 11.2734 9.66621 11.2854 9.66621C11.3094 9.66621 11.3214 9.67797 11.3214 9.70149C11.3333 9.76029 11.3393 9.80733 11.3393 9.84261C11.3513 9.87788 11.3693 9.92492 11.3932 9.98372V10.0014H11.4112C11.4352 10.0014 11.4471 10.019 11.4471 10.0543V10.0014C11.4711 10.0249 11.4951 10.0425 11.519 10.0543C11.543 10.066 11.5669 10.0896 11.5909 10.1248C11.6149 10.1483 11.6388 10.166 11.6628 10.1777C11.6868 10.1777 11.7107 10.1895 11.7347 10.213C11.7586 10.2365 11.7826 10.2542 11.8066 10.2659C11.8305 10.2659 11.8425 10.2718 11.8425 10.2836C11.7826 10.3424 11.7467 10.3777 11.7347 10.3894C11.7347 10.4012 11.7347 10.4247 11.7347 10.46H11.7886V10.5129V10.5305C11.7886 10.5423 11.8066 10.5482 11.8425 10.5482C11.8425 10.5834 11.8485 10.6011 11.8605 10.6011H11.8964L11.9323 10.5482V10.6011H11.9863C11.9863 10.5658 12.0042 10.5658 12.0402 10.6011L12.0761 10.6364H12.13V10.7246V10.9009V10.9362C12.13 11.0185 12.166 11.0597 12.2378 11.0597C12.2378 11.1067 12.2438 11.1303 12.2558 11.1303C12.2678 11.142 12.2798 11.142 12.2918 11.1303C12.3157 11.1303 12.3277 11.142 12.3277 11.1655V11.1832C12.3517 11.1832 12.3696 11.1949 12.3816 11.2185C12.3936 11.2302 12.4116 11.2361 12.4355 11.2361C12.4355 11.2479 12.4415 11.2596 12.4535 11.2714C12.4655 11.2714 12.4715 11.2831 12.4715 11.3066H12.4355H12.4715C12.5074 11.3419 12.5433 11.3596 12.5793 11.3596C12.5913 11.3243 12.6212 11.3066 12.6691 11.3066V11.289C12.6691 11.2655 12.6871 11.2537 12.723 11.2537C12.723 11.289 12.741 11.3243 12.777 11.3596H12.6691C12.6931 11.3831 12.7111 11.4007 12.723 11.4125C12.735 11.4125 12.771 11.4125 12.8309 11.4125L12.777 11.3596H12.9207H12.9567H13.0106C13.0465 11.3948 13.1004 11.4125 13.1723 11.4125C13.2202 11.4125 13.2442 11.3948 13.2442 11.3596L13.2981 11.4125V11.3596H13.334C13.358 11.3596 13.37 11.3419 13.37 11.3066C13.3939 11.3066 13.4179 11.3008 13.4419 11.289C13.4658 11.2655 13.4898 11.2479 13.5137 11.2361C13.5137 11.2008 13.5197 11.1832 13.5317 11.1832H13.5677C13.5677 11.1597 13.5677 11.142 13.5677 11.1303C13.5796 11.1185 13.5856 11.095 13.5856 11.0597H13.6395C13.6635 11.0479 13.6815 11.0421 13.6934 11.0421L13.7114 11.0597H13.8013V11.095C13.8013 11.1185 13.8192 11.1303 13.8552 11.1303C13.8552 11.095 13.8612 11.0773 13.8732 11.0773C13.8971 11.0773 13.9151 11.095 13.9271 11.1303C13.951 11.1303 13.981 11.1361 14.0169 11.1479C14.0529 11.1597 14.1008 11.1538 14.1607 11.1303L14.1966 11.1832C14.2206 11.2067 14.2385 11.2243 14.2505 11.2361C14.2745 11.2361 14.2865 11.242 14.2865 11.2537C14.2865 11.2655 14.2925 11.2773 14.3044 11.289C14.3164 11.3008 14.3404 11.3066 14.3763 11.3066C14.4123 11.3066 14.4422 11.3184 14.4662 11.3419C14.5021 11.3537 14.5321 11.3596 14.556 11.3596H14.574V11.3243C14.574 11.3125 14.568 11.3066 14.556 11.3066C14.556 11.2949 14.556 11.2772 14.556 11.2537C14.568 11.2655 14.574 11.2773 14.574 11.289V11.3066C14.598 11.3066 14.6159 11.3125 14.6279 11.3243C14.6399 11.336 14.6579 11.3302 14.6818 11.3066C14.6818 11.3419 14.6878 11.3596 14.6998 11.3596H14.7178C14.7178 11.3243 14.7297 11.3066 14.7537 11.3066H14.7896V11.3596H14.8436C14.8555 11.3478 14.8735 11.3419 14.8975 11.3419C14.9094 11.3419 14.9154 11.3478 14.9154 11.3596H15.0233C15.0233 11.3831 15.0352 11.4007 15.0592 11.4125C15.0832 11.4125 15.1071 11.4125 15.1311 11.4125H15.2569C15.2928 11.3772 15.3168 11.3596 15.3288 11.3596H15.3647C15.4006 11.3596 15.4426 11.3419 15.4905 11.3066H15.5264C15.5504 11.2831 15.5803 11.2655 15.6163 11.2537C15.6522 11.2302 15.6822 11.2067 15.7061 11.1832L15.76 11.1303L15.8319 11.0597H15.8499L15.8858 11.095C15.9098 11.1185 15.9338 11.1303 15.9577 11.1303H15.9757C15.9996 11.1303 16.0116 11.1479 16.0116 11.1832H16.1015C16.1374 11.2185 16.1614 11.2361 16.1734 11.2361H16.1913C16.2632 11.2361 16.3171 11.242 16.3531 11.2537H16.371C16.383 11.242 16.395 11.2361 16.407 11.2361H16.4429C16.4908 11.2361 16.5148 11.242 16.5148 11.2537C16.5627 11.242 16.5987 11.2302 16.6226 11.2185C16.6466 11.1949 16.6885 11.1832 16.7484 11.1832C16.7484 11.1597 16.7364 11.1361 16.7125 11.1126C16.7005 11.0773 16.6945 11.0479 16.6945 11.0244C16.7185 11.0009 16.7364 10.995 16.7484 11.0068C16.7604 11.0185 16.7784 11.0244 16.8023 11.0244C16.8023 11.0479 16.8143 11.0597 16.8383 11.0597C16.8383 11.1067 16.8443 11.1303 16.8562 11.1303C16.8682 11.142 16.8802 11.142 16.8922 11.1303V11.1832C16.8922 11.2185 16.9101 11.2361 16.9461 11.2361C16.9461 11.2243 16.9521 11.2185 16.9641 11.2185C16.976 11.2185 16.988 11.2243 17 11.2361H16.9461V11.2537H16.8922H16.8562C16.8443 11.2537 16.8383 11.2479 16.8383 11.2361C16.8143 11.2479 16.8023 11.2714 16.8023 11.3066H16.7484C16.7125 11.3419 16.6646 11.3596 16.6047 11.3596H16.5687C16.5687 11.3596 16.5507 11.3772 16.5148 11.4125H16.407H16.1734H16.1015H16.0116H15.76C15.7481 11.4242 15.7361 11.4301 15.7241 11.4301C15.6882 11.4301 15.6642 11.4242 15.6522 11.4125L15.6163 11.4478C15.6163 11.5418 15.5743 11.5889 15.4905 11.5889H15.2209H15.185V11.6418C15.185 11.7123 15.197 11.7476 15.2209 11.7476C15.2209 11.7829 15.2329 11.8123 15.2569 11.8358C15.2808 11.8476 15.2808 11.8652 15.2569 11.8887V11.924C15.2569 11.9358 15.2748 11.9417 15.3108 11.9417C15.3108 11.9652 15.3228 11.9828 15.3467 11.9946C15.3707 11.9946 15.3946 12.0063 15.4186 12.0299L15.4545 12.0651C15.4785 12.0886 15.4905 12.1122 15.4905 12.1357C15.4905 12.1474 15.4965 12.1533 15.5085 12.1533C15.5085 12.1651 15.5085 12.171 15.5085 12.171C15.5204 12.171 15.5264 12.1827 15.5264 12.2062H15.4905C15.5144 12.218 15.5324 12.2356 15.5444 12.2592C15.5684 12.2827 15.5923 12.3062 15.6163 12.3297C15.6163 12.3532 15.5983 12.3532 15.5624 12.3297H15.5444C15.5324 12.3297 15.5264 12.3121 15.5264 12.2768C15.5025 12.2533 15.4785 12.2415 15.4545 12.2415C15.4306 12.2298 15.4186 12.218 15.4186 12.2062C15.3946 12.2062 15.3647 12.1945 15.3288 12.171C15.3048 12.1474 15.2808 12.1357 15.2569 12.1357C15.2569 12.1004 15.2449 12.0828 15.2209 12.0828H15.203V12.1004C15.203 12.1239 15.209 12.1357 15.2209 12.1357H15.185V12.1004C15.185 12.0886 15.179 12.0828 15.167 12.0828C15.155 12.071 15.1431 12.0534 15.1311 12.0299H15.185L15.149 11.9946C15.1371 11.9828 15.1311 11.9652 15.1311 11.9417V11.8535V11.8358C15.1191 11.8241 15.1071 11.8182 15.0951 11.8182C15.0951 11.7829 15.0832 11.7535 15.0592 11.73C15.0352 11.6947 15.0233 11.6477 15.0233 11.5889V11.5712H14.9693H15.0233C15.0233 11.536 15.0113 11.5183 14.9873 11.5183H14.9693C14.9454 11.5183 14.9274 11.5242 14.9154 11.536C14.9154 11.5477 14.9094 11.5418 14.8975 11.5183C14.8735 11.483 14.8316 11.4713 14.7717 11.483C14.7237 11.4948 14.6758 11.483 14.6279 11.4478H14.556H14.2326C14.2326 11.4595 14.2266 11.4713 14.2146 11.483C14.1906 11.5066 14.1727 11.5183 14.1607 11.5183C14.1607 11.5654 14.1008 11.5889 13.981 11.5889C13.981 11.6242 13.969 11.6418 13.945 11.6418H13.9271C13.9151 11.6418 13.9091 11.6536 13.9091 11.6771V11.6947C13.8732 11.73 13.8552 11.7711 13.8552 11.8182V11.8535V11.8887V11.924C13.8552 11.9358 13.8732 11.9417 13.9091 11.9417V11.9593C13.9091 11.9711 13.8911 11.9769 13.8552 11.9769C13.8432 11.9769 13.8312 11.9711 13.8192 11.9593C13.8073 11.9475 13.8013 11.924 13.8013 11.8887C13.7414 11.8887 13.7294 11.877 13.7653 11.8535L13.7114 11.8182V11.6947C13.7114 11.6712 13.6934 11.6536 13.6575 11.6418C13.6335 11.63 13.6096 11.6124 13.5856 11.5889C13.5377 11.5889 13.5137 11.583 13.5137 11.5712H13.4778C13.4658 11.583 13.4598 11.5889 13.4598 11.5889C13.4598 11.5771 13.4419 11.5712 13.4059 11.5712C13.346 11.583 13.2861 11.5889 13.2262 11.5889C13.1783 11.5889 13.1244 11.5889 13.0645 11.5889C13.0046 11.5889 12.9627 11.5889 12.9387 11.5889C12.9147 11.5771 12.8788 11.5712 12.8309 11.5712H12.723C12.6871 11.536 12.6452 11.5183 12.5973 11.5183C12.5613 11.5183 12.5194 11.5242 12.4715 11.536C12.4355 11.536 12.4056 11.5477 12.3816 11.5712H12.3277C12.3037 11.5712 12.2858 11.5771 12.2738 11.5889C12.2738 11.5889 12.2618 11.5889 12.2378 11.5889C12.2378 11.6124 12.2139 11.63 12.166 11.6418C12.13 11.6418 12.1001 11.6418 12.0761 11.6418C12.0761 11.6065 12.0462 11.5889 11.9863 11.5889C11.9743 11.6006 11.9683 11.6124 11.9683 11.6242C11.9683 11.6359 11.9743 11.6418 11.9863 11.6418V11.7476C11.9503 11.7476 11.9264 11.7417 11.9144 11.73C11.9024 11.7182 11.8964 11.7065 11.8964 11.6947C11.8724 11.6947 11.8485 11.7065 11.8245 11.73C11.8125 11.7417 11.8006 11.7476 11.7886 11.7476V11.8182L11.7347 11.7476C11.6987 11.7476 11.6808 11.7711 11.6808 11.8182V11.8535C11.6568 11.877 11.6568 11.9064 11.6808 11.9417V12.0299V12.0651C11.6808 12.0769 11.6688 12.0828 11.6448 12.0828L11.5909 12.1357C11.5909 12.1827 11.5729 12.2062 11.537 12.2062V12.2239C11.5729 12.2239 11.5909 12.2415 11.5909 12.2768H11.6448C11.6448 12.3121 11.6568 12.3415 11.6808 12.365V12.4179V12.4708C11.7047 12.4708 11.7227 12.4826 11.7347 12.5061C11.7467 12.5296 11.7646 12.5414 11.7886 12.5414V12.559H11.8425V12.6119C11.8185 12.6355 11.8125 12.6531 11.8245 12.6649C11.8485 12.6766 11.8724 12.6943 11.8964 12.7178C11.9204 12.7178 11.9323 12.7295 11.9323 12.7531H11.9144C11.9024 12.7531 11.8964 12.7413 11.8964 12.7178V12.7531C11.8605 12.7295 11.8245 12.7178 11.7886 12.7178V12.6649C11.7646 12.6413 11.7407 12.6237 11.7167 12.6119C11.6927 12.6002 11.6808 12.5825 11.6808 12.559H11.6448C11.6328 12.5708 11.6089 12.5767 11.5729 12.5767C11.561 12.5767 11.549 12.5708 11.537 12.559C11.513 12.559 11.4831 12.559 11.4471 12.559C11.4112 12.559 11.3932 12.5531 11.3932 12.5414C11.3573 12.4943 11.3333 12.4708 11.3214 12.4708L11.2674 12.4179H11.0518C11.0758 12.3944 11.0877 12.3768 11.0877 12.365C11.0997 12.3415 11.1177 12.3297 11.1416 12.3297C11.1416 12.2709 11.1416 12.2239 11.1416 12.1886C11.1416 12.1416 11.1297 12.0886 11.1057 12.0299C11.0817 11.9828 11.0518 11.9417 11.0159 11.9064C10.9919 11.8711 10.9619 11.8417 10.926 11.8182H10.8541V11.5889H10.8721C10.8601 11.5889 10.8541 11.583 10.8541 11.5712C10.8541 11.5477 10.8421 11.5124 10.8182 11.4654C10.8062 11.4184 10.8002 11.3831 10.8002 11.3596V11.2537C10.8242 11.2537 10.8541 11.2655 10.8901 11.289C10.926 11.3008 10.956 11.3066 10.9799 11.3066C10.9799 11.3184 10.9859 11.3302 10.9979 11.3419C11.0099 11.3537 11.0159 11.3654 11.0159 11.3772C11.0159 11.389 11.0278 11.4007 11.0518 11.4125V11.3066C11.0758 11.3066 11.0877 11.3008 11.0877 11.289C11.0877 11.2655 11.0758 11.2479 11.0518 11.2361V11.1832C11.0758 11.1832 11.0817 11.1832 11.0698 11.1832C11.0698 11.1714 11.0817 11.1538 11.1057 11.1303L11.1416 11.0597H11.1237C11.1117 11.0597 11.1057 11.0479 11.1057 11.0244C11.1177 11.0244 11.1237 11.0185 11.1237 11.0068C11.1237 10.9833 11.1177 10.9715 11.1057 10.9715C11.0698 10.9715 11.0338 10.9891 10.9979 11.0244C10.9859 11.0127 10.9799 10.9891 10.9799 10.9539V10.9362L10.9979 10.9009H11.0518C11.0518 10.8657 11.0338 10.848 10.9979 10.848H11.1057C11.0937 10.8363 11.0877 10.8245 11.0877 10.8128C11.0877 10.7657 11.0937 10.7363 11.1057 10.7246V10.6716C11.1057 10.6481 11.0937 10.6364 11.0698 10.6364H11.0518H10.9979C10.9619 10.6128 10.926 10.607 10.8901 10.6187C10.8541 10.6305 10.8242 10.6246 10.8002 10.6011H10.7463V10.5482H10.7104V10.5305C10.7223 10.5188 10.7343 10.5129 10.7463 10.5129V10.3894H10.7283V10.3718C10.7283 10.36 10.7343 10.3483 10.7463 10.3365C10.7223 10.313 10.7163 10.2836 10.7283 10.2483C10.7403 10.213 10.7343 10.1836 10.7104 10.1601V10.1248H10.7463C10.7463 10.066 10.7403 10.0249 10.7283 10.0014C10.7163 9.97784 10.7104 9.95432 10.7104 9.9308C10.6864 9.90728 10.6624 9.88376 10.6385 9.86024C10.6265 9.82497 10.6085 9.79557 10.5846 9.77205V9.66621C10.5726 9.66621 10.5666 9.66033 10.5666 9.64858C10.5546 9.64858 10.5486 9.64858 10.5486 9.64858C10.5486 9.63682 10.5366 9.63094 10.5127 9.63094C10.4887 9.60742 10.4588 9.59566 10.4228 9.59566C10.3989 9.5839 10.3749 9.56626 10.351 9.54274V9.5251C10.339 9.50158 10.333 9.48982 10.333 9.48982C10.333 9.47806 10.345 9.47218 10.3689 9.47218C10.3809 9.47218 10.3929 9.47806 10.4049 9.48982H10.4588L10.5127 9.43691C10.4887 9.37811 10.4708 9.34871 10.4588 9.34871C10.4468 9.33695 10.4288 9.34283 10.4049 9.36635C10.3809 9.34283 10.3629 9.32519 10.351 9.31343C10.339 9.30167 10.315 9.29579 10.2791 9.29579C10.2431 9.26052 10.1712 9.24288 10.0634 9.24288C10.0634 9.2076 10.0514 9.18996 10.0275 9.18996H10.0095H9.99154H9.75793H9.72199C9.69803 9.16644 9.67407 9.15468 9.65011 9.15468C9.63813 9.14292 9.63214 9.12528 9.63214 9.10176C9.58421 9.10176 9.54228 9.09 9.50634 9.06649C9.4704 9.04297 9.44045 9.03121 9.41649 9.03121H9.2907H9.20085C9.15292 9.01945 9.105 9.01357 9.05708 9.01357C9.02114 9.01357 8.9852 9.01945 8.94926 9.03121L8.89535 9.10176C8.87139 9.12528 8.85342 9.1488 8.84144 9.17232C8.82946 9.19584 8.81149 9.21936 8.78753 9.24288C8.78753 9.27816 8.76956 9.29579 8.73362 9.29579V9.31343V9.36635V9.40163C8.73362 9.42515 8.72164 9.43691 8.69767 9.43691C8.69767 9.44867 8.69168 9.46042 8.6797 9.47218C8.66772 9.48394 8.64376 9.48982 8.60782 9.48982C8.58386 9.51334 8.5599 9.54274 8.53594 9.57802C8.52396 9.6133 8.52995 9.6427 8.55391 9.66621C8.51797 9.68973 8.51797 9.72501 8.55391 9.77205C8.58985 9.77205 8.62579 9.78969 8.66173 9.82497C8.66173 9.89552 8.64376 9.94844 8.60782 9.98372H8.57188C8.5599 9.99548 8.55391 10.0014 8.55391 10.0014C8.52995 10.0014 8.5 10.0131 8.46406 10.0366C8.4401 10.0484 8.41614 10.0543 8.39218 10.0543C8.3802 10.066 8.37421 10.0778 8.37421 10.0896C8.36223 10.1013 8.35624 10.1248 8.35624 10.1601H8.37421V10.1777C8.36223 10.2013 8.35624 10.213 8.35624 10.213C8.35624 10.2483 8.35624 10.2836 8.35624 10.3189C8.35624 10.3541 8.36822 10.4012 8.39218 10.46C8.39218 10.4717 8.39817 10.4835 8.41015 10.4953C8.42213 10.507 8.45208 10.5129 8.5 10.5129C8.52396 10.4894 8.54193 10.4835 8.55391 10.4953C8.56589 10.507 8.60183 10.5129 8.66173 10.5129C8.66173 10.5364 8.66772 10.5482 8.6797 10.5482H8.69767H8.73362L8.69767 10.5129C8.69767 10.5717 8.70966 10.6011 8.73362 10.6011C8.70966 10.6246 8.6797 10.6364 8.64376 10.6364C8.60782 10.6364 8.57787 10.6364 8.55391 10.6364L8.5 10.6011C8.5 10.6246 8.48802 10.6364 8.46406 10.6364H8.42812H8.35624V10.654C8.35624 10.6658 8.33827 10.6716 8.30233 10.6716C8.29035 10.6834 8.28436 10.6952 8.28436 10.7069C8.27238 10.7187 8.26639 10.7481 8.26639 10.7951H8.30233C8.27837 10.8304 8.24841 10.8657 8.21247 10.9009H8.15856C8.15856 10.9127 8.14658 10.9303 8.12262 10.9539C8.11064 10.9656 8.09866 10.9715 8.08668 10.9715C8.12262 10.995 8.14658 11.0244 8.15856 11.0597C8.17054 11.0832 8.18851 11.1244 8.21247 11.1832H8.30233C8.32629 11.2067 8.34426 11.2302 8.35624 11.2537C8.3802 11.2655 8.40416 11.2831 8.42812 11.3066V11.4125C8.42812 11.436 8.4401 11.4536 8.46406 11.4654C8.5 11.4654 8.52995 11.483 8.55391 11.5183H8.5C8.45208 11.5183 8.42812 11.536 8.42812 11.5712H8.5C8.5599 11.5712 8.59584 11.5771 8.60782 11.5889C8.6198 11.6006 8.63777 11.6183 8.66173 11.6418C8.63777 11.6418 8.60782 11.6359 8.57188 11.6242C8.54792 11.6006 8.52396 11.5889 8.5 11.5889C8.42812 11.5889 8.3802 11.583 8.35624 11.5712V11.5889V11.6947C8.35624 11.7065 8.36223 11.7182 8.37421 11.73C8.38619 11.7417 8.40416 11.7476 8.42812 11.7476H8.5H8.42812C8.42812 11.7947 8.47005 11.8182 8.55391 11.8182C8.55391 11.8417 8.58985 11.8535 8.66173 11.8535C8.68569 11.8535 8.69767 11.8829 8.69767 11.9417C8.67371 11.9652 8.64975 11.9887 8.62579 12.0122C8.60183 12.024 8.57787 12.0299 8.55391 12.0299C8.52995 12.0063 8.5 12.0005 8.46406 12.0122C8.4401 12.024 8.41614 12.0299 8.39218 12.0299C8.33228 12.0299 8.30233 12.0475 8.30233 12.0828C8.27837 12.118 8.2604 12.1357 8.24841 12.1357H8.21247C8.17653 12.1827 8.1346 12.2121 8.08668 12.2239H7.96089C7.93693 12.2239 7.91297 12.2415 7.88901 12.2768C7.87703 12.3121 7.88302 12.3415 7.90698 12.365V12.4179V12.4708V12.5414C7.84708 12.5414 7.81712 12.5473 7.81712 12.559C7.78118 12.559 7.75123 12.5708 7.72727 12.5943C7.71529 12.6178 7.69732 12.6413 7.67336 12.6649V12.7001C7.67336 12.7001 7.65539 12.7178 7.61945 12.7531C7.61945 12.8001 7.58351 12.8471 7.51163 12.8942H7.47569H7.43975C7.43975 12.9177 7.44574 12.9353 7.45772 12.9471C7.4697 12.9588 7.46371 12.9765 7.43975 13C7.43975 12.9765 7.42777 12.9647 7.40381 12.9647C7.37985 12.953 7.35588 12.9471 7.33192 12.9471C7.33192 12.9 7.31994 12.8648 7.29598 12.8412C7.284 12.806 7.27801 12.7648 7.27801 12.7178C7.25405 12.6943 7.23608 12.6707 7.2241 12.6472C7.21212 12.6237 7.17618 12.6119 7.11628 12.6119C7.11628 12.5649 7.08633 12.5414 7.02643 12.5414H6.97252H6.88266H6.82875C6.80479 12.5531 6.79281 12.559 6.79281 12.559H6.77484C6.76286 12.5473 6.75088 12.5296 6.7389 12.5061C6.7389 12.4708 6.72093 12.4414 6.68499 12.4179C6.61311 12.3591 6.56519 12.3415 6.54123 12.365C6.49331 12.3885 6.44538 12.3944 6.39746 12.3826C6.34954 12.3709 6.3136 12.3532 6.28964 12.3297C6.28964 12.2944 6.27167 12.2768 6.23573 12.2768H6.18182C6.14588 12.2533 6.10395 12.2415 6.05603 12.2415C6.0081 12.2298 5.97216 12.2239 5.9482 12.2239C5.92424 12.2239 5.90627 12.2298 5.89429 12.2415C5.88231 12.2533 5.86434 12.2474 5.84038 12.2239H5.78647C5.78647 12.2121 5.78048 12.2062 5.7685 12.2062C5.7685 12.1945 5.75652 12.1768 5.73256 12.1533C5.72058 12.1533 5.71459 12.1474 5.71459 12.1357H5.55285C5.55285 12.1004 5.57082 12.0651 5.60677 12.0299C5.63073 12.0299 5.64271 12.0122 5.64271 11.9769C5.61875 11.9769 5.60078 11.9711 5.5888 11.9593C5.5888 11.9475 5.57682 11.9417 5.55285 11.9417V11.9769H5.57082C5.59479 11.9769 5.60677 11.9946 5.60677 12.0299H5.55285C5.51691 11.9946 5.49894 11.9946 5.49894 12.0299H5.48097V12.0828V12.0299V11.9769C5.44503 11.9769 5.42706 11.9946 5.42706 12.0299C5.36716 12.0299 5.31325 12.024 5.26533 12.0122C5.21741 11.9887 5.18147 11.9652 5.15751 11.9417H5.08562C5.08562 11.9064 5.07364 11.8887 5.04968 11.8887H5.03171C4.98379 11.8887 4.94186 11.877 4.90592 11.8535H4.85201H4.78013V11.8182H4.72622C4.70226 11.8417 4.68428 11.8476 4.6723 11.8358C4.6723 11.8241 4.65433 11.8182 4.61839 11.8182C4.55849 11.8182 4.51057 11.8182 4.47463 11.8182C4.43869 11.8064 4.39077 11.7829 4.33087 11.7476H4.22304C4.19908 11.7829 4.16913 11.7947 4.13319 11.7829C4.09725 11.7594 4.0673 11.7476 4.04334 11.7476H3.98943H4.04334C3.98344 11.6888 3.93552 11.6653 3.89958 11.6771C3.87562 11.6888 3.83968 11.6947 3.79175 11.6947C3.79175 11.7182 3.78576 11.73 3.77378 11.73C3.7618 11.7182 3.75581 11.7241 3.75581 11.7476C3.68393 11.7476 3.64799 11.73 3.64799 11.6947L3.57611 11.7476V11.6418C3.56413 11.6418 3.55814 11.6536 3.55814 11.6771C3.55814 11.6888 3.56413 11.6947 3.57611 11.6947C3.51621 11.6359 3.45631 11.6359 3.39641 11.6947C3.37245 11.6947 3.36646 11.6829 3.37844 11.6594C3.39042 11.6242 3.38443 11.6183 3.36047 11.6418V11.6947C3.30056 11.7182 3.26462 11.7241 3.25264 11.7123C3.24066 11.6888 3.22269 11.6653 3.19873 11.6418L3.16279 11.6947C3.16279 11.6594 3.14482 11.6418 3.10888 11.6418C3.07294 11.6418 3.037 11.6242 3.00106 11.5889H2.89323C2.86927 11.5771 2.84531 11.5712 2.82135 11.5712C2.80937 11.5595 2.7914 11.5418 2.76744 11.5183H2.80338C2.80338 11.5536 2.80937 11.5712 2.82135 11.5712H2.85729V11.5183H2.82135C2.80937 11.5183 2.80338 11.536 2.80338 11.5712C2.80338 11.536 2.7914 11.5183 2.76744 11.5183H2.71353H2.65962V11.483C2.65962 11.4595 2.67759 11.4478 2.71353 11.4478H2.76744H2.80338C2.82734 11.4478 2.84531 11.4478 2.85729 11.4478C2.88125 11.436 2.89323 11.4595 2.89323 11.5183C2.89323 11.4713 2.92918 11.4478 3.00106 11.4478C3.06096 11.4478 3.10888 11.4419 3.14482 11.4301C3.19274 11.4184 3.24665 11.4125 3.30655 11.4125C3.33051 11.4125 3.35447 11.4066 3.37844 11.3948C3.4024 11.3713 3.42636 11.3596 3.45032 11.3596C3.47428 11.3831 3.49225 11.389 3.50423 11.3772C3.52819 11.3654 3.55215 11.3596 3.57611 11.3596V11.3066V11.2537C3.55215 11.242 3.54616 11.242 3.55814 11.2537C3.5821 11.2537 3.61205 11.2479 3.64799 11.2361V11.1303C3.61205 11.1303 3.58809 11.1185 3.57611 11.095C3.56413 11.0715 3.54616 11.0597 3.5222 11.0597H3.57611H3.50423C3.50423 11.0009 3.51022 10.9597 3.5222 10.9362H3.50423V10.7951C3.43235 10.7951 3.39641 10.7716 3.39641 10.7246H3.16279L3.10888 10.6716H3.00106C2.9771 10.6364 2.92918 10.6128 2.85729 10.6011C2.78541 10.5776 2.71952 10.5776 2.65962 10.6011C2.62368 10.5658 2.58175 10.5482 2.53383 10.5482C2.46194 10.607 2.40803 10.5952 2.37209 10.5129H2.31818H2.26427V10.46H2.17442C2.13848 10.4953 2.08457 10.5129 2.01269 10.5129L1.97674 10.5482L1.92283 10.6011V10.5482C1.89887 10.5482 1.88689 10.5658 1.88689 10.6011C1.86293 10.5776 1.83298 10.5717 1.79704 10.5834C1.77308 10.5952 1.73115 10.6011 1.67125 10.6011C1.63531 10.6246 1.59338 10.6364 1.54545 10.6364C1.56942 10.6128 1.58739 10.6011 1.59937 10.6011C1.62333 10.5893 1.66526 10.5717 1.72516 10.5482V10.5129C1.74912 10.4894 1.77308 10.4659 1.79704 10.4423C1.83298 10.4071 1.86293 10.3894 1.88689 10.3894V10.3365C1.91085 10.3365 1.92283 10.3306 1.92283 10.3189V10.2836L1.97674 10.2659C1.97674 10.1719 1.98872 10.1013 2.01269 10.0543C2.01269 10.0072 2.04863 9.94844 2.12051 9.87788C2.27625 9.81909 2.32417 9.71913 2.26427 9.57802C2.26427 9.51922 2.25828 9.48982 2.2463 9.48982V9.43691C2.2463 9.38987 2.25229 9.34871 2.26427 9.31343C2.28823 9.30167 2.30021 9.27816 2.30021 9.24288C2.31219 9.2076 2.31818 9.1782 2.31818 9.15468V9.10176H2.37209H2.46194L2.51586 9.03121C2.52784 9.01945 2.53383 9.01357 2.53383 9.01357C2.56977 8.99005 2.59373 8.96653 2.60571 8.94301C2.61769 8.90773 2.63566 8.87834 2.65962 8.85482H2.60571C2.58175 8.84306 2.56977 8.8313 2.56977 8.81954C2.55779 8.80778 2.56977 8.79014 2.60571 8.76662V8.69607V8.66079C2.55779 8.66079 2.53383 8.65491 2.53383 8.64315C2.52185 8.64315 2.52185 8.63727 2.53383 8.62551C2.52185 8.62551 2.51586 8.61963 2.51586 8.60787V8.57259C2.44397 8.57259 2.40803 8.53731 2.40803 8.46676V8.41384L2.37209 8.37856C2.37209 8.30801 2.38407 8.26097 2.40803 8.23745C2.40803 8.20217 2.39605 8.16689 2.37209 8.13161L2.31818 8.0787V7.9905C2.29422 7.9905 2.27026 7.95522 2.2463 7.88467C2.19838 7.88467 2.17442 7.90231 2.17442 7.93758H2.12051V8.06106H2.0666H2.01269V8.0787C2.0007 8.0787 1.97075 8.0493 1.92283 7.9905C1.89887 7.96698 1.87491 7.94934 1.85095 7.93758C1.82699 7.92583 1.80303 7.90819 1.77907 7.88467C1.70719 7.88467 1.67125 7.87291 1.67125 7.84939C1.64729 7.82587 1.60536 7.80235 1.54545 7.77883C1.49753 7.75531 1.46159 7.73768 1.43763 7.72592C1.43763 7.69064 1.42565 7.67888 1.40169 7.69064C1.37773 7.7024 1.35377 7.69064 1.32981 7.65536H1.38372H1.32981H1.25793C1.23397 7.65536 1.20402 7.64948 1.16808 7.63772C1.13214 7.6142 1.10218 7.60244 1.07822 7.60244H0.988372H0.862579H0.790698C0.730796 7.60244 0.694855 7.5848 0.682875 7.54952H0.646935C0.599013 7.54952 0.551092 7.54365 0.503171 7.53189C0.45525 7.50837 0.419309 7.49661 0.395349 7.49661C0.323467 7.49661 0.287526 7.48485 0.287526 7.46133C0.275546 7.46133 0.263566 7.46721 0.251586 7.47897C0.251586 7.49073 0.239605 7.49661 0.215645 7.49661H0.0539112H0V7.46133V7.42605H0.161734C0.197674 7.39077 0.239605 7.37313 0.287526 7.37313C0.287526 7.30258 0.323467 7.2673 0.395349 7.2673C0.467231 7.2673 0.539112 7.23202 0.610994 7.16147C0.646935 7.13795 0.688866 7.12031 0.736786 7.10855C0.784708 7.08503 0.826639 7.06151 0.862579 7.03799H0.988372H1.07822C1.11416 7.03799 1.13214 7.05563 1.13214 7.09091V7.10855C1.216 7.10855 1.25793 7.12619 1.25793 7.16147H1.32981L1.36575 7.19674C1.37773 7.2085 1.40169 7.21438 1.43763 7.21438V7.24966C1.43763 7.26142 1.44961 7.2673 1.47357 7.2673V7.21438C1.44961 7.1791 1.44961 7.16147 1.47357 7.16147C1.47357 7.12619 1.49753 7.10855 1.54545 7.10855V7.09091H1.56343C1.58739 7.09091 1.59937 7.07327 1.59937 7.03799L1.61734 6.96744C1.61734 7.01447 1.63531 7.03799 1.67125 7.03799C1.64729 7.01447 1.63531 7.00271 1.63531 7.00271C1.64729 6.99095 1.65328 6.97919 1.65328 6.96744C1.65328 6.95568 1.65927 6.94392 1.67125 6.93216V6.80868H1.77907C1.77907 6.78516 1.76709 6.76753 1.74313 6.75577C1.73115 6.74401 1.72516 6.72637 1.72516 6.70285H1.83298C1.86892 6.70285 1.88689 6.67933 1.88689 6.63229C1.88689 6.59701 1.89887 6.57938 1.92283 6.57938C1.95877 6.5441 1.97674 6.52646 1.97674 6.52646V6.49118C2.03665 6.43238 2.0666 6.39123 2.0666 6.36771C2.0666 6.34419 2.07259 6.32655 2.08457 6.31479C2.09655 6.31479 2.10853 6.30891 2.12051 6.29715H2.17442L2.2463 6.24423H2.26427C2.26427 6.20895 2.27026 6.19132 2.28224 6.19132H2.31818H2.40803C2.40803 6.1678 2.41402 6.15604 2.426 6.15604C2.44996 6.15604 2.46194 6.14428 2.46194 6.12076H2.51586C2.51586 6.06196 2.52185 6.03256 2.53383 6.03256C2.53383 5.99729 2.54581 5.97377 2.56977 5.96201C2.59373 5.95025 2.60571 5.93261 2.60571 5.90909V5.89145C2.60571 5.86793 2.62368 5.85617 2.65962 5.85617V5.78562C2.6117 5.69154 2.6117 5.62099 2.65962 5.57395V5.55631C2.65962 5.53279 2.67759 5.52103 2.71353 5.52103H2.76744V5.50339C2.7914 5.46811 2.80338 5.4152 2.80338 5.34464V5.23881C2.77942 5.23881 2.76744 5.22705 2.76744 5.20353V5.06241C2.76744 4.9801 2.77942 4.93894 2.80338 4.93894C2.81536 4.92718 2.82135 4.90954 2.82135 4.88602C2.82135 4.87427 2.81536 4.86839 2.80338 4.86839C2.77942 4.83311 2.77942 4.81547 2.80338 4.81547V4.72727C2.80338 4.60968 2.82135 4.545 2.85729 4.53324C2.82135 4.49796 2.80338 4.46269 2.80338 4.42741L2.89323 4.33921V4.26866C2.92918 4.24514 2.94715 4.22162 2.94715 4.1981V4.09227L3.05497 4.1981V4.03935C3.05497 3.96879 3.037 3.92175 3.00106 3.89824C2.98908 3.88648 2.98309 3.87472 2.98309 3.86296C2.98309 3.83944 2.98908 3.8218 3.00106 3.81004V3.70421V3.56309H3.05497C3.07893 3.53957 3.0969 3.51606 3.10888 3.49254C3.12086 3.46902 3.13883 3.4455 3.16279 3.42198V3.31615C3.16279 3.30439 3.17477 3.27499 3.19873 3.22795C3.17477 3.20443 3.16878 3.18091 3.18076 3.15739C3.19274 3.13388 3.18675 3.12212 3.16279 3.12212V3.0692C3.16279 3.0104 3.14482 2.96924 3.10888 2.94573C3.08492 2.91045 3.06096 2.89281 3.037 2.89281C3.01304 2.88105 3.00106 2.86341 3.00106 2.83989C3.00106 2.80461 2.98908 2.78697 2.96512 2.78697H2.94715C2.94715 2.7517 2.93517 2.73406 2.91121 2.73406H2.89323C2.86927 2.69878 2.85729 2.67526 2.85729 2.6635L2.89323 2.61058C2.94116 2.61058 2.99507 2.55767 3.05497 2.45183H3.16279C3.16279 2.42831 3.16878 2.41067 3.18076 2.39891C3.19274 2.38715 3.19873 2.36364 3.19873 2.32836C3.22269 2.32836 3.23467 2.2872 3.23467 2.20488H3.30655C3.33051 2.14609 3.34249 2.11081 3.34249 2.09905C3.35448 2.07553 3.36047 2.03437 3.36047 1.97558C3.42037 1.91678 3.45032 1.86386 3.45032 1.81682C3.42636 1.79331 3.42037 1.76979 3.43235 1.74627C3.44433 1.72275 3.45032 1.70511 3.45032 1.69335V1.58752V1.42876V1.25237C3.47428 1.19358 3.48626 1.15242 3.48626 1.1289C3.49824 1.09362 3.50423 1.05834 3.50423 1.02307V0.846675C3.50423 0.787878 3.51022 0.746721 3.5222 0.723202C3.5821 0.676165 3.63601 0.605608 3.68393 0.511533C3.73185 0.417458 3.75581 0.341022 3.75581 0.282225L3.79175 0.246947C3.79175 0.293985 3.78576 0.335142 3.77378 0.37042C3.7618 0.393939 3.75581 0.423338 3.75581 0.458616V0.511533C3.75581 0.593849 3.73784 0.635007 3.7019 0.635007C3.7019 0.658525 3.70789 0.676164 3.71987 0.687924C3.74383 0.687924 3.75581 0.699683 3.75581 0.723202C3.75581 0.734962 3.74383 0.7526 3.71987 0.776119L3.7019 0.793759H3.64799V0.846675L3.57611 0.917232C3.62403 0.917232 3.64799 0.95251 3.64799 1.02307H3.57611V1.05834C3.57611 1.08186 3.58809 1.0995 3.61205 1.11126C3.63601 1.11126 3.64799 1.12302 3.64799 1.14654H3.66596C3.68992 1.14654 3.7019 1.1583 3.7019 1.18182C3.66596 1.18182 3.63601 1.19358 3.61205 1.2171L3.57611 1.25237C3.51621 1.31117 3.51621 1.35233 3.57611 1.37585C3.62403 1.41113 3.66596 1.4464 3.7019 1.48168C3.7019 1.55224 3.68393 1.60516 3.64799 1.64043H3.57611V1.65807H3.55814C3.53418 1.65807 3.5222 1.65219 3.5222 1.64043V1.86974V1.97558C3.5222 2.05789 3.49824 2.11669 3.45032 2.15197C3.42636 2.17549 3.40839 2.21076 3.39641 2.2578C3.39641 2.30484 3.39641 2.33424 3.39641 2.346H3.45032C3.47428 2.40479 3.49225 2.44007 3.50423 2.45183C3.52819 2.45183 3.55215 2.46359 3.57611 2.48711H3.64799V2.54003H3.57611V2.6635C3.56413 2.67526 3.56413 2.68114 3.57611 2.68114H3.64799V2.73406C3.67195 2.73406 3.67794 2.74582 3.66596 2.76934C3.65398 2.79285 3.64799 2.81637 3.64799 2.83989C3.64799 2.86341 3.66596 2.89869 3.7019 2.94573H3.64799C3.64799 2.981 3.642 3.01628 3.63002 3.05156C3.61804 3.07508 3.5821 3.0986 3.5222 3.12212L3.50423 3.17503C3.50423 3.15152 3.49225 3.13976 3.46829 3.13976C3.45631 3.13976 3.45032 3.15152 3.45032 3.17503L3.39641 3.22795C3.37245 3.26323 3.35448 3.28675 3.34249 3.29851C3.33051 3.31027 3.3365 3.33379 3.36047 3.36906C3.36047 3.39258 3.35448 3.4161 3.34249 3.43962C3.33051 3.46314 3.29457 3.48666 3.23467 3.51018C3.22269 3.53369 3.2167 3.54545 3.2167 3.54545V3.56309H3.19873C3.19873 3.61013 3.21071 3.63953 3.23467 3.65129C3.17477 3.74536 3.16279 3.83944 3.19873 3.93351L3.23467 3.98643C3.23467 4.04523 3.24665 4.08051 3.27061 4.09227C3.29457 4.10402 3.30655 4.12166 3.30655 4.14518C3.30655 4.18046 3.3365 4.1981 3.39641 4.1981H3.50423H3.57611H3.64799C3.60007 4.22162 3.57611 4.26866 3.57611 4.33921H3.54017C3.52819 4.33921 3.5222 4.35097 3.5222 4.37449C3.51022 4.37449 3.46829 4.40977 3.39641 4.48033C3.36047 4.53912 3.36047 4.6038 3.39641 4.67436V4.76255C3.37245 4.76255 3.36047 4.79783 3.36047 4.86839V4.88602C3.36047 4.89778 3.36646 4.90954 3.37844 4.9213C3.37844 4.93306 3.37844 4.94482 3.37844 4.95658C3.39042 4.96834 3.39641 4.98598 3.39641 5.0095C3.37245 5.03302 3.35448 5.05654 3.34249 5.08005C3.34249 5.10357 3.33051 5.11533 3.30655 5.11533V5.20353C3.30655 5.22705 3.31254 5.25057 3.32452 5.27408C3.34848 5.28584 3.36047 5.30936 3.36047 5.34464C3.38443 5.37992 3.39641 5.43284 3.39641 5.50339C3.37245 5.50339 3.36047 5.52691 3.36047 5.57395C3.34848 5.57395 3.34249 5.58571 3.34249 5.60923C3.34249 5.62099 3.34848 5.62687 3.36047 5.62687C3.40839 5.69742 3.40839 5.7327 3.36047 5.7327C3.36047 5.80326 3.34249 5.83853 3.30655 5.83853C3.30655 5.85029 3.29457 5.86793 3.27061 5.89145C3.24665 5.91497 3.23467 5.93849 3.23467 5.96201L3.19873 6.03256C3.17477 6.03256 3.1568 6.03844 3.14482 6.0502C3.14482 6.06196 3.13284 6.06784 3.10888 6.06784V6.15604C3.10888 6.21483 3.09091 6.24423 3.05497 6.24423C3.07893 6.26775 3.08492 6.28539 3.07294 6.29715C3.06096 6.30891 3.05497 6.33243 3.05497 6.36771V6.40298C3.05497 6.41474 3.037 6.42062 3.00106 6.42062C3.00106 6.44414 2.98309 6.46766 2.94715 6.49118V6.57938H2.89323H2.85729C2.82135 6.61465 2.7914 6.63229 2.76744 6.63229C2.7315 6.67933 2.69556 6.72049 2.65962 6.75577L2.62368 6.79104C2.6117 6.81456 2.60571 6.82632 2.60571 6.82632V6.87924L2.65962 6.93216C2.65962 6.95568 2.66561 6.96744 2.67759 6.96744H2.71353C2.72551 6.97919 2.7315 6.99095 2.7315 7.00271C2.7315 7.02623 2.72551 7.03799 2.71353 7.03799V7.09091V7.16147V7.32022C2.74947 7.3555 2.76744 7.40253 2.76744 7.46133H2.89323C2.90522 7.47309 2.9172 7.47897 2.92918 7.47897H2.94715V7.49661H3.00106C3.07294 7.49661 3.12685 7.48485 3.16279 7.46133H3.10888H3.19873C3.17477 7.43781 3.17477 7.42605 3.19873 7.42605C3.22269 7.40253 3.23467 7.39665 3.23467 7.40841C3.24665 7.42017 3.27061 7.42605 3.30655 7.42605C3.36646 7.42605 3.39641 7.40841 3.39641 7.37313C3.42037 7.37313 3.43834 7.36725 3.45032 7.3555C3.4623 7.34374 3.48027 7.34962 3.50423 7.37313V7.32022C3.50423 7.2967 3.51022 7.29082 3.5222 7.30258C3.53418 7.31434 3.55215 7.32022 3.57611 7.32022H3.64799H3.66596C3.68992 7.32022 3.7019 7.30258 3.7019 7.2673C3.72586 7.2673 3.73784 7.27906 3.73784 7.30258C3.74982 7.31434 3.76779 7.32022 3.79175 7.32022V7.21438C3.81572 7.2379 3.83369 7.25554 3.84567 7.2673C3.86963 7.27906 3.89359 7.2967 3.91755 7.32022C3.95349 7.34374 3.96547 7.36137 3.95349 7.37313C3.94151 7.37313 3.95349 7.37313 3.98943 7.37313V7.32022V7.2673L4.04334 7.32022V7.37313C4.09126 7.3261 4.15116 7.3261 4.22304 7.37313H4.27696V7.32022H4.43869C4.52255 7.32022 4.58245 7.33786 4.61839 7.37313H4.72622L4.78013 7.32022H4.85201H4.90592H4.95983V7.21438C5.00775 7.21438 5.0377 7.2085 5.04968 7.19674L5.08562 7.16147C5.08562 7.12619 5.0976 7.10267 5.12156 7.09091H5.10359V7.07327C5.10359 7.06151 5.10958 7.04975 5.12156 7.03799V6.96744C5.18147 6.90864 5.21142 6.8616 5.21142 6.82632C5.23538 6.87336 5.24736 6.89688 5.24736 6.89688V6.93216C5.25934 6.93216 5.26533 6.92628 5.26533 6.91452C5.26533 6.891 5.25934 6.87924 5.24736 6.87924C5.27132 6.85572 5.30127 6.83808 5.33721 6.82632C5.37315 6.8028 5.4031 6.77929 5.42706 6.75577V6.80868C5.39112 6.82044 5.37315 6.8616 5.37315 6.93216V7.09091C5.39711 7.10267 5.4031 7.11443 5.39112 7.12619C5.39112 7.12619 5.36117 7.13795 5.30127 7.16147C5.39711 7.16147 5.39711 7.19674 5.30127 7.2673H5.42706C5.36716 7.3261 5.36716 7.37901 5.42706 7.42605C5.42706 7.44957 5.43305 7.46133 5.44503 7.46133H5.48097C5.49295 7.48485 5.51691 7.49661 5.55285 7.49661C5.5888 7.49661 5.60677 7.53189 5.60677 7.60244C5.60677 7.56716 5.61276 7.54952 5.62474 7.54952H5.64271H5.71459L5.64271 7.60244C5.64271 7.68476 5.66667 7.72592 5.71459 7.72592V7.74355V7.79647C5.73855 7.79647 5.75652 7.80823 5.7685 7.83175C5.79246 7.84351 5.81642 7.84939 5.84038 7.84939H5.89429C5.90627 7.86115 5.93023 7.86703 5.96617 7.86703C5.97815 7.86703 5.99013 7.86115 6.00211 7.84939C6.02607 7.82587 6.05603 7.81999 6.09197 7.83175C6.12791 7.84351 6.15786 7.84939 6.18182 7.84939C6.20578 7.84939 6.22974 7.85527 6.2537 7.86703C6.28964 7.87879 6.31959 7.88467 6.34355 7.88467C6.37949 7.88467 6.40345 7.89643 6.41543 7.91995C6.43939 7.93171 6.46335 7.93758 6.48732 7.93758H6.63108V7.88467C6.65504 7.88467 6.679 7.87879 6.70296 7.86703C6.7389 7.85527 6.76286 7.84939 6.77484 7.84939H6.82875V7.79647C6.86469 7.79647 6.90063 7.77883 6.93658 7.74355C6.96054 7.7318 6.99049 7.72592 7.02643 7.72592C7.02643 7.69064 7.03841 7.67888 7.06237 7.69064C7.08633 7.7024 7.1043 7.69064 7.11628 7.65536C7.14024 7.63184 7.15821 7.63772 7.17019 7.673C7.18217 7.69652 7.20014 7.69064 7.2241 7.65536V7.60244C7.27202 7.60244 7.31994 7.56716 7.36787 7.49661C7.40381 7.49661 7.42178 7.49073 7.42178 7.47897C7.43376 7.46721 7.45173 7.44957 7.47569 7.42605L7.49366 7.40841C7.51762 7.38489 7.54158 7.37313 7.56554 7.37313C7.56554 7.34962 7.57153 7.3261 7.58351 7.30258C7.60747 7.2673 7.61945 7.2379 7.61945 7.21438C7.67935 7.19086 7.71529 7.16734 7.72727 7.14383C7.75123 7.10855 7.78118 7.07327 7.81712 7.03799C7.84109 6.97919 7.85307 6.94392 7.85307 6.93216C7.86505 6.9204 7.88302 6.90276 7.90698 6.87924C7.94292 6.84396 7.97886 6.82044 8.0148 6.80868C8.0148 6.77341 8.03277 6.75577 8.06871 6.75577H8.21247C8.24841 6.75577 8.27837 6.74989 8.30233 6.73813C8.32629 6.72637 8.34426 6.71461 8.35624 6.70285C8.39218 6.62053 8.4401 6.57938 8.5 6.57938V6.63229C8.57188 6.63229 8.60782 6.61465 8.60782 6.57938C8.6198 6.56762 8.64376 6.56174 8.6797 6.56174C8.69168 6.56174 8.69767 6.56762 8.69767 6.57938C8.69767 6.61465 8.70966 6.63229 8.73362 6.63229V6.57938C8.73362 6.55586 8.75159 6.5441 8.78753 6.5441C8.84743 6.56762 8.88936 6.57938 8.91332 6.57938C8.94926 6.57938 8.97921 6.57938 9.00317 6.57938C9.08703 6.57938 9.12896 6.56762 9.12896 6.5441C9.17689 6.50882 9.20085 6.47942 9.20085 6.4559H9.2907H9.30867C9.33263 6.4559 9.34461 6.44414 9.34461 6.42062C9.35659 6.39711 9.38055 6.37947 9.41649 6.36771C9.46441 6.35595 9.50634 6.33243 9.54228 6.29715C9.56624 6.29715 9.57822 6.29127 9.57822 6.27951C9.5902 6.25599 9.60818 6.24423 9.63214 6.24423V6.22659C9.63214 6.20308 9.65011 6.19132 9.68605 6.19132L9.72199 6.15604C9.74595 6.15604 9.75793 6.15016 9.75793 6.1384V6.12076C9.79387 6.12076 9.81184 6.10312 9.81184 6.06784C9.84778 6.09136 9.87773 6.09724 9.90169 6.08548C9.93763 6.07372 9.96758 6.05608 9.99154 6.03256H9.81184V5.96201C9.84778 5.93849 9.87174 5.91497 9.88372 5.89145C9.8957 5.86793 9.91367 5.85617 9.93763 5.85617C9.96159 5.85617 9.97956 5.85617 9.99154 5.85617C10.0155 5.84441 10.0395 5.83853 10.0634 5.83853C10.0994 5.83853 10.1173 5.83265 10.1173 5.8209V5.78562V5.67978V5.52103C10.1173 5.50927 10.1233 5.50339 10.1353 5.50339C10.1593 5.49163 10.1712 5.47399 10.1712 5.45047C10.1712 5.4152 10.1772 5.39168 10.1892 5.37992L10.2252 5.34464V5.27408C10.1173 5.23881 10.0994 5.16825 10.1712 5.06241C10.1952 5.0389 10.2192 5.00362 10.2431 4.95658C10.2671 4.90954 10.2791 4.88014 10.2791 4.86839V4.67436V4.6038V4.72727H10.2431C10.2311 4.72727 10.2252 4.70963 10.2252 4.67436V4.55088H10.2072C10.1832 4.53912 10.1712 4.53324 10.1712 4.53324C10.2072 4.49796 10.2072 4.48033 10.1712 4.48033C10.1712 4.44505 10.1533 4.40977 10.1173 4.37449C10.1173 4.35097 10.0994 4.31569 10.0634 4.26866C10.0634 4.24514 10.0455 4.23338 10.0095 4.23338C10.0335 4.23338 10.0514 4.2275 10.0634 4.21574C10.0754 4.20398 10.0934 4.1981 10.1173 4.1981H10.1712H10.2252H10.2431C10.2671 4.1981 10.2791 4.18046 10.2791 4.14518C10.315 4.14518 10.339 4.12754 10.351 4.09227C10.3629 4.05699 10.3809 4.03935 10.4049 4.03935C10.4288 4.01583 10.4408 3.98643 10.4408 3.95115C10.4528 3.90412 10.4588 3.86884 10.4588 3.84532C10.4588 3.79828 10.4468 3.763 10.4228 3.73948C10.3989 3.70421 10.3749 3.66893 10.351 3.63365C10.339 3.63365 10.333 3.62189 10.333 3.59837V3.56309C10.345 3.53957 10.3629 3.52194 10.3869 3.51018C10.4109 3.49842 10.4348 3.46902 10.4588 3.42198L10.5127 3.36906C10.5127 3.3573 10.5187 3.34554 10.5307 3.33379C10.5307 3.32203 10.5307 3.31027 10.5307 3.29851C10.5426 3.27499 10.5366 3.25147 10.5127 3.22795C10.5127 3.16915 10.5247 3.128 10.5486 3.10448C10.5726 3.0692 10.5846 3.02804 10.5846 2.981C10.5846 2.95749 10.5906 2.94573 10.6025 2.94573H10.6205C10.6564 2.89869 10.6744 2.84577 10.6744 2.78697H10.6924V2.76934C10.7044 2.75758 10.7104 2.74582 10.7104 2.73406V2.6635C10.7104 2.62822 10.6984 2.58706 10.6744 2.54003V2.48711C10.7104 2.48711 10.7104 2.45771 10.6744 2.39891V2.346H10.6205V2.32836C10.6564 2.32836 10.6744 2.31072 10.6744 2.27544H10.7104V2.20488C10.7104 2.14609 10.7163 2.10493 10.7283 2.08141C10.7403 2.05789 10.7463 2.02261 10.7463 1.97558C10.7822 1.97558 10.8182 1.98734 10.8541 2.01086C10.8541 1.96382 10.8362 1.9403 10.8002 1.9403V1.81682V1.64043C10.7763 1.61692 10.7703 1.58164 10.7822 1.5346C10.7942 1.48756 10.8002 1.45228 10.8002 1.42876V1.37585C10.7643 1.37585 10.7643 1.36997 10.8002 1.35821V1.30529C10.8841 1.30529 10.926 1.28765 10.926 1.25237C10.95 1.25237 10.9619 1.24061 10.9619 1.2171C10.9739 1.19358 10.9859 1.18182 10.9979 1.18182C11.0338 1.1583 11.0518 1.11714 11.0518 1.05834C11.0518 1.01131 11.0578 0.981909 11.0698 0.970149C11.0937 0.95839 11.1177 0.940751 11.1416 0.917232H11.1956C11.2315 0.858435 11.2375 0.817277 11.2135 0.793759C11.2016 0.75848 11.1956 0.717322 11.1956 0.670285H11.2674H11.1956C11.1956 0.646766 11.1776 0.617368 11.1416 0.582089C11.1416 0.464496 11.0937 0.399819 10.9979 0.38806C10.9859 0.38806 10.9799 0.352782 10.9799 0.282225V0.246947V0.123473C10.9919 0.111714 10.9979 0.0705561 10.9979 0H11.0518C11.0877 0.0352784 11.0877 0.0705564 11.0518 0.105834V0.123473L11.1057 0.105834C11.1297 0.129353 11.1416 0.141113 11.1416 0.141113V0.176391C11.1177 0.223428 11.1057 0.258706 11.1057 0.282225C11.1297 0.258706 11.1416 0.223428 11.1416 0.176391ZM10.9979 2.20488V2.27544C11.0338 2.2284 11.0338 2.20488 10.9979 2.20488V2.15197C10.9979 2.17549 10.9919 2.20488 10.9799 2.24016C10.9799 2.27544 10.9799 2.30484 10.9799 2.32836C10.9919 2.29308 10.9979 2.25192 10.9979 2.20488ZM3.23467 5.06241H3.27061C3.29457 5.06241 3.30655 5.08005 3.30655 5.11533C3.30655 5.08005 3.28259 5.06241 3.23467 5.06241H3.30655C3.30655 5.0389 3.30056 5.02126 3.28858 5.0095C3.28858 4.99774 3.27061 4.97422 3.23467 4.93894V5.0095C3.21071 5.0095 3.21071 5.02714 3.23467 5.06241ZM3.50423 2.68114C3.43235 2.68114 3.39641 2.67526 3.39641 2.6635C3.38443 2.65174 3.37844 2.63998 3.37844 2.62822V2.61058H3.36047V2.6635C3.36047 2.67526 3.34848 2.68114 3.32452 2.68114H3.30655V2.73406H3.27061C3.24665 2.73406 3.23467 2.7517 3.23467 2.78697C3.23467 2.84577 3.2766 2.87517 3.36047 2.87517C3.38443 2.87517 3.40839 2.88693 3.43235 2.91045C3.45631 2.93397 3.48027 2.94573 3.50423 2.94573C3.51621 2.89869 3.5222 2.86341 3.5222 2.83989C3.51022 2.83989 3.50423 2.83401 3.50423 2.82225V2.78697V2.68114V2.71642C3.50423 2.72818 3.51022 2.73406 3.5222 2.73406L3.50423 2.68114ZM10.0095 8.0787C10.0095 8.03166 10.0275 7.99638 10.0634 7.97286C10.1113 7.93758 10.1653 7.89643 10.2252 7.84939C10.2012 7.82587 10.1952 7.80823 10.2072 7.79647C10.2192 7.78471 10.2252 7.76119 10.2252 7.72592V7.65536V7.54952V7.49661C10.1892 7.49661 10.1712 7.49073 10.1712 7.47897V7.46133V7.42605C10.1473 7.36725 10.1293 7.3261 10.1173 7.30258C10.1054 7.2673 10.0874 7.22026 10.0634 7.16147C10.0754 7.14971 10.0814 7.13207 10.0814 7.10855C10.0814 7.09679 10.0754 7.09091 10.0634 7.09091V7.03799V6.93216C10.0634 6.84984 10.0455 6.79104 10.0095 6.75577C10.0095 6.74401 10.0035 6.73225 9.99154 6.72049C9.97956 6.70873 9.96159 6.67933 9.93763 6.63229H9.88372C9.88372 6.59701 9.85976 6.57938 9.81184 6.57938V6.5441C9.7759 6.50882 9.74595 6.49118 9.72199 6.49118C9.71001 6.49118 9.69204 6.50294 9.66808 6.52646C9.6561 6.53822 9.64412 6.5441 9.63214 6.5441C9.60818 6.59113 9.5902 6.63229 9.57822 6.66757C9.56624 6.70285 9.5303 6.73225 9.4704 6.75577C9.43446 6.75577 9.39852 6.77341 9.36258 6.80868H9.2907C9.26674 6.79692 9.24877 6.78516 9.23679 6.77341C9.23679 6.76165 9.2308 6.75577 9.21882 6.75577H9.20085H9.07505C9.06307 6.75577 9.0451 6.76753 9.02114 6.79104C8.99718 6.8028 8.97322 6.80868 8.94926 6.80868C8.94926 6.82044 8.93728 6.8322 8.91332 6.84396C8.88936 6.84396 8.8654 6.85572 8.84144 6.87924C8.84144 6.90276 8.82946 6.9204 8.8055 6.93216C8.78154 6.93216 8.75758 6.94392 8.73362 6.96744H8.69767V7.09091C8.69767 7.13795 8.68569 7.1791 8.66173 7.21438C8.63777 7.21438 8.62579 7.2379 8.62579 7.28494C8.62579 7.32022 8.63777 7.34962 8.66173 7.37313V7.40841C8.66173 7.42017 8.67371 7.42605 8.69767 7.42605C8.67371 7.43781 8.66173 7.44369 8.66173 7.44369V7.46133C8.66173 7.48485 8.64975 7.49661 8.62579 7.49661H8.60782H8.5C8.40416 7.49661 8.35624 7.51425 8.35624 7.54952C8.3203 7.54952 8.30233 7.56716 8.30233 7.60244C8.30233 7.68476 8.3203 7.7318 8.35624 7.74355C8.3802 7.77883 8.42812 7.79647 8.5 7.79647C8.52396 7.79647 8.54792 7.80823 8.57188 7.83175C8.60782 7.84351 8.63777 7.84939 8.66173 7.84939V7.93758C8.62579 7.93758 8.60782 7.95522 8.60782 7.9905C8.57188 7.9905 8.55391 8.00226 8.55391 8.02578V8.06106C8.58985 8.07282 8.58985 8.09634 8.55391 8.13161C8.55391 8.20217 8.57188 8.24921 8.60782 8.27273V8.37856C8.60782 8.40208 8.62579 8.43148 8.66173 8.46676C8.68569 8.46676 8.70366 8.47852 8.71565 8.50204C8.73961 8.51379 8.76357 8.51967 8.78753 8.51967C8.84743 8.54319 8.88337 8.56083 8.89535 8.57259C8.90733 8.57259 8.94327 8.57259 9.00317 8.57259H9.05708H9.07505C9.15892 8.57259 9.20085 8.59023 9.20085 8.62551H9.23679C9.26075 8.60199 9.28471 8.59611 9.30867 8.60787C9.33263 8.61963 9.3506 8.62551 9.36258 8.62551H9.54228C9.57822 8.64903 9.62615 8.66079 9.68605 8.66079H9.75793L9.81184 8.62551C9.81184 8.51967 9.8358 8.44912 9.88372 8.41384H9.93763V8.27273C9.97357 8.24921 9.99154 8.21981 9.99154 8.18453C9.99154 8.11398 9.99753 8.07282 10.0095 8.06106V8.0787C9.99753 8.0787 9.99154 8.09046 9.99154 8.11398V8.13161L10.0095 8.18453V8.0787ZM4.83404 11.1832C4.84602 11.1832 4.85201 11.1773 4.85201 11.1655V11.1303C4.89993 11.0597 4.93587 11.0244 4.95983 11.0244L5.03171 11.0597V11.0244C5.03171 10.9891 5.04968 10.9715 5.08562 10.9715L5.10359 10.9539C5.11557 10.9539 5.12156 10.9539 5.12156 10.9539C5.13354 10.9421 5.14553 10.9362 5.15751 10.9362C5.15751 10.9127 5.17548 10.9009 5.21142 10.9009V10.9362L5.15751 10.9715C5.13354 10.9715 5.12156 11.0009 5.12156 11.0597C5.0976 11.095 5.09161 11.1244 5.10359 11.1479C5.11557 11.1714 5.10958 11.1832 5.08562 11.1832V11.2537C5.08562 11.289 5.06765 11.3066 5.03171 11.3066L5.08562 11.3596C5.10958 11.3596 5.12156 11.3713 5.12156 11.3948V11.4125H5.08562V11.4478H5.12156H5.21142C5.25934 11.483 5.28929 11.5066 5.30127 11.5183C5.32523 11.5183 5.36716 11.5183 5.42706 11.5183C5.47498 11.5183 5.49894 11.536 5.49894 11.5712C5.53488 11.536 5.57082 11.5183 5.60677 11.5183C5.63073 11.5183 5.64271 11.5066 5.64271 11.483C5.65469 11.4595 5.67865 11.436 5.71459 11.4125C5.73855 11.4125 5.75652 11.4007 5.7685 11.3772C5.79246 11.3537 5.81642 11.3302 5.84038 11.3066C5.86434 11.3302 5.8883 11.3478 5.91226 11.3596C5.9482 11.3713 5.97815 11.389 6.00211 11.4125C6.03806 11.436 6.074 11.4713 6.10994 11.5183C6.10994 11.5418 6.1339 11.5654 6.18182 11.5889H6.23573C6.25969 11.5889 6.27766 11.5948 6.28964 11.6065C6.30162 11.6183 6.31959 11.63 6.34355 11.6418V11.6947C6.39147 11.6947 6.42741 11.6771 6.45137 11.6418C6.45137 11.6771 6.43939 11.7123 6.41543 11.7476H6.48732C6.53524 11.7476 6.57118 11.7594 6.59514 11.7829C6.63108 11.8064 6.66103 11.8182 6.68499 11.8182C6.73291 11.8417 6.76286 11.8535 6.77484 11.8535H6.82875H6.88266C6.90662 11.8535 6.93058 11.8593 6.95455 11.8711C6.97851 11.8829 7.00247 11.8887 7.02643 11.8887L7.09831 11.8535C7.14623 11.8535 7.18816 11.8417 7.2241 11.8182L7.24207 11.8005C7.26603 11.8005 7.27801 11.8064 7.27801 11.8182C7.33791 11.8182 7.39183 11.7947 7.43975 11.7476C7.43975 11.6653 7.44574 11.6124 7.45772 11.5889C7.48168 11.5536 7.51762 11.5066 7.56554 11.4478C7.56554 11.389 7.58351 11.3419 7.61945 11.3066H7.67336C7.67336 11.2596 7.69732 11.2361 7.74524 11.2361C7.82911 11.2361 7.88302 11.2185 7.90698 11.1832H7.81712C7.85307 11.1479 7.87104 11.1067 7.87104 11.0597C7.82312 10.9891 7.82312 10.9186 7.87104 10.848H7.81712V10.7951C7.80514 10.8069 7.79316 10.8069 7.78118 10.7951C7.75722 10.7951 7.74524 10.7716 7.74524 10.7246H7.72727V10.6716C7.70331 10.6716 7.68534 10.6658 7.67336 10.654C7.66138 10.6422 7.64341 10.6481 7.61945 10.6716H7.47569C7.43975 10.6364 7.37385 10.6364 7.27801 10.6716L7.2241 10.6364H7.27801C7.31395 10.6128 7.36786 10.6011 7.43975 10.6011L7.47569 10.5482H7.49366V10.5658C7.50564 10.5893 7.51163 10.6011 7.51163 10.6011C7.51163 10.554 7.52361 10.5364 7.54757 10.5482C7.57153 10.5482 7.59549 10.5482 7.61945 10.5482V10.5129C7.59549 10.5364 7.57752 10.5423 7.56554 10.5305C7.55356 10.5188 7.53559 10.5129 7.51163 10.5129C7.54757 10.5129 7.56554 10.507 7.56554 10.4953V10.46C7.50564 10.3777 7.50564 10.3365 7.56554 10.3365C7.5296 10.3365 7.51163 10.3189 7.51163 10.2836H7.56554H7.54757C7.52361 10.2718 7.51163 10.2659 7.51163 10.2659H7.47569C7.47569 10.2424 7.46371 10.2365 7.43975 10.2483C7.42777 10.2601 7.40381 10.2659 7.36787 10.2659H7.27801H7.17019H7.09831H7.02643C7.00247 10.2659 6.9845 10.2718 6.97252 10.2836C6.97252 10.2836 6.96653 10.2836 6.95455 10.2836H6.93658C6.86469 10.2836 6.81078 10.3012 6.77484 10.3365C6.72692 10.3365 6.679 10.3424 6.63108 10.3541C6.59514 10.3541 6.56519 10.3659 6.54123 10.3894C6.48133 10.3894 6.43939 10.4129 6.41543 10.46V10.5129C6.41543 10.4894 6.39147 10.4835 6.34355 10.4953C6.30761 10.4953 6.28964 10.4835 6.28964 10.46C6.2537 10.4953 6.23573 10.5246 6.23573 10.5482H6.28964V10.5129L6.34355 10.5482C6.31959 10.5482 6.29563 10.5599 6.27167 10.5834C6.25969 10.5952 6.26568 10.6011 6.28964 10.6011C6.28964 10.6246 6.27766 10.6364 6.2537 10.6364H6.23573C6.23573 10.5776 6.21776 10.5482 6.18182 10.5482C6.21776 10.5129 6.23573 10.4953 6.23573 10.4953V10.46C6.25969 10.4247 6.26568 10.4012 6.2537 10.3894C6.24172 10.3777 6.23573 10.36 6.23573 10.3365H6.18182C6.20578 10.313 6.22974 10.2953 6.2537 10.2836C6.27766 10.2601 6.28964 10.2365 6.28964 10.213C6.28964 10.1777 6.27766 10.1601 6.2537 10.1601H6.23573H6.10994C6.074 10.1601 6.05603 10.1777 6.05603 10.213C6.03207 10.213 6.02607 10.2189 6.03805 10.2307C6.05004 10.2307 6.05603 10.2424 6.05603 10.2659H6.10994H6.14588V10.2836H6.05603H6.00211V10.2659C5.97815 10.2424 5.96018 10.2189 5.9482 10.1954C5.93622 10.1719 5.91825 10.1483 5.89429 10.1248C5.89429 10.0896 5.88231 10.066 5.85835 10.0543C5.84637 10.0425 5.84038 10.0249 5.84038 10.0014C5.80444 9.9896 5.75652 9.97784 5.69662 9.96608C5.6487 9.95432 5.60078 9.9602 5.55285 9.98372C5.50493 9.98372 5.463 9.96608 5.42706 9.9308H5.37315H5.21142H5.12156H5.08562H4.95983H4.90592C4.858 9.9308 4.81607 9.94844 4.78013 9.98372C4.75617 9.9602 4.73221 9.95432 4.70825 9.96608C4.69627 9.96608 4.69027 9.95432 4.69027 9.9308H4.61839C4.61839 9.96608 4.60042 9.96608 4.56448 9.9308H4.4926C4.46864 9.9308 4.4327 9.94256 4.38478 9.96608C4.33686 9.97784 4.28295 9.9896 4.22304 10.0014V10.0366C4.22304 10.0484 4.20507 10.0543 4.16913 10.0543C4.16913 10.1013 4.16314 10.1248 4.15116 10.1248H4.09725V10.213C4.09725 10.2365 4.08527 10.2542 4.06131 10.2659C4.04933 10.2659 4.04334 10.2718 4.04334 10.2836C4.04334 10.3071 4.03735 10.3247 4.02537 10.3365C4.01339 10.3483 4.01938 10.3659 4.04334 10.3894C3.98344 10.3894 3.95948 10.4071 3.97146 10.4423C3.98344 10.4659 3.98943 10.4894 3.98943 10.5129C3.97745 10.5129 3.96547 10.5188 3.95349 10.5305C3.95349 10.5305 3.9475 10.5305 3.93552 10.5305H3.91755C3.90557 10.5423 3.90557 10.5482 3.91755 10.5482V10.6011C3.95349 10.6246 3.97745 10.6422 3.98943 10.654C4.00141 10.6658 4.01938 10.6716 4.04334 10.6716C4.05532 10.6599 4.07928 10.654 4.11522 10.654C4.1272 10.654 4.13918 10.6599 4.15116 10.6716C4.17512 10.754 4.23502 10.7951 4.33087 10.7951H4.34884C4.3728 10.7951 4.38478 10.8128 4.38478 10.848C4.40874 10.8716 4.4327 10.8951 4.45666 10.9186C4.48062 10.9421 4.4926 10.9774 4.4926 11.0244V11.0421C4.4926 11.0538 4.49859 11.0597 4.51057 11.0597V11.1303C4.51057 11.1538 4.51656 11.1655 4.52854 11.1655C4.5525 11.1538 4.56448 11.1597 4.56448 11.1832H4.69027H4.72622C4.7382 11.1714 4.76216 11.1655 4.7981 11.1655C4.81008 11.1655 4.82206 11.1714 4.83404 11.1832C4.7981 11.1832 4.78013 11.2008 4.78013 11.2361L4.83404 11.1832ZM5.84038 9.63094C5.86434 9.63094 5.88231 9.63682 5.89429 9.64858C5.90627 9.66033 5.92424 9.66621 5.9482 9.66621C5.97216 9.68973 5.97815 9.71325 5.96617 9.73677C5.96617 9.74853 5.97815 9.73677 6.00211 9.70149V9.77205C6.03806 9.77205 6.05603 9.78381 6.05603 9.80733V9.82497C6.07999 9.84848 6.09796 9.86612 6.10994 9.87788C6.1339 9.88964 6.15786 9.90728 6.18182 9.9308H6.23573H6.28964L6.34355 9.98372C6.39147 9.94844 6.41543 9.91316 6.41543 9.87788C6.41543 9.80733 6.42741 9.77205 6.45137 9.77205V9.70149V9.63094C6.45137 9.59566 6.46335 9.54862 6.48732 9.48982C6.54722 9.43103 6.57717 9.37223 6.57717 9.31343C6.57717 9.26639 6.59514 9.22524 6.63108 9.18996L6.68499 9.15468L6.72093 9.1194C6.74489 9.09588 6.75687 9.06649 6.75687 9.03121V8.85482C6.73291 8.85482 6.72093 8.84894 6.72093 8.83718C6.69697 8.81366 6.70895 8.8019 6.75687 8.8019V8.76662C6.70895 8.76662 6.68499 8.71958 6.68499 8.62551H6.63108H6.57717C6.51727 8.62551 6.46335 8.59023 6.41543 8.51967H6.34355H6.41543C6.41543 8.49616 6.40345 8.47264 6.37949 8.44912L6.34355 8.41384H6.28964H6.27167V8.43148C6.27167 8.455 6.27766 8.46676 6.28964 8.46676L6.23573 8.51967H6.05603H6.00211H5.89429C5.85835 8.4844 5.81642 8.46676 5.7685 8.46676C5.7685 8.43148 5.75652 8.41384 5.73256 8.41384H5.71459C5.67865 8.41384 5.65469 8.4256 5.64271 8.44912C5.64271 8.46088 5.63073 8.46676 5.60677 8.46676C5.5828 8.455 5.57082 8.44912 5.57082 8.44912H5.55285V8.46676C5.52889 8.46676 5.50493 8.46088 5.48097 8.44912C5.46899 8.4256 5.43305 8.41384 5.37315 8.41384H5.30127C5.26533 8.44912 5.21741 8.46676 5.15751 8.46676C5.10958 8.46676 5.06765 8.4844 5.03171 8.51967C5.03171 8.59023 4.98978 8.62551 4.90592 8.62551C4.82206 8.62551 4.76216 8.64903 4.72622 8.69607C4.69027 8.66079 4.63636 8.68431 4.56448 8.76662H4.58245C4.60641 8.76662 4.61839 8.77838 4.61839 8.8019V8.85482C4.66631 8.85482 4.69027 8.87246 4.69027 8.90773V9.01357C4.64235 9.03709 4.6124 9.05473 4.60042 9.06649L4.56448 9.10176C4.51656 9.10176 4.47463 9.07824 4.43869 9.03121C4.43869 9.01945 4.42072 9.01357 4.38478 9.01357L4.33087 9.03121C4.36681 9.07824 4.36681 9.1194 4.33087 9.15468C4.27097 9.18996 4.27097 9.237 4.33087 9.29579H4.43869C4.51057 9.38987 4.59443 9.43691 4.69027 9.43691C4.71424 9.46042 4.74419 9.47806 4.78013 9.48982C4.82805 9.50158 4.86998 9.51922 4.90592 9.54274H5.15751C5.20543 9.54274 5.24736 9.54274 5.2833 9.54274C5.31924 9.54274 5.36716 9.5545 5.42706 9.57802C5.463 9.60154 5.49894 9.61918 5.53488 9.63094C5.5828 9.63094 5.61875 9.63094 5.64271 9.63094H5.84038ZM7.67336 8.96065C7.63742 8.92537 7.58351 8.90773 7.51163 8.90773C7.48767 8.87246 7.46371 8.87246 7.43975 8.90773C7.43975 8.93125 7.42777 8.94889 7.40381 8.96065C7.37985 8.96065 7.35588 8.96065 7.33192 8.96065C7.29598 8.96065 7.27801 8.97829 7.27801 9.01357C7.21811 9.01357 7.1642 9.04297 7.11628 9.10176C7.11628 9.12528 7.11029 9.1488 7.09831 9.17232C7.09831 9.19584 7.09831 9.237 7.09831 9.29579L7.08034 9.31343H7.02643L6.99049 9.34871C6.97851 9.36047 6.96054 9.36635 6.93658 9.36635C6.86469 9.36635 6.81078 9.38987 6.77484 9.43691C6.75088 9.43691 6.70296 9.47218 6.63108 9.54274C6.6191 9.54274 6.61311 9.54862 6.61311 9.56038C6.61311 9.60742 6.6191 9.63094 6.63108 9.63094L6.57717 9.66621V9.82497H6.63108V9.87788L6.57717 9.9308C6.61311 9.9308 6.63108 9.91316 6.63108 9.87788L6.68499 9.9308C6.78083 9.9308 6.82875 9.91316 6.82875 9.87788C6.85271 9.87788 6.87068 9.88964 6.88266 9.91316C6.89464 9.92492 6.91261 9.9308 6.93658 9.9308C6.93658 9.89552 6.9246 9.87788 6.90063 9.87788H6.88266H6.97252H7.02643H7.09831C7.11029 9.9014 7.12826 9.91904 7.15222 9.9308C7.17618 9.94256 7.20014 9.9602 7.2241 9.98372C7.23608 9.99548 7.24806 10.0014 7.26004 10.0014H7.27801C7.32593 10.0484 7.37985 10.0484 7.43975 10.0014C7.46371 9.9896 7.50564 9.98372 7.56554 9.98372C7.62544 9.99548 7.67336 10.0072 7.7093 10.019C7.75722 10.019 7.82312 10.0308 7.90698 10.0543C7.91896 10.0425 7.93693 10.0308 7.96089 10.019C7.99683 9.98372 8.0148 9.97196 8.0148 9.98372V9.82497V9.66621C7.97886 9.66621 7.96089 9.63682 7.96089 9.57802V9.54274C7.99683 9.50746 8.0148 9.47218 8.0148 9.43691V9.36635C8.05074 9.33107 8.06871 9.31343 8.06871 9.31343H8.08668L8.15856 9.29579C8.15856 9.27227 8.16455 9.25464 8.17653 9.24288C8.20049 9.23112 8.21247 9.21348 8.21247 9.18996C8.21247 9.16644 8.21846 9.15468 8.23044 9.15468C8.25441 9.14292 8.26639 9.12528 8.26639 9.10176H8.35624C8.3802 9.06649 8.38619 9.04885 8.37421 9.04885C8.36223 9.03709 8.35624 9.02533 8.35624 9.01357C8.35624 8.99005 8.34426 8.97829 8.3203 8.97829C8.30832 8.97829 8.29035 8.99005 8.26639 9.01357C8.26639 8.95477 8.25441 8.91361 8.23044 8.89009C8.20648 8.85482 8.18252 8.82542 8.15856 8.8019C8.06272 8.8019 7.99683 8.81954 7.96089 8.85482C7.92495 8.85482 7.90698 8.89009 7.90698 8.96065L7.87104 9.01357C7.87104 8.97829 7.85307 8.94301 7.81712 8.90773C7.78118 8.93125 7.75123 8.95477 7.72727 8.97829C7.71529 8.99005 7.69732 8.98417 7.67336 8.96065ZM4.4926 8.41384V8.3962H4.47463C4.45067 8.40796 4.43869 8.41384 4.43869 8.41384H4.38478C4.38478 8.39032 4.3728 8.38444 4.34884 8.3962C4.32488 8.40796 4.30092 8.40208 4.27696 8.37856H4.33087C4.36681 8.37856 4.38478 8.36092 4.38478 8.32564C4.34884 8.36092 4.3129 8.36092 4.27696 8.32564H4.22304C4.1871 8.29037 4.16314 8.27273 4.15116 8.27273C4.07928 8.27273 4.04334 8.26097 4.04334 8.23745H3.98943H3.91755H3.84567H3.7019L3.64799 8.18453C3.60007 8.14925 3.55814 8.13161 3.5222 8.13161C3.51022 8.1081 3.49824 8.10222 3.48626 8.11398C3.48626 8.12573 3.47428 8.13161 3.45032 8.13161L3.39641 8.18453C3.42037 8.20805 3.42636 8.22569 3.41438 8.23745C3.4024 8.23745 3.39641 8.24921 3.39641 8.27273V8.37856V8.3962C3.39641 8.40796 3.38443 8.41384 3.36047 8.41384C3.28858 8.4844 3.22269 8.51967 3.16279 8.51967V8.62551C3.18675 8.62551 3.19873 8.64903 3.19873 8.69607C3.16279 8.76662 3.16279 8.8019 3.19873 8.8019C3.22269 8.8019 3.23467 8.81954 3.23467 8.85482C3.28259 8.85482 3.30655 8.89009 3.30655 8.96065V9.03121V9.10176C3.31853 9.07825 3.33051 9.06649 3.34249 9.06649C3.35448 9.06649 3.36646 9.06061 3.37844 9.04885C3.39042 9.04885 3.39641 9.04297 3.39641 9.03121H3.41438C3.42636 9.01945 3.43834 9.01357 3.45032 9.01357V9.03121C3.47428 9.03121 3.48626 9.03121 3.48626 9.03121C3.49824 9.01945 3.51022 9.01357 3.5222 9.01357L3.57611 9.03121C3.58809 9.01945 3.60007 9.01357 3.61205 9.01357H3.64799H3.7019L3.64799 8.96065H3.75581C3.75581 8.92537 3.7618 8.90773 3.77378 8.90773H3.79175C3.79175 8.87246 3.80973 8.85482 3.84567 8.85482C3.86963 8.85482 3.8876 8.84894 3.89958 8.83718C3.91156 8.82542 3.91755 8.81366 3.91755 8.8019H3.98943C4.01339 8.77838 4.03735 8.7725 4.06131 8.78426C4.09725 8.79602 4.1272 8.8019 4.15116 8.8019C4.16314 8.77838 4.20507 8.76662 4.27696 8.76662L4.33087 8.69607C4.30691 8.68431 4.30691 8.66667 4.33087 8.64315C4.34285 8.63139 4.36082 8.62551 4.38478 8.62551C4.40874 8.60199 4.41473 8.57847 4.40275 8.55495C4.39077 8.51967 4.38478 8.49028 4.38478 8.46676H4.43869H4.4926V8.41384ZM3.50423 9.9308H3.45032C3.45032 9.95432 3.45631 9.96608 3.46829 9.96608C3.49225 9.95432 3.50423 9.9602 3.50423 9.98372C3.50423 9.99548 3.51621 10.0014 3.54017 10.0014H3.57611V10.1248L3.64799 10.0543V10.1248C3.71987 10.1248 3.75581 10.0837 3.75581 10.0014L3.79175 9.98372H3.84567V10.0014C3.84567 10.0249 3.84567 10.0366 3.84567 10.0366C3.84567 10.0249 3.85765 10.0308 3.88161 10.0543V10.0014H3.86364C3.85166 10.0014 3.84567 9.99548 3.84567 9.98372C3.86963 9.94844 3.89359 9.9308 3.91755 9.9308H3.98943C3.98943 9.94256 4.00141 9.94844 4.02537 9.94844H4.04334V9.9308C4.07928 9.89552 4.09725 9.8426 4.09725 9.77205C4.13319 9.77205 4.15116 9.76029 4.15116 9.73677V9.70149C4.15116 9.67797 4.16314 9.66621 4.1871 9.66621H4.22304C4.1871 9.6427 4.14517 9.63094 4.09725 9.63094C4.13319 9.63094 4.15116 9.6427 4.15116 9.66621L4.09725 9.63094C4.06131 9.63094 4.04334 9.62506 4.04334 9.6133V9.57802V9.54274L3.98943 9.48982C3.98943 9.4663 3.98344 9.44867 3.97146 9.43691C3.97146 9.42515 3.94151 9.40163 3.88161 9.36635V9.43691C3.83369 9.35459 3.79175 9.35459 3.75581 9.43691C3.68393 9.43691 3.62403 9.45454 3.57611 9.48982C3.52819 9.48982 3.48626 9.47218 3.45032 9.43691C3.42636 9.43691 3.40839 9.42515 3.39641 9.40163C3.39641 9.37811 3.38443 9.36635 3.36047 9.36635V9.48982H3.45032H3.39641C3.39641 9.54862 3.41438 9.57802 3.45032 9.57802L3.39641 9.63094C3.44433 9.66621 3.44433 9.71325 3.39641 9.77205C3.43235 9.77205 3.45032 9.78969 3.45032 9.82497C3.47428 9.84848 3.48626 9.872 3.48626 9.89552C3.49824 9.91904 3.51022 9.9308 3.5222 9.9308H3.50423ZM7.87104 11.8887C7.87104 11.8652 7.88302 11.8417 7.90698 11.8182C7.90698 11.7359 7.92495 11.6771 7.96089 11.6418V11.5889C8.02079 11.5654 8.02079 11.5183 7.96089 11.4478H7.90698C7.90698 11.483 7.895 11.5066 7.87104 11.5183C7.85906 11.5301 7.84109 11.5477 7.81712 11.5712C7.72128 11.5948 7.67336 11.6771 7.67336 11.8182C7.6494 11.8299 7.63742 11.8358 7.63742 11.8358H7.61945V11.8535C7.63143 11.8652 7.64341 11.8711 7.65539 11.8711H7.67336V11.8887H7.65539V11.9064C7.65539 11.9299 7.66138 11.9417 7.67336 11.9417C7.67336 11.9064 7.69732 11.8887 7.74524 11.8887C7.79316 11.8887 7.81712 11.877 7.81712 11.8535C7.81712 11.877 7.82311 11.8887 7.83509 11.8887H7.87104ZM11.4471 11.1832L11.3932 11.2361V11.2537L11.5011 11.3596C11.5011 11.3243 11.507 11.3066 11.519 11.3066H11.537C11.537 11.2714 11.543 11.2537 11.555 11.2537H11.5909H11.6808H11.7347C11.7586 11.242 11.7646 11.2302 11.7526 11.2185C11.7526 11.2067 11.7646 11.2126 11.7886 11.2361V11.2537H11.8425C11.8425 11.242 11.8605 11.2185 11.8964 11.1832V11.1655C11.8964 11.142 11.8784 11.1303 11.8425 11.1303C11.7826 11.0597 11.7167 11.0362 11.6448 11.0597H11.4471H11.3932V11.1832H11.4471ZM2.40803 10.213H2.46194C2.49789 10.213 2.51586 10.2248 2.51586 10.2483V10.2659C2.52784 10.2777 2.53383 10.2836 2.53383 10.2836H2.76744H2.80338V10.2659C2.82734 10.2659 2.83333 10.2659 2.82135 10.2659C2.80937 10.2542 2.80338 10.2365 2.80338 10.213L2.76744 10.1601C2.7315 10.1601 2.71353 10.1542 2.71353 10.1425V10.1248C2.67759 10.1248 2.65962 10.1013 2.65962 10.0543C2.63566 10.0543 2.60571 10.0484 2.56977 10.0366C2.54581 10.0131 2.52784 10.0014 2.51586 10.0014H2.46194C2.46194 10.0249 2.44996 10.0366 2.426 10.0366C2.41402 10.0249 2.39605 10.0308 2.37209 10.0543L2.40803 10.1248V10.1601C2.44397 10.1601 2.44397 10.1777 2.40803 10.213ZM3.00106 9.82497C3.01304 9.81321 3.01903 9.80145 3.01903 9.78969V9.77205H3.00106C2.9771 9.77205 2.95913 9.76617 2.94715 9.75441C2.93517 9.73089 2.9172 9.73677 2.89323 9.77205C2.86927 9.77205 2.8513 9.76029 2.83932 9.73677C2.83932 9.71325 2.82734 9.70149 2.80338 9.70149H2.76744L2.80338 9.77205H2.71353C2.68957 9.77205 2.6716 9.77793 2.65962 9.78969C2.64764 9.78969 2.62967 9.81909 2.60571 9.87788C2.62967 9.9014 2.65363 9.91316 2.67759 9.91316C2.71353 9.9014 2.75546 9.90728 2.80338 9.9308H2.85729C2.85729 9.94256 2.86328 9.95432 2.87526 9.96608C2.88724 9.97784 2.91121 9.98372 2.94715 9.98372C2.95913 9.99548 2.98309 10.0014 3.01903 10.0014H3.05497C3.11487 9.9896 3.14482 9.97196 3.14482 9.94844C3.1568 9.92492 3.16279 9.88376 3.16279 9.82497H3.10888H3.00106C3.00106 9.83673 2.98908 9.84261 2.96512 9.84261C2.95314 9.84261 2.94715 9.83673 2.94715 9.82497H3.00106ZM13.7653 11.3066V11.2537C13.7893 11.2537 13.8013 11.2655 13.8013 11.289V11.3066V11.3596H13.8552C13.8552 11.289 13.8372 11.2479 13.8013 11.2361H13.7653C13.7653 11.2361 13.7533 11.2479 13.7294 11.2714C13.7174 11.2831 13.7114 11.2949 13.7114 11.3066V11.3596C13.7114 11.3243 13.7414 11.3066 13.8013 11.3066H13.7653ZM15.9038 11.3066V11.2537H15.8858C15.8619 11.242 15.8499 11.2361 15.8499 11.2361V11.2537H15.8319C15.8319 11.289 15.8559 11.3066 15.9038 11.3066ZM6.45137 11.7476H6.34355V11.8182V11.8535C6.39147 11.8299 6.42741 11.7947 6.45137 11.7476ZM2.46194 10.2836V10.3365C2.49789 10.3365 2.51586 10.3541 2.51586 10.3894V10.3718C2.52784 10.36 2.53383 10.3483 2.53383 10.3365H2.51586C2.47992 10.3365 2.46194 10.3306 2.46194 10.3189V10.2836ZM2.26427 10.1248C2.25229 10.1248 2.2463 10.1131 2.2463 10.0896V10.0543C2.19838 10.1013 2.19838 10.1366 2.2463 10.1601C2.2463 10.1366 2.25229 10.1248 2.26427 10.1248ZM1.2759 7.54952H1.25793V7.56716C1.26991 7.59068 1.2759 7.60244 1.2759 7.60244H1.25793C1.26991 7.63772 1.29387 7.63772 1.32981 7.60244C1.29387 7.60244 1.2759 7.59656 1.2759 7.5848V7.54952ZM13.9271 11.3066V11.4125H13.981L13.9271 11.3596V11.3066ZM3.64799 11.6947H3.75581V11.6418H3.71987C3.70789 11.6418 3.68393 11.6594 3.64799 11.6947ZM4.4926 8.90773V8.85482C4.4926 8.84306 4.48062 8.83718 4.45666 8.83718C4.44468 8.83718 4.43869 8.84306 4.43869 8.85482C4.43869 8.8901 4.44468 8.90773 4.45666 8.90773H4.4926ZM3.00106 9.63094C3.01304 9.61918 3.01903 9.60742 3.01903 9.59566V9.57802H3.00106L2.94715 9.63094H3.00106ZM2.17442 10.2659C2.17442 10.2307 2.15645 10.213 2.12051 10.213V10.2659H2.17442ZM3.16279 11.6418H3.23467L3.30655 11.5889C3.23467 11.5889 3.18675 11.6065 3.16279 11.6418ZM5.15751 7.2673V7.16147C5.13354 7.19674 5.13354 7.23202 5.15751 7.2673ZM14.0529 11.2361C14.0049 11.2008 13.963 11.1832 13.9271 11.1832C13.963 11.2185 14.0049 11.2361 14.0529 11.2361ZM16.8023 11.2537V11.2361H16.7844V11.2537H16.8023ZM13.9271 11.1832C13.9271 11.1479 13.9211 11.1303 13.9091 11.1303L13.9271 11.1832ZM3.36047 5.7327C3.36047 5.69742 3.34249 5.67978 3.30655 5.67978V5.71506C3.30655 5.72682 3.32452 5.7327 3.36047 5.7327ZM13.4059 11.4125V11.3066C13.382 11.3302 13.376 11.3478 13.3879 11.3596C13.3999 11.3713 13.4059 11.389 13.4059 11.4125ZM8.60782 7.88467C8.60782 7.86115 8.59584 7.84939 8.57188 7.84939C8.5599 7.84939 8.55391 7.86115 8.55391 7.88467H8.60782ZM12.9207 11.4125C12.8968 11.4007 12.8848 11.3948 12.8848 11.3948H12.8668V11.4125H12.9207ZM4.61839 11.2537H4.63636C4.64834 11.2537 4.65433 11.2537 4.65433 11.2537C4.66631 11.242 4.67829 11.2361 4.69027 11.2361H4.56448L4.61839 11.2537ZM8.35624 10.6364H8.30233V10.6716C8.33827 10.6716 8.35624 10.6599 8.35624 10.6364ZM3.5222 1.37585V1.42876C3.55814 1.39349 3.55814 1.37585 3.5222 1.37585ZM10.8541 1.37585C10.8182 1.41113 10.8182 1.42876 10.8541 1.42876V1.37585ZM7.09831 9.29579C7.05039 9.29579 7.02643 9.28991 7.02643 9.27815C7.01445 9.2664 7.01445 9.25464 7.02643 9.24288V9.29579H7.09831ZM10.4588 3.51018C10.4228 3.54545 10.4228 3.58661 10.4588 3.63365V3.51018ZM5.42706 7.46133H5.37315H5.42706ZM5.60677 7.74355H5.64271L5.60677 7.72592V7.74355ZM8.35624 7.79647C8.35624 7.78471 8.34426 7.77883 8.3203 7.77883C8.30832 7.77883 8.30233 7.78471 8.30233 7.79647H8.35624ZM11.7347 11.3596H11.6808H11.7347ZM3.05497 2.61058C3.05497 2.64586 3.06096 2.6635 3.07294 2.6635H3.10888L3.05497 2.61058ZM12.3816 11.2537H12.4355H12.3816ZM5.21142 6.96744L5.24736 7.03799C5.24736 6.99095 5.23538 6.96744 5.21142 6.96744ZM2.2463 10.0014C2.25828 10.0131 2.26427 10.0249 2.26427 10.0366V10.0543V10.0014H2.2463ZM8.55391 10.6011V10.5482H8.5C8.5 10.5834 8.50599 10.6011 8.51797 10.6011H8.55391ZM11.1416 0.970149H11.1057H11.1416ZM6.34355 7.93758V7.88467L6.28964 7.93758H6.34355ZM7.33192 7.65536V7.60244V7.65536ZM10.1173 7.03799H10.0634H10.1173ZM11.1956 0.38806V0.335142V0.38806ZM16.0116 11.2361V11.2537V11.2361ZM11.5909 12.0828C11.6269 12.0828 11.6269 12.0651 11.5909 12.0299V12.0828ZM7.56554 10.0543V10.0014V10.0543ZM10.7463 2.48711H10.7104H10.7463ZM8.42812 7.46133V7.49661V7.46133ZM9.88372 8.66079H9.93763H9.88372ZM10.4588 3.70421V3.65129V3.70421ZM2.53383 8.37856H2.51586V8.41384L2.53383 8.37856Z" fill="black"/>
</svg>
