<svg width="4" height="16" viewBox="0 0 4 16" fill="none" xmlns="http://www.w3.org/2000/svg">
<path d="M2.97297 8.5573H2.95496V8.52135V8.50337V8.48539C2.94294 8.48539 2.93694 8.46142 2.93694 8.41348H2.9009C2.88889 8.41348 2.88288 8.40749 2.88288 8.39551V8.35955C2.88288 8.31161 2.87688 8.27566 2.86486 8.25169C2.85285 8.2397 2.84084 8.23371 2.82883 8.23371C2.81682 8.23371 2.8048 8.22172 2.79279 8.19775C2.8048 8.18577 2.81081 8.17978 2.81081 8.17978C2.83483 8.17978 2.85285 8.17378 2.86486 8.1618C2.84084 8.1618 2.82883 8.15581 2.82883 8.14382C2.84084 8.13184 2.84685 8.11386 2.84685 8.08989C2.84685 8.05393 2.84685 8.03596 2.84685 8.03596L2.88288 8C2.88288 7.97603 2.87688 7.96405 2.86486 7.96405C2.86486 7.96405 2.86486 7.95805 2.86486 7.94607H2.88288C2.87087 7.91011 2.86486 7.88614 2.86486 7.87416H2.88288V7.85618C2.88288 7.85618 2.88288 7.8382 2.88288 7.80225V7.78427C2.87087 7.7603 2.86486 7.74232 2.86486 7.73034C2.87688 7.71835 2.88288 7.70637 2.88288 7.69438C2.87087 7.69438 2.86486 7.68839 2.86486 7.6764V7.64045C2.86486 7.62846 2.87688 7.62846 2.9009 7.64045C2.92492 7.64045 2.93694 7.63446 2.93694 7.62247C2.88889 7.57453 2.86486 7.55056 2.86486 7.55056V7.47865H2.93694C2.92492 7.47865 2.91892 7.46667 2.91892 7.4427C2.91892 7.43071 2.92492 7.41873 2.93694 7.40674C2.93694 7.39476 2.93694 7.38876 2.93694 7.38876C2.94895 7.38876 2.95496 7.38277 2.95496 7.37079L2.93694 7.33483C2.94895 7.32285 2.94895 7.31086 2.93694 7.29888C2.94895 7.29888 2.95496 7.29888 2.95496 7.29888C2.96697 7.29888 2.97297 7.29288 2.97297 7.2809V7.24494C2.97297 7.23296 2.97898 7.22697 2.99099 7.22697L3.00901 7.20899C3.02102 7.18502 3.02703 7.16105 3.02703 7.13708V7.06517C2.99099 7.06517 2.96697 7.04719 2.95496 7.01124V6.99326V6.93933C2.90691 6.93933 2.88288 6.90936 2.88288 6.84944C2.88288 6.83745 2.87688 6.82547 2.86486 6.81348V6.74157C2.85285 6.74157 2.84685 6.74157 2.84685 6.74157C2.85886 6.72959 2.85886 6.7236 2.84685 6.7236V6.66966V6.50787C2.84685 6.44794 2.83483 6.4 2.81081 6.36405C2.81081 6.34008 2.82282 6.31611 2.84685 6.29214H2.81081C2.81081 6.26817 2.8048 6.25618 2.79279 6.25618C2.8048 6.23221 2.8048 6.22022 2.79279 6.22022C2.79279 6.22022 2.79279 6.21423 2.79279 6.20225H2.77477C2.77477 6.19026 2.76276 6.17828 2.73874 6.16629C2.72673 6.15431 2.72072 6.14232 2.72072 6.13034V6.09438C2.70871 6.09438 2.7027 6.0764 2.7027 6.04045C2.7027 6.04045 2.7027 6.01648 2.7027 5.96854V5.87865C2.69069 5.87865 2.68468 5.87266 2.68468 5.86067H2.64865C2.62462 5.8367 2.59459 5.81273 2.55856 5.78876H2.61261C2.63664 5.81273 2.66066 5.82472 2.68468 5.82472H2.7027C2.71471 5.82472 2.72072 5.81873 2.72072 5.80674C2.72072 5.79476 2.70871 5.78876 2.68468 5.78876H2.63063C2.63063 5.74082 2.62462 5.71086 2.61261 5.69888C2.61261 5.66292 2.58859 5.65094 2.54054 5.66292V5.57303C2.52853 5.56105 2.52252 5.54906 2.52252 5.53708C2.53453 5.53708 2.54054 5.5191 2.54054 5.48315V5.46517C2.55255 5.46517 2.55856 5.45918 2.55856 5.44719C2.55856 5.43521 2.55856 5.4412 2.55856 5.46517C2.59459 5.46517 2.61261 5.47116 2.61261 5.48315C2.62462 5.48315 2.63063 5.48914 2.63063 5.50112C2.63063 5.48914 2.63664 5.47715 2.64865 5.46517C2.63664 5.46517 2.62462 5.45918 2.61261 5.44719C2.6006 5.42322 2.58258 5.41124 2.55856 5.41124C2.60661 5.38727 2.62462 5.3633 2.61261 5.33933C2.61261 5.32734 2.61261 5.31536 2.61261 5.30337C2.62462 5.29139 2.63063 5.27341 2.63063 5.24944C2.64264 5.23745 2.64865 5.22547 2.64865 5.21348C2.64865 5.2015 2.66066 5.18951 2.68468 5.17753V5.14157C2.66066 5.10562 2.66066 5.08165 2.68468 5.06966V4.99775V4.90787C2.6967 4.8839 2.6967 4.87191 2.68468 4.87191V4.85393C2.6967 4.84195 2.7027 4.80599 2.7027 4.74607V4.71011C2.7027 4.69813 2.6967 4.68614 2.68468 4.67416C2.68468 4.65019 2.69069 4.63221 2.7027 4.62023V4.58427H2.72072H2.7027C2.71471 4.54832 2.72072 4.51236 2.72072 4.4764V4.42247V4.38652V4.36854V4.35056C2.76877 4.32659 2.79279 4.28464 2.79279 4.22472V4.20674C2.8048 4.19476 2.81081 4.18277 2.81081 4.17079C2.81081 4.1588 2.82282 4.15281 2.84685 4.15281C2.84685 4.14082 2.83483 4.13483 2.81081 4.13483V4.0809C2.78679 4.05693 2.77477 4.04494 2.77477 4.04494V4.02697C2.78679 4.02697 2.79279 4.03296 2.79279 4.04494C2.79279 4.04494 2.7988 4.04494 2.81081 4.04494H2.84685L2.86486 4.02697L2.88288 3.99101V3.97303C2.88288 3.96105 2.87688 3.95506 2.86486 3.95506C2.86486 3.94307 2.86486 3.92509 2.86486 3.90112C2.86486 3.88914 2.87087 3.88315 2.88288 3.88315C2.90691 3.87116 2.91892 3.85918 2.91892 3.84719C2.91892 3.82322 2.90691 3.80524 2.88288 3.79326C2.91892 3.79326 2.93694 3.78727 2.93694 3.77528V3.73933V3.72135V3.66742V3.63146H2.95496C2.89489 3.63146 2.86486 3.60749 2.86486 3.55955C2.86486 3.5236 2.85886 3.49963 2.84685 3.48764C2.85886 3.47566 2.86486 3.46367 2.86486 3.45169C2.86486 3.42772 2.87087 3.40974 2.88288 3.39775C2.88288 3.38577 2.88889 3.37378 2.9009 3.3618C2.91291 3.3618 2.92492 3.35581 2.93694 3.34382L2.95496 3.32584C2.96697 3.26592 2.98498 3.22397 3.00901 3.2H2.97297C2.96096 3.18802 2.95496 3.16405 2.95496 3.12809C2.95496 3.09213 2.95496 3.07416 2.95496 3.07416V3.02023C2.96697 3.02023 2.97297 3.02023 2.97297 3.02023C2.97297 3.00824 2.98498 3.00225 3.00901 3.00225L2.97297 2.96629C2.997 2.95431 3.00901 2.92435 3.00901 2.8764V2.85843C3.00901 2.84644 3.00901 2.83446 3.00901 2.82247C3.02102 2.7985 3.02703 2.77453 3.02703 2.75056C3.01501 2.72659 3.00901 2.71461 3.00901 2.71461C3.03303 2.69064 3.04505 2.67865 3.04505 2.67865C3.06907 2.67865 3.08108 2.67266 3.08108 2.66067V2.6427C3.08108 2.59476 3.09309 2.57079 3.11712 2.57079C3.12913 2.54682 3.13514 2.53483 3.13514 2.53483C3.13514 2.52285 3.12913 2.51685 3.11712 2.51685H3.13514C3.15916 2.51685 3.17117 2.51086 3.17117 2.49888V2.4809C3.14715 2.46891 3.14114 2.46292 3.15315 2.46292C3.16517 2.45094 3.17117 2.43296 3.17117 2.40899L3.15315 2.39101C3.14114 2.39101 3.13514 2.38502 3.13514 2.37303L3.17117 2.35506V2.33708C3.15916 2.32509 3.14715 2.3191 3.13514 2.3191C3.17117 2.3191 3.1952 2.31311 3.20721 2.30112C3.1952 2.28914 3.18919 2.27715 3.18919 2.26517V2.22921V2.21124C3.22522 2.24719 3.24324 2.24719 3.24324 2.21124C3.29129 2.18727 3.3033 2.1633 3.27928 2.13933C3.31532 2.13933 3.33333 2.12135 3.33333 2.08539C3.33333 2.07341 3.33333 2.06742 3.33333 2.06742C3.34535 2.06742 3.35135 2.07341 3.35135 2.08539L3.36937 2.06742V2.04944C3.36937 2.02547 3.37538 2.00749 3.38739 1.99551C3.3994 1.98352 3.40541 1.97154 3.40541 1.95955V1.9236C3.40541 1.9236 3.41742 1.91161 3.44144 1.88764C3.44144 1.89963 3.44745 1.90562 3.45946 1.90562H3.47748H3.4955V1.94157C3.4955 1.95356 3.5015 1.95955 3.51351 1.95955V1.94157C3.52553 1.92959 3.53153 1.9176 3.53153 1.90562V1.88764L3.56757 1.85169C3.62763 1.85169 3.65766 1.81573 3.65766 1.74382C3.69369 1.70787 3.71772 1.68989 3.72973 1.68989L3.69369 1.72584C3.69369 1.74981 3.68168 1.78577 3.65766 1.83371L3.63964 1.85169C3.61562 1.87566 3.5976 1.89963 3.58559 1.9236C3.57357 1.94757 3.55556 1.96554 3.53153 1.97753C3.50751 2.0015 3.4955 2.02547 3.4955 2.04944C3.43544 2.08539 3.40541 2.12734 3.40541 2.17528H3.36937C3.35736 2.19925 3.35135 2.22322 3.35135 2.24719C3.35135 2.25918 3.33934 2.27715 3.31532 2.30112V2.3191V2.35506C3.32733 2.36704 3.33333 2.37303 3.33333 2.37303C3.33333 2.397 3.32733 2.42697 3.31532 2.46292V2.4809C3.32733 2.49288 3.33333 2.50487 3.33333 2.51685C3.32132 2.51685 3.31532 2.52285 3.31532 2.53483L3.33333 2.55281C3.32132 2.55281 3.31532 2.5588 3.31532 2.57079H3.24324V2.60674C3.24324 2.61873 3.23123 2.62472 3.20721 2.62472V2.6427C3.1952 2.66667 3.18318 2.68464 3.17117 2.69663V2.78652C3.18318 2.7985 3.18318 2.80449 3.17117 2.80449C3.17117 2.84045 3.15315 2.85843 3.11712 2.85843V2.91236C3.15315 2.91236 3.17117 2.92434 3.17117 2.94832C3.14715 2.94832 3.13514 2.94232 3.13514 2.93034C3.13514 2.91835 3.13514 2.92434 3.13514 2.94832C3.13514 2.98427 3.11712 3.00225 3.08108 3.00225V3.0382V3.07416V3.09213C3.05706 3.09213 3.04505 3.10412 3.04505 3.12809C3.04505 3.16405 3.05706 3.18802 3.08108 3.2V3.23596L3.04505 3.25393C3.05706 3.26592 3.06306 3.2779 3.06306 3.28989C3.06306 3.31386 3.05706 3.32584 3.04505 3.32584C3.04505 3.33783 3.03904 3.34981 3.02703 3.3618C3.02703 3.39775 3.02102 3.43371 3.00901 3.46966V3.48764C3.02102 3.49963 3.02703 3.54757 3.02703 3.63146C3.03904 3.63146 3.04505 3.64345 3.04505 3.66742C3.04505 3.6794 3.03904 3.68539 3.02703 3.68539V3.73933C3.03904 3.77528 3.05706 3.79925 3.08108 3.81124C3.05706 3.82322 3.04505 3.82921 3.04505 3.82921C3.04505 3.85318 3.03904 3.86517 3.02703 3.86517C3.02703 3.86517 3.02703 3.87116 3.02703 3.88315C3.01501 3.88315 3.00901 3.90712 3.00901 3.95506V3.97303V4.02697C2.98498 4.03895 2.96697 4.05094 2.95496 4.06292C2.95496 4.07491 2.94895 4.09888 2.93694 4.13483V4.20674H2.88288V4.26067C2.87087 4.26067 2.86486 4.26667 2.86486 4.27865V4.31461V4.35056V4.42247V4.4764V4.53034V4.54831C2.86486 4.5603 2.85886 4.56629 2.84685 4.56629C2.84685 4.56629 2.84685 4.57228 2.84685 4.58427C2.85886 4.58427 2.86486 4.59626 2.86486 4.62023C2.86486 4.65618 2.85886 4.67416 2.84685 4.67416V4.69213V4.74607V4.81798C2.85886 4.84195 2.86486 4.85993 2.86486 4.87191C2.85285 4.89588 2.84685 4.91985 2.84685 4.94382C2.84685 4.96779 2.83483 4.98577 2.81081 4.99775V5.01573V5.08764V5.15955C2.83483 5.17154 2.84685 5.2015 2.84685 5.24944C2.84685 5.26142 2.84084 5.27341 2.82883 5.28539L2.79279 5.32135C2.78078 5.32135 2.77477 5.32734 2.77477 5.33933C2.77477 5.3633 2.77477 5.37528 2.77477 5.37528C2.78679 5.37528 2.79279 5.38127 2.79279 5.39326C2.78078 5.40524 2.77477 5.42322 2.77477 5.44719C2.78679 5.47116 2.79279 5.48914 2.79279 5.50112H2.81081C2.81081 5.52509 2.81682 5.53708 2.82883 5.53708C2.84084 5.53708 2.84685 5.54307 2.84685 5.55506H2.86486C2.86486 5.56704 2.86486 5.57903 2.86486 5.59101C2.87688 5.59101 2.88288 5.603 2.88288 5.62697H2.9009C2.92492 5.63895 2.93694 5.64494 2.93694 5.64494V5.6809C2.93694 5.69288 2.94294 5.69888 2.95496 5.69888C2.95496 5.71086 2.95496 5.72884 2.95496 5.75281C2.95496 5.77678 2.96096 5.79476 2.97297 5.80674V5.82472V5.87865V5.89663C2.997 5.93258 3.00901 5.95655 3.00901 5.96854C2.98498 5.98052 2.96697 5.9985 2.95496 6.02247C2.96697 6.03446 2.96697 6.04644 2.95496 6.05843C2.94294 6.05843 2.94895 6.05843 2.97297 6.05843C2.96096 6.11835 2.93093 6.1603 2.88288 6.18427C2.88288 6.19625 2.88889 6.20824 2.9009 6.22022C2.92492 6.22022 2.91892 6.23221 2.88288 6.25618L2.93694 6.29214C2.93694 6.31611 2.93694 6.32809 2.93694 6.32809C2.93694 6.34008 2.93093 6.35206 2.91892 6.36405C2.90691 6.36405 2.91291 6.37004 2.93694 6.38202V6.4C2.93694 6.41199 2.93694 6.42397 2.93694 6.43596C2.94895 6.43596 2.95496 6.44195 2.95496 6.45393V6.50787V6.54382C2.95496 6.59176 2.94895 6.62772 2.93694 6.65169C2.96096 6.66367 2.97297 6.70562 2.97297 6.77753C2.97297 6.78951 2.99099 6.81348 3.02703 6.84944H3.00901C3.03303 6.90936 3.04505 6.93933 3.04505 6.93933L3.08108 6.97528V6.99326C3.09309 7.00524 3.1051 7.01124 3.11712 7.01124H3.13514C3.17117 7.03521 3.21922 7.04719 3.27928 7.04719C3.27928 7.02322 3.28529 7.01124 3.2973 7.01124C3.30931 7.01124 3.32132 7.02322 3.33333 7.04719H3.24324C3.24324 7.03521 3.22522 7.04719 3.18919 7.08315C3.17718 7.09513 3.17117 7.10712 3.17117 7.1191V7.15506H3.13514C3.15916 7.16704 3.17117 7.17903 3.17117 7.19101C3.17117 7.203 3.15916 7.20899 3.13514 7.20899V7.24494C3.13514 7.29288 3.12913 7.31685 3.11712 7.31685C3.11712 7.32884 3.11111 7.33483 3.0991 7.33483C3.0991 7.33483 3.0991 7.34082 3.0991 7.35281L3.08108 7.37079C3.05706 7.37079 3.05706 7.37678 3.08108 7.38876C3.05706 7.40075 3.04505 7.43071 3.04505 7.47865V7.49663C3.03303 7.53258 3.03303 7.55655 3.04505 7.56854H3.00901V7.69438C3.00901 7.70637 3.01501 7.71236 3.02703 7.71236C3.03904 7.71236 3.04505 7.70637 3.04505 7.69438C3.04505 7.70637 3.05706 7.71236 3.08108 7.71236C3.08108 7.72434 3.07508 7.73633 3.06306 7.74831C3.05105 7.74831 3.04505 7.7603 3.04505 7.78427H3.02703C3.01501 7.79625 3.01501 7.80225 3.02703 7.80225V7.8382C3.003 7.85019 2.99099 7.86817 2.99099 7.89214C3.003 7.90412 3.00901 7.9221 3.00901 7.94607L3.02703 7.96405L3.00901 8V8.03596C3.00901 8.04794 3.00901 8.05393 3.00901 8.05393C3.02102 8.05393 3.02703 8.06592 3.02703 8.08989C3.06306 8.11386 3.08108 8.14981 3.08108 8.19775C3.1051 8.22172 3.09309 8.2397 3.04505 8.25169C3.06907 8.27566 3.08709 8.29963 3.0991 8.3236C3.11111 8.33558 3.12312 8.34757 3.13514 8.35955H3.08108C3.1051 8.38352 3.11712 8.41348 3.11712 8.44944C3.12913 8.47341 3.13514 8.49738 3.13514 8.52135C3.13514 8.54532 3.14715 8.5633 3.17117 8.57528V8.64719C3.17117 8.67116 3.17718 8.68315 3.18919 8.68315V8.7191H3.20721C3.20721 8.73109 3.21922 8.73708 3.24324 8.73708C3.24324 8.76105 3.23724 8.77903 3.22523 8.79101C3.21321 8.803 3.21922 8.81498 3.24324 8.82697C3.21922 8.81498 3.2012 8.80899 3.18919 8.80899C3.17718 8.82097 3.17718 8.84494 3.18919 8.8809V8.89888C3.18919 8.92285 3.18919 8.94082 3.18919 8.95281C3.2012 8.95281 3.20721 8.9588 3.20721 8.97079L3.18919 8.98876C3.2012 9.00075 3.20721 9.00674 3.20721 9.00674V9.0427C3.1952 9.06667 3.18919 9.07865 3.18919 9.07865C3.2012 9.11461 3.2012 9.13858 3.18919 9.15056C3.18919 9.15056 3.18318 9.15655 3.17117 9.16854V9.20449C3.18318 9.21648 3.18318 9.22846 3.17117 9.24045V9.36629H3.18919C3.18919 9.36629 3.18919 9.39625 3.18919 9.45618L3.17117 9.47416C3.15916 9.48614 3.15315 9.49214 3.15315 9.49214C3.15315 9.50412 3.15916 9.51011 3.17117 9.51011C3.13513 9.51011 3.11712 9.51611 3.11712 9.52809V9.54607H3.04505V9.56404C3.04505 9.58801 3.05105 9.60599 3.06306 9.61798C3.07508 9.61798 3.06907 9.62397 3.04505 9.63596C3.04505 9.67191 3.04505 9.68989 3.04505 9.68989V9.74382C3.03303 9.74382 3.02703 9.74981 3.02703 9.7618C3.02703 9.77378 3.02102 9.77978 3.00901 9.77978C2.98498 9.77978 2.97297 9.77378 2.97297 9.7618C2.97297 9.74981 2.97297 9.75581 2.97297 9.77978H3.00901C2.997 9.79176 2.99099 9.79775 2.99099 9.79775H2.97297C2.94895 9.82172 2.93694 9.85768 2.93694 9.90562C2.93694 9.92959 2.94294 9.94157 2.95496 9.94157V9.95955C2.94294 9.98352 2.91892 10.0015 2.88288 10.0135H2.86486V10.0315C2.85285 10.0315 2.84685 10.0375 2.84685 10.0494C2.84685 10.0614 2.83483 10.0734 2.81081 10.0854C2.81081 10.1094 2.8048 10.1213 2.79279 10.1213V10.1573H2.77477C2.77477 10.1693 2.76276 10.1813 2.73874 10.1933C2.72673 10.1933 2.72072 10.2052 2.72072 10.2292C2.70871 10.2412 2.7027 10.2712 2.7027 10.3191C2.7027 10.3191 2.7027 10.3251 2.7027 10.3371C2.71471 10.3371 2.72072 10.3431 2.72072 10.3551C2.75676 10.3551 2.77477 10.367 2.77477 10.391C2.75075 10.403 2.73273 10.421 2.72072 10.4449C2.72072 10.4569 2.71471 10.4689 2.7027 10.4809C2.71471 10.4929 2.71471 10.5049 2.7027 10.5169V10.5528V10.6247C2.7027 10.5888 2.70871 10.5708 2.72072 10.5708V10.7146C2.6967 10.7386 2.69069 10.7625 2.7027 10.7865L2.68468 10.8045C2.68468 10.8165 2.69069 10.8345 2.7027 10.8584C2.7027 10.8345 2.70871 10.8225 2.72072 10.8225V10.8584C2.70871 10.8704 2.7027 10.8764 2.7027 10.8764C2.7027 10.8884 2.6967 10.8944 2.68468 10.8944C2.70871 10.9184 2.71471 10.9363 2.7027 10.9483C2.7027 10.9603 2.7027 10.9723 2.7027 10.9843V11.0022C2.7027 11.0142 2.70871 11.0202 2.72072 11.0202C2.70871 11.0322 2.7027 11.0442 2.7027 11.0562V11.0742V11.1101C2.7027 11.1221 2.70871 11.1281 2.72072 11.1281C2.72072 11.1401 2.72673 11.1581 2.73874 11.182C2.76276 11.194 2.77477 11.206 2.77477 11.218H2.7027V11.2899C2.71471 11.3019 2.72072 11.3139 2.72072 11.3258C2.73273 11.3378 2.75075 11.3438 2.77477 11.3438C2.77477 11.3558 2.76877 11.3678 2.75676 11.3798C2.74474 11.3798 2.75075 11.3918 2.77477 11.4157H2.72072C2.70871 11.4277 2.7027 11.4337 2.7027 11.4337V11.4517V11.4876V11.5056C2.69069 11.5176 2.68468 11.5296 2.68468 11.5416C2.68468 11.5655 2.68468 11.5775 2.68468 11.5775C2.6967 11.5775 2.7027 11.5895 2.7027 11.6135H2.64865C2.64865 11.6255 2.65465 11.6315 2.66667 11.6315C2.67868 11.6315 2.68468 11.6434 2.68468 11.6674V11.6854H2.64865C2.64865 11.6974 2.65465 11.7034 2.66667 11.7034H2.68468C2.66066 11.7273 2.65465 11.7393 2.66667 11.7393C2.67868 11.7393 2.67267 11.7393 2.64865 11.7393V11.7753C2.64865 11.8112 2.64264 11.8292 2.63063 11.8292V11.8652L2.64865 11.8831V11.9011V11.9371V11.973L2.68468 11.991H2.64865C2.64865 12.003 2.64264 12.015 2.63063 12.027C2.63063 12.0509 2.63664 12.0689 2.64865 12.0809V12.1169C2.64865 12.1408 2.64865 12.1528 2.64865 12.1528V12.2067H2.63063C2.61862 12.2067 2.61261 12.2187 2.61261 12.2427V12.2787C2.61261 12.2906 2.61862 12.2966 2.63063 12.2966H2.55856V12.3326C2.55856 12.3685 2.55255 12.3865 2.54054 12.3865C2.52853 12.3985 2.52252 12.4225 2.52252 12.4584V12.4764H2.5045C2.49249 12.4884 2.48649 12.4944 2.48649 12.4944V12.5303C2.48649 12.5423 2.49249 12.5483 2.5045 12.5483C2.51652 12.5483 2.52252 12.5543 2.52252 12.5663C2.54655 12.5663 2.55856 12.5903 2.55856 12.6382C2.55856 12.6382 2.53453 12.6382 2.48649 12.6382C2.48649 12.6742 2.48048 12.6921 2.46847 12.6921C2.45646 12.7041 2.45045 12.7101 2.45045 12.7101C2.45045 12.7221 2.43243 12.7281 2.3964 12.7281L2.45045 12.782H2.3964V12.8C2.40841 12.812 2.42042 12.818 2.43243 12.818H2.46847C2.46847 12.8539 2.43844 12.8539 2.37838 12.818C2.39039 12.8419 2.3964 12.8839 2.3964 12.9438H2.37838V12.9798V13.0157H2.36036V13.0876H2.37838C2.36637 13.0876 2.36036 13.0936 2.36036 13.1056C2.36036 13.1176 2.36637 13.1236 2.37838 13.1236C2.37838 13.1596 2.37237 13.1835 2.36036 13.1955C2.37237 13.1955 2.37237 13.2015 2.36036 13.2135L2.37838 13.2494V13.2854C2.36637 13.3094 2.36036 13.3213 2.36036 13.3213V13.4472V13.4652C2.36036 13.4772 2.34835 13.4831 2.32432 13.4831C2.32432 13.4951 2.31832 13.5011 2.30631 13.5011C2.30631 13.5011 2.30631 13.5071 2.30631 13.5191H2.32432L2.30631 13.5371V13.573C2.28228 13.621 2.25826 13.6509 2.23423 13.6629C2.22222 13.6749 2.21622 13.6869 2.21622 13.6989C2.21622 13.7109 2.2042 13.7228 2.18018 13.7348H2.16216C2.13814 13.7228 2.12613 13.7169 2.12613 13.7169C2.09009 13.7169 2.07207 13.7348 2.07207 13.7708C2.03604 13.7708 2.01802 13.7828 2.01802 13.8067C1.99399 13.8307 1.98198 13.8427 1.98198 13.8427C1.99399 13.8667 1.99399 13.8787 1.98198 13.8787C1.98198 13.8906 1.98198 13.9086 1.98198 13.9326C1.96997 13.9326 1.96396 13.9506 1.96396 13.9865H1.94595C1.93393 13.9985 1.92793 14.0045 1.92793 14.0045V14.0404V14.0584H1.89189L1.85586 14.0764C1.84384 14.1124 1.83183 14.1303 1.81982 14.1303C1.80781 14.1423 1.7958 14.1483 1.78378 14.1483C1.77177 14.1483 1.75375 14.1543 1.72973 14.1663C1.75375 14.1903 1.76577 14.2082 1.76577 14.2202C1.76577 14.2322 1.75976 14.2382 1.74775 14.2382C1.73574 14.2382 1.74174 14.2382 1.76577 14.2382C1.74174 14.2742 1.71772 14.2921 1.69369 14.2921C1.71772 14.3041 1.72973 14.3101 1.72973 14.3101C1.70571 14.3221 1.68769 14.3341 1.67568 14.3461C1.67568 14.3581 1.66967 14.37 1.65766 14.382C1.66967 14.394 1.66967 14.4 1.65766 14.4L1.67568 14.4539C1.66366 14.4659 1.65165 14.4779 1.63964 14.4899C1.63964 14.5139 1.62763 14.5258 1.6036 14.5258L1.62162 14.5438C1.62162 14.5918 1.61562 14.6217 1.6036 14.6337V14.6697C1.6036 14.6936 1.5976 14.7116 1.58559 14.7236C1.57357 14.7356 1.55556 14.7536 1.53153 14.7775H1.51351V14.7056H1.4955C1.47147 14.7056 1.45946 14.7296 1.45946 14.7775C1.45946 14.7895 1.45345 14.7955 1.44144 14.7955V14.8494V14.8674C1.44144 14.8794 1.42943 14.8854 1.40541 14.8854C1.38138 14.9213 1.35736 14.9513 1.33333 14.9753C1.32132 14.9993 1.3033 15.0232 1.27928 15.0472V15.0292C1.23123 15.0292 1.1952 15.0592 1.17117 15.1191C1.18318 15.1191 1.18919 15.1251 1.18919 15.1371C1.18919 15.1491 1.1952 15.1551 1.20721 15.1551C1.1952 15.167 1.18318 15.173 1.17117 15.173C1.17117 15.185 1.15315 15.191 1.11712 15.191C1.08108 15.215 1.05105 15.227 1.02703 15.227C1.003 15.239 0.978979 15.2569 0.954955 15.2809C0.930931 15.3049 0.906907 15.3288 0.882883 15.3528C0.882883 15.3768 0.888889 15.3888 0.900901 15.3888C0.912913 15.4007 0.906907 15.4067 0.882883 15.4067C0.870871 15.4187 0.864865 15.4367 0.864865 15.4607V15.4787C0.852853 15.5026 0.840841 15.5206 0.828829 15.5326C0.816817 15.5446 0.810811 15.5566 0.810811 15.5685C0.798799 15.6045 0.780781 15.6345 0.756757 15.6584C0.732733 15.6824 0.714715 15.7064 0.702703 15.7303C0.678679 15.7543 0.660661 15.7723 0.648649 15.7843C0.636637 15.8082 0.624625 15.8262 0.612612 15.8382V15.8742H0.558559C0.606607 15.8262 0.642643 15.7723 0.666667 15.7124C0.702703 15.6644 0.744745 15.6105 0.792793 15.5506H0.774775C0.774775 15.5266 0.774775 15.5026 0.774775 15.4787C0.786787 15.4547 0.792793 15.4307 0.792793 15.4067V15.3708C0.792793 15.3588 0.798799 15.3528 0.810811 15.3528V15.3348C0.846847 15.3228 0.864865 15.2929 0.864865 15.2449C0.900901 15.2449 0.930931 15.227 0.954955 15.191V15.1191C0.966967 15.1191 0.972973 15.1131 0.972973 15.1011V15.0831V15.0472C0.972973 15.0352 0.966967 15.0232 0.954955 15.0112L0.936937 14.9933H0.972973V15.0112C0.984985 15.0112 1.003 15.0232 1.02703 15.0472C1.05105 15.0352 1.06306 15.0172 1.06306 14.9933V14.9753L1.04504 14.9573C1.05706 14.9573 1.06306 14.9513 1.06306 14.9393C1.07508 14.9393 1.09309 14.9393 1.11712 14.9393C1.15315 14.9393 1.17117 14.9154 1.17117 14.8674C1.18318 14.8674 1.18919 14.8614 1.18919 14.8494C1.18919 14.8375 1.18919 14.8315 1.18919 14.8315C1.2012 14.8315 1.20721 14.8195 1.20721 14.7955V14.7775C1.1952 14.7775 1.18919 14.7655 1.18919 14.7416C1.18919 14.7296 1.1952 14.7176 1.20721 14.7056C1.20721 14.7176 1.21321 14.7236 1.22523 14.7236V14.6876C1.26126 14.6757 1.28529 14.6757 1.2973 14.6876H1.31532C1.32733 14.6876 1.33333 14.6816 1.33333 14.6697C1.33333 14.6577 1.34535 14.6397 1.36937 14.6157C1.41742 14.6157 1.44144 14.5978 1.44144 14.5618V14.5258C1.44144 14.4899 1.45946 14.4779 1.4955 14.4899C1.4955 14.4779 1.4955 14.4599 1.4955 14.436C1.4955 14.412 1.50751 14.4 1.53153 14.4C1.51952 14.388 1.51351 14.376 1.51351 14.364C1.52553 14.364 1.53153 14.3521 1.53153 14.3281C1.53153 14.3161 1.54354 14.3101 1.56757 14.3101V14.2202C1.59159 14.2082 1.5976 14.1963 1.58559 14.1843C1.57357 14.1723 1.57958 14.1603 1.6036 14.1483V14.0764C1.61562 14.0644 1.62763 14.0464 1.63964 14.0225C1.65165 14.0105 1.66967 13.9985 1.69369 13.9865C1.68168 13.9386 1.69369 13.9026 1.72973 13.8787C1.75375 13.8787 1.76577 13.8607 1.76577 13.8247H1.81982C1.83183 13.8127 1.83183 13.7948 1.81982 13.7708V13.7169C1.83183 13.7169 1.84384 13.7049 1.85586 13.6809H1.89189C1.91592 13.6689 1.92793 13.6569 1.92793 13.6449C1.95195 13.6449 1.96396 13.6509 1.96396 13.6629C1.96396 13.6509 1.96396 13.639 1.96396 13.627C1.97598 13.615 1.98198 13.597 1.98198 13.573C1.98198 13.5491 1.98198 13.5431 1.98198 13.5551C1.99399 13.567 2.00601 13.573 2.01802 13.573V13.5371C2.04204 13.5251 2.06006 13.5191 2.07207 13.5191V13.5371C2.12012 13.5251 2.15616 13.4951 2.18018 13.4472C2.15616 13.4472 2.15616 13.4232 2.18018 13.3753C2.18018 13.3513 2.17417 13.3333 2.16216 13.3213L2.14414 13.2854C2.15616 13.2854 2.16817 13.2974 2.18018 13.3213V13.2494V13.2315C2.19219 13.2195 2.2042 13.2135 2.21622 13.2135C2.21622 13.2015 2.21021 13.1955 2.1982 13.1955C2.18619 13.1955 2.19219 13.1955 2.21622 13.1955C2.21622 13.1596 2.2042 13.1356 2.18018 13.1236H2.21622C2.21622 13.1116 2.21021 13.1056 2.1982 13.1056C2.1982 13.0936 2.1982 13.0816 2.1982 13.0697L2.18018 13.0517V13.0157C2.16817 13.0157 2.16216 13.0097 2.16216 12.9978C2.16216 12.9858 2.16817 12.9798 2.18018 12.9798V12.9618C2.18018 12.9618 2.18018 12.9378 2.18018 12.8899C2.16817 12.8779 2.16817 12.8539 2.18018 12.818H2.16216C2.15015 12.8419 2.14414 12.8539 2.14414 12.8539C2.0961 12.8539 2.07207 12.8419 2.07207 12.818L2.05405 12.8C2.05405 12.788 2.04805 12.782 2.03604 12.782C2.02402 12.77 2.01802 12.7521 2.01802 12.7281H2C2 12.7521 2 12.77 2 12.782C2.01201 12.794 2.01802 12.806 2.01802 12.818L2.05405 12.8539H2.01802H2V12.818C2 12.806 1.99399 12.794 1.98198 12.782C1.98198 12.77 1.98198 12.7521 1.98198 12.7281C1.98198 12.7161 1.97598 12.7101 1.96396 12.7101H1.92793V12.6921C1.89189 12.6562 1.87988 12.6322 1.89189 12.6202C1.86787 12.5843 1.85586 12.5603 1.85586 12.5483C1.84384 12.5483 1.83784 12.5483 1.83784 12.5483C1.83784 12.5363 1.83183 12.5303 1.81982 12.5303V12.4944C1.81982 12.4824 1.81381 12.4764 1.8018 12.4764C1.81381 12.4644 1.81982 12.4584 1.81982 12.4584C1.81982 12.4345 1.81381 12.4165 1.8018 12.4045C1.8018 12.3925 1.8018 12.3805 1.8018 12.3685C1.75375 12.3206 1.72973 12.3026 1.72973 12.3146H1.69369V12.2966C1.68168 12.2727 1.67568 12.2547 1.67568 12.2427C1.67568 12.2187 1.66967 12.1948 1.65766 12.1708C1.65766 12.1468 1.64565 12.1169 1.62162 12.0809V12.0629V12.027C1.60961 12.027 1.59159 12.021 1.56757 12.009C1.6036 12.009 1.58559 11.985 1.51351 11.9371V11.9011H1.4955V11.8652C1.4955 11.8052 1.46547 11.7453 1.40541 11.6854C1.45345 11.6614 1.45345 11.6375 1.40541 11.6135C1.35736 11.5655 1.33934 11.5416 1.35135 11.5416H1.33333C1.33333 11.5536 1.31532 11.5416 1.27928 11.5056C1.27928 11.4816 1.26727 11.4697 1.24324 11.4697C1.21922 11.4577 1.2012 11.4397 1.18919 11.4157H1.17117C1.17117 11.4157 1.15916 11.4277 1.13513 11.4517C1.13513 11.4637 1.12913 11.4697 1.11712 11.4697V11.4876C1.11712 11.4996 1.0991 11.5056 1.06306 11.5056C1.06306 11.5176 1.05706 11.5236 1.04504 11.5236H1.02703V11.5056C1.02703 11.4816 1.02703 11.4697 1.02703 11.4697C1.03904 11.4577 1.04504 11.4397 1.04504 11.4157L1.06306 11.3798C1.06306 11.3558 1.08108 11.3318 1.11712 11.3079H1.13513V11.3438V11.2899H1.06306C1.05105 11.2659 1.05105 11.2419 1.06306 11.218V11.182V11.164L1.04504 11.1461C1.03303 11.1341 1.02703 11.1221 1.02703 11.1101V11.0742C0.978979 11.0622 0.954955 11.0322 0.954955 10.9843V10.9483V10.8944C0.942943 10.8824 0.930931 10.8704 0.918919 10.8584C0.918919 10.8464 0.906907 10.8285 0.882883 10.8045V10.7865L0.864865 10.8045C0.828829 10.7925 0.810811 10.7566 0.810811 10.6966C0.798799 10.6966 0.792793 10.6906 0.792793 10.6787L0.774775 10.6607C0.726727 10.6846 0.702703 10.6787 0.702703 10.6427C0.702703 10.5948 0.726727 10.5528 0.774775 10.5169C0.738739 10.5169 0.720721 10.5049 0.720721 10.4809H0.738739C0.750751 10.4689 0.762763 10.4629 0.774775 10.4629C0.774775 10.415 0.756757 10.391 0.720721 10.391C0.744745 10.367 0.756757 10.361 0.756757 10.373C0.768769 10.385 0.780781 10.391 0.792793 10.391C0.804805 10.3551 0.822823 10.3371 0.846847 10.3371V10.3191H0.810811C0.810811 10.3071 0.804805 10.3011 0.792793 10.3011C0.792793 10.2891 0.792793 10.2712 0.792793 10.2472V10.1573V10.1213C0.792793 10.0854 0.792793 10.0674 0.792793 10.0674C0.792793 10.0434 0.768769 10.0315 0.720721 10.0315C0.732733 10.0315 0.714715 10.0195 0.666667 9.99551H0.702703C0.666667 9.99551 0.648649 9.97753 0.648649 9.94157H0.630631C0.618618 9.94157 0.612612 9.9176 0.612612 9.86966C0.564565 9.86966 0.540541 9.85768 0.540541 9.83371C0.552553 9.80974 0.552553 9.76779 0.540541 9.70787C0.552553 9.70787 0.558559 9.70187 0.558559 9.68989L0.540541 9.67191L0.486486 9.61798C0.474474 9.62996 0.444444 9.62996 0.396396 9.61798V9.54607C0.42042 9.54607 0.444444 9.53408 0.468468 9.51011H0.486486C0.522522 9.48614 0.546547 9.45019 0.558559 9.40225C0.558559 9.37828 0.576577 9.34832 0.612612 9.31236V9.29438C0.612612 9.25843 0.618618 9.23446 0.630631 9.22247V9.20449C0.606606 9.16854 0.6006 9.15056 0.612612 9.15056V9.13258V9.07865V9.06067C0.576577 9.06067 0.558559 9.05468 0.558559 9.0427C0.546547 9.0427 0.534535 9.0367 0.522522 9.02472C0.51051 9.01273 0.516516 9.00075 0.540541 8.98876V8.97079C0.48048 8.94682 0.48048 8.91685 0.540541 8.8809C0.552553 8.85693 0.588589 8.84494 0.648649 8.84494H0.666667H0.702703C0.714715 8.84494 0.720721 8.84494 0.720721 8.84494C0.732733 8.83296 0.750751 8.82097 0.774775 8.80899H0.720721H0.738739C0.738739 8.797 0.732733 8.79101 0.720721 8.79101V8.77303C0.720721 8.74906 0.738739 8.73708 0.774775 8.73708V8.7191V8.70112C0.774775 8.68914 0.780781 8.68315 0.792793 8.68315V8.66517V8.64719H0.810811C0.810811 8.62322 0.804805 8.61124 0.792793 8.61124C0.792793 8.61124 0.792793 8.59925 0.792793 8.57528H0.774775C0.738739 8.57528 0.720721 8.5573 0.720721 8.52135C0.744745 8.52135 0.756757 8.52734 0.756757 8.53933C0.768769 8.55131 0.780781 8.5573 0.792793 8.5573C0.792793 8.53333 0.798799 8.52135 0.810811 8.52135C0.834835 8.50936 0.846847 8.48539 0.846847 8.44944H0.864865V8.41348C0.864865 8.4015 0.858859 8.38352 0.846847 8.35955C0.870871 8.34757 0.882883 8.30562 0.882883 8.23371H0.936937C0.936937 8.19775 0.942943 8.17378 0.954955 8.1618C0.942943 8.13783 0.936937 8.12584 0.936937 8.12584L0.954955 8.08989L0.972973 8.05393L1.00901 8.03596L0.990991 8.01798C0.978979 8.01798 0.972973 8.01199 0.972973 8C0.960961 8 0.954955 7.98202 0.954955 7.94607C0.954955 7.9221 0.948949 7.91011 0.936937 7.91011C0.936937 7.89813 0.936937 7.88614 0.936937 7.87416C0.900901 7.87416 0.882883 7.86217 0.882883 7.8382C0.918919 7.81423 0.936937 7.77828 0.936937 7.73034H0.972973H1.00901H1.02703C1.02703 7.71835 1.02102 7.70637 1.00901 7.69438H1.02703C1.02703 7.67041 1.02102 7.65843 1.00901 7.65843H1.02703V7.62247C1.01501 7.58652 1.00901 7.56255 1.00901 7.55056C0.984985 7.53858 0.966967 7.52659 0.954955 7.51461C0.942943 7.50262 0.918919 7.49663 0.882883 7.49663C0.882883 7.47266 0.876877 7.46067 0.864865 7.46067C0.852853 7.4367 0.840841 7.42472 0.828829 7.42472C0.816817 7.41273 0.810811 7.40075 0.810811 7.38876H0.792793C0.792793 7.37678 0.786787 7.37079 0.774775 7.37079C0.750751 7.37079 0.732733 7.36479 0.720721 7.35281C0.708709 7.34082 0.690691 7.32884 0.666667 7.31685V7.29888V7.2809C0.654655 7.25693 0.648649 7.24494 0.648649 7.24494C0.636637 7.24494 0.630631 7.23296 0.630631 7.20899C0.642643 7.18502 0.642643 7.16704 0.630631 7.15506C0.618618 7.14307 0.612612 7.1191 0.612612 7.08315H0.540541V7.06517C0.540541 7.02921 0.528528 7.00524 0.504504 6.99326C0.504504 7.00524 0.498498 7.01124 0.486486 7.01124C0.486486 6.98727 0.48048 6.9633 0.468468 6.93933H0.486486C0.486486 6.90337 0.48048 6.87341 0.468468 6.84944V6.83146C0.48048 6.83146 0.486486 6.82547 0.486486 6.81348C0.474474 6.81348 0.468468 6.8015 0.468468 6.77753H0.45045C0.462462 6.75356 0.444444 6.7236 0.396396 6.68764H0.378378C0.378378 6.67566 0.384384 6.66966 0.396396 6.66966C0.384384 6.65768 0.378378 6.64569 0.378378 6.63371C0.378378 6.62172 0.366366 6.60375 0.342342 6.57978C0.366366 6.55581 0.378378 6.52584 0.378378 6.48989V6.45393L0.342342 6.41798C0.342342 6.38202 0.336336 6.35805 0.324324 6.34607V6.29214C0.324324 6.26817 0.318318 6.25019 0.306306 6.2382C0.306306 6.22622 0.306306 6.21423 0.306306 6.20225C0.306306 6.19026 0.3003 6.18427 0.288288 6.18427C0.288288 6.1603 0.27027 6.14832 0.234234 6.14832V6.05843V6.02247C0.258258 5.9985 0.264264 5.97453 0.252252 5.95056C0.24024 5.91461 0.234234 5.89064 0.234234 5.87865C0.222222 5.86667 0.216216 5.85468 0.216216 5.8427V5.82472V5.80674C0.216216 5.80674 0.216216 5.78277 0.216216 5.73483C0.204204 5.72285 0.192192 5.71685 0.18018 5.71685V5.66292V5.57303V5.53708H0.216216V5.41124C0.216216 5.39925 0.204204 5.38727 0.18018 5.37528C0.168168 5.35131 0.162162 5.32734 0.162162 5.30337C0.15015 5.30337 0.144144 5.28539 0.144144 5.24944C0.156156 5.24944 0.162162 5.23146 0.162162 5.19551V5.15955V5.08764V5.01573C0.186186 5.00375 0.204204 4.99176 0.216216 4.97978C0.24024 4.95581 0.264264 4.93184 0.288288 4.90787C0.288288 4.8839 0.288288 4.87191 0.288288 4.87191C0.3003 4.85993 0.306306 4.84794 0.306306 4.83596C0.306306 4.83596 0.306306 4.80599 0.306306 4.74607C0.318318 4.74607 0.324324 4.72809 0.324324 4.69213C0.336336 4.66817 0.342342 4.6382 0.342342 4.60225C0.342342 4.56629 0.342342 4.53633 0.342342 4.51236V4.45843V4.42247H0.36036C0.372372 4.41049 0.378378 4.3985 0.378378 4.38652L0.342342 4.36854C0.378378 4.35655 0.396396 4.33858 0.396396 4.31461V4.29663C0.432432 4.27266 0.432432 4.24869 0.396396 4.22472H0.45045C0.45045 4.21273 0.438438 4.20674 0.414414 4.20674C0.402402 4.20674 0.396396 4.20075 0.396396 4.18876C0.396396 4.16479 0.402402 4.15281 0.414414 4.15281C0.438438 4.15281 0.45045 4.14682 0.45045 4.13483C0.45045 4.09888 0.45045 4.07491 0.45045 4.06292C0.462462 4.03895 0.468468 4.01498 0.468468 3.99101C0.468468 3.96704 0.474474 3.95506 0.486486 3.95506L0.504504 3.90112C0.504504 3.87715 0.504504 3.86517 0.504504 3.86517L0.486486 3.82921C0.486486 3.80524 0.492492 3.79326 0.504504 3.79326C0.504504 3.81723 0.504504 3.82921 0.504504 3.82921H0.522522C0.534535 3.82921 0.540541 3.82322 0.540541 3.81124V3.79326H0.558559V3.72135H0.576577C0.600601 3.72135 0.612612 3.70936 0.612612 3.68539C0.612612 3.67341 0.618618 3.66142 0.630631 3.64944C0.642643 3.64944 0.654655 3.62547 0.666667 3.57753C0.666667 3.56554 0.672673 3.55356 0.684685 3.54157C0.696697 3.5176 0.702703 3.49963 0.702703 3.48764C0.714715 3.47566 0.720721 3.46966 0.720721 3.46966C0.768769 3.42172 0.792793 3.37978 0.792793 3.34382C0.792793 3.33184 0.798799 3.32584 0.810811 3.32584C0.834835 3.32584 0.852853 3.30187 0.864865 3.25393C0.876877 3.22996 0.882883 3.21199 0.882883 3.2C0.894895 3.17603 0.918919 3.15206 0.954955 3.12809C0.954955 3.10412 0.954955 3.09213 0.954955 3.09213C0.966967 3.08015 0.972973 3.06217 0.972973 3.0382H1.02703C1.01501 3.02622 1.00901 3.02023 1.00901 3.02023H1.02703C1.03904 3.00824 1.04504 2.98427 1.04504 2.94832H1.06306C1.11111 2.94832 1.13513 2.92435 1.13513 2.8764C1.13513 2.86442 1.14114 2.85843 1.15315 2.85843C1.16517 2.84644 1.17718 2.82846 1.18919 2.80449C1.2012 2.79251 1.20721 2.76255 1.20721 2.71461H1.22523V2.69663C1.2973 2.67266 1.33333 2.65468 1.33333 2.6427C1.34535 2.60674 1.35135 2.58876 1.35135 2.58876C1.36336 2.57678 1.38138 2.5588 1.40541 2.53483L1.44144 2.51685C1.44144 2.4809 1.45946 2.46891 1.4955 2.4809C1.50751 2.46891 1.51351 2.45693 1.51351 2.44494C1.51351 2.42097 1.51952 2.40899 1.53153 2.40899H1.56757V2.39101C1.56757 2.37903 1.57958 2.37303 1.6036 2.37303C1.6036 2.36105 1.60961 2.35506 1.62162 2.35506H1.63964C1.65165 2.34307 1.65766 2.33109 1.65766 2.3191C1.65766 2.30712 1.65766 2.30112 1.65766 2.30112L1.67568 2.24719H1.63964C1.62763 2.24719 1.62162 2.2412 1.62162 2.22921C1.65766 2.20524 1.68168 2.18727 1.69369 2.17528C1.74174 2.15131 1.77778 2.14532 1.8018 2.1573C1.8018 2.14532 1.80781 2.13933 1.81982 2.13933L1.83784 2.08539L1.85586 2.06742C1.92793 2.06742 1.96396 2.04944 1.96396 2.01348V1.99551C1.98799 1.99551 2.00601 1.99551 2.01802 1.99551C2.04204 1.98352 2.06006 1.97753 2.07207 1.97753C2.10811 1.96554 2.12613 1.94157 2.12613 1.90562H2.16216C2.16216 1.94157 2.16817 1.94157 2.18018 1.90562C2.18018 1.88165 2.21622 1.85768 2.28829 1.83371V1.81573H2.30631V1.79775L2.32432 1.74382C2.32432 1.73184 2.33033 1.72584 2.34234 1.72584H2.36036C2.34835 1.70187 2.34234 1.68989 2.34234 1.68989H2.32432V1.67191C2.32432 1.63596 2.33634 1.60599 2.36036 1.58202C2.37237 1.58202 2.38438 1.57603 2.3964 1.56405C2.43243 1.56405 2.45045 1.54607 2.45045 1.51011V1.49213C2.46246 1.49213 2.46847 1.48015 2.46847 1.45618C2.48048 1.43221 2.48649 1.41423 2.48649 1.40225C2.48649 1.37828 2.49249 1.3603 2.5045 1.34831C2.51652 1.33633 2.52853 1.31835 2.54054 1.29438C2.55255 1.30637 2.55856 1.31835 2.55856 1.33034C2.55856 1.30637 2.56456 1.29438 2.57658 1.29438C2.6006 1.29438 2.61261 1.2824 2.61261 1.25843C2.61261 1.23446 2.63664 1.21049 2.68468 1.18652C2.6967 1.18652 2.7027 1.18052 2.7027 1.16854L2.72072 1.13258C2.75676 1.10861 2.77477 1.07865 2.77477 1.0427V1.00674L2.72072 0.970787C2.75676 0.958802 2.78078 0.934832 2.79279 0.898877V0.844944C2.78078 0.820974 2.77477 0.808989 2.77477 0.808989C2.78679 0.808989 2.79279 0.802997 2.79279 0.791012C2.8048 0.743072 2.82282 0.719101 2.84685 0.719101V0.701124C2.84685 0.677154 2.87688 0.653184 2.93694 0.629214C2.97297 0.605243 3.003 0.581273 3.02703 0.557304C3.05105 0.533333 3.08709 0.509363 3.13514 0.485393C3.15916 0.473409 3.17718 0.461424 3.18919 0.449439C3.2012 0.425468 3.21922 0.407491 3.24324 0.395506C3.27928 0.395506 3.30931 0.377528 3.33333 0.341573C3.34535 0.365543 3.35736 0.371536 3.36937 0.35955C3.39339 0.347565 3.41742 0.341573 3.44144 0.341573C3.48949 0.317603 3.53153 0.287641 3.56757 0.251685C3.56757 0.2397 3.57357 0.233708 3.58559 0.233708H3.6036C3.62763 0.221723 3.64565 0.215731 3.65766 0.215731H3.67568C3.73574 0.19176 3.8018 0.16779 3.87387 0.143821L3.83784 0.161798C3.8018 0.173783 3.76577 0.185768 3.72973 0.197753C3.69369 0.209738 3.66366 0.221723 3.63964 0.233708H3.62162C3.60961 0.245693 3.6036 0.251685 3.6036 0.251685C3.53153 0.31161 3.48949 0.341573 3.47748 0.341573V0.377529C3.47748 0.377529 3.45345 0.389513 3.40541 0.413483L3.38739 0.395506H3.36937C3.35736 0.395506 3.35736 0.419476 3.36937 0.467416V0.485393C3.35736 0.497378 3.34535 0.503371 3.33333 0.503371C3.32132 0.491386 3.3033 0.491386 3.27928 0.503371C3.25525 0.491386 3.23123 0.485393 3.20721 0.485393C3.18318 0.497378 3.15916 0.509363 3.13514 0.521348C3.12312 0.533334 3.1051 0.545319 3.08108 0.557304C3.05706 0.569289 3.03904 0.587266 3.02703 0.611237C3.02703 0.623222 3.02102 0.635206 3.00901 0.647191V0.665169C2.98498 0.665169 2.97297 0.677154 2.97297 0.701124C2.96096 0.713109 2.95496 0.719101 2.95496 0.719101V0.737079C2.95496 0.773034 2.94895 0.797004 2.93694 0.808989C2.91291 0.832959 2.89489 0.838951 2.88288 0.826966C2.88288 0.814981 2.87688 0.820974 2.86486 0.844944C2.86486 0.856929 2.86486 0.862922 2.86486 0.862922C2.87688 0.862922 2.88288 0.868914 2.88288 0.880899C2.88288 0.868914 2.88889 0.862922 2.9009 0.862922H2.93694C2.93694 0.874907 2.91892 0.880899 2.88288 0.880899C2.91892 0.892884 2.93694 0.916854 2.93694 0.95281V1.00674C2.93694 1.01873 2.91291 1.02472 2.86486 1.02472V1.0427V1.06067H2.84685C2.82282 1.09663 2.81682 1.12659 2.82883 1.15056C2.84084 1.17453 2.84685 1.1985 2.84685 1.22247H2.81081C2.7988 1.22247 2.78679 1.23446 2.77477 1.25843C2.77477 1.30637 2.74474 1.33034 2.68468 1.33034C2.68468 1.34232 2.67267 1.34831 2.64865 1.34831V1.36629V1.40225L2.63063 1.42022V1.49213C2.61862 1.50412 2.61261 1.5161 2.61261 1.52809L2.55856 1.56405C2.54655 1.56405 2.54054 1.58202 2.54054 1.61798V1.65393C2.52853 1.66592 2.52252 1.67191 2.52252 1.67191C2.52252 1.71985 2.4985 1.74382 2.45045 1.74382C2.45045 1.77978 2.45646 1.79775 2.46847 1.79775C2.45646 1.80974 2.43844 1.82172 2.41441 1.83371C2.4024 1.83371 2.39039 1.8397 2.37838 1.85169C2.36637 1.87566 2.35435 1.89363 2.34234 1.90562C2.33033 1.9176 2.32432 1.93558 2.32432 1.95955C2.31231 1.97154 2.30631 1.98352 2.30631 1.99551C2.30631 1.99551 2.3003 2.0015 2.28829 2.01348V2.04944L2.23423 2.06742C2.22222 2.06742 2.21622 2.07341 2.21622 2.08539H2.18018H2.12613C2.1021 2.10936 2.07808 2.12135 2.05405 2.12135C2.04204 2.10936 2.02402 2.11536 2 2.13933V2.08539L1.98198 2.13933L1.96396 2.1573C1.96396 2.16929 1.95195 2.17528 1.92793 2.17528C1.9039 2.18727 1.89189 2.19326 1.89189 2.19326V2.21124C1.86787 2.22322 1.84985 2.22921 1.83784 2.22921V2.24719C1.83784 2.28315 1.83183 2.30712 1.81982 2.3191C1.81982 2.34307 1.8018 2.35506 1.76577 2.35506C1.70571 2.37903 1.63964 2.43895 1.56757 2.53483H1.53153L1.4955 2.57079C1.4955 2.61873 1.48348 2.6427 1.45946 2.6427C1.45946 2.66667 1.45345 2.67865 1.44144 2.67865V2.6427L1.40541 2.67865V2.69663C1.38138 2.70861 1.36336 2.72659 1.35135 2.75056C1.35135 2.77453 1.33333 2.80449 1.2973 2.84045C1.24925 2.84045 1.22523 2.85243 1.22523 2.8764H1.20721V2.91236H1.18919C1.18919 2.93633 1.18318 2.94832 1.17117 2.94832C1.17117 2.94832 1.17117 2.95431 1.17117 2.96629C1.17117 3.01423 1.15315 3.0382 1.11712 3.0382C1.05706 3.07416 1.03303 3.09213 1.04504 3.09213C1.02102 3.09213 1.00901 3.1161 1.00901 3.16404H0.972973C0.972973 3.21199 0.966967 3.24195 0.954955 3.25393C0.942943 3.25393 0.930931 3.26592 0.918919 3.28989C0.918919 3.30187 0.906907 3.31386 0.882883 3.32584V3.34382V3.3618C0.870871 3.38577 0.864865 3.40974 0.864865 3.43371C0.864865 3.45768 0.858859 3.47566 0.846847 3.48764C0.846847 3.49963 0.834835 3.50562 0.810811 3.50562C0.798799 3.50562 0.792793 3.51161 0.792793 3.5236C0.780781 3.54757 0.768769 3.56554 0.756757 3.57753C0.744745 3.58951 0.750751 3.60749 0.774775 3.63146V3.64944H0.720721H0.666667C0.666667 3.67341 0.660661 3.68539 0.648649 3.68539C0.648649 3.70936 0.642643 3.72734 0.630631 3.73933C0.630631 3.75131 0.630631 3.76929 0.630631 3.79326V3.81124V3.86517C0.618618 3.87715 0.594595 3.88315 0.558559 3.88315V3.95506C0.546547 3.97903 0.564565 4.003 0.612612 4.02697C0.576577 4.02697 0.552553 4.03296 0.540541 4.04494V4.06292C0.48048 4.08689 0.468468 4.11685 0.504504 4.15281C0.492492 4.15281 0.486486 4.17079 0.486486 4.20674C0.51051 4.2427 0.504504 4.27865 0.468468 4.31461C0.468468 4.33858 0.474474 4.35655 0.486486 4.36854C0.474474 4.36854 0.468468 4.37453 0.468468 4.38652C0.468468 4.38652 0.474474 4.38652 0.486486 4.38652C0.462462 4.41049 0.444444 4.43446 0.432432 4.45843C0.432432 4.47041 0.42042 4.48839 0.396396 4.51236V4.53034C0.396396 4.54232 0.414414 4.54831 0.45045 4.54831V4.58427C0.426426 4.59625 0.414414 4.60225 0.414414 4.60225H0.396396V4.62023V4.6382C0.372372 4.68614 0.366366 4.71011 0.378378 4.71011H0.342342C0.366366 4.75805 0.36036 4.8 0.324324 4.83596V4.87191V4.88989V4.90787V4.94382V4.97978C0.324324 4.99176 0.318318 4.99775 0.306306 4.99775C0.306306 4.99775 0.306306 5.00375 0.306306 5.01573C0.306306 5.02772 0.3003 5.03371 0.288288 5.03371C0.288288 5.03371 0.288288 5.04569 0.288288 5.06966C0.3003 5.08165 0.306306 5.08764 0.306306 5.08764V5.1236C0.306306 5.14757 0.306306 5.15955 0.306306 5.15955C0.306306 5.17154 0.3003 5.18352 0.288288 5.19551C0.288288 5.19551 0.294294 5.20749 0.306306 5.23146H0.234234V5.37528H0.288288C0.264264 5.39925 0.258258 5.42322 0.27027 5.44719C0.282282 5.45918 0.294294 5.47116 0.306306 5.48315H0.288288C0.288288 5.49513 0.294294 5.50112 0.306306 5.50112H0.288288C0.288288 5.52509 0.276276 5.54307 0.252252 5.55506C0.24024 5.56704 0.234234 5.59101 0.234234 5.62697V5.64494H0.288288C0.288288 5.69288 0.288288 5.71685 0.288288 5.71685C0.288288 5.72884 0.294294 5.75281 0.306306 5.78876C0.306306 5.78876 0.306306 5.81273 0.306306 5.86067C0.294294 5.87266 0.288288 5.89064 0.288288 5.91461C0.3003 5.93858 0.306306 5.95655 0.306306 5.96854C0.318318 5.96854 0.324324 5.97453 0.324324 5.98652V6.02247C0.324324 6.03446 0.318318 6.04045 0.306306 6.04045C0.306306 6.02846 0.318318 6.04644 0.342342 6.09438V6.13034H0.378378V6.18427C0.378378 6.19625 0.384384 6.20824 0.396396 6.22022V6.25618C0.432432 6.28015 0.45045 6.31011 0.45045 6.34607V6.36405C0.462462 6.37603 0.462462 6.38202 0.45045 6.38202V6.48989C0.462462 6.51386 0.462462 6.53184 0.45045 6.54382C0.462462 6.54382 0.468468 6.56779 0.468468 6.61573C0.468468 6.61573 0.468468 6.62772 0.468468 6.65169C0.48048 6.66367 0.48048 6.66966 0.468468 6.66966V6.68764C0.48048 6.71161 0.492492 6.72959 0.504504 6.74157C0.504504 6.78951 0.516516 6.81348 0.540541 6.81348V6.84944L0.558559 6.86742V6.88539C0.582582 6.89738 0.594594 6.91536 0.594594 6.93933C0.606606 6.9633 0.618618 6.97528 0.630631 6.97528V6.99326C0.642643 7.00524 0.648649 7.02322 0.648649 7.04719V7.06517H0.702703C0.666667 7.06517 0.666667 7.08914 0.702703 7.13708V7.15506C0.690691 7.15506 0.714715 7.17303 0.774775 7.20899C0.798799 7.22097 0.810811 7.22697 0.810811 7.22697C0.846847 7.25094 0.864865 7.2809 0.864865 7.31685V7.35281C0.864865 7.36479 0.870871 7.37079 0.882883 7.37079C0.930931 7.37079 0.960961 7.37678 0.972973 7.38876C0.972973 7.40075 0.978979 7.41273 0.990991 7.42472C1.003 7.42472 1.00901 7.4367 1.00901 7.46067H1.02703L1.04504 7.47865C1.04504 7.49064 1.05105 7.50861 1.06306 7.53258V7.55056C1.05105 7.56255 1.05105 7.57453 1.06306 7.58652C1.07508 7.5985 1.09309 7.59251 1.11712 7.56854H1.17117V7.55056C1.18318 7.55056 1.18919 7.55056 1.18919 7.55056C1.18919 7.53858 1.1952 7.53258 1.20721 7.53258V7.47865C1.20721 7.41873 1.23123 7.38277 1.27928 7.37079C1.24324 7.37079 1.22523 7.3588 1.22523 7.33483C1.27327 7.33483 1.2973 7.32285 1.2973 7.29888C1.34535 7.21498 1.36937 7.13708 1.36937 7.06517C1.39339 7.05318 1.40541 7.0412 1.40541 7.02921C1.40541 7.01723 1.41742 7.00524 1.44144 6.99326V6.97528V6.90337H1.45946L1.47748 6.88539C1.48949 6.87341 1.4955 6.86142 1.4955 6.84944C1.4955 6.83745 1.5015 6.83146 1.51351 6.83146L1.53153 6.81348C1.53153 6.78951 1.53754 6.77753 1.54955 6.77753C1.56156 6.77753 1.56757 6.76554 1.56757 6.74157C1.59159 6.74157 1.62162 6.7236 1.65766 6.68764C1.70571 6.59176 1.75976 6.53783 1.81982 6.52584C1.81982 6.51386 1.82583 6.50187 1.83784 6.48989C1.83784 6.46592 1.83784 6.45393 1.83784 6.45393C1.84985 6.45393 1.85586 6.44195 1.85586 6.41798C1.85586 6.46592 1.84384 6.50187 1.81982 6.52584C1.80781 6.53783 1.8018 6.54981 1.8018 6.5618C1.8018 6.57378 1.78979 6.59176 1.76577 6.61573C1.74174 6.6397 1.72372 6.65768 1.71171 6.66966C1.6997 6.68165 1.68769 6.69963 1.67568 6.7236C1.63964 6.7236 1.62162 6.74157 1.62162 6.77753C1.60961 6.8015 1.5976 6.81948 1.58559 6.83146C1.57357 6.83146 1.56757 6.83745 1.56757 6.84944C1.54354 6.84944 1.53153 6.85543 1.53153 6.86742C1.53153 6.8794 1.52553 6.88539 1.51351 6.88539V6.93933C1.5015 6.9633 1.48949 6.98727 1.47748 7.01124C1.46547 7.02322 1.45946 7.0412 1.45946 7.06517C1.48348 7.07715 1.48949 7.08914 1.47748 7.10112C1.46547 7.10112 1.45345 7.11311 1.44144 7.13708C1.45345 7.14906 1.44144 7.17303 1.40541 7.20899V7.22697C1.39339 7.22697 1.38739 7.23296 1.38739 7.24494C1.38739 7.26891 1.39339 7.28689 1.40541 7.29888H1.36937H1.38739L1.40541 7.31685C1.38138 7.31685 1.36336 7.33483 1.35135 7.37079C1.35135 7.38277 1.34535 7.39476 1.33333 7.40674C1.34535 7.40674 1.35135 7.42472 1.35135 7.46067C1.31532 7.49663 1.2973 7.50861 1.2973 7.49663C1.28529 7.5206 1.27327 7.54457 1.26126 7.56854C1.26126 7.58052 1.24925 7.5985 1.22523 7.62247C1.22523 7.63446 1.21922 7.64644 1.20721 7.65843C1.20721 7.65843 1.20721 7.67041 1.20721 7.69438C1.20721 7.70637 1.2012 7.71236 1.18919 7.71236H1.20721C1.1952 7.72434 1.18919 7.73034 1.18919 7.73034H1.20721L1.22523 7.78427V7.8382V7.85618H1.27928V7.87416H1.22523V7.96405V8C1.21321 8.01199 1.20721 8.01798 1.20721 8.01798C1.1952 8.01798 1.18318 8.02397 1.17117 8.03596C1.17117 8.03596 1.15916 8.03596 1.13513 8.03596C1.13513 8.03596 1.11111 8.05393 1.06306 8.08989V8.17978C1.05105 8.19176 1.04504 8.20375 1.04504 8.21573C1.04504 8.22772 1.03303 8.23371 1.00901 8.23371V8.25169C1.00901 8.27566 1.003 8.28764 0.990991 8.28764C0.978979 8.28764 0.972973 8.29963 0.972973 8.3236C0.996997 8.33558 1.003 8.34757 0.990991 8.35955C0.978979 8.35955 0.984985 8.37154 1.00901 8.39551C1.00901 8.40749 1.003 8.41948 0.990991 8.43146C0.978979 8.44345 0.972973 8.46142 0.972973 8.48539H0.954955C0.942943 8.49738 0.936937 8.50936 0.936937 8.52135V8.5573C0.936937 8.56929 0.942943 8.58727 0.954955 8.61124C0.942943 8.64719 0.942943 8.67116 0.954955 8.68315C0.954955 8.7191 0.948949 8.73708 0.936937 8.73708C0.948949 8.797 0.930931 8.83296 0.882883 8.84494C0.870871 8.86891 0.870871 8.90487 0.882883 8.95281L0.936937 8.97079C0.936937 8.99476 0.936937 9.00674 0.936937 9.00674V9.07865L0.900901 9.11461C0.888889 9.13858 0.882883 9.15056 0.882883 9.15056C0.870871 9.15056 0.864865 9.14457 0.864865 9.13258C0.852853 9.14457 0.846847 9.15056 0.846847 9.15056C0.822823 9.13858 0.810811 9.12659 0.810811 9.11461C0.810811 9.10262 0.804805 9.10861 0.792793 9.13258C0.768769 9.15655 0.744745 9.16854 0.720721 9.16854C0.720721 9.15655 0.738739 9.14457 0.774775 9.13258C0.726727 9.14457 0.708709 9.15655 0.720721 9.16854C0.720721 9.20449 0.738739 9.24644 0.774775 9.29438H0.792793V9.34832C0.780781 9.34832 0.774775 9.34232 0.774775 9.33034V9.31236H0.720721C0.720721 9.33633 0.726727 9.34832 0.738739 9.34832C0.750751 9.34832 0.744745 9.35431 0.720721 9.36629C0.720721 9.36629 0.720721 9.37828 0.720721 9.40225C0.696697 9.47416 0.714715 9.51011 0.774775 9.51011C0.774775 9.57004 0.786787 9.61199 0.810811 9.63596C0.810811 9.67191 0.822823 9.69588 0.846847 9.70787C0.822823 9.70787 0.810811 9.71386 0.810811 9.72584C0.810811 9.73783 0.804805 9.74382 0.792793 9.74382C0.780781 9.74382 0.774775 9.7618 0.774775 9.79775C0.786787 9.79775 0.792793 9.80974 0.792793 9.83371C0.804805 9.84569 0.810811 9.88165 0.810811 9.94157V9.95955C0.846847 9.99551 0.864865 10.0195 0.864865 10.0315V10.1573C0.864865 10.1693 0.864865 10.1753 0.864865 10.1753C0.876877 10.1753 0.882883 10.1813 0.882883 10.1933C0.882883 10.2172 0.888889 10.2352 0.900901 10.2472C0.912913 10.2592 0.906907 10.2772 0.882883 10.3011H0.936937C0.936937 10.3131 0.936937 10.3251 0.936937 10.3371C0.948949 10.3491 0.948949 10.367 0.936937 10.391C0.936937 10.403 0.942943 10.409 0.954955 10.409C0.966967 10.4689 0.984985 10.5049 1.00901 10.5169C1.00901 10.5408 1.01501 10.5588 1.02703 10.5708C1.01501 10.6067 0.996997 10.6307 0.972973 10.6427C1.00901 10.6547 1.03904 10.7086 1.06306 10.8045V10.8225H1.04504V10.8584H1.06306C1.03904 10.8824 1.05706 10.8944 1.11712 10.8944C1.11712 10.9423 1.0991 10.9723 1.06306 10.9843H1.11712C1.12913 11.0202 1.14715 11.0382 1.17117 11.0382C1.17117 11.0382 1.18318 11.0502 1.20721 11.0742C1.20721 11.0981 1.2012 11.1161 1.18919 11.1281C1.18919 11.1281 1.18919 11.1341 1.18919 11.1461V11.182C1.2012 11.194 1.2012 11.206 1.18919 11.218C1.23724 11.2659 1.27327 11.2899 1.2973 11.2899C1.32132 11.3019 1.33333 11.3199 1.33333 11.3438H1.35135C1.36336 11.3438 1.36937 11.3498 1.36937 11.3618C1.36937 11.3738 1.37538 11.3798 1.38739 11.3798H1.40541C1.42943 11.3678 1.44144 11.3678 1.44144 11.3798C1.45345 11.3798 1.47147 11.3798 1.4955 11.3798C1.51952 11.3798 1.53153 11.4037 1.53153 11.4517V11.4697C1.55556 11.4577 1.57958 11.4577 1.6036 11.4697C1.6036 11.4936 1.57958 11.5056 1.53153 11.5056V11.5416C1.53153 11.5655 1.53153 11.5715 1.53153 11.5596C1.53153 11.5476 1.52553 11.5536 1.51351 11.5775H1.4955C1.50751 11.6015 1.51952 11.6255 1.53153 11.6494C1.55556 11.6614 1.57958 11.6794 1.6036 11.7034C1.6036 11.7273 1.60961 11.7393 1.62162 11.7393C1.60961 11.7513 1.6036 11.7573 1.6036 11.7573V11.7753C1.59159 11.7873 1.5976 11.8052 1.62162 11.8292V11.8472V11.8652V11.9371C1.64565 11.9371 1.65766 11.9431 1.65766 11.9551C1.65766 11.967 1.66366 11.961 1.67568 11.9371L1.69369 11.973V12.027C1.71772 12.027 1.72973 12.0449 1.72973 12.0809V12.1169C1.72973 12.1408 1.74174 12.1528 1.76577 12.1528V12.1708C1.8018 12.2067 1.81982 12.2247 1.81982 12.2247H1.85586L1.83784 12.2427C1.83784 12.2667 1.84384 12.2846 1.85586 12.2966C1.87988 12.2966 1.87988 12.3026 1.85586 12.3146H1.92793V12.3326C1.92793 12.3446 1.93393 12.3506 1.94595 12.3506C1.95796 12.3625 1.96997 12.3685 1.98198 12.3685C1.99399 12.3805 2 12.3925 2 12.4045L2.01802 12.4584C2.00601 12.4704 2 12.4764 2 12.4764C2.03604 12.5124 2.05405 12.5423 2.05405 12.5663C2.05405 12.6142 2.06006 12.6442 2.07207 12.6562H2.12613C2.1021 12.6802 2.0961 12.6921 2.10811 12.6921C2.12012 12.6921 2.12613 12.6981 2.12613 12.7101C2.15015 12.7341 2.16216 12.7281 2.16216 12.6921C2.17417 12.7041 2.19219 12.7101 2.21622 12.7101C2.24024 12.7101 2.26426 12.7161 2.28829 12.7281C2.28829 12.7161 2.27027 12.7041 2.23423 12.6921C2.23423 12.6682 2.24024 12.6562 2.25225 12.6562C2.27628 12.6562 2.28829 12.6502 2.28829 12.6382V12.6202C2.28829 12.5843 2.27027 12.5663 2.23423 12.5663V12.5303C2.25826 12.5303 2.27027 12.5363 2.27027 12.5483C2.28228 12.5483 2.29429 12.5483 2.30631 12.5483C2.29429 12.5363 2.28829 12.5184 2.28829 12.4944C2.28829 12.4704 2.3003 12.4584 2.32432 12.4584H2.34234V12.4404C2.35435 12.4285 2.36036 12.4165 2.36036 12.4045C2.38438 12.3566 2.42042 12.3266 2.46847 12.3146C2.45646 12.3026 2.45646 12.2787 2.46847 12.2427V12.2247C2.48048 12.2127 2.48649 12.2067 2.48649 12.2067C2.47447 12.1828 2.46847 12.1648 2.46847 12.1528C2.48048 12.1408 2.48649 12.1169 2.48649 12.0809L2.5045 12.0629C2.51652 12.0509 2.52252 12.039 2.52252 12.027C2.4985 12.015 2.48649 11.997 2.48649 11.973V11.8652H2.52252V11.8472C2.52252 11.8232 2.51051 11.7993 2.48649 11.7753V11.7573C2.4985 11.7453 2.51051 11.7393 2.52252 11.7393V11.6315C2.4985 11.6195 2.48649 11.5895 2.48649 11.5416C2.48649 11.5176 2.5045 11.5056 2.54054 11.5056V11.4697V11.4157H2.55856V11.3798C2.55856 11.3558 2.54655 11.3318 2.52252 11.3079C2.52252 11.2959 2.51652 11.2899 2.5045 11.2899C2.49249 11.2899 2.48649 11.2779 2.48649 11.2539V11.182V11.0742L2.52252 11.1281V11.0562H2.48649V11.0382C2.48649 11.0022 2.4985 10.9843 2.52252 10.9843C2.53453 10.9723 2.54054 10.9423 2.54054 10.8944V10.8764C2.54054 10.8644 2.53453 10.8584 2.52252 10.8584C2.52252 10.8584 2.52252 10.8464 2.52252 10.8225C2.51051 10.8105 2.4985 10.8045 2.48649 10.8045V10.8225H2.46847C2.5045 10.7865 2.52252 10.7745 2.52252 10.7865V10.7685C2.52252 10.7446 2.52853 10.7326 2.54054 10.7326C2.5045 10.7326 2.48649 10.7266 2.48649 10.7146V10.6607C2.47447 10.6487 2.47447 10.6427 2.48649 10.6427C2.48649 10.6067 2.49249 10.5888 2.5045 10.5888C2.51652 10.5768 2.52252 10.5648 2.52252 10.5528V10.5169C2.52252 10.5169 2.52252 10.4809 2.52252 10.409V10.4629H2.54054V10.391V10.3551V10.3371C2.54054 10.3371 2.54054 10.3251 2.54054 10.3011H2.52252C2.4985 10.3011 2.48048 10.2951 2.46847 10.2831C2.46847 10.2592 2.47447 10.2412 2.48649 10.2292C2.51051 10.2052 2.52252 10.1873 2.52252 10.1753C2.52252 10.1633 2.52853 10.1573 2.54054 10.1573C2.55255 10.1573 2.57658 10.1453 2.61261 10.1213L2.63063 10.1573V10.0674C2.61862 10.0794 2.59459 10.0854 2.55856 10.0854C2.54655 10.0734 2.54054 10.0554 2.54054 10.0315V9.99551C2.54054 9.97154 2.54054 9.95955 2.54054 9.95955C2.55255 9.95955 2.55856 9.95356 2.55856 9.94157L2.57658 9.9236C2.6006 9.89963 2.61261 9.88165 2.61261 9.86966C2.57658 9.86966 2.55856 9.86367 2.55856 9.85169C2.57057 9.85169 2.58859 9.8397 2.61261 9.81573L2.63063 9.79775C2.64264 9.78577 2.64865 9.77978 2.64865 9.77978C2.64865 9.74382 2.67267 9.71386 2.72072 9.68989V9.67191C2.72072 9.63596 2.73874 9.61798 2.77477 9.61798C2.78679 9.61798 2.79279 9.61199 2.79279 9.6V9.56404C2.78078 9.55206 2.77477 9.54008 2.77477 9.52809C2.77477 9.49214 2.78078 9.47416 2.79279 9.47416C2.8048 9.46217 2.81081 9.45618 2.81081 9.45618V9.40225C2.82282 9.39026 2.83483 9.38427 2.84685 9.38427V9.36629V9.31236H2.81081C2.83483 9.30038 2.84084 9.2824 2.82883 9.25843C2.81682 9.23446 2.81081 9.21648 2.81081 9.20449L2.82883 9.18652C2.82883 9.17453 2.82883 9.16854 2.82883 9.16854C2.84084 9.16854 2.84685 9.16255 2.84685 9.15056H2.88288C2.88288 9.13858 2.88889 9.13258 2.9009 9.13258C2.91291 9.1206 2.90691 9.10262 2.88288 9.07865V9.06067V9.00674C2.85886 8.99476 2.85886 8.97678 2.88288 8.95281C2.89489 8.94082 2.90691 8.93483 2.91892 8.93483C2.93093 8.93483 2.94294 8.94082 2.95496 8.95281C2.95496 8.95281 2.95496 8.93483 2.95496 8.89888V8.8809V8.84494L2.97297 8.82697C2.96096 8.81498 2.96096 8.78502 2.97297 8.73708V8.7191V8.68315V8.64719C2.97297 8.59925 2.99099 8.58727 3.02703 8.61124C3.02703 8.58727 3.02102 8.57528 3.00901 8.57528C2.997 8.5633 2.98498 8.5573 2.97297 8.5573ZM0.612612 16L0.468468 15.8921L0.648649 15.5506C0.648649 15.4667 0.666667 15.4127 0.702703 15.3888V15.3528C0.702703 15.3408 0.708709 15.3288 0.720721 15.3169L0.774775 15.2809V15.2449L0.792793 15.191L0.846847 15.1551C0.846847 15.1311 0.846847 15.1131 0.846847 15.1011C0.858859 15.0891 0.864865 15.0712 0.864865 15.0472L0.846847 15.0292L0.666667 14.8315L1.00901 14.8854C1.00901 14.8734 1.01501 14.8674 1.02703 14.8674C1.03904 14.8554 1.05105 14.8494 1.06306 14.8494L1.11712 14.8315V14.7955C1.09309 14.7835 1.08108 14.7655 1.08108 14.7416C1.08108 14.7176 1.0991 14.6936 1.13513 14.6697L1.17117 14.6337H1.18919C1.18919 14.5858 1.21922 14.5618 1.27928 14.5618C1.3033 14.5378 1.32733 14.5258 1.35135 14.5258C1.35135 14.4779 1.36937 14.436 1.40541 14.4C1.40541 14.388 1.41742 14.382 1.44144 14.382L1.40541 14.3281L1.45946 14.3101V14.2382C1.45946 14.2262 1.46547 14.2202 1.47748 14.2202C1.48949 14.2202 1.4955 14.2142 1.4955 14.2022V14.1483C1.4955 14.1363 1.4955 14.1184 1.4955 14.0944C1.4955 14.0704 1.5015 14.0524 1.51351 14.0404L1.53153 14.0045C1.55556 13.9925 1.56757 13.9805 1.56757 13.9685C1.56757 13.9685 1.57958 13.9566 1.6036 13.9326C1.6036 13.9086 1.6036 13.8846 1.6036 13.8607C1.61562 13.8487 1.62162 13.8367 1.62162 13.8247L1.67568 13.7708L1.72973 13.7348L1.69369 13.6629L1.8018 13.6449C1.81381 13.6449 1.81982 13.639 1.81982 13.627V13.609H1.83784L1.89189 13.5191C1.89189 13.4951 1.92192 13.4831 1.98198 13.4831L2.07207 13.4112V13.3753C2.06006 13.3513 2.05405 13.3393 2.05405 13.3393V13.3213L1.98198 13.1236L2.12613 13.1775L2.07207 13.0876L2.12613 13.0517C2.09009 13.0277 2.07207 12.9978 2.07207 12.9618L2.01802 12.9798L1.98198 12.9438H1.96396C1.96396 12.9199 1.95796 12.9079 1.94595 12.9079C1.93393 12.8959 1.92793 12.8839 1.92793 12.8719C1.92793 12.8599 1.92192 12.8479 1.90991 12.836C1.8979 12.824 1.89189 12.812 1.89189 12.8L1.85586 12.818L1.83784 12.7281L1.81982 12.7101C1.80781 12.6981 1.8018 12.6742 1.8018 12.6382C1.77778 12.6262 1.76577 12.6022 1.76577 12.5663C1.74174 12.5663 1.72973 12.5663 1.72973 12.5663C1.72973 12.5543 1.71772 12.5423 1.69369 12.5303L1.56757 12.4764L1.67568 12.4045C1.67568 12.3925 1.66967 12.3865 1.65766 12.3865C1.65766 12.3745 1.63964 12.3506 1.6036 12.3146V12.2966C1.6036 12.2727 1.5976 12.2547 1.58559 12.2427C1.57357 12.2307 1.56757 12.2187 1.56757 12.2067V12.1708C1.51952 12.1468 1.5015 12.1348 1.51351 12.1348L1.35135 12.0809L1.45946 12.009L1.40541 11.973L1.36937 11.9371V11.8472C1.36937 11.8232 1.36336 11.7873 1.35135 11.7393L1.2973 11.6854L1.33333 11.6674V11.6315C1.2973 11.6315 1.26126 11.6255 1.22523 11.6135L1.18919 11.5775V11.5236C1.18919 11.5356 1.18318 11.5416 1.17117 11.5416C1.17117 11.5895 1.15315 11.6135 1.11712 11.6135C1.05706 11.6255 1.00901 11.6255 0.972973 11.6135C0.936937 11.5536 0.930931 11.5056 0.954955 11.4697C0.954955 11.4337 0.960961 11.4037 0.972973 11.3798V11.3618L1.00901 11.3438C0.960961 11.2719 0.960961 11.224 1.00901 11.2L0.972973 11.182C0.900901 11.1341 0.864865 11.0682 0.864865 10.9843V10.9663C0.852853 10.9543 0.846847 10.9483 0.846847 10.9483C0.846847 10.9124 0.834835 10.8884 0.810811 10.8764C0.750751 10.8524 0.720721 10.8225 0.720721 10.7865H0.666667C0.642643 10.7625 0.630631 10.7446 0.630631 10.7326C0.630631 10.7086 0.624625 10.6846 0.612612 10.6607V10.6247L0.648649 10.5169V10.4629L0.558559 10.391L0.666667 10.3191C0.678679 10.3071 0.690691 10.3011 0.702703 10.3011V10.2472C0.642643 10.2232 0.642643 10.1933 0.702703 10.1573L0.666667 10.1213C0.654655 10.0974 0.642643 10.0794 0.630631 10.0674H0.612612V10.0315H0.576577C0.564565 10.0315 0.558559 10.0255 0.558559 10.0135C0.546547 10.0015 0.534535 9.99551 0.522522 9.99551C0.51051 9.98352 0.504504 9.96554 0.504504 9.94157C0.48048 9.94157 0.468468 9.91161 0.468468 9.85169L0.45045 9.79775L0.468468 9.77978V9.74382V9.70787C0.408408 9.70787 0.366366 9.70187 0.342342 9.68989C0.306306 9.62996 0.3003 9.57004 0.324324 9.51011C0.324324 9.51011 0.336336 9.49813 0.36036 9.47416C0.372372 9.47416 0.378378 9.46816 0.378378 9.45618C0.39039 9.40824 0.42042 9.38427 0.468468 9.38427C0.48048 9.37228 0.486486 9.34232 0.486486 9.29438C0.486486 9.27041 0.486486 9.25243 0.486486 9.24045C0.498498 9.22846 0.504504 9.21648 0.504504 9.20449V9.16854V9.13258C0.468468 9.08464 0.45045 9.03071 0.45045 8.97079C0.426426 8.93483 0.42042 8.90487 0.432432 8.8809C0.444444 8.85693 0.462462 8.83895 0.486486 8.82697C0.498498 8.81498 0.516516 8.797 0.540541 8.77303C0.564565 8.74906 0.594595 8.73708 0.630631 8.73708H0.648649C0.648649 8.70112 0.654655 8.68315 0.666667 8.68315V8.66517C0.666667 8.65318 0.660661 8.64719 0.648649 8.64719C0.648649 8.64719 0.648649 8.63521 0.648649 8.61124C0.648649 8.61124 0.648649 8.58727 0.648649 8.53933V8.50337L0.666667 8.44944H0.702703H0.720721C0.756757 8.42547 0.774775 8.40749 0.774775 8.39551L0.720721 8.34157L0.792793 8.28764C0.792793 8.25169 0.798799 8.22172 0.810811 8.19775L0.846847 8.12584L0.810811 8.08989L0.864865 8.03596C0.864865 8.02397 0.858859 8.01798 0.846847 8.01798C0.846847 8.00599 0.846847 7.98802 0.846847 7.96405C0.810811 7.89214 0.798799 7.8382 0.810811 7.80225V7.78427V7.73034L0.846847 7.69438L0.864865 7.65843H0.882883L0.846847 7.56854H0.882883L0.810811 7.55056V7.53258C0.786787 7.48464 0.774775 7.46667 0.774775 7.47865C0.738739 7.47865 0.720721 7.47266 0.720721 7.46067C0.696697 7.46067 0.678679 7.45468 0.666667 7.4427C0.666667 7.41873 0.660661 7.40674 0.648649 7.40674C0.624625 7.38277 0.612612 7.3588 0.612612 7.33483C0.564565 7.33483 0.540541 7.32285 0.540541 7.29888C0.504504 7.25094 0.504504 7.22097 0.540541 7.20899H0.504504H0.378378L0.396396 7.15506V7.01124L0.324324 6.93933L0.378378 6.90337V6.88539V6.83146C0.354354 6.83146 0.342342 6.81348 0.342342 6.77753C0.33033 6.77753 0.324324 6.76554 0.324324 6.74157L0.234234 6.68764L0.288288 6.65169L0.216216 6.57978L0.306306 6.52584V6.50787C0.294294 6.49588 0.288288 6.45393 0.288288 6.38202H0.234234C0.222222 6.35805 0.216216 6.32809 0.216216 6.29214V6.25618L0.18018 6.22022L0.162162 6.20225V6.18427C0.162162 6.1603 0.156156 6.14832 0.144144 6.14832V6.05843C0.144144 6.03446 0.15015 6.00449 0.162162 5.96854V5.95056C0.162162 5.93858 0.156156 5.93258 0.144144 5.93258C0.144144 5.93258 0.144144 5.9206 0.144144 5.89663V5.87865V5.86067V5.80674V5.78876C0.096096 5.75281 0.0720719 5.70487 0.0720719 5.64494V5.55506C0.0720719 5.54307 0.078078 5.53708 0.09009 5.53708C0.102102 5.53708 0.108108 5.52509 0.108108 5.50112V5.48315V5.41124L0.09009 5.39326C0.078078 5.39326 0.0720719 5.38727 0.0720719 5.37528V5.33933C0.0600599 5.33933 0.0540539 5.33333 0.0540539 5.32135L0 5.23146L0.0540539 5.19551C0.0540539 5.17154 0.0600599 5.15356 0.0720719 5.14157V5.08764C0.0600599 5.08764 0.0540539 5.07566 0.0540539 5.05169V5.03371V5.01573V4.94382L0.144144 4.90787C0.156156 4.89588 0.162162 4.8839 0.162162 4.87191L0.18018 4.85393V4.81798V4.78202L0.162162 4.71011L0.216216 4.69213V4.67416H0.234234C0.234234 4.59026 0.252252 4.53633 0.288288 4.51236V4.4764H0.252252C0.24024 4.4764 0.234234 4.47041 0.234234 4.45843V4.44045C0.234234 4.42846 0.252252 4.41049 0.288288 4.38652L0.216216 4.29663L0.306306 4.26067H0.324324L0.306306 4.22472L0.324324 4.18876C0.312312 4.18876 0.312312 4.17678 0.324324 4.15281V4.13483V4.0809C0.336336 4.06891 0.342342 4.03895 0.342342 3.99101C0.342342 3.95506 0.36036 3.9191 0.396396 3.88315L0.378378 3.86517V3.81124C0.378378 3.7633 0.39039 3.73333 0.414414 3.72135C0.45045 3.69738 0.474474 3.68539 0.486486 3.68539V3.66742C0.51051 3.61948 0.534535 3.58352 0.558559 3.55955V3.5236C0.594595 3.51161 0.624625 3.47566 0.648649 3.41573V3.39775L0.666667 3.3618C0.666667 3.34981 0.672673 3.34382 0.684685 3.34382C0.696697 3.33184 0.702703 3.31985 0.702703 3.30787C0.702703 3.29588 0.708709 3.2839 0.720721 3.27191C0.732733 3.25993 0.750751 3.24794 0.774775 3.23596V3.2C0.786787 3.17603 0.798799 3.15206 0.810811 3.12809C0.822823 3.09213 0.840841 3.06217 0.864865 3.0382C0.876877 3.0382 0.882883 3.03221 0.882883 3.02023V3.00225V2.94832L0.972973 2.91236V2.8764C0.996997 2.8764 1.02102 2.86442 1.04504 2.84045C1.05706 2.81648 1.06907 2.80449 1.08108 2.80449C1.10511 2.79251 1.11712 2.77453 1.11712 2.75056L1.02703 2.53483L1.20721 2.62472L1.22523 2.57079C1.27327 2.5588 1.2973 2.54082 1.2973 2.51685C1.32132 2.51685 1.33333 2.50487 1.33333 2.4809H1.35135C1.35135 2.40899 1.38138 2.37303 1.44144 2.37303H1.45946C1.47147 2.36105 1.48348 2.35506 1.4955 2.35506C1.4955 2.33109 1.5015 2.31311 1.51351 2.30112H1.53153L1.45946 2.21124L1.65766 2.08539C1.70571 2.06142 1.74174 2.04944 1.76577 2.04944C1.8018 2.01348 1.83183 1.99551 1.85586 1.99551V1.95955L2.01802 1.88764C2.04204 1.85169 2.07808 1.82772 2.12613 1.81573H2.14414H2.16216V1.72584H2.21622V1.67191C2.22823 1.65993 2.23423 1.62996 2.23423 1.58202L2.28829 1.51011L2.32432 1.49213H2.36036V1.45618V1.42022H2.37838V1.40225C2.37838 1.34232 2.41441 1.2764 2.48649 1.20449H2.52252C2.54655 1.15655 2.57658 1.13258 2.61261 1.13258H2.63063V1.09663L2.64865 1.06067V1.0427H2.66667C2.67868 1.0427 2.68468 1.0367 2.68468 1.02472L2.63063 0.970787L2.64865 0.898877H2.68468V0.880899C2.68468 0.785019 2.69069 0.731086 2.7027 0.719101C2.71471 0.707117 2.72072 0.689139 2.72072 0.665169C2.74474 0.641199 2.76276 0.617229 2.77477 0.593258C2.7988 0.569289 2.82282 0.557304 2.84685 0.557304C2.85886 0.557304 2.86486 0.551311 2.86486 0.539326C2.93694 0.503371 2.99099 0.461423 3.02703 0.413483C3.03904 0.401498 3.04505 0.395506 3.04505 0.395506H3.08108C3.1051 0.383521 3.12312 0.371536 3.13514 0.35955C3.15916 0.347565 3.18318 0.33558 3.20721 0.323596L3.24324 0.305618L3.31532 0.233708L3.35135 0.251685V0.233708L3.36937 0.251685C3.41742 0.227716 3.45345 0.215731 3.47748 0.215731C3.48949 0.19176 3.5015 0.179775 3.51351 0.179775C3.51351 0.16779 3.51952 0.161798 3.53153 0.161798H3.56757C3.56757 0.113858 3.5976 0.0898876 3.65766 0.0898876L3.92793 0L4 0.179775L3.89189 0.233708H3.87387C3.84985 0.245693 3.83183 0.257678 3.81982 0.269663C3.80781 0.269663 3.78979 0.281648 3.76577 0.305618C3.74174 0.305618 3.72372 0.311611 3.71171 0.323596C3.6997 0.323596 3.68769 0.323596 3.67568 0.323596L3.65766 0.341573C3.64565 0.365543 3.62763 0.383521 3.6036 0.395506C3.57958 0.395506 3.55556 0.401498 3.53153 0.413483C3.53153 0.461423 3.51351 0.491386 3.47748 0.503371H3.4955L3.44144 0.539326C3.41742 0.563296 3.38138 0.575281 3.33333 0.575281H3.31532L3.24324 0.647191L3.20721 0.575281C3.18318 0.575281 3.17117 0.599251 3.17117 0.647191C3.14715 0.659176 3.13514 0.665169 3.13514 0.665169H3.11712L3.08108 0.701124L3.04505 0.719101C3.04505 0.731086 3.03904 0.737079 3.02703 0.737079C3.02703 0.785019 3.02102 0.820974 3.00901 0.844944C3.02102 0.868914 3.02102 0.886892 3.00901 0.898877C3.02102 0.946817 3.02102 0.982772 3.00901 1.00674V1.06067C2.98498 1.06067 2.97297 1.06667 2.97297 1.07865C2.97297 1.09064 2.96697 1.09663 2.95496 1.09663L2.93694 1.16854C2.93694 1.18052 2.93694 1.19251 2.93694 1.20449C2.94895 1.20449 2.95496 1.21049 2.95496 1.22247V1.34831H2.84685C2.82282 1.3603 2.8048 1.37229 2.79279 1.38427C2.79279 1.39625 2.78679 1.40225 2.77477 1.40225C2.77477 1.41423 2.76276 1.42022 2.73874 1.42022H2.72072V1.45618C2.6967 1.50412 2.68468 1.52809 2.68468 1.52809C2.68468 1.55206 2.67868 1.57603 2.66667 1.6C2.65465 1.61199 2.64264 1.62996 2.63063 1.65393C2.63063 1.6779 2.62462 1.70187 2.61261 1.72584C2.58859 1.73783 2.57057 1.75581 2.55856 1.77978C2.55856 1.79176 2.55255 1.79775 2.54054 1.79775L2.55856 1.81573L2.52252 1.85169L2.48649 1.88764L2.46847 1.90562L2.45045 1.95955C2.43844 1.97154 2.42643 1.97753 2.41441 1.97753C2.4024 1.98951 2.3964 1.99551 2.3964 1.99551C2.38438 1.99551 2.37838 2.0015 2.37838 2.01348L2.3964 2.04944L2.36036 2.08539C2.33634 2.12135 2.31832 2.14532 2.30631 2.1573C2.27027 2.19326 2.22222 2.21124 2.16216 2.21124C2.15015 2.21124 2.14414 2.19925 2.14414 2.17528C2.12012 2.19925 2.10811 2.21124 2.10811 2.21124H2.07207H2.05405L2.01802 2.22921C2.00601 2.2412 1.98799 2.24719 1.96396 2.24719V2.30112L1.92793 2.3191C1.92793 2.35506 1.91592 2.37303 1.89189 2.37303C1.85586 2.38502 1.82583 2.41498 1.8018 2.46292C1.74174 2.47491 1.68168 2.51086 1.62162 2.57079C1.60961 2.58277 1.6036 2.59476 1.6036 2.60674C1.59159 2.61873 1.57958 2.62472 1.56757 2.62472V2.67865C1.56757 2.72659 1.53153 2.75056 1.45946 2.75056V2.78652H1.44144V2.80449L1.33333 2.91236V2.94832L1.2973 2.96629H1.27928V3.00225H1.22523V3.02023C1.22523 3.05618 1.20721 3.09213 1.17117 3.12809C1.17117 3.16405 1.15315 3.18202 1.11712 3.18202V3.2L1.04504 3.23596C1.04504 3.27191 1.03303 3.30187 1.00901 3.32584V3.34382H0.972973C0.972973 3.39176 0.966967 3.41573 0.954955 3.41573V3.46966C0.954955 3.48165 0.948949 3.49363 0.936937 3.50562C0.888889 3.55356 0.858859 3.57753 0.846847 3.57753V3.64944V3.68539L0.792793 3.79326L0.774775 3.73933C0.738739 3.77528 0.720721 3.79925 0.720721 3.81124C0.720721 3.82322 0.714715 3.83521 0.702703 3.84719C0.702703 3.85918 0.702703 3.87116 0.702703 3.88315C0.702703 3.89513 0.690691 3.90112 0.666667 3.90112L0.972973 3.97303L0.630631 4.0809C0.630631 4.11685 0.624625 4.13483 0.612612 4.13483V4.20674C0.612612 4.21873 0.606606 4.2367 0.594594 4.26067C0.594594 4.28464 0.582582 4.30262 0.558559 4.31461L0.666667 4.36854L0.630631 4.38652L0.648649 4.45843L0.504504 4.51236V4.53034V4.54831V4.62023C0.504504 4.65618 0.492492 4.68614 0.468468 4.71011V4.81798C0.456456 4.82996 0.45045 4.84195 0.45045 4.85393V4.94382C0.45045 4.97978 0.432432 5.00375 0.396396 5.01573C0.396396 5.02772 0.39039 5.03371 0.378378 5.03371H0.396396L0.378378 5.08764V5.14157V5.19551L0.396396 5.30337L0.342342 5.32135L0.45045 5.33933L0.378378 5.39326V5.41124L0.45045 5.50112L0.396396 5.53708L0.486486 5.69888L0.378378 5.66292V5.71685L0.45045 5.78876L0.378378 5.82472V5.87865V5.89663L0.486486 5.98652L0.45045 6.02247V6.04045L0.486486 6.05843L0.468468 6.14832V6.18427C0.48048 6.19625 0.486486 6.20225 0.486486 6.20225C0.498498 6.22622 0.51051 6.25019 0.522522 6.27416C0.534535 6.29813 0.540541 6.3221 0.540541 6.34607V6.38202V6.45393C0.540541 6.4779 0.540541 6.49588 0.540541 6.50787C0.552553 6.50787 0.552553 6.51985 0.540541 6.54382V6.57978C0.552553 6.60375 0.558559 6.63371 0.558559 6.66966L0.612612 6.68764C0.612612 6.71161 0.612612 6.72959 0.612612 6.74157C0.624625 6.74157 0.630631 6.75356 0.630631 6.77753C0.642643 6.8015 0.648649 6.82547 0.648649 6.84944L0.666667 6.86742V6.88539V6.90337C0.702703 6.90337 0.720721 6.92734 0.720721 6.97528H0.810811L0.792793 7.06517V7.08315L0.810811 7.13708C0.846847 7.13708 0.864865 7.14906 0.864865 7.17303H0.882883C0.882883 7.197 0.888889 7.21498 0.900901 7.22697C0.924925 7.22697 0.942943 7.23296 0.954955 7.24494C0.954955 7.25693 0.966967 7.27491 0.990991 7.29888C1.003 7.31086 1.01501 7.31685 1.02703 7.31685V7.33483L1.04504 7.35281V7.37079C1.08108 7.37079 1.11111 7.38277 1.13513 7.40674V7.33483L1.11712 7.24494H1.20721V7.22697C1.21922 7.203 1.23123 7.17903 1.24324 7.15506C1.26727 7.13109 1.28529 7.09513 1.2973 7.04719C1.2973 7.03521 1.3033 7.02322 1.31532 7.01124L1.33333 6.99326V6.97528V6.93933V6.90337C1.34535 6.85543 1.36937 6.83146 1.40541 6.83146C1.40541 6.81948 1.41141 6.80749 1.42342 6.79551C1.42342 6.78352 1.42943 6.77753 1.44144 6.77753V6.74157H1.45946C1.45946 6.72959 1.47748 6.70562 1.51351 6.66966H1.54955C1.56156 6.66966 1.56757 6.66367 1.56757 6.65169C1.59159 6.59176 1.61562 6.54981 1.63964 6.52584C1.67568 6.50187 1.70571 6.4779 1.72973 6.45393H1.74775C1.75976 6.44195 1.76577 6.42996 1.76577 6.41798V6.38202C1.78979 6.38202 1.8018 6.38202 1.8018 6.38202C1.8018 6.37004 1.80781 6.36405 1.81982 6.36405L2.16216 5.89663L1.96396 6.48989C1.96396 6.50187 1.93994 6.53184 1.89189 6.57978C1.86787 6.60375 1.85586 6.62172 1.85586 6.63371C1.85586 6.64569 1.84985 6.65768 1.83784 6.66966C1.82583 6.69363 1.80781 6.7176 1.78378 6.74157C1.77177 6.75356 1.75375 6.77753 1.72973 6.81348H1.71171C1.6997 6.82547 1.69369 6.83146 1.69369 6.83146H1.67568V6.84944C1.66366 6.87341 1.64565 6.89139 1.62162 6.90337V6.93933C1.60961 6.93933 1.6036 6.95131 1.6036 6.97528L1.58559 6.99326C1.57357 7.00524 1.56757 7.01124 1.56757 7.01124V7.04719C1.56757 7.10712 1.55556 7.14307 1.53153 7.15506V7.17303C1.51952 7.17303 1.51351 7.17903 1.51351 7.19101V7.22697L1.62162 7.31685L1.4955 7.37079C1.47147 7.37079 1.45946 7.38277 1.45946 7.40674L1.4955 7.47865L1.40541 7.53258H1.36937V7.55056C1.35736 7.55056 1.35135 7.55655 1.35135 7.56854V7.62247C1.35135 7.63446 1.34535 7.64644 1.33333 7.65843H1.44144L1.35135 7.73034V7.80225V7.85618L1.36937 7.96405H1.33333V8C1.33333 8.04794 1.29129 8.08989 1.20721 8.12584L1.18919 8.14382C1.17718 8.15581 1.17117 8.1618 1.17117 8.1618V8.23371L1.13513 8.25169C1.12312 8.25169 1.11111 8.25768 1.0991 8.26966C1.0991 8.28165 1.08709 8.29963 1.06306 8.3236L1.13513 8.34157L1.06306 8.44944C1.05105 8.47341 1.04504 8.49738 1.04504 8.52135C1.03303 8.53333 1.02703 8.53933 1.02703 8.53933V8.5573V8.57528V8.64719L1.04504 8.66517H1.02703V8.68315C1.03904 8.70712 1.03904 8.72509 1.02703 8.73708C1.02703 8.74906 1.02703 8.76704 1.02703 8.79101C1.02703 8.81498 1.00901 8.84494 0.972973 8.8809C0.996997 8.89288 1.00901 8.89888 1.00901 8.89888L1.02703 8.95281V8.97079C1.02703 8.99476 1.02102 9.01873 1.00901 9.0427V9.06067V9.07865V9.15056V9.16854L0.972973 9.20449L0.954955 9.22247C0.954955 9.23446 0.948949 9.24045 0.936937 9.24045H0.882883L0.864865 9.38427L0.846847 9.40225V9.45618V9.51011C0.846847 9.49813 0.858859 9.5161 0.882883 9.56404L0.936937 9.61798V9.63596L1.18919 9.74382L0.864865 9.79775C0.876877 9.82172 0.882883 9.8397 0.882883 9.85169L1.00901 9.83371L0.936937 9.90562C0.936937 9.92959 0.936937 9.94757 0.936937 9.95955C0.948949 9.97154 0.954955 9.99551 0.954955 10.0315C0.954955 10.0554 0.954955 10.0734 0.954955 10.0854C0.966967 10.0854 0.972973 10.0974 0.972973 10.1213V10.1753C0.996997 10.1873 1.00901 10.2292 1.00901 10.3011V10.3191C1.00901 10.3311 1.00901 10.3431 1.00901 10.3551C1.02102 10.367 1.02703 10.379 1.02703 10.391C1.02703 10.403 1.02703 10.415 1.02703 10.427C1.03904 10.427 1.04504 10.439 1.04504 10.4629C1.05706 10.4749 1.06306 10.4809 1.06306 10.4809L1.13513 10.5708L1.11712 10.6427C1.12913 10.6547 1.13513 10.6667 1.13513 10.6787C1.13513 10.6906 1.14715 10.7026 1.17117 10.7146V10.7865H1.18919V10.8045V10.8225L1.20721 10.8584L1.18919 10.9483L1.20721 10.9663C1.1952 10.9663 1.21922 10.9843 1.27928 11.0202L1.33333 11.0382L1.2973 11.1281V11.1461V11.182L1.33333 11.2C1.35736 11.2 1.36937 11.218 1.36937 11.2539C1.41742 11.2539 1.44745 11.2659 1.45946 11.2899C1.48348 11.2899 1.5015 11.2959 1.51351 11.3079C1.52553 11.3079 1.53754 11.3139 1.54955 11.3258C1.56156 11.3378 1.57958 11.3498 1.6036 11.3618C1.62763 11.3618 1.65165 11.3798 1.67568 11.4157L1.69369 11.4517V11.4697C1.68168 11.4936 1.67568 11.5116 1.67568 11.5236C1.67568 11.5356 1.66967 11.5536 1.65766 11.5775L1.62162 11.6135C1.65766 11.6135 1.67568 11.6315 1.67568 11.6674L1.69369 11.7034L1.76577 11.7393L1.69369 11.8112C1.69369 11.8232 1.6997 11.8292 1.71171 11.8292L1.72973 11.8472C1.77778 11.8712 1.8018 11.9131 1.8018 11.973V11.991C1.8018 11.991 1.81381 12.015 1.83784 12.0629V12.0809V12.1169C1.84985 12.1408 1.85586 12.1528 1.85586 12.1528L2.01802 12.2067L2 12.2247H2.07207L2.05405 12.3146C2.05405 12.3266 2.05405 12.3326 2.05405 12.3326C2.06607 12.3326 2.07207 12.3386 2.07207 12.3506V12.3685C2.10811 12.3805 2.12613 12.3925 2.12613 12.4045L2.14414 12.4764V12.4944V12.5483C2.15616 12.5603 2.16216 12.5663 2.16216 12.5663V12.4584H2.18018C2.2042 12.3985 2.24024 12.3685 2.28829 12.3685C2.3003 12.3326 2.32432 12.3086 2.36036 12.2966C2.36036 12.2487 2.36637 12.2247 2.37838 12.2247V12.1708V12.1528C2.37838 12.1049 2.38438 12.0749 2.3964 12.0629V12.027V11.973V11.9011V11.8652V11.8292V11.7393V11.7034V11.6674V11.5416C2.3964 11.5176 2.4024 11.4996 2.41441 11.4876C2.43844 11.4757 2.45045 11.4637 2.45045 11.4517C2.45045 11.4277 2.45045 11.4157 2.45045 11.4157C2.46246 11.4157 2.46847 11.4037 2.46847 11.3798H2.45045L2.3964 11.3438V11.2539V11.2C2.38438 11.1521 2.38438 11.1281 2.3964 11.1281L2.32432 10.8045L2.37838 10.8584V10.7865V10.7146V10.6966C2.37838 10.6607 2.38438 10.6367 2.3964 10.6247V10.5528V10.5169L2.45045 10.4809L2.32432 10.2472L2.37838 10.3011C2.37838 10.2292 2.38438 10.1873 2.3964 10.1753C2.3964 10.1633 2.4024 10.1513 2.41441 10.1393C2.43844 10.1273 2.45045 10.1094 2.45045 10.0854H2.46847L2.45045 10.0674L2.46847 10.0135V9.95955C2.46847 9.9236 2.47447 9.90562 2.48649 9.90562V9.86966V9.83371C2.51051 9.79775 2.53453 9.75581 2.55856 9.70787C2.58258 9.69588 2.59459 9.68989 2.59459 9.68989C2.60661 9.6779 2.61862 9.67191 2.63063 9.67191V9.56404H2.64865L2.68468 9.54607V9.52809C2.66066 9.50412 2.65465 9.48614 2.66667 9.47416C2.67868 9.45019 2.69069 9.42622 2.7027 9.40225V9.38427C2.7027 9.37228 2.7027 9.36629 2.7027 9.36629C2.71471 9.36629 2.72072 9.3603 2.72072 9.34832V9.29438V9.24045L2.7027 9.22247V9.16854L2.79279 9.06067V9.0427C2.79279 8.98277 2.7988 8.93483 2.81081 8.89888C2.81081 8.88689 2.81682 8.87491 2.82883 8.86292C2.82883 8.85094 2.83483 8.84494 2.84685 8.84494C2.84685 8.83296 2.84685 8.82697 2.84685 8.82697C2.85886 8.82697 2.86486 8.82097 2.86486 8.80899V8.68315L2.88288 8.66517V8.64719V8.61124C2.87087 8.58727 2.86486 8.57528 2.86486 8.57528L2.72072 8.35955L2.79279 8.39551V8.34157C2.8048 8.34157 2.8048 8.33558 2.79279 8.3236H2.77477C2.77477 8.29963 2.75676 8.28764 2.72072 8.28764L2.68468 8.25169L2.7027 8.19775C2.7027 8.14981 2.70871 8.12584 2.72072 8.12584V8.05393L2.68468 8.01798L2.77477 7.96405V7.94607V7.89214L2.72072 7.85618L2.79279 7.8382V7.80225V7.71236L2.72072 7.56854L2.79279 7.55056V7.47865V7.46067V7.37079H2.84685C2.82282 7.34682 2.81682 7.33483 2.82883 7.33483C2.84084 7.33483 2.84685 7.32884 2.84685 7.31685L2.77477 7.20899L2.88288 7.17303L2.93694 7.15506V7.13708L2.88288 7.08315C2.84685 7.04719 2.84084 7.01723 2.86486 6.99326C2.81682 6.98127 2.79279 6.93333 2.79279 6.84944V6.81348C2.78078 6.78951 2.77477 6.75955 2.77477 6.7236V6.68764V6.66966V6.61573C2.73874 6.59176 2.72072 6.55581 2.72072 6.50787V6.38202C2.70871 6.38202 2.7027 6.37004 2.7027 6.34607V6.36405L2.68468 6.29214L2.64865 6.25618H2.68468V6.22022C2.66066 6.22022 2.64865 6.21423 2.64865 6.20225V6.18427C2.63664 6.17228 2.63063 6.1603 2.63063 6.14832V6.09438V6.05843C2.61862 6.04644 2.61261 6.01648 2.61261 5.96854V5.95056C2.52853 5.89064 2.48649 5.8367 2.48649 5.78876H2.46847V5.66292C2.45646 5.63895 2.45045 5.62697 2.45045 5.62697V5.55506L2.3964 5.53708L2.45045 5.50112C2.45045 5.48914 2.45646 5.48315 2.46847 5.48315V5.46517L2.45045 5.41124L2.48649 5.37528L2.46847 5.33933L2.52252 5.30337V5.24944C2.52252 5.21348 2.53453 5.18951 2.55856 5.17753V5.15955V5.01573H2.57658C2.6006 5.01573 2.61261 5.00974 2.61261 4.99775C2.58859 4.98577 2.57658 4.96779 2.57658 4.94382C2.57658 4.91985 2.58859 4.89588 2.61261 4.87191V4.83596C2.61261 4.82397 2.61862 4.80599 2.63063 4.78202C2.61862 4.75805 2.61261 4.72809 2.61261 4.69213V4.67416V4.6382H2.55856L2.63063 4.53034V4.51236V4.42247L2.61261 4.36854L2.64865 4.31461C2.66066 4.30262 2.67267 4.29663 2.68468 4.29663V4.26067V4.22472C2.68468 4.17678 2.69069 4.15281 2.7027 4.15281V4.13483V4.0809C2.71471 4.0809 2.6967 4.06891 2.64865 4.04494C2.64865 4.02097 2.66667 3.99101 2.7027 3.95506L2.79279 3.86517L2.81081 3.82921V3.81124L2.79279 3.73933L2.84685 3.72135V3.68539L2.82883 3.66742H2.81081C2.81081 3.65543 2.8048 3.64345 2.79279 3.63146C2.79279 3.61948 2.79279 3.59551 2.79279 3.55955L2.72072 3.50562L2.77477 3.46966V3.41573C2.78679 3.40375 2.79279 3.39176 2.79279 3.37978C2.79279 3.36779 2.7988 3.35581 2.81081 3.34382C2.81081 3.33184 2.81682 3.31985 2.82883 3.30787C2.84084 3.29588 2.85285 3.2779 2.86486 3.25393C2.87688 3.25393 2.88288 3.24794 2.88288 3.23596C2.87087 3.23596 2.86486 3.21798 2.86486 3.18202C2.82883 3.14607 2.82883 3.11011 2.86486 3.07416V3.02023V2.94832V2.91236L2.88288 2.8764V2.85843H2.9009C2.91291 2.85843 2.92492 2.85243 2.93694 2.84045V2.75056L2.88288 2.69663L2.97297 2.6427V2.62472C2.97297 2.56479 2.99099 2.53483 3.02703 2.53483L2.97297 2.39101H3.02703V2.37303L3.04505 2.3191L2.97297 2.17528L3.11712 2.21124V2.04944V1.99551L3.17117 2.04944H3.24324C3.26727 2.02547 3.29129 2.00749 3.31532 1.99551V1.95955C3.31532 1.93558 3.31532 1.9176 3.31532 1.90562C3.32733 1.89363 3.33333 1.87566 3.33333 1.85169H3.35135L3.36937 1.79775L3.47748 1.81573L3.4955 1.79775V1.81573L3.51351 1.79775H3.53153C3.53153 1.80974 3.53754 1.80974 3.54955 1.79775V1.77978C3.54955 1.76779 3.54955 1.7618 3.54955 1.7618C3.56156 1.74981 3.56757 1.73783 3.56757 1.72584C3.6036 1.6779 3.63363 1.65393 3.65766 1.65393V1.61798L3.89189 1.40225L3.81982 1.68989V1.72584C3.81982 1.73783 3.81381 1.74382 3.8018 1.74382C3.8018 1.79176 3.77778 1.82772 3.72973 1.85169C3.71772 1.87566 3.71171 1.88764 3.71171 1.88764L3.69369 1.90562C3.68168 1.92959 3.66967 1.94757 3.65766 1.95955C3.65766 1.97154 3.65165 1.98951 3.63964 2.01348C3.59159 2.06142 3.55556 2.10337 3.53153 2.13933C3.50751 2.1633 3.4955 2.18727 3.4955 2.21124V2.30112H3.44144V2.3191H3.40541V2.35506V2.37303C3.42943 2.38502 3.42943 2.41498 3.40541 2.46292L3.44144 2.51685L3.72973 2.6427H3.35135C3.35135 2.66667 3.33934 2.67865 3.31532 2.67865C3.31532 2.69064 3.3033 2.69663 3.27928 2.69663V2.71461V2.75056V2.78652C3.27928 2.83446 3.26727 2.85843 3.24324 2.85843V2.8764V2.91236L3.27928 2.94832L3.24324 3.00225C3.21922 3.00225 3.20721 3.00824 3.20721 3.02023C3.20721 3.02023 3.2012 3.02023 3.18919 3.02023V3.0382C3.18919 3.09813 3.18318 3.14008 3.17117 3.16404C3.17117 3.17603 3.17117 3.18802 3.17117 3.2C3.18318 3.2 3.18919 3.21199 3.18919 3.23596C3.17718 3.23596 3.17117 3.25993 3.17117 3.30787V3.32584C3.15916 3.33783 3.14715 3.34382 3.13514 3.34382C3.13514 3.37978 3.12913 3.40375 3.11712 3.41573V3.48764V3.5236H3.24324L3.13514 3.57753V3.66742V3.72135V3.73933H3.17117L3.18919 3.81124L3.17117 3.86517H3.13514C3.12312 3.88914 3.11712 3.90112 3.11712 3.90112L3.17117 3.99101L3.08108 4.02697C3.08108 4.03895 3.06907 4.05094 3.04505 4.06292V4.0809C3.04505 4.10487 3.03904 4.11685 3.02703 4.11685C3.02703 4.11685 3.02703 4.12285 3.02703 4.13483V4.15281V4.31461H2.97297V4.35056V4.36854V4.42247C2.97297 4.45843 2.96697 4.48839 2.95496 4.51236C2.96697 4.53633 2.97297 4.54831 2.97297 4.54831L3.00901 4.58427L2.97297 4.62023C2.97297 4.66816 2.96096 4.69813 2.93694 4.71011V4.74607V4.78202C2.96096 4.84195 2.96697 4.8839 2.95496 4.90787C2.95496 4.93184 2.94895 4.94981 2.93694 4.9618C2.93694 4.97378 2.93694 4.98577 2.93694 4.99775V5.01573H2.88288C2.94294 5.0397 2.94294 5.08165 2.88288 5.14157C2.91892 5.15356 2.93694 5.18951 2.93694 5.24944C2.93694 5.27341 2.92492 5.29738 2.9009 5.32135C2.88889 5.33333 2.87688 5.35131 2.86486 5.37528V5.41124V5.46517H2.88288L2.95496 5.50112V5.53708C2.96697 5.53708 2.97297 5.54307 2.97297 5.55506C2.97297 5.55506 2.98498 5.55506 3.00901 5.55506V5.59101C3.00901 5.603 3.01501 5.61498 3.02703 5.62697L3.08108 5.64494L3.04505 5.71685V5.73483C3.06907 5.73483 3.08108 5.7588 3.08108 5.80674H3.18919L3.08108 5.86067V5.87865C3.08108 5.89064 3.08709 5.90861 3.0991 5.93258C3.11111 5.94457 3.1051 5.95655 3.08108 5.96854V5.98652V6.02247H3.11712L3.04505 6.13034C3.04505 6.14232 3.03904 6.14832 3.02703 6.14832C3.02703 6.17228 3.02102 6.19026 3.00901 6.20225V6.25618C3.02102 6.29213 3.02102 6.32809 3.00901 6.36405C3.02102 6.37603 3.02703 6.38202 3.02703 6.38202C3.05105 6.44195 3.05105 6.4839 3.02703 6.50787C3.03904 6.50787 3.04505 6.51985 3.04505 6.54382L3.02703 6.61573C3.03904 6.6397 3.05105 6.66367 3.06306 6.68764C3.07508 6.71161 3.08108 6.72959 3.08108 6.74157C3.08108 6.76554 3.09309 6.78951 3.11712 6.81348L3.17117 6.90337V6.93933H3.18919C3.2012 6.9633 3.20721 6.9633 3.20721 6.93933C3.27928 6.90337 3.32733 6.91536 3.35135 6.97528L3.4955 7.01124L3.36937 7.13708C3.35736 7.14906 3.32733 7.15506 3.27928 7.15506V7.17303H3.24324V7.20899C3.24324 7.22097 3.23123 7.23296 3.20721 7.24494C3.20721 7.30487 3.2012 7.35281 3.18919 7.38876V7.40674L3.13514 7.47865V7.55056L3.18919 7.65843H3.17117L3.24324 7.69438L3.17117 7.78427L3.20721 7.85618H3.11712C3.11712 7.86817 3.1051 7.87416 3.08108 7.87416V7.89214H3.11712L3.17117 8L3.11712 8.03596C3.15315 8.07191 3.17117 8.11386 3.17117 8.1618C3.18318 8.18577 3.18919 8.21573 3.18919 8.25169L3.27928 8.48539H3.24324H3.20721V8.50337C3.21922 8.51536 3.23123 8.52135 3.24324 8.52135V8.5573C3.24324 8.56929 3.24925 8.58127 3.26126 8.59326C3.27327 8.60524 3.26727 8.62322 3.24324 8.64719C3.26727 8.65918 3.27928 8.66517 3.27928 8.66517L3.36937 8.68315L3.33333 8.79101L3.47748 8.97079L3.31532 8.95281V8.97079V8.98876V9.07865C3.31532 9.13858 3.3033 9.18052 3.27928 9.20449C3.29129 9.21648 3.27928 9.24644 3.24324 9.29438L3.36937 9.34832L3.27928 9.40225C3.3033 9.4382 3.3033 9.46217 3.27928 9.47416V9.52809H3.24324V9.54607L3.18919 9.56404V9.63596H3.17117C3.17117 9.65993 3.15916 9.6779 3.13514 9.68989V9.74382V9.77978C3.13514 9.81573 3.10511 9.8397 3.04505 9.85169C3.04505 9.86367 3.03904 9.86966 3.02703 9.86966V10.0135C3.01501 10.0255 3.00901 10.0315 3.00901 10.0315V10.0854L2.93694 10.1213L2.88288 10.1573L2.93694 10.2472H2.81081V10.3011C2.83483 10.3131 2.84685 10.3251 2.84685 10.3371C2.85886 10.3491 2.85886 10.391 2.84685 10.4629L2.81081 10.4809V10.6966L3.04505 10.7326L2.81081 10.7865V10.8045C2.82282 10.8165 2.82883 10.8285 2.82883 10.8404C2.82883 10.8524 2.82282 10.8644 2.81081 10.8764V10.8944V10.9483V10.9663L2.88288 11.0562L2.81081 11.0742C2.83483 11.1101 2.84685 11.1521 2.84685 11.2C2.87087 11.224 2.87087 11.2539 2.84685 11.2899L2.86486 11.3438V11.3618L2.88288 11.4157L2.81081 11.4697C2.81081 11.5056 2.8048 11.5296 2.79279 11.5416V11.5775L2.84685 11.6854H2.77477L2.84685 11.7753L2.72072 11.8112V11.8472V11.8652L2.79279 11.9371H2.77477L2.84685 12.027L2.77477 12.0629L2.72072 12.1348V12.2067C2.72072 12.2307 2.71471 12.2427 2.7027 12.2427L2.84685 12.4584L2.64865 12.3865C2.64865 12.3985 2.64264 12.4165 2.63063 12.4404C2.63063 12.4524 2.63063 12.4644 2.63063 12.4764V12.4944L2.61261 12.5303C2.63664 12.5423 2.65465 12.5603 2.66667 12.5843C2.67868 12.6082 2.67267 12.6322 2.64865 12.6562V12.6921L2.63063 12.7101L2.61261 12.8L2.63063 12.818L2.55856 12.8539H2.54054C2.54054 12.8659 2.52252 12.8959 2.48649 12.9438H2.52252L2.46847 13.0876V13.1236C2.49249 13.1476 2.49249 13.1715 2.46847 13.1955V13.2135V13.3213V13.3393V13.4112H2.48649L2.3964 13.573H2.37838V13.609C2.36637 13.633 2.36036 13.6569 2.36036 13.6809L2.30631 13.7348C2.29429 13.7468 2.28829 13.7528 2.28829 13.7528V13.7708C2.27628 13.7708 2.26426 13.7768 2.25225 13.7888C2.24024 13.8127 2.23423 13.8247 2.23423 13.8247H2.21622L2.14414 13.8787L2.12613 13.8427C2.1021 13.8547 2.09009 13.8607 2.09009 13.8607H2.07207V13.8787C2.07207 13.8906 2.06607 13.9086 2.05405 13.9326C2.05405 13.9566 2.05405 13.9745 2.05405 13.9865H2.01802V14.0045C2.00601 14.0285 2 14.0404 2 14.0404C2 14.0884 1.98799 14.1243 1.96396 14.1483H1.92793C1.92793 14.1843 1.9039 14.2022 1.85586 14.2022V14.2382L1.92793 14.3101L1.83784 14.3281L1.76577 14.4L1.81982 14.4539L1.76577 14.5258H1.72973V14.5438L1.69369 14.6157V14.6697H1.67568V14.6876C1.67568 14.7715 1.62763 14.8255 1.53153 14.8494H1.51351C1.51351 14.8734 1.50751 14.9034 1.4955 14.9393C1.4955 14.9753 1.48348 14.9933 1.45946 14.9933C1.43544 15.0052 1.41742 15.0172 1.40541 15.0292C1.39339 15.0412 1.37538 15.0592 1.35135 15.0831V15.1191L1.33333 15.1551L1.2973 15.191C1.2973 15.215 1.27327 15.233 1.22523 15.2449H1.20721C1.18318 15.2929 1.15916 15.3169 1.13513 15.3169H1.11712C1.10511 15.3288 1.09309 15.3348 1.08108 15.3348H1.04504C1.03303 15.3348 1.02102 15.3528 1.00901 15.3888C1.00901 15.4247 0.990991 15.4607 0.954955 15.4966V15.5146C0.942943 15.5146 0.936937 15.5326 0.936937 15.5685C0.924925 15.5685 0.912913 15.5745 0.900901 15.5865C0.888889 15.5985 0.882883 15.6165 0.882883 15.6405C0.870871 15.6644 0.852853 15.6884 0.828829 15.7124C0.816817 15.7363 0.798799 15.7663 0.774775 15.8022C0.774775 15.8142 0.762763 15.8202 0.738739 15.8202C0.726727 15.8322 0.714715 15.8502 0.702703 15.8742C0.702703 15.8861 0.696697 15.8921 0.684685 15.8921C0.672673 15.9041 0.666667 15.9221 0.666667 15.9461H0.648649L0.612612 16ZM1.2973 14.8315V14.8674L1.33333 14.8494L1.2973 14.8315ZM1.8018 13.9685L1.81982 14.0045V13.9685L1.83784 13.9326H1.81982V13.9506C1.80781 13.9625 1.8018 13.9685 1.8018 13.9685ZM2.37838 12.5303H2.3964H2.37838ZM1.6036 12.2427V12.2966V12.2427ZM1.44144 11.4697V11.5056V11.4697ZM2.61261 11.2539V11.218L2.63063 11.2V11.182V11.1281L2.61261 11.2539ZM2.61261 11.0202V11.0382V11.0202ZM2.61261 10.6607H2.63063V10.6427H2.61261V10.6607ZM0.810811 10.5708L0.864865 10.6247L0.936937 10.5708C0.900901 10.5588 0.882883 10.5408 0.882883 10.5169L0.864865 10.4989C0.864865 10.4869 0.858859 10.4809 0.846847 10.4809L0.864865 10.5169L0.810811 10.5708ZM2.72072 10.0315H2.77477C2.77477 10.0195 2.78078 10.0075 2.79279 9.99551V9.94157H2.81081V9.86966C2.83483 9.85768 2.85285 9.82772 2.86486 9.77978L2.81081 9.74382L2.79279 9.77978C2.78078 9.79176 2.77477 9.79775 2.77477 9.79775V9.85169L2.72072 9.86966L2.68468 9.94157L2.77477 9.86966L2.72072 10.0315ZM0.648649 9.79775H0.666667V9.70787C0.666667 9.69588 0.672673 9.68989 0.684685 9.68989C0.696697 9.68989 0.702703 9.6839 0.702703 9.67191C0.702703 9.64794 0.696697 9.62996 0.684685 9.61798C0.672673 9.60599 0.666667 9.58202 0.666667 9.54607C0.642643 9.54607 0.630631 9.53408 0.630631 9.51011C0.630631 9.53408 0.606607 9.54607 0.558559 9.54607L0.612612 9.56404C0.648649 9.63595 0.660661 9.6839 0.648649 9.70787V9.79775ZM2.84685 9.67191V9.68989L2.95496 9.67191C2.95496 9.64794 2.96096 9.62996 2.97297 9.61798L2.93694 9.51011L3.00901 9.47416V9.45618L3.04505 9.40225C3.06907 9.40225 3.08108 9.39625 3.08108 9.38427C3.04504 9.34831 3.04504 9.30037 3.08108 9.24045V9.22247L3.02703 9.13258H3.08108L3.00901 9.06067C3.00901 9.07266 3.00901 9.09663 3.00901 9.13258C3.00901 9.15655 2.997 9.18052 2.97297 9.20449L2.95496 9.24045H2.93694V9.31236L2.95496 9.34832C2.95496 9.38427 2.94895 9.42022 2.93694 9.45618V9.47416L2.86486 9.52809V9.63596L2.84685 9.67191ZM2.72072 9.24045V9.29438V9.24045ZM3.02703 8.89888L3.08108 9.13258L3.11712 9.07865V9.0427V9.00674L3.04505 8.97079L3.11712 8.95281H3.08108V8.89888C3.08108 8.83895 3.09309 8.78502 3.11712 8.73708C3.09309 8.73708 3.08108 8.7191 3.08108 8.68315C3.05706 8.69513 3.04505 8.70112 3.04505 8.70112V8.7191V8.79101L3.08108 8.80899L3.04505 8.84494C3.04505 8.86891 3.03904 8.8809 3.02703 8.8809V8.89888ZM0.630631 8.98876H0.648649C0.660661 9.00075 0.666667 9.01873 0.666667 9.0427L0.774775 9.00674L0.810811 8.98876C0.810811 8.97678 0.804805 8.96479 0.792793 8.95281C0.792793 8.94082 0.792793 8.92285 0.792793 8.89888L0.720721 8.97079L0.666667 8.95281H0.648649H0.630631V8.98876ZM3.11712 8.7191V8.73708V8.7191ZM2.95496 8.61124V8.64719L2.97297 8.61124H2.95496ZM2.95496 8.19775L2.97297 8.17978C2.96096 8.17978 2.95496 8.17378 2.95496 8.1618V8.17978V8.19775ZM3.11712 8.08989V8.12584V8.08989ZM1.02703 7.89214H1.04504L1.06306 8C1.07508 7.98802 1.08108 7.98202 1.08108 7.98202C1.09309 7.98202 1.10511 7.97603 1.11712 7.96405C1.12913 7.96405 1.13513 7.95805 1.13513 7.94607L1.17117 7.89214L1.11712 7.85618H1.00901C1.02102 7.86817 1.02703 7.88015 1.02703 7.89214ZM2.84685 6.05843V6.09438H2.86486V6.05843L2.81081 6.02247L2.88288 5.95056V5.89663L2.81081 5.96854V5.98652H2.79279V6.02247C2.8048 6.03446 2.81081 6.04045 2.81081 6.04045V6.05843H2.84685ZM2.84685 5.80674H2.86486V5.78876V5.73483C2.85285 5.72285 2.84685 5.69888 2.84685 5.66292L2.77477 5.69888V5.62697L2.72072 5.57303C2.72072 5.56105 2.71471 5.55506 2.7027 5.55506C2.7027 5.55506 2.7027 5.54906 2.7027 5.53708L2.68468 5.62697L2.7027 5.66292C2.71471 5.66292 2.72673 5.66891 2.73874 5.6809C2.76276 5.69288 2.78078 5.69888 2.79279 5.69888C2.8048 5.71086 2.81682 5.72285 2.82883 5.73483C2.84084 5.74682 2.84685 5.77079 2.84685 5.80674Z" fill="black"/>
</svg>
