<svg width="16" height="12" viewBox="0 0 16 12" fill="none" xmlns="http://www.w3.org/2000/svg">
<path d="M16 4.85L15.9139 4.83333C15.9139 4.84444 15.8909 4.85 15.845 4.85V4.91667H15.7589H15.7072V4.98333L15.6383 5V5.03333C15.6039 5.05556 15.5752 5.07778 15.5522 5.1C15.5292 5.11111 15.5063 5.11667 15.4833 5.11667H15.4144V5.13333L15.3628 5.11667V5.2H15.3455L15.2766 5.25L15.3455 5.28333H15.2766L15.2594 5.31667H15.2422C15.2307 5.31667 15.225 5.32778 15.225 5.35H15.1561L15.1905 5.4H15.0872L15.07 5.41667H15.0183V5.55V5.56667H14.9494C14.915 5.55556 14.8977 5.52778 14.8977 5.48333V5.55V5.56667L14.8633 5.6H14.8461C14.8576 5.64444 14.8346 5.66667 14.7772 5.66667V5.75L14.76 5.66667H14.7083V5.65H14.6566H14.6222H14.605C14.5935 5.65 14.5877 5.65556 14.5877 5.66667H14.5016L14.4844 5.75V5.76667C14.4614 5.76667 14.4557 5.77778 14.4672 5.8C14.4787 5.81111 14.4844 5.82222 14.4844 5.83333V5.88333V5.91667L14.3638 6.03333V5.96667H14.3122L14.2777 6.03333V6.06667V6.1H14.2605C14.226 6.1 14.2088 6.11111 14.2088 6.13333L14.1916 6.15C14.1801 6.16111 14.1629 6.16667 14.1399 6.16667V6.21667H14.1227L14.0883 6.23333L14.0538 6.31667C14.0194 6.31667 14.0022 6.32222 14.0022 6.33333H13.9849C13.962 6.33333 13.9505 6.33333 13.9505 6.33333C13.9505 6.32222 13.9447 6.31667 13.9333 6.31667H13.916H13.8471V6.33333H13.916L13.8471 6.38333C13.8471 6.39444 13.8357 6.41667 13.8127 6.45C13.8012 6.48333 13.7668 6.5 13.7094 6.5H13.6921L13.7094 6.51667L13.6921 6.56667C13.6577 6.57778 13.6347 6.6 13.6233 6.63333C13.6118 6.64444 13.5945 6.65556 13.5716 6.66667C13.5371 6.68889 13.5027 6.68889 13.4682 6.66667C13.4338 6.7 13.3936 6.7 13.3477 6.66667V6.7V6.73333C13.3132 6.73333 13.296 6.75 13.296 6.78333V6.8H13.2788H13.1755H13.141V6.86667L13.1755 6.9H13.141C13.141 6.96667 13.1123 6.98333 13.0549 6.95C13.0319 6.98333 13.009 7 12.986 7H12.9688H12.9171H12.8654H12.8482V7.05V7.08333H12.7793C12.7793 7.11667 12.7736 7.13333 12.7621 7.13333C12.7621 7.14444 12.7391 7.15 12.6932 7.15V7.18333C12.6932 7.21667 12.676 7.23333 12.6415 7.23333L12.5899 7.26667L12.5554 7.21667V7.15V7.21667C12.544 7.22778 12.5038 7.23333 12.4349 7.23333C12.4234 7.23333 12.4177 7.23889 12.4177 7.25C12.4062 7.26111 12.4004 7.28333 12.4004 7.31667H12.366H12.3315C12.2971 7.31667 12.2741 7.35 12.2626 7.41667H12.211V7.43333H12.2282C12.2512 7.43333 12.2626 7.44444 12.2626 7.46667V7.55L12.1938 7.5V7.55H12.1076C12.1076 7.56111 12.1019 7.57222 12.0904 7.58333C12.0675 7.58333 12.0445 7.58889 12.0215 7.6C11.9986 7.61111 11.9813 7.61667 11.9699 7.61667C11.9469 7.59444 11.9239 7.58889 11.901 7.6C11.8895 7.61111 11.8608 7.61667 11.8149 7.61667H11.7804H11.7632C11.7517 7.61667 11.7345 7.60556 11.7115 7.58333V7.61667L11.746 7.63333L11.6771 7.7V7.76667H11.591V7.71667H11.4876L11.4015 7.76667L11.3326 7.71667C11.3326 7.75 11.3269 7.76667 11.3154 7.76667H11.2809C11.2695 7.76667 11.2637 7.75 11.2637 7.71667C11.2408 7.77222 11.1948 7.8 11.1259 7.8H11.0743C11.0513 7.82222 11.0169 7.83333 10.9709 7.83333H10.9537H10.9193V7.88333L10.7298 7.83333C10.7298 7.86667 10.7183 7.88333 10.6954 7.88333H10.6781L10.6437 7.9C10.6322 7.9 10.6093 7.91111 10.5748 7.93333C10.5518 7.95556 10.5231 7.96667 10.4887 7.96667L10.3854 8H10.3681C10.3681 8.01111 10.3624 8.01667 10.3509 8.01667C10.3394 8.01667 10.3337 8.01111 10.3337 8L10.2992 8.05H10.2476C10.2016 8.06111 10.1787 8.07778 10.1787 8.1C10.1442 8.15556 10.1041 8.18333 10.0581 8.18333H10.0237V8.23333V8.25C10.0237 8.28333 10.0122 8.31111 9.98924 8.33333H9.90312C9.89164 8.35556 9.88016 8.37222 9.86868 8.38333C9.86868 8.38333 9.85145 8.38333 9.81701 8.38333C9.73663 8.38333 9.66774 8.37778 9.61033 8.36667C9.57589 8.37778 9.5357 8.4 9.48977 8.43333C9.44385 8.45555 9.39792 8.46667 9.35199 8.46667H9.31755V8.48333V8.46667H9.26588V8.53333H9.19699C9.19699 8.54444 9.16828 8.55 9.11087 8.55H9.09365C9.08217 8.57222 9.07069 8.58333 9.0592 8.58333C9.03624 8.60556 9.02476 8.59444 9.02476 8.55L8.92142 8.61667H8.9042C8.9042 8.60556 8.89272 8.58889 8.86975 8.56667C8.85827 8.56667 8.84679 8.56111 8.83531 8.55C8.82382 8.55 8.8066 8.55556 8.78364 8.56667C8.77216 8.56667 8.76067 8.59444 8.74919 8.65H8.69752C8.68604 8.65 8.67456 8.65555 8.66308 8.66667V8.7C8.66308 8.71111 8.65734 8.71667 8.64586 8.71667V8.75V8.78333C8.64586 8.79444 8.63437 8.8 8.61141 8.8C8.554 8.8 8.50807 8.80555 8.47363 8.81667H8.4564H8.42196C8.39899 8.83889 8.37603 8.86111 8.35307 8.88333C8.3301 8.89444 8.3014 8.91111 8.26695 8.93333H8.24973L8.16362 8.96667V9.08333C8.16362 9.09444 8.15788 9.10556 8.14639 9.11667C8.14639 9.12778 8.14639 9.14444 8.14639 9.16667C8.12343 9.18889 8.09472 9.21111 8.06028 9.23333C8.02583 9.24444 7.99139 9.26111 7.95694 9.28333C7.94546 9.28333 7.93398 9.28889 7.9225 9.3C7.89953 9.32222 7.88805 9.34444 7.88805 9.36667L7.95694 9.38333C7.94546 9.39444 7.93972 9.40556 7.93972 9.41667C7.92824 9.42778 7.91101 9.43333 7.88805 9.43333V9.46667V9.5C7.88805 9.58889 7.88231 9.63333 7.87083 9.63333H7.83638L7.87083 9.66667C7.88231 9.66667 7.88805 9.67778 7.88805 9.7H7.95694V9.66667L8.02583 9.63333L8.0775 9.7L8.02583 9.73333V9.81667C8.06028 9.81667 8.0775 9.82778 8.0775 9.85C8.08898 9.85 8.09472 9.86667 8.09472 9.9V9.91667V9.96667V10V10.0333V10.05V10.0333L8.14639 10.1333V10.15L8.09472 10.2C8.11769 10.2111 8.12917 10.2278 8.12917 10.25C8.12917 10.2722 8.11769 10.2944 8.09472 10.3167C8.09472 10.3611 8.08898 10.3944 8.0775 10.4167V10.4667C8.05454 10.4778 8.03732 10.5 8.02583 10.5333C8.01435 10.5556 7.99713 10.5778 7.97416 10.6H7.95694C7.95694 10.6111 7.94546 10.6222 7.9225 10.6333C7.89953 10.6333 7.88231 10.65 7.87083 10.6833L7.88805 10.8V10.8333V10.8833V10.9L7.87083 10.8833C7.88231 10.8944 7.88805 10.9111 7.88805 10.9333C7.88805 10.9444 7.88231 10.95 7.87083 10.95C7.87083 10.9611 7.84786 10.9667 7.80194 10.9667C7.8249 11.0222 7.8249 11.0667 7.80194 11.1L7.83638 11.1167V11.1667C7.83638 11.2222 7.8249 11.2667 7.80194 11.3C7.80194 11.3222 7.81342 11.3444 7.83638 11.3667L7.87083 11.4L7.83638 11.4333L7.80194 11.5167C7.73305 11.5722 7.65267 11.6222 7.56082 11.6667C7.48044 11.7111 7.40007 11.7611 7.3197 11.8167V11.85C7.3197 11.8611 7.31396 11.8667 7.30247 11.8667C7.29099 11.8778 7.27951 11.8833 7.26803 11.8833H7.21636C7.21636 11.8944 7.21062 11.9056 7.19914 11.9167H7.18192L7.0958 12L7.11302 11.8833C7.11302 11.85 7.11302 11.8278 7.11302 11.8167C7.12451 11.7944 7.14747 11.7611 7.18192 11.7167L7.21636 11.7C7.23932 11.6556 7.27377 11.6333 7.3197 11.6333C7.36563 11.5889 7.38859 11.55 7.38859 11.5167L7.45748 11.45C7.49193 11.4167 7.50915 11.3667 7.50915 11.3V11.2333V11.1667C7.50915 11.1333 7.50341 11.1 7.49193 11.0667C7.49193 11.0333 7.48044 10.9944 7.45748 10.95C7.41155 10.9167 7.38859 10.8667 7.38859 10.8V10.7667H7.37137L7.3197 10.6L7.38859 10.6167H7.45748V10.6C7.446 10.6 7.43452 10.5944 7.42303 10.5833C7.40007 10.5611 7.38859 10.5389 7.38859 10.5167L7.45748 10.4833C7.46896 10.4722 7.50915 10.4667 7.57804 10.4667V10.4167L7.54359 10.4667L7.71582 10.2833C7.69286 10.2389 7.67564 10.2111 7.66415 10.2V10.15C7.66415 10.1389 7.6699 10.1333 7.68138 10.1333V10.0333L7.57804 10L7.71582 9.96667V9.91667V9.9H7.68138L7.66415 9.85C7.60674 9.82778 7.56656 9.8 7.54359 9.76667C7.53211 9.76667 7.52637 9.76111 7.52637 9.75L7.54359 9.73333V9.7C7.52063 9.7 7.50915 9.69444 7.50915 9.68333C7.50915 9.67222 7.49767 9.66667 7.4747 9.66667V9.63333H7.50915L7.38859 9.58333L7.4747 9.56667C7.49767 9.56667 7.50915 9.55556 7.50915 9.53333V9.5V9.46667H7.52637C7.52637 9.46667 7.53211 9.45555 7.54359 9.43333V9.36667C7.56656 9.33333 7.57804 9.31111 7.57804 9.3C7.58952 9.27778 7.61823 9.25556 7.66415 9.23333V9.16667L7.68138 9.1L7.71582 9.13333C7.71582 9.11111 7.72156 9.1 7.73305 9.1H7.75027V9.08333V8.96667V8.9L7.80194 8.93333L7.83638 8.9H7.87083L7.88805 8.85V8.8H7.87083L7.83638 8.75L7.88805 8.71667C7.87657 8.66111 7.87657 8.60556 7.88805 8.55V8.48333L7.95694 8.46667C7.9225 8.42222 7.89953 8.4 7.88805 8.4C7.88805 8.38889 7.88805 8.37778 7.88805 8.36667V8.3V8.25H7.95694C7.96842 8.25 7.97416 8.24444 7.97416 8.23333H8.02583H8.0775L8.02583 8.18333C8.02583 8.16111 8.01435 8.15 7.99139 8.15H7.97416L8.02583 8.06667L8.0775 8.1C8.08898 8.07778 8.11195 8.06667 8.14639 8.06667H8.16362H8.14639C8.14639 8.05556 8.13491 8.05 8.11195 8.05C8.10047 8.03889 8.09472 8.02222 8.09472 8V7.96667V7.9V7.88333C8.08324 7.88333 8.06602 7.87778 8.04306 7.86667C8.02009 7.84444 7.99713 7.82222 7.97416 7.8L7.95694 7.78333C7.94546 7.78333 7.93398 7.78333 7.9225 7.78333C7.9225 7.77222 7.91101 7.76667 7.88805 7.76667H7.87083H7.80194V7.71667C7.74453 7.71667 7.70434 7.71111 7.68138 7.7C7.65841 7.68889 7.62397 7.66111 7.57804 7.61667V7.55H7.56082C7.54934 7.55 7.54359 7.53333 7.54359 7.5L7.50915 7.46667H7.4747C7.45174 7.43333 7.40007 7.41667 7.3197 7.41667V7.33333H7.30247H7.23358H7.18192H7.11302H7.0958C7.08432 7.33333 7.07284 7.33333 7.06136 7.33333C7.06136 7.32222 7.04987 7.31667 7.02691 7.31667H7.00969V7.26667C7.00969 7.26667 7.01543 7.25556 7.02691 7.23333C7.01543 7.23333 7.00969 7.22778 7.00969 7.21667V7.23333L6.95802 7.26667L6.92357 7.23333H6.90635C6.89487 7.23333 6.88913 7.22778 6.88913 7.21667L6.80301 7.26667L6.78579 7.23333V7.21667L6.69968 7.23333V7.21667V7.15V7.13333C6.69968 7.1 6.68245 7.07222 6.64801 7.05C6.64801 7.02778 6.64227 7.01111 6.63079 7C6.6193 6.98889 6.62504 6.98333 6.64801 6.98333C6.64801 6.96111 6.63653 6.95 6.61356 6.95H6.59634C6.59634 6.97222 6.57338 6.98333 6.52745 6.98333L6.44133 7H6.42411C6.38967 6.98889 6.34948 6.98333 6.30355 6.98333C6.26911 6.98333 6.24614 6.97222 6.23466 6.95C6.17725 6.95 6.14855 6.92222 6.14855 6.86667H6.1141V6.8C6.09114 6.8 6.07391 6.8 6.06243 6.8C6.05095 6.78889 6.03373 6.78333 6.01076 6.78333H5.9591H5.85576C5.83279 6.78333 5.82131 6.77778 5.82131 6.76667C5.82131 6.74444 5.80983 6.73333 5.78687 6.73333L5.75242 6.7H5.7352H5.64908H5.59742L5.58019 6.66667V6.63333V6.66667H5.45963H5.49408L5.45963 6.7H5.37352V6.73333V6.78333H5.28741C5.28741 6.79444 5.28166 6.80556 5.27018 6.81667C5.2587 6.81667 5.25296 6.83333 5.25296 6.86667H5.21851C5.20703 6.86667 5.20129 6.87778 5.20129 6.9V6.95V6.98333H5.16685C5.16685 6.98333 5.1611 6.98889 5.14962 7H5.09795C5.07499 7 5.06351 6.99444 5.06351 6.98333H5.01184H4.99462H4.96017C4.94869 6.98333 4.93721 6.98889 4.92573 7C4.91424 7 4.90276 7 4.89128 7H4.92573L4.89128 7.08333H4.87406H4.89128V7.13333V7.15C4.91424 7.15 4.92573 7.16667 4.92573 7.2C4.93721 7.22222 4.96017 7.26111 4.99462 7.31667V7.33333C4.98314 7.35556 4.97165 7.37222 4.96017 7.38333C4.93721 7.40556 4.91424 7.41667 4.89128 7.41667V7.46667H4.87406C4.87406 7.5 4.82239 7.53889 4.71905 7.58333L4.70183 7.61667L4.66738 7.58333C4.66738 7.56111 4.6559 7.53333 4.63294 7.5V7.55V7.61667H4.58127H4.54682C4.53534 7.62778 4.52386 7.63333 4.51238 7.63333H4.44349C4.44349 7.67778 4.46645 7.7 4.51238 7.7L4.54682 7.76667H4.44349L4.51238 7.8H4.44349V7.83333V7.86667C4.44349 7.87778 4.43775 7.88333 4.42626 7.88333H4.39182C4.36885 7.88333 4.35737 7.88889 4.35737 7.9V7.96667V8C4.33441 8.03333 4.32293 8.05556 4.32293 8.06667L4.28848 8.1C4.26552 8.1 4.2483 8.11111 4.23681 8.13333C4.23681 8.14444 4.22533 8.15 4.20237 8.15C4.22533 8.15 4.23681 8.17778 4.23681 8.23333V8.3V8.25L4.20237 8.33333V8.36667H4.1507V8.46667V8.48333L4.20237 8.53333L4.21959 8.55C4.21959 8.56111 4.21959 8.57222 4.21959 8.58333C4.23107 8.58333 4.23681 8.59444 4.23681 8.61667V8.65C4.27126 8.65 4.29996 8.65555 4.32293 8.66667V8.71667V8.8V8.81667C4.32293 8.82778 4.31719 8.83889 4.3057 8.85H4.28848H4.23681C4.23681 8.86111 4.23107 8.87222 4.21959 8.88333V8.9H4.20237H4.1507C4.1507 8.94444 4.13922 8.96667 4.11625 8.96667V9.01667L4.06459 9.08333C4.07607 9.09444 4.08181 9.10556 4.08181 9.11667C4.08181 9.12778 4.07607 9.13333 4.06459 9.13333V9.16667L4.03014 9.21667C4.03014 9.26111 4.00144 9.31111 3.94403 9.36667H4.01292H4.03014L4.06459 9.3L4.03014 9.36667C4.0531 9.38889 4.06459 9.4 4.06459 9.4V9.43333L4.11625 9.63333L4.01292 9.46667V9.5V9.63333H4.03014V9.66667L4.06459 9.7H4.03014C4.0531 9.72222 4.05884 9.74444 4.04736 9.76667C4.03588 9.77778 4.03014 9.79444 4.03014 9.81667C4.03014 9.87222 4.0244 9.90556 4.01292 9.91667C4.01292 9.97222 3.98995 10.0111 3.94403 10.0333V10.1333C3.93254 10.1444 3.9268 10.1722 3.9268 10.2167C3.91532 10.2278 3.90384 10.2333 3.89236 10.2333C3.88088 10.2444 3.87513 10.2611 3.87513 10.2833V10.3167H3.85791L3.7718 10.3333V9.9V9.73333V9.7C3.74883 9.7 3.73735 9.69444 3.73735 9.68333V9.66667C3.73735 9.64444 3.73161 9.62778 3.72013 9.61667C3.72013 9.59444 3.72013 9.57778 3.72013 9.56667L3.63401 9.5V9.48333H3.61679C3.60531 9.48333 3.59383 9.47778 3.58235 9.46667V9.43333V9.38333C3.58235 9.31667 3.59957 9.28333 3.63401 9.28333V9.23333H3.58235V9.21667C3.58235 9.16111 3.59957 9.13333 3.63401 9.13333H3.58235V9.1V9.08333V8.96667C3.61679 8.96667 3.63401 8.94444 3.63401 8.9H3.56512L3.72013 8.81667V8.8C3.65124 8.8 3.61105 8.79444 3.59957 8.78333C3.58809 8.76111 3.57661 8.75 3.56512 8.75V8.71667C3.54216 8.68333 3.53068 8.62778 3.53068 8.55H3.56512L3.53068 8.53333C3.47327 8.47778 3.44456 8.45556 3.44456 8.46667V8.48333L3.34123 8.46667L3.37567 8.36667H3.34123C3.34123 8.34444 3.32975 8.33333 3.30678 8.33333C3.2953 8.33333 3.28956 8.32222 3.28956 8.3H3.27234L3.23789 8.33333V8.3H3.169V8.23333V8.2C3.169 8.18889 3.16326 8.18333 3.15178 8.18333C3.15178 8.17222 3.15178 8.16111 3.15178 8.15C3.11733 8.15 3.09437 8.13889 3.08288 8.11667C3.0714 8.08333 3.06566 8.06111 3.06566 8.05L2.99677 8V7.96667H3.06566V7.9H2.99677L2.9451 7.96667L2.97955 7.88333L2.9451 7.83333V7.8H2.91066H2.85899V7.71667H2.84177L2.72121 7.83333L2.70398 7.63333C2.68102 7.63333 2.66954 7.61667 2.66954 7.58333C2.64657 7.58333 2.63509 7.57222 2.63509 7.55L2.60065 7.5C2.58916 7.5 2.58342 7.49444 2.58342 7.48333C2.57194 7.47222 2.5662 7.45556 2.5662 7.43333C2.53175 7.42222 2.52027 7.41667 2.53175 7.41667C2.55472 7.40556 2.5662 7.37778 2.5662 7.33333C2.55472 7.33333 2.54324 7.32778 2.53175 7.31667C2.50879 7.29444 2.49731 7.27778 2.49731 7.26667H2.48009H2.42842L2.39397 7.31667L2.35953 7.23333H2.30786V7.21667L2.29063 7.15V7.13333L2.20452 7.08333H2.30786V7.05V7C2.30786 7 2.30212 6.99444 2.29063 6.98333H2.22174C2.17582 6.99444 2.12989 6.98333 2.08396 6.95H2.06674C2.05526 6.95 2.04952 6.93333 2.04952 6.9V6.86667H2.01507V6.8L1.89451 6.78333V6.73333H1.91173H1.89451V6.66667C1.89451 6.64444 1.88303 6.63333 1.86006 6.63333H1.84284V6.58333C1.81988 6.58333 1.8084 6.56111 1.8084 6.51667L1.75673 6.5C1.74525 6.48889 1.7395 6.47778 1.7395 6.46667C1.72802 6.45556 1.72228 6.43333 1.72228 6.4C1.67635 6.4 1.65339 6.37778 1.65339 6.33333V6.31667C1.63043 6.31667 1.61895 6.30556 1.61895 6.28333C1.61895 6.25 1.61895 6.22778 1.61895 6.21667V6.16667L1.56728 6.13333V6.1V6.06667H1.55005V6.03333C1.55005 5.98889 1.53857 5.96667 1.51561 5.96667V6.03333V5.96667H1.46394C1.46394 5.95556 1.4582 5.94444 1.44672 5.93333C1.43523 5.92222 1.44098 5.90556 1.46394 5.88333H1.42949V5.83333V5.81667C1.40653 5.80556 1.39505 5.79444 1.39505 5.78333C1.38357 5.77222 1.39505 5.76111 1.42949 5.75H1.3606V5.66667H1.25727V5.6L1.18837 5.56667L1.22282 5.48333H1.18837V5.46667H1.15393C1.14245 5.46667 1.13671 5.45 1.13671 5.41667C1.12522 5.41667 1.11948 5.41111 1.11948 5.4V5.35V5.31667C1.09652 5.29444 1.0793 5.26667 1.06781 5.23333C1.06781 5.2 1.06781 5.16667 1.06781 5.13333C1.05633 5.13333 1.05059 5.12222 1.05059 5.1V5.06667V5.03333L0.981701 5H0.947255H0.912809V4.98333V4.91667H0.878364H0.826695L0.757804 4.83333L0.775027 4.76667V4.73333V4.71667V4.66667C0.763545 4.66667 0.757804 4.66111 0.757804 4.65V4.55L0.775027 4.51667V4.55H0.826695C0.826695 4.52778 0.815214 4.51667 0.79225 4.51667C0.780768 4.51667 0.775027 4.50556 0.775027 4.48333H0.757804L0.67169 4.51667L0.706136 4.48333H0.688913C0.677431 4.48333 0.67169 4.46667 0.67169 4.43333V4.4V4.36667C0.637244 4.36667 0.637244 4.33889 0.67169 4.28333V4.25C0.694654 4.25 0.706136 4.24444 0.706136 4.23333V4.21667H0.67169L0.602799 4.16667L0.706136 4.15V4.1C0.660208 4.1 0.637244 4.08889 0.637244 4.06667C0.614281 4.06667 0.602799 4.05556 0.602799 4.03333V4H0.568353V3.98333C0.510944 3.93889 0.465016 3.91667 0.43057 3.91667L0.413348 3.88333C0.390384 3.85 0.36742 3.83333 0.344456 3.83333C0.332974 3.82222 0.327234 3.81111 0.327234 3.8C0.327234 3.76667 0.315752 3.75 0.292788 3.75V3.73333C0.269824 3.73333 0.258342 3.72778 0.258342 3.71667V3.68333L0.12056 3.6C0.12056 3.55556 0.114819 3.53333 0.103337 3.53333C0.091855 3.52222 0.0861141 3.51111 0.0861141 3.5V3.33333C0.0861141 3.32222 0.0861141 3.30556 0.0861141 3.28333C0.0861141 3.26111 0.097596 3.24444 0.12056 3.23333V3.18333H0.0861141L0.12056 3.13333C0.097596 3.08889 0.091855 3.05 0.103337 3.01667C0.114819 2.97222 0.12056 2.92778 0.12056 2.88333L0.172228 2.76667L0.12056 2.75L0.0861141 2.81667V2.75V2.7C0.0746322 2.68889 0.0688913 2.67222 0.0688913 2.65C0.0688913 2.62778 0.0688913 2.60556 0.0688913 2.58333V2.48333V2.35V2.31667V2.25V2.21667V2.15V2.08333L0 2.06667V1.98333L0.0688913 1.93333C0.0803732 1.87778 0.0861141 1.83333 0.0861141 1.8C0.0861141 1.75556 0.097596 1.71111 0.12056 1.66667V1.65H0.172228C0.149264 1.65 0.143523 1.64444 0.155005 1.63333C0.166487 1.61111 0.172228 1.58889 0.172228 1.56667L0.258342 1.41667H0.327234L0.292788 1.56667V1.83333V1.85V1.95V2.01667V2.21667V2.28333C0.258342 2.31667 0.258342 2.35556 0.292788 2.4V2.48333V2.51667V2.55V2.58333H0.327234L0.292788 2.61667C0.315752 2.61667 0.327234 2.62778 0.327234 2.65V2.68333C0.361679 2.68333 0.361679 2.70555 0.327234 2.75V2.81667C0.327234 2.83889 0.332974 2.85556 0.344456 2.86667C0.355938 2.87778 0.361679 2.88889 0.361679 2.9C0.361679 2.91111 0.355938 2.92222 0.344456 2.93333C0.344456 2.93333 0.344456 2.93889 0.344456 2.95V2.96667C0.332974 2.97778 0.327234 2.97778 0.327234 2.96667C0.350197 2.98889 0.361679 3.01111 0.361679 3.03333V3.08333L0.327234 3.13333V3.16667V3.18333C0.327234 3.25 0.355938 3.31111 0.413348 3.36667L0.43057 3.41667V3.45V3.5C0.43057 3.51111 0.436311 3.51667 0.447793 3.51667H0.482239V3.6C0.493721 3.6 0.499462 3.60556 0.499462 3.61667V3.68333H0.568353C0.591317 3.70556 0.602799 3.72778 0.602799 3.75C0.602799 3.76111 0.614281 3.77778 0.637244 3.8C0.648726 3.8 0.660208 3.80556 0.67169 3.81667C0.729099 3.81667 0.763545 3.83889 0.775027 3.88333L0.826695 3.91667V3.93333V3.98333H0.878364H0.912809V4C0.912809 4.01111 0.91855 4.01667 0.930032 4.01667C0.930032 4.02778 0.930032 4.03333 0.930032 4.03333C0.941514 4.03333 0.947255 4.04444 0.947255 4.06667V4.15V4.16667C0.924291 4.18889 0.91855 4.20556 0.930032 4.21667C0.941514 4.21667 0.947255 4.22778 0.947255 4.25L0.981701 4.28333L1.05059 4.35H0.981701C1.00466 4.35 1.01615 4.35556 1.01615 4.36667C1.01615 4.36667 1.02189 4.36667 1.03337 4.36667H1.05059L1.06781 4.4V4.43333V4.48333H1.05059C1.05059 4.48333 1.05633 4.49444 1.06781 4.51667C1.06781 4.51667 1.0793 4.52222 1.10226 4.53333H1.11948V4.55V4.56667H1.06781H1.05059C1.05059 4.58889 1.03911 4.61111 1.01615 4.63333C1.00466 4.64444 0.993183 4.65 0.981701 4.65C0.958737 4.65 0.947255 4.65556 0.947255 4.66667V4.71667V4.73333C0.947255 4.68889 0.958737 4.66667 0.981701 4.66667L1.05059 4.65L1.06781 4.66667V4.73333L1.11948 4.76667C1.13097 4.76667 1.13671 4.78889 1.13671 4.83333V4.85V4.9V4.91667C1.17115 4.90556 1.19986 4.90556 1.22282 4.91667H1.25727V4.98333H1.27449C1.32042 4.98333 1.34912 4.98889 1.3606 5L1.42949 5.03333L1.46394 5.06667H1.42949L1.3606 5.11667V5.13333L1.34338 5.2H1.27449V5.25H1.3606V5.31667H1.46394V5.35L1.51561 5.4H1.46394C1.52135 5.4 1.55005 5.42222 1.55005 5.46667H1.53283C1.52135 5.46667 1.51561 5.47222 1.51561 5.48333C1.53857 5.48333 1.55579 5.50556 1.56728 5.55V5.56667C1.60172 5.6 1.61895 5.61667 1.61895 5.61667V5.65L1.63617 5.66667C1.63617 5.67778 1.63617 5.68889 1.63617 5.7C1.64765 5.71111 1.65339 5.72778 1.65339 5.75V5.76667H1.70506C1.71654 5.76667 1.72228 5.77778 1.72228 5.8C1.72228 5.81111 1.73376 5.81667 1.75673 5.81667C1.75673 5.82778 1.76247 5.83889 1.77395 5.85C1.79691 5.85 1.8084 5.86111 1.8084 5.88333H1.84284V5.91667V5.95H1.89451C1.89451 5.96111 1.87729 5.98889 1.84284 6.03333H1.89451V6.06667V6.13333V6.16667V6.21667C1.95192 6.22778 1.98637 6.25 1.99785 6.28333C2.00933 6.31667 2.01507 6.35 2.01507 6.38333V6.4V6.38333V6.4V6.43333V6.5H2.04952V6.51667C2.07248 6.53889 2.0897 6.55556 2.10118 6.56667C2.12415 6.57778 2.13563 6.6 2.13563 6.63333L2.15285 6.58333V6.66667H2.20452C2.216 6.68889 2.24471 6.71111 2.29063 6.73333H2.30786C2.29638 6.73333 2.3136 6.72222 2.35953 6.7L2.5662 6.58333L2.35953 6.86667H2.42842C2.42842 6.88889 2.42842 6.89444 2.42842 6.88333C2.4399 6.87222 2.45712 6.86667 2.48009 6.86667H2.49731L2.60065 6.95H2.61787C2.62935 6.95 2.64657 6.96111 2.66954 6.98333H2.70398L2.66954 7V7.05C2.6925 7.05 2.70398 7.07778 2.70398 7.13333V7.15V7.21667H2.72121H2.7901C2.83602 7.16111 2.85899 7.16111 2.85899 7.21667H2.91066V7.26667H2.85899L2.91066 7.31667H2.9451L2.99677 7.23333V7.33333C2.99677 7.38889 2.97955 7.42222 2.9451 7.43333C2.95658 7.43333 2.96807 7.43889 2.97955 7.45V7.46667C2.99103 7.46667 3.01973 7.47778 3.06566 7.5C3.10011 7.5 3.13455 7.52778 3.169 7.58333C3.21493 7.58333 3.23789 7.6 3.23789 7.63333H3.27234V7.71667H3.28956H3.37567V7.76667V7.8V7.88333L3.42734 7.9L3.44456 8V8.05V8.06667L3.47901 8H3.53068H3.58235V7.96667V8L3.73735 7.9H3.7718V7.88333C3.7718 7.85 3.78328 7.83333 3.80624 7.83333C3.80624 7.81111 3.81198 7.8 3.82347 7.8H3.85791V7.78333C3.85791 7.78333 3.86365 7.77778 3.87513 7.76667V7.63333L3.85791 7.61667L3.87513 7.58333C3.87513 7.56111 3.8981 7.55 3.94403 7.55V7.5H4.01292H3.94403V7.33333L4.03014 7.41667L4.11625 7.33333V7.41667H4.1507V7.33333C4.12774 7.33333 4.11625 7.32778 4.11625 7.31667C4.10477 7.30556 4.09903 7.29444 4.09903 7.28333C4.09903 7.26111 4.10477 7.24444 4.11625 7.23333V7.21667L4.1507 7.23333H4.20237L4.23681 7.21667L4.20237 7.15L4.23681 7.05H4.28848C4.31145 7.05 4.33441 7.03333 4.35737 7L4.39182 6.98333L4.42626 6.9H4.44349C4.44349 6.92222 4.45497 6.93889 4.47793 6.95C4.5009 6.95 4.52386 6.95 4.54682 6.95V6.86667L4.58127 6.9V6.86667H4.63294V6.78333H4.66738V6.73333H4.71905L4.73628 6.71667C4.74776 6.71667 4.7535 6.71667 4.7535 6.71667C4.76498 6.70556 4.7822 6.7 4.80517 6.7L4.71905 6.58333H4.80517H4.87406L4.89128 6.51667L4.99462 6.5V6.43333L5.01184 6.4H5.06351C5.08647 6.42222 5.11518 6.43333 5.14962 6.43333H5.16685L5.14962 6.4V6.38333V6.31667V6.21667L5.20129 6.23333V6.21667C5.20129 6.16111 5.21851 6.13333 5.25296 6.13333V6.11667C5.25296 6.11667 5.26444 6.11111 5.28741 6.1V6.06667H5.39074L5.37352 6.03333L5.39074 5.96667H5.45963L5.49408 5.95L5.58019 5.88333H5.54575C5.53427 5.88333 5.52852 5.86667 5.52852 5.83333C5.52852 5.82222 5.54575 5.8 5.58019 5.76667C5.59167 5.75556 5.59742 5.75 5.59742 5.75C5.6089 5.73889 5.62612 5.71111 5.64908 5.66667V5.65H5.59742L5.64908 5.6L5.66631 5.56667V5.55L5.75242 5.46667V5.41667V5.4H5.82131V5.31667L5.78687 5.28333H5.82131V5.26667C5.82131 5.26667 5.83279 5.26111 5.85576 5.25V5.2H5.94187V5.13333V5.11667C5.94187 5.10556 5.94761 5.08889 5.9591 5.06667V5.03333H5.94187V5V4.98333H5.9591V4.91667V4.9C5.9591 4.9 5.9591 4.88333 5.9591 4.85V4.83333V4.73333V4.71667V4.65V4.56667L5.94187 4.55L6.01076 4.51667V4.48333H6.04521H6.02799C6.0165 4.48333 6.01076 4.46667 6.01076 4.43333L5.85576 4.36667L6.07966 4.4V4.35H6.1141H6.14855C6.20596 4.35 6.2404 4.32778 6.25188 4.28333H6.35522H6.37244C6.37244 4.26111 6.38967 4.23889 6.42411 4.21667H6.44133C6.44133 4.19444 6.45282 4.17778 6.47578 4.16667C6.51023 4.15556 6.53319 4.15 6.54467 4.15H6.59634C6.59634 4.12778 6.59634 4.11667 6.59634 4.11667C6.60782 4.10556 6.61356 4.08889 6.61356 4.06667V4V3.93333H6.64801V3.91667V3.88333H6.61356L6.69968 3.81667C6.72264 3.80556 6.73412 3.77778 6.73412 3.73333C6.76857 3.7 6.78579 3.66111 6.78579 3.61667L6.73412 3.6L6.69968 3.51667V3.5C6.69968 3.46667 6.68819 3.45 6.66523 3.45H6.64801V3.41667V3.36667H6.69968H6.73412H6.78579V3.33333V3.31667H6.85468H6.88913H6.92357L6.95802 3.25V3.23333L7.0958 3.08333L7.02691 3.05H7.11302H7.14747C7.17043 3.05 7.18192 3.06111 7.18192 3.08333H7.21636L7.18192 3.05C7.18192 2.99444 7.19914 2.96667 7.23358 2.96667L7.21636 2.9H7.37137V2.85L7.45748 2.88333V2.85H7.4747V2.83333C7.4747 2.83333 7.48619 2.82778 7.50915 2.81667H7.54359H7.50915L7.57804 2.7C7.57804 2.68889 7.57804 2.68333 7.57804 2.68333C7.58952 2.67222 7.61823 2.65 7.66415 2.61667H7.57804C7.55508 2.59444 7.53211 2.58333 7.50915 2.58333C7.48619 2.56111 7.4747 2.54444 7.4747 2.53333V2.51667V2.48333H7.50915C7.50915 2.46111 7.51489 2.44444 7.52637 2.43333L7.54359 2.41667H7.57804H7.66415H7.71582L7.80194 2.4L7.87083 2.35H7.88805L7.87083 2.31667H7.88805L7.95694 2.28333L7.97416 2.25V2.21667L8.02583 2.15H8.0775H8.09472L8.14639 2.13333L8.16362 2.15C8.16362 2.10556 8.19232 2.08333 8.24973 2.08333V2.06667C8.26121 2.03333 8.28418 2.01667 8.31862 2.01667V1.98333L8.37029 1.95H8.33584L8.4564 1.83333L8.5253 1.85H8.57696L8.61141 1.83333V1.78333L8.57696 1.7L8.64586 1.75H8.66308C8.66308 1.71667 8.69178 1.68889 8.74919 1.66667L8.64586 1.6H8.74919V1.56667C8.8066 1.51111 8.8066 1.45 8.74919 1.38333V1.35L8.76642 1.3L8.80086 1.26667C8.82382 1.24444 8.83531 1.23333 8.83531 1.23333V1.18333V1.15H8.81808H8.76642H8.66308H8.64586V1.1H8.61141H8.5253L8.4564 1.15V1.08333V1.03333C8.46789 1.03333 8.47363 1.02778 8.47363 1.01667V0.95H8.5253H8.61141H8.64586L8.61141 0.933333L8.66308 0.95C8.70901 0.916666 8.73197 0.888888 8.73197 0.866666C8.74345 0.844444 8.75493 0.822222 8.76642 0.8H8.81808L8.76642 0.749999H8.74919L8.76642 0.733333C8.75493 0.733333 8.74919 0.727777 8.74919 0.716666V0.683332V0.65V0.616667V0.583333H8.66308V0.55C8.66308 0.505555 8.6803 0.483333 8.71475 0.483333C8.74919 0.472222 8.78364 0.466667 8.81808 0.466667L8.83531 0.583333C8.84679 0.583333 8.85827 0.588888 8.86975 0.599999C8.89272 0.622222 8.9042 0.638889 8.9042 0.65V0.616667C8.91568 0.616667 8.91568 0.605555 8.9042 0.583333V0.533333V0.466667V0.4L8.95587 0.466667L9.04198 0.416666C9.07643 0.45 9.09365 0.488889 9.09365 0.533333V0.466667V0.416666V0.4V0.349999L9.04198 0.316667C9.0305 0.294444 9.02476 0.266666 9.02476 0.233333C9.02476 0.2 9.02476 0.177777 9.02476 0.166667L9.04198 0L9.09365 0.183333L9.19699 0.25V0.283333C9.21995 0.261111 9.23143 0.255555 9.23143 0.266666C9.23143 0.277777 9.24291 0.283333 9.26588 0.283333L9.31755 0.25H9.35199V0.183333C9.37495 0.183333 9.39218 0.183333 9.40366 0.183333C9.42662 0.172222 9.44959 0.166667 9.47255 0.166667H9.52422C9.55867 0.166667 9.58163 0.161111 9.59311 0.15C9.61607 0.127777 9.65052 0.111111 9.69645 0.0999997C9.73089 0.0777771 9.75386 0.0666658 9.76534 0.0666658C9.7883 0.0666658 9.82849 0.0777771 9.8859 0.0999997V0.116666V0.166667C9.85145 0.177777 9.82849 0.194444 9.81701 0.216666C9.81701 0.238888 9.81701 0.261111 9.81701 0.283333V0.316667H9.78256C9.77108 0.316667 9.76534 0.327778 9.76534 0.349999V0.4V0.416666V0.55V0.616667V0.733333C9.76534 0.733333 9.76534 0.755555 9.76534 0.8V0.85V0.95L9.74812 1.01667H9.67922H9.61033L9.59311 0.95H9.54144H9.52422H9.47255H9.43811H9.40366H9.35199C9.35199 0.972222 9.34625 0.983333 9.33477 0.983333C9.3118 1.00556 9.28884 0.994444 9.26588 0.95L9.23143 0.933333H9.19699V1.03333H9.23143V1.08333L9.19699 1.1C9.23143 1.15556 9.2544 1.18333 9.26588 1.18333H9.35199C9.35199 1.20555 9.36921 1.21667 9.40366 1.21667L9.42088 1.23333C9.42088 1.24444 9.42088 1.25556 9.42088 1.26667C9.43236 1.26667 9.43811 1.27778 9.43811 1.3V1.33333C9.43811 1.34444 9.44959 1.35 9.47255 1.35V1.41667V1.45C9.47255 1.46111 9.46107 1.47778 9.43811 1.5C9.41514 1.51111 9.40366 1.54444 9.40366 1.6V1.66667C9.40366 1.72222 9.37496 1.75 9.31755 1.75H9.26588C9.24291 1.75 9.23143 1.77778 9.23143 1.83333V1.85C9.23143 1.86111 9.21995 1.88889 9.19699 1.93333C9.16254 1.94444 9.13384 1.96111 9.11087 1.98333C9.09939 1.98333 9.09365 2.01111 9.09365 2.06667C9.09365 2.07778 9.08217 2.08889 9.0592 2.1C9.04772 2.1 9.04198 2.11111 9.04198 2.13333H9.09365L9.19699 2.08333L9.11087 2.15V2.21667V2.25C9.12235 2.25 9.13384 2.25556 9.14532 2.26667V2.28333H9.19699L9.09365 2.35V2.4C9.07068 2.4 9.05346 2.40556 9.04198 2.41667C9.04198 2.41667 9.03624 2.41667 9.02476 2.41667V2.48333V2.5C9.02476 2.51111 9.02476 2.52222 9.02476 2.53333C9.03624 2.53333 9.04198 2.53889 9.04198 2.55V2.61667C9.04198 2.65 9.04772 2.67222 9.0592 2.68333C9.08217 2.68333 9.09365 2.68889 9.09365 2.7V2.76667H9.02476L8.95587 2.85L8.92142 2.75V2.76667L8.9042 2.75H8.83531H8.81808H8.74919H8.69752C8.68604 2.75 8.67456 2.75556 8.66308 2.76667V2.81667L8.61141 2.88333L8.57696 2.85V2.88333C8.554 2.88333 8.53678 2.88889 8.5253 2.9C8.51381 2.9 8.49659 2.9 8.47363 2.9C8.47363 2.94444 8.46789 2.96667 8.4564 2.96667H8.47363L8.5253 2.9L8.57696 2.96667C8.61141 2.98889 8.61141 3.04444 8.57696 3.13333H8.61141V3.18333C8.63437 3.18333 8.64586 3.20556 8.64586 3.25L8.66308 3.33333L8.61141 3.31667V3.36667H8.57696C8.54252 3.4 8.5253 3.42778 8.5253 3.45C8.5253 3.47222 8.51381 3.48889 8.49085 3.5C8.46789 3.51111 8.44492 3.51667 8.42196 3.51667H8.31862C8.29566 3.51667 8.27844 3.51667 8.26695 3.51667C8.26695 3.50555 8.26121 3.5 8.24973 3.5H8.09472L8.14639 3.41667L8.09472 3.36667L8.0775 3.41667C8.10047 3.41667 8.10047 3.44444 8.0775 3.5V3.51667L8.02583 3.5H7.97416H7.95694H7.88805V3.51667C7.87657 3.57222 7.84786 3.6 7.80194 3.6L7.68138 3.61667V3.65C7.6699 3.65 7.64693 3.65556 7.61249 3.66667C7.58952 3.67778 7.56656 3.68333 7.54359 3.68333H7.71582L7.50915 3.8C7.50915 3.81111 7.50341 3.81667 7.49193 3.81667H7.4747V3.88333H7.45748V3.91667H7.38859H7.37137V4L7.3197 4.06667V4.1H7.30247V4.15L7.37137 4.21667H7.38859L7.37137 4.25L7.3197 4.28333V4.35H7.30247L7.23358 4.43333L7.21636 4.4H7.18192L7.11302 4.43333C7.10154 4.44444 7.08432 4.45 7.06136 4.45C7.04987 4.45 7.03839 4.44444 7.02691 4.43333C7.01543 4.43333 6.99246 4.45 6.95802 4.48333V4.55L6.92357 4.48333C6.91209 4.48333 6.90061 4.48889 6.88913 4.5V4.51667H6.85468C6.85468 4.53889 6.8432 4.55556 6.82024 4.56667C6.80875 4.57778 6.79727 4.60556 6.78579 4.65V4.66667C6.75134 4.7 6.72264 4.72222 6.69968 4.73333V4.76667H6.73412L6.64801 4.9V4.91667C6.64801 4.96111 6.63653 4.98889 6.61356 5H6.59634L6.54467 5.03333V5.06667C6.55615 5.06667 6.57338 5.07778 6.59634 5.1L6.61356 5.11667L6.88913 5.03333L6.64801 5.13333C6.64801 5.14444 6.64227 5.15556 6.63079 5.16667C6.63079 5.16667 6.63079 5.17222 6.63079 5.18333V5.2C6.6193 5.21111 6.61356 5.21111 6.61356 5.2V5.28333H6.59634V5.35L6.54467 5.4H6.52745C6.53893 5.4 6.53893 5.40556 6.52745 5.41667V5.46667L6.59634 5.48333H6.44133V5.55C6.44133 5.58333 6.43559 5.6 6.42411 5.6C6.42411 5.62222 6.41837 5.64444 6.40689 5.66667C6.40689 5.67778 6.39541 5.70556 6.37244 5.75H6.35522C6.34374 5.75 6.33226 5.75556 6.32077 5.76667H6.30355H6.23466H6.16577L6.14855 5.83333L6.1141 5.76667L6.01076 5.81667V5.91667C6.03373 5.91667 6.04521 5.92222 6.04521 5.93333C6.04521 5.94444 6.05669 5.95556 6.07966 5.96667V6.1L6.01076 6.03333V6.06667V6.1V6.13333H5.9591V6.16667C5.9591 6.21111 5.95335 6.26111 5.94187 6.31667C5.83854 6.32778 5.78687 6.36667 5.78687 6.43333V6.5H5.75242H5.78687H5.82131H5.85576V6.51667C5.9591 6.59444 6.03373 6.61667 6.07966 6.58333C6.10262 6.58333 6.11984 6.58889 6.13132 6.6C6.15429 6.6 6.18873 6.61111 6.23466 6.63333L6.25188 6.56667V6.66667H6.30355C6.338 6.68889 6.36096 6.7 6.37244 6.7H6.42411V6.66667H6.44133L6.52745 6.63333V6.66667H6.54467L6.59634 6.7L6.61356 6.66667H6.64801H6.73412H6.85468L6.80301 6.8L6.92357 6.78333L6.88913 6.86667V6.9L6.95802 6.98333H6.88913H6.92357L6.95802 7H6.97524H7.00969H7.02691C7.08432 7 7.11302 7.01667 7.11302 7.05C7.11302 7.07222 7.13599 7.08333 7.18192 7.08333V7.05L7.21636 7.08333C7.22784 7.08333 7.23358 7.09444 7.23358 7.11667C7.24507 7.12778 7.26803 7.13333 7.30247 7.13333C7.30247 7.14444 7.30822 7.15 7.3197 7.15H7.37137C7.41729 7.19444 7.446 7.22778 7.45748 7.25C7.48044 7.26111 7.50915 7.26667 7.54359 7.26667C7.56656 7.3 7.60674 7.31667 7.66415 7.31667H7.68138V7.33333C7.70434 7.33333 7.71582 7.36111 7.71582 7.41667H7.73305L7.75027 7.43333H7.83638C7.85935 7.43333 7.87657 7.43889 7.88805 7.45C7.89953 7.46111 7.9225 7.46667 7.95694 7.46667H7.97416V7.5H8.02583V7.55V7.58333L8.0775 7.55L8.09472 7.5V7.46667C8.09472 7.44444 8.09472 7.41667 8.09472 7.38333C8.10621 7.35 8.12343 7.32778 8.14639 7.31667H8.16362V7.26667V7.21667V7.13333H8.24973L8.16362 7.08333H8.24973L8.16362 7L8.24973 6.98333C8.30714 6.98333 8.34733 7.00556 8.37029 7.05L8.4564 7.08333L8.37029 7.13333V7.15L8.42196 7.31667H8.37029V7.41667V7.33333V7.31667H8.42196H8.4564V7.26667L8.47363 7.23333L8.5253 7.21667H8.57696V7.15L8.5253 7.13333C8.49085 7.13333 8.47363 7.11667 8.47363 7.08333C8.47363 7.02778 8.49085 7 8.5253 7V6.98333V6.86667H8.57696L8.5253 6.8L8.57696 6.78333H8.61141L8.37029 6.56667L8.61141 6.7V6.66667V6.7C8.63437 6.67778 8.6516 6.66667 8.66308 6.66667H8.74919L8.76642 6.56667L8.81808 6.78333H8.74919H8.76642V6.8V6.86667V6.9C8.80086 6.9 8.81808 6.91111 8.81808 6.93333V6.95L8.83531 6.98333L8.9042 7.05L8.81808 7V7.21667L8.74919 7.13333C8.76067 7.13333 8.77216 7.13889 8.78364 7.15C8.8066 7.17222 8.81808 7.19444 8.81808 7.21667V7.23333V7.26667C8.81808 7.3 8.8066 7.31667 8.78364 7.31667H8.76642V7.33333V7.41667V7.43333H8.74919H8.66308H8.64586H8.61141V7.46667H8.66308L8.64586 7.5L8.66308 7.55C8.66308 7.60556 8.63437 7.63333 8.57696 7.63333H8.5253V7.7C8.49085 7.7 8.47363 7.70556 8.47363 7.71667H8.4564V7.76667H8.42196V7.8H8.33584L8.42196 7.88333H8.33584V7.9H8.47363L8.4564 7.96667L8.47363 8L8.5253 8.05L8.47363 8.1H8.4564L8.47363 8.15L8.61141 8.18333V8.23333L8.66308 8.25H8.74919V8.23333H8.76642H8.81808C8.81808 8.23333 8.82382 8.23889 8.83531 8.25H8.9042H8.92142H9.02476H9.04198H9.09365H9.11087H9.14532H9.19699H9.23143H9.26588H9.35199V8.23333L9.40366 8.18333V8.16667C9.40366 8.16667 9.41514 8.16111 9.43811 8.15L9.40366 8.06667L9.47255 8.1H9.54144H9.59311H9.69645H9.74812V8.06667L9.76534 8.05H9.81701H9.90312C9.90312 7.99444 9.94331 7.96667 10.0237 7.96667H10.0581C10.0581 7.92222 10.0696 7.88889 10.0926 7.86667C10.127 7.84444 10.1557 7.83333 10.1787 7.83333V7.8H10.2476L10.2992 7.76667V7.71667L10.3681 7.7C10.3681 7.68889 10.3739 7.67778 10.3854 7.66667C10.4083 7.64444 10.437 7.63333 10.4715 7.63333V7.61667L10.3854 7.58333H10.4715H10.4887H10.5576H10.6265C10.638 7.58333 10.6437 7.57778 10.6437 7.56667C10.6437 7.55556 10.6552 7.55 10.6781 7.55C10.7126 7.51667 10.7585 7.5 10.8159 7.5H10.8676C10.8791 7.52222 10.8906 7.53889 10.902 7.55C10.9135 7.55 10.9193 7.55556 10.9193 7.56667V7.58333V7.5H10.9537H10.9709V7.46667H11.0398H11.0743H11.1259C11.1259 7.44444 11.1317 7.43333 11.1432 7.43333H11.1604C11.1834 7.43333 11.1948 7.43333 11.1948 7.43333C11.2063 7.42222 11.2235 7.41667 11.2465 7.41667H11.2637V7.33333C11.2752 7.33333 11.2809 7.33333 11.2809 7.33333C11.2924 7.32222 11.3039 7.31667 11.3154 7.31667H11.3326H11.4015V7.26667H11.4187H11.4704C11.4819 7.26667 11.5048 7.27778 11.5393 7.3C11.5737 7.31111 11.6024 7.31667 11.6254 7.31667H11.7115H11.7804V7.26667H11.8149H11.8321L11.901 7.23333L11.9182 7.31667C11.9526 7.28333 11.9756 7.26667 11.9871 7.26667L11.901 7.21667L11.9871 7.15H12.056H12.0904V7.13333L12.1076 7.08333C12.1306 7.09444 12.1478 7.10556 12.1593 7.11667C12.1708 7.12778 12.188 7.13333 12.211 7.13333H12.2626H12.2799V7.08333H12.3315L12.2799 6.98333H12.3315C12.3775 6.98333 12.4119 6.97222 12.4349 6.95C12.4693 6.95 12.4865 6.94444 12.4865 6.93333V6.9H12.5554C12.5554 6.87778 12.5612 6.86667 12.5727 6.86667H12.5899H12.6415L12.676 6.83333C12.699 6.81111 12.7104 6.8 12.7104 6.8H12.7793L12.8482 6.78333V6.7L12.9171 6.73333H12.9688V6.66667H12.986C12.9745 6.64444 12.9745 6.63333 12.986 6.63333H12.9688H12.986V6.58333H13.0032C13.0032 6.58333 13.0147 6.57778 13.0377 6.56667V6.51667C13.0377 6.51667 13.0434 6.51111 13.0549 6.5H13.1238C13.1238 6.43333 13.141 6.4 13.1755 6.4C13.1755 6.41111 13.1812 6.41667 13.1927 6.41667C13.2042 6.42778 13.2329 6.43333 13.2788 6.43333V6.5V6.43333L13.296 6.5H13.3477L13.3994 6.43333V6.41667C13.3994 6.41667 13.4108 6.41111 13.4338 6.4C13.4223 6.4 13.4166 6.39444 13.4166 6.38333C13.4166 6.37222 13.4223 6.35556 13.4338 6.33333L13.4682 6.31667V6.33333H13.5027H13.5371V6.31667C13.5371 6.25 13.5429 6.21667 13.5544 6.21667H13.6233L13.5371 6.1L13.6405 6.13333V6.1C13.652 6.08889 13.6634 6.08333 13.6749 6.08333C13.6864 6.08333 13.6979 6.08889 13.7094 6.1V6.06667H13.7783C13.7783 6.04444 13.7955 6.03333 13.8299 6.03333L13.8471 5.96667H13.916H13.8471L13.916 5.91667L13.9333 5.88333C13.9333 5.83889 13.9562 5.81667 14.0022 5.81667H14.1227V5.76667H14.1399H14.1572C14.1686 5.76667 14.1744 5.76667 14.1744 5.76667C14.1859 5.75556 14.1973 5.75 14.2088 5.75L14.2605 5.66667H14.2777V5.65C14.3007 5.65 14.3236 5.63889 14.3466 5.61667C14.3696 5.58333 14.3983 5.56111 14.4327 5.55L14.4844 5.48333L14.5016 5.46667C14.5475 5.43333 14.5877 5.41667 14.6222 5.41667V5.4C14.6451 5.35556 14.6738 5.32778 14.7083 5.31667C14.7427 5.29444 14.7657 5.27222 14.7772 5.25H14.8461V5.2L14.8633 5.11667V5.13333H14.8977C14.8977 5.12222 14.9035 5.11667 14.915 5.11667C14.9379 5.10556 14.9494 5.08889 14.9494 5.06667L14.9839 5L15.0183 5.06667C15.0183 5.02222 15.0413 5 15.0872 5H15.1216C15.1446 5 15.1561 4.99444 15.1561 4.98333C15.1561 4.96111 15.1618 4.94444 15.1733 4.93333L15.1905 4.91667V4.85V4.83333H15.225C15.2479 4.84444 15.2594 4.85 15.2594 4.85C15.2594 4.83889 15.2652 4.83333 15.2766 4.83333H15.3455H15.4316V4.8C15.4316 4.77778 15.4489 4.76667 15.4833 4.76667C15.4833 4.7 15.4431 4.66667 15.3628 4.66667L15.2766 4.65L15.3628 4.56667V4.55V4.48333C15.3513 4.47222 15.3455 4.45 15.3455 4.41667V4.4C15.3685 4.34444 15.3455 4.28333 15.2766 4.21667C15.2652 4.16111 15.2652 4.08889 15.2766 4V3.93333H15.3111C15.334 3.93333 15.3455 3.92778 15.3455 3.91667V3.88333C15.357 3.88333 15.357 3.85556 15.3455 3.8V3.75L15.3628 3.73333L15.3455 3.75L15.2766 3.68333V3.65C15.3226 3.65 15.3455 3.63889 15.3455 3.61667C15.357 3.61667 15.3628 3.61111 15.3628 3.6V3.51667L15.3455 3.5H15.3628V3.45L15.4144 3.41667H15.3628H15.3455L15.225 3.25H15.1561V3.23333C15.1905 3.18889 15.2135 3.16667 15.225 3.16667L15.1905 3.13333H15.2594L15.225 3.08333L15.1905 2.88333H15.225V2.85V2.81667V2.75H15.1905L15.1561 2.7L15.1905 2.68333L15.0872 2.55L15.1561 2.51667H15.1733C15.1733 2.51667 15.179 2.50555 15.1905 2.48333H15.1561C15.0987 2.42778 15.07 2.38333 15.07 2.35V2.31667V2.28333L15.0183 2.21667H15.07C15.0585 2.21667 15.0527 2.20555 15.0527 2.18333C15.0527 2.17222 15.047 2.16111 15.0355 2.15C15.0355 2.12778 15.047 2.10556 15.07 2.08333V2.06667V2.01667L15.0872 1.95V1.98333V1.95H15.1905C15.1676 1.95 15.1561 1.94444 15.1561 1.93333C15.1102 1.93333 15.0872 1.92222 15.0872 1.9C15.0757 1.88889 15.0757 1.87222 15.0872 1.85C15.0872 1.83889 15.1102 1.83333 15.1561 1.83333V1.7L15.0872 1.66667H15.1561V1.65H15.0872H15.07V1.6L15.0183 1.5H15.07H15.0183V1.38333H15.07L15.0183 1.35H15.07V1.3V1.25L15.0872 1.23333H15.1561C15.1561 1.2 15.1676 1.18333 15.1905 1.18333V1.15V1.1H15.1561V1.08333V1.03333H15.1389C15.1274 1.03333 15.1216 1.03333 15.1216 1.03333C15.1216 1.02222 15.1102 1.01667 15.0872 1.01667L15.1561 0.95H15.0872C15.0757 0.95 15.0757 0.944444 15.0872 0.933333C15.0757 0.933333 15.0757 0.927777 15.0872 0.916666C15.0872 0.894444 15.1102 0.883333 15.1561 0.883333C15.1561 0.861111 15.1446 0.85 15.1216 0.85C15.1102 0.838888 15.1216 0.822222 15.1561 0.8L15.0872 0.749999L15.1561 0.733333C15.1102 0.733333 15.0872 0.727777 15.0872 0.716666C15.0757 0.705555 15.0757 0.694444 15.0872 0.683332V0.65V0.616667C15.0872 0.583333 15.0872 0.55 15.0872 0.516666C15.0872 0.472221 15.0814 0.433333 15.07 0.4C15.047 0.4 15.0355 0.394444 15.0355 0.383333C15.0355 0.361111 15.047 0.349999 15.07 0.349999C15.07 0.327778 15.0757 0.316667 15.0872 0.316667H15.1561L15.2594 0.65H15.225V0.683332C15.2479 0.716666 15.2594 0.755555 15.2594 0.8C15.2594 0.855555 15.2652 0.9 15.2766 0.933333V0.95C15.2881 0.95 15.3053 0.961111 15.3283 0.983333C15.3283 0.994444 15.334 1.00556 15.3455 1.01667C15.357 1.02778 15.357 1.04444 15.3455 1.06667C15.3455 1.07778 15.3455 1.08889 15.3455 1.1V1.15V1.16667C15.3455 1.17778 15.3513 1.18333 15.3628 1.18333C15.4202 1.23889 15.4202 1.29444 15.3628 1.35V1.38333L15.3455 1.41667L15.2766 1.38333L15.2594 1.46667V1.5L15.3455 1.46667V1.5V1.51667L15.3628 1.56667L15.4144 1.65L15.3628 1.66667H15.4144H15.4316L15.4833 1.83333H15.4316V1.85H15.4144H15.4316V1.93333C15.4316 1.94444 15.4259 1.96111 15.4144 1.98333H15.4833L15.4316 2.06667H15.4144H15.4316V2.08333C15.4316 2.10556 15.4374 2.12778 15.4489 2.15C15.4604 2.16111 15.4546 2.18333 15.4316 2.21667L15.4144 2.25L15.3628 2.15V2.21667H15.3455C15.2881 2.16111 15.2479 2.16111 15.225 2.21667H15.3455V2.25H15.3628V2.31667V2.4H15.2766V2.41667H15.3455H15.3628L15.4316 2.51667L15.4144 2.55H15.3628V2.58333V2.61667L15.4833 2.68333L15.4316 2.7C15.4661 2.73333 15.4833 2.77222 15.4833 2.81667H15.535L15.5694 2.85L15.535 2.88333V2.9H15.4833L15.5694 2.98333L15.535 3.05L15.5694 3.08333L15.535 3.13333C15.5579 3.13333 15.5694 3.13889 15.5694 3.15C15.5694 3.16111 15.5579 3.17222 15.535 3.18333H15.6383V3.23333V3.25H15.5694C15.6268 3.25 15.6555 3.27778 15.6555 3.33333L15.7072 3.36667V3.41667L15.6555 3.36667L15.5694 3.41667V3.5L15.6383 3.51667L15.5694 3.6H15.535L15.5694 3.61667L15.535 3.65H15.5522C15.5522 3.65 15.5579 3.66111 15.5694 3.68333C15.5694 3.69444 15.5752 3.70556 15.5867 3.71667C15.5867 3.72778 15.5867 3.73889 15.5867 3.75C15.5981 3.76111 15.5924 3.77778 15.5694 3.8C15.6039 3.81111 15.6096 3.82778 15.5867 3.85C15.5752 3.87222 15.5579 3.88333 15.535 3.88333V3.91667V3.93333V3.98333C15.535 4.00556 15.5292 4.02222 15.5178 4.03333C15.5063 4.03333 15.4948 4.04444 15.4833 4.06667H15.4316L15.5694 4.1L15.4833 4.15C15.5063 4.16111 15.5178 4.18333 15.5178 4.21667C15.5292 4.23889 15.535 4.26111 15.535 4.28333V4.4V4.41667C15.535 4.43889 15.5465 4.46111 15.5694 4.48333V4.51667L15.6383 4.55H15.6555C15.69 4.52778 15.713 4.52778 15.7244 4.55V4.51667L15.8622 4.56667H15.9139V4.65L15.9483 4.66667L16 4.71667V4.73333V4.76667V4.85ZM7.88805 2.58333C7.9225 2.58333 7.94546 2.6 7.95694 2.63333C7.96842 2.66667 7.97416 2.68889 7.97416 2.7H8.02583H8.09472H8.14639H8.16362L8.09472 2.61667H8.14639C8.11195 2.61667 8.09472 2.61111 8.09472 2.6V2.58333H8.0775H8.02583C8.00287 2.59444 7.98565 2.6 7.97416 2.6C7.96268 2.6 7.95694 2.59444 7.95694 2.58333L7.88805 2.55V2.58333ZM7.30247 4.16667H7.23358H7.30247ZM2.30786 6.86667H2.29063H2.30786ZM3.58235 8.48333H3.56512H3.58235ZM4.01292 9.63333C4.00144 9.63333 3.99569 9.62778 3.99569 9.61667C3.97273 9.59444 3.95551 9.58333 3.94403 9.58333V9.56667L4.01292 9.63333ZM3.9268 9.36667V9.38333C3.93828 9.38333 3.94403 9.4 3.94403 9.43333V9.38333L3.9268 9.36667ZM5.58019 6.63333V6.58333V6.63333ZM5.7352 5.88333H5.66631L5.7352 5.91667V5.88333ZM8.16362 7.61667V7.58333L8.09472 7.55V7.58333C8.09472 7.60556 8.10047 7.61667 8.11195 7.61667H8.14639H8.16362ZM8.26695 7.55V7.58333V7.55Z" fill="black"/>
</svg>
