<svg width="12" height="14" viewBox="0 0 12 14" fill="none" xmlns="http://www.w3.org/2000/svg">
<path d="M12 0.212369C11.9774 0.23415 11.966 0.261377 11.966 0.294049C11.966 0.31583 11.9547 0.353948 11.9321 0.408401C11.9321 0.451964 11.8981 0.495527 11.8302 0.53909C11.8075 0.560871 11.7906 0.588098 11.7792 0.62077C11.7792 0.653442 11.7679 0.680669 11.7453 0.70245C11.7226 0.746013 11.7 0.778685 11.6774 0.800466C11.666 0.822248 11.6547 0.860366 11.6434 0.914819V0.931155L11.6604 0.963828L11.6434 1.04551C11.6434 1.07818 11.6208 1.10541 11.5755 1.12719C11.5415 1.14897 11.5075 1.15986 11.4736 1.15986H11.4057V1.1762L11.5245 1.25788L11.4057 1.27421C11.383 1.32867 11.3547 1.36678 11.3208 1.38856C11.2981 1.39945 11.2755 1.41579 11.2528 1.43757V1.5846L11.1849 1.50292V1.53559H11.083V1.61727H10.9472C10.9472 1.62816 10.9415 1.63361 10.9302 1.63361H10.8962C10.8283 1.69895 10.783 1.73162 10.7604 1.73162C10.7038 1.7534 10.6585 1.75885 10.6245 1.74796C10.6019 1.73707 10.5792 1.73162 10.5566 1.73162C10.5453 1.7534 10.517 1.76429 10.4717 1.76429C10.4377 1.76429 10.4094 1.76974 10.3868 1.78063H10.3528L10.3019 1.8133V1.87865V1.89498C10.3019 1.93855 10.2962 1.97666 10.2849 2.00934C10.2736 2.04201 10.2396 2.08012 10.183 2.12369L10.1321 2.15636L10.0981 2.12369H10.0811V2.15636V2.18903H10.0132L9.96226 2.2217C9.95094 2.25438 9.92264 2.29249 9.87736 2.33606C9.83208 2.36873 9.76415 2.38506 9.67359 2.38506H9.6566C9.66792 2.40685 9.66792 2.43952 9.6566 2.48308C9.66792 2.51575 9.66792 2.54842 9.6566 2.5811C9.6566 2.61377 9.6566 2.641 9.6566 2.66278C9.66792 2.68456 9.67359 2.73357 9.67359 2.8098V2.84247V2.95683V2.9895V3.03851H9.6566C9.62264 3.07118 9.60566 3.10385 9.60566 3.13652C9.56038 3.13652 9.52075 3.1583 9.48679 3.20187C9.46415 3.22365 9.44151 3.23998 9.41887 3.25088C9.39623 3.26177 9.37925 3.2781 9.36792 3.29988C9.36792 3.29988 9.37359 3.31077 9.38491 3.33256V3.34889V3.3979C9.43019 3.3979 9.45283 3.41424 9.45283 3.44691L9.48679 3.51225L9.36792 3.54492V3.59393C9.36792 3.6266 9.3283 3.68106 9.24906 3.75729C9.24906 3.81175 9.22641 3.85531 9.18113 3.88798C9.14717 3.90976 9.11887 3.92065 9.09623 3.92065H8.97736C8.95472 3.94243 8.92642 3.95877 8.89245 3.96966L8.85849 4.01867C8.85849 4.02956 8.85283 4.04045 8.84151 4.05134C8.83019 4.06223 8.80755 4.06768 8.77358 4.06768H8.68868C8.68868 4.08946 8.66038 4.1058 8.60377 4.11669L8.53585 4.16569H8.50189C8.46792 4.19837 8.43962 4.24193 8.41698 4.29638C8.40566 4.33995 8.39434 4.38351 8.38302 4.42707V4.47608V4.5741H8.31509V4.60677V4.77013V4.8028L8.38302 4.88448H8.26415C8.26415 4.90626 8.25849 4.93349 8.24717 4.96616H8.21321L8.26415 5.06418L8.14528 5.08051V5.12952V5.30922L8.0434 5.24387L7.97547 5.34189V5.42357L7.87358 5.45624L7.83962 5.47258C7.81698 5.50525 7.79434 5.52703 7.7717 5.53792C7.76038 5.53792 7.75472 5.54881 7.75472 5.5706C7.72075 5.5706 7.69811 5.57604 7.68679 5.58693C7.68679 5.58693 7.68113 5.58693 7.66981 5.58693V5.6196C7.66981 5.63049 7.65283 5.63594 7.61887 5.63594V5.66861C7.61887 5.6795 7.60755 5.68495 7.58491 5.68495C7.58491 5.69584 7.57358 5.71217 7.55094 5.73396C7.53962 5.74485 7.53396 5.76118 7.53396 5.78296V5.92999L7.44906 5.88098H7.41509C7.39245 5.90276 7.36981 5.92454 7.34717 5.94632C7.32453 5.95722 7.30189 5.97355 7.27924 5.99533V6.01167C7.27924 6.02256 7.27358 6.028 7.26226 6.028V6.07701H7.21132C7.17736 6.0879 7.16038 6.12602 7.16038 6.19137V6.27305H7.04151H6.97358L7.09245 6.33839L6.85472 6.53442L6.70189 6.42007V6.46908L6.63396 6.64877L6.54906 6.53442V6.55076H6.46415C6.46415 6.59432 6.45283 6.6161 6.43019 6.6161C6.41887 6.62699 6.41321 6.62699 6.41321 6.6161C6.39057 6.6161 6.37924 6.62699 6.37924 6.64877L6.34528 6.68145H6.27736C6.26604 6.68145 6.26038 6.68689 6.26038 6.69778H6.22641C6.22641 6.80669 6.18113 6.86114 6.09057 6.86114C6.09057 6.88293 6.09057 6.90471 6.09057 6.92649C6.09057 6.94827 6.07925 6.95916 6.0566 6.95916L6.09057 7.04084V7.05718C6.06792 7.07896 6.04528 7.10074 6.02264 7.12252C6.01132 7.1443 6.00566 7.16064 6.00566 7.17153C5.98302 7.19331 5.96604 7.2042 5.95472 7.2042H5.92075L5.88679 7.57993C5.88679 7.62349 5.89811 7.64527 5.92075 7.64527V7.72695C5.92075 7.77052 5.90943 7.80319 5.88679 7.82497L5.86981 7.85764C5.86981 7.89032 5.85849 7.91754 5.83585 7.93932C5.81321 7.9611 5.80189 7.98289 5.80189 8.00467V8.021C5.74528 8.07546 5.71698 8.11902 5.71698 8.15169C5.70566 8.15169 5.7 8.15714 5.7 8.16803L5.63208 8.23337V8.26604V8.31505V8.3804V8.46208H5.51321C5.53585 8.46208 5.54717 8.47297 5.54717 8.49475C5.55849 8.51653 5.56415 8.53287 5.56415 8.54376L5.63208 8.62544H5.56415L5.46226 8.69078H5.4283L5.46226 8.7888H5.39434V8.9685H5.3434C5.30943 9.00117 5.27547 9.0175 5.24151 9.0175C5.19623 9.03928 5.16226 9.05018 5.13962 9.05018H5.10566H5.0717L5.12264 9.34422L4.88491 9.13186V9.1972V9.22987V9.27888C4.88491 9.31155 4.87924 9.33333 4.86792 9.34422C4.8566 9.34422 4.85094 9.35511 4.85094 9.3769H4.81698L4.76604 9.44224H4.71509C4.71509 9.50758 4.69245 9.54026 4.64717 9.54026C4.64717 9.57293 4.66415 9.58926 4.69811 9.58926C4.69811 9.62194 4.70377 9.64372 4.71509 9.65461L4.88491 9.68728L4.76604 9.75263C4.78868 9.80708 4.80566 9.85064 4.81698 9.88331C4.83962 9.9051 4.85094 9.94321 4.85094 9.99767L4.88491 10.0467H4.93585L4.98679 10.014L5.12264 10.0467L5.10566 10.1447V10.1937V10.2264V10.2754C5.19623 10.2754 5.24151 10.3135 5.24151 10.3897V10.4061C5.24151 10.4278 5.24717 10.4496 5.25849 10.4714C5.26981 10.4823 5.26415 10.4932 5.24151 10.5041V10.5531V10.6021V10.7001V10.7655C5.24151 10.7872 5.24717 10.8036 5.25849 10.8145C5.26981 10.8145 5.27547 10.8254 5.27547 10.8471C5.28679 10.858 5.29245 10.8798 5.29245 10.9125H5.30943C5.33208 10.9125 5.3434 10.9288 5.3434 10.9615H5.4283H5.46226L5.51321 10.9942C5.51321 11.0051 5.53019 11.0105 5.56415 11.0105V11.0432C5.59811 11.0432 5.62641 11.0541 5.64906 11.0758C5.68302 11.0976 5.70566 11.114 5.71698 11.1249V11.1575H5.75094L5.88679 11.2065V11.3046H5.86981V11.3862H5.88679C6 11.3862 6.0566 11.408 6.0566 11.4516H6.09057C6.13585 11.4842 6.15849 11.5224 6.15849 11.5659C6.16981 11.6095 6.17547 11.6422 6.17547 11.6639V11.7293C6.19811 11.7293 6.20943 11.7402 6.20943 11.762C6.22075 11.7729 6.23774 11.7783 6.26038 11.7783C6.26038 11.8219 6.26604 11.86 6.27736 11.8926V11.958L6.34528 11.9743L6.37924 12.0397V12.0723V12.0887C6.40189 12.1105 6.41321 12.1431 6.41321 12.1867C6.48113 12.1867 6.51509 12.203 6.51509 12.2357C6.53774 12.2575 6.53774 12.2847 6.51509 12.3174C6.54906 12.3174 6.58302 12.3283 6.61698 12.3501C6.66226 12.3827 6.68491 12.41 6.68491 12.4317C6.68491 12.4644 6.68491 12.4916 6.68491 12.5134C6.69623 12.5352 6.70189 12.557 6.70189 12.5788C6.70189 12.5897 6.70755 12.5951 6.71887 12.5951H6.73585H6.80377L6.85472 12.6278V12.7421C6.86604 12.7639 6.88302 12.7748 6.90566 12.7748C6.96226 12.8401 6.99057 12.8891 6.99057 12.9218C7.01321 12.9654 7.03585 13.0035 7.05849 13.0362C7.08113 13.0797 7.10377 13.1287 7.12641 13.1832C7.14906 13.1941 7.16038 13.2104 7.16038 13.2322C7.1717 13.254 7.18868 13.2758 7.21132 13.2975C7.21132 13.3193 7.21698 13.3302 7.2283 13.3302C7.25094 13.3302 7.26226 13.3357 7.26226 13.3466H7.27924V13.3956L7.36415 13.4609L7.26226 13.5916L7.09245 13.4936C7.06981 13.4936 7.05283 13.4881 7.04151 13.4772C7.03019 13.4664 7.01321 13.45 6.99057 13.4282L6.97358 13.3956C6.90566 13.352 6.8717 13.3193 6.8717 13.2975C6.86038 13.2213 6.81509 13.156 6.73585 13.1015C6.73585 13.058 6.72453 13.0362 6.70189 13.0362C6.70189 13.0144 6.69623 13.0035 6.68491 13.0035H6.63396C6.58868 12.9708 6.54906 12.9382 6.51509 12.9055C6.48113 12.8837 6.46415 12.8619 6.46415 12.8401V12.8075C6.46415 12.7857 6.44717 12.7748 6.41321 12.7748V12.7421C6.37925 12.7312 6.3566 12.7095 6.34528 12.6768C6.34528 12.6441 6.34528 12.6169 6.34528 12.5951H6.31132H6.27736C6.26604 12.5951 6.26038 12.5897 6.26038 12.5788C6.26038 12.557 6.25472 12.5406 6.2434 12.5298C6.23208 12.5298 6.22641 12.5189 6.22641 12.4971H6.17547L6.10755 12.4644V12.4317C6.10755 12.3882 6.09057 12.3228 6.0566 12.2357C6.01132 12.2248 5.97736 12.203 5.95472 12.1704C5.93208 12.1268 5.92075 12.0941 5.92075 12.0723V11.958C5.92075 11.9362 5.91509 11.9144 5.90377 11.8926C5.89245 11.86 5.88113 11.8328 5.86981 11.811C5.86981 11.7892 5.85849 11.7783 5.83585 11.7783C5.81321 11.7674 5.80189 11.7511 5.80189 11.7293C5.80189 11.7184 5.78491 11.713 5.75094 11.713C5.75094 11.6803 5.73962 11.6639 5.71698 11.6639C5.62641 11.6639 5.55849 11.6149 5.51321 11.5169V11.5006C5.51321 11.5006 5.49623 11.4842 5.46226 11.4516C5.46226 11.4298 5.4566 11.4135 5.44528 11.4026C5.43396 11.3917 5.4283 11.3753 5.4283 11.3536C5.40566 11.3209 5.36038 11.3046 5.29245 11.3046C5.23585 11.2828 5.17924 11.2664 5.12264 11.2555C5.07736 11.2338 5.03208 11.2011 4.98679 11.1575L4.93585 11.1249V11.1085C4.90189 11.065 4.88491 11.0268 4.88491 10.9942C4.85094 10.9615 4.85094 10.9125 4.88491 10.8471C4.88491 10.8254 4.88491 10.8036 4.88491 10.7818C4.88491 10.76 4.87358 10.7219 4.85094 10.6674V10.5531V10.5041C4.78302 10.5041 4.73774 10.4932 4.71509 10.4714C4.70377 10.4496 4.69811 10.4224 4.69811 10.3897V10.3571C4.69811 10.3571 4.68113 10.3407 4.64717 10.3081C4.62453 10.3081 4.60189 10.2972 4.57924 10.2754C4.56792 10.2427 4.56226 10.2155 4.56226 10.1937H4.5283C4.49434 10.1937 4.46604 10.2046 4.4434 10.2264L4.39245 10.2754C4.36981 10.3081 4.34717 10.3298 4.32453 10.3407C4.31321 10.3516 4.30189 10.368 4.29057 10.3897C4.22264 10.4115 4.18868 10.4442 4.18868 10.4877C4.13208 10.564 4.10377 10.6075 4.10377 10.6184C4.08113 10.6184 4.06981 10.6293 4.06981 10.6511V10.6674H4.01887L4.06981 10.7001L4.18868 10.7491L4.13774 10.8635V10.8962C4.13774 10.9179 4.12641 10.9397 4.10377 10.9615C4.10377 10.9942 4.07547 11.0214 4.01887 11.0432C4.00755 11.0432 4.00189 11.0541 4.00189 11.0758V11.1085C4.00189 11.1412 3.97925 11.1575 3.93396 11.1575L4.10377 11.3046H4.01887L4.13774 11.3862L3.93396 11.4189V11.4516C3.93396 11.4842 3.92264 11.506 3.9 11.5169C3.87736 11.5278 3.85472 11.5441 3.83208 11.5659H3.79811C3.77547 11.5659 3.76415 11.5823 3.76415 11.6149H3.73019C3.73019 11.6258 3.72453 11.6313 3.71321 11.6313H3.66226L3.73019 11.713L3.66226 11.8436L3.57736 11.811V11.8273C3.57736 11.8382 3.56604 11.8436 3.5434 11.8436C3.56604 11.8654 3.57736 11.8818 3.57736 11.8926C3.58868 11.8926 3.59434 11.9035 3.59434 11.9253V11.958H3.71321L3.59434 11.9743V12.2357L3.44151 12.1867L3.40755 12.1214L3.37358 12.0887H3.23774L3.28868 12.0397H3.23774C3.21509 12.0615 3.19811 12.0723 3.18679 12.0723H3.15283V12.0887L3.23774 12.2357H3.15283L3.08491 12.3501L2.91509 12.5788H2.88113C2.85849 12.5788 2.82453 12.5951 2.77925 12.6278V12.6768H2.83019L2.91509 12.8401L2.66038 13.0362L2.59245 12.9382H2.49057C2.46792 12.9817 2.45094 13.0089 2.43962 13.0198L2.42264 13.0362C2.41132 13.0362 2.4 13.0416 2.38868 13.0525H2.3717V13.0688C2.3717 13.1669 2.31509 13.2431 2.20189 13.2975L2.32075 13.6896L2.18491 13.4609C2.18491 13.5045 2.14528 13.5426 2.06604 13.5753V13.5916C2.0434 13.6461 2.02642 13.6842 2.01509 13.706C2.01509 13.7386 1.99811 13.7713 1.96415 13.804V13.8203H1.89623C1.93019 13.8421 1.93585 13.8584 1.91321 13.8693C1.89057 13.8911 1.87925 13.9183 1.87925 13.951H1.84528L1.79434 14L1.62453 13.8856L1.67547 13.8203C1.67547 13.8094 1.68679 13.804 1.70943 13.804C1.70943 13.7713 1.71509 13.7441 1.72642 13.7223C1.73774 13.7114 1.7434 13.7005 1.7434 13.6896H1.79434C1.8283 13.6134 1.8283 13.5753 1.79434 13.5753V13.4609C1.81698 13.4391 1.8283 13.4228 1.8283 13.4119C1.83962 13.401 1.8566 13.3956 1.87925 13.3956L1.89623 13.1505L1.50566 12.7258L1.96415 13.0362V12.9218L2.03208 13.0362L2.04906 13.0198C2.04906 13.0089 2.04906 12.9981 2.04906 12.9872C2.06038 12.9763 2.06604 12.9599 2.06604 12.9382L2.13396 12.9218C2.1566 12.9 2.17358 12.8783 2.18491 12.8565C2.20755 12.8347 2.24717 12.8075 2.30377 12.7748L2.32075 12.7421L2.3717 12.7258H2.42264V12.6768C2.42264 12.6223 2.43396 12.5788 2.4566 12.5461C2.47925 12.5134 2.50189 12.4862 2.52453 12.4644C2.52453 12.4426 2.53585 12.4317 2.55849 12.4317H2.59245V12.3827C2.53585 12.3283 2.51321 12.2847 2.52453 12.252C2.53585 12.2303 2.55849 12.2085 2.59245 12.1867C2.60377 12.1431 2.60943 12.1105 2.60943 12.0887C2.63208 12.0778 2.64906 12.0669 2.66038 12.056C2.6717 12.0342 2.69434 12.007 2.7283 11.9743C2.73962 11.9634 2.75094 11.958 2.76226 11.958C2.78491 11.958 2.80755 11.9471 2.83019 11.9253H2.88113V11.909C2.88113 11.909 2.89245 11.9035 2.91509 11.8926L2.88113 11.7783H3.03396C3.04528 11.7783 3.0566 11.7729 3.06792 11.762C3.09057 11.7402 3.10755 11.7293 3.11887 11.7293C3.11887 11.7293 3.13019 11.7238 3.15283 11.713V11.6639C3.17547 11.6422 3.18679 11.6204 3.18679 11.5986C3.19811 11.5768 3.21509 11.5659 3.23774 11.5659C3.23774 11.5333 3.25472 11.5169 3.28868 11.5169V11.4842H3.23774L3.57736 11.2719V11.1249L3.47547 11.0432H3.59434V11.0105C3.59434 10.9996 3.61698 10.9833 3.66226 10.9615V10.9125V10.8635V10.8471V10.7655V10.6184V10.5531C3.66226 10.5204 3.66792 10.5041 3.67924 10.5041H3.71321V10.4061H3.76415C3.76415 10.3952 3.77547 10.3897 3.79811 10.3897C3.82075 10.3788 3.83208 10.3625 3.83208 10.3407C3.83208 10.3189 3.83774 10.3081 3.84906 10.3081H3.86604C3.86604 10.2427 3.91132 10.1937 4.00189 10.161C4.00189 10.063 4.04717 10.014 4.13774 10.014C4.16038 10.014 4.1717 10.014 4.1717 10.014C4.18302 10.0031 4.2 9.99767 4.22264 9.99767C4.2 9.9541 4.18868 9.91599 4.18868 9.88331V9.80163V9.65461C4.18868 9.64372 4.17736 9.62194 4.15472 9.58926C4.1434 9.5457 4.13774 9.51303 4.13774 9.49125C4.13774 9.4368 4.13208 9.40957 4.12075 9.40957C4.12075 9.39868 4.10377 9.38779 4.06981 9.3769C4.04717 9.3769 4.00189 9.34422 3.93396 9.27888H3.9L3.86604 9.26254L3.83208 9.22987V9.1972V9.13186C3.79811 9.13186 3.76415 9.11552 3.73019 9.08285C3.71887 9.07196 3.71321 9.06107 3.71321 9.05018C3.67924 9.05018 3.66226 9.04473 3.66226 9.03384V9.0175L3.57736 9.05018L3.5434 8.9685C3.5434 8.94671 3.52075 8.93582 3.47547 8.93582C3.47547 8.90315 3.46981 8.87592 3.45849 8.85414C3.44717 8.83236 3.44151 8.81058 3.44151 8.7888H3.40755V8.72345C3.38491 8.70167 3.36792 8.68534 3.3566 8.67445C3.3566 8.66356 3.33962 8.64722 3.30566 8.62544V8.54376V8.52742V8.46208V8.42941C3.29434 8.41851 3.28868 8.40218 3.28868 8.3804V8.31505H3.23774C3.18113 8.31505 3.15283 8.29872 3.15283 8.26604H3.08491C3.08491 8.24426 3.06792 8.23337 3.03396 8.23337C3.01132 8.2007 2.98302 8.17347 2.94906 8.15169C2.92641 8.12991 2.90377 8.08635 2.88113 8.021C2.82453 8.01011 2.79057 7.99922 2.77925 7.98833C2.77925 7.97744 2.76792 7.972 2.74528 7.972V7.92299C2.73396 7.9121 2.71698 7.90121 2.69434 7.89032C2.6717 7.86853 2.66038 7.84675 2.66038 7.82497L2.60943 7.7923C2.59811 7.73785 2.58113 7.68339 2.55849 7.62894C2.53585 7.57448 2.51321 7.52003 2.49057 7.46558V7.43291C2.43396 7.42202 2.39434 7.40568 2.3717 7.3839C2.36038 7.36212 2.3434 7.34033 2.32075 7.31855C2.32075 7.30766 2.31509 7.28588 2.30377 7.25321C2.30377 7.22054 2.28679 7.19331 2.25283 7.17153C2.19623 7.09529 2.17358 7.05718 2.18491 7.05718H2.13396L2.06604 7.04084L2.03208 7.00817C2.03208 6.9755 2.00943 6.93738 1.96415 6.89382C1.88491 6.81758 1.8566 6.72501 1.87925 6.6161V6.55076C1.83396 6.55076 1.78868 6.52353 1.7434 6.46908H1.72642C1.70377 6.46908 1.68679 6.45274 1.67547 6.42007L1.62453 6.3874L1.67547 6.35473H1.62453L1.59057 6.33839C1.51132 6.28394 1.46038 6.23493 1.43774 6.19137C1.42642 6.13691 1.40943 6.08246 1.38679 6.028H1.25094V5.92999C1.25094 5.87553 1.23962 5.84286 1.21698 5.83197C1.20566 5.81019 1.18302 5.78296 1.14906 5.75029C1.12642 5.70673 1.10377 5.66861 1.08113 5.63594C1.08113 5.61416 1.08113 5.59782 1.08113 5.58693C1.09245 5.56515 1.10943 5.52703 1.13208 5.47258H1.08113V5.45624C1.05849 5.43446 1.04717 5.41813 1.04717 5.40723C1.04717 5.38545 1.04151 5.36367 1.03019 5.34189H0.962264L0.89434 5.2112V5.12952L0.758491 5.08051C0.713208 5.05873 0.667925 5.02061 0.622641 4.96616V4.91715H0.60566C0.59434 4.91715 0.588679 4.91171 0.588679 4.90082C0.577358 4.88993 0.571698 4.86814 0.571698 4.83547H0.503774V4.8028C0.503774 4.78102 0.486792 4.75924 0.45283 4.73746C0.45283 4.72657 0.44717 4.72112 0.435849 4.72112C0.379245 4.66667 0.345283 4.62855 0.333962 4.60677C0.322642 4.5741 0.322642 4.54142 0.333962 4.50875C0.322642 4.48697 0.316981 4.47063 0.316981 4.45974L0.181132 4.42707L0.045283 4.26371H0.0962264V4.19837C0.0962264 4.14391 0.0792453 4.10035 0.045283 4.06768C0 4.00233 -0.0113208 3.93699 0.0113208 3.87165V3.6266L0.232075 3.87165C0.254717 3.91521 0.271698 3.94788 0.283019 3.96966C0.30566 3.98055 0.322642 4.01322 0.333962 4.06768C0.333962 4.07857 0.339623 4.08946 0.350943 4.10035C0.350943 4.14391 0.345283 4.16569 0.333962 4.16569L0.401887 4.19837V4.23104H0.435849C0.560377 4.26371 0.60566 4.32905 0.571698 4.42707V4.45974C0.59434 4.45974 0.611321 4.46519 0.622641 4.47608C0.633962 4.47608 0.650943 4.48697 0.673585 4.50875C0.696226 4.50875 0.707547 4.51964 0.707547 4.54142C0.718868 4.5632 0.724528 4.58499 0.724528 4.60677V4.6231H0.792453L0.89434 4.73746C0.89434 4.78102 0.90566 4.81369 0.928302 4.83547H0.962264H1.08113H1.13208L1.25094 4.9825V5.06418V5.08051L1.31887 5.12952L1.42075 5.08051L1.38679 5.24387V5.30922C1.38679 5.331 1.38679 5.35823 1.38679 5.3909C1.38679 5.41268 1.39811 5.43446 1.42075 5.45624C1.43208 5.46713 1.44906 5.48891 1.4717 5.52159C1.49434 5.55426 1.50566 5.57604 1.50566 5.58693V5.63594H1.5566C1.60189 5.70128 1.62453 5.75029 1.62453 5.78296L1.67547 5.83197L1.70943 5.84831H1.7434V5.88098H1.79434L1.84528 5.94632V5.99533V6.028C1.86792 6.06068 1.87925 6.08246 1.87925 6.09335L1.89623 6.14236L1.96415 6.19137L2.01509 6.2077L2.03208 6.24037C2.03208 6.26215 2.03774 6.27849 2.04906 6.28938C2.06038 6.28938 2.06604 6.30572 2.06604 6.33839C2.07736 6.34928 2.08868 6.35473 2.1 6.35473C2.12264 6.37651 2.13396 6.3874 2.13396 6.3874C2.16792 6.3874 2.18491 6.39829 2.18491 6.42007C2.23019 6.42007 2.25283 6.45819 2.25283 6.53442C2.25283 6.54531 2.24717 6.56165 2.23585 6.58343C2.23585 6.60521 2.22453 6.62699 2.20189 6.64877C2.28113 6.67056 2.32075 6.72501 2.32075 6.81214H2.3717C2.41698 6.81214 2.44528 6.82847 2.4566 6.86114C2.47925 6.89382 2.50189 6.92104 2.52453 6.94282C2.58113 6.99728 2.60943 7.03539 2.60943 7.05718V7.04084H2.7283C2.7283 7.04084 2.73962 7.05173 2.76226 7.07351C2.77358 7.0844 2.77925 7.09529 2.77925 7.10618V7.2042V7.30222C2.77925 7.31311 2.79623 7.32944 2.83019 7.35123L2.88113 7.41657L2.94906 7.43291V7.46558V7.49825C2.94906 7.50914 2.95472 7.52003 2.96604 7.53092C2.98868 7.5527 3 7.56904 3 7.57993V7.6126V7.67795C3.02264 7.67795 3.03396 7.68884 3.03396 7.71062C3.04528 7.72151 3.06226 7.72695 3.08491 7.72695V7.75963C3.08491 7.78141 3.09057 7.7923 3.10189 7.7923H3.11887C3.14151 7.81408 3.16981 7.83586 3.20377 7.85764H3.23774L3.30566 7.90665C3.30566 7.91754 3.3283 7.92299 3.37358 7.92299C3.37358 7.94477 3.37925 7.96655 3.39057 7.98833C3.40189 7.99922 3.40755 8.01011 3.40755 8.021H3.44151C3.50943 8.04278 3.56038 8.07001 3.59434 8.10268C3.6283 8.13536 3.6283 8.18981 3.59434 8.26604L3.66226 8.28238H3.67924C3.70189 8.28238 3.71321 8.29327 3.71321 8.31505C3.71321 8.34772 3.71321 8.36951 3.71321 8.3804C3.72453 8.3804 3.73019 8.39129 3.73019 8.41307V8.46208V8.52742C3.74151 8.52742 3.75283 8.53287 3.76415 8.54376C3.83208 8.56554 3.88302 8.59821 3.91698 8.64177C3.96226 8.67445 3.96792 8.71801 3.93396 8.77246V8.7888H4.00189H4.10377V8.83781H4.12075C4.12075 8.83781 4.12641 8.8487 4.13774 8.87048V8.90315C4.14906 8.91404 4.16038 8.92493 4.1717 8.93582C4.18302 8.93582 4.19434 8.94127 4.20566 8.95216L4.22264 8.9685V9.05018H4.29057L4.30755 8.9685L4.56226 9.11552L4.61321 9.08285L4.69811 8.87048H4.71509H4.81698L4.86792 8.82147C4.87924 8.81058 4.88491 8.79969 4.88491 8.7888H4.98679L5.00377 8.77246C4.99245 8.76157 4.99245 8.75068 5.00377 8.73979C5.00377 8.7289 5.02641 8.71256 5.0717 8.69078V8.62544C5.09434 8.60366 5.10566 8.58732 5.10566 8.57643C5.10566 8.55465 5.11132 8.53831 5.12264 8.52742C5.12264 8.49475 5.13396 8.47841 5.1566 8.47841C5.17925 8.46752 5.20755 8.45119 5.24151 8.42941V8.3804V8.31505C5.24151 8.29327 5.24151 8.2606 5.24151 8.21704C5.25283 8.17347 5.26981 8.1408 5.29245 8.11902C5.32641 8.08635 5.3434 8.06457 5.3434 8.05368V8.021V7.92299H5.39434L5.3434 7.972L5.39434 7.72695V7.67795V7.64527C5.39434 7.6126 5.39434 7.57993 5.39434 7.54726C5.39434 7.5037 5.40566 7.46013 5.4283 7.41657C5.4283 7.3839 5.4283 7.35667 5.4283 7.33489C5.43962 7.31311 5.46792 7.28588 5.51321 7.25321C5.51321 7.20965 5.55283 7.16064 5.63208 7.10618V7.05718H5.7V7.0245C5.7 7.01361 5.70566 7.00817 5.71698 7.00817C5.73962 6.9755 5.7566 6.94827 5.76792 6.92649C5.79057 6.90471 5.80189 6.88293 5.80189 6.86114C5.76792 6.81758 5.79057 6.76313 5.86981 6.69778C5.88113 6.676 5.89245 6.65422 5.90377 6.63244C5.92641 6.61066 5.94906 6.57799 5.9717 6.53442L6.00566 6.50175L6.0566 6.42007L6.10755 6.46908V6.42007C6.14151 6.39829 6.17547 6.38195 6.20943 6.37106C6.2434 6.36017 6.26604 6.34928 6.27736 6.33839H6.34528C6.34528 6.29483 6.3566 6.27305 6.37924 6.27305C6.40189 6.25126 6.43019 6.23493 6.46415 6.22404C6.50943 6.21315 6.54906 6.20226 6.58302 6.19137H6.68491C6.68491 6.10424 6.74151 6.02256 6.85472 5.94632L6.80377 5.92999L6.90566 5.88098V5.84831C6.90566 5.81564 6.91698 5.79385 6.93962 5.78296C6.96226 5.77207 6.97924 5.75574 6.99057 5.73396C6.99057 5.71217 7.02453 5.70128 7.09245 5.70128V5.63594V5.68495V5.63594C7.05849 5.60327 7.04151 5.5706 7.04151 5.53792C7.00755 5.49436 6.99057 5.45624 6.99057 5.42357V5.3909L6.97358 4.8028L7.21132 5.34189V5.3909C7.24528 5.3909 7.26226 5.41268 7.26226 5.45624C7.27358 5.45624 7.29623 5.46169 7.33019 5.47258C7.35283 5.43991 7.40943 5.42357 7.5 5.42357C7.5 5.36912 7.51698 5.331 7.55094 5.30922C7.58491 5.28744 7.62453 5.26566 7.66981 5.24387V5.2112C7.66981 5.18942 7.66981 5.16764 7.66981 5.14586C7.68113 5.12408 7.70943 5.10229 7.75472 5.08051C7.77736 5.06962 7.80566 5.05329 7.83962 5.03151L7.87358 4.9825C7.89623 4.97161 7.90755 4.96072 7.90755 4.94982C7.91887 4.92804 7.93585 4.90626 7.95849 4.88448V4.83547V4.8028L7.87358 4.65578H8.0434V4.5741C8.00943 4.51964 7.99811 4.48697 8.00943 4.47608C8.03208 4.46519 8.05472 4.44885 8.07736 4.42707V4.34539C8.11132 4.19292 8.16792 4.08401 8.24717 4.01867C8.24717 3.99689 8.24717 3.986 8.24717 3.986C8.25849 3.97511 8.26415 3.96422 8.26415 3.95333L8.31509 3.92065V3.87165C8.31509 3.83897 8.32641 3.81719 8.34906 3.8063C8.3717 3.78452 8.38868 3.77363 8.4 3.77363C8.4 3.76274 8.41132 3.73551 8.43396 3.69195C8.51321 3.67017 8.56981 3.62116 8.60377 3.54492C8.60377 3.52314 8.61509 3.51225 8.63774 3.51225C8.66038 3.51225 8.6717 3.50681 8.6717 3.49592H8.68868C8.68868 3.44146 8.69434 3.40334 8.70566 3.38156C8.71698 3.35978 8.71132 3.33256 8.68868 3.29988V3.15286L8.85849 3.20187H8.87547V3.18553C8.87547 3.18553 8.88113 3.17464 8.89245 3.15286V3.13652V3.03851C8.92642 3.01673 8.9434 3.00039 8.9434 2.9895H8.97736V2.95683V2.89148L9.0283 2.84247H9.06226H9.09623C9.09623 2.78802 9.11321 2.75535 9.14717 2.74446C9.18113 2.73357 9.20943 2.71723 9.23208 2.69545C9.20943 2.67367 9.19811 2.63555 9.19811 2.5811V2.54842V2.48308H9.24906C9.24906 2.42863 9.26038 2.37962 9.28302 2.33606C9.31698 2.29249 9.35094 2.25438 9.38491 2.2217C9.41887 2.19992 9.45283 2.17814 9.48679 2.15636C9.52075 2.12369 9.56038 2.09646 9.60566 2.07468H9.6566C9.6566 2.0529 9.6566 2.04201 9.6566 2.04201C9.66792 2.04201 9.67359 2.03656 9.67359 2.02567H9.72453C9.72453 2.00389 9.73019 1.98211 9.74151 1.96033C9.76415 1.92765 9.78113 1.90043 9.79245 1.87865L9.8434 1.8133L9.94528 1.87865H9.96226V1.8133V1.78063C9.96226 1.76974 9.97358 1.74251 9.99623 1.69895C10.0302 1.6445 10.0755 1.60638 10.1321 1.5846H10.183C10.2396 1.53014 10.2962 1.50292 10.3528 1.50292C10.3528 1.45935 10.3925 1.43757 10.4717 1.43757C10.5283 1.41579 10.5679 1.41579 10.5906 1.43757C10.6132 1.4049 10.6415 1.38856 10.6755 1.38856C10.7094 1.37767 10.7377 1.37223 10.7604 1.37223C10.7717 1.35045 10.7887 1.33411 10.8113 1.32322C10.8453 1.31233 10.8736 1.29599 10.8962 1.27421L10.7774 1.1762L11.0151 1.2252L11.0491 0.996499L11.117 1.04551H11.1849C11.1849 0.980163 11.2415 0.9366 11.3547 0.914819C11.3547 0.816803 11.3717 0.767794 11.4057 0.767794C11.4057 0.735122 11.417 0.718786 11.4396 0.718786C11.4623 0.707895 11.4736 0.69156 11.4736 0.669778L11.5245 0.653443C11.5472 0.522754 11.5868 0.408401 11.6434 0.310385C11.6547 0.299494 11.6604 0.288604 11.6604 0.277713C11.6717 0.255931 11.6887 0.23415 11.7113 0.212369V0.196032C11.7113 0.174251 11.7226 0.16336 11.7453 0.16336V0.147025V0.114352C11.7792 0.114352 11.7962 0.0925704 11.7962 0.0490075V0L11.9321 0.0326717C11.9774 0.0326717 12 0.0598984 12 0.114352V0.212369ZM9.0283 3.69195V3.6266C9.05094 3.6266 9.06226 3.59938 9.06226 3.54492V3.3979C9.06226 3.40879 9.0566 3.41968 9.04528 3.43057V3.44691H9.0283V3.49592H8.99434C8.98302 3.49592 8.97736 3.50136 8.97736 3.51225V3.54492C8.9434 3.59938 8.91509 3.6266 8.89245 3.6266C8.89245 3.70284 8.84151 3.75185 8.73962 3.77363C8.71698 3.77363 8.69434 3.79541 8.6717 3.83897H8.60377V3.87165C8.63774 3.84986 8.66038 3.83353 8.6717 3.82264C8.69434 3.81175 8.71698 3.8063 8.73962 3.8063C8.78491 3.78452 8.82453 3.76818 8.85849 3.75729C8.89245 3.7464 8.92075 3.72462 8.9434 3.69195H9.0283Z" fill="black"/>
</svg>
