<svg width="8" height="14" viewBox="0 0 8 14" fill="none" xmlns="http://www.w3.org/2000/svg">
<path d="M6.19469 7.94005H6.17699V7.97362L6.10619 8.04077L6.0885 8.05755V8.07434C6.0531 8.10791 6.0295 8.1247 6.0177 8.1247V8.14149H5.9823H5.9646L5.9823 8.1247L5.9646 8.07434V8.1247C5.9174 8.13589 5.88791 8.15268 5.87611 8.17506C5.87611 8.18625 5.85841 8.20304 5.82301 8.22542V8.25899V8.27578H5.80531C5.81711 8.29816 5.81711 8.31495 5.80531 8.32614C5.80531 8.33733 5.80531 8.35412 5.80531 8.3765H5.76991V8.41007H5.73451C5.75811 8.41007 5.76991 8.41567 5.76991 8.42686H5.73451H5.71681C5.71681 8.46043 5.69911 8.47722 5.66372 8.47722L5.61062 8.52758C5.59882 8.52758 5.59292 8.51079 5.59292 8.47722H5.53982V8.46043C5.52802 8.46043 5.52212 8.44924 5.52212 8.42686V8.47722C5.51032 8.51079 5.50442 8.53317 5.50442 8.54436L5.52212 8.56115L5.50442 8.54436C5.45723 8.53317 5.42183 8.53317 5.39823 8.54436C5.38643 8.55556 5.36873 8.57234 5.34513 8.59472C5.33333 8.60592 5.32153 8.61151 5.30973 8.61151V8.6283V8.66187L5.32743 8.67866V8.69544H5.30973L5.32743 8.72902V8.7458H5.30973V8.76259C5.30973 8.78497 5.30383 8.80176 5.29203 8.81295C5.29203 8.81295 5.29203 8.81854 5.29203 8.82974V8.8801C5.29203 8.89129 5.26844 8.89688 5.22124 8.89688C5.22124 8.93046 5.22714 8.94724 5.23894 8.94724H5.29203V8.96403C5.29203 8.97522 5.27434 8.98082 5.23894 8.98082V9.01439L5.29203 9.03118L5.25664 9.06475C5.24484 9.07594 5.23894 9.08713 5.23894 9.09832L5.22124 9.11511V9.09832L5.18584 9.08154H5.16814V9.09832C5.19174 9.13189 5.19174 9.15987 5.16814 9.18225C5.16814 9.20464 5.16224 9.22142 5.15044 9.23261C5.13864 9.23261 5.14454 9.23261 5.16814 9.23261V9.28297V9.31655C5.16814 9.35012 5.16814 9.3781 5.16814 9.40048C5.17994 9.41167 5.17994 9.42846 5.16814 9.45084V9.48441H5.18584C5.18584 9.4956 5.19174 9.5012 5.20354 9.5012H5.22124V9.51799H5.23894L5.29203 9.56835V9.58513V9.61871C5.29203 9.6299 5.27434 9.63549 5.23894 9.63549C5.27434 9.64668 5.29203 9.66907 5.29203 9.70264C5.29203 9.72502 5.29793 9.7474 5.30973 9.76978C5.32153 9.76978 5.32743 9.77538 5.32743 9.78657H5.30973C5.30973 9.82014 5.30383 9.83693 5.29203 9.83693V9.85372C5.29203 9.86491 5.27434 9.88729 5.23894 9.92086H5.29203H5.23894V9.93765H5.22124V9.97122V9.98801V10.0552L5.18584 10.0719V10.1223V10.1391C5.17404 10.1391 5.16814 10.1615 5.16814 10.2062C5.16814 10.2062 5.16814 10.2118 5.16814 10.223C5.16814 10.2566 5.17404 10.2902 5.18584 10.3237V10.3405H5.16814H5.13274H5.16814H5.09735V10.3741V10.4077H5.07965C5.05605 10.4077 5.03835 10.4133 5.02655 10.4245C5.02655 10.4245 5.02065 10.4245 5.00885 10.4245H4.97345V10.458V10.4748C4.97345 10.486 4.96165 10.4916 4.93805 10.4916V10.542C4.96165 10.542 4.96755 10.5476 4.95575 10.5588C4.94395 10.5699 4.93805 10.5923 4.93805 10.6259L4.92035 10.6595V10.7266H4.88496H4.92035C4.94395 10.749 4.94395 10.777 4.92035 10.8106V10.8273H4.93805H4.92035V10.8777H4.88496V10.8945V10.9448H4.86726V10.9784C4.86726 11.0008 4.85546 11.012 4.83186 11.012H4.81416H4.79646V10.9784H4.76106L4.67257 11.012H4.63717H4.60177V10.9784C4.60177 11.012 4.59587 11.0288 4.58407 11.0288V11.0791L4.63717 11.0288L4.60177 11.0791V11.0959H4.58407H4.56637V11.0791H4.51327V11.0959V11.1127H4.49558C4.49558 11.1463 4.48378 11.1631 4.46018 11.1631H4.42478L4.46018 11.1799C4.48378 11.1799 4.49558 11.191 4.49558 11.2134L4.46018 11.2302H4.42478H4.40708C4.39528 11.2302 4.38938 11.2246 4.38938 11.2134C4.37758 11.2246 4.37168 11.2246 4.37168 11.2134H4.33628C4.35988 11.2246 4.36578 11.2414 4.35398 11.2638C4.34218 11.275 4.32448 11.2806 4.30088 11.2806V11.2974C4.32448 11.3197 4.33628 11.3309 4.33628 11.3309V11.3645V11.3813C4.38348 11.4261 4.38348 11.4484 4.33628 11.4484H4.30088L4.28319 11.4149H4.23009V11.3813H4.21239V11.4484C4.20059 11.4484 4.19469 11.454 4.19469 11.4652V11.4988V11.5156V11.5324C4.20649 11.5548 4.20649 11.5659 4.19469 11.5659H4.15929V11.5324H4.12389V11.4988C4.0767 11.5436 4.059 11.5659 4.0708 11.5659L4.0177 11.5827V11.6331H4H3.9823V11.5827H3.9292H3.9115V11.5659C3.89971 11.5771 3.88201 11.5827 3.85841 11.5827H3.84071H3.80531L3.78761 11.6331V11.6499V11.6667H3.76991V11.7002V11.7338V11.7674H3.78761V11.7842V11.8345H3.76991H3.71681H3.69911H3.66372H3.61062H3.57522V11.8681H3.53982H3.50442V11.9353V11.9185L3.53982 11.9688V11.9856H3.57522C3.57522 12.008 3.56342 12.0192 3.53982 12.0192V12.0528H3.50442V12.0695H3.53982V12.1199H3.50442H3.48673V12.1367V12.1199L3.43363 12.1367H3.41593V12.1199V12.0695H3.39823C3.39823 12.1031 3.38643 12.1199 3.36283 12.1199H3.32743H3.36283V12.1367C3.38643 12.1367 3.39823 12.1423 3.39823 12.1535C3.39823 12.1647 3.40413 12.1703 3.41593 12.1703H3.48673L3.41593 12.2038C3.40413 12.2038 3.38643 12.2206 3.36283 12.2542L3.32743 12.2206V12.2542H3.29204C3.28024 12.2542 3.27434 12.2486 3.27434 12.2374V12.2206V12.2038C3.22714 12.2038 3.17994 12.2206 3.13274 12.2542H3.07965H3.06195H3.02655H3.06195L3.07965 12.271H3.11504L3.07965 12.3213V12.3381H3.06195H3.02655V12.3549V12.3381H2.99115C2.99115 12.3493 2.98525 12.3549 2.97345 12.3549H2.92035V12.4053C2.95575 12.4053 2.97345 12.4109 2.97345 12.4221H2.92035H2.86726C2.84366 12.4444 2.82596 12.4556 2.81416 12.4556V12.4892C2.79056 12.4892 2.77876 12.5004 2.77876 12.5228H2.70796H2.69027C2.67847 12.534 2.66077 12.5396 2.63717 12.5396C2.62537 12.5396 2.61947 12.5452 2.61947 12.5564H2.60177V12.6067H2.56637C2.56637 12.6179 2.56047 12.6235 2.54867 12.6235C2.53687 12.6347 2.53097 12.6515 2.53097 12.6739H2.49558C2.49558 12.6739 2.48968 12.6627 2.47788 12.6403V12.6235V12.6067V12.5899C2.47788 12.5787 2.47198 12.5675 2.46018 12.5564V12.6739C2.46018 12.7074 2.46608 12.7242 2.47788 12.7242V12.741H2.46018C2.43658 12.7298 2.41298 12.7186 2.38938 12.7074C2.36578 12.7074 2.36578 12.6962 2.38938 12.6739C2.38938 12.6291 2.37168 12.6067 2.33628 12.6067V12.5396L2.31858 12.5228V12.4892H2.28319V12.4556V12.4892H2.26549V12.4556C2.24189 12.4556 2.23009 12.4444 2.23009 12.4221C2.23009 12.4109 2.22419 12.3941 2.21239 12.3717C2.20059 12.3493 2.18879 12.3381 2.17699 12.3381C2.17699 12.3381 2.16519 12.3325 2.14159 12.3213H2.12389C2.0649 12.3213 2.0354 12.3046 2.0354 12.271L2.0177 12.2542H1.9823C1.9823 12.2654 1.9764 12.271 1.9646 12.271V12.2542C1.941 12.2654 1.9174 12.271 1.89381 12.271H1.87611H1.76991C1.74631 12.3046 1.71681 12.3213 1.68142 12.3213V12.3381V12.3549C1.70501 12.3549 1.71681 12.3661 1.71681 12.3885V12.4053V12.4221H1.68142V12.4556V12.4892H1.66372V12.4556H1.61062L1.59292 12.4892V12.5228V12.5396H1.61062V12.5564V12.6067H1.59292H1.53982V12.6739H1.50442C1.43363 12.6739 1.39823 12.6795 1.39823 12.6906L1.38053 12.7242V12.6906C1.34513 12.6795 1.32153 12.6739 1.30973 12.6739H1.29204C1.30383 12.6739 1.30973 12.6795 1.30973 12.6906V12.7242C1.29794 12.7242 1.27434 12.7298 1.23894 12.741C1.23894 12.7634 1.23304 12.7746 1.22124 12.7746C1.22124 12.7746 1.22124 12.7858 1.22124 12.8082V12.8249H1.18584L1.16814 12.8753H1.13274C1.09735 12.8753 1.07965 12.8809 1.07965 12.8921V12.9089V12.9424C1.07965 12.9536 1.06195 12.9592 1.02655 12.9592C1.01475 12.9592 1.00885 12.9424 1.00885 12.9089C1.00885 12.9313 1.00295 12.9424 0.99115 12.9424C0.979351 12.9536 0.973451 12.9648 0.973451 12.976C0.985251 12.976 0.99705 12.9816 1.00885 12.9928V13.0096H0.973451V13.0264H0.938053L0.973451 13.0767L0.938053 13.0264C0.938053 13.06 0.932153 13.0823 0.920354 13.0935H0.884956H0.867257V13.1103H0.814159C0.849557 13.1551 0.867257 13.1886 0.867257 13.211L0.79646 13.295L0.814159 13.211L0.79646 13.1775C0.79646 13.1886 0.79056 13.1998 0.778761 13.211H0.761062C0.749263 13.211 0.737463 13.2166 0.725664 13.2278V13.2446H0.707965H0.672566C0.637168 13.3006 0.60767 13.3173 0.584071 13.295C0.536873 13.295 0.513274 13.3006 0.513274 13.3118H0.460177H0.424779V13.3621L0.460177 13.3789H0.424779C0.40118 13.3789 0.389381 13.3901 0.389381 13.4125V13.4293L0.371681 13.446V13.4628H0.336283C0.336283 13.474 0.336283 13.4796 0.336283 13.4796C0.324484 13.4908 0.318584 13.502 0.318584 13.5132V13.53C0.306785 13.5412 0.300885 13.5412 0.300885 13.53C0.289086 13.53 0.283186 13.5244 0.283186 13.5132V13.4964L0.230088 13.53C0.265487 13.53 0.283186 13.5412 0.283186 13.5635V13.5803V13.6307H0.230088V13.6475C0.218289 13.6475 0.212389 13.6419 0.212389 13.6307C0.188791 13.6755 0.188791 13.709 0.212389 13.7314V13.765H0.159292C0.19469 13.8657 0.182891 13.944 0.123894 14C0.100295 13.9776 0.0884956 13.9496 0.0884956 13.9161V13.8153H0.0707965C0.0707965 13.793 0.0648968 13.7706 0.0530973 13.7482C0.0294985 13.7258 0.0176991 13.6978 0.0176991 13.6643L0 13.6475H0.0176991V13.6307V13.6139C0.0176991 13.5915 0.0353982 13.5803 0.0707965 13.5803H0.0884956H0.0707965V13.53C0.0353982 13.53 0.0176991 13.5188 0.0176991 13.4964V13.4628C0.00589969 13.4628 0.00589969 13.4572 0.0176991 13.446V13.3789H0.0707965C0.0825959 13.4125 0.100295 13.4293 0.123894 13.4293V13.446V13.4628V13.4964C0.147493 13.4964 0.159292 13.4908 0.159292 13.4796V13.4628V13.446L0.19469 13.4293C0.19469 13.3845 0.20059 13.3453 0.212389 13.3118C0.224189 13.3006 0.230088 13.2782 0.230088 13.2446V13.1775V13.1607H0.283186C0.283186 13.1719 0.289086 13.1775 0.300885 13.1775V13.211C0.300885 13.2334 0.312684 13.2446 0.336283 13.2446V13.2278C0.336283 13.2278 0.348083 13.2222 0.371681 13.211H0.389381H0.424779H0.460177C0.436578 13.1886 0.424779 13.1551 0.424779 13.1103C0.448378 13.1103 0.460177 13.1047 0.460177 13.0935C0.460177 13.0823 0.466077 13.0767 0.477876 13.0767C0.489675 13.0767 0.495575 13.0823 0.495575 13.0935C0.495575 13.0935 0.501475 13.0879 0.513274 13.0767H0.566372C0.566372 13.0432 0.572271 13.0208 0.584071 13.0096V12.976H0.60177C0.625369 12.9984 0.637168 13.032 0.637168 13.0767H0.672566C0.672566 13.0544 0.678466 13.0376 0.690265 13.0264C0.690265 13.0152 0.696165 13.0096 0.707965 13.0096C0.719764 12.9872 0.737463 12.9704 0.761062 12.9592C0.761062 12.9257 0.772861 12.9089 0.79646 12.9089H0.814159V12.8921V12.8753L0.867257 12.8249H0.884956V12.8082C0.943953 12.8082 0.973451 12.7858 0.973451 12.741C0.973451 12.7298 0.99115 12.7074 1.02655 12.6739V12.6067H1.07965C1.07965 12.6067 1.08555 12.6011 1.09735 12.5899V12.5564H1.13274H1.16814V12.5396L1.18584 12.5228C1.20944 12.5004 1.22714 12.4892 1.23894 12.4892C1.27434 12.4892 1.29204 12.478 1.29204 12.4556H1.30973V12.4388L1.32743 12.4556C1.32743 12.4333 1.33333 12.4221 1.34513 12.4221C1.36873 12.4221 1.38643 12.4165 1.39823 12.4053C1.39823 12.4053 1.39823 12.3885 1.39823 12.3549V12.3381H1.43363V12.3213H1.45133V12.3046C1.45133 12.3046 1.45723 12.2934 1.46903 12.271C1.46903 12.271 1.47493 12.2598 1.48673 12.2374C1.48673 12.2262 1.49263 12.2206 1.50442 12.2206V12.2038H1.52212V12.1703H1.53982C1.57522 12.1703 1.59292 12.1647 1.59292 12.1535V12.1367C1.59292 12.0807 1.59882 12.0416 1.61062 12.0192L1.66372 11.9856V12.0192H1.68142L1.69911 12.036C1.69911 12.0472 1.70501 12.0584 1.71681 12.0695V12.0528C1.72861 12.0304 1.74631 12.0192 1.76991 12.0192C1.79351 12.0192 1.80531 12.0024 1.80531 11.9688V11.9353H1.82301C1.85841 11.9353 1.87611 11.9297 1.87611 11.9185H1.89381C1.89381 11.9297 1.8997 11.9353 1.9115 11.9353H1.9646C1.9646 11.9576 1.9646 11.9744 1.9646 11.9856C1.9764 11.9856 1.9823 11.9968 1.9823 12.0192H2.0177C2.0177 12.0416 2.0236 12.0528 2.0354 12.0528C2.0826 12.0639 2.10619 12.0863 2.10619 12.1199C2.11799 12.1199 2.12389 12.1255 2.12389 12.1367C2.13569 12.1367 2.15339 12.1367 2.17699 12.1367C2.18879 12.1255 2.19469 12.1255 2.19469 12.1367C2.21829 12.1367 2.23009 12.1423 2.23009 12.1535C2.23009 12.1647 2.24189 12.1703 2.26549 12.1703C2.27729 12.1926 2.28909 12.2094 2.30088 12.2206C2.32448 12.2206 2.33628 12.2318 2.33628 12.2542L2.38938 12.271L2.40708 12.2542H2.47788C2.48968 12.2542 2.49558 12.2598 2.49558 12.271C2.49558 12.271 2.50737 12.271 2.53097 12.271L2.56637 12.2542H2.60177H2.61947H2.67257V12.2206H2.69027C2.69027 12.2206 2.69617 12.2318 2.70796 12.2542C2.70796 12.2542 2.71976 12.2598 2.74336 12.271H2.76106H2.77876V12.3213H2.81416C2.81416 12.2766 2.81416 12.2542 2.81416 12.2542H2.77876C2.77876 12.243 2.77286 12.2318 2.76106 12.2206H2.70796C2.69617 12.2206 2.69027 12.2094 2.69027 12.1871V12.1703C2.69027 12.1479 2.71386 12.1367 2.76106 12.1367H2.77876V12.1199C2.77876 12.1199 2.77876 12.1143 2.77876 12.1031V12.0695H2.76106V12.0528L2.70796 11.9856L2.76106 12.0192H2.77876H2.81416L2.83186 12.0528C2.85546 12.0304 2.86726 12.008 2.86726 11.9856H2.83186V11.9688C2.83186 11.9464 2.83776 11.9353 2.84956 11.9353H2.86726C2.87906 11.9353 2.89086 11.9408 2.90265 11.952V11.9688V11.9856H2.92035H2.97345H2.92035V11.9688L2.97345 11.9353C2.98525 11.9353 2.99115 11.9297 2.99115 11.9185H3.00885V11.9017C3.00885 11.9017 3.00295 11.8905 2.99115 11.8681L3.02655 11.8513H3.06195H3.07965C3.07965 11.8401 3.09145 11.8345 3.11504 11.8345V11.7842H3.18584V11.7674V11.7338H3.20354H3.22124C3.22124 11.7338 3.22714 11.7226 3.23894 11.7002H3.20354L3.23894 11.6667V11.6499H3.27434V11.7002H3.29204C3.29204 11.7002 3.29204 11.6946 3.29204 11.6835V11.6667V11.6331C3.28024 11.6331 3.27434 11.6163 3.27434 11.5827C3.27434 11.5827 3.28024 11.5771 3.29204 11.5659V11.5324V11.5156C3.29204 11.482 3.29204 11.4652 3.29204 11.4652H3.32743H3.29204V11.4484L3.27434 11.4149V11.3813H3.29204V11.3645L3.32743 11.3141V11.2806V11.2302L3.29204 11.2134H3.36283C3.38643 11.191 3.40413 11.1799 3.41593 11.1799H3.39823H3.41593L3.43363 11.1631C3.48083 11.1183 3.50442 11.0903 3.50442 11.0791V11.0288H3.53982C3.53982 11.0288 3.54572 11.0232 3.55752 11.012H3.57522H3.59292L3.61062 11.0288C3.64602 11.0288 3.67552 11.0512 3.69911 11.0959V11.0791C3.69911 11.0791 3.70501 11.0847 3.71681 11.0959H3.73451C3.74631 11.0959 3.75811 11.1015 3.76991 11.1127H3.78761L3.84071 11.1631H3.87611H3.9115L3.9292 11.1463C3.9528 11.1239 3.9705 11.1127 3.9823 11.1127V11.1631H4.0177H4.0354C4.059 11.1631 4.0708 11.1463 4.0708 11.1127L4.0885 11.0959C4.11209 11.0847 4.12389 11.0624 4.12389 11.0288V11.012C4.14749 11.012 4.15929 11.0064 4.15929 10.9952C4.15929 10.984 4.14749 10.9784 4.12389 10.9784V10.9448V10.9113C4.17109 10.9113 4.20059 10.9225 4.21239 10.9448L4.23009 10.9113C4.23009 10.9113 4.22419 10.9057 4.21239 10.8945H4.19469H4.15929L4.19469 10.8777C4.20649 10.8553 4.21829 10.8497 4.23009 10.8609C4.24189 10.8721 4.25959 10.8777 4.28319 10.8777V10.8273L4.30088 10.8106C4.30088 10.8217 4.31268 10.8273 4.33628 10.8273C4.33628 10.7938 4.36578 10.777 4.42478 10.777V10.7434H4.46018H4.49558C4.49558 10.7434 4.50147 10.7322 4.51327 10.7098V10.693V10.6259H4.49558H4.51327H4.56637V10.6091C4.56637 10.5196 4.58997 10.458 4.63717 10.4245V10.4077V10.3405V10.3237C4.63717 10.3014 4.63127 10.279 4.61947 10.2566C4.60767 10.2342 4.60177 10.2174 4.60177 10.2062V10.1727C4.58997 10.1615 4.58407 10.1503 4.58407 10.1391V10.1223C4.57227 10.0775 4.54867 10.044 4.51327 10.0216C4.51327 9.98801 4.53687 9.96003 4.58407 9.93765H4.60177V9.92086C4.58997 9.88729 4.58407 9.86491 4.58407 9.85372H4.60177H4.63717V9.78657V9.76978V9.73621H4.60177V9.70264L4.58407 9.66906V9.65228L4.56637 9.63549V9.58513L4.51327 9.56835H4.56637H4.58407C4.58407 9.56835 4.58997 9.57394 4.60177 9.58513C4.60177 9.58513 4.60767 9.57954 4.61947 9.56835H4.63717C4.63717 9.53477 4.64897 9.51799 4.67257 9.51799H4.63717V9.5012C4.63717 9.5012 4.64897 9.4956 4.67257 9.48441L4.70796 9.5012V9.51799H4.72566H4.76106V9.5012L4.70796 9.48441L4.76106 9.5012V9.48441V9.5012V9.48441V9.45084H4.72566V9.41727L4.76106 9.45084V9.41727V9.40048C4.76106 9.40048 4.77286 9.39488 4.79646 9.38369V9.36691L4.81416 9.38369V9.41727C4.82596 9.41727 4.83186 9.42286 4.83186 9.43405C4.83186 9.45643 4.82596 9.47322 4.81416 9.48441H4.86726V9.5012L4.88496 9.48441V9.45084H4.92035V9.41727H4.88496C4.87316 9.39488 4.85546 9.38369 4.83186 9.38369C4.82006 9.38369 4.80826 9.3781 4.79646 9.36691H4.77876C4.76696 9.36691 4.76106 9.35012 4.76106 9.31655V9.29976V9.28297C4.77286 9.28297 4.78466 9.28857 4.79646 9.29976H4.81416V9.28297C4.81416 9.26059 4.82006 9.2494 4.83186 9.2494C4.85546 9.23821 4.86726 9.22702 4.86726 9.21583V9.16547V9.11511H4.81416V9.08154C4.80236 9.08154 4.79646 9.06475 4.79646 9.03118H4.81416C4.81416 9.01998 4.80826 9.0032 4.79646 8.98082V9.03118C4.77286 9.03118 4.76106 9.02558 4.76106 9.01439H4.72566V8.9976C4.72566 8.96403 4.72566 8.94724 4.72566 8.94724V8.93046L4.76106 8.89688C4.79646 8.89688 4.81416 8.89129 4.81416 8.8801C4.80236 8.84652 4.80826 8.81855 4.83186 8.79616C4.85546 8.77378 4.87316 8.76259 4.88496 8.76259C4.90855 8.7514 4.92035 8.74021 4.92035 8.72902C4.92035 8.70663 4.93805 8.69544 4.97345 8.69544C4.99705 8.69544 5.00885 8.68425 5.00885 8.66187H4.97345H4.93805V8.6283C4.96165 8.61711 4.96755 8.61151 4.95575 8.61151C4.94395 8.60032 4.93805 8.58353 4.93805 8.56115V8.52758H4.97345L5.00885 8.47722V8.46043V8.44364C5.00885 8.44364 5.01475 8.43805 5.02655 8.42686H5.04425C5.06785 8.42686 5.07965 8.43805 5.07965 8.46043V8.41007V8.3765C5.07965 8.35412 5.06195 8.33733 5.02655 8.32614V8.27578V8.25899H5.07965V8.22542H5.09735V8.19185C5.06195 8.18066 5.03245 8.17506 5.00885 8.17506C4.98525 8.16387 4.96165 8.1303 4.93805 8.07434H4.92035C4.89675 8.06315 4.87906 8.05196 4.86726 8.04077V7.99041H4.88496C4.90855 7.99041 4.92035 7.97362 4.92035 7.94005C4.92035 7.91767 4.92625 7.90648 4.93805 7.90648V7.8729H4.92035V7.85612V7.83933V7.82254C4.92035 7.80016 4.92625 7.78897 4.93805 7.78897V7.77218V7.73861H4.92035V7.70504H4.88496V7.67146C4.87316 7.66027 4.86726 7.63229 4.86726 7.58753C4.83186 7.58753 4.81416 7.56515 4.81416 7.52038V7.5036H4.83186C4.85546 7.5036 4.86726 7.498 4.86726 7.48681V7.43645H4.88496V7.41966V7.38609C4.88496 7.38609 4.89086 7.3805 4.90265 7.3693H4.92035V7.31895V7.30216H4.88496V7.28537L4.86726 7.23501C4.86726 7.22382 4.87316 7.21823 4.88496 7.21823V7.18465H4.86726V7.15108V7.11751H4.88496V7.10072V7.01679H4.92035H4.88496V6.98321C4.83776 6.98321 4.81416 6.96643 4.81416 6.93285C4.81416 6.92166 4.80826 6.91047 4.79646 6.89928H4.76106H4.72566C4.71386 6.89928 4.70796 6.89369 4.70796 6.88249V6.86571C4.69616 6.86571 4.69027 6.86011 4.69027 6.84892C4.67847 6.83773 4.67257 6.82654 4.67257 6.81535V6.76499V6.7482H4.70796V6.73142V6.71463C4.70796 6.71463 4.71386 6.70903 4.72566 6.69784C4.72566 6.67546 4.74926 6.66427 4.79646 6.66427H4.88496H4.90265C4.90265 6.66427 4.90855 6.65308 4.92035 6.6307H4.93805V6.61391C4.92625 6.59153 4.90265 6.56355 4.86726 6.52998C4.83186 6.4964 4.79646 6.47962 4.76106 6.47962H4.74336C4.73156 6.47962 4.72566 6.47402 4.72566 6.46283H4.70796V6.42926C4.71976 6.42926 4.71976 6.42366 4.70796 6.41247H4.67257C4.64897 6.41247 4.63717 6.40128 4.63717 6.3789V6.34532V6.32854H4.67257C4.67257 6.33973 4.67847 6.34532 4.69027 6.34532C4.70206 6.34532 4.70796 6.33973 4.70796 6.32854C4.70796 6.30616 4.70206 6.28937 4.69027 6.27818C4.67847 6.26699 4.68437 6.2502 4.70796 6.22782L4.67257 6.19424C4.62537 6.17186 4.58997 6.14948 4.56637 6.1271C4.51917 6.08233 4.50147 6.03757 4.51327 5.99281H4.49558C4.49558 5.99281 4.48378 5.98721 4.46018 5.97602V5.95923C4.46018 5.95923 4.47198 5.95364 4.49558 5.94245V5.90887C4.48378 5.90887 4.47788 5.90328 4.47788 5.89209C4.47788 5.89209 4.48378 5.88649 4.49558 5.8753C4.49558 5.8753 4.50147 5.8697 4.51327 5.85851L4.56637 5.84173C4.54277 5.81934 4.52507 5.80256 4.51327 5.79137C4.50147 5.78018 4.50147 5.75779 4.51327 5.72422C4.51327 5.71303 4.50737 5.70184 4.49558 5.69065H4.42478C4.42478 5.66827 4.40708 5.65707 4.37168 5.65707C4.34808 5.63469 4.33628 5.61791 4.33628 5.60672V5.58993L4.30088 5.57314V5.53957C4.30088 5.51719 4.30088 5.506 4.30088 5.506H4.31858C4.31858 5.506 4.32448 5.5004 4.33628 5.48921H4.30088L4.28319 5.43885V5.45564H4.26549C4.24189 5.45564 4.23009 5.45004 4.23009 5.43885V5.42206V5.38849C4.23009 5.34373 4.21829 5.32134 4.19469 5.32134C4.14749 5.32134 4.12389 5.31015 4.12389 5.28777V5.23741H4.15929V5.22062V5.18705C4.18289 5.16467 4.18879 5.15348 4.17699 5.15348C4.16519 5.14229 4.14749 5.1255 4.12389 5.10312C4.10029 5.09193 4.0885 5.06395 4.0885 5.01918C4.11209 4.9968 4.12389 4.98002 4.12389 4.96883C4.13569 4.95763 4.15929 4.95204 4.19469 4.95204H4.21239H4.19469C4.12389 4.90727 4.059 4.86811 4 4.83453C4 4.82334 3.9941 4.81775 3.9823 4.81775C3.9823 4.80656 3.9882 4.78977 4 4.76739C4.0118 4.76739 4.0236 4.77858 4.0354 4.80096C4.059 4.81215 4.0767 4.81775 4.0885 4.81775L4.12389 4.83453C4.18289 4.81215 4.18289 4.78417 4.12389 4.7506H4.0885V4.73381V4.68345V4.63309C4.0767 4.63309 4.0708 4.6275 4.0708 4.61631C4.0354 4.59393 4.0177 4.57154 4.0177 4.54916C4.0177 4.53797 4.0118 4.51559 4 4.48201V4.43165C4 4.43165 4.0059 4.42046 4.0177 4.39808V4.3813C4.0531 4.3813 4.0708 4.3757 4.0708 4.36451V4.34772C4.0708 4.33653 4.0767 4.31415 4.0885 4.28058C4.0885 4.28058 4.0826 4.27498 4.0708 4.26379V4.28058V4.26379V4.247V4.19664V4.17986C4.0826 4.11271 4.0826 4.07354 4.0708 4.06235C4.0354 4.06235 4.0177 4.03997 4.0177 3.9952V3.97842C4.0531 3.95604 4.0767 3.92246 4.0885 3.8777V3.86091C4.0413 3.86091 4.0177 3.83853 4.0177 3.79376H3.9823V3.77698V3.72662C3.9823 3.72662 3.9941 3.72662 4.0177 3.72662L4.0708 3.77698C4.0118 3.72102 3.9882 3.67066 4 3.6259H3.9823C3.9823 3.60352 3.9705 3.59233 3.9469 3.59233C3.9351 3.59233 3.9292 3.58673 3.9292 3.57554V3.55875C3.9292 3.53637 3.9469 3.52518 3.9823 3.52518V3.50839C3.9823 3.50839 3.9882 3.5028 4 3.49161V3.44125H4.0177V3.49161C4.0649 3.42446 4.0826 3.3797 4.0708 3.35731L4.0177 3.32374L4.0708 3.30695V3.29017C4.0472 3.29017 4.0295 3.28457 4.0177 3.27338C4.0177 3.251 4.0118 3.23421 4 3.22302H3.9823C3.9351 3.22302 3.9115 3.19504 3.9115 3.13909C3.88791 3.13909 3.87611 3.11671 3.87611 3.07194C3.89971 3.04956 3.89971 3.03277 3.87611 3.02158V2.97122H3.89381C3.89381 2.97122 3.89971 2.96563 3.9115 2.95444H3.9292H3.9469C3.9469 2.95444 3.9587 2.94884 3.9823 2.93765V2.90408C3.9469 2.90408 3.9292 2.89848 3.9292 2.88729V2.8705C3.9292 2.83693 3.9469 2.82014 3.9823 2.82014C3.9941 2.79776 4 2.79217 4 2.80336C4 2.81455 4.0059 2.82014 4.0177 2.82014C4.0531 2.79776 4.0708 2.753 4.0708 2.68585C4.0472 2.67466 4.0354 2.66347 4.0354 2.65228C4.0354 2.64109 4.0472 2.63549 4.0708 2.63549V2.61871C4.0708 2.56275 4.0885 2.55156 4.12389 2.58513L4.15929 2.55156V2.53477V2.48441H4.19469C4.20649 2.48441 4.21239 2.47882 4.21239 2.46763C4.22419 2.44524 4.22419 2.42286 4.21239 2.40048V2.38369C4.21239 2.35012 4.23599 2.33333 4.28319 2.33333H4.30088V2.26619V2.18225H4.33628H4.35398L4.37168 2.19904H4.42478H4.46018C4.46018 2.16547 4.46608 2.14868 4.47788 2.14868H4.49558H4.51327L4.56637 2.11511V2.08153C4.53097 2.08153 4.51327 2.07594 4.51327 2.06475L4.56637 2.04796C4.57817 2.04796 4.58407 2.05356 4.58407 2.06475H4.60177C4.60177 2.05356 4.62537 2.04796 4.67257 2.04796V1.9976V1.98082H4.70796H4.72566C4.72566 1.93605 4.73746 1.91367 4.76106 1.91367C4.78466 1.91367 4.79646 1.90807 4.79646 1.89688H4.81416V1.86331V1.82974V1.79616C4.80236 1.78497 4.80236 1.76259 4.81416 1.72902H4.86726C4.86726 1.71783 4.88496 1.71223 4.92035 1.71223C4.92035 1.70104 4.92625 1.67866 4.93805 1.64508C4.98525 1.64508 5.00885 1.6227 5.00885 1.57794V1.56115C5.00885 1.53877 5.01475 1.52758 5.02655 1.52758V1.51079C4.99115 1.4996 4.97345 1.47162 4.97345 1.42686C4.97345 1.38209 4.96165 1.35412 4.93805 1.34293V1.29257H4.92035C4.92035 1.25899 4.92625 1.24221 4.93805 1.24221C4.92625 1.23102 4.92035 1.20863 4.92035 1.17506V1.15827C4.90855 1.15827 4.90265 1.15268 4.90265 1.14149C4.89086 1.14149 4.88496 1.1303 4.88496 1.10791C4.83776 1.10791 4.81416 1.08553 4.81416 1.04077L4.79646 1.02398V0.973622H4.81416C4.82596 1.00719 4.84366 1.02398 4.86726 1.02398H4.88496C4.88496 1.03517 4.89675 1.04077 4.92035 1.04077C4.92035 1.02958 4.92625 1.02398 4.93805 1.02398V1.04077V1.07434C4.97345 1.09672 4.98525 1.11351 4.97345 1.1247C4.97345 1.13589 4.97345 1.14708 4.97345 1.15827V1.17506L5.00885 1.22542V1.17506H5.02655L5.07965 1.22542V1.24221V1.29257V1.30935V1.32614C5.07965 1.33733 5.06195 1.34293 5.02655 1.34293V1.35971C5.08555 1.39329 5.10324 1.42126 5.07965 1.44365C5.09145 1.48841 5.09735 1.53317 5.09735 1.57794V1.59472V1.61151C5.09735 1.6227 5.09145 1.6283 5.07965 1.6283C5.07965 1.66187 5.06785 1.68425 5.04425 1.69544C5.03245 1.69544 5.02655 1.70104 5.02655 1.71223H5.00885C5.00885 1.72342 5.00295 1.72902 4.99115 1.72902H4.97345C4.97345 1.74021 4.96755 1.7514 4.95575 1.76259V1.77938H4.93805C4.93805 1.79057 4.93215 1.80176 4.92035 1.81295C4.92035 1.82414 4.92035 1.84093 4.92035 1.86331C4.92035 1.88569 4.92035 1.89688 4.92035 1.89688C4.93215 1.89688 4.93805 1.90248 4.93805 1.91367H4.97345V1.93046H4.93805V1.96403C4.93805 1.97522 4.93215 1.98082 4.92035 1.98082C4.92035 1.99201 4.90855 1.9976 4.88496 1.9976C4.88496 2.00879 4.87906 2.01998 4.86726 2.03118V2.04796V2.08153H4.79646H4.76106L4.79646 2.11511V2.13189C4.79646 2.14309 4.78466 2.14868 4.76106 2.14868H4.70796C4.70796 2.17106 4.70796 2.18225 4.70796 2.18225C4.71976 2.18225 4.72566 2.18785 4.72566 2.19904C4.73746 2.21023 4.74336 2.22142 4.74336 2.23261C4.74336 2.2438 4.73746 2.2494 4.72566 2.2494V2.26619H4.70796V2.2494H4.67257L4.63717 2.19904V2.2494H4.60177L4.61947 2.26619L4.60177 2.28297V2.33333V2.35012H4.56637C4.51917 2.35012 4.49558 2.32774 4.49558 2.28297H4.46018H4.42478H4.38938C4.38938 2.31655 4.40118 2.33333 4.42478 2.33333V2.35012H4.46018C4.49557 2.35012 4.51327 2.3781 4.51327 2.43405V2.46763L4.49558 2.43405H4.47788C4.46608 2.43405 4.46018 2.42286 4.46018 2.40048H4.42478H4.38938C4.38938 2.41167 4.38348 2.42286 4.37168 2.43405C4.37168 2.43405 4.37168 2.43965 4.37168 2.45084V2.46763C4.37168 2.47882 4.36578 2.4956 4.35398 2.51799C4.34218 2.52918 4.33628 2.54037 4.33628 2.55156V2.58513H4.30088H4.28319V2.63549H4.30088V2.66907V2.68585V2.753C4.30088 2.76419 4.29499 2.77538 4.28319 2.78657H4.23009V2.82014V2.83693C4.21829 2.83693 4.21239 2.83134 4.21239 2.82014H4.19469C4.19469 2.83134 4.20059 2.83693 4.21239 2.83693V2.8705H4.19469L4.17699 2.88729C4.16519 2.88729 4.15929 2.8817 4.15929 2.8705V2.90408C4.17109 2.89289 4.18289 2.88729 4.19469 2.88729L4.21239 2.90408L4.23009 2.93765H4.28319V2.95444V2.97122V3.03837V3.07194C4.28319 3.10552 4.28909 3.1279 4.30088 3.13909V3.15588L4.28319 3.18945V3.23981V3.29017C4.31858 3.30136 4.33628 3.31255 4.33628 3.32374V3.35731C4.33628 3.3797 4.32448 3.39089 4.30088 3.39089V3.42446H4.33628L4.37168 3.39089L4.33628 3.44125V3.49161L4.37168 3.50839V3.57554H4.38938C4.42478 3.57554 4.46018 3.59792 4.49558 3.64269V3.69305L4.42478 3.64269H4.40708C4.39528 3.64269 4.38938 3.63709 4.38938 3.6259V3.64269H4.42478V3.69305L4.38938 3.70983H4.37168C4.38348 3.70983 4.38938 3.71543 4.38938 3.72662C4.37758 3.72662 4.37168 3.73781 4.37168 3.76019V3.77698H4.33628V3.79376C4.35988 3.81615 4.36578 3.83853 4.35398 3.86091C4.34218 3.88329 4.33628 3.91127 4.33628 3.94484H4.30088H4.37168L4.33628 3.97842V3.9952C4.35988 3.9952 4.37168 4.01199 4.37168 4.04556C4.37168 4.05676 4.37758 4.06235 4.38938 4.06235H4.42478C4.44838 4.07354 4.46018 4.10152 4.46018 4.14628L4.42478 4.19664V4.247C4.44838 4.25819 4.46018 4.27498 4.46018 4.29736V4.33094V4.34772C4.42478 4.3813 4.42478 4.39808 4.46018 4.39808C4.47198 4.39808 4.48378 4.40368 4.49558 4.41487V4.43165V4.46523C4.47198 4.47642 4.46018 4.5044 4.46018 4.54916C4.46018 4.57154 4.45428 4.58273 4.44248 4.58273C4.43068 4.58273 4.42478 4.59393 4.42478 4.61631V4.63309C4.43658 4.63309 4.44838 4.63869 4.46018 4.64988V4.66667V4.73381C4.41298 4.7562 4.38938 4.78417 4.38938 4.81775V4.83453C4.41298 4.85691 4.41298 4.8793 4.38938 4.90168V4.93525L4.37168 4.95204H4.38938H4.42478V4.96883V5.01918C4.43658 5.01918 4.44838 5.02478 4.46018 5.03597V5.08633C4.49557 5.08633 4.50737 5.10312 4.49558 5.13669C4.49558 5.14788 4.50147 5.15348 4.51327 5.15348V5.18705L4.56637 5.22062L4.63717 5.30456C4.67257 5.3717 4.67257 5.43325 4.63717 5.48921V5.52278H4.67257C4.69616 5.55636 4.70796 5.57874 4.70796 5.58993C4.70796 5.58993 4.69616 5.60112 4.67257 5.6235V5.65707L4.63717 5.69065C4.64897 5.69065 4.66077 5.69624 4.67257 5.70743H4.70796C4.70796 5.70743 4.71386 5.71303 4.72566 5.72422C4.72566 5.73541 4.73156 5.7466 4.74336 5.75779C4.74336 5.76899 4.74926 5.78018 4.76106 5.79137C4.79646 5.84732 4.81416 5.8753 4.81416 5.8753C4.81416 5.89768 4.83186 5.90887 4.86726 5.90887C4.87906 5.93126 4.89086 5.94245 4.90265 5.94245C4.91445 5.94245 4.92035 5.95364 4.92035 5.97602V5.94245V5.90887V5.8753V5.85851H4.93805V5.8753L4.97345 5.90887H5.00885L5.02655 5.8753L5.07965 5.90887V5.8753V5.85851H5.09735V5.84173L5.13274 5.79137V5.84173H5.16814H5.18584V5.85851C5.22124 5.85851 5.23894 5.85851 5.23894 5.85851C5.29793 5.85851 5.34513 5.83613 5.38053 5.79137H5.39823V5.77458H5.43363V5.72422L5.41593 5.70743H5.39823C5.38643 5.70743 5.38053 5.70184 5.38053 5.69065H5.32743H5.38053H5.32743L5.30973 5.65707L5.29203 5.6235V5.58993V5.57314H5.23894C5.22714 5.57314 5.22124 5.56755 5.22124 5.55636C5.22124 5.53397 5.20944 5.52278 5.18584 5.52278L5.22124 5.506H5.18584V5.48921V5.43885C5.18584 5.43885 5.17994 5.43325 5.16814 5.42206L5.13274 5.38849C5.15634 5.3773 5.17404 5.3717 5.18584 5.3717H5.20354L5.22124 5.38849C5.23304 5.38849 5.23894 5.39968 5.23894 5.42206V5.43885H5.29203V5.48921H5.30973C5.29793 5.48921 5.29203 5.48361 5.29203 5.47242V5.43885C5.29203 5.43885 5.29793 5.43325 5.30973 5.42206H5.23894L5.38053 5.43885V5.42206H5.39823L5.46903 5.38849H5.45133C5.43953 5.38849 5.43363 5.38289 5.43363 5.3717L5.46903 5.32134H5.50442V5.3717C5.50442 5.33813 5.51032 5.32134 5.52212 5.32134C5.52212 5.32134 5.52802 5.31575 5.53982 5.30456V5.23741V5.18705H5.52212V5.15348H5.53982L5.59292 5.13669C5.60472 5.10312 5.62832 5.08633 5.66372 5.08633C5.67552 5.08633 5.68142 5.06954 5.68142 5.03597H5.73451V5.01918C5.72271 5.01918 5.71681 5.0024 5.71681 4.96883L5.73451 4.95204L5.71681 4.93525V4.90168C5.72861 4.89049 5.71681 4.86811 5.68142 4.83453V4.86811V4.83453V4.76739V4.7506C5.68142 4.73941 5.68732 4.72262 5.69911 4.70024C5.72271 4.67786 5.74631 4.66667 5.76991 4.66667V4.63309H5.80531C5.80531 4.63309 5.81121 4.6219 5.82301 4.59952V4.58273C5.85841 4.56035 5.88201 4.54916 5.8938 4.54916L5.9115 4.53237C5.9115 4.4988 5.9292 4.48201 5.9646 4.48201L5.9823 4.46523C6.0059 4.46523 6.0177 4.45404 6.0177 4.43165V4.41487C6.0177 4.40368 6.0236 4.39249 6.0354 4.3813V4.34772C6.0354 4.34772 6.0413 4.34213 6.0531 4.33094H6.0885H6.10619C6.09439 4.29736 6.0885 4.27498 6.0885 4.26379C6.10029 4.24141 6.10619 4.21903 6.10619 4.19664C6.10619 4.19664 6.10619 4.19105 6.10619 4.17986C6.09439 4.17986 6.0885 4.15747 6.0885 4.11271H6.10619V4.06235H6.12389V4.04556V3.97842C6.15929 3.95604 6.15929 3.94484 6.12389 3.94484C6.12389 3.92246 6.11799 3.90568 6.10619 3.89449C6.10619 3.8721 6.11209 3.84972 6.12389 3.82734V3.79376C6.11209 3.79376 6.10619 3.78817 6.10619 3.77698C6.09439 3.76579 6.0885 3.7546 6.0885 3.74341V3.70983H6.10619H6.12389V3.69305V3.70983C6.15929 3.70983 6.15929 3.70424 6.12389 3.69305V3.6259V3.59233H6.10619H6.23009V3.57554V3.52518C6.20649 3.52518 6.19469 3.51958 6.19469 3.50839C6.19469 3.4972 6.21829 3.49161 6.26549 3.49161L6.28319 3.44125C6.27139 3.43006 6.27139 3.42446 6.28319 3.42446H6.31858V3.39089C6.31858 3.3797 6.32448 3.3741 6.33628 3.3741C6.34808 3.3741 6.36578 3.3797 6.38938 3.39089C6.38938 3.34612 6.39528 3.32374 6.40708 3.32374V3.30695V3.29017H6.38938V3.23981C6.34218 3.23981 6.31858 3.21183 6.31858 3.15588C6.29499 3.14468 6.28319 3.11671 6.28319 3.07194V3.03837C6.27139 3.03837 6.26549 3.03277 6.26549 3.02158V2.97122V2.95444V2.93765V2.90408C6.24189 2.90408 6.23009 2.89848 6.23009 2.88729C6.23009 2.8761 6.21829 2.8705 6.19469 2.8705V2.83693H6.17699V2.82014H6.14159C6.12979 2.82014 6.12389 2.80895 6.12389 2.78657H6.17699C6.17699 2.753 6.18289 2.73621 6.19469 2.73621C6.19469 2.71383 6.20059 2.69704 6.21239 2.68585C6.21239 2.67466 6.21829 2.66907 6.23009 2.66907H6.21239C6.20059 2.66907 6.19469 2.65787 6.19469 2.63549C6.17109 2.61311 6.18289 2.58513 6.23009 2.55156V2.53477L6.26549 2.55156V2.58513H6.28319H6.31858H6.33628H6.28319H6.26549V2.55156L6.28319 2.53477V2.43405C6.27139 2.41167 6.27139 2.40048 6.28319 2.40048H6.33628V2.43405V2.46763C6.33628 2.51239 6.35988 2.53477 6.40708 2.53477V2.55156L6.46018 2.53477V2.46763C6.42478 2.46763 6.40708 2.44524 6.40708 2.40048V2.38369C6.39528 2.3725 6.39528 2.36131 6.40708 2.35012V2.28297V2.26619H6.46018V2.2494H6.40708V2.19904V2.14868C6.39528 2.14868 6.38938 2.13749 6.38938 2.11511C6.40118 2.09273 6.40708 2.07594 6.40708 2.06475L6.46018 2.04796C6.47198 2.02558 6.47198 2.01439 6.46018 2.01439C6.46018 2.0032 6.46018 1.99201 6.46018 1.98082C6.42478 1.94724 6.40708 1.92486 6.40708 1.91367V1.89688H6.38938H6.33628C6.32448 1.8745 6.31268 1.85212 6.30088 1.82974C6.28909 1.80735 6.28319 1.79057 6.28319 1.77938C6.30678 1.7458 6.31858 1.72342 6.31858 1.71223C6.31858 1.68985 6.32448 1.66747 6.33628 1.64508V1.6283C6.33628 1.59472 6.35398 1.57794 6.38938 1.57794V1.51079C6.35398 1.51079 6.33628 1.48841 6.33628 1.44365H6.38938V1.42686H6.40708C6.43068 1.42686 6.44248 1.42126 6.44248 1.41007C6.45428 1.39888 6.46608 1.40448 6.47788 1.42686V1.39329H6.49558C6.49558 1.35971 6.50737 1.34293 6.53097 1.34293V1.30935H6.56637H6.60177V1.29257H6.61947H6.67257V1.22542C6.67257 1.19185 6.67847 1.17506 6.69026 1.17506C6.69026 1.15268 6.69026 1.14149 6.69026 1.14149H6.70796H6.76106H6.77876C6.76696 1.11911 6.75516 1.10232 6.74336 1.09113C6.73156 1.07994 6.73746 1.06315 6.76106 1.04077C6.76106 1.02958 6.76696 1.02958 6.77876 1.04077H6.81416C6.82596 1.02958 6.84366 1.02398 6.86726 1.02398H6.90265C6.89086 1.02398 6.88496 1.01839 6.88496 1.00719C6.88496 0.996003 6.89086 0.984812 6.90265 0.973622H6.92035C6.92035 0.962431 6.93805 0.956835 6.97345 0.956835V0.940048C6.97345 0.906475 6.97935 0.889689 6.99115 0.889689H7.02655H7.06195H7.02655V0.872902C6.99115 0.839329 6.99115 0.822542 7.02655 0.822542V0.78897C7.05015 0.766587 7.05015 0.755396 7.02655 0.755396V0.73861C7.02655 0.705036 7.03245 0.688249 7.04425 0.688249H7.06195V0.671463C7.06195 0.649081 7.07965 0.63789 7.11504 0.63789V0.604317H7.20354V0.58753L7.23894 0.604317H7.29203C7.29203 0.593126 7.30383 0.58753 7.32743 0.58753L7.36283 0.604317C7.36283 0.559552 7.38053 0.53717 7.41593 0.53717H7.43363C7.43363 0.514789 7.43953 0.503598 7.45133 0.503598C7.47493 0.492407 7.48673 0.481215 7.48673 0.470024L7.50442 0.453238V0.402878V0.386091L7.53982 0.352518H7.57522V0.318945V0.302158C7.57522 0.302158 7.58702 0.290967 7.61062 0.268586H7.62832C7.62832 0.257395 7.65192 0.251799 7.69911 0.251799V0.201439H7.71681H7.76991V0.184653C7.76991 0.15108 7.76991 0.134293 7.76991 0.134293C7.78171 0.123102 7.79351 0.106315 7.80531 0.0839328V0.0671464L7.84071 0.0839328V0.0671464H7.9115L7.9292 0.0335737H7.9823H7.9292H7.9823V0H8V0.0335737V0.0671464V0.0839328L7.9823 0.0671464C7.9823 0.0783373 7.9646 0.0839328 7.9292 0.0839328V0.117506V0.151079L7.9823 0.184653V0.201439H7.9292C7.9174 0.201439 7.9115 0.218226 7.9115 0.251799C7.8997 0.251799 7.88791 0.257395 7.87611 0.268586H7.84071H7.80531V0.285372C7.80531 0.296563 7.79941 0.302158 7.78761 0.302158C7.78761 0.302158 7.78761 0.307754 7.78761 0.318945H7.76991V0.352518C7.76991 0.3749 7.74631 0.386091 7.69911 0.386091V0.402878H7.66372V0.453238V0.470024V0.486811H7.69911V0.53717V0.553958H7.66372C7.65192 0.553958 7.64012 0.559553 7.62832 0.570744V0.58753C7.61652 0.58753 7.61062 0.593126 7.61062 0.604317H7.57522H7.53982C7.56342 0.626699 7.57522 0.649081 7.57522 0.671463V0.688249H7.53982L7.52212 0.671463H7.50442C7.50442 0.671463 7.49852 0.677059 7.48673 0.688249H7.43363C7.42183 0.688249 7.41593 0.699441 7.41593 0.721823V0.73861C7.40413 0.73861 7.38643 0.744205 7.36283 0.755396C7.35103 0.755396 7.33923 0.760991 7.32743 0.772182V0.78897H7.29203C7.29203 0.777778 7.28614 0.766587 7.27434 0.755396V0.78897H7.23894H7.20354H7.13274C7.13274 0.822542 7.12684 0.85052 7.11504 0.872902C7.11504 0.884093 7.13864 0.889689 7.18584 0.889689V0.940048V0.956835L7.16814 0.973622H7.11504H7.13274V1.02398H7.11504C7.07965 1.03517 7.06195 1.06315 7.06195 1.10791C7.06195 1.10791 7.06785 1.11911 7.07965 1.14149V1.15827L7.11504 1.17506L7.07965 1.22542H7.06195V1.17506L7.04425 1.15827H7.02655H6.99115H6.97345V1.17506V1.22542V1.29257L6.92035 1.22542V1.24221C6.95575 1.27578 6.95575 1.29816 6.92035 1.30935V1.34293H6.90265C6.90265 1.35412 6.89675 1.35971 6.88496 1.35971C6.87316 1.35971 6.86726 1.3709 6.86726 1.39329C6.83186 1.39329 6.80236 1.40448 6.77876 1.42686C6.77876 1.47162 6.74926 1.49401 6.69026 1.49401C6.69026 1.49401 6.68437 1.4996 6.67257 1.51079V1.52758C6.67257 1.56115 6.66077 1.57794 6.63717 1.57794H6.61947V1.59472H6.67257H6.69026L6.70796 1.6283C6.70796 1.6283 6.70206 1.63389 6.69026 1.64508V1.69544V1.71223V1.72902V1.76259C6.69026 1.77378 6.68437 1.78497 6.67257 1.79616C6.64897 1.79616 6.63127 1.80176 6.61947 1.81295C6.61947 1.82414 6.61357 1.82974 6.60177 1.82974C6.55457 1.82974 6.51917 1.84093 6.49558 1.86331C6.49558 1.88569 6.50147 1.89688 6.51327 1.89688C6.52507 1.89688 6.53097 1.90248 6.53097 1.91367C6.54277 1.91367 6.55457 1.91926 6.56637 1.93046V1.98082H6.60177V1.9976C6.60177 2.00879 6.60177 2.01998 6.60177 2.03118C6.61357 2.03118 6.61947 2.03677 6.61947 2.04796V2.06475C6.65487 2.07594 6.67257 2.09273 6.67257 2.11511V2.14868H6.61947L6.60177 2.18225V2.16547C6.60177 2.16547 6.58997 2.15987 6.56637 2.14868C6.56637 2.17106 6.57817 2.18785 6.60177 2.19904V2.28297L6.56637 2.33333V2.35012H6.60177V2.38369V2.40048H6.61947C6.61947 2.40048 6.63127 2.40608 6.65487 2.41727H6.67257V2.43405H6.61947L6.60177 2.46763H6.61947C6.65487 2.5012 6.67257 2.51239 6.67257 2.5012V2.53477H6.69026L6.67257 2.55156V2.56835V2.58513H6.76106H6.69026V2.61871H6.70796L6.72566 2.63549H6.70796L6.76106 2.66907L6.70796 2.63549V2.68585H6.69026L6.70796 2.73621H6.76106H6.77876C6.77876 2.7474 6.78466 2.753 6.79646 2.753L6.83186 2.78657C6.85546 2.78657 6.86726 2.79776 6.86726 2.82014L6.83186 2.83693H6.86726H6.90265L6.86726 2.8705V2.90408V2.93765V2.95444V2.97122V3.0048C6.86726 3.02718 6.85546 3.03837 6.83186 3.03837H6.77876H6.76106H6.77876V3.07194H6.81416H6.77876L6.81416 3.10552H6.77876H6.76106C6.72566 3.10552 6.70796 3.11671 6.70796 3.13909H6.69026L6.70796 3.22302L6.69026 3.15588V3.22302L6.67257 3.23981V3.22302C6.63717 3.22302 6.61947 3.20064 6.61947 3.15588V3.13909L6.60177 3.18945V3.13909V3.15588V3.22302H6.61947H6.67257V3.23981V3.29017V3.35731C6.69616 3.35731 6.70796 3.3797 6.70796 3.42446V3.44125L6.69026 3.42446H6.67257C6.63717 3.42446 6.61947 3.41887 6.61947 3.40767V3.39089V3.42446H6.60177H6.58407C6.57227 3.42446 6.56637 3.43006 6.56637 3.44125V3.49161C6.56637 3.5028 6.57227 3.50839 6.58407 3.50839C6.59587 3.50839 6.60177 3.51399 6.60177 3.52518V3.55875C6.60177 3.56994 6.58997 3.57554 6.56637 3.57554V3.59233V3.6259V3.64269L6.53097 3.69305V3.64269C6.50737 3.64269 6.49558 3.63709 6.49558 3.6259C6.49558 3.6259 6.48968 3.63149 6.47788 3.64269V3.69305H6.49558V3.70983L6.47788 3.72662H6.46018V3.77698C6.43658 3.7546 6.41888 3.749 6.40708 3.76019C6.40708 3.77138 6.40118 3.77698 6.38938 3.77698H6.33628L6.38938 3.79376H6.40708V3.82734V3.8777L6.38938 3.91127C6.41298 3.94484 6.41298 3.97282 6.38938 3.9952V4.04556C6.42478 4.06795 6.43658 4.08473 6.42478 4.09592C6.41298 4.09592 6.40118 4.11271 6.38938 4.14628V4.17986V4.19664V4.247C6.38938 4.26938 6.39528 4.29736 6.40708 4.33094H6.46018C6.42478 4.34213 6.40118 4.34772 6.38938 4.34772C6.38938 4.3701 6.37758 4.3813 6.35398 4.3813H6.33628C6.33628 4.3813 6.34808 4.38689 6.37168 4.39808H6.38938C6.38938 4.42046 6.37758 4.43165 6.35398 4.43165H6.33628V4.46523H6.31858V4.53237C6.29499 4.54357 6.28319 4.55476 6.28319 4.56595C6.28319 4.57714 6.27729 4.58273 6.26549 4.58273V4.61631V4.63309C6.27729 4.66667 6.27729 4.68345 6.26549 4.68345H6.28319V4.73381L6.26549 4.7506H6.23009V4.76739H6.26549V4.83453H6.19469C6.18289 4.83453 6.17699 4.84013 6.17699 4.85132V4.86811V4.90168H6.19469V4.93525L6.23009 4.95204H6.19469H6.17699C6.14159 4.96323 6.11799 4.96883 6.10619 4.96883V4.95204H6.0885V5.01918V5.03597C6.0885 5.03597 6.0708 5.05276 6.0354 5.08633C6.0354 5.09752 6.0295 5.10312 6.0177 5.10312V5.13669C6.0059 5.13669 5.9941 5.14229 5.9823 5.15348L6 5.17026C6 5.18146 6 5.19265 6 5.20384C6.0118 5.20384 6.0177 5.20943 6.0177 5.22062H5.9823H5.9646H5.9115V5.23741C5.9233 5.2486 5.9292 5.25979 5.9292 5.27098C5.9292 5.28217 5.9233 5.28777 5.9115 5.28777L5.9646 5.30456C5.9646 5.31575 5.9469 5.32134 5.9115 5.32134H5.8938V5.30456H5.87611V5.33813V5.3717C5.84071 5.38289 5.81711 5.38849 5.80531 5.38849H5.82301H5.80531L5.76991 5.42206H5.73451L5.76991 5.506L5.73451 5.43885V5.48921H5.71681V5.506H5.73451C5.78171 5.52838 5.80531 5.55636 5.80531 5.58993V5.6235C5.78171 5.6235 5.78171 5.63469 5.80531 5.65707V5.69065H5.78761C5.77581 5.69065 5.76991 5.69624 5.76991 5.70743V5.72422H5.71681V5.74101C5.71681 5.7522 5.72271 5.76339 5.73451 5.77458V5.79137H5.76991C5.79351 5.79137 5.80531 5.80256 5.80531 5.82494V5.84173C5.80531 5.85292 5.79941 5.85851 5.78761 5.85851H5.76991H5.73451C5.72271 5.85851 5.71681 5.8753 5.71681 5.90887V5.94245V5.97602C5.75221 5.97602 5.76991 5.9984 5.76991 6.04317C5.78171 6.04317 5.79351 6.04876 5.80531 6.05995C5.80531 6.07114 5.79351 6.09353 5.76991 6.1271C5.76991 6.1271 5.75811 6.1271 5.73451 6.1271C5.73451 6.1271 5.73451 6.11031 5.73451 6.07674C5.73451 6.06555 5.72861 6.05995 5.71681 6.05995V6.04317H5.68142C5.65782 5.97602 5.62832 5.95923 5.59292 5.99281V6.04317H5.53982V6.05995V6.07674V6.11031C5.53982 6.1215 5.53392 6.1271 5.52212 6.1271L5.50442 6.14388V6.17746C5.48083 6.18865 5.45723 6.19424 5.43363 6.19424V6.22782V6.26139H5.46903L5.52212 6.22782L5.46903 6.27818L5.50442 6.32854C5.49262 6.33973 5.47493 6.34532 5.45133 6.34532H5.43363H5.39823C5.39823 6.35652 5.39233 6.36771 5.38053 6.3789C5.39233 6.41247 5.39233 6.42926 5.38053 6.42926V6.46283C5.39233 6.47402 5.39823 6.4964 5.39823 6.52998V6.54676C5.39823 6.55795 5.39233 6.56355 5.38053 6.56355C5.38053 6.56355 5.38053 6.56914 5.38053 6.58034V6.61391V6.6307V6.66427H5.32743V6.69784L5.38053 6.73142V6.7482V6.78177V6.81535V6.83213V6.89928V6.93285V6.98321C5.41593 6.98321 5.41593 7 5.38053 7.03357C5.38053 7.07834 5.38643 7.10632 5.39823 7.11751C5.41003 7.11751 5.41593 7.1231 5.41593 7.13429C5.41593 7.14548 5.41003 7.15108 5.39823 7.15108V7.16787C5.39823 7.17906 5.39233 7.18465 5.38053 7.18465V7.15108C5.36873 7.15108 5.35693 7.15667 5.34513 7.16787H5.32743V7.18465C5.30383 7.18465 5.29203 7.17346 5.29203 7.15108C5.26844 7.15108 5.25664 7.14548 5.25664 7.13429C5.25664 7.1231 5.26844 7.11751 5.29203 7.11751C5.22124 7.11751 5.18584 7.13989 5.18584 7.18465C5.20944 7.18465 5.22714 7.19584 5.23894 7.21823C5.22714 7.22942 5.20944 7.23501 5.18584 7.23501V7.28537V7.30216V7.31895H5.16814H5.18584H5.23894C5.27434 7.35252 5.30383 7.3693 5.32743 7.3693C5.36283 7.3693 5.38053 7.38609 5.38053 7.41966V7.43645H5.39823V7.48681V7.5036C5.44543 7.5036 5.46903 7.52598 5.46903 7.57074C5.49262 7.58193 5.49262 7.59872 5.46903 7.6211H5.43363V7.67146H5.39823C5.38643 7.69385 5.36873 7.71063 5.34513 7.72182C5.33333 7.73301 5.32153 7.72742 5.30973 7.70504C5.29793 7.70504 5.29203 7.72742 5.29203 7.77218V7.78897V7.8729C5.28024 7.8729 5.30973 7.89528 5.38053 7.94005C5.38053 7.96243 5.38643 7.97362 5.39823 7.97362C5.41003 7.97362 5.42183 7.97922 5.43363 7.99041C5.45723 7.99041 5.46903 8.0016 5.46903 8.02398V8.04077H5.52212V8.07434H5.53982V8.1247V8.14149H5.59292V8.17506C5.60472 8.17506 5.61062 8.16387 5.61062 8.14149V8.1247H5.68142H5.71681V8.07434C5.71681 8.06315 5.73451 8.05755 5.76991 8.05755H5.80531V8.07434H5.82301H5.87611V8.05755V8.04077H5.8938H5.9115V7.99041V7.97362C5.9115 7.96243 5.9174 7.95683 5.9292 7.95683C5.9292 7.95683 5.941 7.95124 5.9646 7.94005V7.90648L5.9823 7.8729C6.0059 7.8729 6.0236 7.8729 6.0354 7.8729C6.0472 7.86171 6.0649 7.85052 6.0885 7.83933C6.11209 7.83933 6.12389 7.81695 6.12389 7.77218H6.19469H6.23009H6.26549C6.26549 7.81695 6.24189 7.83933 6.19469 7.83933L6.17699 7.85612H6.19469H6.23009H6.19469V7.8729H6.23009H6.19469V7.90648V7.94005ZM6.33628 3.79376V3.77698V3.79376ZM3.32743 11.3645L3.36283 11.3141H3.32743L3.29204 11.3645L3.32743 11.3141V11.3645Z" fill="black"/>
</svg>
