<svg width="31" height="12" viewBox="0 0 31 12" fill="none" xmlns="http://www.w3.org/2000/svg">
<path d="M31 0.113667C31 0.135318 30.9883 0.173207 30.9649 0.227334H30.8947C30.8713 0.227334 30.8421 0.227334 30.807 0.227334C30.7719 0.227334 30.7544 0.23816 30.7544 0.25981C30.7427 0.25981 30.7368 0.270636 30.7368 0.292287V0.308525C30.6901 0.330176 30.6784 0.346413 30.7018 0.357239C30.7251 0.368065 30.7368 0.400541 30.7368 0.454668L30.7544 0.470906H30.7368V0.535859C30.6667 0.535859 30.614 0.546684 30.5789 0.568335C30.5439 0.579161 30.5205 0.584574 30.5088 0.584574L30.3684 0.665765L30.2632 0.535859V0.665765L30.1754 0.682003C30.1754 0.725304 30.1696 0.752368 30.1579 0.763193C30.1579 0.763193 30.1579 0.774019 30.1579 0.795669C30.1228 0.838971 30.0936 0.866035 30.0702 0.87686C30.0585 0.887686 30.0643 0.914749 30.0877 0.958051H30.0526H29.9474L29.8597 0.893099V0.958051H29.807C29.807 0.979702 29.7895 0.99594 29.7544 1.00677C29.731 1.00677 29.7076 1.00677 29.6842 1.00677H29.6316L29.5789 0.958051L29.4737 1.18539L29.386 1.12043H29.3509L29.386 1.18539H29.3509C29.3509 1.20704 29.3333 1.2341 29.2982 1.26658C29.2632 1.28823 29.2164 1.27199 29.1579 1.21786V1.18539C29.1579 1.14208 29.1404 1.12043 29.1053 1.12043H29.0702C29.0702 1.17456 29.0526 1.22327 29.0175 1.26658C28.9825 1.30988 28.9298 1.33153 28.8597 1.33153H28.8421H28.7368C28.7368 1.37483 28.7076 1.39648 28.6491 1.39648H28.6316C28.6199 1.39648 28.614 1.40189 28.614 1.41272L28.5263 1.49391V1.54262L28.5088 1.60758H28.4211H28.193H28.1404L28.193 1.72124C28.193 1.66712 28.193 1.64005 28.193 1.64005C28.2047 1.64005 28.2339 1.66712 28.2807 1.72124L28.3684 1.62382V1.72124C28.3684 1.7429 28.3626 1.76455 28.3509 1.7862C28.3509 1.79702 28.3275 1.84032 28.2807 1.9161L28.193 1.96482L28.1404 1.85115V1.9161L28.0526 1.85115C27.9942 1.88363 27.9532 1.88904 27.9298 1.86739C27.9064 1.84574 27.8772 1.81326 27.8421 1.76996L27.9123 1.62382H27.6842H27.614V1.60758V1.54262H27.5789H27.4912H27.4386H27.3684L27.3509 1.55886V1.60758C27.3509 1.6184 27.3392 1.64005 27.3158 1.67253C27.3041 1.70501 27.2807 1.73207 27.2456 1.75372L27.193 1.76996V1.75372C27.1345 1.75372 27.1053 1.7429 27.1053 1.72124V1.62382C27.1053 1.62382 27.0936 1.6184 27.0702 1.60758H27.0175V1.62382L26.9474 1.72124H26.8597V1.76996C26.8012 1.75913 26.731 1.71042 26.6491 1.62382H26.4912H26.4035C26.3801 1.62382 26.3626 1.62923 26.3509 1.64005C26.3509 1.64005 26.3392 1.66712 26.3158 1.72124C26.3158 1.7429 26.3041 1.75913 26.2807 1.76996V1.85115C26.2456 1.85115 26.2164 1.86198 26.193 1.88363C26.1813 1.89445 26.1754 1.90528 26.1754 1.9161C26.2105 1.9161 26.2398 1.92693 26.2632 1.94858L26.2807 1.96482C26.3392 1.96482 26.3684 1.97564 26.3684 1.99729H26.4912V2.07848V2.1272V2.19215C26.4328 2.19215 26.386 2.18133 26.3509 2.15968C26.3275 2.13802 26.3041 2.1272 26.2807 2.1272V2.07848L26.1754 2.1272C26.1637 2.1272 26.1579 2.12179 26.1579 2.11096V2.07848V1.99729H26.0702V1.96482L25.9474 2.07848V1.99729V1.96482V1.99729L25.7368 1.96482L25.8597 1.85115L25.9123 1.75372C25.8772 1.75372 25.8597 1.7429 25.8597 1.72124H25.8246L25.8597 1.75372C25.8363 1.76455 25.807 1.7862 25.7719 1.81867C25.7368 1.84032 25.7076 1.85115 25.6842 1.85115H25.614L25.5965 1.76996V1.75372C25.5965 1.73207 25.5789 1.72124 25.5439 1.72124H25.4912V1.62382H25.5439C25.5789 1.62382 25.5965 1.6184 25.5965 1.60758H25.614C25.6491 1.5751 25.6667 1.55345 25.6667 1.54262C25.6667 1.52097 25.6491 1.47767 25.614 1.41272L25.5965 1.49391H25.4561L25.4386 1.41272C25.3918 1.41272 25.345 1.40731 25.2982 1.39648C25.2281 1.39648 25.1637 1.40189 25.1053 1.41272H25.0702V1.33153H25C24.9766 1.37483 24.8947 1.39648 24.7544 1.39648V1.49391H24.614V1.54262C24.5789 1.54262 24.5556 1.53721 24.5439 1.52639C24.5322 1.51556 24.5263 1.50474 24.5263 1.49391H24.5088C24.462 1.49391 24.4328 1.48309 24.4211 1.46143C24.4211 1.42896 24.4152 1.41272 24.4035 1.41272V1.49391C24.3567 1.51556 24.3216 1.5318 24.2982 1.54262C24.2749 1.55345 24.2339 1.5751 24.1754 1.60758C24.1754 1.6617 24.1579 1.69959 24.1228 1.72124C24.0877 1.7429 24.0585 1.7429 24.0351 1.72124C23.9883 1.72124 23.9532 1.72666 23.9298 1.73748C23.9181 1.74831 23.883 1.75913 23.8246 1.76996H23.7018H23.5439C23.5439 1.82409 23.5146 1.85115 23.4561 1.85115C23.4561 1.80785 23.4561 1.79702 23.4561 1.81867C23.4561 1.84032 23.4444 1.85115 23.4211 1.85115C23.3626 1.88363 23.3275 1.91069 23.3158 1.93234C23.3041 1.95399 23.2982 1.97564 23.2982 1.99729V2.07848H23.2456V2.1272C23.2105 2.15968 23.1754 2.18133 23.1404 2.19215C23.1053 2.19215 23.0819 2.19215 23.0702 2.19215H23C22.9766 2.2138 22.9649 2.23545 22.9649 2.2571V2.30582V2.33829C22.9649 2.37077 22.9474 2.38701 22.9123 2.38701H22.8772V2.41949H22.8421L22.7544 2.38701V2.33829C22.7076 2.33829 22.6725 2.34912 22.6491 2.37077C22.6374 2.3816 22.6257 2.38701 22.614 2.38701H22.5088V2.41949V2.38701C22.4269 2.34371 22.3567 2.34371 22.2982 2.38701C22.3099 2.38701 22.269 2.4249 22.1754 2.50068V2.54939H22.1404H21.9123H21.7193C21.6959 2.54939 21.6842 2.57104 21.6842 2.61434V2.64682H21.6667C21.6082 2.69012 21.5556 2.71719 21.5088 2.72801C21.462 2.72801 21.4035 2.72801 21.3333 2.72801H21.2982H21.2456H21.2105C21.152 2.73884 21.1111 2.75507 21.0877 2.77673C21.076 2.79838 21.0468 2.82003 21 2.84168C20.9766 2.8958 20.9474 2.93369 20.9123 2.95534C20.8889 2.96617 20.8772 2.98782 20.8772 3.0203L20.7719 3.1502H20.7193C20.7193 3.23681 20.6608 3.28011 20.5439 3.28011C20.5205 3.28011 20.4912 3.29635 20.4561 3.32882C20.4211 3.35047 20.3743 3.33424 20.3158 3.28011C20.3158 3.33424 20.2866 3.36671 20.2281 3.37754C20.1813 3.38836 20.1345 3.4046 20.0877 3.42625C20.076 3.42625 20.0702 3.43166 20.0702 3.44249C20.0585 3.45332 20.0526 3.48038 20.0526 3.52368C19.9942 3.53451 19.9532 3.56157 19.9298 3.60487V3.65359C19.9064 3.65359 19.8889 3.659 19.8772 3.66982C19.8772 3.66982 19.8655 3.69147 19.8421 3.73478H19.7544C19.7076 3.7456 19.6784 3.75101 19.6667 3.75101C19.6082 3.75101 19.5731 3.76184 19.5614 3.78349C19.5614 3.80514 19.5497 3.81597 19.5263 3.81597V3.84844C19.4444 3.94587 19.345 3.94587 19.2281 3.84844C19.2164 3.84844 19.1871 3.85386 19.1404 3.86468C19.1053 3.86468 19.076 3.89175 19.0526 3.94587C19.0526 3.98917 19.0234 4.02165 18.9649 4.0433C18.9649 4.06495 18.9474 4.09202 18.9123 4.12449C18.9006 4.13532 18.8889 4.14073 18.8772 4.14073H18.8421L18.7368 4.0433C18.6901 4.09743 18.655 4.12991 18.6316 4.14073C18.6199 4.14073 18.5965 4.14073 18.5614 4.14073V4.18944C18.5263 4.18944 18.5088 4.20027 18.5088 4.22192V4.23816L18.4211 4.27064H18.386H18.2807C18.2807 4.24898 18.2632 4.23816 18.2281 4.23816H18.1754V4.27064V4.35183C18.1637 4.35183 18.152 4.35724 18.1404 4.36806C18.1404 4.36806 18.1345 4.36806 18.1228 4.36806C18.1111 4.37889 18.0994 4.3843 18.0877 4.3843C18.0292 4.3843 17.9766 4.37348 17.9298 4.35183V4.31935C17.9298 4.28687 17.9181 4.27064 17.8947 4.27064C17.8947 4.29229 17.8889 4.30852 17.8772 4.31935C17.8538 4.341 17.8246 4.35183 17.7895 4.35183C17.7895 4.37348 17.7836 4.3843 17.7719 4.3843C17.7368 4.3843 17.7135 4.40054 17.7018 4.43302C17.6901 4.45467 17.6725 4.46549 17.6491 4.46549C17.5906 4.47632 17.5497 4.5088 17.5263 4.56292H17.4211C17.4211 4.51962 17.4035 4.5088 17.3684 4.53045C17.3333 4.5521 17.3099 4.56292 17.2982 4.56292C17.2982 4.5954 17.2866 4.61164 17.2632 4.61164H17.2281C17.2164 4.60081 17.193 4.5954 17.1579 4.5954C17.1345 4.5954 17.117 4.60081 17.1053 4.61164V4.67659H17.0702V4.64411C17.0702 4.62246 17.0526 4.61164 17.0175 4.61164H16.9825H16.8947C16.8363 4.64411 16.7895 4.66576 16.7544 4.67659C16.731 4.67659 16.6959 4.65494 16.6491 4.61164C16.6491 4.60081 16.6433 4.58999 16.6316 4.57916C16.6316 4.56834 16.6316 4.5521 16.6316 4.53045C16.6199 4.5088 16.614 4.49256 16.614 4.48173C16.5673 4.4276 16.538 4.40054 16.5263 4.40054C16.5146 4.38972 16.4795 4.3843 16.4211 4.3843V4.35183H16.3684H16.3158C16.2924 4.35183 16.2749 4.341 16.2632 4.31935C16.2632 4.28687 16.2398 4.27064 16.193 4.27064C16.1696 4.27064 16.1462 4.27605 16.1228 4.28687C16.1111 4.28687 16.0819 4.30852 16.0351 4.35183C16 4.37348 15.9591 4.37348 15.9123 4.35183C15.9006 4.35183 15.8947 4.32476 15.8947 4.27064C15.8129 4.27064 15.7485 4.25981 15.7018 4.23816L15.6491 4.18944L15.5439 4.27064H15.4737V4.23816L15.4386 4.27064L15.3333 4.35183L15.3158 4.27064C15.3158 4.31394 15.3041 4.34641 15.2807 4.36806C15.2573 4.38972 15.2456 4.42219 15.2456 4.46549C15.2222 4.47632 15.2047 4.48714 15.193 4.49797C15.1813 4.49797 15.152 4.51962 15.1053 4.56292V4.61164C15.1053 4.65494 15.0936 4.682 15.0702 4.69283C15.0585 4.70365 15.0409 4.73072 15.0175 4.77402H14.9649V4.69283C14.9064 4.682 14.8713 4.67659 14.8597 4.67659C14.848 4.66576 14.8187 4.64411 14.7719 4.61164C14.7251 4.61164 14.6842 4.5954 14.6491 4.56292V4.61164H14.614H14.5439C14.5088 4.64411 14.4737 4.66576 14.4386 4.67659C14.4035 4.67659 14.3801 4.67659 14.3684 4.67659V4.69283C14.3216 4.73613 14.2924 4.76861 14.2807 4.79026C14.269 4.81191 14.2515 4.82273 14.2281 4.82273C14.2164 4.83356 14.2047 4.83897 14.193 4.83897C14.1696 4.86062 14.1579 4.87686 14.1579 4.88769V4.92016L14.1228 4.88769H14.0702C14.0468 4.88769 14.0351 4.89851 14.0351 4.92016H13.9825C13.9825 4.96346 13.9708 4.99594 13.9474 5.01759C13.924 5.02842 13.9064 5.03383 13.8947 5.03383C13.8947 5.01218 13.8772 5.00135 13.8421 5.00135H13.807C13.807 4.94723 13.7953 4.91475 13.7719 4.90392C13.7485 4.88227 13.7251 4.85521 13.7018 4.82273L13.6667 4.85521C13.6433 4.87686 13.614 4.88769 13.5789 4.88769C13.5205 4.90934 13.4854 4.91475 13.4737 4.90392C13.462 4.8931 13.4503 4.88769 13.4386 4.88769L13.3333 4.92016H13.2982C13.2866 4.92016 13.2749 4.92557 13.2632 4.9364C13.2398 4.95805 13.2281 4.9797 13.2281 5.00135C13.2164 5.00135 13.2105 5.01218 13.2105 5.03383H13.1053C13.0819 5.06631 13.0585 5.08254 13.0351 5.08254C13.0117 5.08254 13 5.06631 13 5.03383H12.9649C12.9181 5.03383 12.883 5.02842 12.8596 5.01759C12.848 4.99594 12.8246 4.96346 12.7895 4.92016H12.7193H12.6491H12.6316H12.5439C12.5205 4.96346 12.4971 4.99594 12.4737 5.01759L12.4561 5.03383H12.3333C12.2749 5.03383 12.2398 5.05548 12.2281 5.09878C12.193 5.10961 12.1696 5.12585 12.1579 5.1475C12.1579 5.16915 12.1462 5.17997 12.1228 5.17997C12.076 5.17997 12.0351 5.19621 12 5.22869C11.9766 5.25034 11.9357 5.26658 11.8772 5.2774H11.7895V5.35859L11.7544 5.2774H11.7018H11.5965H11.5439C11.5439 5.29905 11.538 5.31529 11.5263 5.32612C11.5029 5.34777 11.4795 5.35859 11.4561 5.35859C11.4561 5.36942 11.4503 5.37483 11.4386 5.37483C11.4386 5.37483 11.4094 5.37483 11.3509 5.37483C11.2924 5.35318 11.2456 5.38024 11.2105 5.45602C11.1637 5.47767 11.1228 5.49391 11.0877 5.50474C11.0643 5.50474 11.0351 5.52639 11 5.56969H10.9649C10.9649 5.58051 10.9474 5.58593 10.9123 5.58593C10.9006 5.58593 10.8889 5.58051 10.8772 5.56969H10.8421C10.8421 5.62382 10.8187 5.66712 10.7719 5.69959C10.7485 5.69959 10.731 5.70501 10.7193 5.71583C10.7193 5.71583 10.7193 5.7429 10.7193 5.79702C10.6959 5.80785 10.6725 5.82409 10.6491 5.84574C10.6257 5.86739 10.6023 5.87821 10.5789 5.87821H10.4912C10.4912 5.89986 10.4854 5.9161 10.4737 5.92693C10.462 5.92693 10.4561 5.94858 10.4561 5.99188H10.386V6.02436L10.3509 6.05683C10.3392 6.06766 10.3275 6.0839 10.3158 6.10555C10.3041 6.11637 10.2865 6.1272 10.2632 6.13802H10.2105C10.2105 6.19215 10.1871 6.22463 10.1404 6.23545H10.1228V6.30041V6.34912H10.0351C9.97661 6.39242 9.91813 6.39783 9.85965 6.36536C9.80117 6.33288 9.74854 6.28958 9.70175 6.23545H9.66667C9.64328 6.24628 9.62573 6.25169 9.61404 6.25169C9.57895 6.27334 9.5614 6.28958 9.5614 6.30041C9.51462 6.30041 9.47368 6.30582 9.4386 6.31664C9.41521 6.31664 9.38012 6.32747 9.33333 6.34912H9.24561H9.17544C9.12866 6.34912 9.07018 6.35453 9 6.36536C8.94152 6.36536 8.90059 6.38701 8.87719 6.43031C8.8538 6.38701 8.83626 6.37618 8.82456 6.39783C8.82456 6.41949 8.80702 6.43031 8.77193 6.43031L8.7193 6.44655H8.68421H8.63158H8.59649C8.54971 6.48985 8.50877 6.51691 8.47368 6.52774C8.45029 6.52774 8.42105 6.52774 8.38597 6.52774L8.45614 6.56022L8.38597 6.64141C8.38597 6.66306 8.37427 6.6793 8.35088 6.69012C8.33918 6.70095 8.30994 6.69553 8.26316 6.67388V6.7226C8.23977 6.7226 8.22807 6.73342 8.22807 6.75507C8.25146 6.8092 8.25146 6.8525 8.22807 6.88498C8.26316 6.97158 8.23392 7.04195 8.14035 7.09608H8.03509L8.14035 6.96617H8.03509L7.98246 7.01488C7.94737 7.04736 7.92982 7.07443 7.92982 7.09608L7.98246 7.11231H7.92982C7.92982 7.13396 7.92398 7.1502 7.91228 7.16103C7.91228 7.16103 7.91228 7.15562 7.91228 7.14479C7.90059 7.13396 7.89474 7.12314 7.89474 7.11231H7.80702L7.89474 7.1935V7.25846H7.92982L7.75439 7.30717V7.33965C7.75439 7.39378 7.73099 7.42084 7.68421 7.42084V7.45331V7.53451H7.66667H7.5614H7.52632C7.52632 7.48038 7.51462 7.43708 7.49123 7.4046C7.46784 7.3613 7.45029 7.33965 7.4386 7.33965H7.35088L7.4386 7.30717C7.45029 7.30717 7.47953 7.29093 7.52632 7.25846C7.54971 7.22598 7.5614 7.20433 7.5614 7.1935C7.5731 7.18268 7.60819 7.15562 7.66667 7.11231C7.67836 7.11231 7.68421 7.11231 7.68421 7.11231C7.68421 7.10149 7.67836 7.09608 7.66667 7.09608V7.03112C7.66667 6.99865 7.64912 6.977 7.61404 6.96617C7.57895 6.95535 7.5614 6.93369 7.5614 6.90122V6.88498H7.52632V6.90122C7.50292 6.90122 7.47953 6.91204 7.45614 6.93369C7.44444 6.94452 7.4386 6.95535 7.4386 6.96617L7.35088 7.03112V7.09608V7.11231H7.29825V7.1935H7.17544V7.25846H7.10526C7.09357 7.21516 7.06433 7.1935 7.01754 7.1935H6.94737C6.94737 7.29093 6.91813 7.33965 6.85965 7.33965V7.42084H6.80702V7.45331V7.53451L6.68421 7.63194V7.68065L6.57895 7.84303L6.49123 7.9567L6.63158 8.07036H6.68421C6.7076 8.07036 6.7193 8.09743 6.7193 8.15156V8.18403C6.69591 8.18403 6.68421 8.20027 6.68421 8.23275V8.26522V8.2977H6.80702H6.85965V8.36265C6.85965 8.3843 6.8538 8.40054 6.84211 8.41137C6.83041 8.42219 6.78947 8.44926 6.7193 8.49256V8.5088H6.68421V8.57375V8.6387H6.7193V8.65494H6.85965V8.71989C6.91813 8.71989 6.94737 8.73613 6.94737 8.76861H7.01754H7.08772V8.8498H7.01754V8.88227H7.08772H7.17544L7.22807 8.8498H7.29825L7.68421 8.94723L7.75439 8.88227L7.80702 8.94723V8.9797H7.89474H7.92982C7.92982 8.95805 7.94737 8.94723 7.98246 8.94723H8.03509V8.9797L8.14035 8.94723V8.9797V9.06089C8.22222 9.06089 8.26316 9.09337 8.26316 9.15832H8.35088H8.45614V9.1908V9.28823H8.68421C8.7076 9.28823 8.7193 9.29364 8.7193 9.30447C8.73099 9.30447 8.74854 9.30447 8.77193 9.30447C8.77193 9.33694 8.78363 9.35859 8.80702 9.36942C8.83041 9.36942 8.8538 9.36942 8.87719 9.36942C8.95906 9.36942 9.02924 9.40731 9.08772 9.48308V9.51556C9.09942 9.51556 9.10526 9.52639 9.10526 9.54804C9.11696 9.56969 9.14035 9.58051 9.17544 9.58051L9.24561 9.61299V9.58051L9.42105 9.69418L9.54386 9.61299V9.72666L9.70175 9.79161V9.82409C9.70175 9.89986 9.65497 9.96482 9.5614 10.0189H9.61404C9.61404 10.0189 9.62573 10.0244 9.64912 10.0352H9.66667V10.0839C9.66667 10.1055 9.67836 10.1164 9.70175 10.1164C9.70175 10.138 9.70175 10.1543 9.70175 10.1651C9.71345 10.1651 9.73684 10.1867 9.77193 10.23H9.78947H9.89474V10.1976C9.89474 10.1651 9.90643 10.1488 9.92983 10.1488L10 10.1164C10 10.138 10.0117 10.1488 10.0351 10.1488C10.0468 10.1488 10.0585 10.1543 10.0702 10.1651C10.1053 10.1976 10.1228 10.2192 10.1228 10.23C10.1228 10.23 10.1287 10.2355 10.1404 10.2463H10.2632L10.3509 10.3112V10.3762H10.5789H10.8772C10.8772 10.3654 10.8889 10.3491 10.9123 10.3275C10.924 10.3275 10.9415 10.3221 10.9649 10.3112C10.9649 10.2896 10.9708 10.2733 10.9825 10.2625L11 10.2463V10.23H11.0702V10.2463C11.0702 10.3221 11.117 10.3762 11.2105 10.4087L11.2281 10.4249C11.2281 10.4357 11.2281 10.4465 11.2281 10.4574C11.2398 10.4574 11.2456 10.4682 11.2456 10.4899C11.269 10.4899 11.2924 10.4953 11.3158 10.5061C11.3392 10.5061 11.3626 10.5061 11.386 10.5061C11.4094 10.5169 11.4327 10.5223 11.4561 10.5223V10.6035H11.5439V10.4899H11.7018H11.7544C11.7544 10.4465 11.7602 10.4249 11.7719 10.4249C11.7836 10.4249 11.7895 10.4465 11.7895 10.4899C11.883 10.4899 11.9298 10.4628 11.9298 10.4087C11.9766 10.387 12.0409 10.3762 12.1228 10.3762H12.2456C12.3392 10.3762 12.4094 10.387 12.4561 10.4087C12.5614 10.3654 12.6257 10.3924 12.6491 10.4899C12.6374 10.5007 12.6374 10.5061 12.6491 10.5061C12.6491 10.5169 12.6725 10.5223 12.7193 10.5223C12.7193 10.5007 12.7427 10.4899 12.7895 10.4899H12.8596C12.8713 10.5115 12.8772 10.5115 12.8772 10.4899H12.9649L13.1053 10.6035C13.1637 10.5602 13.2105 10.5548 13.2456 10.5873C13.2807 10.6089 13.3099 10.6414 13.3333 10.6847C13.3567 10.6847 13.3743 10.6901 13.386 10.7009C13.4094 10.7009 13.4269 10.7009 13.4386 10.7009L13.4561 10.7172C13.4912 10.7172 13.5205 10.728 13.5439 10.7497C13.5789 10.7821 13.6199 10.8092 13.6667 10.8309C13.6667 10.8417 13.6725 10.8525 13.6842 10.8633C13.6842 10.8742 13.6842 10.8742 13.6842 10.8633C13.6959 10.8633 13.7018 10.8525 13.7018 10.8309H13.7544H13.9825C13.9825 10.7984 14 10.7821 14.0351 10.7821H14.1228L14.1579 10.912C14.2047 10.9337 14.2456 10.9445 14.2807 10.9445H14.3684H14.4035C14.4971 11.0095 14.5439 11.0095 14.5439 10.9445C14.5789 10.9445 14.5965 10.9391 14.5965 10.9283C14.6082 10.9175 14.6257 10.9229 14.6491 10.9445C14.6725 10.9445 14.6959 10.9445 14.7193 10.9445C14.7544 10.9553 14.7719 10.9878 14.7719 11.0419H14.8597V11.1394C14.9064 11.1394 14.9474 11.1231 14.9825 11.0907C14.9942 11.0798 15.0058 11.0636 15.0175 11.0419C15.0175 11.0095 15.0351 10.9932 15.0702 10.9932H15.0877V10.977C15.0877 10.977 15.0936 10.9662 15.1053 10.9445H15.193C15.2866 10.9229 15.3333 10.885 15.3333 10.8309V10.7821H15.5439V10.7172C15.5439 10.6955 15.5789 10.6847 15.6491 10.6847L15.7018 10.6035H15.7719L15.807 10.7821L15.7018 10.8309C15.7368 10.8309 15.7544 10.8417 15.7544 10.8633C15.7661 10.8958 15.7836 10.912 15.807 10.912C15.8304 10.912 15.8538 10.9012 15.8772 10.8796C15.8889 10.8687 15.8947 10.8525 15.8947 10.8309C15.8713 10.82 15.8538 10.8092 15.8421 10.7984C15.8187 10.7767 15.807 10.7497 15.807 10.7172C15.807 10.7172 15.8187 10.6955 15.8421 10.6522L15.8947 10.6035H15.9123L15.9825 10.6847H16.193C16.193 10.7064 16.2047 10.7172 16.2281 10.7172H16.2807C16.2807 10.7605 16.2866 10.7821 16.2982 10.7821C16.2982 10.793 16.3041 10.793 16.3158 10.7821L16.3684 10.7172L16.3158 10.6847V10.6035H16.2807H16.3158C16.3743 10.5602 16.4269 10.5548 16.4737 10.5873C16.5205 10.6089 16.5673 10.6414 16.614 10.6847C16.614 10.7064 16.6199 10.7226 16.6316 10.7334C16.6433 10.7334 16.6491 10.7497 16.6491 10.7821C16.6959 10.8038 16.7251 10.82 16.7368 10.8309C16.7602 10.8417 16.7602 10.8687 16.7368 10.912H16.7719C16.8304 10.912 16.883 10.8958 16.9298 10.8633C16.9766 10.8309 17.0234 10.8038 17.0702 10.7821C17.0936 10.7821 17.1228 10.7821 17.1579 10.7821C17.193 10.793 17.2164 10.8092 17.2281 10.8309V10.912C17.2749 10.912 17.3041 10.9229 17.3158 10.9445V10.9932C17.3158 11.0149 17.3158 11.0257 17.3158 11.0257C17.3275 11.0365 17.3626 11.0419 17.4211 11.0419C17.4211 11.0961 17.4269 11.1231 17.4386 11.1231C17.462 11.1231 17.4737 11.0961 17.4737 11.0419H17.5263H17.5614C17.6433 10.9986 17.7135 10.9986 17.7719 11.0419C17.7719 11.0961 17.7719 11.1231 17.7719 11.1231C17.7719 11.1231 17.7778 11.0961 17.7895 11.0419H18.0175C18.0526 11.0961 18.076 11.1231 18.0877 11.1231C18.0994 11.134 18.1228 11.1394 18.1579 11.1394H18.1754H18.3158H18.386C18.386 11.0852 18.386 11.0528 18.386 11.0419C18.386 11.0419 18.3977 11.0419 18.4211 11.0419H18.6316C18.6316 11.0961 18.6316 11.1231 18.6316 11.1231C18.6316 11.134 18.6374 11.1394 18.6491 11.1394H18.7368H18.7719H18.9649L18.9825 11.1556C18.9825 11.1664 18.9825 11.1719 18.9825 11.1719C18.9942 11.1827 19 11.1989 19 11.2206H19.0526H19.1053L19.2105 11.253H19.2982L19.3158 11.2693C19.3392 11.2909 19.3509 11.3126 19.3509 11.3342C19.4094 11.3559 19.4444 11.3667 19.4561 11.3667H19.5614C19.6199 11.3667 19.6491 11.3721 19.6491 11.383C19.6608 11.4046 19.6725 11.4154 19.6842 11.4154C19.6725 11.4263 19.6725 11.4371 19.6842 11.4479C19.6842 11.4587 19.7076 11.4641 19.7544 11.4641L19.8421 11.3667V11.4641H19.8947V11.5616C19.8947 11.5724 19.8947 11.5886 19.8947 11.6103C19.8947 11.6319 19.9064 11.6428 19.9298 11.6428C19.9532 11.6428 19.9649 11.659 19.9649 11.6915L20.0526 11.5778H20.0877C20.1228 11.5778 20.1404 11.5724 20.1404 11.5616H20.1754C20.2222 11.5616 20.269 11.5616 20.3158 11.5616C20.3626 11.5616 20.3977 11.567 20.4211 11.5778C20.4678 11.6103 20.5088 11.6265 20.5439 11.6265C20.5906 11.6373 20.6199 11.6428 20.6316 11.6428C20.6784 11.6428 20.7251 11.6428 20.7719 11.6428C20.8187 11.6536 20.8538 11.6698 20.8772 11.6915H20.9649V11.6428H21H21.0877C21.0877 11.6752 21.0936 11.6915 21.1053 11.6915C21.1053 11.7348 21.1053 11.7564 21.1053 11.7564C21.117 11.7673 21.152 11.7727 21.2105 11.7727H21.2456C21.269 11.7294 21.3041 11.7185 21.3509 11.7402C21.4094 11.7618 21.4503 11.7727 21.4737 11.7727C21.5088 11.7727 21.5322 11.7673 21.5439 11.7564C21.5673 11.7564 21.6082 11.7348 21.6667 11.6915H21.8246C21.8363 11.6915 21.8538 11.7023 21.8772 11.724C21.9123 11.7564 21.9415 11.7781 21.9649 11.7889L21.9123 11.8701L21.8421 11.9188C21.8421 11.9296 21.8363 11.935 21.8246 11.935C21.8246 11.9459 21.8246 11.9567 21.8246 11.9675V11.9838H21.6842H21.6667C21.6082 11.9838 21.5731 11.9729 21.5614 11.9513C21.5614 11.9296 21.5556 11.9188 21.5439 11.9188H21.4737L21.5439 12H21.3333V11.9838L21.2456 12C21.2456 11.9892 21.2339 11.9729 21.2105 11.9513C21.1988 11.9405 21.1637 11.9513 21.1053 11.9838C21.0936 11.9838 21.0702 11.9783 21.0351 11.9675C21.0117 11.9675 21 11.9513 21 11.9188C20.9766 11.8863 20.9357 11.8701 20.8772 11.8701H20.7193H20.6316H20.614H20.4211H20.386L20.3158 11.9188H20.2632V11.9838L20.1754 11.9188H20.1404H20.0526H19.9649H19.8421H19.7544L19.6842 11.8701C19.6842 11.8593 19.6784 11.8484 19.6667 11.8376C19.6316 11.8051 19.5965 11.7889 19.5614 11.7889L19.5263 11.7727C19.4795 11.7835 19.4211 11.7835 19.3509 11.7727H19.2982C19.2515 11.7727 19.2281 11.7618 19.2281 11.7402C19.2164 11.7294 19.2164 11.7131 19.2281 11.6915H19.2105V11.5616C19.1871 11.5616 19.1696 11.5562 19.1579 11.5453C19.1228 11.5345 19.1053 11.5074 19.1053 11.4641C19.0819 11.4641 19.0585 11.4587 19.0351 11.4479C19.0117 11.4371 19 11.4425 19 11.4641C18.9766 11.4641 18.9474 11.4533 18.9123 11.4317C18.8889 11.4208 18.8655 11.4154 18.8421 11.4154C18.7953 11.3829 18.7602 11.3667 18.7368 11.3667H18.6491H18.6316C18.5965 11.3884 18.5614 11.3938 18.5263 11.383C18.5029 11.3721 18.4678 11.3667 18.4211 11.3667C18.3275 11.3342 18.2807 11.3342 18.2807 11.3667H18.1754L18.1579 11.3342C18.1228 11.3342 18.0877 11.318 18.0526 11.2855C18.0292 11.2639 18.0117 11.2422 18 11.2206C17.9532 11.2206 17.9181 11.2314 17.8947 11.253C17.883 11.253 17.8655 11.2585 17.8421 11.2693C17.7953 11.2909 17.7719 11.3126 17.7719 11.3342C17.7368 11.3342 17.7135 11.3288 17.7018 11.318C17.6901 11.318 17.6725 11.2963 17.6491 11.253H17.5614H17.5263V11.3342V11.3667C17.5029 11.3884 17.4737 11.41 17.4386 11.4317C17.4152 11.4533 17.3743 11.4641 17.3158 11.4641H17.2982L17.2632 11.4966C17.2398 11.5183 17.2281 11.5074 17.2281 11.4641C17.2164 11.4641 17.2105 11.4479 17.2105 11.4154H17.1053H17.0702V11.3667V11.3342L17.0175 11.253V11.1394H16.9825H16.8421C16.7719 11.1394 16.7368 11.1664 16.7368 11.2206C16.5497 11.253 16.4269 11.226 16.3684 11.1394H16.3158H16.2807V11.2206H16.193L16.2807 11.3342C16.1871 11.3342 16.1871 11.3613 16.2807 11.4154V11.4641V11.5616H16.193L16.2807 11.5778L16.1404 11.6915H15.9825C15.9825 11.7456 15.9591 11.7727 15.9123 11.7727V11.6915C15.9006 11.6915 15.8947 11.6752 15.8947 11.6428L15.807 11.5616C15.8538 11.4858 15.8772 11.4371 15.8772 11.4154C15.8772 11.4046 15.8538 11.3884 15.807 11.3667L15.6491 11.4154C15.6491 11.3938 15.6491 11.3721 15.6491 11.3505C15.6608 11.3288 15.6784 11.2963 15.7018 11.253H15.7719L15.7018 11.2206C15.7018 11.2422 15.6901 11.253 15.6667 11.253H15.6491V11.2206H15.5614C15.5497 11.2747 15.5322 11.2909 15.5088 11.2693C15.4854 11.2585 15.462 11.2422 15.4386 11.2206C15.4152 11.2206 15.3977 11.2206 15.386 11.2206C15.3743 11.2314 15.3626 11.2368 15.3509 11.2368L15.3333 11.253V11.3667H15.3158H15.2456C15.2222 11.3884 15.193 11.3992 15.1579 11.3992C15.1228 11.41 15.0936 11.4154 15.0702 11.4154H15.0175C15.0175 11.3829 15 11.3829 14.9649 11.4154C14.9064 11.4154 14.8713 11.4046 14.8597 11.383C14.848 11.3721 14.8187 11.3667 14.7719 11.3667C14.7368 11.3884 14.7018 11.4046 14.6667 11.4154C14.6433 11.4263 14.6023 11.4425 14.5439 11.4641L14.386 11.253L14.1579 11.3667V11.3342C14.1345 11.2909 14.1228 11.2585 14.1228 11.2368C14.1228 11.226 14.1228 11.1935 14.1228 11.1394H13.9825L13.9123 11.0419L13.7018 11.1394V11.0419V10.9932H13.4561H13.4386C13.4269 10.9932 13.4094 10.9986 13.386 11.0095C13.3743 11.0203 13.3567 11.0311 13.3333 11.0419L13.2982 10.9445L13.2105 11.1394V11.0419H13.1053V11.0257C13.1053 11.0041 13.0936 10.9932 13.0702 10.9932H13H12.9649V10.9445V10.912C12.9649 10.8687 12.9474 10.8417 12.9123 10.8309C12.8889 10.82 12.8713 10.8038 12.8596 10.7821C12.8246 10.7821 12.8012 10.7767 12.7895 10.7659C12.7778 10.7659 12.7544 10.7388 12.7193 10.6847H12.4912H12.4561H12.2281H12.1579H12.0351H12H11.8772L12 10.6035H11.9298L11.8772 10.6847L11.7895 10.6035L11.7018 10.7172V10.6035H11.6491C11.6491 10.6252 11.6316 10.6522 11.5965 10.6847C11.5731 10.6955 11.5556 10.7064 11.5439 10.7172C11.5088 10.7172 11.4854 10.7118 11.4737 10.7009C11.462 10.7009 11.4561 10.6955 11.4561 10.6847H11.3509C11.2807 10.6847 11.2339 10.6576 11.2105 10.6035H11.1228C11.0994 10.6468 11.0643 10.6739 11.0175 10.6847C10.9708 10.6847 10.924 10.6847 10.8772 10.6847H10.8421H10.7719L10.6667 10.6035L10.614 10.6847L10.5789 10.6035H10.4561C10.4444 10.6035 10.4327 10.5981 10.4211 10.5873C10.3977 10.5656 10.386 10.544 10.386 10.5223H10.3509H10.2632C10.2164 10.5223 10.1871 10.5169 10.1754 10.5061C10.1637 10.5061 10.152 10.5007 10.1404 10.4899H10.1228C10.0643 10.5115 10.0175 10.5169 9.98246 10.5061C9.94737 10.4953 9.91813 10.4899 9.89474 10.4899H9.78947V10.4574C9.78947 10.4574 9.78363 10.4465 9.77193 10.4249V10.4087C9.76023 10.4087 9.75439 10.4032 9.75439 10.3924C9.74269 10.3924 9.73684 10.3924 9.73684 10.3924C9.73684 10.3816 9.72515 10.3762 9.70175 10.3762H9.66667L9.5614 10.3112L9.47368 10.4087C9.4386 10.387 9.39181 10.3762 9.33333 10.3762H9.24561V10.3112L9.17544 10.4087L9.01754 10.4899L8.92982 10.3762L8.87719 10.4087L8.77193 10.3112H8.84211L8.7193 10.23H8.68421H8.59649C8.50292 10.23 8.45614 10.203 8.45614 10.1488C8.42105 10.0947 8.36842 10.0785 8.29825 10.1001C8.23977 10.111 8.18714 10.1164 8.14035 10.1164L8.03509 10.0352C7.97661 10.0785 7.93567 10.0893 7.91228 10.0677C7.90059 10.046 7.8655 10.0298 7.80702 10.0189V9.98647C7.80702 9.96482 7.78947 9.95399 7.75439 9.95399C7.75439 9.92152 7.74269 9.90528 7.7193 9.90528H7.68421V9.82409H7.66667L7.75439 9.69418H7.80702H7.92982H8.03509H8.14035V9.61299C8.14035 9.59134 8.1345 9.58051 8.12281 9.58051C8.12281 9.58051 8.09357 9.59134 8.03509 9.61299H7.98246H7.92982L7.80702 9.51556L7.75439 9.58051L7.66667 9.48308L7.52632 9.58051L7.45614 9.51556C7.45614 9.58051 7.45029 9.61299 7.4386 9.61299C7.4386 9.65629 7.40936 9.67794 7.35088 9.67794C7.30409 9.67794 7.26316 9.65629 7.22807 9.61299C7.20468 9.61299 7.17544 9.60758 7.14035 9.59675C7.11696 9.58593 7.09942 9.58051 7.08772 9.58051C7.07602 9.59134 7.06433 9.59134 7.05263 9.58051C7.02924 9.58051 7.01754 9.55886 7.01754 9.51556L6.94737 9.48308L7.08772 9.38566C7.08772 9.38566 7.07602 9.38024 7.05263 9.36942H7.01754H6.94737H6.85965C6.83626 9.36942 6.80702 9.35318 6.77193 9.3207C6.73684 9.28823 6.7193 9.24493 6.7193 9.1908V9.15832L6.63158 9.1908V9.09337H6.49123H6.47368H6.35088L6.33333 9.07713C6.32164 9.07713 6.30994 9.07713 6.29825 9.07713C6.29825 9.06631 6.28655 9.06089 6.26316 9.06089V8.9797V8.94723H6.35088C6.37427 8.94723 6.38597 8.9364 6.38597 8.91475V8.88227V8.8498V8.76861V8.71989C6.36257 8.71989 6.35088 8.73613 6.35088 8.76861C6.32749 8.76861 6.30994 8.77402 6.29825 8.78484C6.27485 8.8065 6.26316 8.82815 6.26316 8.8498C6.1579 8.8498 6.10526 8.82273 6.10526 8.76861H6.01754C5.97076 8.74696 5.92982 8.73072 5.89474 8.71989C5.87135 8.70907 5.83041 8.68742 5.77193 8.65494L5.70175 8.71989C5.69006 8.71989 5.66082 8.70907 5.61404 8.68742C5.57895 8.66576 5.54971 8.64953 5.52632 8.6387L5.47368 8.57375H5.4386H5.35088C5.25731 8.51962 5.16374 8.51962 5.07018 8.57375L5.12281 8.6387L4.94737 8.71989L4.91228 8.65494C4.91228 8.69824 4.88889 8.71989 4.84211 8.71989V8.75237C4.84211 8.76319 4.83626 8.76861 4.82456 8.76861L4.7193 8.71989C4.69591 8.68742 4.67836 8.66576 4.66667 8.65494C4.66667 8.64411 4.64912 8.6387 4.61404 8.6387L4.57895 8.57375C4.52047 8.57375 4.47953 8.56292 4.45614 8.54127C4.44444 8.53045 4.4386 8.51421 4.4386 8.49256V8.36265L4.36842 8.2977C4.35673 8.27605 4.34503 8.2544 4.33333 8.23275C4.33333 8.20027 4.30994 8.18403 4.26316 8.18403H4.24561V8.15156L4.26316 8.07036H4.1579H4.12281H4.03509H4.01754H3.94737H3.89474H3.80702H3.70175H3.64912H3.5614C3.5614 8.09202 3.55556 8.10825 3.54386 8.11908C3.54386 8.11908 3.54386 8.12449 3.54386 8.13532V8.15156H3.50877C3.48538 8.15156 3.47368 8.16238 3.47368 8.18403H3.40351H3.33333V8.07036C3.32164 8.11367 3.30409 8.12449 3.2807 8.10284L3.24561 8.07036H3.17544H3.03509V8.18403H2.91228V8.15156C2.88889 8.17321 2.84795 8.18403 2.78947 8.18403C2.74269 8.18403 2.7076 8.18403 2.68421 8.18403H2.61404H2.57895C2.57895 8.20568 2.5731 8.22192 2.5614 8.23275C2.54971 8.23275 2.53801 8.23816 2.52632 8.24899C2.51462 8.25981 2.50292 8.26522 2.49123 8.26522H2.38597V8.18403C2.38597 8.20568 2.38012 8.22192 2.36842 8.23275C2.36842 8.23275 2.36842 8.23816 2.36842 8.24899V8.26522C2.36842 8.31935 2.34503 8.35183 2.29825 8.36265C2.26316 8.36265 2.21637 8.36265 2.15789 8.36265C2.15789 8.37348 2.15205 8.3843 2.14035 8.39513V8.41137H2.12281C2.07602 8.45467 2.04678 8.48173 2.03509 8.49256C2.03509 8.49256 2.03509 8.49797 2.03509 8.5088C1.9883 8.5954 1.91228 8.6387 1.80702 8.6387H1.70175H1.64912H1.57895H1.52632C1.47953 8.64953 1.44444 8.65494 1.42105 8.65494H1.38596L1.35088 8.68742C1.32749 8.70907 1.30409 8.71989 1.2807 8.71989H1.17544C1.16374 8.71989 1.15205 8.71989 1.14035 8.71989C1.14035 8.70907 1.12281 8.68742 1.08772 8.65494H0.947368C0.935672 8.65494 0.923977 8.65494 0.912281 8.65494C0.912281 8.64411 0.894737 8.6387 0.859649 8.6387C0.730994 8.58457 0.608187 8.58457 0.491228 8.6387H0.333333C0.333333 8.64953 0.31579 8.65494 0.280702 8.65494H0.245614H0.0877193H0C0.0233918 8.60081 0.0526316 8.57375 0.0877193 8.57375V8.49256H0.157895V8.5088C0.251462 8.58457 0.327485 8.58457 0.385965 8.5088C0.421053 8.49797 0.450292 8.48173 0.473684 8.46008C0.497076 8.4276 0.532164 8.41137 0.578947 8.41137C0.578947 8.38972 0.590643 8.37348 0.614035 8.36265C0.637427 8.35183 0.666667 8.33018 0.701754 8.2977C0.701754 8.2977 0.707602 8.28687 0.719298 8.26522H0.859649C0.847953 8.2544 0.847953 8.24357 0.859649 8.23275C0.859649 8.20027 0.883041 8.18403 0.929824 8.18403C0.883041 8.16238 0.847953 8.15156 0.824561 8.15156H0.719298H0.701754V8.07036L0.859649 7.98917V8.07036H0.929824H0.947368V7.98917L1.03509 8.07036H1.08772C1.12281 8.11367 1.1462 8.14073 1.15789 8.15156C1.18129 8.15156 1.22222 8.15156 1.2807 8.15156H1.31579C1.36257 8.15156 1.38596 8.12449 1.38596 8.07036H1.57895C1.63743 8.02706 1.67251 8.00541 1.68421 8.00541C1.7076 7.99459 1.74854 7.98917 1.80702 7.98917L1.89474 7.9567L1.91228 7.98917L2 7.89175L2.03509 7.9567C2.08187 7.92422 2.11696 7.90798 2.14035 7.90798C2.16374 7.89716 2.19298 7.89175 2.22807 7.89175V7.87551C2.22807 7.85386 2.24561 7.84303 2.2807 7.84303H2.36842V7.76184V7.72936C2.36842 7.69689 2.37427 7.66441 2.38597 7.63194L2.45614 7.68065H2.57895H2.61404H2.68421C2.7193 7.71313 2.73684 7.76725 2.73684 7.84303C2.78363 7.79973 2.80702 7.77808 2.80702 7.77808C2.81871 7.76725 2.83626 7.76184 2.85965 7.76184H2.94737C2.94737 7.74019 2.96491 7.72936 3 7.72936H3.07018L3.15789 7.76184C3.16959 7.74019 3.18713 7.72936 3.21053 7.72936C3.24561 7.71854 3.2807 7.7023 3.31579 7.68065C3.31579 7.64817 3.32164 7.63194 3.33333 7.63194L3.40351 7.53451L3.31579 7.42084L3.17544 7.30717H3.15789C3.1345 7.30717 3.10526 7.29093 3.07018 7.25846C3.04678 7.25846 3.02339 7.26387 3 7.2747C2.95322 7.29635 2.92398 7.318 2.91228 7.33965L2.82456 7.30717L2.73684 7.42084L2.68421 7.30717C2.67251 7.318 2.66667 7.32882 2.66667 7.33965C2.65497 7.35047 2.64912 7.3613 2.64912 7.37212C2.64912 7.38295 2.63743 7.39919 2.61404 7.42084H2.57895L2.45614 7.30717L2.57895 7.25846L2.45614 7.1935L2.68421 7.09608V7.11231H2.73684H2.85965H2.91228H2.94737C3.00585 7.11231 3.04678 7.1069 3.07018 7.09608H3.15789C3.15789 7.1069 3.16374 7.11231 3.17544 7.11231C3.21053 7.11231 3.23392 7.11231 3.24561 7.11231C3.25731 7.10149 3.2807 7.09608 3.31579 7.09608H3.47368C3.50877 7.0636 3.52632 7.03654 3.52632 7.01488C3.53801 6.98241 3.54971 6.96617 3.5614 6.96617L3.64912 6.90122V6.88498L3.70175 6.90122C3.74854 6.90122 3.77193 6.89581 3.77193 6.88498C3.78363 6.88498 3.79532 6.87957 3.80702 6.86874C3.83041 6.84709 3.85965 6.83627 3.89474 6.83627V6.75507C3.92982 6.75507 3.94737 6.74966 3.94737 6.73884V6.7226V6.64141H4.01754V6.52774L4.03509 6.56022L4.12281 6.64141H4.1579H4.24561V6.67388H4.35088V6.7226L4.36842 6.67388H4.40351C4.4269 6.67388 4.4386 6.66306 4.4386 6.64141V6.56022H4.49123C4.54971 6.56022 4.59064 6.54939 4.61404 6.52774L4.7193 6.56022C4.80117 6.53857 4.84211 6.53857 4.84211 6.56022H4.91228C4.91228 6.50609 4.93567 6.47361 4.98246 6.46279C5.02924 6.45196 5.05848 6.44655 5.07018 6.44655H5.12281H5.19298H5.22807V6.43031L5.31579 6.34912H5.35088C5.35088 6.31664 5.36257 6.30041 5.38597 6.30041H5.4386C5.46199 6.32206 5.49123 6.33829 5.52632 6.34912C5.5731 6.34912 5.62573 6.34912 5.68421 6.34912H5.77193C5.79532 6.27334 5.77193 6.23004 5.70175 6.21921V6.13802C5.73684 6.11637 5.76023 6.10555 5.77193 6.10555C5.79532 6.09472 5.83626 6.08931 5.89474 6.08931V6.02436C5.89474 6.01353 5.88889 6.00271 5.87719 5.99188L5.78947 5.91069L5.89474 5.87821C5.91813 5.84574 5.94152 5.8295 5.96491 5.8295C5.9883 5.81867 6 5.80785 6 5.79702C6.0117 5.79702 6.03509 5.78078 6.07018 5.74831C6.10526 5.71583 6.1345 5.69959 6.15789 5.69959V5.79702H6.26316V5.81326V5.79702H6.35088V5.69959V5.79702C6.37427 5.79702 6.38597 5.80244 6.38597 5.81326C6.38597 5.80244 6.38597 5.79702 6.38597 5.79702C6.39766 5.7862 6.4269 5.75372 6.47368 5.69959V5.71583C6.47368 5.72666 6.47368 5.73748 6.47368 5.74831C6.48538 5.75913 6.49123 5.77537 6.49123 5.79702C6.54971 5.79702 6.57895 5.80244 6.57895 5.81326V5.99188H6.63158L6.68421 5.87821C6.80117 5.87821 6.88304 5.85656 6.92983 5.81326C6.92983 5.80244 6.93567 5.78078 6.94737 5.74831C6.95906 5.71583 6.98246 5.69959 7.01754 5.69959H7.08772H7.10526C7.16374 5.67794 7.20468 5.66712 7.22807 5.66712C7.25146 5.65629 7.2924 5.65088 7.35088 5.65088L7.45614 5.60216H7.52632C7.54971 5.58051 7.5614 5.56969 7.5614 5.56969C7.5731 5.56969 7.60819 5.58051 7.66667 5.60216H7.68421C7.73099 5.60216 7.75439 5.6184 7.75439 5.65088H7.80702C7.90059 5.59675 7.97661 5.59675 8.03509 5.65088V5.69959L8.14035 5.65088C8.14035 5.6184 8.16959 5.60216 8.22807 5.60216H8.26316L8.22807 5.4885L8.45614 5.37483V5.45602C8.46784 5.46685 8.47953 5.47226 8.49123 5.47226C8.50292 5.48309 8.53801 5.4885 8.59649 5.4885H8.68421H8.77193C8.81871 5.46685 8.87135 5.45602 8.92982 5.45602V5.37483H9.01754V5.35859C9.07602 5.36942 9.10526 5.36942 9.10526 5.35859C9.10526 5.31529 9.11696 5.30447 9.14035 5.32612C9.17544 5.34777 9.21053 5.35859 9.24561 5.35859C9.25731 5.35859 9.26901 5.35318 9.2807 5.34235C9.30409 5.3207 9.31579 5.29905 9.31579 5.2774C9.32749 5.2774 9.35088 5.2774 9.38597 5.2774C9.42105 5.26658 9.45029 5.26116 9.47368 5.26116H9.54386L9.5614 5.17997C9.67836 5.11502 9.78947 5.11502 9.89474 5.17997H9.92983C9.96491 5.1475 9.9883 5.14208 10 5.16373C10.0234 5.18539 10.0351 5.21786 10.0351 5.26116C10.0936 5.26116 10.1287 5.26658 10.1404 5.2774H10.2105C10.2339 5.26658 10.269 5.26116 10.3158 5.26116C10.3743 5.25034 10.4211 5.22327 10.4561 5.17997C10.4561 5.13667 10.4971 5.10961 10.5789 5.09878H10.614H10.6667V5.03383C10.7018 5.01218 10.7602 5.00135 10.8421 5.00135H10.8772V4.92016L10.9649 5.00135L11.1228 4.88769V4.82273H11.2982H11.3509H11.4561H11.3509L11.2456 4.77402V4.69283V4.61164C11.2456 4.58999 11.2515 4.56292 11.2632 4.53045C11.2866 4.49797 11.2982 4.47632 11.2982 4.46549V4.43302C11.2982 4.40054 11.3158 4.3843 11.3509 4.3843V4.35183C11.3509 4.341 11.3567 4.32476 11.3684 4.30311C11.3918 4.25981 11.4211 4.23816 11.4561 4.23816H11.5439V4.27064C11.6023 4.27064 11.6316 4.27605 11.6316 4.28687C11.6433 4.28687 11.6491 4.30852 11.6491 4.35183C11.6842 4.35183 11.7018 4.38972 11.7018 4.46549H11.7544H11.7895H11.8772C11.8772 4.46549 11.8889 4.47091 11.9123 4.48173H11.9298C11.9181 4.50338 11.9181 4.51962 11.9298 4.53045C11.9298 4.5521 11.9532 4.56292 12 4.56292H12.0351H12.1228V4.67659C12.1462 4.64411 12.1696 4.62788 12.193 4.62788C12.2164 4.61705 12.2339 4.61164 12.2456 4.61164C12.2456 4.65494 12.2573 4.66576 12.2807 4.64411C12.2924 4.64411 12.3099 4.63329 12.3333 4.61164C12.3918 4.58999 12.4444 4.57916 12.4912 4.57916C12.538 4.56834 12.5906 4.56292 12.6491 4.56292H12.7193C12.7544 4.58457 12.7836 4.60081 12.807 4.61164C12.8421 4.61164 12.8655 4.61164 12.8772 4.61164C12.8772 4.57916 12.8889 4.56292 12.9123 4.56292H12.9649H13.0702H13.1053V4.61164C13.1053 4.62246 13.1111 4.63329 13.1228 4.64411C13.1462 4.66576 13.1754 4.67659 13.2105 4.67659L13.2281 4.61164H13.2982V4.67659H13.3333C13.3918 4.67659 13.4211 4.67659 13.4211 4.67659C13.4327 4.66576 13.4386 4.64411 13.4386 4.61164H13.4561C13.4561 4.58999 13.4678 4.57375 13.4912 4.56292C13.5263 4.5521 13.5556 4.52503 13.5789 4.48173H13.6667H13.5789V4.46549V4.3843H13.6667C13.6667 4.43843 13.6784 4.46549 13.7018 4.46549C13.7251 4.47632 13.7485 4.49797 13.7719 4.53045C13.807 4.5521 13.848 4.56292 13.8947 4.56292H13.9123L14.1228 4.3843C14.1813 4.3843 14.2164 4.3843 14.2281 4.3843C14.2515 4.3843 14.2982 4.37348 14.3684 4.35183L14.386 4.3843L14.5439 4.27064L14.4737 4.23816L14.386 4.35183L14.4035 4.23816V4.18944C14.3918 4.18944 14.3918 4.18403 14.4035 4.17321C14.4035 4.15156 14.4269 4.14073 14.4737 4.14073L14.5439 4.0433C14.5906 4.03248 14.614 4.00541 14.614 3.96211L14.6491 3.94587L14.7018 4.02706L14.7719 3.96211C14.7719 3.96211 14.7836 3.9567 14.807 3.94587H14.8597V3.84844C14.9181 3.84844 14.9474 3.84844 14.9474 3.84844C14.9591 3.84844 14.9649 3.83762 14.9649 3.81597L15.0175 3.75101C15.0526 3.74019 15.0819 3.73478 15.1053 3.73478H15.1404C15.1404 3.73478 15.152 3.74019 15.1754 3.75101H15.193H15.2456V3.81597H15.3158L15.2456 3.84844L15.3158 3.94587L15.3333 3.84844L15.4386 4.02706C15.462 3.99459 15.4795 3.97835 15.4912 3.97835C15.5146 3.96752 15.5088 3.9567 15.4737 3.94587V3.84844C15.4971 3.84844 15.5146 3.84303 15.5263 3.83221L15.5439 3.81597V3.75101C15.5556 3.74019 15.5673 3.71313 15.5789 3.66982C15.5906 3.62652 15.6316 3.60487 15.7018 3.60487H15.7719H15.807H15.9825H16.1228L16.1404 3.53992H16.193H16.3684H16.4211V3.60487C16.4211 3.62652 16.4094 3.65359 16.386 3.68606C16.3626 3.71854 16.3392 3.73478 16.3158 3.73478C16.3041 3.73478 16.2982 3.74019 16.2982 3.75101C16.2982 3.77267 16.3041 3.79432 16.3158 3.81597H16.2807V3.84844H16.3684L16.4211 3.94587C16.4795 3.89175 16.5146 3.86468 16.5263 3.86468C16.538 3.86468 16.5673 3.89175 16.614 3.94587V3.84844H16.6491H16.7368V3.94587L16.6491 3.96211V4.02706L16.7719 3.96211L16.7368 4.0433C16.6901 4.09743 16.6608 4.12991 16.6491 4.14073C16.6491 4.15156 16.6491 4.16779 16.6491 4.18944C16.7076 4.18944 16.7427 4.20027 16.7544 4.22192C16.7778 4.23275 16.807 4.23816 16.8421 4.23816V4.27064C16.8655 4.27064 16.8947 4.26522 16.9298 4.2544C16.9649 4.23275 16.9825 4.2111 16.9825 4.18944V4.14073V4.0433C17.0058 4.0433 17.0175 4.04871 17.0175 4.05954C17.0292 4.05954 17.0468 4.0866 17.0702 4.14073H17.1053V4.0433H17.1228C17.1345 4.0433 17.1462 4.0433 17.1579 4.0433C17.1696 4.03248 17.1871 4.02706 17.2105 4.02706C17.2222 4.03789 17.2398 4.03789 17.2632 4.02706C17.2866 4.01624 17.3041 3.99459 17.3158 3.96211C17.3158 3.95129 17.3333 3.94587 17.3684 3.94587C17.4152 3.94587 17.4503 3.94587 17.4737 3.94587H17.5263H17.5614H17.6491H17.7018C17.6901 3.93505 17.6901 3.91881 17.7018 3.89716C17.7018 3.86468 17.7251 3.84844 17.7719 3.84844C17.7836 3.84844 17.7895 3.86468 17.7895 3.89716C17.8012 3.92963 17.8363 3.95129 17.8947 3.96211C17.9181 3.96211 17.9298 3.9567 17.9298 3.94587C17.9649 3.94587 17.9825 3.94587 17.9825 3.94587C17.9942 3.93505 18 3.90257 18 3.84844L18.0175 3.81597V3.84844H18.0877H18.2807H18.2982C18.2982 3.84844 18.3041 3.83762 18.3158 3.81597C18.3158 3.78349 18.3275 3.76725 18.3509 3.76725C18.3743 3.75643 18.3977 3.75101 18.4211 3.75101C18.4795 3.75101 18.5263 3.7456 18.5614 3.73478C18.5614 3.71313 18.5731 3.69147 18.5965 3.66982C18.6082 3.659 18.6199 3.65359 18.6316 3.65359H18.6491C18.6491 3.65359 18.6491 3.64817 18.6491 3.63735V3.60487C18.6491 3.59405 18.655 3.58322 18.6667 3.5724C18.6901 3.55074 18.7135 3.53992 18.7368 3.53992H18.7719C18.8304 3.59405 18.8947 3.59405 18.9649 3.53992C18.9649 3.52909 18.9708 3.52368 18.9825 3.52368C18.9942 3.51285 19 3.48038 19 3.42625C19.0351 3.39378 19.0585 3.37754 19.0702 3.37754H19.1053C19.1637 3.32341 19.193 3.29635 19.193 3.29635C19.2047 3.28552 19.2164 3.28011 19.2281 3.28011V3.23139L19.2982 3.28011C19.2982 3.33424 19.2982 3.36671 19.2982 3.37754C19.3099 3.37754 19.3275 3.37754 19.3509 3.37754H19.4386H19.4561H19.4912C19.5029 3.37754 19.5263 3.39378 19.5614 3.42625H19.6667C19.6667 3.4046 19.6725 3.38836 19.6842 3.37754C19.6959 3.36671 19.7193 3.33424 19.7544 3.28011L19.8421 3.23139H19.8772C19.8889 3.23139 19.9064 3.21516 19.9298 3.18268H19.9649C20.0468 3.18268 20.0877 3.17185 20.0877 3.1502C20.1111 3.1069 20.1228 3.07442 20.1228 3.05277C20.1345 3.03112 20.152 3.0203 20.1754 3.0203V2.93911H20.1404C20.117 2.88498 20.0936 2.85792 20.0702 2.85792C20.0585 2.84709 20.0526 2.83085 20.0526 2.8092H19.9649C19.9649 2.77672 19.9591 2.76049 19.9474 2.76049C19.9357 2.74966 19.9181 2.73884 19.8947 2.72801C19.8713 2.72801 19.8246 2.7659 19.7544 2.84168V2.93911L19.6842 2.84168H19.6667C19.5731 2.84168 19.5029 2.83085 19.4561 2.8092C19.4561 2.79838 19.4503 2.78755 19.4386 2.77673C19.4152 2.75507 19.386 2.74425 19.3509 2.74425C19.3509 2.73342 19.3333 2.72801 19.2982 2.72801C19.2982 2.74966 19.2339 2.74966 19.1053 2.72801H19.0526H19H18.8772C18.8538 2.72801 18.8363 2.72801 18.8246 2.72801C18.8246 2.71719 18.807 2.69012 18.7719 2.64682H18.7368H18.6491H18.5614L18.5088 2.50068V2.54939C18.462 2.54939 18.4327 2.56022 18.4211 2.58187C18.4211 2.60352 18.4094 2.61434 18.386 2.61434C18.3392 2.61434 18.269 2.65223 18.1754 2.72801H18.1579L18.0877 2.74425V2.54939H18.1579H18.1754C18.2339 2.54939 18.2632 2.54939 18.2632 2.54939C18.2749 2.53857 18.2807 2.52233 18.2807 2.50068V2.41949L18.3158 2.38701C18.2924 2.38701 18.2807 2.3816 18.2807 2.37077V2.33829C18.2222 2.31664 18.1871 2.28958 18.1754 2.2571C18.1754 2.22463 18.1696 2.20298 18.1579 2.19215L18.0877 2.20839C18.076 2.23004 18.0702 2.24628 18.0702 2.2571C18.0468 2.28958 18.0292 2.30582 18.0175 2.30582H18C18 2.25169 17.9942 2.22463 17.9825 2.22463C17.9825 2.2138 17.9649 2.20839 17.9298 2.20839L17.9123 2.19215H17.8947C17.8947 2.15967 17.8889 2.14344 17.8772 2.14344C17.8772 2.13261 17.848 2.1272 17.7895 2.1272C17.7778 2.1272 17.7544 2.1272 17.7193 2.1272C17.6842 2.11637 17.6316 2.10013 17.5614 2.07848V1.99729C17.5263 1.99729 17.5263 1.97023 17.5614 1.9161V1.85115H17.5263L17.4737 1.9161V1.94858C17.4737 1.9594 17.4561 1.96482 17.4211 1.96482C17.3626 1.96482 17.3275 1.97023 17.3158 1.98106C17.3158 1.99188 17.3099 1.99729 17.2982 1.99729C17.2982 2.05142 17.2749 2.07848 17.2281 2.07848V2.1272V2.07848H17.2105H17.1053C17.1053 2.05683 17.0994 2.04601 17.0877 2.04601C17.0877 2.03518 17.0877 2.02436 17.0877 2.01353L17.0702 1.99729V2.07848C17.0468 2.07848 17.0292 2.08931 17.0175 2.11096C17.0175 2.12179 17.0058 2.1272 16.9825 2.1272L16.9649 2.11096C16.9415 2.08931 16.9181 2.07848 16.8947 2.07848V1.99729H16.8421C16.807 2.06225 16.7778 2.10014 16.7544 2.11096C16.731 2.12179 16.6959 2.1272 16.6491 2.1272H16.614V2.07848C16.5673 2.07848 16.538 2.07307 16.5263 2.06225C16.5146 2.05142 16.4795 2.01894 16.4211 1.96482H16.386C16.3509 1.96482 16.3275 1.94858 16.3158 1.9161H16.2807H16.193C16.1696 1.88363 16.1462 1.85115 16.1228 1.81867C16.1111 1.7862 16.0819 1.76996 16.0351 1.76996C16.0351 1.76996 16.0234 1.76455 16 1.75372H15.9825C15.9474 1.75372 15.9181 1.74831 15.8947 1.73748C15.883 1.72666 15.8538 1.72124 15.807 1.72124C15.7836 1.72124 15.7661 1.70501 15.7544 1.67253C15.7544 1.64005 15.7368 1.62382 15.7018 1.62382C15.6784 1.67794 15.6491 1.70501 15.614 1.70501C15.5789 1.70501 15.5556 1.67794 15.5439 1.62382H15.4737C15.4503 1.62382 15.4211 1.64005 15.386 1.67253C15.3509 1.70501 15.3275 1.72124 15.3158 1.72124H15.2456L15.193 1.62382C15.193 1.67794 15.1871 1.71042 15.1754 1.72124C15.1754 1.72124 15.152 1.73207 15.1053 1.75372H15.0702V1.76996L14.8597 1.72124C14.848 1.73207 14.8304 1.73748 14.807 1.73748C14.7836 1.74831 14.7485 1.75372 14.7018 1.75372H14.6491V1.72124C14.6257 1.66712 14.6082 1.64005 14.5965 1.64005C14.5965 1.64005 14.5789 1.66712 14.5439 1.72124H14.4035V1.62382L14.386 1.72124H14.3684V1.62382C14.3216 1.67794 14.2924 1.71042 14.2807 1.72124C14.269 1.72124 14.2515 1.72124 14.2281 1.72124C14.193 1.66712 14.1637 1.64005 14.1404 1.64005C14.117 1.62923 14.0819 1.6184 14.0351 1.60758C14 1.56428 13.9591 1.54262 13.9123 1.54262C13.9006 1.52097 13.8772 1.51015 13.8421 1.51015C13.807 1.49932 13.7778 1.49391 13.7544 1.49391C13.7544 1.52639 13.7427 1.54262 13.7193 1.54262H13.7018H13.5789H13.5263C13.4795 1.58593 13.4503 1.58593 13.4386 1.54262H13.3333L13.1053 1.62382V1.60758C13.0819 1.60758 13.0585 1.60758 13.0351 1.60758C13.0117 1.60758 12.9883 1.61299 12.9649 1.62382L12.8772 1.72124H12.8596H12.7895H12.7544C12.731 1.72124 12.7193 1.73207 12.7193 1.75372L12.6491 1.76996L12.6316 1.75372C12.6199 1.7429 12.6023 1.73207 12.5789 1.72124C12.5322 1.69959 12.5029 1.66712 12.4912 1.62382H12.4561H12.386V1.75372L12.3333 1.76996L12.2456 1.72124H12.1579V1.76996H12.0351C12.0819 1.81326 12.1053 1.85115 12.1053 1.88363C12.117 1.90528 12.1345 1.9161 12.1579 1.9161L12.2281 1.96482L12.0351 1.99729L11.9298 1.9161V1.99729H11.8772H11.7895V1.9161C11.7895 1.89445 11.7836 1.87821 11.7719 1.86739C11.7602 1.85656 11.7485 1.84032 11.7368 1.81867C11.7251 1.79702 11.7135 1.78078 11.7018 1.76996V1.85115C11.7018 1.89445 11.6842 1.93234 11.6491 1.96482V1.99729L11.5439 1.9161L11.4561 1.99729H11.3509L11.2982 1.96482C11.2982 1.93234 11.269 1.9161 11.2105 1.9161C11.1637 1.88363 11.1228 1.85115 11.0877 1.81867C11.0643 1.7862 11.0351 1.76996 11 1.76996V1.85115C11 1.89445 11.0234 1.93234 11.0702 1.96482H11.1228H11.0702C11.0702 1.98647 11.0585 2.01353 11.0351 2.04601C11.0117 2.06766 10.9883 2.07848 10.9649 2.07848H10.8772C10.924 2.10013 10.9357 2.11637 10.9123 2.1272C10.8889 2.13802 10.8655 2.16509 10.8421 2.20839H10.7719C10.7485 2.20839 10.7193 2.22463 10.6842 2.2571C10.6608 2.28958 10.6374 2.30582 10.614 2.30582C10.5906 2.30582 10.5614 2.28958 10.5263 2.2571C10.5029 2.22463 10.4795 2.20839 10.4561 2.20839C10.4094 2.20839 10.3743 2.20298 10.3509 2.19215H10.2105L10.1404 2.1272V2.19215C10.0468 2.19215 10 2.1705 10 2.1272C9.95322 2.1272 9.92983 2.14885 9.92983 2.19215C9.90643 2.20298 9.87135 2.20839 9.82456 2.20839C9.77778 2.20839 9.73684 2.20298 9.70175 2.19215H9.66667H9.54386H9.47368H9.42105C9.42105 2.20298 9.39766 2.20839 9.35088 2.20839C9.31579 2.20839 9.2807 2.20298 9.24561 2.19215C9.24561 2.15967 9.23392 2.13802 9.21053 2.1272C9.18714 2.11637 9.17544 2.10013 9.17544 2.07848H9.10526C9.10526 2.10013 9.09357 2.11637 9.07018 2.1272C9.05848 2.1272 9.0117 2.1272 8.92982 2.1272V2.19215C8.89474 2.19215 8.87719 2.18133 8.87719 2.15968V2.1272L8.84211 2.19215H8.77193H8.7193C8.66082 2.19215 8.61988 2.1705 8.59649 2.1272V2.07848H8.45614V2.1272C8.38597 2.1272 8.35088 2.14885 8.35088 2.19215H8.26316C8.23977 2.19215 8.22807 2.19756 8.22807 2.20839C8.18129 2.20839 8.1345 2.22463 8.08772 2.2571C8.04094 2.27875 8.00585 2.26252 7.98246 2.20839H7.92982H7.89474V1.99729C7.87135 2.01894 7.84795 2.03518 7.82456 2.04601C7.81287 2.04601 7.80117 2.05142 7.78947 2.06225C7.77778 2.07307 7.76608 2.07848 7.75439 2.07848C7.7193 2.10013 7.69591 2.1272 7.68421 2.15968C7.68421 2.18133 7.67836 2.19756 7.66667 2.20839H7.5614C7.5614 2.23004 7.55556 2.24628 7.54386 2.2571C7.54386 2.26793 7.54386 2.27875 7.54386 2.28958L7.52632 2.30582L7.45614 2.33829H7.4386C7.38012 2.33829 7.35088 2.32747 7.35088 2.30582C7.32749 2.25169 7.29825 2.22463 7.26316 2.22463C7.22807 2.2138 7.19883 2.20839 7.17544 2.20839C7.11696 2.20839 7.08772 2.18133 7.08772 2.1272L6.94737 2.07848H7.08772H7.35088V1.99729C7.32749 1.97564 7.32164 1.96482 7.33333 1.96482C7.34503 1.95399 7.35088 1.93775 7.35088 1.9161C7.42105 1.9161 7.45614 1.86739 7.45614 1.76996C7.49123 1.76996 7.52047 1.76996 7.54386 1.76996C7.56725 1.75913 7.60819 1.75372 7.66667 1.75372C7.66667 1.73207 7.67252 1.72666 7.68421 1.73748C7.69591 1.74831 7.7193 1.75372 7.75439 1.75372C7.77778 1.76455 7.80702 1.77537 7.84211 1.7862C7.87719 1.7862 7.90643 1.80785 7.92982 1.85115C7.92982 1.88363 7.93567 1.90528 7.94737 1.9161C7.97076 1.92693 7.98246 1.94317 7.98246 1.96482C8.00585 1.96482 8.02339 1.97023 8.03509 1.98106C8.04678 1.99188 8.08187 1.99729 8.14035 1.99729C8.15205 1.99729 8.16959 1.99188 8.19298 1.98106C8.20468 1.98106 8.21638 1.98106 8.22807 1.98106C8.23977 1.97023 8.25146 1.96482 8.26316 1.96482C8.26316 1.93234 8.2924 1.9161 8.35088 1.9161V1.85115L8.45614 1.9161C8.45614 1.88363 8.45614 1.85115 8.45614 1.81867C8.46784 1.7862 8.48538 1.76996 8.50877 1.76996C8.59064 1.76996 8.64912 1.76455 8.68421 1.75372C8.74269 1.75372 8.79532 1.75913 8.84211 1.76996H8.92982H9.01754C9.05263 1.81326 9.08772 1.84032 9.12281 1.85115C9.16959 1.85115 9.21053 1.85115 9.24561 1.85115H9.31579C9.32749 1.85115 9.33333 1.85656 9.33333 1.86739C9.34503 1.86739 9.37427 1.88363 9.42105 1.9161V1.85115C9.46784 1.77537 9.54971 1.77537 9.66667 1.85115C9.66667 1.89445 9.67836 1.93234 9.70175 1.96482C9.71345 1.96482 9.72515 1.9594 9.73684 1.94858C9.76023 1.92693 9.77193 1.89445 9.77193 1.85115L9.78947 1.76996C9.78947 1.79161 9.79532 1.80785 9.80702 1.81867C9.83041 1.84032 9.85965 1.85115 9.89474 1.85115H9.92983V1.9161H10H10.0351H10.1228L10.1404 1.89986C10.1754 1.89986 10.1988 1.90528 10.2105 1.9161H10.2632C10.3099 1.9161 10.345 1.92151 10.3684 1.93234C10.3918 1.93234 10.4211 1.95399 10.4561 1.99729H10.614V1.96482V1.94858C10.614 1.92693 10.6316 1.9161 10.6667 1.9161V1.85115C10.6901 1.80785 10.7076 1.7862 10.7193 1.7862C10.731 1.77537 10.7485 1.76455 10.7719 1.75372H10.8421V1.72124C10.8655 1.72124 10.8772 1.71042 10.8772 1.68877C10.8889 1.65629 10.9181 1.66712 10.9649 1.72124V1.62382C10.9883 1.62382 11.0058 1.62382 11.0175 1.62382C11.0292 1.61299 11.0643 1.60758 11.1228 1.60758C11.1228 1.6184 11.1345 1.62382 11.1579 1.62382H11.2105H11.2982H11.3509H11.4561H11.5439H11.5614C11.5731 1.62382 11.5848 1.62382 11.5965 1.62382C11.6082 1.61299 11.6257 1.60758 11.6491 1.60758L11.4561 1.54262C11.4561 1.47767 11.4561 1.43978 11.4561 1.42896C11.4678 1.41813 11.4971 1.40731 11.5439 1.39648C11.6023 1.39648 11.6316 1.39648 11.6316 1.39648C11.6433 1.38566 11.6491 1.364 11.6491 1.33153H11.7018H11.7544V1.31529L11.7895 1.33153V1.21786L11.9298 1.31529C11.9298 1.26116 11.9474 1.2341 11.9825 1.2341C12.0292 1.22327 12.076 1.20704 12.1228 1.18539H12.1579V1.21786C12.1579 1.19621 12.1813 1.18539 12.2281 1.18539C12.2281 1.14208 12.2339 1.12043 12.2456 1.12043C12.2456 1.10961 12.2515 1.10419 12.2632 1.10419C12.2749 1.10419 12.2982 1.10961 12.3333 1.12043C12.3684 1.12043 12.386 1.11502 12.386 1.10419V1.08796C12.386 1.04465 12.3977 1.01218 12.4211 0.990528C12.4444 0.968876 12.4678 0.958051 12.4912 0.958051C12.4912 0.968877 12.4971 0.968877 12.5088 0.958051C12.5322 0.958051 12.5439 0.9364 12.5439 0.893099H12.6491C12.6842 0.893099 12.7193 0.903924 12.7544 0.925575C12.7895 0.947225 12.8246 0.958051 12.8596 0.958051L12.8772 1.00677V0.958051C12.8772 0.947225 12.883 0.9364 12.8947 0.925575C12.9181 0.903924 12.9415 0.893099 12.9649 0.893099C12.9649 0.882273 13 0.87686 13.0702 0.87686H13.1053H13.2105C13.2105 0.87686 13.2398 0.903924 13.2982 0.958051C13.3216 0.958051 13.3509 0.968876 13.386 0.990528C13.4211 1.01218 13.4386 1.04465 13.4386 1.08796C13.4503 1.08796 13.4678 1.09878 13.4912 1.12043C13.5146 1.13126 13.5263 1.15291 13.5263 1.18539L13.5789 1.21786L13.6667 1.31529L13.7544 1.18539L13.9825 1.31529L14.0351 1.33153C14.0351 1.37483 14.0468 1.39648 14.0702 1.39648C14.0819 1.40731 14.0994 1.40731 14.1228 1.39648C14.1228 1.40731 14.1287 1.40731 14.1404 1.39648V1.38024C14.1404 1.36942 14.1404 1.36401 14.1404 1.36401C14.152 1.35318 14.1579 1.34235 14.1579 1.33153H14.2281V1.31529H14.2807H14.386C14.3977 1.31529 14.4094 1.31529 14.4211 1.31529C14.4327 1.31529 14.4737 1.3207 14.5439 1.33153H14.6491C14.6491 1.37483 14.655 1.39648 14.6667 1.39648C14.6784 1.40731 14.6901 1.40731 14.7018 1.39648H14.7719V1.41272L14.8597 1.39648L14.8772 1.38024C14.8889 1.38024 14.9006 1.38024 14.9123 1.38024C14.924 1.36942 14.9415 1.37483 14.9649 1.39648V1.33153H15.0175C15.0526 1.37483 15.0819 1.39648 15.1053 1.39648V1.41272H15.193V1.39648H15.3158H15.4386L15.4737 1.41272C15.5088 1.41272 15.5322 1.41272 15.5439 1.41272C15.5673 1.40189 15.6023 1.39648 15.6491 1.39648H15.7018H15.7368C15.7485 1.39648 15.7602 1.40189 15.7719 1.41272H15.9123H16.0351H16.1404H16.193V1.49391C16.193 1.50474 16.1988 1.51556 16.2105 1.52639C16.2222 1.53721 16.2456 1.54262 16.2807 1.54262V1.60758H16.3158H16.3684C16.3684 1.6184 16.3801 1.64005 16.4035 1.67253C16.4269 1.70501 16.4678 1.72124 16.5263 1.72124H16.5789C16.5906 1.72124 16.614 1.73748 16.6491 1.76996C16.7076 1.75913 16.7485 1.75372 16.7719 1.75372H16.807C16.8187 1.75372 16.8304 1.75913 16.8421 1.76996C16.8538 1.76996 16.8713 1.76996 16.8947 1.76996H16.9825H16.8947C16.8947 1.74831 16.8947 1.73207 16.8947 1.72124C16.9064 1.71042 16.9357 1.67794 16.9825 1.62382C17.0058 1.62382 17.0234 1.62382 17.0351 1.62382C17.0585 1.61299 17.0819 1.60758 17.1053 1.60758V1.54262H17.2105C17.2222 1.54262 17.2281 1.56428 17.2281 1.60758H17.2982H17.3158C17.3743 1.6184 17.4152 1.62923 17.4386 1.64005C17.462 1.64005 17.4737 1.66712 17.4737 1.72124H17.5263H17.5614L17.7018 1.60758H17.7719C17.7836 1.60758 17.8129 1.60216 17.8596 1.59134C17.9181 1.56969 17.9649 1.5751 18 1.60758C18 1.60758 18.0058 1.61299 18.0175 1.62382H18.0877L18.1579 1.72124V1.85115V1.9161V1.96482C18.1579 1.98647 18.1345 1.98647 18.0877 1.96482C18.0877 1.98647 18.0994 1.99729 18.1228 1.99729H18.1579C18.2632 1.99729 18.3158 2.06225 18.3158 2.19215H18.386V2.20839C18.4094 2.19756 18.4386 2.19215 18.4737 2.19215C18.5088 2.19215 18.538 2.19215 18.5614 2.19215H18.6316C18.6316 2.20298 18.6374 2.20839 18.6491 2.20839C18.6959 2.26252 18.7193 2.29499 18.7193 2.30582C18.731 2.30582 18.7485 2.31664 18.7719 2.33829L18.8421 2.38701H18.8596C18.8596 2.38701 18.8655 2.39783 18.8772 2.41949H18.9649V2.45196C18.9649 2.49526 18.9766 2.48444 19 2.41949H19.0526L19.1053 2.38701V2.41949C19.1637 2.41949 19.193 2.41407 19.193 2.40325C19.2047 2.39242 19.2164 2.38701 19.2281 2.38701L19.2982 2.33829L19.5263 2.38701C19.5497 2.36536 19.5789 2.35453 19.614 2.35453C19.6491 2.35453 19.6725 2.36536 19.6842 2.38701C19.7193 2.40866 19.7544 2.4249 19.7895 2.43572C19.8363 2.43572 19.8713 2.45737 19.8947 2.50068C19.9181 2.50068 19.9357 2.50609 19.9474 2.51691C19.9708 2.51691 20.0058 2.52774 20.0526 2.54939V2.64682C20.076 2.62517 20.0877 2.59269 20.0877 2.54939C20.1111 2.52774 20.1345 2.51691 20.1579 2.51691C20.193 2.51691 20.2456 2.52774 20.3158 2.54939H20.4211C20.4327 2.56022 20.4444 2.56563 20.4561 2.56563C20.4678 2.57645 20.4795 2.58187 20.4912 2.58187C20.5029 2.58187 20.5088 2.59269 20.5088 2.61434V2.58187C20.5088 2.56022 20.5205 2.54939 20.5439 2.54939V2.50068H20.614L20.6316 2.54939C20.6784 2.54939 20.7076 2.56022 20.7193 2.58187C20.731 2.60352 20.7485 2.61434 20.7719 2.61434C20.8187 2.63599 20.883 2.61434 20.9649 2.54939V2.50068V2.41949H21C21 2.39783 21.0292 2.38701 21.0877 2.38701C21.0994 2.36536 21.1228 2.35453 21.1579 2.35453C21.193 2.35453 21.2222 2.36536 21.2456 2.38701C21.2456 2.40866 21.2632 2.41949 21.2982 2.41949L21.3333 2.38701H21.4737H21.5439C21.5673 2.27875 21.6667 2.2138 21.8421 2.19215C21.8772 2.19215 21.9064 2.19215 21.9298 2.19215C21.9649 2.18133 22.0058 2.15968 22.0526 2.1272H22.0877H22.1404L22.1754 2.07848H22.2807C22.2924 2.03518 22.3099 2.01353 22.3333 2.01353C22.3684 2.01353 22.3977 2.03518 22.4211 2.07848H22.5088C22.5088 2.00271 22.5906 1.96482 22.7544 1.96482V1.9161L22.8421 1.85115C22.8655 1.80785 22.8889 1.77537 22.9123 1.75372C22.9474 1.73207 22.9766 1.68877 23 1.62382C23.0351 1.61299 23.0526 1.59675 23.0526 1.5751C23.0526 1.55345 23.0351 1.54262 23 1.54262C23 1.52097 23 1.49391 23 1.46143C23.0117 1.42896 23.0351 1.40731 23.0702 1.39648H23.0877C23.1696 1.35318 23.2339 1.31529 23.2807 1.28281C23.3392 1.23951 23.3977 1.20704 23.4561 1.18539H23.5439V1.33153V1.39648V1.41272C23.5556 1.41272 23.5789 1.42896 23.614 1.46143C23.6257 1.47226 23.6316 1.48308 23.6316 1.49391L23.7018 1.54262C23.7018 1.51015 23.7076 1.46685 23.7193 1.41272V1.33153H23.7018V1.31529V1.26658C23.7018 1.2341 23.7076 1.21786 23.7193 1.21786V1.12043L23.8246 1.08796C23.848 1.08796 23.8713 1.08796 23.8947 1.08796C23.9181 1.07713 23.9298 1.05007 23.9298 1.00677V0.958051H23.9474L24.0351 1.00677V0.958051C24.0351 0.968877 24.0409 0.968877 24.0526 0.958051C24.076 0.958051 24.0877 0.9364 24.0877 0.893099C24.1111 0.893099 24.1228 0.893099 24.1228 0.893099C24.1345 0.882273 24.1462 0.87686 24.1579 0.87686H24.1754C24.269 0.87686 24.345 0.882273 24.4035 0.893099V0.909337C24.4035 0.920162 24.4035 0.925575 24.4035 0.925575C24.4152 0.925575 24.4211 0.9364 24.4211 0.958051C24.4678 0.979702 24.4912 0.99594 24.4912 1.00677C24.5029 1.00677 24.5146 1.00677 24.5263 1.00677C24.538 1.00677 24.5556 1.01218 24.5789 1.023C24.5906 1.03383 24.6023 1.04466 24.614 1.05548C24.6257 1.05548 24.6374 1.06631 24.6491 1.08796C24.6491 1.04465 24.6608 1.01759 24.6842 1.00677C24.7193 0.99594 24.7368 0.979702 24.7368 0.958051L24.7544 0.893099H24.8246V0.958051C24.848 0.958051 24.8655 0.958051 24.8772 0.958051C24.8889 0.947225 24.9181 0.925575 24.9649 0.893099H25C25 0.882273 25.0117 0.87686 25.0351 0.87686C25.0585 0.87686 25.0819 0.87686 25.1053 0.87686L25.193 0.795669L25.2982 0.87686L25.2281 0.958051C25.2398 0.968877 25.2515 0.968877 25.2632 0.958051C25.2866 0.958051 25.2982 0.9364 25.2982 0.893099C25.3918 0.893099 25.4386 0.887686 25.4386 0.87686L25.4561 0.795669H25.4912H25.5965L25.5789 0.779431C25.5673 0.779431 25.5556 0.779431 25.5439 0.779431C25.5322 0.768606 25.5146 0.763193 25.4912 0.763193C25.4912 0.719891 25.4912 0.698241 25.4912 0.698241C25.5029 0.687415 25.538 0.67659 25.5965 0.665765H25.614H25.6842H25.7368C25.7602 0.665765 25.7719 0.671177 25.7719 0.682003C25.7836 0.682003 25.7953 0.682003 25.807 0.682003H25.8246C25.8246 0.73613 25.8363 0.763193 25.8597 0.763193L25.9123 0.795669L25.8597 0.87686C25.9181 0.87686 25.9766 0.882273 26.0351 0.893099V0.958051C26.0585 0.979702 26.0877 0.99594 26.1228 1.00677C26.1696 1.01759 26.2222 1.04465 26.2807 1.08796H26.3158H26.4035H26.4912H26.614H26.6491C26.6959 1.08796 26.7427 1.09337 26.7895 1.10419C26.8363 1.10419 26.8597 1.13126 26.8597 1.18539C26.883 1.18539 26.8947 1.1908 26.8947 1.20162C26.9064 1.20162 26.9181 1.20162 26.9298 1.20162L26.9474 1.21786H27.0175V1.31529V1.21786L27.0702 1.18539C27.0936 1.15291 27.117 1.13126 27.1404 1.12043C27.1754 1.09878 27.193 1.06089 27.193 1.00677H27.1053H27.3509H27.3684C27.3684 1.08254 27.3626 1.14208 27.3509 1.18539C27.3275 1.18539 27.3158 1.19621 27.3158 1.21786L27.3509 1.31529V1.29905C27.3509 1.29905 27.3567 1.28823 27.3684 1.26658V1.21786C27.4035 1.16373 27.4327 1.13667 27.4561 1.13667C27.4912 1.12585 27.5322 1.12043 27.5789 1.12043C27.6023 1.16373 27.614 1.16373 27.614 1.12043H27.6842H27.7368V1.08796L27.8246 1.21786C27.8363 1.21786 27.8655 1.20704 27.9123 1.18539C27.9357 1.18539 27.9708 1.18539 28.0175 1.18539C28.0643 1.18539 28.1053 1.19621 28.1404 1.21786V1.18539V1.21786C28.1637 1.21786 28.1813 1.21245 28.193 1.20162C28.2047 1.17997 28.2339 1.15291 28.2807 1.12043C28.2807 1.09878 28.2982 1.07713 28.3333 1.05548C28.3684 1.023 28.3977 1.00677 28.4211 1.00677L28.5088 0.958051V0.87686V0.795669H28.614C28.614 0.763193 28.655 0.763193 28.7368 0.795669C28.7602 0.774019 28.7719 0.768606 28.7719 0.779431C28.7836 0.790257 28.807 0.795669 28.8421 0.795669H28.8597H29L28.8597 0.893099C28.9298 0.893099 28.9708 0.893099 28.9825 0.893099C28.9942 0.893099 29 0.887686 29 0.87686L29.0702 0.795669L29.2281 0.87686L29.2632 0.763193H29.3509V0.795669V0.87686V0.795669H29.386V0.763193H29.4737L29.4912 0.779431V0.795669V0.763193V0.665765H29.5789L29.6316 0.584574H29.7193C29.7544 0.584574 29.7778 0.579161 29.7895 0.568335C29.8012 0.55751 29.807 0.546684 29.807 0.535859C29.8889 0.535859 29.9357 0.514208 29.9474 0.470906C30.0409 0.470906 30.1111 0.465494 30.1579 0.454668C30.1696 0.400541 30.1871 0.373478 30.2105 0.373478C30.2456 0.362652 30.2749 0.357239 30.2982 0.357239C30.3333 0.357239 30.3626 0.351826 30.386 0.341001C30.4211 0.330176 30.462 0.335588 30.5088 0.357239V0.373478C30.5088 0.384303 30.5146 0.395128 30.5263 0.405954V0.454668C30.5263 0.400541 30.5322 0.362652 30.5439 0.341001C30.5673 0.308525 30.5614 0.270636 30.5263 0.227334H30.5965C30.6199 0.184032 30.6491 0.162381 30.6842 0.162381C30.7193 0.151556 30.7427 0.135318 30.7544 0.113667C30.8012 0.0811907 30.8363 0.0541271 30.8596 0.0324759C30.8947 0.0108253 30.9415 0 31 0V0.0487139V0.113667ZM13.2105 1.18539H13.1053V1.12043L13 1.18539L12.9649 1.31529L12.8596 1.18539H12.7895C12.7895 1.20704 12.7778 1.21786 12.7544 1.21786H12.7193C12.6725 1.21786 12.6491 1.2341 12.6491 1.26658C12.6374 1.28823 12.6374 1.30447 12.6491 1.31529C12.6491 1.32612 12.6433 1.33153 12.6316 1.33153C12.5497 1.39648 12.4912 1.39648 12.4561 1.33153H12.386C12.3743 1.34235 12.3743 1.35318 12.386 1.36401C12.386 1.38566 12.4094 1.39648 12.4561 1.39648H12.4737L12.4912 1.41272H12.5439H12.6491V1.39648L12.8596 1.41272H12.8772C12.8772 1.40189 12.8889 1.39648 12.9123 1.39648C12.9474 1.38566 12.9649 1.364 12.9649 1.33153H13.0702C13.0702 1.3207 13.117 1.31529 13.2105 1.31529V1.18539ZM13.3333 1.39648H13.4386H13.3333ZM17.1053 1.9161L17.2105 1.96482L17.1053 1.9161ZM3.40351 7.30717C3.45029 7.30717 3.49708 7.29093 3.54386 7.25846H3.47368H3.40351C3.35673 7.25846 3.34503 7.26928 3.36842 7.29093C3.36842 7.30176 3.38012 7.30717 3.40351 7.30717ZM4.84211 6.88498C4.8655 6.89581 4.87719 6.90663 4.87719 6.91746C4.87719 6.91746 4.88304 6.92287 4.89474 6.93369C4.89474 6.94452 4.90059 6.95535 4.91228 6.96617C4.91228 6.92287 4.92398 6.90122 4.94737 6.90122V6.88498H4.91228H4.84211ZM4.84211 8.5088C4.84211 8.49797 4.83626 8.49256 4.82456 8.49256C4.80117 8.49256 4.78363 8.49797 4.77193 8.5088C4.76023 8.5088 4.74854 8.5088 4.73684 8.5088H4.7193H4.84211ZM5.4386 8.15156H5.35088L5.31579 8.07036H5.22807C5.22807 8.12449 5.21637 8.15156 5.19298 8.15156V8.18403H5.22807C5.23977 8.20568 5.25731 8.22192 5.2807 8.23275C5.30409 8.2544 5.32749 8.26522 5.35088 8.26522H5.4386V8.15156ZM5.52632 7.98917C5.54971 7.96752 5.5614 7.95129 5.5614 7.94046C5.5614 7.92963 5.54971 7.89716 5.52632 7.84303C5.51462 7.83221 5.49708 7.82138 5.47368 7.81055C5.4386 7.7889 5.39766 7.79973 5.35088 7.84303H5.31579V7.87551C5.31579 7.88633 5.32749 7.89175 5.35088 7.89175C5.35088 7.90257 5.35673 7.9134 5.36842 7.92422C5.39181 7.94587 5.41521 7.9567 5.4386 7.9567C5.46199 7.9567 5.49123 7.96752 5.52632 7.98917ZM5.47368 7.53451H5.52632H5.47368ZM5.57895 6.7226H5.52632C5.49123 6.69012 5.46199 6.67388 5.4386 6.67388L5.47368 6.7226H5.4386C5.4386 6.74425 5.40936 6.75507 5.35088 6.75507C5.32749 6.79838 5.29825 6.82544 5.26316 6.83627C5.23977 6.84709 5.22807 6.86333 5.22807 6.88498H5.19298V6.96617H5.22807L5.19298 7.03112C5.1579 7.07442 5.1345 7.10149 5.12281 7.11231C5.11111 7.11231 5.08772 7.1069 5.05263 7.09608H4.94737V7.11231C5.00585 7.11231 5.03509 7.12855 5.03509 7.16103C5.03509 7.1935 5.00585 7.22598 4.94737 7.25846H4.91228H4.84211H4.82456H4.7193H4.68421C4.68421 7.28011 4.67251 7.29093 4.64912 7.29093C4.62573 7.29093 4.60234 7.28011 4.57895 7.25846C4.53216 7.22598 4.50292 7.20433 4.49123 7.1935C4.49123 7.18268 4.49123 7.15562 4.49123 7.11231H4.4386H4.36842V7.09608V6.90122H4.26316C4.25146 6.90122 4.22807 6.91204 4.19298 6.93369C4.16959 6.94452 4.1579 6.93369 4.1579 6.90122L4.03509 7.03112L4.01754 6.96617C4.00585 6.977 3.99415 6.98241 3.98246 6.98241C3.95906 7.00406 3.94737 7.0203 3.94737 7.03112V7.09608V7.11231H3.77193L3.80702 7.30717L3.64912 7.42084H3.70175H3.73684C3.76023 7.42084 3.77193 7.43166 3.77193 7.45331C3.79532 7.45331 3.80702 7.46955 3.80702 7.50203C3.81871 7.52368 3.84795 7.53451 3.89474 7.53451L3.94737 7.63194H4.03509H4.12281H4.1579L4.35088 7.53451L4.4386 7.63194C4.46199 7.63194 4.47368 7.63194 4.47368 7.63194C4.48538 7.62111 4.49123 7.58863 4.49123 7.53451C4.53801 7.53451 4.5731 7.53451 4.59649 7.53451C4.61988 7.52368 4.64912 7.49662 4.68421 7.45331V7.42084H4.84211L4.94737 7.53451L5.05263 7.45331C5.06433 7.45331 5.07018 7.4479 5.07018 7.43708C5.07018 7.42625 5.06433 7.39378 5.05263 7.33965V7.30717H5.07018H5.19298C5.21637 7.32882 5.25731 7.32882 5.31579 7.30717L5.4386 7.1935C5.38012 7.1935 5.32749 7.18268 5.2807 7.16103C5.24561 7.12855 5.22807 7.1069 5.22807 7.09608V7.03112C5.27485 6.99865 5.30994 6.98241 5.33333 6.98241C5.35673 6.97158 5.39181 6.96617 5.4386 6.96617C5.4386 6.92287 5.46784 6.89581 5.52632 6.88498H5.4386L5.47368 6.83627L5.50877 6.80379C5.54386 6.77131 5.56725 6.75507 5.57895 6.75507V6.7226ZM20.1754 11.7889V11.8701V11.7889ZM17.2281 11.253H17.2982H17.3158V11.2206L17.2281 11.253ZM8.84211 9.95399H8.87719V10.0189C8.91228 10.0189 8.92982 10.0622 8.92982 10.1488V10.23H9.08772V10.2138C9.08772 10.203 9.08772 10.1976 9.08772 10.1976C9.09942 10.1867 9.10526 10.1705 9.10526 10.1488H9.17544H9.21053C9.23392 10.1488 9.24561 10.138 9.24561 10.1164C9.24561 10.0731 9.25731 10.046 9.2807 10.0352C9.30409 10.0135 9.32164 9.98647 9.33333 9.95399V9.90528V9.93775C9.33333 9.94858 9.32749 9.95399 9.31579 9.95399H9.17544V9.90528C9.17544 9.85115 9.15205 9.82409 9.10526 9.82409C9.09357 9.82409 9.07018 9.81867 9.03509 9.80785C9.0117 9.79702 8.97661 9.80244 8.92982 9.82409H8.87719H8.84211V9.90528V9.95399ZM8.50877 10.0352C8.53216 10.0568 8.54971 10.0731 8.5614 10.0839C8.5731 10.0839 8.5848 10.0893 8.59649 10.1001C8.60819 10.111 8.61988 10.1164 8.63158 10.1164L8.64912 10.1001C8.67251 10.0785 8.68421 10.0568 8.68421 10.0352H8.63158V10.0189H8.59649H8.50877V10.0352ZM8.38597 9.72666H8.50877V9.69418H8.45614H8.38597V9.72666ZM8.14035 9.1908H8.22807H8.14035ZM7.5614 9.1908C7.61988 9.16915 7.64912 9.15832 7.64912 9.15832C7.64912 9.15832 7.61988 9.15832 7.5614 9.15832V9.1908ZM7.22807 9.36942H7.17544H7.22807ZM6.92983 9.1908H6.94737H6.92983ZM9.01754 5.56969H8.92982H9.01754ZM6.47368 6.08931H6.49123V6.02436L6.47368 6.08931ZM6 6.96617H6.01754H6ZM5.89474 7.11231L6 7.09608H5.89474V7.11231ZM5.78947 6.90122H5.77193H5.78947ZM5.70175 7.42084C5.73684 7.42084 5.76023 7.42084 5.77193 7.42084C5.79532 7.41001 5.83626 7.38295 5.89474 7.33965L5.78947 7.30717C5.77778 7.30717 5.76608 7.31258 5.75439 7.32341C5.75439 7.33423 5.73684 7.33965 5.70175 7.33965H5.68421L5.70175 7.42084ZM5.77193 7.76184C5.76023 7.76184 5.74854 7.76725 5.73684 7.77808C5.71345 7.79973 5.70175 7.82138 5.70175 7.84303C5.74854 7.84303 5.77778 7.81597 5.78947 7.76184H5.77193ZM6.10526 8.57375C6.10526 8.56292 6.09942 8.5521 6.08772 8.54127C6.06433 8.51962 6.04094 8.5088 6.01754 8.5088V8.57375H6.10526ZM6.26316 8.36265C6.26316 8.35183 6.27485 8.33559 6.29825 8.31394C6.30994 8.31394 6.32749 8.30853 6.35088 8.2977L6.26316 8.18403H6.35088H6.26316V8.15156C6.23977 8.09743 6.20468 8.07036 6.15789 8.07036H6L5.92983 7.98917C5.90643 8.03248 5.87719 8.0433 5.84211 8.02165C5.80702 8 5.78947 7.97835 5.78947 7.9567H5.77193V8.07036H5.70175V8.18403C5.72515 8.20568 5.73684 8.22192 5.73684 8.23275C5.73684 8.24357 5.74269 8.2544 5.75439 8.26522C5.75439 8.27605 5.76023 8.28687 5.77193 8.2977L5.78947 8.36265H5.89474C5.91813 8.36265 5.92983 8.37889 5.92983 8.41137C5.97661 8.37889 6 8.341 6 8.2977H6.01754H6.15789L6.22807 8.41137C6.25146 8.41137 6.26316 8.40595 6.26316 8.39513V8.36265ZM6.01754 7.89175C6.01754 7.92422 6.02924 7.94587 6.05263 7.9567C6.08772 7.9567 6.10526 7.96752 6.10526 7.98917C6.14035 7.96752 6.15789 7.91881 6.15789 7.84303H6.10526C6.10526 7.87551 6.08772 7.89175 6.05263 7.89175H6.01754ZM6.26316 6.96617V6.88498V6.96617ZM6.7193 7.33965V7.30717L6.68421 7.25846L6.7193 7.33965ZM7.98246 6.64141H7.92982H7.91228C7.90059 6.64141 7.89474 6.65223 7.89474 6.67388C7.91813 6.67388 7.92982 6.66306 7.92982 6.64141H7.98246ZM8.14035 6.08931V5.99188L7.92982 6.02436C7.92982 6.00271 7.88889 5.99188 7.80702 5.99188H7.68421C7.67252 6.01353 7.64912 6.01894 7.61404 6.00812C7.57895 5.99729 7.54971 5.99188 7.52632 5.99188H7.45614C7.44444 5.99188 7.40936 6.00271 7.35088 6.02436C7.26901 6.02436 7.22807 6.04601 7.22807 6.08931H7.19298C7.18129 6.08931 7.17544 6.10555 7.17544 6.13802C7.14035 6.13802 7.11111 6.14885 7.08772 6.1705C7.06433 6.19215 7.01754 6.18133 6.94737 6.13802V6.21921C6.94737 6.23004 6.95906 6.2571 6.98246 6.30041C7.01754 6.34371 7.05263 6.38701 7.08772 6.43031L7.01754 6.44655C6.97076 6.44655 6.94737 6.47361 6.94737 6.52774C6.93567 6.62517 6.85965 6.63599 6.7193 6.56022L6.57895 6.44655H6.63158L6.57895 6.43031L6.63158 6.34912C6.65497 6.32747 6.67251 6.31123 6.68421 6.30041C6.7076 6.28958 6.7193 6.26793 6.7193 6.23545L6.70175 6.21921H6.68421H6.63158C6.63158 6.23004 6.5848 6.23545 6.49123 6.23545V6.30041C6.49123 6.33288 6.48538 6.37618 6.47368 6.43031C6.47368 6.44114 6.45614 6.44655 6.42105 6.44655C6.39766 6.44655 6.37427 6.44114 6.35088 6.43031V6.44655C6.2924 6.44655 6.26316 6.47361 6.26316 6.52774H6.22807C6.22807 6.54939 6.21637 6.56022 6.19298 6.56022H6.15789L6.22807 6.67388H6.15789H6.01754H6.10526H6.15789H6.26316C6.32164 6.67388 6.35673 6.6793 6.36842 6.69012C6.39181 6.69012 6.4269 6.70095 6.47368 6.7226C6.47368 6.74425 6.47368 6.76049 6.47368 6.77131C6.48538 6.78214 6.49123 6.82003 6.49123 6.88498V6.96617C6.49123 6.99865 6.50292 7.0203 6.52632 7.03112C6.5614 7.04195 6.57895 7.0636 6.57895 7.09608H6.63158V7.03112C6.66667 7.03112 6.68421 7.0203 6.68421 6.99865V6.96617H6.7193C6.78947 6.91204 6.8655 6.88498 6.94737 6.88498C7.01754 6.88498 7.06433 6.87415 7.08772 6.8525C7.11111 6.83085 7.14035 6.79838 7.17544 6.75507C7.21053 6.75507 7.25146 6.74425 7.29825 6.7226L7.35088 6.67388H7.4386C7.45029 6.65223 7.47953 6.64141 7.52632 6.64141H7.5614H7.66667C7.66667 6.63058 7.64912 6.60893 7.61404 6.57645C7.59064 6.56563 7.5731 6.56022 7.5614 6.56022V6.52774H7.66667V6.44655C7.66667 6.44655 7.69591 6.41407 7.75439 6.34912C7.77778 6.32747 7.80702 6.31123 7.84211 6.30041C7.87719 6.28958 7.89474 6.26793 7.89474 6.23545C7.89474 6.23545 7.90059 6.23004 7.91228 6.21921H7.92982V6.18674C7.92982 6.17591 7.94737 6.18674 7.98246 6.21921V6.13802L8.03509 6.08931H8.14035ZM8.14035 6.30041V6.34912H8.22807H8.26316H8.35088C8.37427 6.34912 8.38597 6.33288 8.38597 6.30041V6.23545L8.14035 6.30041ZM10.3509 5.79702C10.3041 5.72124 10.2807 5.67794 10.2807 5.66712C10.2807 5.64547 10.3041 5.62382 10.3509 5.60216L10.2632 5.4885L10 5.65088H9.92983C9.92983 5.68336 9.91813 5.69959 9.89474 5.69959H9.78947V5.79702L9.77193 5.69959C9.77193 5.66712 9.74854 5.65088 9.70175 5.65088V5.60216H9.66667H9.61404C9.57895 5.60216 9.5614 5.59134 9.5614 5.56969H9.54386H9.47368C9.47368 5.59134 9.45614 5.60216 9.42105 5.60216V5.65088V5.69959C9.39766 5.69959 9.36842 5.71583 9.33333 5.74831C9.32164 5.76996 9.31579 5.7862 9.31579 5.79702C9.26901 5.80785 9.22222 5.81326 9.17544 5.81326H9.08772C9.05263 5.81326 9.0117 5.82409 8.96491 5.84574C8.92982 5.85656 8.90059 5.84574 8.87719 5.81326L8.84211 5.79702V5.69959H8.77193V5.79702C8.73684 5.80785 8.7193 5.83491 8.7193 5.87821H8.68421C8.68421 5.89986 8.67836 5.92693 8.66667 5.9594C8.66667 5.98106 8.65497 5.99188 8.63158 5.99188C8.60819 5.99188 8.59649 6.00271 8.59649 6.02436C8.50292 6.02436 8.45614 6.06225 8.45614 6.13802C8.42105 6.18133 8.39766 6.20839 8.38597 6.21921C8.38597 6.21921 8.38597 6.22463 8.38597 6.23545V6.21921L8.45614 6.23545H8.50877C8.59064 6.23545 8.64912 6.23004 8.68421 6.21921H8.7193H8.77193V6.13802V6.21921H8.84211H8.87719C8.91228 6.21921 8.92982 6.20839 8.92982 6.18674V6.13802C8.97661 6.13802 9.0117 6.13261 9.03509 6.12179C9.05848 6.11096 9.07602 6.10013 9.08772 6.08931H9.10526C9.15205 6.08931 9.19883 6.10555 9.24561 6.13802H9.31579H9.33333C9.33333 6.10555 9.34503 6.08931 9.36842 6.08931H9.42105V6.02436V5.99188L9.66667 6.02436V6.08931C9.69006 6.05683 9.7193 6.02977 9.75439 6.00812C9.78947 5.98647 9.83626 5.95399 9.89474 5.91069C9.91813 5.88904 9.94152 5.87821 9.96491 5.87821C9.9883 5.87821 10.0117 5.87821 10.0351 5.87821C10.1053 5.89986 10.1637 5.89986 10.2105 5.87821L10.2632 5.81326H10.3333C10.345 5.81326 10.3509 5.80785 10.3509 5.79702ZM10.4561 5.37483C10.4795 5.42896 10.4912 5.42896 10.4912 5.37483L10.4561 5.35859V5.37483ZM10.8421 5.17997C10.8187 5.20162 10.8012 5.21786 10.7895 5.22869C10.7778 5.22869 10.7661 5.2341 10.7544 5.24493C10.7427 5.25575 10.731 5.26116 10.7193 5.26116C10.7193 5.27199 10.7368 5.2774 10.7719 5.2774C10.807 5.2774 10.8363 5.2774 10.8596 5.2774C10.883 5.26658 10.9181 5.2341 10.9649 5.17997H10.8421ZM11.7018 4.77402V4.69283L11.6491 4.82273V4.8065C11.6491 4.78484 11.6667 4.77402 11.7018 4.77402ZM11.9298 4.69283V4.67659V4.69283ZM20.6316 2.8092V2.74425V2.72801H20.5439H20.5088H20.4561C20.4444 2.72801 20.4327 2.73342 20.4211 2.74425C20.3977 2.74425 20.386 2.75507 20.386 2.77673V2.8092V2.84168C20.4094 2.8958 20.4211 2.92828 20.4211 2.93911C20.4327 2.93911 20.462 2.94452 20.5088 2.95534C20.5088 2.95534 20.5205 2.94993 20.5439 2.93911L20.614 2.84168L20.6316 2.8092ZM20.9649 2.8092H20.8772H20.9649ZM24.3158 1.31529H24.2807C24.2222 1.31529 24.1871 1.31529 24.1754 1.31529C24.1754 1.31529 24.1754 1.3207 24.1754 1.33153L24.2807 1.41272C24.3041 1.41272 24.3158 1.39648 24.3158 1.36401V1.33153V1.31529ZM25.6842 0.958051V0.893099V0.958051ZM25.9474 1.54262C25.9825 1.54262 26.0058 1.53721 26.0175 1.52639C26.0292 1.51556 26.0351 1.50474 26.0351 1.49391H25.9474V1.54262ZM25.9474 1.33153C26.0058 1.33153 26.0351 1.29364 26.0351 1.21786H25.9474L25.9123 1.41272V1.39648C25.9357 1.39648 25.9474 1.38566 25.9474 1.36401V1.33153ZM26.1754 1.72124V1.60758H26.1579C26.1111 1.6184 26.0819 1.62923 26.0702 1.64005C26.0702 1.64005 26.0702 1.66712 26.0702 1.72124C26.1404 1.72124 26.1754 1.73207 26.1754 1.75372V1.72124ZM26.5439 1.41272H26.614H26.5439ZM28.7719 0.893099H28.6491C28.6257 0.9364 28.5848 0.958051 28.5263 0.958051L28.6491 1.00677H28.7368V0.990528C28.7368 0.968876 28.7485 0.958051 28.7719 0.958051V0.893099ZM28.8597 1.00677V1.03924C28.8597 1.05007 28.8538 1.05548 28.8421 1.05548C28.8421 1.04466 28.8421 1.02842 28.8421 1.00677V1.08796H28.8597V1.00677ZM29.3509 0.87686L29.2632 0.893099H29.3509V0.87686ZM29.5789 0.958051V0.893099H29.4912L29.5789 0.958051Z" fill="black"/>
</svg>
